<?xml version="1.0" encoding="UTF-8" standalone="no"?>
<!DOCTYPE svg PUBLIC "-//W3C//DTD SVG 1.1//EN"
 "http://www.w3.org/Graphics/SVG/1.1/DTD/svg11.dtd">
<!-- Generated by graphviz version 2.36.0 (20140111.2315)
 -->
<!-- Title: sgfx::Dim Pages: 1 -->
<svg width="118pt" height="400pt"
 viewBox="0.00 0.00 118.00 400.00" xmlns="http://www.w3.org/2000/svg" xmlns:xlink="http://www.w3.org/1999/xlink">
<g id="graph0" class="graph" transform="scale(1 1) rotate(0) translate(4 396)">
<title>sgfx::Dim</title>
<!-- Node1 -->
<g id="node1" class="node"><title>Node1</title>
<polygon fill="#bfbfbf" stroke="black" points="-0.939453,-1 -0.939453,-115 110.939,-115 110.939,-1 -0.939453,-1"/>
<text text-anchor="middle" x="55" y="-103" font-family="Helvetica,sans-Serif" font-size="10.00">sgfx::Dim</text>
<polyline fill="none" stroke="black" points="-0.939453,-97 110.939,-97 "/>
<text text-anchor="middle" x="55" y="-85" font-family="Helvetica,sans-Serif" font-size="10.00"> </text>
<polyline fill="none" stroke="black" points="-0.939453,-79 110.939,-79 "/>
<text text-anchor="start" x="7.06055" y="-67" font-family="Helvetica,sans-Serif" font-size="10.00">+ Dim()</text>
<text text-anchor="start" x="7.06055" y="-57" font-family="Helvetica,sans-Serif" font-size="10.00">+ Dim()</text>
<text text-anchor="start" x="7.06055" y="-47" font-family="Helvetica,sans-Serif" font-size="10.00">+ Dim()</text>
<text text-anchor="start" x="7.06055" y="-37" font-family="Helvetica,sans-Serif" font-size="10.00">+ dim()</text>
<text text-anchor="start" x="7.06055" y="-27" font-family="Helvetica,sans-Serif" font-size="10.00">+ height()</text>
<text text-anchor="start" x="7.06055" y="-17" font-family="Helvetica,sans-Serif" font-size="10.00">+ operator sg_dim_t()</text>
<text text-anchor="start" x="7.06055" y="-7" font-family="Helvetica,sans-Serif" font-size="10.00">and 7 more...</text>
</g>
<!-- Node2 -->
<g id="node2" class="node"><title>Node2</title>
<g id="a_node2"><a xlink:href="classapi_1_1_sgfx_info_object.html" target="_top" xlink:title="Sgfx Information Object. ">
<polygon fill="none" stroke="black" points="4.75391,-153 4.75391,-207 105.246,-207 105.246,-153 4.75391,-153"/>
<text text-anchor="middle" x="55" y="-195" font-family="Helvetica,sans-Serif" font-size="10.00">api::SgfxInfoObject</text>
<polyline fill="none" stroke="black" points="4.75391,-189 105.246,-189 "/>
<text text-anchor="middle" x="55" y="-177" font-family="Helvetica,sans-Serif" font-size="10.00"> </text>
<polyline fill="none" stroke="black" points="4.75391,-171 105.246,-171 "/>
<text text-anchor="middle" x="55" y="-159" font-family="Helvetica,sans-Serif" font-size="10.00"> </text>
</a>
</g>
</g>
<!-- Node2&#45;&gt;Node1 -->
<g id="edge1" class="edge"><title>Node2&#45;&gt;Node1</title>
<path fill="none" stroke="midnightblue" d="M55,-142.754C55,-134.008 55,-124.458 55,-115.039"/>
<polygon fill="none" stroke="midnightblue" points="51.5001,-142.962 55,-152.962 58.5001,-142.962 51.5001,-142.962"/>
</g>
<!-- Node3 -->
<g id="node3" class="node"><title>Node3</title>
<g id="a_node3"><a xlink:href="classapi_1_1_info_object.html" target="_top" xlink:title="Information Object. ">
<polygon fill="none" stroke="black" points="14.7588,-245 14.7588,-299 95.2412,-299 95.2412,-245 14.7588,-245"/>
<text text-anchor="middle" x="55" y="-287" font-family="Helvetica,sans-Serif" font-size="10.00">api::InfoObject</text>
<polyline fill="none" stroke="black" points="14.7588,-281 95.2412,-281 "/>
<text text-anchor="middle" x="55" y="-269" font-family="Helvetica,sans-Serif" font-size="10.00"> </text>
<polyline fill="none" stroke="black" points="14.7588,-263 95.2412,-263 "/>
<text text-anchor="middle" x="55" y="-251" font-family="Helvetica,sans-Serif" font-size="10.00"> </text>
</a>
</g>
</g>
<!-- Node3&#45;&gt;Node2 -->
<g id="edge2" class="edge"><title>Node3&#45;&gt;Node2</title>
<path fill="none" stroke="midnightblue" d="M55,-234.865C55,-225.644 55,-215.907 55,-207.285"/>
<polygon fill="none" stroke="midnightblue" points="51.5001,-234.968 55,-244.968 58.5001,-234.968 51.5001,-234.968"/>
</g>
<!-- Node4 -->
<g id="node4" class="node"><title>Node4</title>
<g id="a_node4"><a xlink:href="classapi_1_1_api_object.html" target="_top" xlink:title="Application Programming Interface Object. ">
<polygon fill="none" stroke="black" points="13.7896,-337 13.7896,-391 96.2104,-391 96.2104,-337 13.7896,-337"/>
<text text-anchor="middle" x="55" y="-379" font-family="Helvetica,sans-Serif" font-size="10.00">api::ApiObject</text>
<polyline fill="none" stroke="black" points="13.7896,-373 96.2104,-373 "/>
<text text-anchor="middle" x="55" y="-361" font-family="Helvetica,sans-Serif" font-size="10.00"> </text>
<polyline fill="none" stroke="black" points="13.7896,-355 96.2104,-355 "/>
<text text-anchor="start" x="21.7896" y="-343" font-family="Helvetica,sans-Serif" font-size="10.00">+ api_version()</text>
</a>
</g>
</g>
<!-- Node4&#45;&gt;Node3 -->
<g id="edge3" class="edge"><title>Node4&#45;&gt;Node3</title>
<path fill="none" stroke="midnightblue" d="M55,-326.865C55,-317.644 55,-307.907 55,-299.285"/>
<polygon fill="none" stroke="midnightblue" points="51.5001,-326.968 55,-336.968 58.5001,-326.968 51.5001,-326.968"/>
</g>
</g>
</svg>
