<?xml version="1.0" encoding="UTF-8" standalone="no"?>
<!DOCTYPE svg PUBLIC "-//W3C//DTD SVG 1.1//EN"
 "http://www.w3.org/Graphics/SVG/1.1/DTD/svg11.dtd">
<!-- Generated by graphviz version 2.36.0 (20140111.2315)
 -->
<!-- Title: ui::TextTab Pages: 1 -->
<svg width="150pt" height="834pt"
 viewBox="0.00 0.00 150.00 834.00" xmlns="http://www.w3.org/2000/svg" xmlns:xlink="http://www.w3.org/1999/xlink">
<g id="graph0" class="graph" transform="scale(1 1) rotate(0) translate(4 830)">
<title>ui::TextTab</title>
<!-- Node1 -->
<g id="node1" class="node"><title>Node1</title>
<polygon fill="#bfbfbf" stroke="black" points="38.2173,-1 38.2173,-75 103.783,-75 103.783,-1 38.2173,-1"/>
<text text-anchor="middle" x="71" y="-63" font-family="Helvetica,sans-Serif" font-size="10.00">ui::TextTab</text>
<polyline fill="none" stroke="black" points="38.2173,-57 103.783,-57 "/>
<text text-anchor="middle" x="71" y="-45" font-family="Helvetica,sans-Serif" font-size="10.00"> </text>
<polyline fill="none" stroke="black" points="38.2173,-39 103.783,-39 "/>
<text text-anchor="start" x="46.2173" y="-27" font-family="Helvetica,sans-Serif" font-size="10.00">+ TextTab()</text>
<text text-anchor="start" x="46.2173" y="-17" font-family="Helvetica,sans-Serif" font-size="10.00">+ draw()</text>
<text text-anchor="start" x="46.2173" y="-7" font-family="Helvetica,sans-Serif" font-size="10.00">+ text()</text>
</g>
<!-- Node2 -->
<g id="node2" class="node"><title>Node2</title>
<g id="a_node2"><a xlink:href="classui_1_1_tab.html" target="_top" xlink:title="Tab Class. ">
<polygon fill="none" stroke="black" points="28.1221,-113 28.1221,-197 113.878,-197 113.878,-113 28.1221,-113"/>
<text text-anchor="middle" x="71" y="-185" font-family="Helvetica,sans-Serif" font-size="10.00">ui::Tab</text>
<polyline fill="none" stroke="black" points="28.1221,-179 113.878,-179 "/>
<text text-anchor="middle" x="71" y="-167" font-family="Helvetica,sans-Serif" font-size="10.00"> </text>
<polyline fill="none" stroke="black" points="28.1221,-161 113.878,-161 "/>
<text text-anchor="start" x="36.1221" y="-149" font-family="Helvetica,sans-Serif" font-size="10.00">+ Tab()</text>
<text text-anchor="start" x="36.1221" y="-139" font-family="Helvetica,sans-Serif" font-size="10.00">+ element()</text>
<text text-anchor="start" x="36.1221" y="-129" font-family="Helvetica,sans-Serif" font-size="10.00">+ set_element()</text>
<text text-anchor="start" x="36.1221" y="-119" font-family="Helvetica,sans-Serif" font-size="10.00">+ calc_square()</text>
</a>
</g>
</g>
<!-- Node2&#45;&gt;Node1 -->
<g id="edge1" class="edge"><title>Node2&#45;&gt;Node1</title>
<path fill="none" stroke="midnightblue" d="M71,-102.572C71,-93.3822 71,-83.9836 71,-75.3287"/>
<polygon fill="none" stroke="midnightblue" points="67.5001,-102.807 71,-112.807 74.5001,-102.807 67.5001,-102.807"/>
</g>
<!-- Node3 -->
<g id="node3" class="node"><title>Node3</title>
<g id="a_node3"><a xlink:href="classdraw_1_1_drawing.html" target="_top" xlink:title="Drawing Class. ">
<polygon fill="none" stroke="black" points="11.4473,-235 11.4473,-459 130.553,-459 130.553,-235 11.4473,-235"/>
<text text-anchor="middle" x="71" y="-447" font-family="Helvetica,sans-Serif" font-size="10.00">draw::Drawing</text>
<polyline fill="none" stroke="black" points="11.4473,-441 130.553,-441 "/>
<text text-anchor="middle" x="71" y="-429" font-family="Helvetica,sans-Serif" font-size="10.00"> </text>
<polyline fill="none" stroke="black" points="11.4473,-423 130.553,-423 "/>
<text text-anchor="start" x="19.4473" y="-411" font-family="Helvetica,sans-Serif" font-size="10.00">+ Drawing()</text>
<text text-anchor="start" x="19.4473" y="-401" font-family="Helvetica,sans-Serif" font-size="10.00">+ dark()</text>
<text text-anchor="start" x="19.4473" y="-391" font-family="Helvetica,sans-Serif" font-size="10.00">+ draw()</text>
<text text-anchor="start" x="19.4473" y="-381" font-family="Helvetica,sans-Serif" font-size="10.00">+ draw()</text>
<text text-anchor="start" x="19.4473" y="-371" font-family="Helvetica,sans-Serif" font-size="10.00">+ draw_scratch()</text>
<text text-anchor="start" x="19.4473" y="-361" font-family="Helvetica,sans-Serif" font-size="10.00">+ draw_to_scale()</text>
<text text-anchor="start" x="19.4473" y="-351" font-family="Helvetica,sans-Serif" font-size="10.00">and 18 more...</text>
<text text-anchor="start" x="19.4473" y="-341" font-family="Helvetica,sans-Serif" font-size="10.00">+ clear()</text>
<text text-anchor="start" x="19.4473" y="-331" font-family="Helvetica,sans-Serif" font-size="10.00">+ draw_checkerboard()</text>
<text text-anchor="start" x="19.4473" y="-321" font-family="Helvetica,sans-Serif" font-size="10.00">+ draw_pattern()</text>
<text text-anchor="start" x="19.4473" y="-311" font-family="Helvetica,sans-Serif" font-size="10.00">+ h()</text>
<text text-anchor="start" x="19.4473" y="-301" font-family="Helvetica,sans-Serif" font-size="10.00">+ height()</text>
<text text-anchor="start" x="19.4473" y="-291" font-family="Helvetica,sans-Serif" font-size="10.00">+ invert()</text>
<text text-anchor="start" x="19.4473" y="-281" font-family="Helvetica,sans-Serif" font-size="10.00">and 4 more...</text>
<text text-anchor="start" x="19.4473" y="-271" font-family="Helvetica,sans-Serif" font-size="10.00"># dim_on_bitmap()</text>
<text text-anchor="start" x="19.4473" y="-261" font-family="Helvetica,sans-Serif" font-size="10.00"># flag()</text>
<text text-anchor="start" x="19.4473" y="-251" font-family="Helvetica,sans-Serif" font-size="10.00"># point_on_bitmap()</text>
<text text-anchor="start" x="19.4473" y="-241" font-family="Helvetica,sans-Serif" font-size="10.00"># set_flag()</text>
</a>
</g>
</g>
<!-- Node3&#45;&gt;Node2 -->
<g id="edge2" class="edge"><title>Node3&#45;&gt;Node2</title>
<path fill="none" stroke="midnightblue" d="M71,-224.731C71,-215.066 71,-205.795 71,-197.363"/>
<polygon fill="none" stroke="midnightblue" points="67.5001,-224.926 71,-234.926 74.5001,-224.927 67.5001,-224.926"/>
</g>
<!-- Node4 -->
<g id="node4" class="node"><title>Node4</title>
<g id="a_node4"><a xlink:href="classapi_1_1_draw_work_object.html" target="_top" xlink:title="State Machine Work Object Class. ">
<polygon fill="none" stroke="black" points="15.854,-497 15.854,-551 126.146,-551 126.146,-497 15.854,-497"/>
<text text-anchor="middle" x="71" y="-539" font-family="Helvetica,sans-Serif" font-size="10.00">api::DrawWorkObject</text>
<polyline fill="none" stroke="black" points="15.854,-533 126.146,-533 "/>
<text text-anchor="middle" x="71" y="-521" font-family="Helvetica,sans-Serif" font-size="10.00"> </text>
<polyline fill="none" stroke="black" points="15.854,-515 126.146,-515 "/>
<text text-anchor="middle" x="71" y="-503" font-family="Helvetica,sans-Serif" font-size="10.00"> </text>
</a>
</g>
</g>
<!-- Node4&#45;&gt;Node3 -->
<g id="edge3" class="edge"><title>Node4&#45;&gt;Node3</title>
<path fill="none" stroke="midnightblue" d="M71,-486.684C71,-478.251 71,-468.84 71,-459.001"/>
<polygon fill="none" stroke="midnightblue" points="67.5001,-486.801 71,-496.801 74.5001,-486.801 67.5001,-486.801"/>
</g>
<!-- Node5 -->
<g id="node5" class="node"><title>Node5</title>
<g id="a_node5"><a xlink:href="classapi_1_1_work_object.html" target="_top" xlink:title="WorkObject Class. ">
<polygon fill="none" stroke="black" points="-0.0859375,-589 -0.0859375,-733 142.086,-733 142.086,-589 -0.0859375,-589"/>
<text text-anchor="middle" x="71" y="-721" font-family="Helvetica,sans-Serif" font-size="10.00">api::WorkObject</text>
<polyline fill="none" stroke="black" points="-0.0859375,-715 142.086,-715 "/>
<text text-anchor="middle" x="71" y="-703" font-family="Helvetica,sans-Serif" font-size="10.00"> </text>
<polyline fill="none" stroke="black" points="-0.0859375,-697 142.086,-697 "/>
<text text-anchor="start" x="7.91406" y="-685" font-family="Helvetica,sans-Serif" font-size="10.00">+ WorkObject()</text>
<text text-anchor="start" x="7.91406" y="-675" font-family="Helvetica,sans-Serif" font-size="10.00">+ clear_error_number()</text>
<text text-anchor="start" x="7.91406" y="-665" font-family="Helvetica,sans-Serif" font-size="10.00">+ error_number()</text>
<text text-anchor="start" x="7.91406" y="-655" font-family="Helvetica,sans-Serif" font-size="10.00">+ exit_fatal()</text>
<text text-anchor="start" x="7.91406" y="-645" font-family="Helvetica,sans-Serif" font-size="10.00"># set_error_number()</text>
<text text-anchor="start" x="7.91406" y="-635" font-family="Helvetica,sans-Serif" font-size="10.00"># set_error_number_if</text>
<text text-anchor="start" x="7.91406" y="-625" font-family="Helvetica,sans-Serif" font-size="10.00">_error()</text>
<text text-anchor="start" x="7.91406" y="-615" font-family="Helvetica,sans-Serif" font-size="10.00"># set_error_number_if_null()</text>
<text text-anchor="start" x="7.91406" y="-605" font-family="Helvetica,sans-Serif" font-size="10.00"># set_error_number_to</text>
<text text-anchor="start" x="7.91406" y="-595" font-family="Helvetica,sans-Serif" font-size="10.00">_errno()</text>
</a>
</g>
</g>
<!-- Node5&#45;&gt;Node4 -->
<g id="edge4" class="edge"><title>Node5&#45;&gt;Node4</title>
<path fill="none" stroke="midnightblue" d="M71,-578.911C71,-568.983 71,-559.464 71,-551.262"/>
<polygon fill="none" stroke="midnightblue" points="67.5001,-578.942 71,-588.942 74.5001,-578.942 67.5001,-578.942"/>
</g>
<!-- Node6 -->
<g id="node6" class="node"><title>Node6</title>
<g id="a_node6"><a xlink:href="classapi_1_1_api_object.html" target="_top" xlink:title="API Object Class. ">
<polygon fill="none" stroke="black" points="29.7896,-771 29.7896,-825 112.21,-825 112.21,-771 29.7896,-771"/>
<text text-anchor="middle" x="71" y="-813" font-family="Helvetica,sans-Serif" font-size="10.00">api::ApiObject</text>
<polyline fill="none" stroke="black" points="29.7896,-807 112.21,-807 "/>
<text text-anchor="middle" x="71" y="-795" font-family="Helvetica,sans-Serif" font-size="10.00"> </text>
<polyline fill="none" stroke="black" points="29.7896,-789 112.21,-789 "/>
<text text-anchor="start" x="37.7896" y="-777" font-family="Helvetica,sans-Serif" font-size="10.00">+ api_version()</text>
</a>
</g>
</g>
<!-- Node6&#45;&gt;Node5 -->
<g id="edge5" class="edge"><title>Node6&#45;&gt;Node5</title>
<path fill="none" stroke="midnightblue" d="M71,-760.925C71,-752.287 71,-742.765 71,-733.145"/>
<polygon fill="none" stroke="midnightblue" points="67.5001,-760.971 71,-770.971 74.5001,-760.971 67.5001,-760.971"/>
</g>
</g>
</svg>
