<?xml version="1.0" encoding="UTF-8" standalone="no"?>
<!DOCTYPE svg PUBLIC "-//W3C//DTD SVG 1.1//EN"
 "http://www.w3.org/Graphics/SVG/1.1/DTD/svg11.dtd">
<!-- Generated by graphviz version 2.36.0 (20140111.2315)
 -->
<!-- Title: fmt::Xml Pages: 1 -->
<svg width="150pt" height="784pt"
 viewBox="0.00 0.00 150.00 784.00" xmlns="http://www.w3.org/2000/svg" xmlns:xlink="http://www.w3.org/1999/xlink">
<g id="graph0" class="graph" transform="scale(1 1) rotate(0) translate(4 780)">
<title>fmt::Xml</title>
<!-- Node1 -->
<g id="node1" class="node"><title>Node1</title>
<polygon fill="#bfbfbf" stroke="black" points="30.7588,-1 30.7588,-115 111.241,-115 111.241,-1 30.7588,-1"/>
<text text-anchor="middle" x="71" y="-103" font-family="Helvetica,sans-Serif" font-size="10.00">fmt::Xml</text>
<polyline fill="none" stroke="black" points="30.7588,-97 111.241,-97 "/>
<text text-anchor="middle" x="71" y="-85" font-family="Helvetica,sans-Serif" font-size="10.00"> </text>
<polyline fill="none" stroke="black" points="30.7588,-79 111.241,-79 "/>
<text text-anchor="start" x="38.7588" y="-67" font-family="Helvetica,sans-Serif" font-size="10.00">+ Xml()</text>
<text text-anchor="start" x="38.7588" y="-57" font-family="Helvetica,sans-Serif" font-size="10.00">+ Xml()</text>
<text text-anchor="start" x="38.7588" y="-47" font-family="Helvetica,sans-Serif" font-size="10.00">+ attr()</text>
<text text-anchor="start" x="38.7588" y="-37" font-family="Helvetica,sans-Serif" font-size="10.00">+ child()</text>
<text text-anchor="start" x="38.7588" y="-27" font-family="Helvetica,sans-Serif" font-size="10.00">+ child()</text>
<text text-anchor="start" x="38.7588" y="-17" font-family="Helvetica,sans-Serif" font-size="10.00">+ child()</text>
<text text-anchor="start" x="38.7588" y="-7" font-family="Helvetica,sans-Serif" font-size="10.00">and 21 more...</text>
</g>
<!-- Node2 -->
<g id="node2" class="node"><title>Node2</title>
<g id="a_node2"><a xlink:href="classapi_1_1_fmt_file_object.html" target="_top" xlink:title="Format File Class. ">
<polygon fill="none" stroke="black" points="22.4336,-153 22.4336,-207 119.566,-207 119.566,-153 22.4336,-153"/>
<text text-anchor="middle" x="71" y="-195" font-family="Helvetica,sans-Serif" font-size="10.00">api::FmtFileObject</text>
<polyline fill="none" stroke="black" points="22.4336,-189 119.566,-189 "/>
<text text-anchor="middle" x="71" y="-177" font-family="Helvetica,sans-Serif" font-size="10.00"> </text>
<polyline fill="none" stroke="black" points="22.4336,-171 119.566,-171 "/>
<text text-anchor="middle" x="71" y="-159" font-family="Helvetica,sans-Serif" font-size="10.00"> </text>
</a>
</g>
</g>
<!-- Node2&#45;&gt;Node1 -->
<g id="edge1" class="edge"><title>Node2&#45;&gt;Node1</title>
<path fill="none" stroke="midnightblue" d="M71,-142.754C71,-134.008 71,-124.458 71,-115.039"/>
<polygon fill="none" stroke="midnightblue" points="67.5001,-142.962 71,-152.962 74.5001,-142.962 67.5001,-142.962"/>
</g>
<!-- Node3 -->
<g id="node3" class="node"><title>Node3</title>
<g id="a_node3"><a xlink:href="classsys_1_1_file.html" target="_top" xlink:title="File Class. ">
<polygon fill="none" stroke="black" points="30.7588,-245 30.7588,-409 111.241,-409 111.241,-245 30.7588,-245"/>
<text text-anchor="middle" x="71" y="-397" font-family="Helvetica,sans-Serif" font-size="10.00">sys::File</text>
<polyline fill="none" stroke="black" points="30.7588,-391 111.241,-391 "/>
<text text-anchor="start" x="38.7588" y="-379" font-family="Helvetica,sans-Serif" font-size="10.00"># m_fd</text>
<polyline fill="none" stroke="black" points="30.7588,-373 111.241,-373 "/>
<text text-anchor="start" x="38.7588" y="-361" font-family="Helvetica,sans-Serif" font-size="10.00">+ File()</text>
<text text-anchor="start" x="38.7588" y="-351" font-family="Helvetica,sans-Serif" font-size="10.00">+ close()</text>
<text text-anchor="start" x="38.7588" y="-341" font-family="Helvetica,sans-Serif" font-size="10.00">+ create()</text>
<text text-anchor="start" x="38.7588" y="-331" font-family="Helvetica,sans-Serif" font-size="10.00">+ fileno()</text>
<text text-anchor="start" x="38.7588" y="-321" font-family="Helvetica,sans-Serif" font-size="10.00">+ flags()</text>
<text text-anchor="start" x="38.7588" y="-311" font-family="Helvetica,sans-Serif" font-size="10.00">+ gets()</text>
<text text-anchor="start" x="38.7588" y="-301" font-family="Helvetica,sans-Serif" font-size="10.00">and 21 more...</text>
<text text-anchor="start" x="38.7588" y="-291" font-family="Helvetica,sans-Serif" font-size="10.00">+ name()</text>
<text text-anchor="start" x="38.7588" y="-281" font-family="Helvetica,sans-Serif" font-size="10.00">+ remove()</text>
<text text-anchor="start" x="38.7588" y="-271" font-family="Helvetica,sans-Serif" font-size="10.00">+ size()</text>
<text text-anchor="start" x="38.7588" y="-261" font-family="Helvetica,sans-Serif" font-size="10.00">+ stat()</text>
<text text-anchor="start" x="38.7588" y="-251" font-family="Helvetica,sans-Serif" font-size="10.00">+ suffix()</text>
</a>
</g>
</g>
<!-- Node3&#45;&gt;Node2 -->
<g id="edge2" class="edge"><title>Node3&#45;&gt;Node2</title>
<path fill="none" stroke="midnightblue" d="M71,-234.541C71,-224.622 71,-215.213 71,-207.129"/>
<polygon fill="none" stroke="midnightblue" points="67.5001,-234.599 71,-244.599 74.5001,-234.599 67.5001,-234.599"/>
</g>
<!-- Node4 -->
<g id="node4" class="node"><title>Node4</title>
<g id="a_node4"><a xlink:href="classapi_1_1_sys_work_object.html" target="_top" xlink:title="System Work Object Class. ">
<polygon fill="none" stroke="black" points="19.1865,-447 19.1865,-501 122.813,-501 122.813,-447 19.1865,-447"/>
<text text-anchor="middle" x="71" y="-489" font-family="Helvetica,sans-Serif" font-size="10.00">api::SysWorkObject</text>
<polyline fill="none" stroke="black" points="19.1865,-483 122.813,-483 "/>
<text text-anchor="middle" x="71" y="-471" font-family="Helvetica,sans-Serif" font-size="10.00"> </text>
<polyline fill="none" stroke="black" points="19.1865,-465 122.813,-465 "/>
<text text-anchor="middle" x="71" y="-453" font-family="Helvetica,sans-Serif" font-size="10.00"> </text>
</a>
</g>
</g>
<!-- Node4&#45;&gt;Node3 -->
<g id="edge3" class="edge"><title>Node4&#45;&gt;Node3</title>
<path fill="none" stroke="midnightblue" d="M71,-436.498C71,-427.997 71,-418.612 71,-409.024"/>
<polygon fill="none" stroke="midnightblue" points="67.5001,-436.742 71,-446.742 74.5001,-436.742 67.5001,-436.742"/>
</g>
<!-- Node5 -->
<g id="node5" class="node"><title>Node5</title>
<g id="a_node5"><a xlink:href="classapi_1_1_work_object.html" target="_top" xlink:title="WorkObject Class. ">
<polygon fill="none" stroke="black" points="-0.0859375,-539 -0.0859375,-683 142.086,-683 142.086,-539 -0.0859375,-539"/>
<text text-anchor="middle" x="71" y="-671" font-family="Helvetica,sans-Serif" font-size="10.00">api::WorkObject</text>
<polyline fill="none" stroke="black" points="-0.0859375,-665 142.086,-665 "/>
<text text-anchor="middle" x="71" y="-653" font-family="Helvetica,sans-Serif" font-size="10.00"> </text>
<polyline fill="none" stroke="black" points="-0.0859375,-647 142.086,-647 "/>
<text text-anchor="start" x="7.91406" y="-635" font-family="Helvetica,sans-Serif" font-size="10.00">+ WorkObject()</text>
<text text-anchor="start" x="7.91406" y="-625" font-family="Helvetica,sans-Serif" font-size="10.00">+ clear_error_number()</text>
<text text-anchor="start" x="7.91406" y="-615" font-family="Helvetica,sans-Serif" font-size="10.00">+ error_number()</text>
<text text-anchor="start" x="7.91406" y="-605" font-family="Helvetica,sans-Serif" font-size="10.00">+ exit_fatal()</text>
<text text-anchor="start" x="7.91406" y="-595" font-family="Helvetica,sans-Serif" font-size="10.00"># set_error_number()</text>
<text text-anchor="start" x="7.91406" y="-585" font-family="Helvetica,sans-Serif" font-size="10.00"># set_error_number_if</text>
<text text-anchor="start" x="7.91406" y="-575" font-family="Helvetica,sans-Serif" font-size="10.00">_error()</text>
<text text-anchor="start" x="7.91406" y="-565" font-family="Helvetica,sans-Serif" font-size="10.00"># set_error_number_if_null()</text>
<text text-anchor="start" x="7.91406" y="-555" font-family="Helvetica,sans-Serif" font-size="10.00"># set_error_number_to</text>
<text text-anchor="start" x="7.91406" y="-545" font-family="Helvetica,sans-Serif" font-size="10.00">_errno()</text>
</a>
</g>
</g>
<!-- Node5&#45;&gt;Node4 -->
<g id="edge4" class="edge"><title>Node5&#45;&gt;Node4</title>
<path fill="none" stroke="midnightblue" d="M71,-528.911C71,-518.983 71,-509.464 71,-501.262"/>
<polygon fill="none" stroke="midnightblue" points="67.5001,-528.942 71,-538.942 74.5001,-528.942 67.5001,-528.942"/>
</g>
<!-- Node6 -->
<g id="node6" class="node"><title>Node6</title>
<g id="a_node6"><a xlink:href="classapi_1_1_api_object.html" target="_top" xlink:title="API Object Class. ">
<polygon fill="none" stroke="black" points="29.7896,-721 29.7896,-775 112.21,-775 112.21,-721 29.7896,-721"/>
<text text-anchor="middle" x="71" y="-763" font-family="Helvetica,sans-Serif" font-size="10.00">api::ApiObject</text>
<polyline fill="none" stroke="black" points="29.7896,-757 112.21,-757 "/>
<text text-anchor="middle" x="71" y="-745" font-family="Helvetica,sans-Serif" font-size="10.00"> </text>
<polyline fill="none" stroke="black" points="29.7896,-739 112.21,-739 "/>
<text text-anchor="start" x="37.7896" y="-727" font-family="Helvetica,sans-Serif" font-size="10.00">+ api_version()</text>
</a>
</g>
</g>
<!-- Node6&#45;&gt;Node5 -->
<g id="edge5" class="edge"><title>Node6&#45;&gt;Node5</title>
<path fill="none" stroke="midnightblue" d="M71,-710.925C71,-702.287 71,-692.765 71,-683.145"/>
<polygon fill="none" stroke="midnightblue" points="67.5001,-710.971 71,-720.971 74.5001,-710.971 67.5001,-710.971"/>
</g>
</g>
</svg>
