<?xml version="1.0" encoding="UTF-8" standalone="no"?>
<!DOCTYPE svg PUBLIC "-//W3C//DTD SVG 1.1//EN"
 "http://www.w3.org/Graphics/SVG/1.1/DTD/svg11.dtd">
<!-- Generated by graphviz version 2.36.0 (20140111.2315)
 -->
<!-- Title: api::ChronoWorkObject Pages: 1 -->
<svg width="150pt" height="540pt"
 viewBox="0.00 0.00 150.00 540.00" xmlns="http://www.w3.org/2000/svg" xmlns:xlink="http://www.w3.org/1999/xlink">
<g id="graph0" class="graph" transform="scale(1 1) rotate(0) translate(4 536)">
<title>api::ChronoWorkObject</title>
<!-- Node1 -->
<g id="node1" class="node"><title>Node1</title>
<polygon fill="#bfbfbf" stroke="black" points="11.1226,-183 11.1226,-257 130.877,-257 130.877,-183 11.1226,-183"/>
<text text-anchor="middle" x="71" y="-245" font-family="Helvetica,sans-Serif" font-size="10.00">api::ChronoWorkObject</text>
<polyline fill="none" stroke="black" points="11.1226,-239 130.877,-239 "/>
<text text-anchor="middle" x="71" y="-227" font-family="Helvetica,sans-Serif" font-size="10.00"> </text>
<polyline fill="none" stroke="black" points="11.1226,-221 130.877,-221 "/>
<text text-anchor="start" x="19.1226" y="-209" font-family="Helvetica,sans-Serif" font-size="10.00">+ wait_microseconds()</text>
<text text-anchor="start" x="19.1226" y="-199" font-family="Helvetica,sans-Serif" font-size="10.00">+ wait_milliseconds()</text>
<text text-anchor="start" x="19.1226" y="-189" font-family="Helvetica,sans-Serif" font-size="10.00">+ wait_seconds()</text>
</g>
<!-- Node4 -->
<g id="node4" class="node"><title>Node4</title>
<g id="a_node4"><a xlink:href="classchrono_1_1_timer.html" target="_top" xlink:title="Timer Class. ">
<polygon fill="none" stroke="black" points="30.7588,-1 30.7588,-145 111.241,-145 111.241,-1 30.7588,-1"/>
<text text-anchor="middle" x="71" y="-133" font-family="Helvetica,sans-Serif" font-size="10.00">chrono::Timer</text>
<polyline fill="none" stroke="black" points="30.7588,-127 111.241,-127 "/>
<text text-anchor="middle" x="71" y="-115" font-family="Helvetica,sans-Serif" font-size="10.00"> </text>
<polyline fill="none" stroke="black" points="30.7588,-109 111.241,-109 "/>
<text text-anchor="start" x="38.7588" y="-97" font-family="Helvetica,sans-Serif" font-size="10.00">+ Timer()</text>
<text text-anchor="start" x="38.7588" y="-87" font-family="Helvetica,sans-Serif" font-size="10.00">+ calc_msec()</text>
<text text-anchor="start" x="38.7588" y="-77" font-family="Helvetica,sans-Serif" font-size="10.00">+ calc_sec()</text>
<text text-anchor="start" x="38.7588" y="-67" font-family="Helvetica,sans-Serif" font-size="10.00">+ calc_usec()</text>
<text text-anchor="start" x="38.7588" y="-57" font-family="Helvetica,sans-Serif" font-size="10.00">+ clock_time()</text>
<text text-anchor="start" x="38.7588" y="-47" font-family="Helvetica,sans-Serif" font-size="10.00">+ is_reset()</text>
<text text-anchor="start" x="38.7588" y="-37" font-family="Helvetica,sans-Serif" font-size="10.00">and 14 more...</text>
<text text-anchor="start" x="38.7588" y="-27" font-family="Helvetica,sans-Serif" font-size="10.00">+ wait_msec()</text>
<text text-anchor="start" x="38.7588" y="-17" font-family="Helvetica,sans-Serif" font-size="10.00">+ wait_sec()</text>
<text text-anchor="start" x="38.7588" y="-7" font-family="Helvetica,sans-Serif" font-size="10.00">+ wait_usec()</text>
</a>
</g>
</g>
<!-- Node1&#45;&gt;Node4 -->
<g id="edge3" class="edge"><title>Node1&#45;&gt;Node4</title>
<path fill="none" stroke="midnightblue" d="M71,-172.737C71,-163.911 71,-154.486 71,-145.092"/>
<polygon fill="none" stroke="midnightblue" points="67.5001,-172.784 71,-182.784 74.5001,-172.784 67.5001,-172.784"/>
</g>
<!-- Node2 -->
<g id="node2" class="node"><title>Node2</title>
<g id="a_node2"><a xlink:href="classapi_1_1_work_object.html" target="_top" xlink:title="WorkObject Class. ">
<polygon fill="none" stroke="black" points="-0.0859375,-295 -0.0859375,-439 142.086,-439 142.086,-295 -0.0859375,-295"/>
<text text-anchor="middle" x="71" y="-427" font-family="Helvetica,sans-Serif" font-size="10.00">api::WorkObject</text>
<polyline fill="none" stroke="black" points="-0.0859375,-421 142.086,-421 "/>
<text text-anchor="middle" x="71" y="-409" font-family="Helvetica,sans-Serif" font-size="10.00"> </text>
<polyline fill="none" stroke="black" points="-0.0859375,-403 142.086,-403 "/>
<text text-anchor="start" x="7.91406" y="-391" font-family="Helvetica,sans-Serif" font-size="10.00">+ WorkObject()</text>
<text text-anchor="start" x="7.91406" y="-381" font-family="Helvetica,sans-Serif" font-size="10.00">+ clear_error_number()</text>
<text text-anchor="start" x="7.91406" y="-371" font-family="Helvetica,sans-Serif" font-size="10.00">+ error_number()</text>
<text text-anchor="start" x="7.91406" y="-361" font-family="Helvetica,sans-Serif" font-size="10.00">+ exit_fatal()</text>
<text text-anchor="start" x="7.91406" y="-351" font-family="Helvetica,sans-Serif" font-size="10.00"># set_error_number()</text>
<text text-anchor="start" x="7.91406" y="-341" font-family="Helvetica,sans-Serif" font-size="10.00"># set_error_number_if</text>
<text text-anchor="start" x="7.91406" y="-331" font-family="Helvetica,sans-Serif" font-size="10.00">_error()</text>
<text text-anchor="start" x="7.91406" y="-321" font-family="Helvetica,sans-Serif" font-size="10.00"># set_error_number_if_null()</text>
<text text-anchor="start" x="7.91406" y="-311" font-family="Helvetica,sans-Serif" font-size="10.00"># set_error_number_to</text>
<text text-anchor="start" x="7.91406" y="-301" font-family="Helvetica,sans-Serif" font-size="10.00">_errno()</text>
</a>
</g>
</g>
<!-- Node2&#45;&gt;Node1 -->
<g id="edge1" class="edge"><title>Node2&#45;&gt;Node1</title>
<path fill="none" stroke="midnightblue" d="M71,-284.711C71,-275.098 71,-265.695 71,-257.191"/>
<polygon fill="none" stroke="midnightblue" points="67.5001,-284.774 71,-294.774 74.5001,-284.774 67.5001,-284.774"/>
</g>
<!-- Node3 -->
<g id="node3" class="node"><title>Node3</title>
<g id="a_node3"><a xlink:href="classapi_1_1_api_object.html" target="_top" xlink:title="API Object Class. ">
<polygon fill="none" stroke="black" points="29.7896,-477 29.7896,-531 112.21,-531 112.21,-477 29.7896,-477"/>
<text text-anchor="middle" x="71" y="-519" font-family="Helvetica,sans-Serif" font-size="10.00">api::ApiObject</text>
<polyline fill="none" stroke="black" points="29.7896,-513 112.21,-513 "/>
<text text-anchor="middle" x="71" y="-501" font-family="Helvetica,sans-Serif" font-size="10.00"> </text>
<polyline fill="none" stroke="black" points="29.7896,-495 112.21,-495 "/>
<text text-anchor="start" x="37.7896" y="-483" font-family="Helvetica,sans-Serif" font-size="10.00">+ api_version()</text>
</a>
</g>
</g>
<!-- Node3&#45;&gt;Node2 -->
<g id="edge2" class="edge"><title>Node3&#45;&gt;Node2</title>
<path fill="none" stroke="midnightblue" d="M71,-466.925C71,-458.287 71,-448.765 71,-439.145"/>
<polygon fill="none" stroke="midnightblue" points="67.5001,-466.971 71,-476.971 74.5001,-466.971 67.5001,-466.971"/>
</g>
</g>
</svg>
