<?xml version="1.0" encoding="UTF-8" standalone="no"?>
<!DOCTYPE svg PUBLIC "-//W3C//DTD SVG 1.1//EN"
 "http://www.w3.org/Graphics/SVG/1.1/DTD/svg11.dtd">
<!-- Generated by graphviz version 2.36.0 (20140111.2315)
 -->
<!-- Title: dsp::Complex&lt; T &gt; Pages: 1 -->
<!--zoomable 662 -->
<svg id="main" version="1.1" xmlns="http://www.w3.org/2000/svg" xmlns:xlink="http://www.w3.org/1999/xlink" xml:space="preserve" onload="init(evt)">
<style type="text/css"><![CDATA[
.edge:hover path { stroke: red; }
.edge:hover polygon { stroke: red; fill: red; }
]]></style>
<script type="text/javascript"><![CDATA[
var edges = document.getElementsByTagName('g');
if (edges && edges.length) {
  for (var i=0;i<edges.length;i++) {
    if (edges[i].id.substr(0,4)=='edge') {
      edges[i].setAttribute('class','edge');
    }
  }
}
]]></script>
        <defs>
                <circle id="rim" cx="0" cy="0" r="7"/>
                <circle id="rim2" cx="0" cy="0" r="3.5"/>
                <g id="zoomPlus">
                        <use xlink:href="#rim" fill="#404040">
                                <set attributeName="fill" to="#808080" begin="zoomplus.mouseover" end="zoomplus.mouseout"/>
                        </use>
                        <path d="M-4,0h8M0,-4v8" fill="none" stroke="white" stroke-width="1.5" pointer-events="none"/>
                </g>
                <g id="zoomMin">
                        <use xlink:href="#rim" fill="#404040">
                                <set attributeName="fill" to="#808080" begin="zoomminus.mouseover" end="zoomminus.mouseout"/>
                        </use>
                        <path d="M-4,0h8" fill="none" stroke="white" stroke-width="1.5" pointer-events="none"/>
                </g>
                <g id="dirArrow">
                        <path fill="none" stroke="white" stroke-width="1.5" d="M0,-3.0v7 M-2.5,-0.5L0,-3.0L2.5,-0.5"/>
                </g>
               <g id="resetDef">
                       <use xlink:href="#rim2" fill="#404040">
                               <set attributeName="fill" to="#808080" begin="reset.mouseover" end="reset.mouseout"/>
                       </use>
               </g>
        </defs>

<script type="text/javascript">
var viewWidth = 414;
var viewHeight = 662;
var sectionId = 'dynsection-0';
</script>
<script xlink:href="svgpan.js"/>
<svg id="graph" class="graph">
<g id="viewport">
<title>dsp::Complex&lt; T &gt;</title>
<!-- Node1 -->
<g id="node1" class="node"><title>Node1</title>
<polygon fill="#bfbfbf" stroke="black" points="152.935,-257 152.935,-371 253.065,-371 253.065,-257 152.935,-257"/>
<text text-anchor="middle" x="203" y="-359" font-family="Helvetica,sans-Serif" font-size="10.00">dsp::Complex&lt; T &gt;</text>
<polyline fill="none" stroke="black" points="152.935,-353 253.065,-353 "/>
<text text-anchor="middle" x="203" y="-341" font-family="Helvetica,sans-Serif" font-size="10.00"> </text>
<polyline fill="none" stroke="black" points="152.935,-335 253.065,-335 "/>
<text text-anchor="start" x="160.935" y="-323" font-family="Helvetica,sans-Serif" font-size="10.00">+ imaginary()</text>
<text text-anchor="start" x="160.935" y="-313" font-family="Helvetica,sans-Serif" font-size="10.00">+ imaginary()</text>
<text text-anchor="start" x="160.935" y="-303" font-family="Helvetica,sans-Serif" font-size="10.00">+ operator!=()</text>
<text text-anchor="start" x="160.935" y="-293" font-family="Helvetica,sans-Serif" font-size="10.00">+ operator+()</text>
<text text-anchor="start" x="160.935" y="-283" font-family="Helvetica,sans-Serif" font-size="10.00">+ operator+=()</text>
<text text-anchor="start" x="160.935" y="-273" font-family="Helvetica,sans-Serif" font-size="10.00">+ operator&#45;()</text>
<text text-anchor="start" x="160.935" y="-263" font-family="Helvetica,sans-Serif" font-size="10.00">and 4 more...</text>
</g>
<!-- Node5 -->
<g id="node5" class="node"><title>Node5</title>
<g id="a_node5"><a xlink:href="classdsp_1_1_complex.html" target="_top" xlink:title="{dsp::Complex\&lt; q31_t \&gt;\n||+ imaginary()\l+ imaginary()\l+ operator!=()\l+ operator+()\l+ operator+=()\l+ operator&#45;()\land 4 more...\l}">
<polygon fill="none" stroke="black" points="-0.699219,-95 -0.699219,-209 118.699,-209 118.699,-95 -0.699219,-95"/>
<text text-anchor="middle" x="59" y="-197" font-family="Helvetica,sans-Serif" font-size="10.00">dsp::Complex&lt; q31_t &gt;</text>
<polyline fill="none" stroke="black" points="-0.699219,-191 118.699,-191 "/>
<text text-anchor="middle" x="59" y="-179" font-family="Helvetica,sans-Serif" font-size="10.00"> </text>
<polyline fill="none" stroke="black" points="-0.699219,-173 118.699,-173 "/>
<text text-anchor="start" x="7.30078" y="-161" font-family="Helvetica,sans-Serif" font-size="10.00">+ imaginary()</text>
<text text-anchor="start" x="7.30078" y="-151" font-family="Helvetica,sans-Serif" font-size="10.00">+ imaginary()</text>
<text text-anchor="start" x="7.30078" y="-141" font-family="Helvetica,sans-Serif" font-size="10.00">+ operator!=()</text>
<text text-anchor="start" x="7.30078" y="-131" font-family="Helvetica,sans-Serif" font-size="10.00">+ operator+()</text>
<text text-anchor="start" x="7.30078" y="-121" font-family="Helvetica,sans-Serif" font-size="10.00">+ operator+=()</text>
<text text-anchor="start" x="7.30078" y="-111" font-family="Helvetica,sans-Serif" font-size="10.00">+ operator&#45;()</text>
<text text-anchor="start" x="7.30078" y="-101" font-family="Helvetica,sans-Serif" font-size="10.00">and 4 more...</text>
</a>
</g>
</g>
<!-- Node1&#45;&gt;Node5 -->
<g id="edge4" class="edge"><title>Node1&#45;&gt;Node5</title>
<path fill="none" stroke="orange" d="M145.684,-249.315C133.748,-236.054 121.251,-222.167 109.579,-209.199"/>
<polygon fill="orange" stroke="orange" points="143.345,-251.948 152.636,-257.04 148.548,-247.265 143.345,-251.948"/>
<text text-anchor="middle" x="158.52" y="-230" font-family="Helvetica,sans-Serif" font-size="10.00"> &lt; q31_t &gt;</text>
</g>
<!-- Node7 -->
<g id="node7" class="node"><title>Node7</title>
<g id="a_node7"><a xlink:href="classdsp_1_1_complex.html" target="_top" xlink:title="{dsp::Complex\&lt; float32_t \&gt;\n||+ imaginary()\l+ imaginary()\l+ operator!=()\l+ operator+()\l+ operator+=()\l+ operator&#45;()\land 4 more...\l}">
<polygon fill="none" stroke="black" points="136.631,-95 136.631,-209 269.369,-209 269.369,-95 136.631,-95"/>
<text text-anchor="middle" x="203" y="-197" font-family="Helvetica,sans-Serif" font-size="10.00">dsp::Complex&lt; float32_t &gt;</text>
<polyline fill="none" stroke="black" points="136.631,-191 269.369,-191 "/>
<text text-anchor="middle" x="203" y="-179" font-family="Helvetica,sans-Serif" font-size="10.00"> </text>
<polyline fill="none" stroke="black" points="136.631,-173 269.369,-173 "/>
<text text-anchor="start" x="144.631" y="-161" font-family="Helvetica,sans-Serif" font-size="10.00">+ imaginary()</text>
<text text-anchor="start" x="144.631" y="-151" font-family="Helvetica,sans-Serif" font-size="10.00">+ imaginary()</text>
<text text-anchor="start" x="144.631" y="-141" font-family="Helvetica,sans-Serif" font-size="10.00">+ operator!=()</text>
<text text-anchor="start" x="144.631" y="-131" font-family="Helvetica,sans-Serif" font-size="10.00">+ operator+()</text>
<text text-anchor="start" x="144.631" y="-121" font-family="Helvetica,sans-Serif" font-size="10.00">+ operator+=()</text>
<text text-anchor="start" x="144.631" y="-111" font-family="Helvetica,sans-Serif" font-size="10.00">+ operator&#45;()</text>
<text text-anchor="start" x="144.631" y="-101" font-family="Helvetica,sans-Serif" font-size="10.00">and 4 more...</text>
</a>
</g>
</g>
<!-- Node1&#45;&gt;Node7 -->
<g id="edge6" class="edge"><title>Node1&#45;&gt;Node7</title>
<path fill="none" stroke="orange" d="M203,-246.337C203,-233.977 203,-221.179 203,-209.17"/>
<polygon fill="orange" stroke="orange" points="199.5,-246.59 203,-256.59 206.5,-246.59 199.5,-246.59"/>
<text text-anchor="middle" x="232.189" y="-230" font-family="Helvetica,sans-Serif" font-size="10.00"> &lt; float32_t &gt;</text>
</g>
<!-- Node9 -->
<g id="node9" class="node"><title>Node9</title>
<g id="a_node9"><a xlink:href="classdsp_1_1_complex.html" target="_top" xlink:title="{dsp::Complex\&lt; q15_t \&gt;\n||+ imaginary()\l+ imaginary()\l+ operator!=()\l+ operator+()\l+ operator+=()\l+ operator&#45;()\land 4 more...\l}">
<polygon fill="none" stroke="black" points="287.301,-95 287.301,-209 406.699,-209 406.699,-95 287.301,-95"/>
<text text-anchor="middle" x="347" y="-197" font-family="Helvetica,sans-Serif" font-size="10.00">dsp::Complex&lt; q15_t &gt;</text>
<polyline fill="none" stroke="black" points="287.301,-191 406.699,-191 "/>
<text text-anchor="middle" x="347" y="-179" font-family="Helvetica,sans-Serif" font-size="10.00"> </text>
<polyline fill="none" stroke="black" points="287.301,-173 406.699,-173 "/>
<text text-anchor="start" x="295.301" y="-161" font-family="Helvetica,sans-Serif" font-size="10.00">+ imaginary()</text>
<text text-anchor="start" x="295.301" y="-151" font-family="Helvetica,sans-Serif" font-size="10.00">+ imaginary()</text>
<text text-anchor="start" x="295.301" y="-141" font-family="Helvetica,sans-Serif" font-size="10.00">+ operator!=()</text>
<text text-anchor="start" x="295.301" y="-131" font-family="Helvetica,sans-Serif" font-size="10.00">+ operator+()</text>
<text text-anchor="start" x="295.301" y="-121" font-family="Helvetica,sans-Serif" font-size="10.00">+ operator+=()</text>
<text text-anchor="start" x="295.301" y="-111" font-family="Helvetica,sans-Serif" font-size="10.00">+ operator&#45;()</text>
<text text-anchor="start" x="295.301" y="-101" font-family="Helvetica,sans-Serif" font-size="10.00">and 4 more...</text>
</a>
</g>
</g>
<!-- Node1&#45;&gt;Node9 -->
<g id="edge8" class="edge"><title>Node1&#45;&gt;Node9</title>
<path fill="none" stroke="orange" d="M260.316,-249.315C272.252,-236.054 284.749,-222.167 296.421,-209.199"/>
<polygon fill="orange" stroke="orange" points="257.452,-247.265 253.364,-257.04 262.655,-251.948 257.452,-247.265"/>
<text text-anchor="middle" x="301.52" y="-230" font-family="Helvetica,sans-Serif" font-size="10.00"> &lt; q15_t &gt;</text>
</g>
<!-- Node2 -->
<g id="node2" class="node"><title>Node2</title>
<g id="a_node2"><a xlink:href="classapi_1_1_dsp_info_object.html" target="_top" xlink:title="DSP Information Object. ">
<polygon fill="none" stroke="black" points="153.867,-411 153.867,-465 252.133,-465 252.133,-411 153.867,-411"/>
<text text-anchor="middle" x="203" y="-453" font-family="Helvetica,sans-Serif" font-size="10.00">api::DspInfoObject</text>
<polyline fill="none" stroke="black" points="153.867,-447 252.133,-447 "/>
<text text-anchor="middle" x="203" y="-435" font-family="Helvetica,sans-Serif" font-size="10.00"> </text>
<polyline fill="none" stroke="black" points="153.867,-429 252.133,-429 "/>
<text text-anchor="middle" x="203" y="-417" font-family="Helvetica,sans-Serif" font-size="10.00"> </text>
</a>
</g>
</g>
<!-- Node2&#45;&gt;Node1 -->
<g id="edge1" class="edge"><title>Node2&#45;&gt;Node1</title>
<path fill="none" stroke="midnightblue" d="M203,-400.783C203,-391.487 203,-381.265 203,-371.217"/>
<polygon fill="none" stroke="midnightblue" points="199.5,-400.828 203,-410.828 206.5,-400.828 199.5,-400.828"/>
</g>
<!-- Node3 -->
<g id="node3" class="node"><title>Node3</title>
<g id="a_node3"><a xlink:href="classapi_1_1_info_object.html" target="_top" xlink:title="Information Object. ">
<polygon fill="none" stroke="black" points="162.759,-505 162.759,-559 243.241,-559 243.241,-505 162.759,-505"/>
<text text-anchor="middle" x="203" y="-547" font-family="Helvetica,sans-Serif" font-size="10.00">api::InfoObject</text>
<polyline fill="none" stroke="black" points="162.759,-541 243.241,-541 "/>
<text text-anchor="middle" x="203" y="-529" font-family="Helvetica,sans-Serif" font-size="10.00"> </text>
<polyline fill="none" stroke="black" points="162.759,-523 243.241,-523 "/>
<text text-anchor="middle" x="203" y="-511" font-family="Helvetica,sans-Serif" font-size="10.00"> </text>
</a>
</g>
</g>
<!-- Node3&#45;&gt;Node2 -->
<g id="edge2" class="edge"><title>Node3&#45;&gt;Node2</title>
<path fill="none" stroke="midnightblue" d="M203,-494.872C203,-484.964 203,-474.415 203,-465.183"/>
<polygon fill="none" stroke="midnightblue" points="199.5,-494.883 203,-504.883 206.5,-494.883 199.5,-494.883"/>
</g>
<!-- Node4 -->
<g id="node4" class="node"><title>Node4</title>
<g id="a_node4"><a xlink:href="classapi_1_1_api_object.html" target="_top" xlink:title="Application Programming Interface Object. ">
<polygon fill="none" stroke="black" points="161.79,-599 161.79,-653 244.21,-653 244.21,-599 161.79,-599"/>
<text text-anchor="middle" x="203" y="-641" font-family="Helvetica,sans-Serif" font-size="10.00">api::ApiObject</text>
<polyline fill="none" stroke="black" points="161.79,-635 244.21,-635 "/>
<text text-anchor="middle" x="203" y="-623" font-family="Helvetica,sans-Serif" font-size="10.00"> </text>
<polyline fill="none" stroke="black" points="161.79,-617 244.21,-617 "/>
<text text-anchor="start" x="169.79" y="-605" font-family="Helvetica,sans-Serif" font-size="10.00">+ api_version()</text>
</a>
</g>
</g>
<!-- Node4&#45;&gt;Node3 -->
<g id="edge3" class="edge"><title>Node4&#45;&gt;Node3</title>
<path fill="none" stroke="midnightblue" d="M203,-588.872C203,-578.964 203,-568.415 203,-559.183"/>
<polygon fill="none" stroke="midnightblue" points="199.5,-588.883 203,-598.883 206.5,-588.883 199.5,-588.883"/>
</g>
<!-- Node6 -->
<g id="node6" class="node"><title>Node6</title>
<g id="a_node6"><a xlink:href="classdsp_1_1_complex_q31.html" target="_top" xlink:title="Complex Q31 Value. ">
<polygon fill="none" stroke="black" points="10.9805,-1 10.9805,-55 107.02,-55 107.02,-1 10.9805,-1"/>
<text text-anchor="middle" x="59" y="-43" font-family="Helvetica,sans-Serif" font-size="10.00">dsp::ComplexQ31</text>
<polyline fill="none" stroke="black" points="10.9805,-37 107.02,-37 "/>
<text text-anchor="middle" x="59" y="-25" font-family="Helvetica,sans-Serif" font-size="10.00"> </text>
<polyline fill="none" stroke="black" points="10.9805,-19 107.02,-19 "/>
<text text-anchor="start" x="18.9805" y="-7" font-family="Helvetica,sans-Serif" font-size="10.00">+ ComplexQ31()</text>
</a>
</g>
</g>
<!-- Node5&#45;&gt;Node6 -->
<g id="edge5" class="edge"><title>Node5&#45;&gt;Node6</title>
<path fill="none" stroke="midnightblue" d="M59,-84.8753C59,-74.3387 59,-64.0075 59,-55.151"/>
<polygon fill="none" stroke="midnightblue" points="55.5001,-84.9989 59,-94.9989 62.5001,-84.999 55.5001,-84.9989"/>
</g>
<!-- Node8 -->
<g id="node8" class="node"><title>Node8</title>
<g id="a_node8"><a xlink:href="classdsp_1_1_complex_f32.html" target="_top" xlink:title="Complex F32 Value. ">
<polygon fill="none" stroke="black" points="155.815,-1 155.815,-55 250.185,-55 250.185,-1 155.815,-1"/>
<text text-anchor="middle" x="203" y="-43" font-family="Helvetica,sans-Serif" font-size="10.00">dsp::ComplexF32</text>
<polyline fill="none" stroke="black" points="155.815,-37 250.185,-37 "/>
<text text-anchor="middle" x="203" y="-25" font-family="Helvetica,sans-Serif" font-size="10.00"> </text>
<polyline fill="none" stroke="black" points="155.815,-19 250.185,-19 "/>
<text text-anchor="start" x="163.815" y="-7" font-family="Helvetica,sans-Serif" font-size="10.00">+ ComplexF32()</text>
</a>
</g>
</g>
<!-- Node7&#45;&gt;Node8 -->
<g id="edge7" class="edge"><title>Node7&#45;&gt;Node8</title>
<path fill="none" stroke="midnightblue" d="M203,-84.8753C203,-74.3387 203,-64.0075 203,-55.151"/>
<polygon fill="none" stroke="midnightblue" points="199.5,-84.9989 203,-94.9989 206.5,-84.999 199.5,-84.9989"/>
</g>
<!-- Node10 -->
<g id="node10" class="node"><title>Node10</title>
<g id="a_node10"><a xlink:href="classdsp_1_1_complex_q15.html" target="_top" xlink:title="Complex Q15 Value. ">
<polygon fill="none" stroke="black" points="298.98,-1 298.98,-55 395.02,-55 395.02,-1 298.98,-1"/>
<text text-anchor="middle" x="347" y="-43" font-family="Helvetica,sans-Serif" font-size="10.00">dsp::ComplexQ15</text>
<polyline fill="none" stroke="black" points="298.98,-37 395.02,-37 "/>
<text text-anchor="middle" x="347" y="-25" font-family="Helvetica,sans-Serif" font-size="10.00"> </text>
<polyline fill="none" stroke="black" points="298.98,-19 395.02,-19 "/>
<text text-anchor="start" x="306.98" y="-7" font-family="Helvetica,sans-Serif" font-size="10.00">+ ComplexQ15()</text>
</a>
</g>
</g>
<!-- Node9&#45;&gt;Node10 -->
<g id="edge9" class="edge"><title>Node9&#45;&gt;Node10</title>
<path fill="none" stroke="midnightblue" d="M347,-84.8753C347,-74.3387 347,-64.0075 347,-55.151"/>
<polygon fill="none" stroke="midnightblue" points="343.5,-84.9989 347,-94.9989 350.5,-84.999 343.5,-84.9989"/>
</g>
</g>
</svg>
        <g id="navigator" transform="translate(0 0)" fill="#404254">
                <rect fill="#f2f5e9" fill-opacity="0.5" stroke="#606060" stroke-width=".5" x="0" y="0" width="60" height="60"/>
                <use id="zoomplus" xlink:href="#zoomPlus" x="17" y="9" onmousedown="handleZoom(evt,'in')"/>
                <use id="zoomminus" xlink:href="#zoomMin" x="42" y="9" onmousedown="handleZoom(evt,'out')"/>
                <use id="reset" xlink:href="#resetDef" x="30" y="36" onmousedown="handleReset()"/>
                <g id="arrowUp" xlink:href="#dirArrow" transform="translate(30 24)" onmousedown="handlePan(0,-1)">
                  <use xlink:href="#rim" fill="#404040">
                        <set attributeName="fill" to="#808080" begin="arrowUp.mouseover" end="arrowUp.mouseout"/>
                  </use>
                  <path fill="none" stroke="white" stroke-width="1.5" d="M0,-3.0v7 M-2.5,-0.5L0,-3.0L2.5,-0.5"/>
                </g>
                <g id="arrowRight" xlink:href="#dirArrow" transform="rotate(90) translate(36 -43)" onmousedown="handlePan(1,0)">
                  <use xlink:href="#rim" fill="#404040">
                        <set attributeName="fill" to="#808080" begin="arrowRight.mouseover" end="arrowRight.mouseout"/>
                  </use>
                  <path fill="none" stroke="white" stroke-width="1.5" d="M0,-3.0v7 M-2.5,-0.5L0,-3.0L2.5,-0.5"/>
                </g>
                <g id="arrowDown" xlink:href="#dirArrow" transform="rotate(180) translate(-30 -48)" onmousedown="handlePan(0,1)">
                  <use xlink:href="#rim" fill="#404040">
                        <set attributeName="fill" to="#808080" begin="arrowDown.mouseover" end="arrowDown.mouseout"/>
                  </use>
                  <path fill="none" stroke="white" stroke-width="1.5" d="M0,-3.0v7 M-2.5,-0.5L0,-3.0L2.5,-0.5"/>
                </g>
                <g id="arrowLeft" xlink:href="#dirArrow" transform="rotate(270) translate(-36 17)" onmousedown="handlePan(-1,0)">
                  <use xlink:href="#rim" fill="#404040">
                        <set attributeName="fill" to="#808080" begin="arrowLeft.mouseover" end="arrowLeft.mouseout"/>
                  </use>
                  <path fill="none" stroke="white" stroke-width="1.5" d="M0,-3.0v7 M-2.5,-0.5L0,-3.0L2.5,-0.5"/>
                </g>
        </g>
        <svg viewBox="0 0 15 15" width="100%" height="30px" preserveAspectRatio="xMaxYMin meet">
         <g id="arrow_out" transform="scale(0.3 0.3)">
          <a xlink:href="classdsp_1_1_complex__inherit__graph_org.svg" target="_base">
           <rect id="button" ry="5" rx="5" y="6" x="6" height="38" width="38"
                fill="#f2f5e9" fill-opacity="0.5" stroke="#606060" stroke-width="1.0"/>
           <path id="arrow"
             d="M 11.500037,31.436501 C 11.940474,20.09759 22.043105,11.32322 32.158766,21.979434 L 37.068811,17.246167 C 37.068811,17.246167 37.088388,32 37.088388,32 L 22.160133,31.978069 C 22.160133,31.978069 26.997745,27.140456 26.997745,27.140456 C 18.528582,18.264221 13.291696,25.230495 11.500037,31.436501 z"
             style="fill:#404040;"/>
          </a>
         </g>
        </svg>
</svg>
