<?xml version="1.0" encoding="UTF-8" standalone="no"?>
<!DOCTYPE svg PUBLIC "-//W3C//DTD SVG 1.1//EN"
 "http://www.w3.org/Graphics/SVG/1.1/DTD/svg11.dtd">
<!-- Generated by graphviz version 2.36.0 (20140111.2315)
 -->
<!-- Title: draw::ProgressAttr Pages: 1 -->
<!--zoomable 644 -->
<svg id="main" version="1.1" xmlns="http://www.w3.org/2000/svg" xmlns:xlink="http://www.w3.org/1999/xlink" xml:space="preserve" onload="init(evt)">
<style type="text/css"><![CDATA[
.edge:hover path { stroke: red; }
.edge:hover polygon { stroke: red; fill: red; }
]]></style>
<script type="text/javascript"><![CDATA[
var edges = document.getElementsByTagName('g');
if (edges && edges.length) {
  for (var i=0;i<edges.length;i++) {
    if (edges[i].id.substr(0,4)=='edge') {
      edges[i].setAttribute('class','edge');
    }
  }
}
]]></script>
        <defs>
                <circle id="rim" cx="0" cy="0" r="7"/>
                <circle id="rim2" cx="0" cy="0" r="3.5"/>
                <g id="zoomPlus">
                        <use xlink:href="#rim" fill="#404040">
                                <set attributeName="fill" to="#808080" begin="zoomplus.mouseover" end="zoomplus.mouseout"/>
                        </use>
                        <path d="M-4,0h8M0,-4v8" fill="none" stroke="white" stroke-width="1.5" pointer-events="none"/>
                </g>
                <g id="zoomMin">
                        <use xlink:href="#rim" fill="#404040">
                                <set attributeName="fill" to="#808080" begin="zoomminus.mouseover" end="zoomminus.mouseout"/>
                        </use>
                        <path d="M-4,0h8" fill="none" stroke="white" stroke-width="1.5" pointer-events="none"/>
                </g>
                <g id="dirArrow">
                        <path fill="none" stroke="white" stroke-width="1.5" d="M0,-3.0v7 M-2.5,-0.5L0,-3.0L2.5,-0.5"/>
                </g>
               <g id="resetDef">
                       <use xlink:href="#rim2" fill="#404040">
                               <set attributeName="fill" to="#808080" begin="reset.mouseover" end="reset.mouseout"/>
                       </use>
               </g>
        </defs>

<script type="text/javascript">
var viewWidth = 350;
var viewHeight = 644;
var sectionId = 'dynsection-0';
</script>
<script xlink:href="svgpan.js"/>
<svg id="graph" class="graph">
<g id="viewport">
<title>draw::ProgressAttr</title>
<!-- Node1 -->
<g id="node1" class="node"><title>Node1</title>
<polygon fill="#bfbfbf" stroke="black" points="106.726,-245 106.726,-359 225.274,-359 225.274,-245 106.726,-245"/>
<text text-anchor="middle" x="166" y="-347" font-family="Helvetica,sans-Serif" font-size="10.00">draw::ProgressAttr</text>
<polyline fill="none" stroke="black" points="106.726,-341 225.274,-341 "/>
<text text-anchor="middle" x="166" y="-329" font-family="Helvetica,sans-Serif" font-size="10.00"> </text>
<polyline fill="none" stroke="black" points="106.726,-323 225.274,-323 "/>
<text text-anchor="start" x="114.726" y="-311" font-family="Helvetica,sans-Serif" font-size="10.00">+ ProgressAttr()</text>
<text text-anchor="start" x="114.726" y="-301" font-family="Helvetica,sans-Serif" font-size="10.00">+ ProgressAttr()</text>
<text text-anchor="start" x="114.726" y="-291" font-family="Helvetica,sans-Serif" font-size="10.00">+ max()</text>
<text text-anchor="start" x="114.726" y="-281" font-family="Helvetica,sans-Serif" font-size="10.00">+ operator progress_t()</text>
<text text-anchor="start" x="114.726" y="-271" font-family="Helvetica,sans-Serif" font-size="10.00">+ pen()</text>
<text text-anchor="start" x="114.726" y="-261" font-family="Helvetica,sans-Serif" font-size="10.00">+ set_attr()</text>
<text text-anchor="start" x="114.726" y="-251" font-family="Helvetica,sans-Serif" font-size="10.00">and 5 more...</text>
</g>
<!-- Node5 -->
<g id="node5" class="node"><title>Node5</title>
<g id="a_node5"><a xlink:href="classdraw_1_1_progress.html" target="_top" xlink:title="Progress Class. ">
<polygon fill="none" stroke="black" points="91.5742,-123 91.5742,-207 240.426,-207 240.426,-123 91.5742,-123"/>
<text text-anchor="middle" x="166" y="-195" font-family="Helvetica,sans-Serif" font-size="10.00">draw::Progress</text>
<polyline fill="none" stroke="black" points="91.5742,-189 240.426,-189 "/>
<text text-anchor="start" x="99.5742" y="-177" font-family="Helvetica,sans-Serif" font-size="10.00"># m_scaled_border_thickness</text>
<polyline fill="none" stroke="black" points="91.5742,-171 240.426,-171 "/>
<text text-anchor="start" x="99.5742" y="-159" font-family="Helvetica,sans-Serif" font-size="10.00">+ Progress()</text>
<text text-anchor="start" x="99.5742" y="-149" font-family="Helvetica,sans-Serif" font-size="10.00">+ border_thickness()</text>
<text text-anchor="start" x="99.5742" y="-139" font-family="Helvetica,sans-Serif" font-size="10.00">+ set_border_thickness()</text>
<text text-anchor="start" x="99.5742" y="-129" font-family="Helvetica,sans-Serif" font-size="10.00"># scaled_border_thickness()</text>
</a>
</g>
</g>
<!-- Node1&#45;&gt;Node5 -->
<g id="edge4" class="edge"><title>Node1&#45;&gt;Node5</title>
<path fill="none" stroke="midnightblue" d="M166,-234.794C166,-225.419 166,-216.01 166,-207.291"/>
<polygon fill="none" stroke="midnightblue" points="162.5,-234.921 166,-244.921 169.5,-234.921 162.5,-234.921"/>
</g>
<!-- Node2 -->
<g id="node2" class="node"><title>Node2</title>
<g id="a_node2"><a xlink:href="classapi_1_1_draw_info_object.html" target="_top" xlink:title="Draw Information Object. ">
<polygon fill="none" stroke="black" points="114.091,-397 114.091,-451 217.909,-451 217.909,-397 114.091,-397"/>
<text text-anchor="middle" x="166" y="-439" font-family="Helvetica,sans-Serif" font-size="10.00">api::DrawInfoObject</text>
<polyline fill="none" stroke="black" points="114.091,-433 217.909,-433 "/>
<text text-anchor="middle" x="166" y="-421" font-family="Helvetica,sans-Serif" font-size="10.00"> </text>
<polyline fill="none" stroke="black" points="114.091,-415 217.909,-415 "/>
<text text-anchor="middle" x="166" y="-403" font-family="Helvetica,sans-Serif" font-size="10.00"> </text>
</a>
</g>
</g>
<!-- Node2&#45;&gt;Node1 -->
<g id="edge1" class="edge"><title>Node2&#45;&gt;Node1</title>
<path fill="none" stroke="midnightblue" d="M166,-386.754C166,-378.008 166,-368.458 166,-359.039"/>
<polygon fill="none" stroke="midnightblue" points="162.5,-386.962 166,-396.962 169.5,-386.962 162.5,-386.962"/>
</g>
<!-- Node3 -->
<g id="node3" class="node"><title>Node3</title>
<g id="a_node3"><a xlink:href="classapi_1_1_info_object.html" target="_top" xlink:title="API Information Object. ">
<polygon fill="none" stroke="black" points="125.759,-489 125.759,-543 206.241,-543 206.241,-489 125.759,-489"/>
<text text-anchor="middle" x="166" y="-531" font-family="Helvetica,sans-Serif" font-size="10.00">api::InfoObject</text>
<polyline fill="none" stroke="black" points="125.759,-525 206.241,-525 "/>
<text text-anchor="middle" x="166" y="-513" font-family="Helvetica,sans-Serif" font-size="10.00"> </text>
<polyline fill="none" stroke="black" points="125.759,-507 206.241,-507 "/>
<text text-anchor="middle" x="166" y="-495" font-family="Helvetica,sans-Serif" font-size="10.00"> </text>
</a>
</g>
</g>
<!-- Node3&#45;&gt;Node2 -->
<g id="edge2" class="edge"><title>Node3&#45;&gt;Node2</title>
<path fill="none" stroke="midnightblue" d="M166,-478.865C166,-469.644 166,-459.907 166,-451.285"/>
<polygon fill="none" stroke="midnightblue" points="162.5,-478.968 166,-488.968 169.5,-478.968 162.5,-478.968"/>
</g>
<!-- Node4 -->
<g id="node4" class="node"><title>Node4</title>
<g id="a_node4"><a xlink:href="classapi_1_1_api_object.html" target="_top" xlink:title="API Object Class. ">
<polygon fill="none" stroke="black" points="124.79,-581 124.79,-635 207.21,-635 207.21,-581 124.79,-581"/>
<text text-anchor="middle" x="166" y="-623" font-family="Helvetica,sans-Serif" font-size="10.00">api::ApiObject</text>
<polyline fill="none" stroke="black" points="124.79,-617 207.21,-617 "/>
<text text-anchor="middle" x="166" y="-605" font-family="Helvetica,sans-Serif" font-size="10.00"> </text>
<polyline fill="none" stroke="black" points="124.79,-599 207.21,-599 "/>
<text text-anchor="start" x="132.79" y="-587" font-family="Helvetica,sans-Serif" font-size="10.00">+ api_version()</text>
</a>
</g>
</g>
<!-- Node4&#45;&gt;Node3 -->
<g id="edge3" class="edge"><title>Node4&#45;&gt;Node3</title>
<path fill="none" stroke="midnightblue" d="M166,-570.865C166,-561.644 166,-551.907 166,-543.285"/>
<polygon fill="none" stroke="midnightblue" points="162.5,-570.968 166,-580.968 169.5,-570.968 162.5,-570.968"/>
</g>
<!-- Node6 -->
<g id="node6" class="node"><title>Node6</title>
<g id="a_node6"><a xlink:href="classdraw_1_1_arc_progress.html" target="_top" xlink:title="Progress Arc Class. ">
<polygon fill="none" stroke="black" points="-0.123047,-1 -0.123047,-85 98.123,-85 98.123,-1 -0.123047,-1"/>
<text text-anchor="middle" x="49" y="-73" font-family="Helvetica,sans-Serif" font-size="10.00">draw::ArcProgress</text>
<polyline fill="none" stroke="black" points="-0.123047,-67 98.123,-67 "/>
<text text-anchor="middle" x="49" y="-55" font-family="Helvetica,sans-Serif" font-size="10.00"> </text>
<polyline fill="none" stroke="black" points="-0.123047,-49 98.123,-49 "/>
<text text-anchor="start" x="7.87695" y="-37" font-family="Helvetica,sans-Serif" font-size="10.00">+ ArcProgress()</text>
<text text-anchor="start" x="7.87695" y="-27" font-family="Helvetica,sans-Serif" font-size="10.00">+ draw_to_scale()</text>
<text text-anchor="start" x="7.87695" y="-17" font-family="Helvetica,sans-Serif" font-size="10.00">+ set_direction()</text>
<text text-anchor="start" x="7.87695" y="-7" font-family="Helvetica,sans-Serif" font-size="10.00">+ set_offset()</text>
</a>
</g>
</g>
<!-- Node5&#45;&gt;Node6 -->
<g id="edge5" class="edge"><title>Node5&#45;&gt;Node6</title>
<path fill="none" stroke="midnightblue" d="M118.732,-115.52C108.987,-105.526 98.8107,-95.0879 89.339,-85.3733"/>
<polygon fill="none" stroke="midnightblue" points="116.248,-117.986 125.735,-122.703 121.26,-113.099 116.248,-117.986"/>
</g>
<!-- Node7 -->
<g id="node7" class="node"><title>Node7</title>
<g id="a_node7"><a xlink:href="classdraw_1_1_bar_progress.html" target="_top" xlink:title="Progress Bar Class. ">
<polygon fill="none" stroke="black" points="116.596,-6 116.596,-80 215.404,-80 215.404,-6 116.596,-6"/>
<text text-anchor="middle" x="166" y="-68" font-family="Helvetica,sans-Serif" font-size="10.00">draw::BarProgress</text>
<polyline fill="none" stroke="black" points="116.596,-62 215.404,-62 "/>
<text text-anchor="middle" x="166" y="-50" font-family="Helvetica,sans-Serif" font-size="10.00"> </text>
<polyline fill="none" stroke="black" points="116.596,-44 215.404,-44 "/>
<text text-anchor="start" x="124.596" y="-32" font-family="Helvetica,sans-Serif" font-size="10.00">+ BarProgress()</text>
<text text-anchor="start" x="124.596" y="-22" font-family="Helvetica,sans-Serif" font-size="10.00">+ draw()</text>
<text text-anchor="start" x="124.596" y="-12" font-family="Helvetica,sans-Serif" font-size="10.00">+ draw_to_scale()</text>
</a>
</g>
</g>
<!-- Node5&#45;&gt;Node7 -->
<g id="edge6" class="edge"><title>Node5&#45;&gt;Node7</title>
<path fill="none" stroke="midnightblue" d="M166,-112.443C166,-101.571 166,-90.3217 166,-80.1616"/>
<polygon fill="none" stroke="midnightblue" points="162.5,-112.703 166,-122.703 169.5,-112.703 162.5,-112.703"/>
</g>
<!-- Node8 -->
<g id="node8" class="node"><title>Node8</title>
<g id="a_node8"><a xlink:href="classdraw_1_1_circle_progress.html" target="_top" xlink:title="Progress Circle Class. ">
<polygon fill="none" stroke="black" points="233.599,-11 233.599,-75 342.401,-75 342.401,-11 233.599,-11"/>
<text text-anchor="middle" x="288" y="-63" font-family="Helvetica,sans-Serif" font-size="10.00">draw::CircleProgress</text>
<polyline fill="none" stroke="black" points="233.599,-57 342.401,-57 "/>
<text text-anchor="middle" x="288" y="-45" font-family="Helvetica,sans-Serif" font-size="10.00"> </text>
<polyline fill="none" stroke="black" points="233.599,-39 342.401,-39 "/>
<text text-anchor="start" x="241.599" y="-27" font-family="Helvetica,sans-Serif" font-size="10.00">+ CircleProgress()</text>
<text text-anchor="start" x="241.599" y="-17" font-family="Helvetica,sans-Serif" font-size="10.00">+ draw_to_scale()</text>
</a>
</g>
</g>
<!-- Node5&#45;&gt;Node8 -->
<g id="edge7" class="edge"><title>Node5&#45;&gt;Node8</title>
<path fill="none" stroke="midnightblue" d="M215.155,-115.651C229.044,-101.99 243.785,-87.4902 256.346,-75.1347"/>
<polygon fill="none" stroke="midnightblue" points="212.66,-113.195 207.985,-122.703 217.569,-118.186 212.66,-113.195"/>
</g>
</g>
</svg>
        <g id="navigator" transform="translate(0 0)" fill="#404254">
                <rect fill="#f2f5e9" fill-opacity="0.5" stroke="#606060" stroke-width=".5" x="0" y="0" width="60" height="60"/>
                <use id="zoomplus" xlink:href="#zoomPlus" x="17" y="9" onmousedown="handleZoom(evt,'in')"/>
                <use id="zoomminus" xlink:href="#zoomMin" x="42" y="9" onmousedown="handleZoom(evt,'out')"/>
                <use id="reset" xlink:href="#resetDef" x="30" y="36" onmousedown="handleReset()"/>
                <g id="arrowUp" xlink:href="#dirArrow" transform="translate(30 24)" onmousedown="handlePan(0,-1)">
                  <use xlink:href="#rim" fill="#404040">
                        <set attributeName="fill" to="#808080" begin="arrowUp.mouseover" end="arrowUp.mouseout"/>
                  </use>
                  <path fill="none" stroke="white" stroke-width="1.5" d="M0,-3.0v7 M-2.5,-0.5L0,-3.0L2.5,-0.5"/>
                </g>
                <g id="arrowRight" xlink:href="#dirArrow" transform="rotate(90) translate(36 -43)" onmousedown="handlePan(1,0)">
                  <use xlink:href="#rim" fill="#404040">
                        <set attributeName="fill" to="#808080" begin="arrowRight.mouseover" end="arrowRight.mouseout"/>
                  </use>
                  <path fill="none" stroke="white" stroke-width="1.5" d="M0,-3.0v7 M-2.5,-0.5L0,-3.0L2.5,-0.5"/>
                </g>
                <g id="arrowDown" xlink:href="#dirArrow" transform="rotate(180) translate(-30 -48)" onmousedown="handlePan(0,1)">
                  <use xlink:href="#rim" fill="#404040">
                        <set attributeName="fill" to="#808080" begin="arrowDown.mouseover" end="arrowDown.mouseout"/>
                  </use>
                  <path fill="none" stroke="white" stroke-width="1.5" d="M0,-3.0v7 M-2.5,-0.5L0,-3.0L2.5,-0.5"/>
                </g>
                <g id="arrowLeft" xlink:href="#dirArrow" transform="rotate(270) translate(-36 17)" onmousedown="handlePan(-1,0)">
                  <use xlink:href="#rim" fill="#404040">
                        <set attributeName="fill" to="#808080" begin="arrowLeft.mouseover" end="arrowLeft.mouseout"/>
                  </use>
                  <path fill="none" stroke="white" stroke-width="1.5" d="M0,-3.0v7 M-2.5,-0.5L0,-3.0L2.5,-0.5"/>
                </g>
        </g>
        <svg viewBox="0 0 15 15" width="100%" height="30px" preserveAspectRatio="xMaxYMin meet">
         <g id="arrow_out" transform="scale(0.3 0.3)">
          <a xlink:href="classdraw_1_1_progress_attr__inherit__graph_org.svg" target="_base">
           <rect id="button" ry="5" rx="5" y="6" x="6" height="38" width="38"
                fill="#f2f5e9" fill-opacity="0.5" stroke="#606060" stroke-width="1.0"/>
           <path id="arrow"
             d="M 11.500037,31.436501 C 11.940474,20.09759 22.043105,11.32322 32.158766,21.979434 L 37.068811,17.246167 C 37.068811,17.246167 37.088388,32 37.088388,32 L 22.160133,31.978069 C 22.160133,31.978069 26.997745,27.140456 26.997745,27.140456 C 18.528582,18.264221 13.291696,25.230495 11.500037,31.436501 z"
             style="fill:#404040;"/>
          </a>
         </g>
        </svg>
</svg>
