<?xml version="1.0" encoding="UTF-8" standalone="no"?>
<!DOCTYPE svg PUBLIC "-//W3C//DTD SVG 1.1//EN"
 "http://www.w3.org/Graphics/SVG/1.1/DTD/svg11.dtd">
<!-- Generated by graphviz version 2.36.0 (20140111.2315)
 -->
<!-- Title: draw::TextBox Pages: 1 -->
<svg width="241pt" height="752pt"
 viewBox="0.00 0.00 241.00 752.00" xmlns="http://www.w3.org/2000/svg" xmlns:xlink="http://www.w3.org/1999/xlink">
<g id="graph0" class="graph" transform="scale(1 1) rotate(0) translate(4 748)">
<title>draw::TextBox</title>
<!-- Node1 -->
<g id="node1" class="node"><title>Node1</title>
<polygon fill="#bfbfbf" stroke="black" points="64.1196,-1 64.1196,-125 159.88,-125 159.88,-1 64.1196,-1"/>
<text text-anchor="middle" x="112" y="-113" font-family="Helvetica,sans-Serif" font-size="10.00">draw::TextBox</text>
<polyline fill="none" stroke="black" points="64.1196,-107 159.88,-107 "/>
<text text-anchor="middle" x="112" y="-95" font-family="Helvetica,sans-Serif" font-size="10.00"> </text>
<polyline fill="none" stroke="black" points="64.1196,-89 159.88,-89 "/>
<text text-anchor="start" x="72.1196" y="-77" font-family="Helvetica,sans-Serif" font-size="10.00">+ TextBox()</text>
<text text-anchor="start" x="72.1196" y="-67" font-family="Helvetica,sans-Serif" font-size="10.00">+ count_lines()</text>
<text text-anchor="start" x="72.1196" y="-57" font-family="Helvetica,sans-Serif" font-size="10.00">+ dec_scroll()</text>
<text text-anchor="start" x="72.1196" y="-47" font-family="Helvetica,sans-Serif" font-size="10.00">+ draw_to_scale()</text>
<text text-anchor="start" x="72.1196" y="-37" font-family="Helvetica,sans-Serif" font-size="10.00">+ inc_scroll()</text>
<text text-anchor="start" x="72.1196" y="-27" font-family="Helvetica,sans-Serif" font-size="10.00">+ scroll()</text>
<text text-anchor="start" x="72.1196" y="-17" font-family="Helvetica,sans-Serif" font-size="10.00">+ scroll_max()</text>
<text text-anchor="start" x="72.1196" y="-7" font-family="Helvetica,sans-Serif" font-size="10.00">+ count_lines()</text>
</g>
<!-- Node2 -->
<g id="node2" class="node"><title>Node2</title>
<g id="a_node2"><a xlink:href="classdraw_1_1_text_attr.html" target="_top" xlink:title="Text Attribute Class. ">
<polygon fill="none" stroke="black" points="9.26123,-213 9.26123,-337 94.7388,-337 94.7388,-213 9.26123,-213"/>
<text text-anchor="middle" x="52" y="-325" font-family="Helvetica,sans-Serif" font-size="10.00">draw::TextAttr</text>
<polyline fill="none" stroke="black" points="9.26123,-319 94.7388,-319 "/>
<text text-anchor="middle" x="52" y="-307" font-family="Helvetica,sans-Serif" font-size="10.00"> </text>
<polyline fill="none" stroke="black" points="9.26123,-301 94.7388,-301 "/>
<text text-anchor="start" x="17.2612" y="-289" font-family="Helvetica,sans-Serif" font-size="10.00">+ TextAttr()</text>
<text text-anchor="start" x="17.2612" y="-279" font-family="Helvetica,sans-Serif" font-size="10.00">+ assign()</text>
<text text-anchor="start" x="17.2612" y="-269" font-family="Helvetica,sans-Serif" font-size="10.00">+ font()</text>
<text text-anchor="start" x="17.2612" y="-259" font-family="Helvetica,sans-Serif" font-size="10.00">+ font_bold()</text>
<text text-anchor="start" x="17.2612" y="-249" font-family="Helvetica,sans-Serif" font-size="10.00">+ font_size()</text>
<text text-anchor="start" x="17.2612" y="-239" font-family="Helvetica,sans-Serif" font-size="10.00">+ set_font()</text>
<text text-anchor="start" x="17.2612" y="-229" font-family="Helvetica,sans-Serif" font-size="10.00">and 4 more...</text>
<text text-anchor="start" x="17.2612" y="-219" font-family="Helvetica,sans-Serif" font-size="10.00"># resolve_font()</text>
</a>
</g>
</g>
<!-- Node2&#45;&gt;Node1 -->
<g id="edge1" class="edge"><title>Node2&#45;&gt;Node1</title>
<path fill="none" stroke="midnightblue" d="M72.2622,-203.082C79.485,-177.802 87.5525,-149.566 94.5214,-125.175"/>
<polygon fill="none" stroke="midnightblue" points="68.817,-202.4 69.4351,-212.977 75.5477,-204.324 68.817,-202.4"/>
</g>
<!-- Node3 -->
<g id="node3" class="node"><title>Node3</title>
<g id="a_node3"><a xlink:href="classapi_1_1_draw_info_object.html" target="_top" xlink:title="Draw Information Object. ">
<polygon fill="none" stroke="black" points="-0.908691,-425 -0.908691,-479 102.909,-479 102.909,-425 -0.908691,-425"/>
<text text-anchor="middle" x="51" y="-467" font-family="Helvetica,sans-Serif" font-size="10.00">api::DrawInfoObject</text>
<polyline fill="none" stroke="black" points="-0.908691,-461 102.909,-461 "/>
<text text-anchor="middle" x="51" y="-449" font-family="Helvetica,sans-Serif" font-size="10.00"> </text>
<polyline fill="none" stroke="black" points="-0.908691,-443 102.909,-443 "/>
<text text-anchor="middle" x="51" y="-431" font-family="Helvetica,sans-Serif" font-size="10.00"> </text>
</a>
</g>
</g>
<!-- Node3&#45;&gt;Node2 -->
<g id="edge2" class="edge"><title>Node3&#45;&gt;Node2</title>
<path fill="none" stroke="midnightblue" d="M51.2072,-414.736C51.335,-392.376 51.5022,-363.123 51.65,-337.247"/>
<polygon fill="none" stroke="midnightblue" points="47.707,-414.781 51.1497,-424.801 54.7069,-414.821 47.707,-414.781"/>
</g>
<!-- Node4 -->
<g id="node4" class="node"><title>Node4</title>
<g id="a_node4"><a xlink:href="classapi_1_1_info_object.html" target="_top" xlink:title="API Information Object. ">
<polygon fill="none" stroke="black" points="13.7588,-557 13.7588,-611 94.2412,-611 94.2412,-557 13.7588,-557"/>
<text text-anchor="middle" x="54" y="-599" font-family="Helvetica,sans-Serif" font-size="10.00">api::InfoObject</text>
<polyline fill="none" stroke="black" points="13.7588,-593 94.2412,-593 "/>
<text text-anchor="middle" x="54" y="-581" font-family="Helvetica,sans-Serif" font-size="10.00"> </text>
<polyline fill="none" stroke="black" points="13.7588,-575 94.2412,-575 "/>
<text text-anchor="middle" x="54" y="-563" font-family="Helvetica,sans-Serif" font-size="10.00"> </text>
</a>
</g>
</g>
<!-- Node4&#45;&gt;Node3 -->
<g id="edge3" class="edge"><title>Node4&#45;&gt;Node3</title>
<path fill="none" stroke="midnightblue" d="M53.1612,-546.652C52.6671,-525.24 52.0533,-498.641 51.6062,-479.268"/>
<polygon fill="none" stroke="midnightblue" points="49.663,-546.776 53.3929,-556.693 56.6612,-546.614 49.663,-546.776"/>
</g>
<!-- Node5 -->
<g id="node5" class="node"><title>Node5</title>
<g id="a_node5"><a xlink:href="classapi_1_1_api_object.html" target="_top" xlink:title="API Object Class. ">
<polygon fill="none" stroke="black" points="72.7896,-689 72.7896,-743 155.21,-743 155.21,-689 72.7896,-689"/>
<text text-anchor="middle" x="114" y="-731" font-family="Helvetica,sans-Serif" font-size="10.00">api::ApiObject</text>
<polyline fill="none" stroke="black" points="72.7896,-725 155.21,-725 "/>
<text text-anchor="middle" x="114" y="-713" font-family="Helvetica,sans-Serif" font-size="10.00"> </text>
<polyline fill="none" stroke="black" points="72.7896,-707 155.21,-707 "/>
<text text-anchor="start" x="80.7896" y="-695" font-family="Helvetica,sans-Serif" font-size="10.00">+ api_version()</text>
</a>
</g>
</g>
<!-- Node5&#45;&gt;Node4 -->
<g id="edge4" class="edge"><title>Node5&#45;&gt;Node4</title>
<path fill="none" stroke="midnightblue" d="M97.627,-679.525C87.6768,-657.966 75.1871,-630.905 66.1238,-611.268"/>
<polygon fill="none" stroke="midnightblue" points="94.4896,-681.08 101.858,-688.693 100.845,-678.146 94.4896,-681.08"/>
</g>
<!-- Node8 -->
<g id="node8" class="node"><title>Node8</title>
<g id="a_node8"><a xlink:href="classapi_1_1_work_object.html" target="_top" xlink:title="WorkObject Class. ">
<polygon fill="none" stroke="black" points="114.452,-517 114.452,-651 233.548,-651 233.548,-517 114.452,-517"/>
<text text-anchor="middle" x="174" y="-639" font-family="Helvetica,sans-Serif" font-size="10.00">api::WorkObject</text>
<polyline fill="none" stroke="black" points="114.452,-633 233.548,-633 "/>
<text text-anchor="middle" x="174" y="-621" font-family="Helvetica,sans-Serif" font-size="10.00"> </text>
<polyline fill="none" stroke="black" points="114.452,-615 233.548,-615 "/>
<text text-anchor="start" x="122.452" y="-603" font-family="Helvetica,sans-Serif" font-size="10.00">+ WorkObject()</text>
<text text-anchor="start" x="122.452" y="-593" font-family="Helvetica,sans-Serif" font-size="10.00">+ clear_error_number()</text>
<text text-anchor="start" x="122.452" y="-583" font-family="Helvetica,sans-Serif" font-size="10.00">+ error_number()</text>
<text text-anchor="start" x="122.452" y="-573" font-family="Helvetica,sans-Serif" font-size="10.00">+ exit_fatal()</text>
<text text-anchor="start" x="122.452" y="-563" font-family="Helvetica,sans-Serif" font-size="10.00"># set_error_number()</text>
<text text-anchor="start" x="122.452" y="-553" font-family="Helvetica,sans-Serif" font-size="10.00"># set_error_number_if</text>
<text text-anchor="start" x="122.452" y="-543" font-family="Helvetica,sans-Serif" font-size="10.00">_error()</text>
<text text-anchor="start" x="122.452" y="-533" font-family="Helvetica,sans-Serif" font-size="10.00"># set_error_number_to</text>
<text text-anchor="start" x="122.452" y="-523" font-family="Helvetica,sans-Serif" font-size="10.00">_errno()</text>
</a>
</g>
</g>
<!-- Node5&#45;&gt;Node8 -->
<g id="edge8" class="edge"><title>Node5&#45;&gt;Node8</title>
<path fill="none" stroke="midnightblue" d="M130.387,-679.495C134.472,-670.644 138.984,-660.868 143.511,-651.059"/>
<polygon fill="none" stroke="midnightblue" points="127.155,-678.146 126.142,-688.693 133.51,-681.08 127.155,-678.146"/>
</g>
<!-- Node6 -->
<g id="node6" class="node"><title>Node6</title>
<g id="a_node6"><a xlink:href="classdraw_1_1_drawing.html" target="_top" xlink:title="Drawing Class. ">
<polygon fill="none" stroke="black" points="114.447,-163 114.447,-387 233.553,-387 233.553,-163 114.447,-163"/>
<text text-anchor="middle" x="174" y="-375" font-family="Helvetica,sans-Serif" font-size="10.00">draw::Drawing</text>
<polyline fill="none" stroke="black" points="114.447,-369 233.553,-369 "/>
<text text-anchor="middle" x="174" y="-357" font-family="Helvetica,sans-Serif" font-size="10.00"> </text>
<polyline fill="none" stroke="black" points="114.447,-351 233.553,-351 "/>
<text text-anchor="start" x="122.447" y="-339" font-family="Helvetica,sans-Serif" font-size="10.00">+ Drawing()</text>
<text text-anchor="start" x="122.447" y="-329" font-family="Helvetica,sans-Serif" font-size="10.00">+ dark()</text>
<text text-anchor="start" x="122.447" y="-319" font-family="Helvetica,sans-Serif" font-size="10.00">+ draw()</text>
<text text-anchor="start" x="122.447" y="-309" font-family="Helvetica,sans-Serif" font-size="10.00">+ draw()</text>
<text text-anchor="start" x="122.447" y="-299" font-family="Helvetica,sans-Serif" font-size="10.00">+ draw_scratch()</text>
<text text-anchor="start" x="122.447" y="-289" font-family="Helvetica,sans-Serif" font-size="10.00">+ draw_to_scale()</text>
<text text-anchor="start" x="122.447" y="-279" font-family="Helvetica,sans-Serif" font-size="10.00">and 18 more...</text>
<text text-anchor="start" x="122.447" y="-269" font-family="Helvetica,sans-Serif" font-size="10.00">+ clear()</text>
<text text-anchor="start" x="122.447" y="-259" font-family="Helvetica,sans-Serif" font-size="10.00">+ draw_checkerboard()</text>
<text text-anchor="start" x="122.447" y="-249" font-family="Helvetica,sans-Serif" font-size="10.00">+ draw_pattern()</text>
<text text-anchor="start" x="122.447" y="-239" font-family="Helvetica,sans-Serif" font-size="10.00">+ h()</text>
<text text-anchor="start" x="122.447" y="-229" font-family="Helvetica,sans-Serif" font-size="10.00">+ height()</text>
<text text-anchor="start" x="122.447" y="-219" font-family="Helvetica,sans-Serif" font-size="10.00">+ invert()</text>
<text text-anchor="start" x="122.447" y="-209" font-family="Helvetica,sans-Serif" font-size="10.00">and 4 more...</text>
<text text-anchor="start" x="122.447" y="-199" font-family="Helvetica,sans-Serif" font-size="10.00"># dim_on_bitmap()</text>
<text text-anchor="start" x="122.447" y="-189" font-family="Helvetica,sans-Serif" font-size="10.00"># flag()</text>
<text text-anchor="start" x="122.447" y="-179" font-family="Helvetica,sans-Serif" font-size="10.00"># point_on_bitmap()</text>
<text text-anchor="start" x="122.447" y="-169" font-family="Helvetica,sans-Serif" font-size="10.00"># set_flag()</text>
</a>
</g>
</g>
<!-- Node6&#45;&gt;Node1 -->
<g id="edge5" class="edge"><title>Node6&#45;&gt;Node1</title>
<path fill="none" stroke="midnightblue" d="M138.32,-153.147C135.469,-143.492 132.672,-134.019 130.029,-125.067"/>
<polygon fill="none" stroke="midnightblue" points="134.996,-154.251 141.185,-162.851 141.71,-152.269 134.996,-154.251"/>
</g>
<!-- Node7 -->
<g id="node7" class="node"><title>Node7</title>
<g id="a_node7"><a xlink:href="classapi_1_1_draw_work_object.html" target="_top" xlink:title="State Machine Work Object Class. ">
<polygon fill="none" stroke="black" points="120.854,-425 120.854,-479 231.146,-479 231.146,-425 120.854,-425"/>
<text text-anchor="middle" x="176" y="-467" font-family="Helvetica,sans-Serif" font-size="10.00">api::DrawWorkObject</text>
<polyline fill="none" stroke="black" points="120.854,-461 231.146,-461 "/>
<text text-anchor="middle" x="176" y="-449" font-family="Helvetica,sans-Serif" font-size="10.00"> </text>
<polyline fill="none" stroke="black" points="120.854,-443 231.146,-443 "/>
<text text-anchor="middle" x="176" y="-431" font-family="Helvetica,sans-Serif" font-size="10.00"> </text>
</a>
</g>
</g>
<!-- Node7&#45;&gt;Node6 -->
<g id="edge6" class="edge"><title>Node7&#45;&gt;Node6</title>
<path fill="none" stroke="midnightblue" d="M175.585,-414.684C175.489,-406.251 175.381,-396.84 175.269,-387.001"/>
<polygon fill="none" stroke="midnightblue" points="172.086,-414.841 175.701,-424.801 179.086,-414.761 172.086,-414.841"/>
</g>
<!-- Node8&#45;&gt;Node7 -->
<g id="edge7" class="edge"><title>Node8&#45;&gt;Node7</title>
<path fill="none" stroke="midnightblue" d="M175.172,-506.838C175.325,-496.903 175.472,-487.326 175.599,-479.074"/>
<polygon fill="none" stroke="midnightblue" points="171.672,-506.805 175.018,-516.857 178.671,-506.913 171.672,-506.805"/>
</g>
</g>
</svg>
