<?xml version="1.0" encoding="UTF-8" standalone="no"?>
<!DOCTYPE svg PUBLIC "-//W3C//DTD SVG 1.1//EN"
 "http://www.w3.org/Graphics/SVG/1.1/DTD/svg11.dtd">
<!-- Generated by graphviz version 2.36.0 (20140111.2315)
 -->
<!-- Title: api::SmWorkObject Pages: 1 -->
<svg width="430pt" height="682pt"
 viewBox="0.00 0.00 430.00 682.00" xmlns="http://www.w3.org/2000/svg" xmlns:xlink="http://www.w3.org/1999/xlink">
<g id="graph0" class="graph" transform="scale(1 1) rotate(0) translate(4 678)">
<title>api::SmWorkObject</title>
<!-- Node1 -->
<g id="node1" class="node"><title>Node1</title>
<polygon fill="#bfbfbf" stroke="black" points="193.021,-345 193.021,-399 294.979,-399 294.979,-345 193.021,-345"/>
<text text-anchor="middle" x="244" y="-387" font-family="Helvetica,sans-Serif" font-size="10.00">api::SmWorkObject</text>
<polyline fill="none" stroke="black" points="193.021,-381 294.979,-381 "/>
<text text-anchor="middle" x="244" y="-369" font-family="Helvetica,sans-Serif" font-size="10.00"> </text>
<polyline fill="none" stroke="black" points="193.021,-363 294.979,-363 "/>
<text text-anchor="middle" x="244" y="-351" font-family="Helvetica,sans-Serif" font-size="10.00"> </text>
</g>
<!-- Node4 -->
<g id="node4" class="node"><title>Node4</title>
<g id="a_node4"><a xlink:href="classsm_1_1_object.html" target="_top" xlink:title="State Machine Object. ">
<polygon fill="none" stroke="black" points="131.841,-188 131.841,-272 228.159,-272 228.159,-188 131.841,-188"/>
<text text-anchor="middle" x="180" y="-260" font-family="Helvetica,sans-Serif" font-size="10.00">sm::Object</text>
<polyline fill="none" stroke="black" points="131.841,-254 228.159,-254 "/>
<text text-anchor="middle" x="180" y="-242" font-family="Helvetica,sans-Serif" font-size="10.00"> </text>
<polyline fill="none" stroke="black" points="131.841,-236 228.159,-236 "/>
<text text-anchor="start" x="139.841" y="-224" font-family="Helvetica,sans-Serif" font-size="10.00">+ Object()</text>
<text text-anchor="start" x="139.841" y="-214" font-family="Helvetica,sans-Serif" font-size="10.00">+ name()</text>
<text text-anchor="start" x="139.841" y="-204" font-family="Helvetica,sans-Serif" font-size="10.00">+ state_machine()</text>
<text text-anchor="start" x="139.841" y="-194" font-family="Helvetica,sans-Serif" font-size="10.00">+ type()</text>
</a>
</g>
</g>
<!-- Node1&#45;&gt;Node4 -->
<g id="edge3" class="edge"><title>Node1&#45;&gt;Node4</title>
<path fill="none" stroke="midnightblue" d="M227.847,-335.665C219.032,-316.382 208.071,-292.405 198.865,-272.267"/>
<polygon fill="none" stroke="midnightblue" points="224.771,-337.356 232.112,-344.995 231.138,-334.445 224.771,-337.356"/>
</g>
<!-- Node9 -->
<g id="node9" class="node"><title>Node9</title>
<g id="a_node9"><a xlink:href="classsm_1_1_simple_state_machine.html" target="_top" xlink:title="Simple State Machine Class. ">
<polygon fill="none" stroke="black" points="245.7,-153 245.7,-307 372.3,-307 372.3,-153 245.7,-153"/>
<text text-anchor="start" x="253.7" y="-295" font-family="Helvetica,sans-Serif" font-size="10.00">sm::SimpleStateMachine</text>
<text text-anchor="start" x="253.7" y="-285" font-family="Helvetica,sans-Serif" font-size="10.00">&lt; container_class, return</text>
<text text-anchor="middle" x="309" y="-275" font-family="Helvetica,sans-Serif" font-size="10.00">_type, args &gt;</text>
<polyline fill="none" stroke="black" points="245.7,-269 372.3,-269 "/>
<text text-anchor="middle" x="309" y="-257" font-family="Helvetica,sans-Serif" font-size="10.00"> </text>
<polyline fill="none" stroke="black" points="245.7,-251 372.3,-251 "/>
<text text-anchor="start" x="253.7" y="-239" font-family="Helvetica,sans-Serif" font-size="10.00">+ SimpleStateMachine()</text>
<text text-anchor="start" x="253.7" y="-229" font-family="Helvetica,sans-Serif" font-size="10.00">+ count()</text>
<text text-anchor="start" x="253.7" y="-219" font-family="Helvetica,sans-Serif" font-size="10.00">+ error()</text>
<text text-anchor="start" x="253.7" y="-209" font-family="Helvetica,sans-Serif" font-size="10.00">+ is_state_valid()</text>
<text text-anchor="start" x="253.7" y="-199" font-family="Helvetica,sans-Serif" font-size="10.00">+ resize()</text>
<text text-anchor="start" x="253.7" y="-189" font-family="Helvetica,sans-Serif" font-size="10.00">+ set_state()</text>
<text text-anchor="start" x="253.7" y="-179" font-family="Helvetica,sans-Serif" font-size="10.00">+ set_state_method()</text>
<text text-anchor="start" x="253.7" y="-169" font-family="Helvetica,sans-Serif" font-size="10.00">+ state()</text>
<text text-anchor="start" x="253.7" y="-159" font-family="Helvetica,sans-Serif" font-size="10.00">+ update()</text>
</a>
</g>
</g>
<!-- Node1&#45;&gt;Node9 -->
<g id="edge8" class="edge"><title>Node1&#45;&gt;Node9</title>
<path fill="none" stroke="midnightblue" d="M260.329,-335.831C264.434,-326.989 269.001,-317.152 273.646,-307.147"/>
<polygon fill="none" stroke="midnightblue" points="257.11,-334.451 256.074,-344.995 263.459,-337.399 257.11,-334.451"/>
</g>
<!-- Node2 -->
<g id="node2" class="node"><title>Node2</title>
<g id="a_node2"><a xlink:href="classapi_1_1_work_object.html" target="_top" xlink:title="WorkObject Class. ">
<polygon fill="none" stroke="black" points="172.914,-437 172.914,-581 315.086,-581 315.086,-437 172.914,-437"/>
<text text-anchor="middle" x="244" y="-569" font-family="Helvetica,sans-Serif" font-size="10.00">api::WorkObject</text>
<polyline fill="none" stroke="black" points="172.914,-563 315.086,-563 "/>
<text text-anchor="middle" x="244" y="-551" font-family="Helvetica,sans-Serif" font-size="10.00"> </text>
<polyline fill="none" stroke="black" points="172.914,-545 315.086,-545 "/>
<text text-anchor="start" x="180.914" y="-533" font-family="Helvetica,sans-Serif" font-size="10.00">+ WorkObject()</text>
<text text-anchor="start" x="180.914" y="-523" font-family="Helvetica,sans-Serif" font-size="10.00">+ clear_error_number()</text>
<text text-anchor="start" x="180.914" y="-513" font-family="Helvetica,sans-Serif" font-size="10.00">+ error_number()</text>
<text text-anchor="start" x="180.914" y="-503" font-family="Helvetica,sans-Serif" font-size="10.00">+ exit_fatal()</text>
<text text-anchor="start" x="180.914" y="-493" font-family="Helvetica,sans-Serif" font-size="10.00"># set_error_number()</text>
<text text-anchor="start" x="180.914" y="-483" font-family="Helvetica,sans-Serif" font-size="10.00"># set_error_number_if</text>
<text text-anchor="start" x="180.914" y="-473" font-family="Helvetica,sans-Serif" font-size="10.00">_error()</text>
<text text-anchor="start" x="180.914" y="-463" font-family="Helvetica,sans-Serif" font-size="10.00"># set_error_number_if_null()</text>
<text text-anchor="start" x="180.914" y="-453" font-family="Helvetica,sans-Serif" font-size="10.00"># set_error_number_to</text>
<text text-anchor="start" x="180.914" y="-443" font-family="Helvetica,sans-Serif" font-size="10.00">_errno()</text>
</a>
</g>
</g>
<!-- Node2&#45;&gt;Node1 -->
<g id="edge1" class="edge"><title>Node2&#45;&gt;Node1</title>
<path fill="none" stroke="midnightblue" d="M244,-426.911C244,-416.983 244,-407.464 244,-399.262"/>
<polygon fill="none" stroke="midnightblue" points="240.5,-426.942 244,-436.942 247.5,-426.942 240.5,-426.942"/>
</g>
<!-- Node3 -->
<g id="node3" class="node"><title>Node3</title>
<g id="a_node3"><a xlink:href="classapi_1_1_api_object.html" target="_top" xlink:title="API Object Class. ">
<polygon fill="none" stroke="black" points="202.79,-619 202.79,-673 285.21,-673 285.21,-619 202.79,-619"/>
<text text-anchor="middle" x="244" y="-661" font-family="Helvetica,sans-Serif" font-size="10.00">api::ApiObject</text>
<polyline fill="none" stroke="black" points="202.79,-655 285.21,-655 "/>
<text text-anchor="middle" x="244" y="-643" font-family="Helvetica,sans-Serif" font-size="10.00"> </text>
<polyline fill="none" stroke="black" points="202.79,-637 285.21,-637 "/>
<text text-anchor="start" x="210.79" y="-625" font-family="Helvetica,sans-Serif" font-size="10.00">+ api_version()</text>
</a>
</g>
</g>
<!-- Node3&#45;&gt;Node2 -->
<g id="edge2" class="edge"><title>Node3&#45;&gt;Node2</title>
<path fill="none" stroke="midnightblue" d="M244,-608.925C244,-600.287 244,-590.765 244,-581.145"/>
<polygon fill="none" stroke="midnightblue" points="240.5,-608.971 244,-618.971 247.5,-608.971 240.5,-608.971"/>
</g>
<!-- Node5 -->
<g id="node5" class="node"><title>Node5</title>
<g id="a_node5"><a xlink:href="classsm_1_1_action.html" target="_top" xlink:title="State Machine Action. ">
<polygon fill="none" stroke="black" points="-0.151367,-21 -0.151367,-95 66.1514,-95 66.1514,-21 -0.151367,-21"/>
<text text-anchor="middle" x="33" y="-83" font-family="Helvetica,sans-Serif" font-size="10.00">sm::Action</text>
<polyline fill="none" stroke="black" points="-0.151367,-77 66.1514,-77 "/>
<text text-anchor="middle" x="33" y="-65" font-family="Helvetica,sans-Serif" font-size="10.00"> </text>
<polyline fill="none" stroke="black" points="-0.151367,-59 66.1514,-59 "/>
<text text-anchor="start" x="7.84863" y="-47" font-family="Helvetica,sans-Serif" font-size="10.00">+ Action()</text>
<text text-anchor="start" x="7.84863" y="-37" font-family="Helvetica,sans-Serif" font-size="10.00">+ execute()</text>
<text text-anchor="start" x="7.84863" y="-27" font-family="Helvetica,sans-Serif" font-size="10.00">+ type()</text>
</a>
</g>
</g>
<!-- Node4&#45;&gt;Node5 -->
<g id="edge4" class="edge"><title>Node4&#45;&gt;Node5</title>
<path fill="none" stroke="midnightblue" d="M132.732,-180.571C114.21,-160.974 93.1039,-137.852 75,-116 69.5105,-109.374 63.8828,-102.11 58.603,-95.052"/>
<polygon fill="none" stroke="midnightblue" points="130.267,-183.059 139.692,-187.899 135.343,-178.238 130.267,-183.059"/>
</g>
<!-- Node6 -->
<g id="node6" class="node"><title>Node6</title>
<g id="a_node6"><a xlink:href="classsm_1_1_condition.html" target="_top" xlink:title="State Machine Condition. ">
<polygon fill="none" stroke="black" points="84.4312,-21 84.4312,-95 161.569,-95 161.569,-21 84.4312,-21"/>
<text text-anchor="middle" x="123" y="-83" font-family="Helvetica,sans-Serif" font-size="10.00">sm::Condition</text>
<polyline fill="none" stroke="black" points="84.4312,-77 161.569,-77 "/>
<text text-anchor="middle" x="123" y="-65" font-family="Helvetica,sans-Serif" font-size="10.00"> </text>
<polyline fill="none" stroke="black" points="84.4312,-59 161.569,-59 "/>
<text text-anchor="start" x="92.4312" y="-47" font-family="Helvetica,sans-Serif" font-size="10.00">+ Condition()</text>
<text text-anchor="start" x="92.4312" y="-37" font-family="Helvetica,sans-Serif" font-size="10.00">+ is_true()</text>
<text text-anchor="start" x="92.4312" y="-27" font-family="Helvetica,sans-Serif" font-size="10.00">+ type()</text>
</a>
</g>
</g>
<!-- Node4&#45;&gt;Node6 -->
<g id="edge5" class="edge"><title>Node4&#45;&gt;Node6</title>
<path fill="none" stroke="midnightblue" d="M162.989,-178.266C154.023,-151.524 143.234,-119.346 135.123,-95.1566"/>
<polygon fill="none" stroke="midnightblue" points="159.704,-179.479 166.202,-187.848 166.341,-177.254 159.704,-179.479"/>
</g>
<!-- Node7 -->
<g id="node7" class="node"><title>Node7</title>
<g id="a_node7"><a xlink:href="classsm_1_1_state.html" target="_top" xlink:title="State Machine State. ">
<polygon fill="none" stroke="black" points="179.662,-6 179.662,-110 294.338,-110 294.338,-6 179.662,-6"/>
<text text-anchor="middle" x="237" y="-98" font-family="Helvetica,sans-Serif" font-size="10.00">sm::State</text>
<polyline fill="none" stroke="black" points="179.662,-92 294.338,-92 "/>
<text text-anchor="middle" x="237" y="-80" font-family="Helvetica,sans-Serif" font-size="10.00"> </text>
<polyline fill="none" stroke="black" points="179.662,-74 294.338,-74 "/>
<text text-anchor="start" x="187.662" y="-62" font-family="Helvetica,sans-Serif" font-size="10.00">+ State()</text>
<text text-anchor="start" x="187.662" y="-52" font-family="Helvetica,sans-Serif" font-size="10.00">+ add_action()</text>
<text text-anchor="start" x="187.662" y="-42" font-family="Helvetica,sans-Serif" font-size="10.00">+ add_entry_action()</text>
<text text-anchor="start" x="187.662" y="-32" font-family="Helvetica,sans-Serif" font-size="10.00">+ add_exit_action()</text>
<text text-anchor="start" x="187.662" y="-22" font-family="Helvetica,sans-Serif" font-size="10.00">+ add_exit_condition()</text>
<text text-anchor="start" x="187.662" y="-12" font-family="Helvetica,sans-Serif" font-size="10.00">+ type()</text>
</a>
</g>
</g>
<!-- Node4&#45;&gt;Node7 -->
<g id="edge6" class="edge"><title>Node4&#45;&gt;Node7</title>
<path fill="none" stroke="midnightblue" d="M197.022,-178.232C204.238,-156.71 212.633,-131.673 219.862,-110.114"/>
<polygon fill="none" stroke="midnightblue" points="193.659,-177.254 193.798,-187.848 200.296,-179.479 193.659,-177.254"/>
</g>
<!-- Node8 -->
<g id="node8" class="node"><title>Node8</title>
<g id="a_node8"><a xlink:href="classsm_1_1_state_machine.html" target="_top" xlink:title="State Machine. ">
<polygon fill="none" stroke="black" points="311.881,-1 311.881,-115 422.119,-115 422.119,-1 311.881,-1"/>
<text text-anchor="middle" x="367" y="-103" font-family="Helvetica,sans-Serif" font-size="10.00">sm::StateMachine</text>
<polyline fill="none" stroke="black" points="311.881,-97 422.119,-97 "/>
<text text-anchor="middle" x="367" y="-85" font-family="Helvetica,sans-Serif" font-size="10.00"> </text>
<polyline fill="none" stroke="black" points="311.881,-79 422.119,-79 "/>
<text text-anchor="start" x="319.881" y="-67" font-family="Helvetica,sans-Serif" font-size="10.00">+ StateMachine()</text>
<text text-anchor="start" x="319.881" y="-57" font-family="Helvetica,sans-Serif" font-size="10.00">+ append_action()</text>
<text text-anchor="start" x="319.881" y="-47" font-family="Helvetica,sans-Serif" font-size="10.00">+ append_condition()</text>
<text text-anchor="start" x="319.881" y="-37" font-family="Helvetica,sans-Serif" font-size="10.00">+ append_state()</text>
<text text-anchor="start" x="319.881" y="-27" font-family="Helvetica,sans-Serif" font-size="10.00">+ execute()</text>
<text text-anchor="start" x="319.881" y="-17" font-family="Helvetica,sans-Serif" font-size="10.00">+ execute_action()</text>
<text text-anchor="start" x="319.881" y="-7" font-family="Helvetica,sans-Serif" font-size="10.00">and 4 more...</text>
</a>
</g>
</g>
<!-- Node4&#45;&gt;Node8 -->
<g id="edge7" class="edge"><title>Node4&#45;&gt;Node8</title>
<path fill="none" stroke="midnightblue" d="M211.566,-179.612C219.172,-169.777 227.789,-160.021 237,-152 262.198,-130.057 275.68,-135.237 303,-116 305.92,-113.944 308.855,-111.773 311.776,-109.526"/>
<polygon fill="none" stroke="midnightblue" points="208.592,-177.745 205.424,-187.856 214.205,-181.928 208.592,-177.745"/>
</g>
</g>
</svg>
