<?xml version="1.0" encoding="UTF-8" standalone="no"?>
<!DOCTYPE svg PUBLIC "-//W3C//DTD SVG 1.1//EN"
 "http://www.w3.org/Graphics/SVG/1.1/DTD/svg11.dtd">
<!-- Generated by graphviz version 2.36.0 (20140111.2315)
 -->
<!-- Title: draw::Animation Pages: 1 -->
<svg width="275pt" height="622pt"
 viewBox="0.00 0.00 275.00 622.00" xmlns="http://www.w3.org/2000/svg" xmlns:xlink="http://www.w3.org/1999/xlink">
<g id="graph0" class="graph" transform="scale(1 1) rotate(0) translate(4 618)">
<title>draw::Animation</title>
<!-- Node1 -->
<g id="node1" class="node"><title>Node1</title>
<polygon fill="#bfbfbf" stroke="black" points="87.1504,-1 87.1504,-95 174.85,-95 174.85,-1 87.1504,-1"/>
<text text-anchor="middle" x="131" y="-83" font-family="Helvetica,sans-Serif" font-size="10.00">draw::Animation</text>
<polyline fill="none" stroke="black" points="87.1504,-77 174.85,-77 "/>
<text text-anchor="middle" x="131" y="-65" font-family="Helvetica,sans-Serif" font-size="10.00"> </text>
<polyline fill="none" stroke="black" points="87.1504,-59 174.85,-59 "/>
<text text-anchor="start" x="95.1504" y="-47" font-family="Helvetica,sans-Serif" font-size="10.00">+ Animation()</text>
<text text-anchor="start" x="95.1504" y="-37" font-family="Helvetica,sans-Serif" font-size="10.00">+ Animation()</text>
<text text-anchor="start" x="95.1504" y="-27" font-family="Helvetica,sans-Serif" font-size="10.00">+ exec()</text>
<text text-anchor="start" x="95.1504" y="-17" font-family="Helvetica,sans-Serif" font-size="10.00">+ init()</text>
<text text-anchor="start" x="95.1504" y="-7" font-family="Helvetica,sans-Serif" font-size="10.00">+ reinit()</text>
</g>
<!-- Node2 -->
<g id="node2" class="node"><title>Node2</title>
<g id="a_node2"><a xlink:href="classdraw_1_1_animation_attr.html" target="_top" xlink:title="Animation Attributes Class. ">
<polygon fill="none" stroke="black" points="-0.168457,-133 -0.168457,-247 126.168,-247 126.168,-133 -0.168457,-133"/>
<text text-anchor="middle" x="63" y="-235" font-family="Helvetica,sans-Serif" font-size="10.00">draw::AnimationAttr</text>
<polyline fill="none" stroke="black" points="-0.168457,-229 126.168,-229 "/>
<text text-anchor="middle" x="63" y="-217" font-family="Helvetica,sans-Serif" font-size="10.00"> </text>
<polyline fill="none" stroke="black" points="-0.168457,-211 126.168,-211 "/>
<text text-anchor="start" x="7.83154" y="-199" font-family="Helvetica,sans-Serif" font-size="10.00">+ AnimationAttr()</text>
<text text-anchor="start" x="7.83154" y="-189" font-family="Helvetica,sans-Serif" font-size="10.00">+ assign()</text>
<text text-anchor="start" x="7.83154" y="-179" font-family="Helvetica,sans-Serif" font-size="10.00">+ attr()</text>
<text text-anchor="start" x="7.83154" y="-169" font-family="Helvetica,sans-Serif" font-size="10.00">+ data()</text>
<text text-anchor="start" x="7.83154" y="-159" font-family="Helvetica,sans-Serif" font-size="10.00">+ dim()</text>
<text text-anchor="start" x="7.83154" y="-149" font-family="Helvetica,sans-Serif" font-size="10.00">+ drawing_motion_total()</text>
<text text-anchor="start" x="7.83154" y="-139" font-family="Helvetica,sans-Serif" font-size="10.00">and 12 more...</text>
</a>
</g>
</g>
<!-- Node2&#45;&gt;Node1 -->
<g id="edge1" class="edge"><title>Node2&#45;&gt;Node1</title>
<path fill="none" stroke="midnightblue" d="M94.7099,-123.715C99.3751,-114.11 104.098,-104.387 108.525,-95.2717"/>
<polygon fill="none" stroke="midnightblue" points="91.4872,-122.339 90.2664,-132.863 97.7838,-125.397 91.4872,-122.339"/>
</g>
<!-- Node3 -->
<g id="node3" class="node"><title>Node3</title>
<g id="a_node3"><a xlink:href="classapi_1_1_draw_info_object.html" target="_top" xlink:title="Draw Information Object. ">
<polygon fill="none" stroke="black" points="14.0913,-285 14.0913,-339 117.909,-339 117.909,-285 14.0913,-285"/>
<text text-anchor="middle" x="66" y="-327" font-family="Helvetica,sans-Serif" font-size="10.00">api::DrawInfoObject</text>
<polyline fill="none" stroke="black" points="14.0913,-321 117.909,-321 "/>
<text text-anchor="middle" x="66" y="-309" font-family="Helvetica,sans-Serif" font-size="10.00"> </text>
<polyline fill="none" stroke="black" points="14.0913,-303 117.909,-303 "/>
<text text-anchor="middle" x="66" y="-291" font-family="Helvetica,sans-Serif" font-size="10.00"> </text>
</a>
</g>
</g>
<!-- Node3&#45;&gt;Node2 -->
<g id="edge2" class="edge"><title>Node3&#45;&gt;Node2</title>
<path fill="none" stroke="midnightblue" d="M65.0939,-274.754C64.8752,-266.008 64.6365,-256.458 64.401,-247.039"/>
<polygon fill="none" stroke="midnightblue" points="61.6001,-275.052 65.349,-284.962 68.5979,-274.877 61.6001,-275.052"/>
</g>
<!-- Node4 -->
<g id="node4" class="node"><title>Node4</title>
<g id="a_node4"><a xlink:href="classapi_1_1_info_object.html" target="_top" xlink:title="API Information Object. ">
<polygon fill="none" stroke="black" points="26.7588,-422 26.7588,-476 107.241,-476 107.241,-422 26.7588,-422"/>
<text text-anchor="middle" x="67" y="-464" font-family="Helvetica,sans-Serif" font-size="10.00">api::InfoObject</text>
<polyline fill="none" stroke="black" points="26.7588,-458 107.241,-458 "/>
<text text-anchor="middle" x="67" y="-446" font-family="Helvetica,sans-Serif" font-size="10.00"> </text>
<polyline fill="none" stroke="black" points="26.7588,-440 107.241,-440 "/>
<text text-anchor="middle" x="67" y="-428" font-family="Helvetica,sans-Serif" font-size="10.00"> </text>
</a>
</g>
</g>
<!-- Node4&#45;&gt;Node3 -->
<g id="edge3" class="edge"><title>Node4&#45;&gt;Node3</title>
<path fill="none" stroke="midnightblue" d="M66.7331,-411.967C66.564,-389.133 66.349,-360.111 66.1956,-339.41"/>
<polygon fill="none" stroke="midnightblue" points="63.2331,-411.997 66.8072,-421.971 70.2329,-411.945 63.2331,-411.997"/>
</g>
<!-- Node5 -->
<g id="node5" class="node"><title>Node5</title>
<g id="a_node5"><a xlink:href="classapi_1_1_api_object.html" target="_top" xlink:title="API Object Class. ">
<polygon fill="none" stroke="black" points="89.7896,-559 89.7896,-613 172.21,-613 172.21,-559 89.7896,-559"/>
<text text-anchor="middle" x="131" y="-601" font-family="Helvetica,sans-Serif" font-size="10.00">api::ApiObject</text>
<polyline fill="none" stroke="black" points="89.7896,-595 172.21,-595 "/>
<text text-anchor="middle" x="131" y="-583" font-family="Helvetica,sans-Serif" font-size="10.00"> </text>
<polyline fill="none" stroke="black" points="89.7896,-577 172.21,-577 "/>
<text text-anchor="start" x="97.7896" y="-565" font-family="Helvetica,sans-Serif" font-size="10.00">+ api_version()</text>
</a>
</g>
</g>
<!-- Node5&#45;&gt;Node4 -->
<g id="edge4" class="edge"><title>Node5&#45;&gt;Node4</title>
<path fill="none" stroke="midnightblue" d="M114.355,-549.889C103.465,-526.919 89.4665,-497.39 79.5203,-476.41"/>
<polygon fill="none" stroke="midnightblue" points="111.214,-551.434 118.66,-558.971 117.539,-548.435 111.214,-551.434"/>
</g>
<!-- Node7 -->
<g id="node7" class="node"><title>Node7</title>
<g id="a_node7"><a xlink:href="classapi_1_1_work_object.html" target="_top" xlink:title="WorkObject Class. ">
<polygon fill="none" stroke="black" points="124.914,-377 124.914,-521 267.086,-521 267.086,-377 124.914,-377"/>
<text text-anchor="middle" x="196" y="-509" font-family="Helvetica,sans-Serif" font-size="10.00">api::WorkObject</text>
<polyline fill="none" stroke="black" points="124.914,-503 267.086,-503 "/>
<text text-anchor="middle" x="196" y="-491" font-family="Helvetica,sans-Serif" font-size="10.00"> </text>
<polyline fill="none" stroke="black" points="124.914,-485 267.086,-485 "/>
<text text-anchor="start" x="132.914" y="-473" font-family="Helvetica,sans-Serif" font-size="10.00">+ WorkObject()</text>
<text text-anchor="start" x="132.914" y="-463" font-family="Helvetica,sans-Serif" font-size="10.00">+ clear_error_number()</text>
<text text-anchor="start" x="132.914" y="-453" font-family="Helvetica,sans-Serif" font-size="10.00">+ error_number()</text>
<text text-anchor="start" x="132.914" y="-443" font-family="Helvetica,sans-Serif" font-size="10.00">+ exit_fatal()</text>
<text text-anchor="start" x="132.914" y="-433" font-family="Helvetica,sans-Serif" font-size="10.00"># set_error_number()</text>
<text text-anchor="start" x="132.914" y="-423" font-family="Helvetica,sans-Serif" font-size="10.00"># set_error_number_if</text>
<text text-anchor="start" x="132.914" y="-413" font-family="Helvetica,sans-Serif" font-size="10.00">_error()</text>
<text text-anchor="start" x="132.914" y="-403" font-family="Helvetica,sans-Serif" font-size="10.00"># set_error_number_if_null()</text>
<text text-anchor="start" x="132.914" y="-393" font-family="Helvetica,sans-Serif" font-size="10.00"># set_error_number_to</text>
<text text-anchor="start" x="132.914" y="-383" font-family="Helvetica,sans-Serif" font-size="10.00">_errno()</text>
</a>
</g>
</g>
<!-- Node5&#45;&gt;Node7 -->
<g id="edge7" class="edge"><title>Node5&#45;&gt;Node7</title>
<path fill="none" stroke="midnightblue" d="M147.959,-549.777C152.226,-540.915 156.96,-531.083 161.745,-521.145"/>
<polygon fill="none" stroke="midnightblue" points="144.717,-548.442 143.533,-558.971 151.024,-551.479 144.717,-548.442"/>
</g>
<!-- Node6 -->
<g id="node6" class="node"><title>Node6</title>
<g id="a_node6"><a xlink:href="classapi_1_1_draw_work_object.html" target="_top" xlink:title="State Machine Work Object Class. ">
<polygon fill="none" stroke="black" points="143.854,-163 143.854,-217 254.146,-217 254.146,-163 143.854,-163"/>
<text text-anchor="middle" x="199" y="-205" font-family="Helvetica,sans-Serif" font-size="10.00">api::DrawWorkObject</text>
<polyline fill="none" stroke="black" points="143.854,-199 254.146,-199 "/>
<text text-anchor="middle" x="199" y="-187" font-family="Helvetica,sans-Serif" font-size="10.00"> </text>
<polyline fill="none" stroke="black" points="143.854,-181 254.146,-181 "/>
<text text-anchor="middle" x="199" y="-169" font-family="Helvetica,sans-Serif" font-size="10.00"> </text>
</a>
</g>
</g>
<!-- Node6&#45;&gt;Node1 -->
<g id="edge5" class="edge"><title>Node6&#45;&gt;Node1</title>
<path fill="none" stroke="midnightblue" d="M181.81,-153.61C173.213,-135.91 162.7,-114.265 153.472,-95.2656"/>
<polygon fill="none" stroke="midnightblue" points="178.852,-155.529 186.369,-162.995 185.148,-152.471 178.852,-155.529"/>
</g>
<!-- Node7&#45;&gt;Node6 -->
<g id="edge6" class="edge"><title>Node7&#45;&gt;Node6</title>
<path fill="none" stroke="midnightblue" d="M196.95,-366.629C197.551,-315.173 198.288,-252.012 198.694,-217.183"/>
<polygon fill="none" stroke="midnightblue" points="193.449,-366.712 196.832,-376.752 200.448,-366.794 193.449,-366.712"/>
</g>
</g>
</svg>
