<?xml version="1.0" encoding="UTF-8" standalone="no"?>
<!DOCTYPE svg PUBLIC "-//W3C//DTD SVG 1.1//EN"
 "http://www.w3.org/Graphics/SVG/1.1/DTD/svg11.dtd">
<!-- Generated by graphviz version 2.36.0 (20140111.2315)
 -->
<!-- Title: api::SysInfoObject Pages: 1 -->
<svg width="778pt" height="420pt"
 viewBox="0.00 0.00 778.00 420.00" xmlns="http://www.w3.org/2000/svg" xmlns:xlink="http://www.w3.org/1999/xlink">
<g id="graph0" class="graph" transform="scale(1 1) rotate(0) translate(4 416)">
<title>api::SysInfoObject</title>
<!-- Node1 -->
<g id="node1" class="node"><title>Node1</title>
<polygon fill="#bfbfbf" stroke="black" points="326.424,-173 326.424,-227 423.576,-227 423.576,-173 326.424,-173"/>
<text text-anchor="middle" x="375" y="-215" font-family="Helvetica,sans-Serif" font-size="10.00">api::SysInfoObject</text>
<polyline fill="none" stroke="black" points="326.424,-209 423.576,-209 "/>
<text text-anchor="middle" x="375" y="-197" font-family="Helvetica,sans-Serif" font-size="10.00"> </text>
<polyline fill="none" stroke="black" points="326.424,-191 423.576,-191 "/>
<text text-anchor="middle" x="375" y="-179" font-family="Helvetica,sans-Serif" font-size="10.00"> </text>
</g>
<!-- Node4 -->
<g id="node4" class="node"><title>Node4</title>
<g id="a_node4"><a xlink:href="classsys_1_1_appfs.html" target="_top" xlink:title="Application File System Class. ">
<polygon fill="none" stroke="black" points="-0.48877,-11 -0.48877,-125 82.4888,-125 82.4888,-11 -0.48877,-11"/>
<text text-anchor="middle" x="41" y="-113" font-family="Helvetica,sans-Serif" font-size="10.00">sys::Appfs</text>
<polyline fill="none" stroke="black" points="-0.48877,-107 82.4888,-107 "/>
<text text-anchor="middle" x="41" y="-95" font-family="Helvetica,sans-Serif" font-size="10.00"> </text>
<polyline fill="none" stroke="black" points="-0.48877,-89 82.4888,-89 "/>
<text text-anchor="start" x="7.51123" y="-77" font-family="Helvetica,sans-Serif" font-size="10.00">+ cleanup()</text>
<text text-anchor="start" x="7.51123" y="-67" font-family="Helvetica,sans-Serif" font-size="10.00">+ create()</text>
<text text-anchor="start" x="7.51123" y="-57" font-family="Helvetica,sans-Serif" font-size="10.00">+ get_id()</text>
<text text-anchor="start" x="7.51123" y="-47" font-family="Helvetica,sans-Serif" font-size="10.00">+ get_id()</text>
<text text-anchor="start" x="7.51123" y="-37" font-family="Helvetica,sans-Serif" font-size="10.00">+ get_info()</text>
<text text-anchor="start" x="7.51123" y="-27" font-family="Helvetica,sans-Serif" font-size="10.00">+ get_version()</text>
<text text-anchor="start" x="7.51123" y="-17" font-family="Helvetica,sans-Serif" font-size="10.00">+ page_size()</text>
</a>
</g>
</g>
<!-- Node1&#45;&gt;Node4 -->
<g id="edge3" class="edge"><title>Node1&#45;&gt;Node4</title>
<path fill="none" stroke="midnightblue" d="M316.198,-197.534C255.62,-193.504 160.619,-179.944 92,-136 87.199,-132.925 82.6771,-129.233 78.4608,-125.181"/>
<polygon fill="none" stroke="midnightblue" points="316.163,-201.038 326.354,-198.142 316.581,-194.051 316.163,-201.038"/>
</g>
<!-- Node5 -->
<g id="node5" class="node"><title>Node5</title>
<g id="a_node5"><a xlink:href="classsys_1_1_assets.html" target="_top" xlink:title="Assets Class. ">
<polygon fill="none" stroke="black" points="100.78,-6 100.78,-130 213.22,-130 213.22,-6 100.78,-6"/>
<text text-anchor="middle" x="157" y="-118" font-family="Helvetica,sans-Serif" font-size="10.00">sys::Assets</text>
<polyline fill="none" stroke="black" points="100.78,-112 213.22,-112 "/>
<text text-anchor="middle" x="157" y="-100" font-family="Helvetica,sans-Serif" font-size="10.00"> </text>
<polyline fill="none" stroke="black" points="100.78,-94 213.22,-94 "/>
<text text-anchor="start" x="108.78" y="-82" font-family="Helvetica,sans-Serif" font-size="10.00">+ bmap_icon_count()</text>
<text text-anchor="start" x="108.78" y="-72" font-family="Helvetica,sans-Serif" font-size="10.00">+ font()</text>
<text text-anchor="start" x="108.78" y="-62" font-family="Helvetica,sans-Serif" font-size="10.00">+ font_count()</text>
<text text-anchor="start" x="108.78" y="-52" font-family="Helvetica,sans-Serif" font-size="10.00">+ get_bmap_icon()</text>
<text text-anchor="start" x="108.78" y="-42" font-family="Helvetica,sans-Serif" font-size="10.00">+ get_font()</text>
<text text-anchor="start" x="108.78" y="-32" font-family="Helvetica,sans-Serif" font-size="10.00">+ get_vector_icon()</text>
<text text-anchor="start" x="108.78" y="-22" font-family="Helvetica,sans-Serif" font-size="10.00">+ init()</text>
<text text-anchor="start" x="108.78" y="-12" font-family="Helvetica,sans-Serif" font-size="10.00">+ vector_icon_count()</text>
</a>
</g>
</g>
<!-- Node1&#45;&gt;Node5 -->
<g id="edge4" class="edge"><title>Node1&#45;&gt;Node5</title>
<path fill="none" stroke="midnightblue" d="M316.569,-180.99C287.096,-170.405 251.627,-155.289 223,-136 219.75,-133.81 216.53,-131.442 213.361,-128.949"/>
<polygon fill="none" stroke="midnightblue" points="315.721,-184.401 326.316,-184.405 318.036,-177.795 315.721,-184.401"/>
</g>
<!-- Node6 -->
<g id="node6" class="node"><title>Node6</title>
<g id="a_node6"><a xlink:href="classsys_1_1_mq_attr.html" target="_top" xlink:title="Message Queue Attribute Class. ">
<polygon fill="none" stroke="black" points="231.54,-11 231.54,-125 306.46,-125 306.46,-11 231.54,-11"/>
<text text-anchor="middle" x="269" y="-113" font-family="Helvetica,sans-Serif" font-size="10.00">sys::MqAttr</text>
<polyline fill="none" stroke="black" points="231.54,-107 306.46,-107 "/>
<text text-anchor="middle" x="269" y="-95" font-family="Helvetica,sans-Serif" font-size="10.00"> </text>
<polyline fill="none" stroke="black" points="231.54,-89 306.46,-89 "/>
<text text-anchor="start" x="239.54" y="-77" font-family="Helvetica,sans-Serif" font-size="10.00">+ MqAttr()</text>
<text text-anchor="start" x="239.54" y="-67" font-family="Helvetica,sans-Serif" font-size="10.00">+ MqAttr()</text>
<text text-anchor="start" x="239.54" y="-57" font-family="Helvetica,sans-Serif" font-size="10.00">+ curmsgs()</text>
<text text-anchor="start" x="239.54" y="-47" font-family="Helvetica,sans-Serif" font-size="10.00">+ flags()</text>
<text text-anchor="start" x="239.54" y="-37" font-family="Helvetica,sans-Serif" font-size="10.00">+ maxmsg()</text>
<text text-anchor="start" x="239.54" y="-27" font-family="Helvetica,sans-Serif" font-size="10.00">+ msgsize()</text>
<text text-anchor="start" x="239.54" y="-17" font-family="Helvetica,sans-Serif" font-size="10.00">and 4 more...</text>
</a>
</g>
</g>
<!-- Node1&#45;&gt;Node6 -->
<g id="edge5" class="edge"><title>Node1&#45;&gt;Node6</title>
<path fill="none" stroke="midnightblue" d="M341.343,-165.644C332.465,-156.321 323.107,-145.998 315,-136 312.156,-132.493 309.305,-128.816 306.492,-125.066"/>
<polygon fill="none" stroke="midnightblue" points="338.865,-168.116 348.328,-172.882 343.902,-163.255 338.865,-168.116"/>
</g>
<!-- Node7 -->
<g id="node7" class="node"><title>Node7</title>
<g id="a_node7"><a xlink:href="classsys_1_1_mutex_attr.html" target="_top" xlink:title="Mutex Attibutes. ">
<polygon fill="none" stroke="black" points="324.336,-11 324.336,-125 425.664,-125 425.664,-11 324.336,-11"/>
<text text-anchor="middle" x="375" y="-113" font-family="Helvetica,sans-Serif" font-size="10.00">sys::MutexAttr</text>
<polyline fill="none" stroke="black" points="324.336,-107 425.664,-107 "/>
<text text-anchor="middle" x="375" y="-95" font-family="Helvetica,sans-Serif" font-size="10.00"> </text>
<polyline fill="none" stroke="black" points="324.336,-89 425.664,-89 "/>
<text text-anchor="start" x="332.336" y="-77" font-family="Helvetica,sans-Serif" font-size="10.00">+ MutexAttr()</text>
<text text-anchor="start" x="332.336" y="-67" font-family="Helvetica,sans-Serif" font-size="10.00">+ MutexAttr()</text>
<text text-anchor="start" x="332.336" y="-57" font-family="Helvetica,sans-Serif" font-size="10.00">+ MutexAttr()</text>
<text text-anchor="start" x="332.336" y="-47" font-family="Helvetica,sans-Serif" font-size="10.00">+ ~MutexAttr()</text>
<text text-anchor="start" x="332.336" y="-37" font-family="Helvetica,sans-Serif" font-size="10.00">+ get_prio_ceiling()</text>
<text text-anchor="start" x="332.336" y="-27" font-family="Helvetica,sans-Serif" font-size="10.00">+ get_protocol()</text>
<text text-anchor="start" x="332.336" y="-17" font-family="Helvetica,sans-Serif" font-size="10.00">and 6 more...</text>
</a>
</g>
</g>
<!-- Node1&#45;&gt;Node7 -->
<g id="edge6" class="edge"><title>Node1&#45;&gt;Node7</title>
<path fill="none" stroke="midnightblue" d="M375,-162.502C375,-150.88 375,-137.742 375,-125.066"/>
<polygon fill="none" stroke="midnightblue" points="371.5,-162.693 375,-172.693 378.5,-162.693 371.5,-162.693"/>
</g>
<!-- Node8 -->
<g id="node8" class="node"><title>Node8</title>
<g id="a_node8"><a xlink:href="classsys_1_1_sched.html" target="_top" xlink:title="Sched Class. ">
<polygon fill="none" stroke="black" points="443.4,-11 443.4,-125 548.6,-125 548.6,-11 443.4,-11"/>
<text text-anchor="middle" x="496" y="-113" font-family="Helvetica,sans-Serif" font-size="10.00">sys::Sched</text>
<polyline fill="none" stroke="black" points="443.4,-107 548.6,-107 "/>
<text text-anchor="middle" x="496" y="-95" font-family="Helvetica,sans-Serif" font-size="10.00"> </text>
<polyline fill="none" stroke="black" points="443.4,-89 548.6,-89 "/>
<text text-anchor="start" x="451.4" y="-77" font-family="Helvetica,sans-Serif" font-size="10.00">+ get_pid()</text>
<text text-anchor="start" x="451.4" y="-67" font-family="Helvetica,sans-Serif" font-size="10.00">+ get_priority()</text>
<text text-anchor="start" x="451.4" y="-57" font-family="Helvetica,sans-Serif" font-size="10.00">+ get_priority_max()</text>
<text text-anchor="start" x="451.4" y="-47" font-family="Helvetica,sans-Serif" font-size="10.00">+ get_priority_min()</text>
<text text-anchor="start" x="451.4" y="-37" font-family="Helvetica,sans-Serif" font-size="10.00">+ get_rr_interval()</text>
<text text-anchor="start" x="451.4" y="-27" font-family="Helvetica,sans-Serif" font-size="10.00">+ set_scheduler()</text>
<text text-anchor="start" x="451.4" y="-17" font-family="Helvetica,sans-Serif" font-size="10.00">+ yield()</text>
</a>
</g>
</g>
<!-- Node1&#45;&gt;Node8 -->
<g id="edge7" class="edge"><title>Node1&#45;&gt;Node8</title>
<path fill="none" stroke="midnightblue" d="M406.396,-165.55C415.327,-156.014 425.057,-145.606 434,-136 437.24,-132.52 440.571,-128.936 443.929,-125.319"/>
<polygon fill="none" stroke="midnightblue" points="403.718,-163.289 399.434,-172.979 408.826,-168.075 403.718,-163.289"/>
</g>
<!-- Node9 -->
<g id="node9" class="node"><title>Node9</title>
<g id="a_node9"><a xlink:href="classsys_1_1_signal_handler.html" target="_top" xlink:title="Signal Handler Class. ">
<polygon fill="none" stroke="black" points="566.313,-31 566.313,-105 665.687,-105 665.687,-31 566.313,-31"/>
<text text-anchor="middle" x="616" y="-93" font-family="Helvetica,sans-Serif" font-size="10.00">sys::SignalHandler</text>
<polyline fill="none" stroke="black" points="566.313,-87 665.687,-87 "/>
<text text-anchor="middle" x="616" y="-75" font-family="Helvetica,sans-Serif" font-size="10.00"> </text>
<polyline fill="none" stroke="black" points="566.313,-69 665.687,-69 "/>
<text text-anchor="start" x="574.313" y="-57" font-family="Helvetica,sans-Serif" font-size="10.00">+ SignalHandler()</text>
<text text-anchor="start" x="574.313" y="-47" font-family="Helvetica,sans-Serif" font-size="10.00">+ SignalHandler()</text>
<text text-anchor="start" x="574.313" y="-37" font-family="Helvetica,sans-Serif" font-size="10.00">+ sigaction()</text>
</a>
</g>
</g>
<!-- Node1&#45;&gt;Node9 -->
<g id="edge8" class="edge"><title>Node1&#45;&gt;Node9</title>
<path fill="none" stroke="midnightblue" d="M433.47,-186.926C470.997,-177.283 519.534,-161.141 557,-136 569.355,-127.709 580.741,-116.215 590.147,-105.085"/>
<polygon fill="none" stroke="midnightblue" points="432.55,-183.548 423.689,-189.358 434.238,-190.342 432.55,-183.548"/>
</g>
<!-- Node10 -->
<g id="node10" class="node"><title>Node10</title>
<g id="a_node10"><a xlink:href="classsys_1_1_task_info.html" target="_top" xlink:title="The Task Attributes Class. ">
<polygon fill="none" stroke="black" points="683.285,-1 683.285,-135 770.715,-135 770.715,-1 683.285,-1"/>
<text text-anchor="middle" x="727" y="-123" font-family="Helvetica,sans-Serif" font-size="10.00">sys::TaskInfo</text>
<polyline fill="none" stroke="black" points="683.285,-117 770.715,-117 "/>
<text text-anchor="middle" x="727" y="-105" font-family="Helvetica,sans-Serif" font-size="10.00"> </text>
<polyline fill="none" stroke="black" points="683.285,-99 770.715,-99 "/>
<text text-anchor="start" x="691.285" y="-87" font-family="Helvetica,sans-Serif" font-size="10.00">+ TaskInfo()</text>
<text text-anchor="start" x="691.285" y="-77" font-family="Helvetica,sans-Serif" font-size="10.00">+ TaskInfo()</text>
<text text-anchor="start" x="691.285" y="-67" font-family="Helvetica,sans-Serif" font-size="10.00">+ heap_size()</text>
<text text-anchor="start" x="691.285" y="-57" font-family="Helvetica,sans-Serif" font-size="10.00">+ id()</text>
<text text-anchor="start" x="691.285" y="-47" font-family="Helvetica,sans-Serif" font-size="10.00">+ is_active()</text>
<text text-anchor="start" x="691.285" y="-37" font-family="Helvetica,sans-Serif" font-size="10.00">+ is_enabled()</text>
<text text-anchor="start" x="691.285" y="-27" font-family="Helvetica,sans-Serif" font-size="10.00">and 11 more...</text>
<text text-anchor="start" x="691.285" y="-17" font-family="Helvetica,sans-Serif" font-size="10.00">+ invalid()</text>
<text text-anchor="start" x="691.285" y="-7" font-family="Helvetica,sans-Serif" font-size="10.00">+ print_header()</text>
</a>
</g>
</g>
<!-- Node1&#45;&gt;Node10 -->
<g id="edge9" class="edge"><title>Node1&#45;&gt;Node10</title>
<path fill="none" stroke="midnightblue" d="M434.029,-198.212C497.695,-194.84 599.881,-181.913 674,-136 677.152,-134.047 680.194,-131.837 683.117,-129.438"/>
<polygon fill="none" stroke="midnightblue" points="433.591,-194.728 423.765,-198.69 433.917,-201.72 433.591,-194.728"/>
</g>
<!-- Node2 -->
<g id="node2" class="node"><title>Node2</title>
<g id="a_node2"><a xlink:href="classapi_1_1_info_object.html" target="_top" xlink:title="API Information Object. ">
<polygon fill="none" stroke="black" points="334.759,-265 334.759,-319 415.241,-319 415.241,-265 334.759,-265"/>
<text text-anchor="middle" x="375" y="-307" font-family="Helvetica,sans-Serif" font-size="10.00">api::InfoObject</text>
<polyline fill="none" stroke="black" points="334.759,-301 415.241,-301 "/>
<text text-anchor="middle" x="375" y="-289" font-family="Helvetica,sans-Serif" font-size="10.00"> </text>
<polyline fill="none" stroke="black" points="334.759,-283 415.241,-283 "/>
<text text-anchor="middle" x="375" y="-271" font-family="Helvetica,sans-Serif" font-size="10.00"> </text>
</a>
</g>
</g>
<!-- Node2&#45;&gt;Node1 -->
<g id="edge1" class="edge"><title>Node2&#45;&gt;Node1</title>
<path fill="none" stroke="midnightblue" d="M375,-254.865C375,-245.644 375,-235.907 375,-227.285"/>
<polygon fill="none" stroke="midnightblue" points="371.5,-254.968 375,-264.968 378.5,-254.968 371.5,-254.968"/>
</g>
<!-- Node3 -->
<g id="node3" class="node"><title>Node3</title>
<g id="a_node3"><a xlink:href="classapi_1_1_api_object.html" target="_top" xlink:title="API Object Class. ">
<polygon fill="none" stroke="black" points="333.79,-357 333.79,-411 416.21,-411 416.21,-357 333.79,-357"/>
<text text-anchor="middle" x="375" y="-399" font-family="Helvetica,sans-Serif" font-size="10.00">api::ApiObject</text>
<polyline fill="none" stroke="black" points="333.79,-393 416.21,-393 "/>
<text text-anchor="middle" x="375" y="-381" font-family="Helvetica,sans-Serif" font-size="10.00"> </text>
<polyline fill="none" stroke="black" points="333.79,-375 416.21,-375 "/>
<text text-anchor="start" x="341.79" y="-363" font-family="Helvetica,sans-Serif" font-size="10.00">+ api_version()</text>
</a>
</g>
</g>
<!-- Node3&#45;&gt;Node2 -->
<g id="edge2" class="edge"><title>Node3&#45;&gt;Node2</title>
<path fill="none" stroke="midnightblue" d="M375,-346.865C375,-337.644 375,-327.907 375,-319.285"/>
<polygon fill="none" stroke="midnightblue" points="371.5,-346.968 375,-356.968 378.5,-346.968 371.5,-346.968"/>
</g>
</g>
</svg>
