<?xml version="1.0" encoding="UTF-8" standalone="no"?>
<!DOCTYPE svg PUBLIC "-//W3C//DTD SVG 1.1//EN"
 "http://www.w3.org/Graphics/SVG/1.1/DTD/svg11.dtd">
<!-- Generated by graphviz version 2.36.0 (20140111.2315)
 -->
<!-- Title: sm::StateMachine Pages: 1 -->
<svg width="126pt" height="602pt"
 viewBox="0.00 0.00 126.00 602.00" xmlns="http://www.w3.org/2000/svg" xmlns:xlink="http://www.w3.org/1999/xlink">
<g id="graph0" class="graph" transform="scale(1 1) rotate(0) translate(4 598)">
<title>sm::StateMachine</title>
<!-- Node1 -->
<g id="node1" class="node"><title>Node1</title>
<polygon fill="#bfbfbf" stroke="black" points="3.88086,-1 3.88086,-115 114.119,-115 114.119,-1 3.88086,-1"/>
<text text-anchor="middle" x="59" y="-103" font-family="Helvetica,sans-Serif" font-size="10.00">sm::StateMachine</text>
<polyline fill="none" stroke="black" points="3.88086,-97 114.119,-97 "/>
<text text-anchor="middle" x="59" y="-85" font-family="Helvetica,sans-Serif" font-size="10.00"> </text>
<polyline fill="none" stroke="black" points="3.88086,-79 114.119,-79 "/>
<text text-anchor="start" x="11.8809" y="-67" font-family="Helvetica,sans-Serif" font-size="10.00">+ StateMachine()</text>
<text text-anchor="start" x="11.8809" y="-57" font-family="Helvetica,sans-Serif" font-size="10.00">+ append_action()</text>
<text text-anchor="start" x="11.8809" y="-47" font-family="Helvetica,sans-Serif" font-size="10.00">+ append_condition()</text>
<text text-anchor="start" x="11.8809" y="-37" font-family="Helvetica,sans-Serif" font-size="10.00">+ append_state()</text>
<text text-anchor="start" x="11.8809" y="-27" font-family="Helvetica,sans-Serif" font-size="10.00">+ execute()</text>
<text text-anchor="start" x="11.8809" y="-17" font-family="Helvetica,sans-Serif" font-size="10.00">+ execute_action()</text>
<text text-anchor="start" x="11.8809" y="-7" font-family="Helvetica,sans-Serif" font-size="10.00">and 4 more...</text>
</g>
<!-- Node2 -->
<g id="node2" class="node"><title>Node2</title>
<g id="a_node2"><a xlink:href="classsm_1_1_object.html" target="_top" xlink:title="State Machine Object. ">
<polygon fill="none" stroke="black" points="10.8413,-153 10.8413,-237 107.159,-237 107.159,-153 10.8413,-153"/>
<text text-anchor="middle" x="59" y="-225" font-family="Helvetica,sans-Serif" font-size="10.00">sm::Object</text>
<polyline fill="none" stroke="black" points="10.8413,-219 107.159,-219 "/>
<text text-anchor="middle" x="59" y="-207" font-family="Helvetica,sans-Serif" font-size="10.00"> </text>
<polyline fill="none" stroke="black" points="10.8413,-201 107.159,-201 "/>
<text text-anchor="start" x="18.8413" y="-189" font-family="Helvetica,sans-Serif" font-size="10.00">+ Object()</text>
<text text-anchor="start" x="18.8413" y="-179" font-family="Helvetica,sans-Serif" font-size="10.00">+ name()</text>
<text text-anchor="start" x="18.8413" y="-169" font-family="Helvetica,sans-Serif" font-size="10.00">+ state_machine()</text>
<text text-anchor="start" x="18.8413" y="-159" font-family="Helvetica,sans-Serif" font-size="10.00">+ type()</text>
</a>
</g>
</g>
<!-- Node2&#45;&gt;Node1 -->
<g id="edge1" class="edge"><title>Node2&#45;&gt;Node1</title>
<path fill="none" stroke="midnightblue" d="M59,-142.557C59,-133.676 59,-124.401 59,-115.397"/>
<polygon fill="none" stroke="midnightblue" points="55.5001,-142.762 59,-152.762 62.5001,-142.762 55.5001,-142.762"/>
</g>
<!-- Node3 -->
<g id="node3" class="node"><title>Node3</title>
<g id="a_node3"><a xlink:href="classapi_1_1_sm_work_object.html" target="_top" xlink:title="State Machine Work Object Class. ">
<polygon fill="none" stroke="black" points="8.02148,-275 8.02148,-329 109.979,-329 109.979,-275 8.02148,-275"/>
<text text-anchor="middle" x="59" y="-317" font-family="Helvetica,sans-Serif" font-size="10.00">api::SmWorkObject</text>
<polyline fill="none" stroke="black" points="8.02148,-311 109.979,-311 "/>
<text text-anchor="middle" x="59" y="-299" font-family="Helvetica,sans-Serif" font-size="10.00"> </text>
<polyline fill="none" stroke="black" points="8.02148,-293 109.979,-293 "/>
<text text-anchor="middle" x="59" y="-281" font-family="Helvetica,sans-Serif" font-size="10.00"> </text>
</a>
</g>
</g>
<!-- Node3&#45;&gt;Node2 -->
<g id="edge2" class="edge"><title>Node3&#45;&gt;Node2</title>
<path fill="none" stroke="midnightblue" d="M59,-264.503C59,-255.755 59,-246.351 59,-237.399"/>
<polygon fill="none" stroke="midnightblue" points="55.5001,-264.775 59,-274.775 62.5001,-264.775 55.5001,-264.775"/>
</g>
<!-- Node4 -->
<g id="node4" class="node"><title>Node4</title>
<g id="a_node4"><a xlink:href="classapi_1_1_work_object.html" target="_top" xlink:title="WorkObject Class. ">
<polygon fill="none" stroke="black" points="-0.547852,-367 -0.547852,-501 118.548,-501 118.548,-367 -0.547852,-367"/>
<text text-anchor="middle" x="59" y="-489" font-family="Helvetica,sans-Serif" font-size="10.00">api::WorkObject</text>
<polyline fill="none" stroke="black" points="-0.547852,-483 118.548,-483 "/>
<text text-anchor="middle" x="59" y="-471" font-family="Helvetica,sans-Serif" font-size="10.00"> </text>
<polyline fill="none" stroke="black" points="-0.547852,-465 118.548,-465 "/>
<text text-anchor="start" x="7.45215" y="-453" font-family="Helvetica,sans-Serif" font-size="10.00">+ WorkObject()</text>
<text text-anchor="start" x="7.45215" y="-443" font-family="Helvetica,sans-Serif" font-size="10.00">+ clear_error_number()</text>
<text text-anchor="start" x="7.45215" y="-433" font-family="Helvetica,sans-Serif" font-size="10.00">+ error_number()</text>
<text text-anchor="start" x="7.45215" y="-423" font-family="Helvetica,sans-Serif" font-size="10.00">+ exit_fatal()</text>
<text text-anchor="start" x="7.45215" y="-413" font-family="Helvetica,sans-Serif" font-size="10.00"># set_error_number()</text>
<text text-anchor="start" x="7.45215" y="-403" font-family="Helvetica,sans-Serif" font-size="10.00"># set_error_number_if</text>
<text text-anchor="start" x="7.45215" y="-393" font-family="Helvetica,sans-Serif" font-size="10.00">_error()</text>
<text text-anchor="start" x="7.45215" y="-383" font-family="Helvetica,sans-Serif" font-size="10.00"># set_error_number_to</text>
<text text-anchor="start" x="7.45215" y="-373" font-family="Helvetica,sans-Serif" font-size="10.00">_errno()</text>
</a>
</g>
</g>
<!-- Node4&#45;&gt;Node3 -->
<g id="edge3" class="edge"><title>Node4&#45;&gt;Node3</title>
<path fill="none" stroke="midnightblue" d="M59,-356.838C59,-346.903 59,-337.326 59,-329.074"/>
<polygon fill="none" stroke="midnightblue" points="55.5001,-356.857 59,-366.857 62.5001,-356.858 55.5001,-356.857"/>
</g>
<!-- Node5 -->
<g id="node5" class="node"><title>Node5</title>
<g id="a_node5"><a xlink:href="classapi_1_1_api_object.html" target="_top" xlink:title="API Object Class. ">
<polygon fill="none" stroke="black" points="17.7896,-539 17.7896,-593 100.21,-593 100.21,-539 17.7896,-539"/>
<text text-anchor="middle" x="59" y="-581" font-family="Helvetica,sans-Serif" font-size="10.00">api::ApiObject</text>
<polyline fill="none" stroke="black" points="17.7896,-575 100.21,-575 "/>
<text text-anchor="middle" x="59" y="-563" font-family="Helvetica,sans-Serif" font-size="10.00"> </text>
<polyline fill="none" stroke="black" points="17.7896,-557 100.21,-557 "/>
<text text-anchor="start" x="25.7896" y="-545" font-family="Helvetica,sans-Serif" font-size="10.00">+ api_version()</text>
</a>
</g>
</g>
<!-- Node5&#45;&gt;Node4 -->
<g id="edge4" class="edge"><title>Node5&#45;&gt;Node4</title>
<path fill="none" stroke="midnightblue" d="M59,-528.644C59,-520.02 59,-510.555 59,-501.059"/>
<polygon fill="none" stroke="midnightblue" points="55.5001,-528.693 59,-538.693 62.5001,-528.693 55.5001,-528.693"/>
</g>
</g>
</svg>
