<?xml version="1.0" encoding="UTF-8" standalone="no"?>
<!DOCTYPE svg PUBLIC "-//W3C//DTD SVG 1.1//EN"
 "http://www.w3.org/Graphics/SVG/1.1/DTD/svg11.dtd">
<!-- Generated by graphviz version 2.36.0 (20140111.2315)
 -->
<!-- Title: var::String Pages: 1 -->
<!--zoomable 844 -->
<svg id="main" version="1.1" xmlns="http://www.w3.org/2000/svg" xmlns:xlink="http://www.w3.org/1999/xlink" xml:space="preserve" onload="init(evt)">
<style type="text/css"><![CDATA[
.edge:hover path { stroke: red; }
.edge:hover polygon { stroke: red; fill: red; }
]]></style>
<script type="text/javascript"><![CDATA[
var edges = document.getElementsByTagName('g');
if (edges && edges.length) {
  for (var i=0;i<edges.length;i++) {
    if (edges[i].id.substr(0,4)=='edge') {
      edges[i].setAttribute('class','edge');
    }
  }
}
]]></script>
        <defs>
                <circle id="rim" cx="0" cy="0" r="7"/>
                <circle id="rim2" cx="0" cy="0" r="3.5"/>
                <g id="zoomPlus">
                        <use xlink:href="#rim" fill="#404040">
                                <set attributeName="fill" to="#808080" begin="zoomplus.mouseover" end="zoomplus.mouseout"/>
                        </use>
                        <path d="M-4,0h8M0,-4v8" fill="none" stroke="white" stroke-width="1.5" pointer-events="none"/>
                </g>
                <g id="zoomMin">
                        <use xlink:href="#rim" fill="#404040">
                                <set attributeName="fill" to="#808080" begin="zoomminus.mouseover" end="zoomminus.mouseout"/>
                        </use>
                        <path d="M-4,0h8" fill="none" stroke="white" stroke-width="1.5" pointer-events="none"/>
                </g>
                <g id="dirArrow">
                        <path fill="none" stroke="white" stroke-width="1.5" d="M0,-3.0v7 M-2.5,-0.5L0,-3.0L2.5,-0.5"/>
                </g>
               <g id="resetDef">
                       <use xlink:href="#rim2" fill="#404040">
                               <set attributeName="fill" to="#808080" begin="reset.mouseover" end="reset.mouseout"/>
                       </use>
               </g>
        </defs>

<script type="text/javascript">
var viewWidth = 577;
var viewHeight = 844;
var sectionId = 'dynsection-0';
</script>
<script xlink:href="svgpan.js"/>
<svg id="graph" class="graph">
<g id="viewport">
<title>var::String</title>
<!-- Node1 -->
<g id="node1" class="node"><title>Node1</title>
<polygon fill="#bfbfbf" stroke="black" points="223.759,-173 223.759,-287 304.241,-287 304.241,-173 223.759,-173"/>
<text text-anchor="middle" x="264" y="-275" font-family="Helvetica,sans-Serif" font-size="10.00">var::String</text>
<polyline fill="none" stroke="black" points="223.759,-269 304.241,-269 "/>
<text text-anchor="middle" x="264" y="-257" font-family="Helvetica,sans-Serif" font-size="10.00"> </text>
<polyline fill="none" stroke="black" points="223.759,-251 304.241,-251 "/>
<text text-anchor="start" x="231.759" y="-239" font-family="Helvetica,sans-Serif" font-size="10.00">+ String()</text>
<text text-anchor="start" x="231.759" y="-229" font-family="Helvetica,sans-Serif" font-size="10.00">+ String()</text>
<text text-anchor="start" x="231.759" y="-219" font-family="Helvetica,sans-Serif" font-size="10.00">+ String()</text>
<text text-anchor="start" x="231.759" y="-209" font-family="Helvetica,sans-Serif" font-size="10.00">+ String()</text>
<text text-anchor="start" x="231.759" y="-199" font-family="Helvetica,sans-Serif" font-size="10.00">+ String()</text>
<text text-anchor="start" x="231.759" y="-189" font-family="Helvetica,sans-Serif" font-size="10.00">+ String()</text>
<text text-anchor="start" x="231.759" y="-179" font-family="Helvetica,sans-Serif" font-size="10.00">and 62 more...</text>
</g>
<!-- Node6 -->
<g id="node6" class="node"><title>Node6</title>
<g id="a_node6"><a xlink:href="classsys_1_1_trace.html" target="_top" xlink:title="Trace Class. ">
<polygon fill="none" stroke="black" points="-0.82373,-6 -0.82373,-130 98.8237,-130 98.8237,-6 -0.82373,-6"/>
<text text-anchor="middle" x="49" y="-118" font-family="Helvetica,sans-Serif" font-size="10.00">sys::Trace</text>
<polyline fill="none" stroke="black" points="-0.82373,-112 98.8237,-112 "/>
<text text-anchor="middle" x="49" y="-100" font-family="Helvetica,sans-Serif" font-size="10.00"> </text>
<polyline fill="none" stroke="black" points="-0.82373,-94 98.8237,-94 "/>
<text text-anchor="start" x="7.17627" y="-82" font-family="Helvetica,sans-Serif" font-size="10.00">+ Trace()</text>
<text text-anchor="start" x="7.17627" y="-72" font-family="Helvetica,sans-Serif" font-size="10.00">+ operator=()</text>
<text text-anchor="start" x="7.17627" y="-62" font-family="Helvetica,sans-Serif" font-size="10.00">+ operator=()</text>
<text text-anchor="start" x="7.17627" y="-52" font-family="Helvetica,sans-Serif" font-size="10.00">+ trace_critical()</text>
<text text-anchor="start" x="7.17627" y="-42" font-family="Helvetica,sans-Serif" font-size="10.00">+ trace_error()</text>
<text text-anchor="start" x="7.17627" y="-32" font-family="Helvetica,sans-Serif" font-size="10.00">+ trace_fatal()</text>
<text text-anchor="start" x="7.17627" y="-22" font-family="Helvetica,sans-Serif" font-size="10.00">+ trace_message()</text>
<text text-anchor="start" x="7.17627" y="-12" font-family="Helvetica,sans-Serif" font-size="10.00">+ trace_warning()</text>
</a>
</g>
</g>
<!-- Node1&#45;&gt;Node6 -->
<g id="edge5" class="edge"><title>Node1&#45;&gt;Node6</title>
<path fill="none" stroke="midnightblue" d="M214.449,-204.6C182.432,-187.632 140.781,-163.232 108,-136 105.019,-133.524 102.058,-130.893 99.1415,-128.16"/>
<polygon fill="none" stroke="midnightblue" points="213.148,-207.869 223.631,-209.403 216.392,-201.667 213.148,-207.869"/>
</g>
<!-- Node7 -->
<g id="node7" class="node"><title>Node7</title>
<g id="a_node7"><a xlink:href="classvar_1_1_name_string.html" target="_top" xlink:title="String for file files. ">
<polygon fill="none" stroke="black" points="116.877,-41 116.877,-95 205.123,-95 205.123,-41 116.877,-41"/>
<text text-anchor="middle" x="161" y="-83" font-family="Helvetica,sans-Serif" font-size="10.00">var::NameString</text>
<polyline fill="none" stroke="black" points="116.877,-77 205.123,-77 "/>
<text text-anchor="middle" x="161" y="-65" font-family="Helvetica,sans-Serif" font-size="10.00"> </text>
<polyline fill="none" stroke="black" points="116.877,-59 205.123,-59 "/>
<text text-anchor="start" x="124.877" y="-47" font-family="Helvetica,sans-Serif" font-size="10.00">+ NameString()</text>
</a>
</g>
</g>
<!-- Node1&#45;&gt;Node7 -->
<g id="edge6" class="edge"><title>Node1&#45;&gt;Node7</title>
<path fill="none" stroke="midnightblue" d="M222.265,-164.168C206.765,-140.092 190.041,-114.112 177.989,-95.3899"/>
<polygon fill="none" stroke="midnightblue" points="219.33,-166.076 227.686,-172.59 225.216,-162.287 219.33,-166.076"/>
</g>
<!-- Node8 -->
<g id="node8" class="node"><title>Node8</title>
<g id="a_node8"><a xlink:href="classvar_1_1_path_string.html" target="_top" xlink:title="String for file paths. ">
<polygon fill="none" stroke="black" points="222.929,-26 222.929,-110 305.071,-110 305.071,-26 222.929,-26"/>
<text text-anchor="middle" x="264" y="-98" font-family="Helvetica,sans-Serif" font-size="10.00">var::PathString</text>
<polyline fill="none" stroke="black" points="222.929,-92 305.071,-92 "/>
<text text-anchor="middle" x="264" y="-80" font-family="Helvetica,sans-Serif" font-size="10.00"> </text>
<polyline fill="none" stroke="black" points="222.929,-74 305.071,-74 "/>
<text text-anchor="start" x="230.929" y="-62" font-family="Helvetica,sans-Serif" font-size="10.00">+ PathString()</text>
<text text-anchor="start" x="230.929" y="-52" font-family="Helvetica,sans-Serif" font-size="10.00">+ file_name()</text>
<text text-anchor="start" x="230.929" y="-42" font-family="Helvetica,sans-Serif" font-size="10.00">+ filename()</text>
<text text-anchor="start" x="230.929" y="-32" font-family="Helvetica,sans-Serif" font-size="10.00">+ strip_suffix()</text>
</a>
</g>
</g>
<!-- Node1&#45;&gt;Node8 -->
<g id="edge7" class="edge"><title>Node1&#45;&gt;Node8</title>
<path fill="none" stroke="midnightblue" d="M264,-162.337C264,-144.703 264,-126.179 264,-110.324"/>
<polygon fill="none" stroke="midnightblue" points="260.5,-162.59 264,-172.59 267.5,-162.59 260.5,-162.59"/>
</g>
<!-- Node9 -->
<g id="node9" class="node"><title>Node9</title>
<g id="a_node9"><a xlink:href="classvar_1_1_static_string.html" target="_top" xlink:title="String using static memory allocation. ">
<polygon fill="none" stroke="black" points="322.79,-26 322.79,-110 415.21,-110 415.21,-26 322.79,-26"/>
<text text-anchor="start" x="330.79" y="-98" font-family="Helvetica,sans-Serif" font-size="10.00">var::StaticString&lt;</text>
<text text-anchor="middle" x="369" y="-88" font-family="Helvetica,sans-Serif" font-size="10.00"> arraysize &gt;</text>
<polyline fill="none" stroke="black" points="322.79,-82 415.21,-82 "/>
<text text-anchor="middle" x="369" y="-70" font-family="Helvetica,sans-Serif" font-size="10.00"> </text>
<polyline fill="none" stroke="black" points="322.79,-64 415.21,-64 "/>
<text text-anchor="start" x="330.79" y="-52" font-family="Helvetica,sans-Serif" font-size="10.00">+ StaticString()</text>
<text text-anchor="start" x="330.79" y="-42" font-family="Helvetica,sans-Serif" font-size="10.00">+ StaticString()</text>
<text text-anchor="start" x="330.79" y="-32" font-family="Helvetica,sans-Serif" font-size="10.00">+ StaticString()</text>
</a>
</g>
</g>
<!-- Node1&#45;&gt;Node9 -->
<g id="edge8" class="edge"><title>Node1&#45;&gt;Node9</title>
<path fill="none" stroke="midnightblue" d="M306.776,-163.818C318.637,-145.744 331.184,-126.624 341.881,-110.324"/>
<polygon fill="none" stroke="midnightblue" points="303.58,-162.309 301.019,-172.59 309.432,-166.15 303.58,-162.309"/>
</g>
<!-- Node10 -->
<g id="node10" class="node"><title>Node10</title>
<g id="a_node10"><a xlink:href="classvar_1_1_token.html" target="_top" xlink:title="Tokenize a String. ">
<polygon fill="none" stroke="black" points="432.829,-1 432.829,-135 569.171,-135 569.171,-1 432.829,-1"/>
<text text-anchor="middle" x="501" y="-123" font-family="Helvetica,sans-Serif" font-size="10.00">var::Token</text>
<polyline fill="none" stroke="black" points="432.829,-117 569.171,-117 "/>
<text text-anchor="middle" x="501" y="-105" font-family="Helvetica,sans-Serif" font-size="10.00"> </text>
<polyline fill="none" stroke="black" points="432.829,-99 569.171,-99 "/>
<text text-anchor="start" x="440.829" y="-87" font-family="Helvetica,sans-Serif" font-size="10.00">+ Token()</text>
<text text-anchor="start" x="440.829" y="-77" font-family="Helvetica,sans-Serif" font-size="10.00">+ Token()</text>
<text text-anchor="start" x="440.829" y="-67" font-family="Helvetica,sans-Serif" font-size="10.00">+ Token()</text>
<text text-anchor="start" x="440.829" y="-57" font-family="Helvetica,sans-Serif" font-size="10.00">+ at()</text>
<text text-anchor="start" x="440.829" y="-47" font-family="Helvetica,sans-Serif" font-size="10.00">+ count()</text>
<text text-anchor="start" x="440.829" y="-37" font-family="Helvetica,sans-Serif" font-size="10.00">+ is_count_empty_tokens()</text>
<text text-anchor="start" x="440.829" y="-27" font-family="Helvetica,sans-Serif" font-size="10.00">and 5 more...</text>
<text text-anchor="start" x="440.829" y="-17" font-family="Helvetica,sans-Serif" font-size="10.00">+ belongs_to()</text>
<text text-anchor="start" x="440.829" y="-7" font-family="Helvetica,sans-Serif" font-size="10.00">+ belongs_to()</text>
</a>
</g>
</g>
<!-- Node1&#45;&gt;Node10 -->
<g id="edge9" class="edge"><title>Node1&#45;&gt;Node10</title>
<path fill="none" stroke="midnightblue" d="M313.276,-203.519C345.699,-185.997 388.538,-161.386 424,-136 426.882,-133.937 429.783,-131.788 432.684,-129.577"/>
<polygon fill="none" stroke="midnightblue" points="311.581,-200.456 304.422,-208.267 314.889,-206.625 311.581,-200.456"/>
</g>
<!-- Node2 -->
<g id="node2" class="node"><title>Node2</title>
<g id="a_node2"><a xlink:href="classvar_1_1_data.html" target="_top" xlink:title="Data storage class. ">
<polygon fill="none" stroke="black" points="216.41,-325 216.41,-469 311.59,-469 311.59,-325 216.41,-325"/>
<text text-anchor="middle" x="264" y="-457" font-family="Helvetica,sans-Serif" font-size="10.00">var::Data</text>
<polyline fill="none" stroke="black" points="216.41,-451 311.59,-451 "/>
<text text-anchor="middle" x="264" y="-439" font-family="Helvetica,sans-Serif" font-size="10.00"> </text>
<polyline fill="none" stroke="black" points="216.41,-433 311.59,-433 "/>
<text text-anchor="start" x="224.41" y="-421" font-family="Helvetica,sans-Serif" font-size="10.00">+ Data()</text>
<text text-anchor="start" x="224.41" y="-411" font-family="Helvetica,sans-Serif" font-size="10.00">+ Data()</text>
<text text-anchor="start" x="224.41" y="-401" font-family="Helvetica,sans-Serif" font-size="10.00">+ Data()</text>
<text text-anchor="start" x="224.41" y="-391" font-family="Helvetica,sans-Serif" font-size="10.00">+ Data()</text>
<text text-anchor="start" x="224.41" y="-381" font-family="Helvetica,sans-Serif" font-size="10.00">+ ~Data()</text>
<text text-anchor="start" x="224.41" y="-371" font-family="Helvetica,sans-Serif" font-size="10.00">+ alloc()</text>
<text text-anchor="start" x="224.41" y="-361" font-family="Helvetica,sans-Serif" font-size="10.00">and 22 more...</text>
<text text-anchor="start" x="224.41" y="-351" font-family="Helvetica,sans-Serif" font-size="10.00">+ block_size()</text>
<text text-anchor="start" x="224.41" y="-341" font-family="Helvetica,sans-Serif" font-size="10.00">+ minimum_size()</text>
<text text-anchor="start" x="224.41" y="-331" font-family="Helvetica,sans-Serif" font-size="10.00"># copy()</text>
</a>
</g>
</g>
<!-- Node2&#45;&gt;Node1 -->
<g id="edge1" class="edge"><title>Node2&#45;&gt;Node1</title>
<path fill="none" stroke="midnightblue" d="M264,-314.543C264,-305.258 264,-295.956 264,-287.106"/>
<polygon fill="none" stroke="midnightblue" points="260.5,-314.588 264,-324.588 267.5,-314.588 260.5,-314.588"/>
</g>
<!-- Node3 -->
<g id="node3" class="node"><title>Node3</title>
<g id="a_node3"><a xlink:href="classapi_1_1_var_work_object.html" target="_top" xlink:title="Var Work Object. ">
<polygon fill="none" stroke="black" points="213.109,-507 213.109,-561 314.891,-561 314.891,-507 213.109,-507"/>
<text text-anchor="middle" x="264" y="-549" font-family="Helvetica,sans-Serif" font-size="10.00">api::VarWorkObject</text>
<polyline fill="none" stroke="black" points="213.109,-543 314.891,-543 "/>
<text text-anchor="middle" x="264" y="-531" font-family="Helvetica,sans-Serif" font-size="10.00"> </text>
<polyline fill="none" stroke="black" points="213.109,-525 314.891,-525 "/>
<text text-anchor="middle" x="264" y="-513" font-family="Helvetica,sans-Serif" font-size="10.00"> </text>
</a>
</g>
</g>
<!-- Node3&#45;&gt;Node2 -->
<g id="edge2" class="edge"><title>Node3&#45;&gt;Node2</title>
<path fill="none" stroke="midnightblue" d="M264,-496.925C264,-488.287 264,-478.765 264,-469.145"/>
<polygon fill="none" stroke="midnightblue" points="260.5,-496.971 264,-506.971 267.5,-496.971 260.5,-496.971"/>
</g>
<!-- Node4 -->
<g id="node4" class="node"><title>Node4</title>
<g id="a_node4"><a xlink:href="classapi_1_1_work_object.html" target="_top" xlink:title="Work Object. ">
<polygon fill="none" stroke="black" points="192.914,-599 192.914,-743 335.086,-743 335.086,-599 192.914,-599"/>
<text text-anchor="middle" x="264" y="-731" font-family="Helvetica,sans-Serif" font-size="10.00">api::WorkObject</text>
<polyline fill="none" stroke="black" points="192.914,-725 335.086,-725 "/>
<text text-anchor="middle" x="264" y="-713" font-family="Helvetica,sans-Serif" font-size="10.00"> </text>
<polyline fill="none" stroke="black" points="192.914,-707 335.086,-707 "/>
<text text-anchor="start" x="200.914" y="-695" font-family="Helvetica,sans-Serif" font-size="10.00">+ WorkObject()</text>
<text text-anchor="start" x="200.914" y="-685" font-family="Helvetica,sans-Serif" font-size="10.00">+ clear_error_number()</text>
<text text-anchor="start" x="200.914" y="-675" font-family="Helvetica,sans-Serif" font-size="10.00">+ error_number()</text>
<text text-anchor="start" x="200.914" y="-665" font-family="Helvetica,sans-Serif" font-size="10.00">+ exit_fatal()</text>
<text text-anchor="start" x="200.914" y="-655" font-family="Helvetica,sans-Serif" font-size="10.00"># set_error_number()</text>
<text text-anchor="start" x="200.914" y="-645" font-family="Helvetica,sans-Serif" font-size="10.00"># set_error_number_if</text>
<text text-anchor="start" x="200.914" y="-635" font-family="Helvetica,sans-Serif" font-size="10.00">_error()</text>
<text text-anchor="start" x="200.914" y="-625" font-family="Helvetica,sans-Serif" font-size="10.00"># set_error_number_if_null()</text>
<text text-anchor="start" x="200.914" y="-615" font-family="Helvetica,sans-Serif" font-size="10.00"># set_error_number_to</text>
<text text-anchor="start" x="200.914" y="-605" font-family="Helvetica,sans-Serif" font-size="10.00">_errno()</text>
</a>
</g>
</g>
<!-- Node4&#45;&gt;Node3 -->
<g id="edge3" class="edge"><title>Node4&#45;&gt;Node3</title>
<path fill="none" stroke="midnightblue" d="M264,-588.911C264,-578.983 264,-569.464 264,-561.262"/>
<polygon fill="none" stroke="midnightblue" points="260.5,-588.942 264,-598.942 267.5,-588.942 260.5,-588.942"/>
</g>
<!-- Node5 -->
<g id="node5" class="node"><title>Node5</title>
<g id="a_node5"><a xlink:href="classapi_1_1_api_object.html" target="_top" xlink:title="Application Programming Interface Object. ">
<polygon fill="none" stroke="black" points="222.79,-781 222.79,-835 305.21,-835 305.21,-781 222.79,-781"/>
<text text-anchor="middle" x="264" y="-823" font-family="Helvetica,sans-Serif" font-size="10.00">api::ApiObject</text>
<polyline fill="none" stroke="black" points="222.79,-817 305.21,-817 "/>
<text text-anchor="middle" x="264" y="-805" font-family="Helvetica,sans-Serif" font-size="10.00"> </text>
<polyline fill="none" stroke="black" points="222.79,-799 305.21,-799 "/>
<text text-anchor="start" x="230.79" y="-787" font-family="Helvetica,sans-Serif" font-size="10.00">+ api_version()</text>
</a>
</g>
</g>
<!-- Node5&#45;&gt;Node4 -->
<g id="edge4" class="edge"><title>Node5&#45;&gt;Node4</title>
<path fill="none" stroke="midnightblue" d="M264,-770.925C264,-762.287 264,-752.765 264,-743.145"/>
<polygon fill="none" stroke="midnightblue" points="260.5,-770.971 264,-780.971 267.5,-770.971 260.5,-770.971"/>
</g>
</g>
</svg>
        <g id="navigator" transform="translate(0 0)" fill="#404254">
                <rect fill="#f2f5e9" fill-opacity="0.5" stroke="#606060" stroke-width=".5" x="0" y="0" width="60" height="60"/>
                <use id="zoomplus" xlink:href="#zoomPlus" x="17" y="9" onmousedown="handleZoom(evt,'in')"/>
                <use id="zoomminus" xlink:href="#zoomMin" x="42" y="9" onmousedown="handleZoom(evt,'out')"/>
                <use id="reset" xlink:href="#resetDef" x="30" y="36" onmousedown="handleReset()"/>
                <g id="arrowUp" xlink:href="#dirArrow" transform="translate(30 24)" onmousedown="handlePan(0,-1)">
                  <use xlink:href="#rim" fill="#404040">
                        <set attributeName="fill" to="#808080" begin="arrowUp.mouseover" end="arrowUp.mouseout"/>
                  </use>
                  <path fill="none" stroke="white" stroke-width="1.5" d="M0,-3.0v7 M-2.5,-0.5L0,-3.0L2.5,-0.5"/>
                </g>
                <g id="arrowRight" xlink:href="#dirArrow" transform="rotate(90) translate(36 -43)" onmousedown="handlePan(1,0)">
                  <use xlink:href="#rim" fill="#404040">
                        <set attributeName="fill" to="#808080" begin="arrowRight.mouseover" end="arrowRight.mouseout"/>
                  </use>
                  <path fill="none" stroke="white" stroke-width="1.5" d="M0,-3.0v7 M-2.5,-0.5L0,-3.0L2.5,-0.5"/>
                </g>
                <g id="arrowDown" xlink:href="#dirArrow" transform="rotate(180) translate(-30 -48)" onmousedown="handlePan(0,1)">
                  <use xlink:href="#rim" fill="#404040">
                        <set attributeName="fill" to="#808080" begin="arrowDown.mouseover" end="arrowDown.mouseout"/>
                  </use>
                  <path fill="none" stroke="white" stroke-width="1.5" d="M0,-3.0v7 M-2.5,-0.5L0,-3.0L2.5,-0.5"/>
                </g>
                <g id="arrowLeft" xlink:href="#dirArrow" transform="rotate(270) translate(-36 17)" onmousedown="handlePan(-1,0)">
                  <use xlink:href="#rim" fill="#404040">
                        <set attributeName="fill" to="#808080" begin="arrowLeft.mouseover" end="arrowLeft.mouseout"/>
                  </use>
                  <path fill="none" stroke="white" stroke-width="1.5" d="M0,-3.0v7 M-2.5,-0.5L0,-3.0L2.5,-0.5"/>
                </g>
        </g>
        <svg viewBox="0 0 15 15" width="100%" height="30px" preserveAspectRatio="xMaxYMin meet">
         <g id="arrow_out" transform="scale(0.3 0.3)">
          <a xlink:href="classvar_1_1_string__inherit__graph_org.svg" target="_base">
           <rect id="button" ry="5" rx="5" y="6" x="6" height="38" width="38"
                fill="#f2f5e9" fill-opacity="0.5" stroke="#606060" stroke-width="1.0"/>
           <path id="arrow"
             d="M 11.500037,31.436501 C 11.940474,20.09759 22.043105,11.32322 32.158766,21.979434 L 37.068811,17.246167 C 37.068811,17.246167 37.088388,32 37.088388,32 L 22.160133,31.978069 C 22.160133,31.978069 26.997745,27.140456 26.997745,27.140456 C 18.528582,18.264221 13.291696,25.230495 11.500037,31.436501 z"
             style="fill:#404040;"/>
          </a>
         </g>
        </svg>
</svg>
