<?xml version="1.0" encoding="UTF-8" standalone="no"?>
<!DOCTYPE svg PUBLIC "-//W3C//DTD SVG 1.1//EN"
 "http://www.w3.org/Graphics/SVG/1.1/DTD/svg11.dtd">
<!-- Generated by graphviz version 2.36.0 (20140111.2315)
 -->
<!-- Title: hal::PwmPinAssignment Pages: 1 -->
<svg width="232pt" height="722pt"
 viewBox="0.00 0.00 232.07 722.00" xmlns="http://www.w3.org/2000/svg" xmlns:xlink="http://www.w3.org/1999/xlink">
<g id="graph0" class="graph" transform="scale(1 1) rotate(0) translate(4 718)">
<title>hal::PwmPinAssignment</title>
<!-- Node1 -->
<g id="node1" class="node"><title>Node1</title>
<polygon fill="#bfbfbf" stroke="black" points="7.08887,-1 7.08887,-55 130.911,-55 130.911,-1 7.08887,-1"/>
<text text-anchor="middle" x="69" y="-43" font-family="Helvetica,sans-Serif" font-size="10.00">hal::PwmPinAssignment</text>
<polyline fill="none" stroke="black" points="7.08887,-37 130.911,-37 "/>
<text text-anchor="middle" x="69" y="-25" font-family="Helvetica,sans-Serif" font-size="10.00"> </text>
<polyline fill="none" stroke="black" points="7.08887,-19 130.911,-19 "/>
<text text-anchor="middle" x="69" y="-7" font-family="Helvetica,sans-Serif" font-size="10.00"> </text>
</g>
<!-- Node2 -->
<g id="node2" class="node"><title>Node2</title>
<g id="a_node2"><a xlink:href="classhal_1_1_pin_assignment.html" target="_top" xlink:title="{hal::PinAssignment\l\&lt; pwm_pin_assignment_t \&gt;\n||+ PinAssignment()\l+ assign()\l+ clear()\l+ copy()\l+ count()\l+ operator const pwm\l_pin_assignment_t *()\l+ operator&#45;\&gt;()\l+ size()\l}">
<polygon fill="none" stroke="black" points="-0.147461,-95 -0.147461,-239 138.147,-239 138.147,-95 -0.147461,-95"/>
<text text-anchor="start" x="7.85254" y="-227" font-family="Helvetica,sans-Serif" font-size="10.00">hal::PinAssignment</text>
<text text-anchor="middle" x="69" y="-217" font-family="Helvetica,sans-Serif" font-size="10.00">&lt; pwm_pin_assignment_t &gt;</text>
<polyline fill="none" stroke="black" points="-0.147461,-211 138.147,-211 "/>
<text text-anchor="middle" x="69" y="-199" font-family="Helvetica,sans-Serif" font-size="10.00"> </text>
<polyline fill="none" stroke="black" points="-0.147461,-193 138.147,-193 "/>
<text text-anchor="start" x="7.85254" y="-181" font-family="Helvetica,sans-Serif" font-size="10.00">+ PinAssignment()</text>
<text text-anchor="start" x="7.85254" y="-171" font-family="Helvetica,sans-Serif" font-size="10.00">+ assign()</text>
<text text-anchor="start" x="7.85254" y="-161" font-family="Helvetica,sans-Serif" font-size="10.00">+ clear()</text>
<text text-anchor="start" x="7.85254" y="-151" font-family="Helvetica,sans-Serif" font-size="10.00">+ copy()</text>
<text text-anchor="start" x="7.85254" y="-141" font-family="Helvetica,sans-Serif" font-size="10.00">+ count()</text>
<text text-anchor="start" x="7.85254" y="-131" font-family="Helvetica,sans-Serif" font-size="10.00">+ operator const pwm</text>
<text text-anchor="start" x="7.85254" y="-121" font-family="Helvetica,sans-Serif" font-size="10.00">_pin_assignment_t *()</text>
<text text-anchor="start" x="7.85254" y="-111" font-family="Helvetica,sans-Serif" font-size="10.00">+ operator&#45;&gt;()</text>
<text text-anchor="start" x="7.85254" y="-101" font-family="Helvetica,sans-Serif" font-size="10.00">+ size()</text>
</a>
</g>
</g>
<!-- Node2&#45;&gt;Node1 -->
<g id="edge1" class="edge"><title>Node2&#45;&gt;Node1</title>
<path fill="none" stroke="midnightblue" d="M69,-84.4559C69,-73.882 69,-63.7388 69,-55.0848"/>
<polygon fill="none" stroke="midnightblue" points="65.5001,-84.6911 69,-94.6911 72.5001,-84.6912 65.5001,-84.6911"/>
</g>
<!-- Node3 -->
<g id="node3" class="node"><title>Node3</title>
<g id="a_node3"><a xlink:href="classapi_1_1_hal_info_object.html" target="_top" xlink:title="Hal Info Object. ">
<polygon fill="none" stroke="black" points="2.25635,-471 2.25635,-525 97.7437,-525 97.7437,-471 2.25635,-471"/>
<text text-anchor="middle" x="50" y="-513" font-family="Helvetica,sans-Serif" font-size="10.00">api::HalInfoObject</text>
<polyline fill="none" stroke="black" points="2.25635,-507 97.7437,-507 "/>
<text text-anchor="middle" x="50" y="-495" font-family="Helvetica,sans-Serif" font-size="10.00"> </text>
<polyline fill="none" stroke="black" points="2.25635,-489 97.7437,-489 "/>
<text text-anchor="middle" x="50" y="-477" font-family="Helvetica,sans-Serif" font-size="10.00"> </text>
</a>
</g>
</g>
<!-- Node3&#45;&gt;Node2 -->
<g id="edge2" class="edge"><title>Node3&#45;&gt;Node2</title>
<path fill="none" stroke="midnightblue" d="M50.4486,-460.958C51.1449,-418.921 52.8673,-347.356 57,-286 58.0241,-270.797 59.4588,-254.523 60.9811,-239.068"/>
<polygon fill="none" stroke="midnightblue" points="46.9486,-460.931 50.2928,-470.985 53.9478,-461.04 46.9486,-460.931"/>
</g>
<!-- Node6 -->
<g id="node6" class="node"><title>Node6</title>
<g id="a_node6"><a xlink:href="classhal_1_1_pin_assignment.html" target="_top" xlink:title="Pin Assignment Class. ">
<polygon fill="none" stroke="black" points="66.1284,-287 66.1284,-431 193.872,-431 193.872,-287 66.1284,-287"/>
<text text-anchor="start" x="74.1284" y="-419" font-family="Helvetica,sans-Serif" font-size="10.00">hal::PinAssignment</text>
<text text-anchor="middle" x="130" y="-409" font-family="Helvetica,sans-Serif" font-size="10.00">&lt; pin_assignment_type &gt;</text>
<polyline fill="none" stroke="black" points="66.1284,-403 193.872,-403 "/>
<text text-anchor="middle" x="130" y="-391" font-family="Helvetica,sans-Serif" font-size="10.00"> </text>
<polyline fill="none" stroke="black" points="66.1284,-385 193.872,-385 "/>
<text text-anchor="start" x="74.1284" y="-373" font-family="Helvetica,sans-Serif" font-size="10.00">+ PinAssignment()</text>
<text text-anchor="start" x="74.1284" y="-363" font-family="Helvetica,sans-Serif" font-size="10.00">+ assign()</text>
<text text-anchor="start" x="74.1284" y="-353" font-family="Helvetica,sans-Serif" font-size="10.00">+ clear()</text>
<text text-anchor="start" x="74.1284" y="-343" font-family="Helvetica,sans-Serif" font-size="10.00">+ copy()</text>
<text text-anchor="start" x="74.1284" y="-333" font-family="Helvetica,sans-Serif" font-size="10.00">+ count()</text>
<text text-anchor="start" x="74.1284" y="-323" font-family="Helvetica,sans-Serif" font-size="10.00">+ operator const pin</text>
<text text-anchor="start" x="74.1284" y="-313" font-family="Helvetica,sans-Serif" font-size="10.00">_assignment_type *()</text>
<text text-anchor="start" x="74.1284" y="-303" font-family="Helvetica,sans-Serif" font-size="10.00">+ operator&#45;&gt;()</text>
<text text-anchor="start" x="74.1284" y="-293" font-family="Helvetica,sans-Serif" font-size="10.00">+ size()</text>
</a>
</g>
</g>
<!-- Node3&#45;&gt;Node6 -->
<g id="edge6" class="edge"><title>Node3&#45;&gt;Node6</title>
<path fill="none" stroke="midnightblue" d="M70.3597,-462.134C75.9425,-452.573 82.2042,-441.85 88.5153,-431.043"/>
<polygon fill="none" stroke="midnightblue" points="67.2559,-460.508 65.2357,-470.909 73.3008,-464.038 67.2559,-460.508"/>
</g>
<!-- Node4 -->
<g id="node4" class="node"><title>Node4</title>
<g id="a_node4"><a xlink:href="classapi_1_1_info_object.html" target="_top" xlink:title="API Information Object. ">
<polygon fill="none" stroke="black" points="9.75879,-565 9.75879,-619 90.2412,-619 90.2412,-565 9.75879,-565"/>
<text text-anchor="middle" x="50" y="-607" font-family="Helvetica,sans-Serif" font-size="10.00">api::InfoObject</text>
<polyline fill="none" stroke="black" points="9.75879,-601 90.2412,-601 "/>
<text text-anchor="middle" x="50" y="-589" font-family="Helvetica,sans-Serif" font-size="10.00"> </text>
<polyline fill="none" stroke="black" points="9.75879,-583 90.2412,-583 "/>
<text text-anchor="middle" x="50" y="-571" font-family="Helvetica,sans-Serif" font-size="10.00"> </text>
</a>
</g>
</g>
<!-- Node4&#45;&gt;Node3 -->
<g id="edge3" class="edge"><title>Node4&#45;&gt;Node3</title>
<path fill="none" stroke="midnightblue" d="M50,-554.872C50,-544.964 50,-534.415 50,-525.183"/>
<polygon fill="none" stroke="midnightblue" points="46.5001,-554.883 50,-564.883 53.5001,-554.883 46.5001,-554.883"/>
</g>
<!-- Node5 -->
<g id="node5" class="node"><title>Node5</title>
<g id="a_node5"><a xlink:href="classapi_1_1_api_object.html" target="_top" xlink:title="API Object Class. ">
<polygon fill="none" stroke="black" points="8.78955,-659 8.78955,-713 91.2104,-713 91.2104,-659 8.78955,-659"/>
<text text-anchor="middle" x="50" y="-701" font-family="Helvetica,sans-Serif" font-size="10.00">api::ApiObject</text>
<polyline fill="none" stroke="black" points="8.78955,-695 91.2104,-695 "/>
<text text-anchor="middle" x="50" y="-683" font-family="Helvetica,sans-Serif" font-size="10.00"> </text>
<polyline fill="none" stroke="black" points="8.78955,-677 91.2104,-677 "/>
<text text-anchor="start" x="16.7896" y="-665" font-family="Helvetica,sans-Serif" font-size="10.00">+ api_version()</text>
</a>
</g>
</g>
<!-- Node5&#45;&gt;Node4 -->
<g id="edge4" class="edge"><title>Node5&#45;&gt;Node4</title>
<path fill="none" stroke="midnightblue" d="M50,-648.872C50,-638.964 50,-628.415 50,-619.183"/>
<polygon fill="none" stroke="midnightblue" points="46.5001,-648.883 50,-658.883 53.5001,-648.883 46.5001,-648.883"/>
</g>
<!-- Node6&#45;&gt;Node2 -->
<g id="edge5" class="edge"><title>Node6&#45;&gt;Node2</title>
<path fill="none" stroke="orange" d="M104.115,-277.376C100.048,-264.706 95.8681,-251.688 91.8748,-239.249"/>
<polygon fill="orange" stroke="orange" points="100.81,-278.529 107.199,-286.981 107.475,-276.39 100.81,-278.529"/>
<text text-anchor="middle" x="161.537" y="-260" font-family="Helvetica,sans-Serif" font-size="10.00"> &lt; pwm_pin_assignment_t &gt;</text>
</g>
</g>
</svg>
