<?xml version="1.0" encoding="UTF-8" standalone="no"?>
<!DOCTYPE svg PUBLIC "-//W3C//DTD SVG 1.1//EN"
 "http://www.w3.org/Graphics/SVG/1.1/DTD/svg11.dtd">
<!-- Generated by graphviz version 2.36.0 (20140111.2315)
 -->
<!-- Title: draw::TextAttr Pages: 1 -->
<svg width="216pt" height="572pt"
 viewBox="0.00 0.00 216.00 572.00" xmlns="http://www.w3.org/2000/svg" xmlns:xlink="http://www.w3.org/1999/xlink">
<g id="graph0" class="graph" transform="scale(1 1) rotate(0) translate(4 568)">
<title>draw::TextAttr</title>
<!-- Node1 -->
<g id="node1" class="node"><title>Node1</title>
<polygon fill="#bfbfbf" stroke="black" points="61.2612,-163 61.2612,-287 146.739,-287 146.739,-163 61.2612,-163"/>
<text text-anchor="middle" x="104" y="-275" font-family="Helvetica,sans-Serif" font-size="10.00">draw::TextAttr</text>
<polyline fill="none" stroke="black" points="61.2612,-269 146.739,-269 "/>
<text text-anchor="middle" x="104" y="-257" font-family="Helvetica,sans-Serif" font-size="10.00"> </text>
<polyline fill="none" stroke="black" points="61.2612,-251 146.739,-251 "/>
<text text-anchor="start" x="69.2612" y="-239" font-family="Helvetica,sans-Serif" font-size="10.00">+ TextAttr()</text>
<text text-anchor="start" x="69.2612" y="-229" font-family="Helvetica,sans-Serif" font-size="10.00">+ assign()</text>
<text text-anchor="start" x="69.2612" y="-219" font-family="Helvetica,sans-Serif" font-size="10.00">+ font()</text>
<text text-anchor="start" x="69.2612" y="-209" font-family="Helvetica,sans-Serif" font-size="10.00">+ font_bold()</text>
<text text-anchor="start" x="69.2612" y="-199" font-family="Helvetica,sans-Serif" font-size="10.00">+ font_size()</text>
<text text-anchor="start" x="69.2612" y="-189" font-family="Helvetica,sans-Serif" font-size="10.00">+ set_font()</text>
<text text-anchor="start" x="69.2612" y="-179" font-family="Helvetica,sans-Serif" font-size="10.00">and 4 more...</text>
<text text-anchor="start" x="69.2612" y="-169" font-family="Helvetica,sans-Serif" font-size="10.00"># resolve_font()</text>
</g>
<!-- Node5 -->
<g id="node5" class="node"><title>Node5</title>
<g id="a_node5"><a xlink:href="classdraw_1_1_text.html" target="_top" xlink:title="Text Class. ">
<polygon fill="none" stroke="black" points="-0.880371,-31 -0.880371,-95 94.8804,-95 94.8804,-31 -0.880371,-31"/>
<text text-anchor="middle" x="47" y="-83" font-family="Helvetica,sans-Serif" font-size="10.00">draw::Text</text>
<polyline fill="none" stroke="black" points="-0.880371,-77 94.8804,-77 "/>
<text text-anchor="middle" x="47" y="-65" font-family="Helvetica,sans-Serif" font-size="10.00"> </text>
<polyline fill="none" stroke="black" points="-0.880371,-59 94.8804,-59 "/>
<text text-anchor="start" x="7.11963" y="-47" font-family="Helvetica,sans-Serif" font-size="10.00">+ Text()</text>
<text text-anchor="start" x="7.11963" y="-37" font-family="Helvetica,sans-Serif" font-size="10.00">+ draw_to_scale()</text>
</a>
</g>
</g>
<!-- Node1&#45;&gt;Node5 -->
<g id="edge4" class="edge"><title>Node1&#45;&gt;Node5</title>
<path fill="none" stroke="midnightblue" d="M78.7154,-153.026C71.4781,-132.71 63.9606,-111.609 58.062,-95.0512"/>
<polygon fill="none" stroke="midnightblue" points="75.4723,-154.352 82.1253,-162.597 82.0664,-152.003 75.4723,-154.352"/>
</g>
<!-- Node6 -->
<g id="node6" class="node"><title>Node6</title>
<g id="a_node6"><a xlink:href="classdraw_1_1_text_box.html" target="_top" xlink:title="Text Box. ">
<polygon fill="none" stroke="black" points="113.12,-1 113.12,-125 208.88,-125 208.88,-1 113.12,-1"/>
<text text-anchor="middle" x="161" y="-113" font-family="Helvetica,sans-Serif" font-size="10.00">draw::TextBox</text>
<polyline fill="none" stroke="black" points="113.12,-107 208.88,-107 "/>
<text text-anchor="middle" x="161" y="-95" font-family="Helvetica,sans-Serif" font-size="10.00"> </text>
<polyline fill="none" stroke="black" points="113.12,-89 208.88,-89 "/>
<text text-anchor="start" x="121.12" y="-77" font-family="Helvetica,sans-Serif" font-size="10.00">+ TextBox()</text>
<text text-anchor="start" x="121.12" y="-67" font-family="Helvetica,sans-Serif" font-size="10.00">+ count_lines()</text>
<text text-anchor="start" x="121.12" y="-57" font-family="Helvetica,sans-Serif" font-size="10.00">+ dec_scroll()</text>
<text text-anchor="start" x="121.12" y="-47" font-family="Helvetica,sans-Serif" font-size="10.00">+ draw_to_scale()</text>
<text text-anchor="start" x="121.12" y="-37" font-family="Helvetica,sans-Serif" font-size="10.00">+ inc_scroll()</text>
<text text-anchor="start" x="121.12" y="-27" font-family="Helvetica,sans-Serif" font-size="10.00">+ scroll()</text>
<text text-anchor="start" x="121.12" y="-17" font-family="Helvetica,sans-Serif" font-size="10.00">+ scroll_max()</text>
<text text-anchor="start" x="121.12" y="-7" font-family="Helvetica,sans-Serif" font-size="10.00">+ count_lines()</text>
</a>
</g>
</g>
<!-- Node1&#45;&gt;Node6 -->
<g id="edge5" class="edge"><title>Node1&#45;&gt;Node6</title>
<path fill="none" stroke="midnightblue" d="M129.286,-153.022C132.587,-143.755 135.946,-134.326 139.184,-125.238"/>
<polygon fill="none" stroke="midnightblue" points="125.934,-152.003 125.875,-162.597 132.528,-154.352 125.934,-152.003"/>
</g>
<!-- Node2 -->
<g id="node2" class="node"><title>Node2</title>
<g id="a_node2"><a xlink:href="classapi_1_1_draw_info_object.html" target="_top" xlink:title="Draw Information Object. ">
<polygon fill="none" stroke="black" points="52.0913,-325 52.0913,-379 155.909,-379 155.909,-325 52.0913,-325"/>
<text text-anchor="middle" x="104" y="-367" font-family="Helvetica,sans-Serif" font-size="10.00">api::DrawInfoObject</text>
<polyline fill="none" stroke="black" points="52.0913,-361 155.909,-361 "/>
<text text-anchor="middle" x="104" y="-349" font-family="Helvetica,sans-Serif" font-size="10.00"> </text>
<polyline fill="none" stroke="black" points="52.0913,-343 155.909,-343 "/>
<text text-anchor="middle" x="104" y="-331" font-family="Helvetica,sans-Serif" font-size="10.00"> </text>
</a>
</g>
</g>
<!-- Node2&#45;&gt;Node1 -->
<g id="edge1" class="edge"><title>Node2&#45;&gt;Node1</title>
<path fill="none" stroke="midnightblue" d="M104,-314.715C104,-306.071 104,-296.61 104,-287.188"/>
<polygon fill="none" stroke="midnightblue" points="100.5,-314.796 104,-324.796 107.5,-314.796 100.5,-314.796"/>
</g>
<!-- Node3 -->
<g id="node3" class="node"><title>Node3</title>
<g id="a_node3"><a xlink:href="classapi_1_1_info_object.html" target="_top" xlink:title="API Information Object. ">
<polygon fill="none" stroke="black" points="63.7588,-417 63.7588,-471 144.241,-471 144.241,-417 63.7588,-417"/>
<text text-anchor="middle" x="104" y="-459" font-family="Helvetica,sans-Serif" font-size="10.00">api::InfoObject</text>
<polyline fill="none" stroke="black" points="63.7588,-453 144.241,-453 "/>
<text text-anchor="middle" x="104" y="-441" font-family="Helvetica,sans-Serif" font-size="10.00"> </text>
<polyline fill="none" stroke="black" points="63.7588,-435 144.241,-435 "/>
<text text-anchor="middle" x="104" y="-423" font-family="Helvetica,sans-Serif" font-size="10.00"> </text>
</a>
</g>
</g>
<!-- Node3&#45;&gt;Node2 -->
<g id="edge2" class="edge"><title>Node3&#45;&gt;Node2</title>
<path fill="none" stroke="midnightblue" d="M104,-406.865C104,-397.644 104,-387.907 104,-379.285"/>
<polygon fill="none" stroke="midnightblue" points="100.5,-406.968 104,-416.968 107.5,-406.968 100.5,-406.968"/>
</g>
<!-- Node4 -->
<g id="node4" class="node"><title>Node4</title>
<g id="a_node4"><a xlink:href="classapi_1_1_api_object.html" target="_top" xlink:title="API Object Class. ">
<polygon fill="none" stroke="black" points="62.7896,-509 62.7896,-563 145.21,-563 145.21,-509 62.7896,-509"/>
<text text-anchor="middle" x="104" y="-551" font-family="Helvetica,sans-Serif" font-size="10.00">api::ApiObject</text>
<polyline fill="none" stroke="black" points="62.7896,-545 145.21,-545 "/>
<text text-anchor="middle" x="104" y="-533" font-family="Helvetica,sans-Serif" font-size="10.00"> </text>
<polyline fill="none" stroke="black" points="62.7896,-527 145.21,-527 "/>
<text text-anchor="start" x="70.7896" y="-515" font-family="Helvetica,sans-Serif" font-size="10.00">+ api_version()</text>
</a>
</g>
</g>
<!-- Node4&#45;&gt;Node3 -->
<g id="edge3" class="edge"><title>Node4&#45;&gt;Node3</title>
<path fill="none" stroke="midnightblue" d="M104,-498.865C104,-489.644 104,-479.907 104,-471.285"/>
<polygon fill="none" stroke="midnightblue" points="100.5,-498.968 104,-508.968 107.5,-498.968 100.5,-498.968"/>
</g>
</g>
</svg>
