<?xml version="1.0" encoding="UTF-8" standalone="no"?>
<!DOCTYPE svg PUBLIC "-//W3C//DTD SVG 1.1//EN"
 "http://www.w3.org/Graphics/SVG/1.1/DTD/svg11.dtd">
<!-- Generated by graphviz version 2.36.0 (20140111.2315)
 -->
<!-- Title: draw::DrawingScaledAttr Pages: 1 -->
<svg width="134pt" height="400pt"
 viewBox="0.00 0.00 134.00 400.00" xmlns="http://www.w3.org/2000/svg" xmlns:xlink="http://www.w3.org/1999/xlink">
<g id="graph0" class="graph" transform="scale(1 1) rotate(0) translate(4 396)">
<title>draw::DrawingScaledAttr</title>
<!-- Node1 -->
<g id="node1" class="node"><title>Node1</title>
<polygon fill="#bfbfbf" stroke="black" points="-0.0219727,-1 -0.0219727,-115 126.022,-115 126.022,-1 -0.0219727,-1"/>
<text text-anchor="middle" x="63" y="-103" font-family="Helvetica,sans-Serif" font-size="10.00">draw::DrawingScaledAttr</text>
<polyline fill="none" stroke="black" points="-0.0219727,-97 126.022,-97 "/>
<text text-anchor="middle" x="63" y="-85" font-family="Helvetica,sans-Serif" font-size="10.00"> </text>
<polyline fill="none" stroke="black" points="-0.0219727,-79 126.022,-79 "/>
<text text-anchor="start" x="7.97803" y="-67" font-family="Helvetica,sans-Serif" font-size="10.00">+ DrawingScaledAttr()</text>
<text text-anchor="start" x="7.97803" y="-57" font-family="Helvetica,sans-Serif" font-size="10.00">+ DrawingScaledAttr()</text>
<text text-anchor="start" x="7.97803" y="-47" font-family="Helvetica,sans-Serif" font-size="10.00">+ attr()</text>
<text text-anchor="start" x="7.97803" y="-37" font-family="Helvetica,sans-Serif" font-size="10.00">+ bitmap()</text>
<text text-anchor="start" x="7.97803" y="-27" font-family="Helvetica,sans-Serif" font-size="10.00">+ calc_height()</text>
<text text-anchor="start" x="7.97803" y="-17" font-family="Helvetica,sans-Serif" font-size="10.00">+ calc_width()</text>
<text text-anchor="start" x="7.97803" y="-7" font-family="Helvetica,sans-Serif" font-size="10.00">and 19 more...</text>
</g>
<!-- Node2 -->
<g id="node2" class="node"><title>Node2</title>
<g id="a_node2"><a xlink:href="classapi_1_1_draw_info_object.html" target="_top" xlink:title="Draw Information Object. ">
<polygon fill="none" stroke="black" points="11.0913,-153 11.0913,-207 114.909,-207 114.909,-153 11.0913,-153"/>
<text text-anchor="middle" x="63" y="-195" font-family="Helvetica,sans-Serif" font-size="10.00">api::DrawInfoObject</text>
<polyline fill="none" stroke="black" points="11.0913,-189 114.909,-189 "/>
<text text-anchor="middle" x="63" y="-177" font-family="Helvetica,sans-Serif" font-size="10.00"> </text>
<polyline fill="none" stroke="black" points="11.0913,-171 114.909,-171 "/>
<text text-anchor="middle" x="63" y="-159" font-family="Helvetica,sans-Serif" font-size="10.00"> </text>
</a>
</g>
</g>
<!-- Node2&#45;&gt;Node1 -->
<g id="edge1" class="edge"><title>Node2&#45;&gt;Node1</title>
<path fill="none" stroke="midnightblue" d="M63,-142.754C63,-134.008 63,-124.458 63,-115.039"/>
<polygon fill="none" stroke="midnightblue" points="59.5001,-142.962 63,-152.962 66.5001,-142.962 59.5001,-142.962"/>
</g>
<!-- Node3 -->
<g id="node3" class="node"><title>Node3</title>
<g id="a_node3"><a xlink:href="classapi_1_1_info_object.html" target="_top" xlink:title="Information Object. ">
<polygon fill="none" stroke="black" points="22.7588,-245 22.7588,-299 103.241,-299 103.241,-245 22.7588,-245"/>
<text text-anchor="middle" x="63" y="-287" font-family="Helvetica,sans-Serif" font-size="10.00">api::InfoObject</text>
<polyline fill="none" stroke="black" points="22.7588,-281 103.241,-281 "/>
<text text-anchor="middle" x="63" y="-269" font-family="Helvetica,sans-Serif" font-size="10.00"> </text>
<polyline fill="none" stroke="black" points="22.7588,-263 103.241,-263 "/>
<text text-anchor="middle" x="63" y="-251" font-family="Helvetica,sans-Serif" font-size="10.00"> </text>
</a>
</g>
</g>
<!-- Node3&#45;&gt;Node2 -->
<g id="edge2" class="edge"><title>Node3&#45;&gt;Node2</title>
<path fill="none" stroke="midnightblue" d="M63,-234.865C63,-225.644 63,-215.907 63,-207.285"/>
<polygon fill="none" stroke="midnightblue" points="59.5001,-234.968 63,-244.968 66.5001,-234.968 59.5001,-234.968"/>
</g>
<!-- Node4 -->
<g id="node4" class="node"><title>Node4</title>
<g id="a_node4"><a xlink:href="classapi_1_1_api_object.html" target="_top" xlink:title="Application Programming Interface Object. ">
<polygon fill="none" stroke="black" points="21.7896,-337 21.7896,-391 104.21,-391 104.21,-337 21.7896,-337"/>
<text text-anchor="middle" x="63" y="-379" font-family="Helvetica,sans-Serif" font-size="10.00">api::ApiObject</text>
<polyline fill="none" stroke="black" points="21.7896,-373 104.21,-373 "/>
<text text-anchor="middle" x="63" y="-361" font-family="Helvetica,sans-Serif" font-size="10.00"> </text>
<polyline fill="none" stroke="black" points="21.7896,-355 104.21,-355 "/>
<text text-anchor="start" x="29.7896" y="-343" font-family="Helvetica,sans-Serif" font-size="10.00">+ api_version()</text>
</a>
</g>
</g>
<!-- Node4&#45;&gt;Node3 -->
<g id="edge3" class="edge"><title>Node4&#45;&gt;Node3</title>
<path fill="none" stroke="midnightblue" d="M63,-326.865C63,-317.644 63,-307.907 63,-299.285"/>
<polygon fill="none" stroke="midnightblue" points="59.5001,-326.968 63,-336.968 66.5001,-326.968 59.5001,-326.968"/>
</g>
</g>
</svg>
