<?xml version="1.0" encoding="UTF-8" standalone="no"?>
<!DOCTYPE svg PUBLIC "-//W3C//DTD SVG 1.1//EN"
 "http://www.w3.org/Graphics/SVG/1.1/DTD/svg11.dtd">
<!-- Generated by graphviz version 2.36.0 (20140111.2315)
 -->
<!-- Title: ui::CircleProgressTab Pages: 1 -->
<svg width="126pt" height="926pt"
 viewBox="0.00 0.00 126.00 926.00" xmlns="http://www.w3.org/2000/svg" xmlns:xlink="http://www.w3.org/1999/xlink">
<g id="graph0" class="graph" transform="scale(1 1) rotate(0) translate(4 922)">
<title>ui::CircleProgressTab</title>
<!-- Node1 -->
<g id="node1" class="node"><title>Node1</title>
<polygon fill="#bfbfbf" stroke="black" points="2.51367,-1 2.51367,-65 115.486,-65 115.486,-1 2.51367,-1"/>
<text text-anchor="middle" x="59" y="-53" font-family="Helvetica,sans-Serif" font-size="10.00">ui::CircleProgressTab</text>
<polyline fill="none" stroke="black" points="2.51367,-47 115.486,-47 "/>
<text text-anchor="middle" x="59" y="-35" font-family="Helvetica,sans-Serif" font-size="10.00"> </text>
<polyline fill="none" stroke="black" points="2.51367,-29 115.486,-29 "/>
<text text-anchor="start" x="10.5137" y="-17" font-family="Helvetica,sans-Serif" font-size="10.00">+ CircleProgressTab()</text>
<text text-anchor="start" x="10.5137" y="-7" font-family="Helvetica,sans-Serif" font-size="10.00">+ progress()</text>
</g>
<!-- Node2 -->
<g id="node2" class="node"><title>Node2</title>
<g id="a_node2"><a xlink:href="classui_1_1_progress_tab.html" target="_top" xlink:title="Tab Progress Class. ">
<polygon fill="none" stroke="black" points="15.292,-103 15.292,-177 102.708,-177 102.708,-103 15.292,-103"/>
<text text-anchor="middle" x="59" y="-165" font-family="Helvetica,sans-Serif" font-size="10.00">ui::ProgressTab</text>
<polyline fill="none" stroke="black" points="15.292,-159 102.708,-159 "/>
<text text-anchor="middle" x="59" y="-147" font-family="Helvetica,sans-Serif" font-size="10.00"> </text>
<polyline fill="none" stroke="black" points="15.292,-141 102.708,-141 "/>
<text text-anchor="start" x="23.292" y="-129" font-family="Helvetica,sans-Serif" font-size="10.00">+ ProgressTab()</text>
<text text-anchor="start" x="23.292" y="-119" font-family="Helvetica,sans-Serif" font-size="10.00">+ draw()</text>
<text text-anchor="start" x="23.292" y="-109" font-family="Helvetica,sans-Serif" font-size="10.00">+ progress()</text>
</a>
</g>
</g>
<!-- Node2&#45;&gt;Node1 -->
<g id="edge1" class="edge"><title>Node2&#45;&gt;Node1</title>
<path fill="none" stroke="midnightblue" d="M59,-92.6077C59,-83.3716 59,-73.8798 59,-65.2968"/>
<polygon fill="none" stroke="midnightblue" points="55.5001,-92.8649 59,-102.865 62.5001,-92.865 55.5001,-92.8649"/>
</g>
<!-- Node3 -->
<g id="node3" class="node"><title>Node3</title>
<g id="a_node3"><a xlink:href="classui_1_1_tab.html" target="_top" xlink:title="Tab Class. ">
<polygon fill="none" stroke="black" points="16.1221,-215 16.1221,-299 101.878,-299 101.878,-215 16.1221,-215"/>
<text text-anchor="middle" x="59" y="-287" font-family="Helvetica,sans-Serif" font-size="10.00">ui::Tab</text>
<polyline fill="none" stroke="black" points="16.1221,-281 101.878,-281 "/>
<text text-anchor="middle" x="59" y="-269" font-family="Helvetica,sans-Serif" font-size="10.00"> </text>
<polyline fill="none" stroke="black" points="16.1221,-263 101.878,-263 "/>
<text text-anchor="start" x="24.1221" y="-251" font-family="Helvetica,sans-Serif" font-size="10.00">+ Tab()</text>
<text text-anchor="start" x="24.1221" y="-241" font-family="Helvetica,sans-Serif" font-size="10.00">+ element()</text>
<text text-anchor="start" x="24.1221" y="-231" font-family="Helvetica,sans-Serif" font-size="10.00">+ set_element()</text>
<text text-anchor="start" x="24.1221" y="-221" font-family="Helvetica,sans-Serif" font-size="10.00">+ calc_square()</text>
</a>
</g>
</g>
<!-- Node3&#45;&gt;Node2 -->
<g id="edge2" class="edge"><title>Node3&#45;&gt;Node2</title>
<path fill="none" stroke="midnightblue" d="M59,-204.572C59,-195.382 59,-185.984 59,-177.329"/>
<polygon fill="none" stroke="midnightblue" points="55.5001,-204.807 59,-214.807 62.5001,-204.807 55.5001,-204.807"/>
</g>
<!-- Node4 -->
<g id="node4" class="node"><title>Node4</title>
<g id="a_node4"><a xlink:href="classdraw_1_1_drawing.html" target="_top" xlink:title="Drawing Class. ">
<polygon fill="none" stroke="black" points="-0.552734,-337 -0.552734,-561 118.553,-561 118.553,-337 -0.552734,-337"/>
<text text-anchor="middle" x="59" y="-549" font-family="Helvetica,sans-Serif" font-size="10.00">draw::Drawing</text>
<polyline fill="none" stroke="black" points="-0.552734,-543 118.553,-543 "/>
<text text-anchor="middle" x="59" y="-531" font-family="Helvetica,sans-Serif" font-size="10.00"> </text>
<polyline fill="none" stroke="black" points="-0.552734,-525 118.553,-525 "/>
<text text-anchor="start" x="7.44727" y="-513" font-family="Helvetica,sans-Serif" font-size="10.00">+ Drawing()</text>
<text text-anchor="start" x="7.44727" y="-503" font-family="Helvetica,sans-Serif" font-size="10.00">+ dark()</text>
<text text-anchor="start" x="7.44727" y="-493" font-family="Helvetica,sans-Serif" font-size="10.00">+ draw()</text>
<text text-anchor="start" x="7.44727" y="-483" font-family="Helvetica,sans-Serif" font-size="10.00">+ draw()</text>
<text text-anchor="start" x="7.44727" y="-473" font-family="Helvetica,sans-Serif" font-size="10.00">+ draw_scratch()</text>
<text text-anchor="start" x="7.44727" y="-463" font-family="Helvetica,sans-Serif" font-size="10.00">+ draw_to_scale()</text>
<text text-anchor="start" x="7.44727" y="-453" font-family="Helvetica,sans-Serif" font-size="10.00">and 18 more...</text>
<text text-anchor="start" x="7.44727" y="-443" font-family="Helvetica,sans-Serif" font-size="10.00">+ clear()</text>
<text text-anchor="start" x="7.44727" y="-433" font-family="Helvetica,sans-Serif" font-size="10.00">+ draw_checkerboard()</text>
<text text-anchor="start" x="7.44727" y="-423" font-family="Helvetica,sans-Serif" font-size="10.00">+ draw_pattern()</text>
<text text-anchor="start" x="7.44727" y="-413" font-family="Helvetica,sans-Serif" font-size="10.00">+ h()</text>
<text text-anchor="start" x="7.44727" y="-403" font-family="Helvetica,sans-Serif" font-size="10.00">+ height()</text>
<text text-anchor="start" x="7.44727" y="-393" font-family="Helvetica,sans-Serif" font-size="10.00">+ invert()</text>
<text text-anchor="start" x="7.44727" y="-383" font-family="Helvetica,sans-Serif" font-size="10.00">and 4 more...</text>
<text text-anchor="start" x="7.44727" y="-373" font-family="Helvetica,sans-Serif" font-size="10.00"># dim_on_bitmap()</text>
<text text-anchor="start" x="7.44727" y="-363" font-family="Helvetica,sans-Serif" font-size="10.00"># flag()</text>
<text text-anchor="start" x="7.44727" y="-353" font-family="Helvetica,sans-Serif" font-size="10.00"># point_on_bitmap()</text>
<text text-anchor="start" x="7.44727" y="-343" font-family="Helvetica,sans-Serif" font-size="10.00"># set_flag()</text>
</a>
</g>
</g>
<!-- Node4&#45;&gt;Node3 -->
<g id="edge3" class="edge"><title>Node4&#45;&gt;Node3</title>
<path fill="none" stroke="midnightblue" d="M59,-326.731C59,-317.066 59,-307.795 59,-299.363"/>
<polygon fill="none" stroke="midnightblue" points="55.5001,-326.926 59,-336.926 62.5001,-326.927 55.5001,-326.926"/>
</g>
<!-- Node5 -->
<g id="node5" class="node"><title>Node5</title>
<g id="a_node5"><a xlink:href="classapi_1_1_draw_work_object.html" target="_top" xlink:title="State Machine Work Object Class. ">
<polygon fill="none" stroke="black" points="3.854,-599 3.854,-653 114.146,-653 114.146,-599 3.854,-599"/>
<text text-anchor="middle" x="59" y="-641" font-family="Helvetica,sans-Serif" font-size="10.00">api::DrawWorkObject</text>
<polyline fill="none" stroke="black" points="3.854,-635 114.146,-635 "/>
<text text-anchor="middle" x="59" y="-623" font-family="Helvetica,sans-Serif" font-size="10.00"> </text>
<polyline fill="none" stroke="black" points="3.854,-617 114.146,-617 "/>
<text text-anchor="middle" x="59" y="-605" font-family="Helvetica,sans-Serif" font-size="10.00"> </text>
</a>
</g>
</g>
<!-- Node5&#45;&gt;Node4 -->
<g id="edge4" class="edge"><title>Node5&#45;&gt;Node4</title>
<path fill="none" stroke="midnightblue" d="M59,-588.684C59,-580.251 59,-570.84 59,-561.001"/>
<polygon fill="none" stroke="midnightblue" points="55.5001,-588.801 59,-598.801 62.5001,-588.801 55.5001,-588.801"/>
</g>
<!-- Node6 -->
<g id="node6" class="node"><title>Node6</title>
<g id="a_node6"><a xlink:href="classapi_1_1_work_object.html" target="_top" xlink:title="WorkObject Class. ">
<polygon fill="none" stroke="black" points="-0.547852,-691 -0.547852,-825 118.548,-825 118.548,-691 -0.547852,-691"/>
<text text-anchor="middle" x="59" y="-813" font-family="Helvetica,sans-Serif" font-size="10.00">api::WorkObject</text>
<polyline fill="none" stroke="black" points="-0.547852,-807 118.548,-807 "/>
<text text-anchor="middle" x="59" y="-795" font-family="Helvetica,sans-Serif" font-size="10.00"> </text>
<polyline fill="none" stroke="black" points="-0.547852,-789 118.548,-789 "/>
<text text-anchor="start" x="7.45215" y="-777" font-family="Helvetica,sans-Serif" font-size="10.00">+ WorkObject()</text>
<text text-anchor="start" x="7.45215" y="-767" font-family="Helvetica,sans-Serif" font-size="10.00">+ clear_error_number()</text>
<text text-anchor="start" x="7.45215" y="-757" font-family="Helvetica,sans-Serif" font-size="10.00">+ error_number()</text>
<text text-anchor="start" x="7.45215" y="-747" font-family="Helvetica,sans-Serif" font-size="10.00">+ exit_fatal()</text>
<text text-anchor="start" x="7.45215" y="-737" font-family="Helvetica,sans-Serif" font-size="10.00"># set_error_number()</text>
<text text-anchor="start" x="7.45215" y="-727" font-family="Helvetica,sans-Serif" font-size="10.00"># set_error_number_if</text>
<text text-anchor="start" x="7.45215" y="-717" font-family="Helvetica,sans-Serif" font-size="10.00">_error()</text>
<text text-anchor="start" x="7.45215" y="-707" font-family="Helvetica,sans-Serif" font-size="10.00"># set_error_number_to</text>
<text text-anchor="start" x="7.45215" y="-697" font-family="Helvetica,sans-Serif" font-size="10.00">_errno()</text>
</a>
</g>
</g>
<!-- Node6&#45;&gt;Node5 -->
<g id="edge5" class="edge"><title>Node6&#45;&gt;Node5</title>
<path fill="none" stroke="midnightblue" d="M59,-680.838C59,-670.903 59,-661.326 59,-653.074"/>
<polygon fill="none" stroke="midnightblue" points="55.5001,-680.857 59,-690.857 62.5001,-680.858 55.5001,-680.857"/>
</g>
<!-- Node7 -->
<g id="node7" class="node"><title>Node7</title>
<g id="a_node7"><a xlink:href="classapi_1_1_api_object.html" target="_top" xlink:title="API Object Class. ">
<polygon fill="none" stroke="black" points="17.7896,-863 17.7896,-917 100.21,-917 100.21,-863 17.7896,-863"/>
<text text-anchor="middle" x="59" y="-905" font-family="Helvetica,sans-Serif" font-size="10.00">api::ApiObject</text>
<polyline fill="none" stroke="black" points="17.7896,-899 100.21,-899 "/>
<text text-anchor="middle" x="59" y="-887" font-family="Helvetica,sans-Serif" font-size="10.00"> </text>
<polyline fill="none" stroke="black" points="17.7896,-881 100.21,-881 "/>
<text text-anchor="start" x="25.7896" y="-869" font-family="Helvetica,sans-Serif" font-size="10.00">+ api_version()</text>
</a>
</g>
</g>
<!-- Node7&#45;&gt;Node6 -->
<g id="edge6" class="edge"><title>Node7&#45;&gt;Node6</title>
<path fill="none" stroke="midnightblue" d="M59,-852.644C59,-844.02 59,-834.555 59,-825.059"/>
<polygon fill="none" stroke="midnightblue" points="55.5001,-852.693 59,-862.693 62.5001,-852.693 55.5001,-852.693"/>
</g>
</g>
</svg>
