<?xml version="1.0" encoding="UTF-8" standalone="no"?>
<!DOCTYPE svg PUBLIC "-//W3C//DTD SVG 1.1//EN"
 "http://www.w3.org/Graphics/SVG/1.1/DTD/svg11.dtd">
<!-- Generated by graphviz version 2.36.0 (20140111.2315)
 -->
<!-- Title: draw::TextBox Pages: 1 -->
<svg width="258pt" height="762pt"
 viewBox="0.00 0.00 258.00 762.00" xmlns="http://www.w3.org/2000/svg" xmlns:xlink="http://www.w3.org/1999/xlink">
<g id="graph0" class="graph" transform="scale(1 1) rotate(0) translate(4 758)">
<title>draw::TextBox</title>
<!-- Node1 -->
<g id="node1" class="node"><title>Node1</title>
<polygon fill="#bfbfbf" stroke="black" points="64.1196,-1 64.1196,-125 159.88,-125 159.88,-1 64.1196,-1"/>
<text text-anchor="middle" x="112" y="-113" font-family="Helvetica,sans-Serif" font-size="10.00">draw::TextBox</text>
<polyline fill="none" stroke="black" points="64.1196,-107 159.88,-107 "/>
<text text-anchor="middle" x="112" y="-95" font-family="Helvetica,sans-Serif" font-size="10.00"> </text>
<polyline fill="none" stroke="black" points="64.1196,-89 159.88,-89 "/>
<text text-anchor="start" x="72.1196" y="-77" font-family="Helvetica,sans-Serif" font-size="10.00">+ TextBox()</text>
<text text-anchor="start" x="72.1196" y="-67" font-family="Helvetica,sans-Serif" font-size="10.00">+ count_lines()</text>
<text text-anchor="start" x="72.1196" y="-57" font-family="Helvetica,sans-Serif" font-size="10.00">+ dec_scroll()</text>
<text text-anchor="start" x="72.1196" y="-47" font-family="Helvetica,sans-Serif" font-size="10.00">+ draw_to_scale()</text>
<text text-anchor="start" x="72.1196" y="-37" font-family="Helvetica,sans-Serif" font-size="10.00">+ inc_scroll()</text>
<text text-anchor="start" x="72.1196" y="-27" font-family="Helvetica,sans-Serif" font-size="10.00">+ scroll()</text>
<text text-anchor="start" x="72.1196" y="-17" font-family="Helvetica,sans-Serif" font-size="10.00">+ scroll_max()</text>
<text text-anchor="start" x="72.1196" y="-7" font-family="Helvetica,sans-Serif" font-size="10.00">+ count_lines()</text>
</g>
<!-- Node2 -->
<g id="node2" class="node"><title>Node2</title>
<g id="a_node2"><a xlink:href="classdraw_1_1_text_attr.html" target="_top" xlink:title="Text Attribute Class. ">
<polygon fill="none" stroke="black" points="9.26123,-213 9.26123,-337 94.7388,-337 94.7388,-213 9.26123,-213"/>
<text text-anchor="middle" x="52" y="-325" font-family="Helvetica,sans-Serif" font-size="10.00">draw::TextAttr</text>
<polyline fill="none" stroke="black" points="9.26123,-319 94.7388,-319 "/>
<text text-anchor="middle" x="52" y="-307" font-family="Helvetica,sans-Serif" font-size="10.00"> </text>
<polyline fill="none" stroke="black" points="9.26123,-301 94.7388,-301 "/>
<text text-anchor="start" x="17.2612" y="-289" font-family="Helvetica,sans-Serif" font-size="10.00">+ TextAttr()</text>
<text text-anchor="start" x="17.2612" y="-279" font-family="Helvetica,sans-Serif" font-size="10.00">+ assign()</text>
<text text-anchor="start" x="17.2612" y="-269" font-family="Helvetica,sans-Serif" font-size="10.00">+ font()</text>
<text text-anchor="start" x="17.2612" y="-259" font-family="Helvetica,sans-Serif" font-size="10.00">+ font_bold()</text>
<text text-anchor="start" x="17.2612" y="-249" font-family="Helvetica,sans-Serif" font-size="10.00">+ font_size()</text>
<text text-anchor="start" x="17.2612" y="-239" font-family="Helvetica,sans-Serif" font-size="10.00">+ set_font()</text>
<text text-anchor="start" x="17.2612" y="-229" font-family="Helvetica,sans-Serif" font-size="10.00">and 4 more...</text>
<text text-anchor="start" x="17.2612" y="-219" font-family="Helvetica,sans-Serif" font-size="10.00"># resolve_font()</text>
</a>
</g>
</g>
<!-- Node2&#45;&gt;Node1 -->
<g id="edge1" class="edge"><title>Node2&#45;&gt;Node1</title>
<path fill="none" stroke="midnightblue" d="M72.2622,-203.082C79.485,-177.802 87.5525,-149.566 94.5214,-125.175"/>
<polygon fill="none" stroke="midnightblue" points="68.817,-202.4 69.4351,-212.977 75.5477,-204.324 68.817,-202.4"/>
</g>
<!-- Node3 -->
<g id="node3" class="node"><title>Node3</title>
<g id="a_node3"><a xlink:href="classapi_1_1_draw_info_object.html" target="_top" xlink:title="Draw Information Object. ">
<polygon fill="none" stroke="black" points="-0.908691,-425 -0.908691,-479 102.909,-479 102.909,-425 -0.908691,-425"/>
<text text-anchor="middle" x="51" y="-467" font-family="Helvetica,sans-Serif" font-size="10.00">api::DrawInfoObject</text>
<polyline fill="none" stroke="black" points="-0.908691,-461 102.909,-461 "/>
<text text-anchor="middle" x="51" y="-449" font-family="Helvetica,sans-Serif" font-size="10.00"> </text>
<polyline fill="none" stroke="black" points="-0.908691,-443 102.909,-443 "/>
<text text-anchor="middle" x="51" y="-431" font-family="Helvetica,sans-Serif" font-size="10.00"> </text>
</a>
</g>
</g>
<!-- Node3&#45;&gt;Node2 -->
<g id="edge2" class="edge"><title>Node3&#45;&gt;Node2</title>
<path fill="none" stroke="midnightblue" d="M51.2072,-414.736C51.335,-392.376 51.5022,-363.123 51.65,-337.247"/>
<polygon fill="none" stroke="midnightblue" points="47.707,-414.781 51.1497,-424.801 54.7069,-414.821 47.707,-414.781"/>
</g>
<!-- Node4 -->
<g id="node4" class="node"><title>Node4</title>
<g id="a_node4"><a xlink:href="classapi_1_1_info_object.html" target="_top" xlink:title="API Information Object. ">
<polygon fill="none" stroke="black" points="9.75879,-562 9.75879,-616 90.2412,-616 90.2412,-562 9.75879,-562"/>
<text text-anchor="middle" x="50" y="-604" font-family="Helvetica,sans-Serif" font-size="10.00">api::InfoObject</text>
<polyline fill="none" stroke="black" points="9.75879,-598 90.2412,-598 "/>
<text text-anchor="middle" x="50" y="-586" font-family="Helvetica,sans-Serif" font-size="10.00"> </text>
<polyline fill="none" stroke="black" points="9.75879,-580 90.2412,-580 "/>
<text text-anchor="middle" x="50" y="-568" font-family="Helvetica,sans-Serif" font-size="10.00"> </text>
</a>
</g>
</g>
<!-- Node4&#45;&gt;Node3 -->
<g id="edge3" class="edge"><title>Node4&#45;&gt;Node3</title>
<path fill="none" stroke="midnightblue" d="M50.2669,-551.967C50.436,-529.133 50.651,-500.111 50.8044,-479.41"/>
<polygon fill="none" stroke="midnightblue" points="46.7671,-551.945 50.1928,-561.971 53.7669,-551.997 46.7671,-551.945"/>
</g>
<!-- Node5 -->
<g id="node5" class="node"><title>Node5</title>
<g id="a_node5"><a xlink:href="classapi_1_1_api_object.html" target="_top" xlink:title="API Object Class. ">
<polygon fill="none" stroke="black" points="72.7896,-699 72.7896,-753 155.21,-753 155.21,-699 72.7896,-699"/>
<text text-anchor="middle" x="114" y="-741" font-family="Helvetica,sans-Serif" font-size="10.00">api::ApiObject</text>
<polyline fill="none" stroke="black" points="72.7896,-735 155.21,-735 "/>
<text text-anchor="middle" x="114" y="-723" font-family="Helvetica,sans-Serif" font-size="10.00"> </text>
<polyline fill="none" stroke="black" points="72.7896,-717 155.21,-717 "/>
<text text-anchor="start" x="80.7896" y="-705" font-family="Helvetica,sans-Serif" font-size="10.00">+ api_version()</text>
</a>
</g>
</g>
<!-- Node5&#45;&gt;Node4 -->
<g id="edge4" class="edge"><title>Node5&#45;&gt;Node4</title>
<path fill="none" stroke="midnightblue" d="M97.355,-689.889C86.4654,-666.919 72.4665,-637.39 62.5203,-616.41"/>
<polygon fill="none" stroke="midnightblue" points="94.2138,-691.434 101.66,-698.971 100.539,-688.435 94.2138,-691.434"/>
</g>
<!-- Node8 -->
<g id="node8" class="node"><title>Node8</title>
<g id="a_node8"><a xlink:href="classapi_1_1_work_object.html" target="_top" xlink:title="WorkObject Class. ">
<polygon fill="none" stroke="black" points="107.914,-517 107.914,-661 250.086,-661 250.086,-517 107.914,-517"/>
<text text-anchor="middle" x="179" y="-649" font-family="Helvetica,sans-Serif" font-size="10.00">api::WorkObject</text>
<polyline fill="none" stroke="black" points="107.914,-643 250.086,-643 "/>
<text text-anchor="middle" x="179" y="-631" font-family="Helvetica,sans-Serif" font-size="10.00"> </text>
<polyline fill="none" stroke="black" points="107.914,-625 250.086,-625 "/>
<text text-anchor="start" x="115.914" y="-613" font-family="Helvetica,sans-Serif" font-size="10.00">+ WorkObject()</text>
<text text-anchor="start" x="115.914" y="-603" font-family="Helvetica,sans-Serif" font-size="10.00">+ clear_error_number()</text>
<text text-anchor="start" x="115.914" y="-593" font-family="Helvetica,sans-Serif" font-size="10.00">+ error_number()</text>
<text text-anchor="start" x="115.914" y="-583" font-family="Helvetica,sans-Serif" font-size="10.00">+ exit_fatal()</text>
<text text-anchor="start" x="115.914" y="-573" font-family="Helvetica,sans-Serif" font-size="10.00"># set_error_number()</text>
<text text-anchor="start" x="115.914" y="-563" font-family="Helvetica,sans-Serif" font-size="10.00"># set_error_number_if</text>
<text text-anchor="start" x="115.914" y="-553" font-family="Helvetica,sans-Serif" font-size="10.00">_error()</text>
<text text-anchor="start" x="115.914" y="-543" font-family="Helvetica,sans-Serif" font-size="10.00"># set_error_number_if_null()</text>
<text text-anchor="start" x="115.914" y="-533" font-family="Helvetica,sans-Serif" font-size="10.00"># set_error_number_to</text>
<text text-anchor="start" x="115.914" y="-523" font-family="Helvetica,sans-Serif" font-size="10.00">_errno()</text>
</a>
</g>
</g>
<!-- Node5&#45;&gt;Node8 -->
<g id="edge8" class="edge"><title>Node5&#45;&gt;Node8</title>
<path fill="none" stroke="midnightblue" d="M130.959,-689.777C135.226,-680.915 139.96,-671.083 144.745,-661.145"/>
<polygon fill="none" stroke="midnightblue" points="127.717,-688.442 126.533,-698.971 134.024,-691.479 127.717,-688.442"/>
</g>
<!-- Node6 -->
<g id="node6" class="node"><title>Node6</title>
<g id="a_node6"><a xlink:href="classdraw_1_1_drawing.html" target="_top" xlink:title="Drawing Class. ">
<polygon fill="none" stroke="black" points="114.447,-163 114.447,-387 233.553,-387 233.553,-163 114.447,-163"/>
<text text-anchor="middle" x="174" y="-375" font-family="Helvetica,sans-Serif" font-size="10.00">draw::Drawing</text>
<polyline fill="none" stroke="black" points="114.447,-369 233.553,-369 "/>
<text text-anchor="middle" x="174" y="-357" font-family="Helvetica,sans-Serif" font-size="10.00"> </text>
<polyline fill="none" stroke="black" points="114.447,-351 233.553,-351 "/>
<text text-anchor="start" x="122.447" y="-339" font-family="Helvetica,sans-Serif" font-size="10.00">+ Drawing()</text>
<text text-anchor="start" x="122.447" y="-329" font-family="Helvetica,sans-Serif" font-size="10.00">+ dark()</text>
<text text-anchor="start" x="122.447" y="-319" font-family="Helvetica,sans-Serif" font-size="10.00">+ draw()</text>
<text text-anchor="start" x="122.447" y="-309" font-family="Helvetica,sans-Serif" font-size="10.00">+ draw()</text>
<text text-anchor="start" x="122.447" y="-299" font-family="Helvetica,sans-Serif" font-size="10.00">+ draw_scratch()</text>
<text text-anchor="start" x="122.447" y="-289" font-family="Helvetica,sans-Serif" font-size="10.00">+ draw_to_scale()</text>
<text text-anchor="start" x="122.447" y="-279" font-family="Helvetica,sans-Serif" font-size="10.00">and 18 more...</text>
<text text-anchor="start" x="122.447" y="-269" font-family="Helvetica,sans-Serif" font-size="10.00">+ clear()</text>
<text text-anchor="start" x="122.447" y="-259" font-family="Helvetica,sans-Serif" font-size="10.00">+ draw_checkerboard()</text>
<text text-anchor="start" x="122.447" y="-249" font-family="Helvetica,sans-Serif" font-size="10.00">+ draw_pattern()</text>
<text text-anchor="start" x="122.447" y="-239" font-family="Helvetica,sans-Serif" font-size="10.00">+ h()</text>
<text text-anchor="start" x="122.447" y="-229" font-family="Helvetica,sans-Serif" font-size="10.00">+ height()</text>
<text text-anchor="start" x="122.447" y="-219" font-family="Helvetica,sans-Serif" font-size="10.00">+ invert()</text>
<text text-anchor="start" x="122.447" y="-209" font-family="Helvetica,sans-Serif" font-size="10.00">and 4 more...</text>
<text text-anchor="start" x="122.447" y="-199" font-family="Helvetica,sans-Serif" font-size="10.00"># dim_on_bitmap()</text>
<text text-anchor="start" x="122.447" y="-189" font-family="Helvetica,sans-Serif" font-size="10.00"># flag()</text>
<text text-anchor="start" x="122.447" y="-179" font-family="Helvetica,sans-Serif" font-size="10.00"># point_on_bitmap()</text>
<text text-anchor="start" x="122.447" y="-169" font-family="Helvetica,sans-Serif" font-size="10.00"># set_flag()</text>
</a>
</g>
</g>
<!-- Node6&#45;&gt;Node1 -->
<g id="edge5" class="edge"><title>Node6&#45;&gt;Node1</title>
<path fill="none" stroke="midnightblue" d="M138.32,-153.147C135.469,-143.492 132.672,-134.019 130.029,-125.067"/>
<polygon fill="none" stroke="midnightblue" points="134.996,-154.251 141.185,-162.851 141.71,-152.269 134.996,-154.251"/>
</g>
<!-- Node7 -->
<g id="node7" class="node"><title>Node7</title>
<g id="a_node7"><a xlink:href="classapi_1_1_draw_work_object.html" target="_top" xlink:title="State Machine Work Object Class. ">
<polygon fill="none" stroke="black" points="122.854,-425 122.854,-479 233.146,-479 233.146,-425 122.854,-425"/>
<text text-anchor="middle" x="178" y="-467" font-family="Helvetica,sans-Serif" font-size="10.00">api::DrawWorkObject</text>
<polyline fill="none" stroke="black" points="122.854,-461 233.146,-461 "/>
<text text-anchor="middle" x="178" y="-449" font-family="Helvetica,sans-Serif" font-size="10.00"> </text>
<polyline fill="none" stroke="black" points="122.854,-443 233.146,-443 "/>
<text text-anchor="middle" x="178" y="-431" font-family="Helvetica,sans-Serif" font-size="10.00"> </text>
</a>
</g>
</g>
<!-- Node7&#45;&gt;Node6 -->
<g id="edge6" class="edge"><title>Node7&#45;&gt;Node6</title>
<path fill="none" stroke="midnightblue" d="M177.17,-414.684C176.977,-406.251 176.762,-396.84 176.537,-387.001"/>
<polygon fill="none" stroke="midnightblue" points="173.673,-414.883 177.401,-424.801 180.672,-414.723 173.673,-414.883"/>
</g>
<!-- Node8&#45;&gt;Node7 -->
<g id="edge7" class="edge"><title>Node8&#45;&gt;Node7</title>
<path fill="none" stroke="midnightblue" d="M178.399,-506.911C178.326,-496.983 178.255,-487.464 178.195,-479.262"/>
<polygon fill="none" stroke="midnightblue" points="174.9,-506.968 178.474,-516.942 181.899,-506.916 174.9,-506.968"/>
</g>
</g>
</svg>
