<?xml version="1.0" encoding="UTF-8" standalone="no"?>
<!DOCTYPE svg PUBLIC "-//W3C//DTD SVG 1.1//EN"
 "http://www.w3.org/Graphics/SVG/1.1/DTD/svg11.dtd">
<!-- Generated by graphviz version 2.36.0 (20140111.2315)
 -->
<!-- Title: ui::MenuList Pages: 1 -->
<!--zoomable 1298 -->
<svg id="main" version="1.1" xmlns="http://www.w3.org/2000/svg" xmlns:xlink="http://www.w3.org/1999/xlink" xml:space="preserve" onload="init(evt)">
<style type="text/css"><![CDATA[
.edge:hover path { stroke: red; }
.edge:hover polygon { stroke: red; fill: red; }
]]></style>
<script type="text/javascript"><![CDATA[
var edges = document.getElementsByTagName('g');
if (edges && edges.length) {
  for (var i=0;i<edges.length;i++) {
    if (edges[i].id.substr(0,4)=='edge') {
      edges[i].setAttribute('class','edge');
    }
  }
}
]]></script>
        <defs>
                <circle id="rim" cx="0" cy="0" r="7"/>
                <circle id="rim2" cx="0" cy="0" r="3.5"/>
                <g id="zoomPlus">
                        <use xlink:href="#rim" fill="#404040">
                                <set attributeName="fill" to="#808080" begin="zoomplus.mouseover" end="zoomplus.mouseout"/>
                        </use>
                        <path d="M-4,0h8M0,-4v8" fill="none" stroke="white" stroke-width="1.5" pointer-events="none"/>
                </g>
                <g id="zoomMin">
                        <use xlink:href="#rim" fill="#404040">
                                <set attributeName="fill" to="#808080" begin="zoomminus.mouseover" end="zoomminus.mouseout"/>
                        </use>
                        <path d="M-4,0h8" fill="none" stroke="white" stroke-width="1.5" pointer-events="none"/>
                </g>
                <g id="dirArrow">
                        <path fill="none" stroke="white" stroke-width="1.5" d="M0,-3.0v7 M-2.5,-0.5L0,-3.0L2.5,-0.5"/>
                </g>
               <g id="resetDef">
                       <use xlink:href="#rim2" fill="#404040">
                               <set attributeName="fill" to="#808080" begin="reset.mouseover" end="reset.mouseout"/>
                       </use>
               </g>
        </defs>

<script type="text/javascript">
var viewWidth = 312;
var viewHeight = 1298;
var sectionId = 'dynsection-0';
</script>
<script xlink:href="svgpan.js"/>
<svg id="graph" class="graph">
<g id="viewport">
<title>ui::MenuList</title>
<!-- Node1 -->
<g id="node1" class="node"><title>Node1</title>
<polygon fill="#bfbfbf" stroke="black" points="148.073,-1 148.073,-85 219.927,-85 219.927,-1 148.073,-1"/>
<text text-anchor="middle" x="184" y="-73" font-family="Helvetica,sans-Serif" font-size="10.00">ui::MenuList</text>
<polyline fill="none" stroke="black" points="148.073,-67 219.927,-67 "/>
<text text-anchor="middle" x="184" y="-55" font-family="Helvetica,sans-Serif" font-size="10.00"> </text>
<polyline fill="none" stroke="black" points="148.073,-49 219.927,-49 "/>
<text text-anchor="start" x="156.073" y="-37" font-family="Helvetica,sans-Serif" font-size="10.00">+ MenuList()</text>
<text text-anchor="start" x="156.073" y="-27" font-family="Helvetica,sans-Serif" font-size="10.00">+ at()</text>
<text text-anchor="start" x="156.073" y="-17" font-family="Helvetica,sans-Serif" font-size="10.00">+ back()</text>
<text text-anchor="start" x="156.073" y="-7" font-family="Helvetica,sans-Serif" font-size="10.00">+ size()</text>
</g>
<!-- Node2 -->
<g id="node2" class="node"><title>Node2</title>
<g id="a_node2"><a xlink:href="classui_1_1_list.html" target="_top" xlink:title="List Class. ">
<polygon fill="none" stroke="black" points="105.387,-123 105.387,-337 262.613,-337 262.613,-123 105.387,-123"/>
<text text-anchor="middle" x="184" y="-325" font-family="Helvetica,sans-Serif" font-size="10.00">ui::List</text>
<polyline fill="none" stroke="black" points="105.387,-319 262.613,-319 "/>
<text text-anchor="start" x="113.387" y="-307" font-family="Helvetica,sans-Serif" font-size="10.00"># m_draw_animation_item</text>
<text text-anchor="start" x="113.387" y="-297" font-family="Helvetica,sans-Serif" font-size="10.00"># m_draw_animation_offset</text>
<text text-anchor="start" x="113.387" y="-287" font-family="Helvetica,sans-Serif" font-size="10.00"># m_scroll_animation</text>
<text text-anchor="start" x="113.387" y="-277" font-family="Helvetica,sans-Serif" font-size="10.00"># m_scroll_timer</text>
<text text-anchor="start" x="113.387" y="-267" font-family="Helvetica,sans-Serif" font-size="10.00"># m_select_top_bottom</text>
<polyline fill="none" stroke="black" points="105.387,-261 262.613,-261 "/>
<text text-anchor="start" x="113.387" y="-249" font-family="Helvetica,sans-Serif" font-size="10.00">+ List()</text>
<text text-anchor="start" x="113.387" y="-239" font-family="Helvetica,sans-Serif" font-size="10.00">+ at()</text>
<text text-anchor="start" x="113.387" y="-229" font-family="Helvetica,sans-Serif" font-size="10.00">+ current()</text>
<text text-anchor="start" x="113.387" y="-219" font-family="Helvetica,sans-Serif" font-size="10.00">+ draw_item_to_scale()</text>
<text text-anchor="start" x="113.387" y="-209" font-family="Helvetica,sans-Serif" font-size="10.00">+ draw_to_scale()</text>
<text text-anchor="start" x="113.387" y="-199" font-family="Helvetica,sans-Serif" font-size="10.00">+ handle_event()</text>
<text text-anchor="start" x="113.387" y="-189" font-family="Helvetica,sans-Serif" font-size="10.00"># animate_scroll()</text>
<text text-anchor="start" x="113.387" y="-179" font-family="Helvetica,sans-Serif" font-size="10.00"># handle_down_button</text>
<text text-anchor="start" x="113.387" y="-169" font-family="Helvetica,sans-Serif" font-size="10.00">_actuation()</text>
<text text-anchor="start" x="113.387" y="-159" font-family="Helvetica,sans-Serif" font-size="10.00"># handle_select_button</text>
<text text-anchor="start" x="113.387" y="-149" font-family="Helvetica,sans-Serif" font-size="10.00">_actuation()</text>
<text text-anchor="start" x="113.387" y="-139" font-family="Helvetica,sans-Serif" font-size="10.00"># handle_up_button_actuation()</text>
<text text-anchor="start" x="113.387" y="-129" font-family="Helvetica,sans-Serif" font-size="10.00"># init()</text>
</a>
</g>
</g>
<!-- Node2&#45;&gt;Node1 -->
<g id="edge1" class="edge"><title>Node2&#45;&gt;Node1</title>
<path fill="none" stroke="midnightblue" d="M184,-112.725C184,-102.983 184,-93.6192 184,-85.1059"/>
<polygon fill="none" stroke="midnightblue" points="180.5,-112.993 184,-122.993 187.5,-112.993 180.5,-112.993"/>
</g>
<!-- Node3 -->
<g id="node3" class="node"><title>Node3</title>
<g id="a_node3"><a xlink:href="classui_1_1_linked_element.html" target="_top" xlink:title="Linked Element. ">
<polygon fill="none" stroke="black" points="73.2847,-375 73.2847,-489 170.715,-489 170.715,-375 73.2847,-375"/>
<text text-anchor="middle" x="122" y="-477" font-family="Helvetica,sans-Serif" font-size="10.00">ui::LinkedElement</text>
<polyline fill="none" stroke="black" points="73.2847,-471 170.715,-471 "/>
<text text-anchor="middle" x="122" y="-459" font-family="Helvetica,sans-Serif" font-size="10.00"> </text>
<polyline fill="none" stroke="black" points="73.2847,-453 170.715,-453 "/>
<text text-anchor="start" x="81.2847" y="-441" font-family="Helvetica,sans-Serif" font-size="10.00">+ LinkedElement()</text>
<text text-anchor="start" x="81.2847" y="-431" font-family="Helvetica,sans-Serif" font-size="10.00">+ LinkedElement()</text>
<text text-anchor="start" x="81.2847" y="-421" font-family="Helvetica,sans-Serif" font-size="10.00">+ child()</text>
<text text-anchor="start" x="81.2847" y="-411" font-family="Helvetica,sans-Serif" font-size="10.00">+ handle_event()</text>
<text text-anchor="start" x="81.2847" y="-401" font-family="Helvetica,sans-Serif" font-size="10.00">+ parent()</text>
<text text-anchor="start" x="81.2847" y="-391" font-family="Helvetica,sans-Serif" font-size="10.00">+ set_child()</text>
<text text-anchor="start" x="81.2847" y="-381" font-family="Helvetica,sans-Serif" font-size="10.00">+ set_parent()</text>
</a>
</g>
</g>
<!-- Node3&#45;&gt;Node2 -->
<g id="edge2" class="edge"><title>Node3&#45;&gt;Node2</title>
<path fill="none" stroke="midnightblue" d="M142.408,-365.168C145.199,-356.165 148.12,-346.741 151.065,-337.243"/>
<polygon fill="none" stroke="midnightblue" points="139.053,-364.169 139.435,-374.757 145.74,-366.241 139.053,-364.169"/>
</g>
<!-- Node4 -->
<g id="node4" class="node"><title>Node4</title>
<g id="a_node4"><a xlink:href="classui_1_1_element.html" target="_top" xlink:title="Element Class. ">
<polygon fill="none" stroke="black" points="54.3857,-527 54.3857,-661 189.614,-661 189.614,-527 54.3857,-527"/>
<text text-anchor="middle" x="122" y="-649" font-family="Helvetica,sans-Serif" font-size="10.00">ui::Element</text>
<polyline fill="none" stroke="black" points="54.3857,-643 189.614,-643 "/>
<text text-anchor="start" x="62.3857" y="-631" font-family="Helvetica,sans-Serif" font-size="10.00"># m_animation_attr</text>
<polyline fill="none" stroke="black" points="54.3857,-625 189.614,-625 "/>
<text text-anchor="start" x="62.3857" y="-613" font-family="Helvetica,sans-Serif" font-size="10.00">+ Element()</text>
<text text-anchor="start" x="62.3857" y="-603" font-family="Helvetica,sans-Serif" font-size="10.00">+ animation_attr()</text>
<text text-anchor="start" x="62.3857" y="-593" font-family="Helvetica,sans-Serif" font-size="10.00">+ animation_frame_delay()</text>
<text text-anchor="start" x="62.3857" y="-583" font-family="Helvetica,sans-Serif" font-size="10.00">+ animation_path()</text>
<text text-anchor="start" x="62.3857" y="-573" font-family="Helvetica,sans-Serif" font-size="10.00">+ animation_type()</text>
<text text-anchor="start" x="62.3857" y="-563" font-family="Helvetica,sans-Serif" font-size="10.00">+ handle_event()</text>
<text text-anchor="start" x="62.3857" y="-553" font-family="Helvetica,sans-Serif" font-size="10.00">and 21 more...</text>
<text text-anchor="start" x="62.3857" y="-543" font-family="Helvetica,sans-Serif" font-size="10.00"># adjust_x_center()</text>
<text text-anchor="start" x="62.3857" y="-533" font-family="Helvetica,sans-Serif" font-size="10.00"># draw_scroll()</text>
</a>
</g>
</g>
<!-- Node4&#45;&gt;Node3 -->
<g id="edge3" class="edge"><title>Node4&#45;&gt;Node3</title>
<path fill="none" stroke="midnightblue" d="M122,-516.907C122,-507.558 122,-498.139 122,-489.16"/>
<polygon fill="none" stroke="midnightblue" points="118.5,-516.998 122,-526.998 125.5,-516.998 118.5,-516.998"/>
</g>
<!-- Node5 -->
<g id="node5" class="node"><title>Node5</title>
<g id="a_node5"><a xlink:href="classdraw_1_1_drawing.html" target="_top" xlink:title="Drawing Class. ">
<polygon fill="none" stroke="black" points="-0.552734,-699 -0.552734,-923 118.553,-923 118.553,-699 -0.552734,-699"/>
<text text-anchor="middle" x="59" y="-911" font-family="Helvetica,sans-Serif" font-size="10.00">draw::Drawing</text>
<polyline fill="none" stroke="black" points="-0.552734,-905 118.553,-905 "/>
<text text-anchor="middle" x="59" y="-893" font-family="Helvetica,sans-Serif" font-size="10.00"> </text>
<polyline fill="none" stroke="black" points="-0.552734,-887 118.553,-887 "/>
<text text-anchor="start" x="7.44727" y="-875" font-family="Helvetica,sans-Serif" font-size="10.00">+ Drawing()</text>
<text text-anchor="start" x="7.44727" y="-865" font-family="Helvetica,sans-Serif" font-size="10.00">+ dark()</text>
<text text-anchor="start" x="7.44727" y="-855" font-family="Helvetica,sans-Serif" font-size="10.00">+ draw()</text>
<text text-anchor="start" x="7.44727" y="-845" font-family="Helvetica,sans-Serif" font-size="10.00">+ draw()</text>
<text text-anchor="start" x="7.44727" y="-835" font-family="Helvetica,sans-Serif" font-size="10.00">+ draw_scratch()</text>
<text text-anchor="start" x="7.44727" y="-825" font-family="Helvetica,sans-Serif" font-size="10.00">+ draw_to_scale()</text>
<text text-anchor="start" x="7.44727" y="-815" font-family="Helvetica,sans-Serif" font-size="10.00">and 18 more...</text>
<text text-anchor="start" x="7.44727" y="-805" font-family="Helvetica,sans-Serif" font-size="10.00">+ clear()</text>
<text text-anchor="start" x="7.44727" y="-795" font-family="Helvetica,sans-Serif" font-size="10.00">+ draw_checkerboard()</text>
<text text-anchor="start" x="7.44727" y="-785" font-family="Helvetica,sans-Serif" font-size="10.00">+ draw_pattern()</text>
<text text-anchor="start" x="7.44727" y="-775" font-family="Helvetica,sans-Serif" font-size="10.00">+ h()</text>
<text text-anchor="start" x="7.44727" y="-765" font-family="Helvetica,sans-Serif" font-size="10.00">+ height()</text>
<text text-anchor="start" x="7.44727" y="-755" font-family="Helvetica,sans-Serif" font-size="10.00">+ invert()</text>
<text text-anchor="start" x="7.44727" y="-745" font-family="Helvetica,sans-Serif" font-size="10.00">and 4 more...</text>
<text text-anchor="start" x="7.44727" y="-735" font-family="Helvetica,sans-Serif" font-size="10.00"># dim_on_bitmap()</text>
<text text-anchor="start" x="7.44727" y="-725" font-family="Helvetica,sans-Serif" font-size="10.00"># flag()</text>
<text text-anchor="start" x="7.44727" y="-715" font-family="Helvetica,sans-Serif" font-size="10.00"># point_on_bitmap()</text>
<text text-anchor="start" x="7.44727" y="-705" font-family="Helvetica,sans-Serif" font-size="10.00"># set_flag()</text>
</a>
</g>
</g>
<!-- Node5&#45;&gt;Node4 -->
<g id="edge4" class="edge"><title>Node5&#45;&gt;Node4</title>
<path fill="none" stroke="midnightblue" d="M94.5021,-688.842C97.269,-679.399 99.994,-670.1 102.59,-661.241"/>
<polygon fill="none" stroke="midnightblue" points="91.0605,-688.141 91.6072,-698.721 97.7781,-690.109 91.0605,-688.141"/>
</g>
<!-- Node6 -->
<g id="node6" class="node"><title>Node6</title>
<g id="a_node6"><a xlink:href="classapi_1_1_draw_work_object.html" target="_top" xlink:title="Draw Work Object. ">
<polygon fill="none" stroke="black" points="5.854,-961 5.854,-1015 116.146,-1015 116.146,-961 5.854,-961"/>
<text text-anchor="middle" x="61" y="-1003" font-family="Helvetica,sans-Serif" font-size="10.00">api::DrawWorkObject</text>
<polyline fill="none" stroke="black" points="5.854,-997 116.146,-997 "/>
<text text-anchor="middle" x="61" y="-985" font-family="Helvetica,sans-Serif" font-size="10.00"> </text>
<polyline fill="none" stroke="black" points="5.854,-979 116.146,-979 "/>
<text text-anchor="middle" x="61" y="-967" font-family="Helvetica,sans-Serif" font-size="10.00"> </text>
</a>
</g>
</g>
<!-- Node6&#45;&gt;Node5 -->
<g id="edge5" class="edge"><title>Node6&#45;&gt;Node5</title>
<path fill="none" stroke="midnightblue" d="M60.585,-950.684C60.4886,-942.251 60.381,-932.84 60.2686,-923.001"/>
<polygon fill="none" stroke="midnightblue" points="57.0864,-950.841 60.7006,-960.801 64.086,-950.761 57.0864,-950.841"/>
</g>
<!-- Node7 -->
<g id="node7" class="node"><title>Node7</title>
<g id="a_node7"><a xlink:href="classapi_1_1_work_object.html" target="_top" xlink:title="Work Object. ">
<polygon fill="none" stroke="black" points="50.9141,-1053 50.9141,-1197 193.086,-1197 193.086,-1053 50.9141,-1053"/>
<text text-anchor="middle" x="122" y="-1185" font-family="Helvetica,sans-Serif" font-size="10.00">api::WorkObject</text>
<polyline fill="none" stroke="black" points="50.9141,-1179 193.086,-1179 "/>
<text text-anchor="middle" x="122" y="-1167" font-family="Helvetica,sans-Serif" font-size="10.00"> </text>
<polyline fill="none" stroke="black" points="50.9141,-1161 193.086,-1161 "/>
<text text-anchor="start" x="58.9141" y="-1149" font-family="Helvetica,sans-Serif" font-size="10.00">+ WorkObject()</text>
<text text-anchor="start" x="58.9141" y="-1139" font-family="Helvetica,sans-Serif" font-size="10.00">+ clear_error_number()</text>
<text text-anchor="start" x="58.9141" y="-1129" font-family="Helvetica,sans-Serif" font-size="10.00">+ error_number()</text>
<text text-anchor="start" x="58.9141" y="-1119" font-family="Helvetica,sans-Serif" font-size="10.00">+ exit_fatal()</text>
<text text-anchor="start" x="58.9141" y="-1109" font-family="Helvetica,sans-Serif" font-size="10.00"># set_error_number()</text>
<text text-anchor="start" x="58.9141" y="-1099" font-family="Helvetica,sans-Serif" font-size="10.00"># set_error_number_if</text>
<text text-anchor="start" x="58.9141" y="-1089" font-family="Helvetica,sans-Serif" font-size="10.00">_error()</text>
<text text-anchor="start" x="58.9141" y="-1079" font-family="Helvetica,sans-Serif" font-size="10.00"># set_error_number_if_null()</text>
<text text-anchor="start" x="58.9141" y="-1069" font-family="Helvetica,sans-Serif" font-size="10.00"># set_error_number_to</text>
<text text-anchor="start" x="58.9141" y="-1059" font-family="Helvetica,sans-Serif" font-size="10.00">_errno()</text>
</a>
</g>
</g>
<!-- Node7&#45;&gt;Node6 -->
<g id="edge6" class="edge"><title>Node7&#45;&gt;Node6</title>
<path fill="none" stroke="midnightblue" d="M85.6404,-1043.53C81.0532,-1033.38 76.6498,-1023.63 72.8666,-1015.26"/>
<polygon fill="none" stroke="midnightblue" points="82.585,-1045.27 89.8923,-1052.94 88.964,-1042.39 82.585,-1045.27"/>
</g>
<!-- Node10 -->
<g id="node10" class="node"><title>Node10</title>
<g id="a_node10"><a xlink:href="classapi_1_1_ev_work_object.html" target="_top" xlink:title="Event Object Class. ">
<polygon fill="none" stroke="black" points="134.687,-961 134.687,-1015 233.313,-1015 233.313,-961 134.687,-961"/>
<text text-anchor="middle" x="184" y="-1003" font-family="Helvetica,sans-Serif" font-size="10.00">api::EvWorkObject</text>
<polyline fill="none" stroke="black" points="134.687,-997 233.313,-997 "/>
<text text-anchor="middle" x="184" y="-985" font-family="Helvetica,sans-Serif" font-size="10.00"> </text>
<polyline fill="none" stroke="black" points="134.687,-979 233.313,-979 "/>
<text text-anchor="middle" x="184" y="-967" font-family="Helvetica,sans-Serif" font-size="10.00"> </text>
</a>
</g>
</g>
<!-- Node7&#45;&gt;Node10 -->
<g id="edge10" class="edge"><title>Node7&#45;&gt;Node10</title>
<path fill="none" stroke="midnightblue" d="M158.813,-1043.84C163.527,-1033.58 168.054,-1023.72 171.939,-1015.26"/>
<polygon fill="none" stroke="midnightblue" points="155.627,-1042.39 154.634,-1052.94 161.988,-1045.32 155.627,-1042.39"/>
</g>
<!-- Node8 -->
<g id="node8" class="node"><title>Node8</title>
<g id="a_node8"><a xlink:href="classapi_1_1_api_object.html" target="_top" xlink:title="Application Programming Interface Object. ">
<polygon fill="none" stroke="black" points="80.7896,-1235 80.7896,-1289 163.21,-1289 163.21,-1235 80.7896,-1235"/>
<text text-anchor="middle" x="122" y="-1277" font-family="Helvetica,sans-Serif" font-size="10.00">api::ApiObject</text>
<polyline fill="none" stroke="black" points="80.7896,-1271 163.21,-1271 "/>
<text text-anchor="middle" x="122" y="-1259" font-family="Helvetica,sans-Serif" font-size="10.00"> </text>
<polyline fill="none" stroke="black" points="80.7896,-1253 163.21,-1253 "/>
<text text-anchor="start" x="88.7896" y="-1241" font-family="Helvetica,sans-Serif" font-size="10.00">+ api_version()</text>
</a>
</g>
</g>
<!-- Node8&#45;&gt;Node7 -->
<g id="edge7" class="edge"><title>Node8&#45;&gt;Node7</title>
<path fill="none" stroke="midnightblue" d="M122,-1224.93C122,-1216.29 122,-1206.77 122,-1197.14"/>
<polygon fill="none" stroke="midnightblue" points="118.5,-1224.97 122,-1234.97 125.5,-1224.97 118.5,-1224.97"/>
</g>
<!-- Node9 -->
<g id="node9" class="node"><title>Node9</title>
<g id="a_node9"><a xlink:href="classev_1_1_event_handler.html" target="_top" xlink:title="Event Handler Class. ">
<polygon fill="none" stroke="black" points="136.584,-769 136.584,-853 235.416,-853 235.416,-769 136.584,-769"/>
<text text-anchor="middle" x="186" y="-841" font-family="Helvetica,sans-Serif" font-size="10.00">ev::EventHandler</text>
<polyline fill="none" stroke="black" points="136.584,-835 235.416,-835 "/>
<text text-anchor="middle" x="186" y="-823" font-family="Helvetica,sans-Serif" font-size="10.00"> </text>
<polyline fill="none" stroke="black" points="136.584,-817 235.416,-817 "/>
<text text-anchor="start" x="144.584" y="-805" font-family="Helvetica,sans-Serif" font-size="10.00">+ EventHandler()</text>
<text text-anchor="start" x="144.584" y="-795" font-family="Helvetica,sans-Serif" font-size="10.00">+ event_loop()</text>
<text text-anchor="start" x="144.584" y="-785" font-family="Helvetica,sans-Serif" font-size="10.00">+ handle_event()</text>
<text text-anchor="start" x="144.584" y="-775" font-family="Helvetica,sans-Serif" font-size="10.00"># set_event_loop()</text>
</a>
</g>
</g>
<!-- Node9&#45;&gt;Node4 -->
<g id="edge8" class="edge"><title>Node9&#45;&gt;Node4</title>
<path fill="none" stroke="midnightblue" d="M170.869,-759.171C162.135,-729.827 151.052,-692.595 141.649,-661.008"/>
<polygon fill="none" stroke="midnightblue" points="167.528,-760.214 173.736,-768.8 174.237,-758.217 167.528,-760.214"/>
</g>
<!-- Node10&#45;&gt;Node9 -->
<g id="edge9" class="edge"><title>Node10&#45;&gt;Node9</title>
<path fill="none" stroke="midnightblue" d="M184.417,-950.484C184.742,-922.041 185.194,-882.56 185.531,-853.029"/>
<polygon fill="none" stroke="midnightblue" points="180.914,-950.761 184.299,-960.801 187.914,-950.841 180.914,-950.761"/>
</g>
<!-- Node11 -->
<g id="node11" class="node"><title>Node11</title>
<g id="a_node11"><a xlink:href="classui_1_1_list_attr.html" target="_top" xlink:title="List Attribute Class. ">
<polygon fill="none" stroke="black" points="188.398,-375 188.398,-489 303.602,-489 303.602,-375 188.398,-375"/>
<text text-anchor="middle" x="246" y="-477" font-family="Helvetica,sans-Serif" font-size="10.00">ui::ListAttr</text>
<polyline fill="none" stroke="black" points="188.398,-471 303.602,-471 "/>
<text text-anchor="middle" x="246" y="-459" font-family="Helvetica,sans-Serif" font-size="10.00"> </text>
<polyline fill="none" stroke="black" points="188.398,-453 303.602,-453 "/>
<text text-anchor="start" x="196.398" y="-441" font-family="Helvetica,sans-Serif" font-size="10.00">+ ListAttr()</text>
<text text-anchor="start" x="196.398" y="-431" font-family="Helvetica,sans-Serif" font-size="10.00">+ calc_display_items()</text>
<text text-anchor="start" x="196.398" y="-421" font-family="Helvetica,sans-Serif" font-size="10.00">+ calc_next_visible()</text>
<text text-anchor="start" x="196.398" y="-411" font-family="Helvetica,sans-Serif" font-size="10.00">+ calc_visible_offset()</text>
<text text-anchor="start" x="196.398" y="-401" font-family="Helvetica,sans-Serif" font-size="10.00">+ dec_selected()</text>
<text text-anchor="start" x="196.398" y="-391" font-family="Helvetica,sans-Serif" font-size="10.00">+ inc_selected()</text>
<text text-anchor="start" x="196.398" y="-381" font-family="Helvetica,sans-Serif" font-size="10.00">and 7 more...</text>
</a>
</g>
</g>
<!-- Node11&#45;&gt;Node2 -->
<g id="edge11" class="edge"><title>Node11&#45;&gt;Node2</title>
<path fill="none" stroke="midnightblue" d="M225.592,-365.168C222.801,-356.165 219.88,-346.741 216.935,-337.243"/>
<polygon fill="none" stroke="midnightblue" points="222.26,-366.241 228.565,-374.757 228.947,-364.169 222.26,-366.241"/>
</g>
</g>
</svg>
        <g id="navigator" transform="translate(0 0)" fill="#404254">
                <rect fill="#f2f5e9" fill-opacity="0.5" stroke="#606060" stroke-width=".5" x="0" y="0" width="60" height="60"/>
                <use id="zoomplus" xlink:href="#zoomPlus" x="17" y="9" onmousedown="handleZoom(evt,'in')"/>
                <use id="zoomminus" xlink:href="#zoomMin" x="42" y="9" onmousedown="handleZoom(evt,'out')"/>
                <use id="reset" xlink:href="#resetDef" x="30" y="36" onmousedown="handleReset()"/>
                <g id="arrowUp" xlink:href="#dirArrow" transform="translate(30 24)" onmousedown="handlePan(0,-1)">
                  <use xlink:href="#rim" fill="#404040">
                        <set attributeName="fill" to="#808080" begin="arrowUp.mouseover" end="arrowUp.mouseout"/>
                  </use>
                  <path fill="none" stroke="white" stroke-width="1.5" d="M0,-3.0v7 M-2.5,-0.5L0,-3.0L2.5,-0.5"/>
                </g>
                <g id="arrowRight" xlink:href="#dirArrow" transform="rotate(90) translate(36 -43)" onmousedown="handlePan(1,0)">
                  <use xlink:href="#rim" fill="#404040">
                        <set attributeName="fill" to="#808080" begin="arrowRight.mouseover" end="arrowRight.mouseout"/>
                  </use>
                  <path fill="none" stroke="white" stroke-width="1.5" d="M0,-3.0v7 M-2.5,-0.5L0,-3.0L2.5,-0.5"/>
                </g>
                <g id="arrowDown" xlink:href="#dirArrow" transform="rotate(180) translate(-30 -48)" onmousedown="handlePan(0,1)">
                  <use xlink:href="#rim" fill="#404040">
                        <set attributeName="fill" to="#808080" begin="arrowDown.mouseover" end="arrowDown.mouseout"/>
                  </use>
                  <path fill="none" stroke="white" stroke-width="1.5" d="M0,-3.0v7 M-2.5,-0.5L0,-3.0L2.5,-0.5"/>
                </g>
                <g id="arrowLeft" xlink:href="#dirArrow" transform="rotate(270) translate(-36 17)" onmousedown="handlePan(-1,0)">
                  <use xlink:href="#rim" fill="#404040">
                        <set attributeName="fill" to="#808080" begin="arrowLeft.mouseover" end="arrowLeft.mouseout"/>
                  </use>
                  <path fill="none" stroke="white" stroke-width="1.5" d="M0,-3.0v7 M-2.5,-0.5L0,-3.0L2.5,-0.5"/>
                </g>
        </g>
        <svg viewBox="0 0 15 15" width="100%" height="30px" preserveAspectRatio="xMaxYMin meet">
         <g id="arrow_out" transform="scale(0.3 0.3)">
          <a xlink:href="classui_1_1_menu_list__inherit__graph_org.svg" target="_base">
           <rect id="button" ry="5" rx="5" y="6" x="6" height="38" width="38"
                fill="#f2f5e9" fill-opacity="0.5" stroke="#606060" stroke-width="1.0"/>
           <path id="arrow"
             d="M 11.500037,31.436501 C 11.940474,20.09759 22.043105,11.32322 32.158766,21.979434 L 37.068811,17.246167 C 37.068811,17.246167 37.088388,32 37.088388,32 L 22.160133,31.978069 C 22.160133,31.978069 26.997745,27.140456 26.997745,27.140456 C 18.528582,18.264221 13.291696,25.230495 11.500037,31.436501 z"
             style="fill:#404040;"/>
          </a>
         </g>
        </svg>
</svg>
