<?xml version="1.0" encoding="UTF-8" standalone="no"?>
<!DOCTYPE svg PUBLIC "-//W3C//DTD SVG 1.1//EN"
 "http://www.w3.org/Graphics/SVG/1.1/DTD/svg11.dtd">
<!-- Generated by graphviz version 2.36.0 (20140111.2315)
 -->
<!-- Title: hal::Pwm Pages: 1 -->
<svg width="219pt" height="1568pt"
 viewBox="0.00 0.00 219.21 1568.00" xmlns="http://www.w3.org/2000/svg" xmlns:xlink="http://www.w3.org/1999/xlink">
<g id="graph0" class="graph" transform="scale(1 1) rotate(0) translate(4 1564)">
<title>hal::Pwm</title>
<!-- Node1 -->
<g id="node1" class="node"><title>Node1</title>
<polygon fill="#bfbfbf" stroke="black" points="29.8955,-1 29.8955,-135 120.104,-135 120.104,-1 29.8955,-1"/>
<text text-anchor="middle" x="75" y="-123" font-family="Helvetica,sans-Serif" font-size="10.00">hal::Pwm</text>
<polyline fill="none" stroke="black" points="29.8955,-117 120.104,-117 "/>
<text text-anchor="middle" x="75" y="-105" font-family="Helvetica,sans-Serif" font-size="10.00"> </text>
<polyline fill="none" stroke="black" points="29.8955,-99 120.104,-99 "/>
<text text-anchor="start" x="37.8955" y="-87" font-family="Helvetica,sans-Serif" font-size="10.00">+ Pwm()</text>
<text text-anchor="start" x="37.8955" y="-77" font-family="Helvetica,sans-Serif" font-size="10.00">+ disable()</text>
<text text-anchor="start" x="37.8955" y="-67" font-family="Helvetica,sans-Serif" font-size="10.00">+ enable()</text>
<text text-anchor="start" x="37.8955" y="-57" font-family="Helvetica,sans-Serif" font-size="10.00">+ get_channel()</text>
<text text-anchor="start" x="37.8955" y="-47" font-family="Helvetica,sans-Serif" font-size="10.00">+ init()</text>
<text text-anchor="start" x="37.8955" y="-37" font-family="Helvetica,sans-Serif" font-size="10.00">+ set_attr()</text>
<text text-anchor="start" x="37.8955" y="-27" font-family="Helvetica,sans-Serif" font-size="10.00">+ set_channel()</text>
<text text-anchor="start" x="37.8955" y="-17" font-family="Helvetica,sans-Serif" font-size="10.00">+ set_channel()</text>
<text text-anchor="start" x="37.8955" y="-7" font-family="Helvetica,sans-Serif" font-size="10.00">+ set_channels()</text>
</g>
<!-- Node2 -->
<g id="node2" class="node"><title>Node2</title>
<g id="a_node2"><a xlink:href="classhal_1_1_periph.html" target="_top" xlink:title="{hal::Periph\&lt; pwm_info\l_t, pwm_attr_t, &#39;p&#39;\&gt;\n||+ Periph()\l+ get_info()\l+ get_version()\l+ init()\l+ port()\l+ set_action()\l+ set_action()\l+ set_attr()\l+ set_attr()\l# get_channel()\l# set_channel()\l# set_channel()\l}">
<polygon fill="none" stroke="black" points="17.3882,-175 17.3882,-349 132.612,-349 132.612,-175 17.3882,-175"/>
<text text-anchor="start" x="25.3882" y="-337" font-family="Helvetica,sans-Serif" font-size="10.00">hal::Periph&lt; pwm_info</text>
<text text-anchor="middle" x="75" y="-327" font-family="Helvetica,sans-Serif" font-size="10.00">_t, pwm_attr_t, &#39;p&#39;&gt;</text>
<polyline fill="none" stroke="black" points="17.3882,-321 132.612,-321 "/>
<text text-anchor="middle" x="75" y="-309" font-family="Helvetica,sans-Serif" font-size="10.00"> </text>
<polyline fill="none" stroke="black" points="17.3882,-303 132.612,-303 "/>
<text text-anchor="start" x="25.3882" y="-291" font-family="Helvetica,sans-Serif" font-size="10.00">+ Periph()</text>
<text text-anchor="start" x="25.3882" y="-281" font-family="Helvetica,sans-Serif" font-size="10.00">+ get_info()</text>
<text text-anchor="start" x="25.3882" y="-271" font-family="Helvetica,sans-Serif" font-size="10.00">+ get_version()</text>
<text text-anchor="start" x="25.3882" y="-261" font-family="Helvetica,sans-Serif" font-size="10.00">+ init()</text>
<text text-anchor="start" x="25.3882" y="-251" font-family="Helvetica,sans-Serif" font-size="10.00">+ port()</text>
<text text-anchor="start" x="25.3882" y="-241" font-family="Helvetica,sans-Serif" font-size="10.00">+ set_action()</text>
<text text-anchor="start" x="25.3882" y="-231" font-family="Helvetica,sans-Serif" font-size="10.00">+ set_action()</text>
<text text-anchor="start" x="25.3882" y="-221" font-family="Helvetica,sans-Serif" font-size="10.00">+ set_attr()</text>
<text text-anchor="start" x="25.3882" y="-211" font-family="Helvetica,sans-Serif" font-size="10.00">+ set_attr()</text>
<text text-anchor="start" x="25.3882" y="-201" font-family="Helvetica,sans-Serif" font-size="10.00"># get_channel()</text>
<text text-anchor="start" x="25.3882" y="-191" font-family="Helvetica,sans-Serif" font-size="10.00"># set_channel()</text>
<text text-anchor="start" x="25.3882" y="-181" font-family="Helvetica,sans-Serif" font-size="10.00"># set_channel()</text>
</a>
</g>
</g>
<!-- Node2&#45;&gt;Node1 -->
<g id="edge1" class="edge"><title>Node2&#45;&gt;Node1</title>
<path fill="none" stroke="midnightblue" d="M75,-164.778C75,-154.712 75,-144.649 75,-135.032"/>
<polygon fill="none" stroke="midnightblue" points="71.5001,-164.828 75,-174.828 78.5001,-164.828 71.5001,-164.828"/>
</g>
<!-- Node3 -->
<g id="node3" class="node"><title>Node3</title>
<g id="a_node3"><a xlink:href="classhal_1_1_periph_object.html" target="_top" xlink:title="Periph Object Class. ">
<polygon fill="none" stroke="black" points="12.6455,-621 12.6455,-785 105.354,-785 105.354,-621 12.6455,-621"/>
<text text-anchor="middle" x="59" y="-773" font-family="Helvetica,sans-Serif" font-size="10.00">hal::PeriphObject</text>
<polyline fill="none" stroke="black" points="12.6455,-767 105.354,-767 "/>
<text text-anchor="start" x="20.6455" y="-755" font-family="Helvetica,sans-Serif" font-size="10.00"># m_periph_port</text>
<polyline fill="none" stroke="black" points="12.6455,-749 105.354,-749 "/>
<text text-anchor="start" x="20.6455" y="-737" font-family="Helvetica,sans-Serif" font-size="10.00">+ close()</text>
<text text-anchor="start" x="20.6455" y="-727" font-family="Helvetica,sans-Serif" font-size="10.00">+ fileno()</text>
<text text-anchor="start" x="20.6455" y="-717" font-family="Helvetica,sans-Serif" font-size="10.00">+ ioctl()</text>
<text text-anchor="start" x="20.6455" y="-707" font-family="Helvetica,sans-Serif" font-size="10.00">+ open()</text>
<text text-anchor="start" x="20.6455" y="-697" font-family="Helvetica,sans-Serif" font-size="10.00">+ read()</text>
<text text-anchor="start" x="20.6455" y="-687" font-family="Helvetica,sans-Serif" font-size="10.00">+ read()</text>
<text text-anchor="start" x="20.6455" y="-677" font-family="Helvetica,sans-Serif" font-size="10.00">+ seek()</text>
<text text-anchor="start" x="20.6455" y="-667" font-family="Helvetica,sans-Serif" font-size="10.00">+ write()</text>
<text text-anchor="start" x="20.6455" y="-657" font-family="Helvetica,sans-Serif" font-size="10.00">+ write()</text>
<text text-anchor="start" x="20.6455" y="-647" font-family="Helvetica,sans-Serif" font-size="10.00"># lookup_fileno()</text>
<text text-anchor="start" x="20.6455" y="-637" font-family="Helvetica,sans-Serif" font-size="10.00"># open()</text>
<text text-anchor="start" x="20.6455" y="-627" font-family="Helvetica,sans-Serif" font-size="10.00"># update_fileno()</text>
</a>
</g>
</g>
<!-- Node3&#45;&gt;Node2 -->
<g id="edge2" class="edge"><title>Node3&#45;&gt;Node2</title>
<path fill="none" stroke="midnightblue" d="M60.2368,-610.609C61.2573,-552.092 63.0333,-474.552 66,-406 66.7959,-387.609 67.8837,-367.902 69.0281,-349.176"/>
<polygon fill="none" stroke="midnightblue" points="56.7318,-610.88 60.061,-620.938 63.7308,-610.999 56.7318,-610.88"/>
</g>
<!-- Node10 -->
<g id="node10" class="node"><title>Node10</title>
<g id="a_node10"><a xlink:href="classhal_1_1_periph.html" target="_top" xlink:title="Peripheral Class. ">
<polygon fill="none" stroke="black" points="74.7798,-407 74.7798,-581 177.22,-581 177.22,-407 74.7798,-407"/>
<text text-anchor="start" x="82.7798" y="-569" font-family="Helvetica,sans-Serif" font-size="10.00">hal::Periph&lt; info_t,</text>
<text text-anchor="middle" x="126" y="-559" font-family="Helvetica,sans-Serif" font-size="10.00"> attr_t, ident_char &gt;</text>
<polyline fill="none" stroke="black" points="74.7798,-553 177.22,-553 "/>
<text text-anchor="middle" x="126" y="-541" font-family="Helvetica,sans-Serif" font-size="10.00"> </text>
<polyline fill="none" stroke="black" points="74.7798,-535 177.22,-535 "/>
<text text-anchor="start" x="82.7798" y="-523" font-family="Helvetica,sans-Serif" font-size="10.00">+ Periph()</text>
<text text-anchor="start" x="82.7798" y="-513" font-family="Helvetica,sans-Serif" font-size="10.00">+ get_info()</text>
<text text-anchor="start" x="82.7798" y="-503" font-family="Helvetica,sans-Serif" font-size="10.00">+ get_version()</text>
<text text-anchor="start" x="82.7798" y="-493" font-family="Helvetica,sans-Serif" font-size="10.00">+ init()</text>
<text text-anchor="start" x="82.7798" y="-483" font-family="Helvetica,sans-Serif" font-size="10.00">+ port()</text>
<text text-anchor="start" x="82.7798" y="-473" font-family="Helvetica,sans-Serif" font-size="10.00">+ set_action()</text>
<text text-anchor="start" x="82.7798" y="-463" font-family="Helvetica,sans-Serif" font-size="10.00">+ set_action()</text>
<text text-anchor="start" x="82.7798" y="-453" font-family="Helvetica,sans-Serif" font-size="10.00">+ set_attr()</text>
<text text-anchor="start" x="82.7798" y="-443" font-family="Helvetica,sans-Serif" font-size="10.00">+ set_attr()</text>
<text text-anchor="start" x="82.7798" y="-433" font-family="Helvetica,sans-Serif" font-size="10.00"># get_channel()</text>
<text text-anchor="start" x="82.7798" y="-423" font-family="Helvetica,sans-Serif" font-size="10.00"># set_channel()</text>
<text text-anchor="start" x="82.7798" y="-413" font-family="Helvetica,sans-Serif" font-size="10.00"># set_channel()</text>
</a>
</g>
</g>
<!-- Node3&#45;&gt;Node10 -->
<g id="edge10" class="edge"><title>Node3&#45;&gt;Node10</title>
<path fill="none" stroke="midnightblue" d="M88.3752,-611.244C91.6162,-601.231 94.9095,-591.056 98.1313,-581.102"/>
<polygon fill="none" stroke="midnightblue" points="85.0375,-610.19 85.2879,-620.782 91.6973,-612.346 85.0375,-610.19"/>
</g>
<!-- Node4 -->
<g id="node4" class="node"><title>Node4</title>
<g id="a_node4"><a xlink:href="classhal_1_1_device.html" target="_top" xlink:title="Device Class. ">
<polygon fill="none" stroke="black" points="26.2661,-825 26.2661,-899 91.7339,-899 91.7339,-825 26.2661,-825"/>
<text text-anchor="middle" x="59" y="-887" font-family="Helvetica,sans-Serif" font-size="10.00">hal::Device</text>
<polyline fill="none" stroke="black" points="26.2661,-881 91.7339,-881 "/>
<text text-anchor="middle" x="59" y="-869" font-family="Helvetica,sans-Serif" font-size="10.00"> </text>
<polyline fill="none" stroke="black" points="26.2661,-863 91.7339,-863 "/>
<text text-anchor="start" x="34.2661" y="-851" font-family="Helvetica,sans-Serif" font-size="10.00">+ Device()</text>
<text text-anchor="start" x="34.2661" y="-841" font-family="Helvetica,sans-Serif" font-size="10.00">+ read()</text>
<text text-anchor="start" x="34.2661" y="-831" font-family="Helvetica,sans-Serif" font-size="10.00">+ write()</text>
</a>
</g>
</g>
<!-- Node4&#45;&gt;Node3 -->
<g id="edge3" class="edge"><title>Node4&#45;&gt;Node3</title>
<path fill="none" stroke="midnightblue" d="M59,-814.793C59,-805.459 59,-795.388 59,-785.256"/>
<polygon fill="none" stroke="midnightblue" points="55.5001,-814.981 59,-824.981 62.5001,-814.981 55.5001,-814.981"/>
</g>
<!-- Node5 -->
<g id="node5" class="node"><title>Node5</title>
<g id="a_node5"><a xlink:href="classapi_1_1_hal_work_object.html" target="_top" xlink:title="Hal Object Class. ">
<polygon fill="none" stroke="black" points="8.01904,-939 8.01904,-993 109.981,-993 109.981,-939 8.01904,-939"/>
<text text-anchor="middle" x="59" y="-981" font-family="Helvetica,sans-Serif" font-size="10.00">api::HalWorkObject</text>
<polyline fill="none" stroke="black" points="8.01904,-975 109.981,-975 "/>
<text text-anchor="middle" x="59" y="-963" font-family="Helvetica,sans-Serif" font-size="10.00"> </text>
<polyline fill="none" stroke="black" points="8.01904,-957 109.981,-957 "/>
<text text-anchor="middle" x="59" y="-945" font-family="Helvetica,sans-Serif" font-size="10.00"> </text>
</a>
</g>
</g>
<!-- Node5&#45;&gt;Node4 -->
<g id="edge4" class="edge"><title>Node5&#45;&gt;Node4</title>
<path fill="none" stroke="midnightblue" d="M59,-928.952C59,-919.347 59,-908.966 59,-899.345"/>
<polygon fill="none" stroke="midnightblue" points="55.5001,-928.997 59,-938.997 62.5001,-928.997 55.5001,-928.997"/>
</g>
<!-- Node6 -->
<g id="node6" class="node"><title>Node6</title>
<g id="a_node6"><a xlink:href="classsys_1_1_file.html" target="_top" xlink:title="File Class. ">
<polygon fill="none" stroke="black" points="18.7588,-1033 18.7588,-1197 99.2412,-1197 99.2412,-1033 18.7588,-1033"/>
<text text-anchor="middle" x="59" y="-1185" font-family="Helvetica,sans-Serif" font-size="10.00">sys::File</text>
<polyline fill="none" stroke="black" points="18.7588,-1179 99.2412,-1179 "/>
<text text-anchor="start" x="26.7588" y="-1167" font-family="Helvetica,sans-Serif" font-size="10.00"># m_fd</text>
<polyline fill="none" stroke="black" points="18.7588,-1161 99.2412,-1161 "/>
<text text-anchor="start" x="26.7588" y="-1149" font-family="Helvetica,sans-Serif" font-size="10.00">+ File()</text>
<text text-anchor="start" x="26.7588" y="-1139" font-family="Helvetica,sans-Serif" font-size="10.00">+ close()</text>
<text text-anchor="start" x="26.7588" y="-1129" font-family="Helvetica,sans-Serif" font-size="10.00">+ create()</text>
<text text-anchor="start" x="26.7588" y="-1119" font-family="Helvetica,sans-Serif" font-size="10.00">+ fileno()</text>
<text text-anchor="start" x="26.7588" y="-1109" font-family="Helvetica,sans-Serif" font-size="10.00">+ flags()</text>
<text text-anchor="start" x="26.7588" y="-1099" font-family="Helvetica,sans-Serif" font-size="10.00">+ gets()</text>
<text text-anchor="start" x="26.7588" y="-1089" font-family="Helvetica,sans-Serif" font-size="10.00">and 21 more...</text>
<text text-anchor="start" x="26.7588" y="-1079" font-family="Helvetica,sans-Serif" font-size="10.00">+ name()</text>
<text text-anchor="start" x="26.7588" y="-1069" font-family="Helvetica,sans-Serif" font-size="10.00">+ remove()</text>
<text text-anchor="start" x="26.7588" y="-1059" font-family="Helvetica,sans-Serif" font-size="10.00">+ size()</text>
<text text-anchor="start" x="26.7588" y="-1049" font-family="Helvetica,sans-Serif" font-size="10.00">+ stat()</text>
<text text-anchor="start" x="26.7588" y="-1039" font-family="Helvetica,sans-Serif" font-size="10.00">+ suffix()</text>
</a>
</g>
</g>
<!-- Node6&#45;&gt;Node5 -->
<g id="edge5" class="edge"><title>Node6&#45;&gt;Node5</title>
<path fill="none" stroke="midnightblue" d="M59,-1022.44C59,-1011.82 59,-1001.73 59,-993.143"/>
<polygon fill="none" stroke="midnightblue" points="55.5001,-1022.76 59,-1032.76 62.5001,-1022.76 55.5001,-1022.76"/>
</g>
<!-- Node7 -->
<g id="node7" class="node"><title>Node7</title>
<g id="a_node7"><a xlink:href="classapi_1_1_sys_work_object.html" target="_top" xlink:title="System Work Object Class. ">
<polygon fill="none" stroke="black" points="7.18652,-1237 7.18652,-1291 110.813,-1291 110.813,-1237 7.18652,-1237"/>
<text text-anchor="middle" x="59" y="-1279" font-family="Helvetica,sans-Serif" font-size="10.00">api::SysWorkObject</text>
<polyline fill="none" stroke="black" points="7.18652,-1273 110.813,-1273 "/>
<text text-anchor="middle" x="59" y="-1261" font-family="Helvetica,sans-Serif" font-size="10.00"> </text>
<polyline fill="none" stroke="black" points="7.18652,-1255 110.813,-1255 "/>
<text text-anchor="middle" x="59" y="-1243" font-family="Helvetica,sans-Serif" font-size="10.00"> </text>
</a>
</g>
</g>
<!-- Node7&#45;&gt;Node6 -->
<g id="edge6" class="edge"><title>Node7&#45;&gt;Node6</title>
<path fill="none" stroke="midnightblue" d="M59,-1226.61C59,-1217.55 59,-1207.48 59,-1197.21"/>
<polygon fill="none" stroke="midnightblue" points="55.5001,-1226.72 59,-1236.72 62.5001,-1226.72 55.5001,-1226.72"/>
</g>
<!-- Node8 -->
<g id="node8" class="node"><title>Node8</title>
<g id="a_node8"><a xlink:href="classapi_1_1_work_object.html" target="_top" xlink:title="WorkObject Class. ">
<polygon fill="none" stroke="black" points="-0.547852,-1331 -0.547852,-1465 118.548,-1465 118.548,-1331 -0.547852,-1331"/>
<text text-anchor="middle" x="59" y="-1453" font-family="Helvetica,sans-Serif" font-size="10.00">api::WorkObject</text>
<polyline fill="none" stroke="black" points="-0.547852,-1447 118.548,-1447 "/>
<text text-anchor="middle" x="59" y="-1435" font-family="Helvetica,sans-Serif" font-size="10.00"> </text>
<polyline fill="none" stroke="black" points="-0.547852,-1429 118.548,-1429 "/>
<text text-anchor="start" x="7.45215" y="-1417" font-family="Helvetica,sans-Serif" font-size="10.00">+ WorkObject()</text>
<text text-anchor="start" x="7.45215" y="-1407" font-family="Helvetica,sans-Serif" font-size="10.00">+ clear_error_number()</text>
<text text-anchor="start" x="7.45215" y="-1397" font-family="Helvetica,sans-Serif" font-size="10.00">+ error_number()</text>
<text text-anchor="start" x="7.45215" y="-1387" font-family="Helvetica,sans-Serif" font-size="10.00">+ exit_fatal()</text>
<text text-anchor="start" x="7.45215" y="-1377" font-family="Helvetica,sans-Serif" font-size="10.00"># set_error_number()</text>
<text text-anchor="start" x="7.45215" y="-1367" font-family="Helvetica,sans-Serif" font-size="10.00"># set_error_number_if</text>
<text text-anchor="start" x="7.45215" y="-1357" font-family="Helvetica,sans-Serif" font-size="10.00">_error()</text>
<text text-anchor="start" x="7.45215" y="-1347" font-family="Helvetica,sans-Serif" font-size="10.00"># set_error_number_to</text>
<text text-anchor="start" x="7.45215" y="-1337" font-family="Helvetica,sans-Serif" font-size="10.00">_errno()</text>
</a>
</g>
</g>
<!-- Node8&#45;&gt;Node7 -->
<g id="edge7" class="edge"><title>Node8&#45;&gt;Node7</title>
<path fill="none" stroke="midnightblue" d="M59,-1320.48C59,-1310 59,-1299.88 59,-1291.21"/>
<polygon fill="none" stroke="midnightblue" points="55.5001,-1320.61 59,-1330.61 62.5001,-1320.61 55.5001,-1320.61"/>
</g>
<!-- Node9 -->
<g id="node9" class="node"><title>Node9</title>
<g id="a_node9"><a xlink:href="classapi_1_1_api_object.html" target="_top" xlink:title="API Object Class. ">
<polygon fill="none" stroke="black" points="17.7896,-1505 17.7896,-1559 100.21,-1559 100.21,-1505 17.7896,-1505"/>
<text text-anchor="middle" x="59" y="-1547" font-family="Helvetica,sans-Serif" font-size="10.00">api::ApiObject</text>
<polyline fill="none" stroke="black" points="17.7896,-1541 100.21,-1541 "/>
<text text-anchor="middle" x="59" y="-1529" font-family="Helvetica,sans-Serif" font-size="10.00"> </text>
<polyline fill="none" stroke="black" points="17.7896,-1523 100.21,-1523 "/>
<text text-anchor="start" x="25.7896" y="-1511" font-family="Helvetica,sans-Serif" font-size="10.00">+ api_version()</text>
</a>
</g>
</g>
<!-- Node9&#45;&gt;Node8 -->
<g id="edge8" class="edge"><title>Node9&#45;&gt;Node8</title>
<path fill="none" stroke="midnightblue" d="M59,-1494.66C59,-1485.5 59,-1475.38 59,-1465.24"/>
<polygon fill="none" stroke="midnightblue" points="55.5001,-1494.92 59,-1504.92 62.5001,-1494.92 55.5001,-1494.92"/>
</g>
<!-- Node10&#45;&gt;Node2 -->
<g id="edge9" class="edge"><title>Node10&#45;&gt;Node2</title>
<path fill="none" stroke="orange" d="M104.688,-396.888C101.167,-381.006 97.5354,-364.63 94.0732,-349.017"/>
<polygon fill="orange" stroke="orange" points="101.282,-397.697 106.864,-406.702 108.116,-396.182 101.282,-397.697"/>
<text text-anchor="start" x="102" y="-380" font-family="Helvetica,sans-Serif" font-size="10.00"> &lt; pwm_info_t, pwm_attr</text>
<text text-anchor="middle" x="156.607" y="-370" font-family="Helvetica,sans-Serif" font-size="10.00">_t, &#39;p&#39;&gt;</text>
</g>
</g>
</svg>
