<?xml version="1.0" encoding="UTF-8" standalone="no"?>
<!DOCTYPE svg PUBLIC "-//W3C//DTD SVG 1.1//EN"
 "http://www.w3.org/Graphics/SVG/1.1/DTD/svg11.dtd">
<!-- Generated by graphviz version 2.36.0 (20140111.2315)
 -->
<!-- Title: calc::Lookup&lt; data_type &gt; Pages: 1 -->
<svg width="150pt" height="450pt"
 viewBox="0.00 0.00 150.00 450.00" xmlns="http://www.w3.org/2000/svg" xmlns:xlink="http://www.w3.org/1999/xlink">
<g id="graph0" class="graph" transform="scale(1 1) rotate(0) translate(4 446)">
<title>calc::Lookup&lt; data_type &gt;</title>
<!-- Node1 -->
<g id="node1" class="node"><title>Node1</title>
<polygon fill="#bfbfbf" stroke="black" points="20.8857,-1 20.8857,-75 121.114,-75 121.114,-1 20.8857,-1"/>
<text text-anchor="start" x="28.8857" y="-63" font-family="Helvetica,sans-Serif" font-size="10.00">calc::Lookup&lt; data</text>
<text text-anchor="middle" x="71" y="-53" font-family="Helvetica,sans-Serif" font-size="10.00">_type &gt;</text>
<polyline fill="none" stroke="black" points="20.8857,-47 121.114,-47 "/>
<text text-anchor="middle" x="71" y="-35" font-family="Helvetica,sans-Serif" font-size="10.00"> </text>
<polyline fill="none" stroke="black" points="20.8857,-29 121.114,-29 "/>
<text text-anchor="start" x="28.8857" y="-17" font-family="Helvetica,sans-Serif" font-size="10.00">+ Lookup()</text>
<text text-anchor="start" x="28.8857" y="-7" font-family="Helvetica,sans-Serif" font-size="10.00">+ calc_value()</text>
</g>
<!-- Node2 -->
<g id="node2" class="node"><title>Node2</title>
<g id="a_node2"><a xlink:href="classapi_1_1_calc_work_object.html" target="_top" xlink:title="Calc Work Object. ">
<polygon fill="none" stroke="black" points="17.519,-113 17.519,-167 124.481,-167 124.481,-113 17.519,-113"/>
<text text-anchor="middle" x="71" y="-155" font-family="Helvetica,sans-Serif" font-size="10.00">api::CalcWorkObject</text>
<polyline fill="none" stroke="black" points="17.519,-149 124.481,-149 "/>
<text text-anchor="middle" x="71" y="-137" font-family="Helvetica,sans-Serif" font-size="10.00"> </text>
<polyline fill="none" stroke="black" points="17.519,-131 124.481,-131 "/>
<text text-anchor="middle" x="71" y="-119" font-family="Helvetica,sans-Serif" font-size="10.00"> </text>
</a>
</g>
</g>
<!-- Node2&#45;&gt;Node1 -->
<g id="edge1" class="edge"><title>Node2&#45;&gt;Node1</title>
<path fill="none" stroke="midnightblue" d="M71,-102.767C71,-93.7395 71,-84.063 71,-75.0449"/>
<polygon fill="none" stroke="midnightblue" points="67.5001,-102.987 71,-112.987 74.5001,-102.987 67.5001,-102.987"/>
</g>
<!-- Node3 -->
<g id="node3" class="node"><title>Node3</title>
<g id="a_node3"><a xlink:href="classapi_1_1_work_object.html" target="_top" xlink:title="Work Object. ">
<polygon fill="none" stroke="black" points="-0.0859375,-205 -0.0859375,-349 142.086,-349 142.086,-205 -0.0859375,-205"/>
<text text-anchor="middle" x="71" y="-337" font-family="Helvetica,sans-Serif" font-size="10.00">api::WorkObject</text>
<polyline fill="none" stroke="black" points="-0.0859375,-331 142.086,-331 "/>
<text text-anchor="middle" x="71" y="-319" font-family="Helvetica,sans-Serif" font-size="10.00"> </text>
<polyline fill="none" stroke="black" points="-0.0859375,-313 142.086,-313 "/>
<text text-anchor="start" x="7.91406" y="-301" font-family="Helvetica,sans-Serif" font-size="10.00">+ WorkObject()</text>
<text text-anchor="start" x="7.91406" y="-291" font-family="Helvetica,sans-Serif" font-size="10.00">+ clear_error_number()</text>
<text text-anchor="start" x="7.91406" y="-281" font-family="Helvetica,sans-Serif" font-size="10.00">+ error_number()</text>
<text text-anchor="start" x="7.91406" y="-271" font-family="Helvetica,sans-Serif" font-size="10.00">+ exit_fatal()</text>
<text text-anchor="start" x="7.91406" y="-261" font-family="Helvetica,sans-Serif" font-size="10.00"># set_error_number()</text>
<text text-anchor="start" x="7.91406" y="-251" font-family="Helvetica,sans-Serif" font-size="10.00"># set_error_number_if</text>
<text text-anchor="start" x="7.91406" y="-241" font-family="Helvetica,sans-Serif" font-size="10.00">_error()</text>
<text text-anchor="start" x="7.91406" y="-231" font-family="Helvetica,sans-Serif" font-size="10.00"># set_error_number_if_null()</text>
<text text-anchor="start" x="7.91406" y="-221" font-family="Helvetica,sans-Serif" font-size="10.00"># set_error_number_to</text>
<text text-anchor="start" x="7.91406" y="-211" font-family="Helvetica,sans-Serif" font-size="10.00">_errno()</text>
</a>
</g>
</g>
<!-- Node3&#45;&gt;Node2 -->
<g id="edge2" class="edge"><title>Node3&#45;&gt;Node2</title>
<path fill="none" stroke="midnightblue" d="M71,-194.911C71,-184.983 71,-175.464 71,-167.262"/>
<polygon fill="none" stroke="midnightblue" points="67.5001,-194.942 71,-204.942 74.5001,-194.942 67.5001,-194.942"/>
</g>
<!-- Node4 -->
<g id="node4" class="node"><title>Node4</title>
<g id="a_node4"><a xlink:href="classapi_1_1_api_object.html" target="_top" xlink:title="Application Programming Interface Object. ">
<polygon fill="none" stroke="black" points="29.7896,-387 29.7896,-441 112.21,-441 112.21,-387 29.7896,-387"/>
<text text-anchor="middle" x="71" y="-429" font-family="Helvetica,sans-Serif" font-size="10.00">api::ApiObject</text>
<polyline fill="none" stroke="black" points="29.7896,-423 112.21,-423 "/>
<text text-anchor="middle" x="71" y="-411" font-family="Helvetica,sans-Serif" font-size="10.00"> </text>
<polyline fill="none" stroke="black" points="29.7896,-405 112.21,-405 "/>
<text text-anchor="start" x="37.7896" y="-393" font-family="Helvetica,sans-Serif" font-size="10.00">+ api_version()</text>
</a>
</g>
</g>
<!-- Node4&#45;&gt;Node3 -->
<g id="edge3" class="edge"><title>Node4&#45;&gt;Node3</title>
<path fill="none" stroke="midnightblue" d="M71,-376.925C71,-368.287 71,-358.765 71,-349.145"/>
<polygon fill="none" stroke="midnightblue" points="67.5001,-376.971 71,-386.971 74.5001,-376.971 67.5001,-376.971"/>
</g>
</g>
</svg>
