<?xml version="1.0" encoding="UTF-8" standalone="no"?>
<!DOCTYPE svg PUBLIC "-//W3C//DTD SVG 1.1//EN"
 "http://www.w3.org/Graphics/SVG/1.1/DTD/svg11.dtd">
<!-- Generated by graphviz version 2.36.0 (20140111.2315)
 -->
<!-- Title: chrono::Timer Pages: 1 -->
<svg width="126pt" height="530pt"
 viewBox="0.00 0.00 126.00 530.00" xmlns="http://www.w3.org/2000/svg" xmlns:xlink="http://www.w3.org/1999/xlink">
<g id="graph0" class="graph" transform="scale(1 1) rotate(0) translate(4 526)">
<title>chrono::Timer</title>
<!-- Node1 -->
<g id="node1" class="node"><title>Node1</title>
<polygon fill="#bfbfbf" stroke="black" points="18.7588,-1 18.7588,-145 99.2412,-145 99.2412,-1 18.7588,-1"/>
<text text-anchor="middle" x="59" y="-133" font-family="Helvetica,sans-Serif" font-size="10.00">chrono::Timer</text>
<polyline fill="none" stroke="black" points="18.7588,-127 99.2412,-127 "/>
<text text-anchor="middle" x="59" y="-115" font-family="Helvetica,sans-Serif" font-size="10.00"> </text>
<polyline fill="none" stroke="black" points="18.7588,-109 99.2412,-109 "/>
<text text-anchor="start" x="26.7588" y="-97" font-family="Helvetica,sans-Serif" font-size="10.00">+ Timer()</text>
<text text-anchor="start" x="26.7588" y="-87" font-family="Helvetica,sans-Serif" font-size="10.00">+ calc_msec()</text>
<text text-anchor="start" x="26.7588" y="-77" font-family="Helvetica,sans-Serif" font-size="10.00">+ calc_sec()</text>
<text text-anchor="start" x="26.7588" y="-67" font-family="Helvetica,sans-Serif" font-size="10.00">+ calc_usec()</text>
<text text-anchor="start" x="26.7588" y="-57" font-family="Helvetica,sans-Serif" font-size="10.00">+ clock_time()</text>
<text text-anchor="start" x="26.7588" y="-47" font-family="Helvetica,sans-Serif" font-size="10.00">+ is_reset()</text>
<text text-anchor="start" x="26.7588" y="-37" font-family="Helvetica,sans-Serif" font-size="10.00">and 14 more...</text>
<text text-anchor="start" x="26.7588" y="-27" font-family="Helvetica,sans-Serif" font-size="10.00">+ wait_msec()</text>
<text text-anchor="start" x="26.7588" y="-17" font-family="Helvetica,sans-Serif" font-size="10.00">+ wait_sec()</text>
<text text-anchor="start" x="26.7588" y="-7" font-family="Helvetica,sans-Serif" font-size="10.00">+ wait_usec()</text>
</g>
<!-- Node2 -->
<g id="node2" class="node"><title>Node2</title>
<g id="a_node2"><a xlink:href="classapi_1_1_chrono_work_object.html" target="_top" xlink:title="Chrono Work Object Class. ">
<polygon fill="none" stroke="black" points="-0.877441,-183 -0.877441,-257 118.877,-257 118.877,-183 -0.877441,-183"/>
<text text-anchor="middle" x="59" y="-245" font-family="Helvetica,sans-Serif" font-size="10.00">api::ChronoWorkObject</text>
<polyline fill="none" stroke="black" points="-0.877441,-239 118.877,-239 "/>
<text text-anchor="middle" x="59" y="-227" font-family="Helvetica,sans-Serif" font-size="10.00"> </text>
<polyline fill="none" stroke="black" points="-0.877441,-221 118.877,-221 "/>
<text text-anchor="start" x="7.12256" y="-209" font-family="Helvetica,sans-Serif" font-size="10.00">+ wait_microseconds()</text>
<text text-anchor="start" x="7.12256" y="-199" font-family="Helvetica,sans-Serif" font-size="10.00">+ wait_milliseconds()</text>
<text text-anchor="start" x="7.12256" y="-189" font-family="Helvetica,sans-Serif" font-size="10.00">+ wait_seconds()</text>
</a>
</g>
</g>
<!-- Node2&#45;&gt;Node1 -->
<g id="edge1" class="edge"><title>Node2&#45;&gt;Node1</title>
<path fill="none" stroke="midnightblue" d="M59,-172.737C59,-163.911 59,-154.486 59,-145.092"/>
<polygon fill="none" stroke="midnightblue" points="55.5001,-172.784 59,-182.784 62.5001,-172.784 55.5001,-172.784"/>
</g>
<!-- Node3 -->
<g id="node3" class="node"><title>Node3</title>
<g id="a_node3"><a xlink:href="classapi_1_1_work_object.html" target="_top" xlink:title="WorkObject Class. ">
<polygon fill="none" stroke="black" points="-0.547852,-295 -0.547852,-429 118.548,-429 118.548,-295 -0.547852,-295"/>
<text text-anchor="middle" x="59" y="-417" font-family="Helvetica,sans-Serif" font-size="10.00">api::WorkObject</text>
<polyline fill="none" stroke="black" points="-0.547852,-411 118.548,-411 "/>
<text text-anchor="middle" x="59" y="-399" font-family="Helvetica,sans-Serif" font-size="10.00"> </text>
<polyline fill="none" stroke="black" points="-0.547852,-393 118.548,-393 "/>
<text text-anchor="start" x="7.45215" y="-381" font-family="Helvetica,sans-Serif" font-size="10.00">+ WorkObject()</text>
<text text-anchor="start" x="7.45215" y="-371" font-family="Helvetica,sans-Serif" font-size="10.00">+ clear_error_number()</text>
<text text-anchor="start" x="7.45215" y="-361" font-family="Helvetica,sans-Serif" font-size="10.00">+ error_number()</text>
<text text-anchor="start" x="7.45215" y="-351" font-family="Helvetica,sans-Serif" font-size="10.00">+ exit_fatal()</text>
<text text-anchor="start" x="7.45215" y="-341" font-family="Helvetica,sans-Serif" font-size="10.00"># set_error_number()</text>
<text text-anchor="start" x="7.45215" y="-331" font-family="Helvetica,sans-Serif" font-size="10.00"># set_error_number_if</text>
<text text-anchor="start" x="7.45215" y="-321" font-family="Helvetica,sans-Serif" font-size="10.00">_error()</text>
<text text-anchor="start" x="7.45215" y="-311" font-family="Helvetica,sans-Serif" font-size="10.00"># set_error_number_to</text>
<text text-anchor="start" x="7.45215" y="-301" font-family="Helvetica,sans-Serif" font-size="10.00">_errno()</text>
</a>
</g>
</g>
<!-- Node3&#45;&gt;Node2 -->
<g id="edge2" class="edge"><title>Node3&#45;&gt;Node2</title>
<path fill="none" stroke="midnightblue" d="M59,-284.437C59,-275.016 59,-265.755 59,-257.345"/>
<polygon fill="none" stroke="midnightblue" points="55.5001,-284.69 59,-294.69 62.5001,-284.69 55.5001,-284.69"/>
</g>
<!-- Node4 -->
<g id="node4" class="node"><title>Node4</title>
<g id="a_node4"><a xlink:href="classapi_1_1_api_object.html" target="_top" xlink:title="API Object Class. ">
<polygon fill="none" stroke="black" points="17.7896,-467 17.7896,-521 100.21,-521 100.21,-467 17.7896,-467"/>
<text text-anchor="middle" x="59" y="-509" font-family="Helvetica,sans-Serif" font-size="10.00">api::ApiObject</text>
<polyline fill="none" stroke="black" points="17.7896,-503 100.21,-503 "/>
<text text-anchor="middle" x="59" y="-491" font-family="Helvetica,sans-Serif" font-size="10.00"> </text>
<polyline fill="none" stroke="black" points="17.7896,-485 100.21,-485 "/>
<text text-anchor="start" x="25.7896" y="-473" font-family="Helvetica,sans-Serif" font-size="10.00">+ api_version()</text>
</a>
</g>
</g>
<!-- Node4&#45;&gt;Node3 -->
<g id="edge3" class="edge"><title>Node4&#45;&gt;Node3</title>
<path fill="none" stroke="midnightblue" d="M59,-456.644C59,-448.02 59,-438.555 59,-429.059"/>
<polygon fill="none" stroke="midnightblue" points="55.5001,-456.693 59,-466.693 62.5001,-456.693 55.5001,-456.693"/>
</g>
</g>
</svg>
