<?xml version="1.0" encoding="UTF-8" standalone="no"?>
<!DOCTYPE svg PUBLIC "-//W3C//DTD SVG 1.1//EN"
 "http://www.w3.org/Graphics/SVG/1.1/DTD/svg11.dtd">
<!-- Generated by graphviz version 2.36.0 (20140111.2315)
 -->
<!-- Title: draw::DataSet Pages: 1 -->
<svg width="110pt" height="400pt"
 viewBox="0.00 0.00 110.00 400.00" xmlns="http://www.w3.org/2000/svg" xmlns:xlink="http://www.w3.org/1999/xlink">
<g id="graph0" class="graph" transform="scale(1 1) rotate(0) translate(4 396)">
<title>draw::DataSet</title>
<!-- Node1 -->
<g id="node1" class="node"><title>Node1</title>
<polygon fill="#bfbfbf" stroke="black" points="11.3179,-1 11.3179,-115 90.6821,-115 90.6821,-1 11.3179,-1"/>
<text text-anchor="middle" x="51" y="-103" font-family="Helvetica,sans-Serif" font-size="10.00">draw::DataSet</text>
<polyline fill="none" stroke="black" points="11.3179,-97 90.6821,-97 "/>
<text text-anchor="middle" x="51" y="-85" font-family="Helvetica,sans-Serif" font-size="10.00"> </text>
<polyline fill="none" stroke="black" points="11.3179,-79 90.6821,-79 "/>
<text text-anchor="start" x="19.3179" y="-67" font-family="Helvetica,sans-Serif" font-size="10.00">+ DataSet()</text>
<text text-anchor="start" x="19.3179" y="-57" font-family="Helvetica,sans-Serif" font-size="10.00">+ DataSet()</text>
<text text-anchor="start" x="19.3179" y="-47" font-family="Helvetica,sans-Serif" font-size="10.00">+ at()</text>
<text text-anchor="start" x="19.3179" y="-37" font-family="Helvetica,sans-Serif" font-size="10.00">+ max()</text>
<text text-anchor="start" x="19.3179" y="-27" font-family="Helvetica,sans-Serif" font-size="10.00">+ min()</text>
<text text-anchor="start" x="19.3179" y="-17" font-family="Helvetica,sans-Serif" font-size="10.00">+ set()</text>
<text text-anchor="start" x="19.3179" y="-7" font-family="Helvetica,sans-Serif" font-size="10.00">+ size()</text>
</g>
<!-- Node2 -->
<g id="node2" class="node"><title>Node2</title>
<g id="a_node2"><a xlink:href="classapi_1_1_draw_info_object.html" target="_top" xlink:title="Draw Information Object. ">
<polygon fill="none" stroke="black" points="-0.908691,-153 -0.908691,-207 102.909,-207 102.909,-153 -0.908691,-153"/>
<text text-anchor="middle" x="51" y="-195" font-family="Helvetica,sans-Serif" font-size="10.00">api::DrawInfoObject</text>
<polyline fill="none" stroke="black" points="-0.908691,-189 102.909,-189 "/>
<text text-anchor="middle" x="51" y="-177" font-family="Helvetica,sans-Serif" font-size="10.00"> </text>
<polyline fill="none" stroke="black" points="-0.908691,-171 102.909,-171 "/>
<text text-anchor="middle" x="51" y="-159" font-family="Helvetica,sans-Serif" font-size="10.00"> </text>
</a>
</g>
</g>
<!-- Node2&#45;&gt;Node1 -->
<g id="edge1" class="edge"><title>Node2&#45;&gt;Node1</title>
<path fill="none" stroke="midnightblue" d="M51,-142.754C51,-134.008 51,-124.458 51,-115.039"/>
<polygon fill="none" stroke="midnightblue" points="47.5001,-142.962 51,-152.962 54.5001,-142.962 47.5001,-142.962"/>
</g>
<!-- Node3 -->
<g id="node3" class="node"><title>Node3</title>
<g id="a_node3"><a xlink:href="classapi_1_1_info_object.html" target="_top" xlink:title="Information Object. ">
<polygon fill="none" stroke="black" points="10.7588,-245 10.7588,-299 91.2412,-299 91.2412,-245 10.7588,-245"/>
<text text-anchor="middle" x="51" y="-287" font-family="Helvetica,sans-Serif" font-size="10.00">api::InfoObject</text>
<polyline fill="none" stroke="black" points="10.7588,-281 91.2412,-281 "/>
<text text-anchor="middle" x="51" y="-269" font-family="Helvetica,sans-Serif" font-size="10.00"> </text>
<polyline fill="none" stroke="black" points="10.7588,-263 91.2412,-263 "/>
<text text-anchor="middle" x="51" y="-251" font-family="Helvetica,sans-Serif" font-size="10.00"> </text>
</a>
</g>
</g>
<!-- Node3&#45;&gt;Node2 -->
<g id="edge2" class="edge"><title>Node3&#45;&gt;Node2</title>
<path fill="none" stroke="midnightblue" d="M51,-234.865C51,-225.644 51,-215.907 51,-207.285"/>
<polygon fill="none" stroke="midnightblue" points="47.5001,-234.968 51,-244.968 54.5001,-234.968 47.5001,-234.968"/>
</g>
<!-- Node4 -->
<g id="node4" class="node"><title>Node4</title>
<g id="a_node4"><a xlink:href="classapi_1_1_api_object.html" target="_top" xlink:title="Application Programming Interface Object. ">
<polygon fill="none" stroke="black" points="9.78955,-337 9.78955,-391 92.2104,-391 92.2104,-337 9.78955,-337"/>
<text text-anchor="middle" x="51" y="-379" font-family="Helvetica,sans-Serif" font-size="10.00">api::ApiObject</text>
<polyline fill="none" stroke="black" points="9.78955,-373 92.2104,-373 "/>
<text text-anchor="middle" x="51" y="-361" font-family="Helvetica,sans-Serif" font-size="10.00"> </text>
<polyline fill="none" stroke="black" points="9.78955,-355 92.2104,-355 "/>
<text text-anchor="start" x="17.7896" y="-343" font-family="Helvetica,sans-Serif" font-size="10.00">+ api_version()</text>
</a>
</g>
</g>
<!-- Node4&#45;&gt;Node3 -->
<g id="edge3" class="edge"><title>Node4&#45;&gt;Node3</title>
<path fill="none" stroke="midnightblue" d="M51,-326.865C51,-317.644 51,-307.907 51,-299.285"/>
<polygon fill="none" stroke="midnightblue" points="47.5001,-326.968 51,-336.968 54.5001,-326.968 47.5001,-326.968"/>
</g>
</g>
</svg>
