<?xml version="1.0" encoding="UTF-8" standalone="no"?>
<!DOCTYPE svg PUBLIC "-//W3C//DTD SVG 1.1//EN"
 "http://www.w3.org/Graphics/SVG/1.1/DTD/svg11.dtd">
<!-- Generated by graphviz version 2.36.0 (20140111.2315)
 -->
<!-- Title: calc::Base64 Pages: 1 -->
<svg width="124pt" height="256pt"
 viewBox="0.00 0.00 124.00 256.00" xmlns="http://www.w3.org/2000/svg" xmlns:xlink="http://www.w3.org/1999/xlink">
<g id="graph0" class="graph" transform="scale(1 1) rotate(0) translate(4 252)">
<title>calc::Base64</title>
<!-- Node1 -->
<g id="node1" class="node"><title>Node1</title>
<polygon fill="#bfbfbf" stroke="black" points="-0.168457,-1 -0.168457,-85 116.168,-85 116.168,-1 -0.168457,-1"/>
<text text-anchor="middle" x="58" y="-73" font-family="Helvetica,sans-Serif" font-size="10.00">calc::Base64</text>
<polyline fill="none" stroke="black" points="-0.168457,-67 116.168,-67 "/>
<text text-anchor="middle" x="58" y="-55" font-family="Helvetica,sans-Serif" font-size="10.00"> </text>
<polyline fill="none" stroke="black" points="-0.168457,-49 116.168,-49 "/>
<text text-anchor="start" x="7.83154" y="-37" font-family="Helvetica,sans-Serif" font-size="10.00">+ calc_decoded_size()</text>
<text text-anchor="start" x="7.83154" y="-27" font-family="Helvetica,sans-Serif" font-size="10.00">+ calc_encoded_size()</text>
<text text-anchor="start" x="7.83154" y="-17" font-family="Helvetica,sans-Serif" font-size="10.00">+ decode()</text>
<text text-anchor="start" x="7.83154" y="-7" font-family="Helvetica,sans-Serif" font-size="10.00">+ encode()</text>
</g>
<!-- Node2 -->
<g id="node2" class="node"><title>Node2</title>
<g id="a_node2"><a xlink:href="classapi_1_1_s_object.html" target="_top" xlink:title="SObject Class. ">
<polygon fill="none" stroke="black" points="0.808105,-123 0.808105,-247 115.192,-247 115.192,-123 0.808105,-123"/>
<text text-anchor="middle" x="58" y="-235" font-family="Helvetica,sans-Serif" font-size="10.00">api::SObject</text>
<polyline fill="none" stroke="black" points="0.808105,-229 115.192,-229 "/>
<text text-anchor="middle" x="58" y="-217" font-family="Helvetica,sans-Serif" font-size="10.00"> </text>
<polyline fill="none" stroke="black" points="0.808105,-211 115.192,-211 "/>
<text text-anchor="start" x="8.80811" y="-199" font-family="Helvetica,sans-Serif" font-size="10.00">+ SObject()</text>
<text text-anchor="start" x="8.80811" y="-189" font-family="Helvetica,sans-Serif" font-size="10.00">+ api_version()</text>
<text text-anchor="start" x="8.80811" y="-179" font-family="Helvetica,sans-Serif" font-size="10.00">+ clear_error()</text>
<text text-anchor="start" x="8.80811" y="-169" font-family="Helvetica,sans-Serif" font-size="10.00">+ error_number()</text>
<text text-anchor="start" x="8.80811" y="-159" font-family="Helvetica,sans-Serif" font-size="10.00">+ exit_fatal()</text>
<text text-anchor="start" x="8.80811" y="-149" font-family="Helvetica,sans-Serif" font-size="10.00"># set_error_number()</text>
<text text-anchor="start" x="8.80811" y="-139" font-family="Helvetica,sans-Serif" font-size="10.00"># set_error_number_if</text>
<text text-anchor="start" x="8.80811" y="-129" font-family="Helvetica,sans-Serif" font-size="10.00">_error()</text>
</a>
</g>
</g>
<!-- Node2&#45;&gt;Node1 -->
<g id="edge1" class="edge"><title>Node2&#45;&gt;Node1</title>
<path fill="none" stroke="midnightblue" d="M58,-112.475C58,-103.134 58,-93.8295 58,-85.2268"/>
<polygon fill="none" stroke="midnightblue" points="54.5001,-112.594 58,-122.594 61.5001,-112.594 54.5001,-112.594"/>
</g>
</g>
</svg>
