<?xml version="1.0" encoding="UTF-8" standalone="no"?>
<!DOCTYPE svg PUBLIC "-//W3C//DTD SVG 1.1//EN"
 "http://www.w3.org/Graphics/SVG/1.1/DTD/svg11.dtd">
<!-- Generated by graphviz version 2.36.0 (20140111.2315)
 -->
<!-- Title: hal::Uart Pages: 1 -->
<svg width="243pt" height="1548pt"
 viewBox="0.00 0.00 242.85 1548.00" xmlns="http://www.w3.org/2000/svg" xmlns:xlink="http://www.w3.org/1999/xlink">
<g id="graph0" class="graph" transform="scale(1 1) rotate(0) translate(4 1544)">
<title>hal::Uart</title>
<!-- Node1 -->
<g id="node1" class="node"><title>Node1</title>
<polygon fill="#bfbfbf" stroke="black" points="54.686,-1 54.686,-105 119.314,-105 119.314,-1 54.686,-1"/>
<text text-anchor="middle" x="87" y="-93" font-family="Helvetica,sans-Serif" font-size="10.00">hal::Uart</text>
<polyline fill="none" stroke="black" points="54.686,-87 119.314,-87 "/>
<text text-anchor="middle" x="87" y="-75" font-family="Helvetica,sans-Serif" font-size="10.00"> </text>
<polyline fill="none" stroke="black" points="54.686,-69 119.314,-69 "/>
<text text-anchor="start" x="62.686" y="-57" font-family="Helvetica,sans-Serif" font-size="10.00">+ Uart()</text>
<text text-anchor="start" x="62.686" y="-47" font-family="Helvetica,sans-Serif" font-size="10.00">+ flush()</text>
<text text-anchor="start" x="62.686" y="-37" font-family="Helvetica,sans-Serif" font-size="10.00">+ get()</text>
<text text-anchor="start" x="62.686" y="-27" font-family="Helvetica,sans-Serif" font-size="10.00">+ init()</text>
<text text-anchor="start" x="62.686" y="-17" font-family="Helvetica,sans-Serif" font-size="10.00">+ put()</text>
<text text-anchor="start" x="62.686" y="-7" font-family="Helvetica,sans-Serif" font-size="10.00">+ set_attr()</text>
</g>
<!-- Node2 -->
<g id="node2" class="node"><title>Node2</title>
<g id="a_node2"><a xlink:href="classhal_1_1_periph.html" target="_top" xlink:title="{hal::Periph\&lt; uart_info\l_t, uart_attr_t, UART\l_IOC_IDENT_CHAR \&gt;\n||+ Periph()\l+ get_info()\l+ get_version()\l+ init()\l+ port()\l+ set_action()\land 4 more...\l# get_channel()\l# set_channel()\l# set_channel()\l}">
<polygon fill="none" stroke="black" points="28.292,-145 28.292,-309 145.708,-309 145.708,-145 28.292,-145"/>
<text text-anchor="start" x="36.292" y="-297" font-family="Helvetica,sans-Serif" font-size="10.00">hal::Periph&lt; uart_info</text>
<text text-anchor="start" x="36.292" y="-287" font-family="Helvetica,sans-Serif" font-size="10.00">_t, uart_attr_t, UART</text>
<text text-anchor="middle" x="87" y="-277" font-family="Helvetica,sans-Serif" font-size="10.00">_IOC_IDENT_CHAR &gt;</text>
<polyline fill="none" stroke="black" points="28.292,-271 145.708,-271 "/>
<text text-anchor="middle" x="87" y="-259" font-family="Helvetica,sans-Serif" font-size="10.00"> </text>
<polyline fill="none" stroke="black" points="28.292,-253 145.708,-253 "/>
<text text-anchor="start" x="36.292" y="-241" font-family="Helvetica,sans-Serif" font-size="10.00">+ Periph()</text>
<text text-anchor="start" x="36.292" y="-231" font-family="Helvetica,sans-Serif" font-size="10.00">+ get_info()</text>
<text text-anchor="start" x="36.292" y="-221" font-family="Helvetica,sans-Serif" font-size="10.00">+ get_version()</text>
<text text-anchor="start" x="36.292" y="-211" font-family="Helvetica,sans-Serif" font-size="10.00">+ init()</text>
<text text-anchor="start" x="36.292" y="-201" font-family="Helvetica,sans-Serif" font-size="10.00">+ port()</text>
<text text-anchor="start" x="36.292" y="-191" font-family="Helvetica,sans-Serif" font-size="10.00">+ set_action()</text>
<text text-anchor="start" x="36.292" y="-181" font-family="Helvetica,sans-Serif" font-size="10.00">and 4 more...</text>
<text text-anchor="start" x="36.292" y="-171" font-family="Helvetica,sans-Serif" font-size="10.00"># get_channel()</text>
<text text-anchor="start" x="36.292" y="-161" font-family="Helvetica,sans-Serif" font-size="10.00"># set_channel()</text>
<text text-anchor="start" x="36.292" y="-151" font-family="Helvetica,sans-Serif" font-size="10.00"># set_channel()</text>
</a>
</g>
</g>
<!-- Node2&#45;&gt;Node1 -->
<g id="edge1" class="edge"><title>Node2&#45;&gt;Node1</title>
<path fill="none" stroke="midnightblue" d="M87,-134.73C87,-124.687 87,-114.739 87,-105.439"/>
<polygon fill="none" stroke="midnightblue" points="83.5001,-134.785 87,-144.785 90.5001,-134.785 83.5001,-134.785"/>
</g>
<!-- Node3 -->
<g id="node3" class="node"><title>Node3</title>
<g id="a_node3"><a xlink:href="classhal_1_1_periph_object.html" target="_top" xlink:title="Periph Object Class. ">
<polygon fill="none" stroke="black" points="24.6455,-571 24.6455,-735 117.354,-735 117.354,-571 24.6455,-571"/>
<text text-anchor="middle" x="71" y="-723" font-family="Helvetica,sans-Serif" font-size="10.00">hal::PeriphObject</text>
<polyline fill="none" stroke="black" points="24.6455,-717 117.354,-717 "/>
<text text-anchor="start" x="32.6455" y="-705" font-family="Helvetica,sans-Serif" font-size="10.00"># m_periph_port</text>
<polyline fill="none" stroke="black" points="24.6455,-699 117.354,-699 "/>
<text text-anchor="start" x="32.6455" y="-687" font-family="Helvetica,sans-Serif" font-size="10.00">+ close()</text>
<text text-anchor="start" x="32.6455" y="-677" font-family="Helvetica,sans-Serif" font-size="10.00">+ fileno()</text>
<text text-anchor="start" x="32.6455" y="-667" font-family="Helvetica,sans-Serif" font-size="10.00">+ ioctl()</text>
<text text-anchor="start" x="32.6455" y="-657" font-family="Helvetica,sans-Serif" font-size="10.00">+ open()</text>
<text text-anchor="start" x="32.6455" y="-647" font-family="Helvetica,sans-Serif" font-size="10.00">+ read()</text>
<text text-anchor="start" x="32.6455" y="-637" font-family="Helvetica,sans-Serif" font-size="10.00">+ read()</text>
<text text-anchor="start" x="32.6455" y="-627" font-family="Helvetica,sans-Serif" font-size="10.00">+ seek()</text>
<text text-anchor="start" x="32.6455" y="-617" font-family="Helvetica,sans-Serif" font-size="10.00">+ write()</text>
<text text-anchor="start" x="32.6455" y="-607" font-family="Helvetica,sans-Serif" font-size="10.00">+ write()</text>
<text text-anchor="start" x="32.6455" y="-597" font-family="Helvetica,sans-Serif" font-size="10.00"># lookup_fileno()</text>
<text text-anchor="start" x="32.6455" y="-587" font-family="Helvetica,sans-Serif" font-size="10.00"># open()</text>
<text text-anchor="start" x="32.6455" y="-577" font-family="Helvetica,sans-Serif" font-size="10.00"># update_fileno()</text>
</a>
</g>
</g>
<!-- Node3&#45;&gt;Node2 -->
<g id="edge2" class="edge"><title>Node3&#45;&gt;Node2</title>
<path fill="none" stroke="midnightblue" d="M72.5079,-560.563C73.5969,-506.803 75.3501,-437.521 78,-376 78.9361,-354.268 80.2347,-330.758 81.5547,-309.011"/>
<polygon fill="none" stroke="midnightblue" points="69.0047,-560.69 72.3055,-570.758 76.0034,-560.829 69.0047,-560.69"/>
</g>
<!-- Node10 -->
<g id="node10" class="node"><title>Node10</title>
<g id="a_node10"><a xlink:href="classhal_1_1_periph.html" target="_top" xlink:title="Peripheral Class. ">
<polygon fill="none" stroke="black" points="86.7798,-377 86.7798,-531 189.22,-531 189.22,-377 86.7798,-377"/>
<text text-anchor="start" x="94.7798" y="-519" font-family="Helvetica,sans-Serif" font-size="10.00">hal::Periph&lt; info_t,</text>
<text text-anchor="middle" x="138" y="-509" font-family="Helvetica,sans-Serif" font-size="10.00"> attr_t, ident_char &gt;</text>
<polyline fill="none" stroke="black" points="86.7798,-503 189.22,-503 "/>
<text text-anchor="middle" x="138" y="-491" font-family="Helvetica,sans-Serif" font-size="10.00"> </text>
<polyline fill="none" stroke="black" points="86.7798,-485 189.22,-485 "/>
<text text-anchor="start" x="94.7798" y="-473" font-family="Helvetica,sans-Serif" font-size="10.00">+ Periph()</text>
<text text-anchor="start" x="94.7798" y="-463" font-family="Helvetica,sans-Serif" font-size="10.00">+ get_info()</text>
<text text-anchor="start" x="94.7798" y="-453" font-family="Helvetica,sans-Serif" font-size="10.00">+ get_version()</text>
<text text-anchor="start" x="94.7798" y="-443" font-family="Helvetica,sans-Serif" font-size="10.00">+ init()</text>
<text text-anchor="start" x="94.7798" y="-433" font-family="Helvetica,sans-Serif" font-size="10.00">+ port()</text>
<text text-anchor="start" x="94.7798" y="-423" font-family="Helvetica,sans-Serif" font-size="10.00">+ set_action()</text>
<text text-anchor="start" x="94.7798" y="-413" font-family="Helvetica,sans-Serif" font-size="10.00">and 4 more...</text>
<text text-anchor="start" x="94.7798" y="-403" font-family="Helvetica,sans-Serif" font-size="10.00"># get_channel()</text>
<text text-anchor="start" x="94.7798" y="-393" font-family="Helvetica,sans-Serif" font-size="10.00"># set_channel()</text>
<text text-anchor="start" x="94.7798" y="-383" font-family="Helvetica,sans-Serif" font-size="10.00"># set_channel()</text>
</a>
</g>
</g>
<!-- Node3&#45;&gt;Node10 -->
<g id="edge10" class="edge"><title>Node3&#45;&gt;Node10</title>
<path fill="none" stroke="midnightblue" d="M101.906,-561.126C105.332,-551.055 108.793,-540.876 112.147,-531.016"/>
<polygon fill="none" stroke="midnightblue" points="98.5446,-560.141 98.6383,-570.735 105.172,-562.395 98.5446,-560.141"/>
</g>
<!-- Node4 -->
<g id="node4" class="node"><title>Node4</title>
<g id="a_node4"><a xlink:href="classhal_1_1_device.html" target="_top" xlink:title="Device Class. ">
<polygon fill="none" stroke="black" points="16.7231,-775 16.7231,-859 125.277,-859 125.277,-775 16.7231,-775"/>
<text text-anchor="middle" x="71" y="-847" font-family="Helvetica,sans-Serif" font-size="10.00">hal::Device</text>
<polyline fill="none" stroke="black" points="16.7231,-841 125.277,-841 "/>
<text text-anchor="middle" x="71" y="-829" font-family="Helvetica,sans-Serif" font-size="10.00"> </text>
<polyline fill="none" stroke="black" points="16.7231,-823 125.277,-823 "/>
<text text-anchor="start" x="24.7231" y="-811" font-family="Helvetica,sans-Serif" font-size="10.00">+ Device()</text>
<text text-anchor="start" x="24.7231" y="-801" font-family="Helvetica,sans-Serif" font-size="10.00">+ read()</text>
<text text-anchor="start" x="24.7231" y="-791" font-family="Helvetica,sans-Serif" font-size="10.00">+ set_signal_action()</text>
<text text-anchor="start" x="24.7231" y="-781" font-family="Helvetica,sans-Serif" font-size="10.00">+ write()</text>
</a>
</g>
</g>
<!-- Node4&#45;&gt;Node3 -->
<g id="edge3" class="edge"><title>Node4&#45;&gt;Node3</title>
<path fill="none" stroke="midnightblue" d="M71,-764.461C71,-755.137 71,-745.209 71,-735.275"/>
<polygon fill="none" stroke="midnightblue" points="67.5001,-764.701 71,-774.701 74.5001,-764.701 67.5001,-764.701"/>
</g>
<!-- Node5 -->
<g id="node5" class="node"><title>Node5</title>
<g id="a_node5"><a xlink:href="classapi_1_1_hal_work_object.html" target="_top" xlink:title="Hal Work Object. ">
<polygon fill="none" stroke="black" points="20.019,-899 20.019,-953 121.981,-953 121.981,-899 20.019,-899"/>
<text text-anchor="middle" x="71" y="-941" font-family="Helvetica,sans-Serif" font-size="10.00">api::HalWorkObject</text>
<polyline fill="none" stroke="black" points="20.019,-935 121.981,-935 "/>
<text text-anchor="middle" x="71" y="-923" font-family="Helvetica,sans-Serif" font-size="10.00"> </text>
<polyline fill="none" stroke="black" points="20.019,-917 121.981,-917 "/>
<text text-anchor="middle" x="71" y="-905" font-family="Helvetica,sans-Serif" font-size="10.00"> </text>
</a>
</g>
</g>
<!-- Node5&#45;&gt;Node4 -->
<g id="edge4" class="edge"><title>Node5&#45;&gt;Node4</title>
<path fill="none" stroke="midnightblue" d="M71,-888.601C71,-879.185 71,-868.979 71,-859.331"/>
<polygon fill="none" stroke="midnightblue" points="67.5001,-888.825 71,-898.825 74.5001,-888.825 67.5001,-888.825"/>
</g>
<!-- Node6 -->
<g id="node6" class="node"><title>Node6</title>
<g id="a_node6"><a xlink:href="classsys_1_1_file.html" target="_top" xlink:title="File Class. ">
<polygon fill="none" stroke="black" points="30.7588,-993 30.7588,-1167 111.241,-1167 111.241,-993 30.7588,-993"/>
<text text-anchor="middle" x="71" y="-1155" font-family="Helvetica,sans-Serif" font-size="10.00">sys::File</text>
<polyline fill="none" stroke="black" points="30.7588,-1149 111.241,-1149 "/>
<text text-anchor="start" x="38.7588" y="-1137" font-family="Helvetica,sans-Serif" font-size="10.00"># m_fd</text>
<polyline fill="none" stroke="black" points="30.7588,-1131 111.241,-1131 "/>
<text text-anchor="start" x="38.7588" y="-1119" font-family="Helvetica,sans-Serif" font-size="10.00">+ File()</text>
<text text-anchor="start" x="38.7588" y="-1109" font-family="Helvetica,sans-Serif" font-size="10.00">+ close()</text>
<text text-anchor="start" x="38.7588" y="-1099" font-family="Helvetica,sans-Serif" font-size="10.00">+ create()</text>
<text text-anchor="start" x="38.7588" y="-1089" font-family="Helvetica,sans-Serif" font-size="10.00">+ fileno()</text>
<text text-anchor="start" x="38.7588" y="-1079" font-family="Helvetica,sans-Serif" font-size="10.00">+ flags()</text>
<text text-anchor="start" x="38.7588" y="-1069" font-family="Helvetica,sans-Serif" font-size="10.00">+ gets()</text>
<text text-anchor="start" x="38.7588" y="-1059" font-family="Helvetica,sans-Serif" font-size="10.00">and 22 more...</text>
<text text-anchor="start" x="38.7588" y="-1049" font-family="Helvetica,sans-Serif" font-size="10.00">+ copy()</text>
<text text-anchor="start" x="38.7588" y="-1039" font-family="Helvetica,sans-Serif" font-size="10.00">+ name()</text>
<text text-anchor="start" x="38.7588" y="-1029" font-family="Helvetica,sans-Serif" font-size="10.00">+ remove()</text>
<text text-anchor="start" x="38.7588" y="-1019" font-family="Helvetica,sans-Serif" font-size="10.00">+ size()</text>
<text text-anchor="start" x="38.7588" y="-1009" font-family="Helvetica,sans-Serif" font-size="10.00">+ stat()</text>
<text text-anchor="start" x="38.7588" y="-999" font-family="Helvetica,sans-Serif" font-size="10.00">+ suffix()</text>
</a>
</g>
</g>
<!-- Node6&#45;&gt;Node5 -->
<g id="edge5" class="edge"><title>Node6&#45;&gt;Node5</title>
<path fill="none" stroke="midnightblue" d="M71,-982.72C71,-971.91 71,-961.69 71,-953.027"/>
<polygon fill="none" stroke="midnightblue" points="67.5001,-982.785 71,-992.785 74.5001,-982.785 67.5001,-982.785"/>
</g>
<!-- Node7 -->
<g id="node7" class="node"><title>Node7</title>
<g id="a_node7"><a xlink:href="classapi_1_1_sys_work_object.html" target="_top" xlink:title="System Work Object. ">
<polygon fill="none" stroke="black" points="19.1865,-1207 19.1865,-1261 122.813,-1261 122.813,-1207 19.1865,-1207"/>
<text text-anchor="middle" x="71" y="-1249" font-family="Helvetica,sans-Serif" font-size="10.00">api::SysWorkObject</text>
<polyline fill="none" stroke="black" points="19.1865,-1243 122.813,-1243 "/>
<text text-anchor="middle" x="71" y="-1231" font-family="Helvetica,sans-Serif" font-size="10.00"> </text>
<polyline fill="none" stroke="black" points="19.1865,-1225 122.813,-1225 "/>
<text text-anchor="middle" x="71" y="-1213" font-family="Helvetica,sans-Serif" font-size="10.00"> </text>
</a>
</g>
</g>
<!-- Node7&#45;&gt;Node6 -->
<g id="edge6" class="edge"><title>Node7&#45;&gt;Node6</title>
<path fill="none" stroke="midnightblue" d="M71,-1196.77C71,-1187.71 71,-1177.61 71,-1167.24"/>
<polygon fill="none" stroke="midnightblue" points="67.5001,-1196.87 71,-1206.87 74.5001,-1196.87 67.5001,-1196.87"/>
</g>
<!-- Node8 -->
<g id="node8" class="node"><title>Node8</title>
<g id="a_node8"><a xlink:href="classapi_1_1_work_object.html" target="_top" xlink:title="Work Object. ">
<polygon fill="none" stroke="black" points="-0.0859375,-1301 -0.0859375,-1445 142.086,-1445 142.086,-1301 -0.0859375,-1301"/>
<text text-anchor="middle" x="71" y="-1433" font-family="Helvetica,sans-Serif" font-size="10.00">api::WorkObject</text>
<polyline fill="none" stroke="black" points="-0.0859375,-1427 142.086,-1427 "/>
<text text-anchor="middle" x="71" y="-1415" font-family="Helvetica,sans-Serif" font-size="10.00"> </text>
<polyline fill="none" stroke="black" points="-0.0859375,-1409 142.086,-1409 "/>
<text text-anchor="start" x="7.91406" y="-1397" font-family="Helvetica,sans-Serif" font-size="10.00">+ WorkObject()</text>
<text text-anchor="start" x="7.91406" y="-1387" font-family="Helvetica,sans-Serif" font-size="10.00">+ clear_error_number()</text>
<text text-anchor="start" x="7.91406" y="-1377" font-family="Helvetica,sans-Serif" font-size="10.00">+ error_number()</text>
<text text-anchor="start" x="7.91406" y="-1367" font-family="Helvetica,sans-Serif" font-size="10.00">+ exit_fatal()</text>
<text text-anchor="start" x="7.91406" y="-1357" font-family="Helvetica,sans-Serif" font-size="10.00"># set_error_number()</text>
<text text-anchor="start" x="7.91406" y="-1347" font-family="Helvetica,sans-Serif" font-size="10.00"># set_error_number_if</text>
<text text-anchor="start" x="7.91406" y="-1337" font-family="Helvetica,sans-Serif" font-size="10.00">_error()</text>
<text text-anchor="start" x="7.91406" y="-1327" font-family="Helvetica,sans-Serif" font-size="10.00"># set_error_number_if_null()</text>
<text text-anchor="start" x="7.91406" y="-1317" font-family="Helvetica,sans-Serif" font-size="10.00"># set_error_number_to</text>
<text text-anchor="start" x="7.91406" y="-1307" font-family="Helvetica,sans-Serif" font-size="10.00">_errno()</text>
</a>
</g>
</g>
<!-- Node8&#45;&gt;Node7 -->
<g id="edge7" class="edge"><title>Node8&#45;&gt;Node7</title>
<path fill="none" stroke="midnightblue" d="M71,-1290.46C71,-1279.88 71,-1269.74 71,-1261.08"/>
<polygon fill="none" stroke="midnightblue" points="67.5001,-1290.69 71,-1300.69 74.5001,-1290.69 67.5001,-1290.69"/>
</g>
<!-- Node9 -->
<g id="node9" class="node"><title>Node9</title>
<g id="a_node9"><a xlink:href="classapi_1_1_api_object.html" target="_top" xlink:title="Application Programming Interface Object. ">
<polygon fill="none" stroke="black" points="29.7896,-1485 29.7896,-1539 112.21,-1539 112.21,-1485 29.7896,-1485"/>
<text text-anchor="middle" x="71" y="-1527" font-family="Helvetica,sans-Serif" font-size="10.00">api::ApiObject</text>
<polyline fill="none" stroke="black" points="29.7896,-1521 112.21,-1521 "/>
<text text-anchor="middle" x="71" y="-1509" font-family="Helvetica,sans-Serif" font-size="10.00"> </text>
<polyline fill="none" stroke="black" points="29.7896,-1503 112.21,-1503 "/>
<text text-anchor="start" x="37.7896" y="-1491" font-family="Helvetica,sans-Serif" font-size="10.00">+ api_version()</text>
</a>
</g>
</g>
<!-- Node9&#45;&gt;Node8 -->
<g id="edge8" class="edge"><title>Node9&#45;&gt;Node8</title>
<path fill="none" stroke="midnightblue" d="M71,-1474.65C71,-1465.47 71,-1455.29 71,-1445.04"/>
<polygon fill="none" stroke="midnightblue" points="67.5001,-1474.91 71,-1484.91 74.5001,-1474.91 67.5001,-1474.91"/>
</g>
<!-- Node10&#45;&gt;Node2 -->
<g id="edge9" class="edge"><title>Node10&#45;&gt;Node2</title>
<path fill="none" stroke="orange" d="M118.505,-366.995C114.197,-347.986 109.646,-327.907 105.383,-309.101"/>
<polygon fill="orange" stroke="orange" points="115.11,-367.846 120.734,-376.825 121.936,-366.299 115.11,-367.846"/>
<text text-anchor="start" x="115" y="-350" font-family="Helvetica,sans-Serif" font-size="10.00"> &lt; uart_info_t, uart</text>
<text text-anchor="start" x="115" y="-340" font-family="Helvetica,sans-Serif" font-size="10.00">_attr_t, UART_IOC_IDENT</text>
<text text-anchor="middle" x="174.927" y="-330" font-family="Helvetica,sans-Serif" font-size="10.00">_CHAR &gt;</text>
</g>
</g>
</svg>
