<?xml version="1.0" encoding="UTF-8" standalone="no"?>
<!DOCTYPE svg PUBLIC "-//W3C//DTD SVG 1.1//EN"
 "http://www.w3.org/Graphics/SVG/1.1/DTD/svg11.dtd">
<!-- Generated by graphviz version 2.36.0 (20140111.2315)
 -->
<!-- Title: ui::PinButton Pages: 1 -->
<!--zoomable 1634 -->
<svg id="main" version="1.1" xmlns="http://www.w3.org/2000/svg" xmlns:xlink="http://www.w3.org/1999/xlink" xml:space="preserve" onload="init(evt)">
<style type="text/css"><![CDATA[
.edge:hover path { stroke: red; }
.edge:hover polygon { stroke: red; fill: red; }
]]></style>
<script type="text/javascript"><![CDATA[
var edges = document.getElementsByTagName('g');
if (edges && edges.length) {
  for (var i=0;i<edges.length;i++) {
    if (edges[i].id.substr(0,4)=='edge') {
      edges[i].setAttribute('class','edge');
    }
  }
}
]]></script>
        <defs>
                <circle id="rim" cx="0" cy="0" r="7"/>
                <circle id="rim2" cx="0" cy="0" r="3.5"/>
                <g id="zoomPlus">
                        <use xlink:href="#rim" fill="#404040">
                                <set attributeName="fill" to="#808080" begin="zoomplus.mouseover" end="zoomplus.mouseout"/>
                        </use>
                        <path d="M-4,0h8M0,-4v8" fill="none" stroke="white" stroke-width="1.5" pointer-events="none"/>
                </g>
                <g id="zoomMin">
                        <use xlink:href="#rim" fill="#404040">
                                <set attributeName="fill" to="#808080" begin="zoomminus.mouseover" end="zoomminus.mouseout"/>
                        </use>
                        <path d="M-4,0h8" fill="none" stroke="white" stroke-width="1.5" pointer-events="none"/>
                </g>
                <g id="dirArrow">
                        <path fill="none" stroke="white" stroke-width="1.5" d="M0,-3.0v7 M-2.5,-0.5L0,-3.0L2.5,-0.5"/>
                </g>
               <g id="resetDef">
                       <use xlink:href="#rim2" fill="#404040">
                               <set attributeName="fill" to="#808080" begin="reset.mouseover" end="reset.mouseout"/>
                       </use>
               </g>
        </defs>

<script type="text/javascript">
var viewWidth = 308;
var viewHeight = 1634;
var sectionId = 'dynsection-0';
</script>
<script xlink:href="svgpan.js"/>
<svg id="graph" class="graph">
<g id="viewport">
<title>ui::PinButton</title>
<!-- Node1 -->
<g id="node1" class="node"><title>Node1</title>
<polygon fill="#bfbfbf" stroke="black" points="38.6074,-1 38.6074,-155 149.393,-155 149.393,-1 38.6074,-1"/>
<text text-anchor="middle" x="94" y="-143" font-family="Helvetica,sans-Serif" font-size="10.00">ui::PinButton</text>
<polyline fill="none" stroke="black" points="38.6074,-137 149.393,-137 "/>
<text text-anchor="middle" x="94" y="-125" font-family="Helvetica,sans-Serif" font-size="10.00"> </text>
<polyline fill="none" stroke="black" points="38.6074,-119 149.393,-119 "/>
<text text-anchor="start" x="46.6074" y="-107" font-family="Helvetica,sans-Serif" font-size="10.00">+ PinButton()</text>
<text text-anchor="start" x="46.6074" y="-97" font-family="Helvetica,sans-Serif" font-size="10.00">+ active_value()</text>
<text text-anchor="start" x="46.6074" y="-87" font-family="Helvetica,sans-Serif" font-size="10.00">+ event_id()</text>
<text text-anchor="start" x="46.6074" y="-77" font-family="Helvetica,sans-Serif" font-size="10.00">+ get_actuated()</text>
<text text-anchor="start" x="46.6074" y="-67" font-family="Helvetica,sans-Serif" font-size="10.00">+ get_duration()</text>
<text text-anchor="start" x="46.6074" y="-57" font-family="Helvetica,sans-Serif" font-size="10.00">+ get_held()</text>
<text text-anchor="start" x="46.6074" y="-47" font-family="Helvetica,sans-Serif" font-size="10.00">and 6 more...</text>
<text text-anchor="start" x="46.6074" y="-37" font-family="Helvetica,sans-Serif" font-size="10.00">+ held_duration()</text>
<text text-anchor="start" x="46.6074" y="-27" font-family="Helvetica,sans-Serif" font-size="10.00">+ set_held_duration()</text>
<text text-anchor="start" x="46.6074" y="-17" font-family="Helvetica,sans-Serif" font-size="10.00"># get_is_active()</text>
<text text-anchor="start" x="46.6074" y="-7" font-family="Helvetica,sans-Serif" font-size="10.00"># update()</text>
</g>
<!-- Node2 -->
<g id="node2" class="node"><title>Node2</title>
<g id="a_node2"><a xlink:href="classui_1_1_button.html" target="_top" xlink:title="Button Class. ">
<polygon fill="none" stroke="black" points="-0.168457,-195 -0.168457,-329 116.168,-329 116.168,-195 -0.168457,-195"/>
<text text-anchor="middle" x="58" y="-317" font-family="Helvetica,sans-Serif" font-size="10.00">ui::Button</text>
<polyline fill="none" stroke="black" points="-0.168457,-311 116.168,-311 "/>
<text text-anchor="middle" x="58" y="-299" font-family="Helvetica,sans-Serif" font-size="10.00"> </text>
<polyline fill="none" stroke="black" points="-0.168457,-293 116.168,-293 "/>
<text text-anchor="start" x="7.83154" y="-281" font-family="Helvetica,sans-Serif" font-size="10.00">+ event()</text>
<text text-anchor="start" x="7.83154" y="-271" font-family="Helvetica,sans-Serif" font-size="10.00">+ event_id()</text>
<text text-anchor="start" x="7.83154" y="-261" font-family="Helvetica,sans-Serif" font-size="10.00">+ get_actuated()</text>
<text text-anchor="start" x="7.83154" y="-251" font-family="Helvetica,sans-Serif" font-size="10.00">+ get_duration()</text>
<text text-anchor="start" x="7.83154" y="-241" font-family="Helvetica,sans-Serif" font-size="10.00">+ get_event()</text>
<text text-anchor="start" x="7.83154" y="-231" font-family="Helvetica,sans-Serif" font-size="10.00">+ get_held()</text>
<text text-anchor="start" x="7.83154" y="-221" font-family="Helvetica,sans-Serif" font-size="10.00">and 4 more...</text>
<text text-anchor="start" x="7.83154" y="-211" font-family="Helvetica,sans-Serif" font-size="10.00">+ max_held_duration()</text>
<text text-anchor="start" x="7.83154" y="-201" font-family="Helvetica,sans-Serif" font-size="10.00"># update()</text>
</a>
</g>
</g>
<!-- Node2&#45;&gt;Node1 -->
<g id="edge1" class="edge"><title>Node2&#45;&gt;Node1</title>
<path fill="none" stroke="midnightblue" d="M73.0979,-184.672C75.0361,-174.873 77.0205,-164.841 78.9578,-155.047"/>
<polygon fill="none" stroke="midnightblue" points="69.6057,-184.29 71.0987,-194.779 76.4726,-185.648 69.6057,-184.29"/>
</g>
<!-- Node3 -->
<g id="node3" class="node"><title>Node3</title>
<g id="a_node3"><a xlink:href="classhal_1_1_pin.html" target="_top" xlink:title="Pin class. ">
<polygon fill="none" stroke="black" points="133.896,-205 133.896,-319 224.104,-319 224.104,-205 133.896,-205"/>
<text text-anchor="middle" x="179" y="-307" font-family="Helvetica,sans-Serif" font-size="10.00">hal::Pin</text>
<polyline fill="none" stroke="black" points="133.896,-301 224.104,-301 "/>
<text text-anchor="middle" x="179" y="-289" font-family="Helvetica,sans-Serif" font-size="10.00"> </text>
<polyline fill="none" stroke="black" points="133.896,-283 224.104,-283 "/>
<text text-anchor="start" x="141.896" y="-271" font-family="Helvetica,sans-Serif" font-size="10.00">+ Pin()</text>
<text text-anchor="start" x="141.896" y="-261" font-family="Helvetica,sans-Serif" font-size="10.00">+ Pin()</text>
<text text-anchor="start" x="141.896" y="-251" font-family="Helvetica,sans-Serif" font-size="10.00">+ clear()</text>
<text text-anchor="start" x="141.896" y="-241" font-family="Helvetica,sans-Serif" font-size="10.00">+ get_value()</text>
<text text-anchor="start" x="141.896" y="-231" font-family="Helvetica,sans-Serif" font-size="10.00">+ init()</text>
<text text-anchor="start" x="141.896" y="-221" font-family="Helvetica,sans-Serif" font-size="10.00">+ operator bool()</text>
<text text-anchor="start" x="141.896" y="-211" font-family="Helvetica,sans-Serif" font-size="10.00">and 7 more...</text>
</a>
</g>
</g>
<!-- Node3&#45;&gt;Node1 -->
<g id="edge2" class="edge"><title>Node3&#45;&gt;Node1</title>
<path fill="none" stroke="midnightblue" d="M148.437,-195.56C142.344,-182.512 135.894,-168.702 129.646,-155.325"/>
<polygon fill="none" stroke="midnightblue" points="145.401,-197.329 152.804,-204.909 151.743,-194.367 145.401,-197.329"/>
</g>
<!-- Node4 -->
<g id="node4" class="node"><title>Node4</title>
<g id="a_node4"><a xlink:href="classhal_1_1_pio.html" target="_top" xlink:title="Pin Input/Output Class. ">
<polygon fill="none" stroke="black" points="137.797,-369 137.797,-493 220.203,-493 220.203,-369 137.797,-369"/>
<text text-anchor="middle" x="179" y="-481" font-family="Helvetica,sans-Serif" font-size="10.00">hal::Pio</text>
<polyline fill="none" stroke="black" points="137.797,-475 220.203,-475 "/>
<text text-anchor="middle" x="179" y="-463" font-family="Helvetica,sans-Serif" font-size="10.00"> </text>
<polyline fill="none" stroke="black" points="137.797,-457 220.203,-457 "/>
<text text-anchor="start" x="145.797" y="-445" font-family="Helvetica,sans-Serif" font-size="10.00">+ Pio()</text>
<text text-anchor="start" x="145.797" y="-435" font-family="Helvetica,sans-Serif" font-size="10.00">+ assign()</text>
<text text-anchor="start" x="145.797" y="-425" font-family="Helvetica,sans-Serif" font-size="10.00">+ clear_mask()</text>
<text text-anchor="start" x="145.797" y="-415" font-family="Helvetica,sans-Serif" font-size="10.00">+ get_value()</text>
<text text-anchor="start" x="145.797" y="-405" font-family="Helvetica,sans-Serif" font-size="10.00">+ init()</text>
<text text-anchor="start" x="145.797" y="-395" font-family="Helvetica,sans-Serif" font-size="10.00">+ set_attr()</text>
<text text-anchor="start" x="145.797" y="-385" font-family="Helvetica,sans-Serif" font-size="10.00">+ set_mask()</text>
<text text-anchor="start" x="145.797" y="-375" font-family="Helvetica,sans-Serif" font-size="10.00">+ set_value()</text>
</a>
</g>
</g>
<!-- Node4&#45;&gt;Node3 -->
<g id="edge3" class="edge"><title>Node4&#45;&gt;Node3</title>
<path fill="none" stroke="midnightblue" d="M179,-358.378C179,-345.29 179,-331.805 179,-319.244"/>
<polygon fill="none" stroke="midnightblue" points="175.5,-358.764 179,-368.764 182.5,-358.764 175.5,-358.764"/>
</g>
<!-- Node5 -->
<g id="node5" class="node"><title>Node5</title>
<g id="a_node5"><a xlink:href="classhal_1_1_periph.html" target="_top" xlink:title="{hal::Periph\&lt; pio_info\l_t, pio_attr_t, &#39;p&#39;\&gt;\n||+ Periph()\l+ get_info()\l+ get_version()\l+ init()\l+ port()\l+ set_action()\l+ set_action()\l+ set_attr()\l+ set_attr()\l# get_channel()\l# set_channel()\l# set_channel()\l}">
<polygon fill="none" stroke="black" points="125.272,-533 125.272,-707 232.728,-707 232.728,-533 125.272,-533"/>
<text text-anchor="start" x="133.272" y="-695" font-family="Helvetica,sans-Serif" font-size="10.00">hal::Periph&lt; pio_info</text>
<text text-anchor="middle" x="179" y="-685" font-family="Helvetica,sans-Serif" font-size="10.00">_t, pio_attr_t, &#39;p&#39;&gt;</text>
<polyline fill="none" stroke="black" points="125.272,-679 232.728,-679 "/>
<text text-anchor="middle" x="179" y="-667" font-family="Helvetica,sans-Serif" font-size="10.00"> </text>
<polyline fill="none" stroke="black" points="125.272,-661 232.728,-661 "/>
<text text-anchor="start" x="133.272" y="-649" font-family="Helvetica,sans-Serif" font-size="10.00">+ Periph()</text>
<text text-anchor="start" x="133.272" y="-639" font-family="Helvetica,sans-Serif" font-size="10.00">+ get_info()</text>
<text text-anchor="start" x="133.272" y="-629" font-family="Helvetica,sans-Serif" font-size="10.00">+ get_version()</text>
<text text-anchor="start" x="133.272" y="-619" font-family="Helvetica,sans-Serif" font-size="10.00">+ init()</text>
<text text-anchor="start" x="133.272" y="-609" font-family="Helvetica,sans-Serif" font-size="10.00">+ port()</text>
<text text-anchor="start" x="133.272" y="-599" font-family="Helvetica,sans-Serif" font-size="10.00">+ set_action()</text>
<text text-anchor="start" x="133.272" y="-589" font-family="Helvetica,sans-Serif" font-size="10.00">+ set_action()</text>
<text text-anchor="start" x="133.272" y="-579" font-family="Helvetica,sans-Serif" font-size="10.00">+ set_attr()</text>
<text text-anchor="start" x="133.272" y="-569" font-family="Helvetica,sans-Serif" font-size="10.00">+ set_attr()</text>
<text text-anchor="start" x="133.272" y="-559" font-family="Helvetica,sans-Serif" font-size="10.00"># get_channel()</text>
<text text-anchor="start" x="133.272" y="-549" font-family="Helvetica,sans-Serif" font-size="10.00"># set_channel()</text>
<text text-anchor="start" x="133.272" y="-539" font-family="Helvetica,sans-Serif" font-size="10.00"># set_channel()</text>
</a>
</g>
</g>
<!-- Node5&#45;&gt;Node4 -->
<g id="edge4" class="edge"><title>Node5&#45;&gt;Node4</title>
<path fill="none" stroke="midnightblue" d="M179,-522.803C179,-512.714 179,-502.667 179,-493.132"/>
<polygon fill="none" stroke="midnightblue" points="175.5,-522.889 179,-532.889 182.5,-522.889 175.5,-522.889"/>
</g>
<!-- Node6 -->
<g id="node6" class="node"><title>Node6</title>
<g id="a_node6"><a xlink:href="classhal_1_1_periph_object.html" target="_top" xlink:title="Periph Object Class. ">
<polygon fill="none" stroke="black" points="116.646,-979 116.646,-1143 209.354,-1143 209.354,-979 116.646,-979"/>
<text text-anchor="middle" x="163" y="-1131" font-family="Helvetica,sans-Serif" font-size="10.00">hal::PeriphObject</text>
<polyline fill="none" stroke="black" points="116.646,-1125 209.354,-1125 "/>
<text text-anchor="start" x="124.646" y="-1113" font-family="Helvetica,sans-Serif" font-size="10.00"># m_periph_port</text>
<polyline fill="none" stroke="black" points="116.646,-1107 209.354,-1107 "/>
<text text-anchor="start" x="124.646" y="-1095" font-family="Helvetica,sans-Serif" font-size="10.00">+ close()</text>
<text text-anchor="start" x="124.646" y="-1085" font-family="Helvetica,sans-Serif" font-size="10.00">+ fileno()</text>
<text text-anchor="start" x="124.646" y="-1075" font-family="Helvetica,sans-Serif" font-size="10.00">+ ioctl()</text>
<text text-anchor="start" x="124.646" y="-1065" font-family="Helvetica,sans-Serif" font-size="10.00">+ open()</text>
<text text-anchor="start" x="124.646" y="-1055" font-family="Helvetica,sans-Serif" font-size="10.00">+ read()</text>
<text text-anchor="start" x="124.646" y="-1045" font-family="Helvetica,sans-Serif" font-size="10.00">+ read()</text>
<text text-anchor="start" x="124.646" y="-1035" font-family="Helvetica,sans-Serif" font-size="10.00">+ seek()</text>
<text text-anchor="start" x="124.646" y="-1025" font-family="Helvetica,sans-Serif" font-size="10.00">+ write()</text>
<text text-anchor="start" x="124.646" y="-1015" font-family="Helvetica,sans-Serif" font-size="10.00">+ write()</text>
<text text-anchor="start" x="124.646" y="-1005" font-family="Helvetica,sans-Serif" font-size="10.00"># lookup_fileno()</text>
<text text-anchor="start" x="124.646" y="-995" font-family="Helvetica,sans-Serif" font-size="10.00"># open()</text>
<text text-anchor="start" x="124.646" y="-985" font-family="Helvetica,sans-Serif" font-size="10.00"># update_fileno()</text>
</a>
</g>
</g>
<!-- Node6&#45;&gt;Node5 -->
<g id="edge5" class="edge"><title>Node6&#45;&gt;Node5</title>
<path fill="none" stroke="midnightblue" d="M164.237,-968.609C165.257,-910.092 167.033,-832.552 170,-764 170.796,-745.609 171.884,-725.902 173.028,-707.176"/>
<polygon fill="none" stroke="midnightblue" points="160.732,-968.88 164.061,-978.938 167.731,-968.999 160.732,-968.88"/>
</g>
<!-- Node10 -->
<g id="node10" class="node"><title>Node10</title>
<g id="a_node10"><a xlink:href="classhal_1_1_periph.html" target="_top" xlink:title="Peripheral Class. ">
<polygon fill="none" stroke="black" points="178.78,-765 178.78,-939 281.22,-939 281.22,-765 178.78,-765"/>
<text text-anchor="start" x="186.78" y="-927" font-family="Helvetica,sans-Serif" font-size="10.00">hal::Periph&lt; info_t,</text>
<text text-anchor="middle" x="230" y="-917" font-family="Helvetica,sans-Serif" font-size="10.00"> attr_t, ident_char &gt;</text>
<polyline fill="none" stroke="black" points="178.78,-911 281.22,-911 "/>
<text text-anchor="middle" x="230" y="-899" font-family="Helvetica,sans-Serif" font-size="10.00"> </text>
<polyline fill="none" stroke="black" points="178.78,-893 281.22,-893 "/>
<text text-anchor="start" x="186.78" y="-881" font-family="Helvetica,sans-Serif" font-size="10.00">+ Periph()</text>
<text text-anchor="start" x="186.78" y="-871" font-family="Helvetica,sans-Serif" font-size="10.00">+ get_info()</text>
<text text-anchor="start" x="186.78" y="-861" font-family="Helvetica,sans-Serif" font-size="10.00">+ get_version()</text>
<text text-anchor="start" x="186.78" y="-851" font-family="Helvetica,sans-Serif" font-size="10.00">+ init()</text>
<text text-anchor="start" x="186.78" y="-841" font-family="Helvetica,sans-Serif" font-size="10.00">+ port()</text>
<text text-anchor="start" x="186.78" y="-831" font-family="Helvetica,sans-Serif" font-size="10.00">+ set_action()</text>
<text text-anchor="start" x="186.78" y="-821" font-family="Helvetica,sans-Serif" font-size="10.00">+ set_action()</text>
<text text-anchor="start" x="186.78" y="-811" font-family="Helvetica,sans-Serif" font-size="10.00">+ set_attr()</text>
<text text-anchor="start" x="186.78" y="-801" font-family="Helvetica,sans-Serif" font-size="10.00">+ set_attr()</text>
<text text-anchor="start" x="186.78" y="-791" font-family="Helvetica,sans-Serif" font-size="10.00"># get_channel()</text>
<text text-anchor="start" x="186.78" y="-781" font-family="Helvetica,sans-Serif" font-size="10.00"># set_channel()</text>
<text text-anchor="start" x="186.78" y="-771" font-family="Helvetica,sans-Serif" font-size="10.00"># set_channel()</text>
</a>
</g>
</g>
<!-- Node6&#45;&gt;Node10 -->
<g id="edge10" class="edge"><title>Node6&#45;&gt;Node10</title>
<path fill="none" stroke="midnightblue" d="M192.375,-969.244C195.616,-959.231 198.91,-949.056 202.131,-939.102"/>
<polygon fill="none" stroke="midnightblue" points="189.037,-968.19 189.288,-978.782 195.697,-970.346 189.037,-968.19"/>
</g>
<!-- Node7 -->
<g id="node7" class="node"><title>Node7</title>
<g id="a_node7"><a xlink:href="classhal_1_1_device.html" target="_top" xlink:title="Device Class. ">
<polygon fill="none" stroke="black" points="130.266,-1183 130.266,-1257 195.734,-1257 195.734,-1183 130.266,-1183"/>
<text text-anchor="middle" x="163" y="-1245" font-family="Helvetica,sans-Serif" font-size="10.00">hal::Device</text>
<polyline fill="none" stroke="black" points="130.266,-1239 195.734,-1239 "/>
<text text-anchor="middle" x="163" y="-1227" font-family="Helvetica,sans-Serif" font-size="10.00"> </text>
<polyline fill="none" stroke="black" points="130.266,-1221 195.734,-1221 "/>
<text text-anchor="start" x="138.266" y="-1209" font-family="Helvetica,sans-Serif" font-size="10.00">+ Device()</text>
<text text-anchor="start" x="138.266" y="-1199" font-family="Helvetica,sans-Serif" font-size="10.00">+ read()</text>
<text text-anchor="start" x="138.266" y="-1189" font-family="Helvetica,sans-Serif" font-size="10.00">+ write()</text>
</a>
</g>
</g>
<!-- Node7&#45;&gt;Node6 -->
<g id="edge6" class="edge"><title>Node7&#45;&gt;Node6</title>
<path fill="none" stroke="midnightblue" d="M163,-1172.79C163,-1163.46 163,-1153.39 163,-1143.26"/>
<polygon fill="none" stroke="midnightblue" points="159.5,-1172.98 163,-1182.98 166.5,-1172.98 159.5,-1172.98"/>
</g>
<!-- Node8 -->
<g id="node8" class="node"><title>Node8</title>
<g id="a_node8"><a xlink:href="classsys_1_1_file.html" target="_top" xlink:title="File Class. ">
<polygon fill="none" stroke="black" points="122.759,-1297 122.759,-1461 203.241,-1461 203.241,-1297 122.759,-1297"/>
<text text-anchor="middle" x="163" y="-1449" font-family="Helvetica,sans-Serif" font-size="10.00">sys::File</text>
<polyline fill="none" stroke="black" points="122.759,-1443 203.241,-1443 "/>
<text text-anchor="start" x="130.759" y="-1431" font-family="Helvetica,sans-Serif" font-size="10.00"># m_fd</text>
<polyline fill="none" stroke="black" points="122.759,-1425 203.241,-1425 "/>
<text text-anchor="start" x="130.759" y="-1413" font-family="Helvetica,sans-Serif" font-size="10.00">+ File()</text>
<text text-anchor="start" x="130.759" y="-1403" font-family="Helvetica,sans-Serif" font-size="10.00">+ close()</text>
<text text-anchor="start" x="130.759" y="-1393" font-family="Helvetica,sans-Serif" font-size="10.00">+ create()</text>
<text text-anchor="start" x="130.759" y="-1383" font-family="Helvetica,sans-Serif" font-size="10.00">+ fileno()</text>
<text text-anchor="start" x="130.759" y="-1373" font-family="Helvetica,sans-Serif" font-size="10.00">+ flags()</text>
<text text-anchor="start" x="130.759" y="-1363" font-family="Helvetica,sans-Serif" font-size="10.00">+ gets()</text>
<text text-anchor="start" x="130.759" y="-1353" font-family="Helvetica,sans-Serif" font-size="10.00">and 21 more...</text>
<text text-anchor="start" x="130.759" y="-1343" font-family="Helvetica,sans-Serif" font-size="10.00">+ name()</text>
<text text-anchor="start" x="130.759" y="-1333" font-family="Helvetica,sans-Serif" font-size="10.00">+ remove()</text>
<text text-anchor="start" x="130.759" y="-1323" font-family="Helvetica,sans-Serif" font-size="10.00">+ size()</text>
<text text-anchor="start" x="130.759" y="-1313" font-family="Helvetica,sans-Serif" font-size="10.00">+ stat()</text>
<text text-anchor="start" x="130.759" y="-1303" font-family="Helvetica,sans-Serif" font-size="10.00">+ suffix()</text>
</a>
</g>
</g>
<!-- Node8&#45;&gt;Node7 -->
<g id="edge7" class="edge"><title>Node8&#45;&gt;Node7</title>
<path fill="none" stroke="midnightblue" d="M163,-1286.67C163,-1276.25 163,-1266.13 163,-1257.09"/>
<polygon fill="none" stroke="midnightblue" points="159.5,-1286.74 163,-1296.74 166.5,-1286.74 159.5,-1286.74"/>
</g>
<!-- Node9 -->
<g id="node9" class="node"><title>Node9</title>
<g id="a_node9"><a xlink:href="classapi_1_1_s_object.html" target="_top" xlink:title="SObject Class. ">
<polygon fill="none" stroke="black" points="105.808,-1501 105.808,-1625 220.192,-1625 220.192,-1501 105.808,-1501"/>
<text text-anchor="middle" x="163" y="-1613" font-family="Helvetica,sans-Serif" font-size="10.00">api::SObject</text>
<polyline fill="none" stroke="black" points="105.808,-1607 220.192,-1607 "/>
<text text-anchor="middle" x="163" y="-1595" font-family="Helvetica,sans-Serif" font-size="10.00"> </text>
<polyline fill="none" stroke="black" points="105.808,-1589 220.192,-1589 "/>
<text text-anchor="start" x="113.808" y="-1577" font-family="Helvetica,sans-Serif" font-size="10.00">+ SObject()</text>
<text text-anchor="start" x="113.808" y="-1567" font-family="Helvetica,sans-Serif" font-size="10.00">+ api_version()</text>
<text text-anchor="start" x="113.808" y="-1557" font-family="Helvetica,sans-Serif" font-size="10.00">+ clear_error()</text>
<text text-anchor="start" x="113.808" y="-1547" font-family="Helvetica,sans-Serif" font-size="10.00">+ error_number()</text>
<text text-anchor="start" x="113.808" y="-1537" font-family="Helvetica,sans-Serif" font-size="10.00">+ exit_fatal()</text>
<text text-anchor="start" x="113.808" y="-1527" font-family="Helvetica,sans-Serif" font-size="10.00"># set_error_number()</text>
<text text-anchor="start" x="113.808" y="-1517" font-family="Helvetica,sans-Serif" font-size="10.00"># set_error_number_if</text>
<text text-anchor="start" x="113.808" y="-1507" font-family="Helvetica,sans-Serif" font-size="10.00">_error()</text>
</a>
</g>
</g>
<!-- Node9&#45;&gt;Node8 -->
<g id="edge8" class="edge"><title>Node9&#45;&gt;Node8</title>
<path fill="none" stroke="midnightblue" d="M163,-1490.61C163,-1481 163,-1471.08 163,-1461.32"/>
<polygon fill="none" stroke="midnightblue" points="159.5,-1490.89 163,-1500.89 166.5,-1490.89 159.5,-1490.89"/>
</g>
<!-- Node10&#45;&gt;Node5 -->
<g id="edge9" class="edge"><title>Node10&#45;&gt;Node5</title>
<path fill="none" stroke="orange" d="M208.688,-754.888C205.167,-739.006 201.535,-722.63 198.073,-707.017"/>
<polygon fill="orange" stroke="orange" points="205.282,-755.697 210.864,-764.702 212.116,-754.182 205.282,-755.697"/>
<text text-anchor="start" x="206" y="-738" font-family="Helvetica,sans-Serif" font-size="10.00"> &lt; pio_info_t, pio_attr</text>
<text text-anchor="middle" x="252.838" y="-728" font-family="Helvetica,sans-Serif" font-size="10.00">_t, &#39;p&#39;&gt;</text>
</g>
</g>
</svg>
        <g id="navigator" transform="translate(0 0)" fill="#404254">
                <rect fill="#f2f5e9" fill-opacity="0.5" stroke="#606060" stroke-width=".5" x="0" y="0" width="60" height="60"/>
                <use id="zoomplus" xlink:href="#zoomPlus" x="17" y="9" onmousedown="handleZoom(evt,'in')"/>
                <use id="zoomminus" xlink:href="#zoomMin" x="42" y="9" onmousedown="handleZoom(evt,'out')"/>
                <use id="reset" xlink:href="#resetDef" x="30" y="36" onmousedown="handleReset()"/>
                <g id="arrowUp" xlink:href="#dirArrow" transform="translate(30 24)" onmousedown="handlePan(0,-1)">
                  <use xlink:href="#rim" fill="#404040">
                        <set attributeName="fill" to="#808080" begin="arrowUp.mouseover" end="arrowUp.mouseout"/>
                  </use>
                  <path fill="none" stroke="white" stroke-width="1.5" d="M0,-3.0v7 M-2.5,-0.5L0,-3.0L2.5,-0.5"/>
                </g>
                <g id="arrowRight" xlink:href="#dirArrow" transform="rotate(90) translate(36 -43)" onmousedown="handlePan(1,0)">
                  <use xlink:href="#rim" fill="#404040">
                        <set attributeName="fill" to="#808080" begin="arrowRight.mouseover" end="arrowRight.mouseout"/>
                  </use>
                  <path fill="none" stroke="white" stroke-width="1.5" d="M0,-3.0v7 M-2.5,-0.5L0,-3.0L2.5,-0.5"/>
                </g>
                <g id="arrowDown" xlink:href="#dirArrow" transform="rotate(180) translate(-30 -48)" onmousedown="handlePan(0,1)">
                  <use xlink:href="#rim" fill="#404040">
                        <set attributeName="fill" to="#808080" begin="arrowDown.mouseover" end="arrowDown.mouseout"/>
                  </use>
                  <path fill="none" stroke="white" stroke-width="1.5" d="M0,-3.0v7 M-2.5,-0.5L0,-3.0L2.5,-0.5"/>
                </g>
                <g id="arrowLeft" xlink:href="#dirArrow" transform="rotate(270) translate(-36 17)" onmousedown="handlePan(-1,0)">
                  <use xlink:href="#rim" fill="#404040">
                        <set attributeName="fill" to="#808080" begin="arrowLeft.mouseover" end="arrowLeft.mouseout"/>
                  </use>
                  <path fill="none" stroke="white" stroke-width="1.5" d="M0,-3.0v7 M-2.5,-0.5L0,-3.0L2.5,-0.5"/>
                </g>
        </g>
        <svg viewBox="0 0 15 15" width="100%" height="30px" preserveAspectRatio="xMaxYMin meet">
         <g id="arrow_out" transform="scale(0.3 0.3)">
          <a xlink:href="classui_1_1_pin_button__inherit__graph_org.svg" target="_base">
           <rect id="button" ry="5" rx="5" y="6" x="6" height="38" width="38"
                fill="#f2f5e9" fill-opacity="0.5" stroke="#606060" stroke-width="1.0"/>
           <path id="arrow"
             d="M 11.500037,31.436501 C 11.940474,20.09759 22.043105,11.32322 32.158766,21.979434 L 37.068811,17.246167 C 37.068811,17.246167 37.088388,32 37.088388,32 L 22.160133,31.978069 C 22.160133,31.978069 26.997745,27.140456 26.997745,27.140456 C 18.528582,18.264221 13.291696,25.230495 11.500037,31.436501 z"
             style="fill:#404040;"/>
          </a>
         </g>
        </svg>
</svg>
