<?xml version="1.0" encoding="UTF-8" standalone="no"?>
<!DOCTYPE svg PUBLIC "-//W3C//DTD SVG 1.1//EN"
 "http://www.w3.org/Graphics/SVG/1.1/DTD/svg11.dtd">
<!-- Generated by graphviz version 2.36.0 (20140111.2315)
 -->
<!-- Title: hal::Adc Pages: 1 -->
<svg width="221pt" height="1488pt"
 viewBox="0.00 0.00 221.23 1488.00" xmlns="http://www.w3.org/2000/svg" xmlns:xlink="http://www.w3.org/1999/xlink">
<g id="graph0" class="graph" transform="scale(1 1) rotate(0) translate(4 1484)">
<title>hal::Adc</title>
<!-- Node1 -->
<g id="node1" class="node"><title>Node1</title>
<polygon fill="#bfbfbf" stroke="black" points="54.686,-1 54.686,-75 119.314,-75 119.314,-1 54.686,-1"/>
<text text-anchor="middle" x="87" y="-63" font-family="Helvetica,sans-Serif" font-size="10.00">hal::Adc</text>
<polyline fill="none" stroke="black" points="54.686,-57 119.314,-57 "/>
<text text-anchor="middle" x="87" y="-45" font-family="Helvetica,sans-Serif" font-size="10.00"> </text>
<polyline fill="none" stroke="black" points="54.686,-39 119.314,-39 "/>
<text text-anchor="start" x="62.686" y="-27" font-family="Helvetica,sans-Serif" font-size="10.00">+ Adc()</text>
<text text-anchor="start" x="62.686" y="-17" font-family="Helvetica,sans-Serif" font-size="10.00">+ init()</text>
<text text-anchor="start" x="62.686" y="-7" font-family="Helvetica,sans-Serif" font-size="10.00">+ set_attr()</text>
</g>
<!-- Node2 -->
<g id="node2" class="node"><title>Node2</title>
<g id="a_node2"><a xlink:href="classhal_1_1_periph.html" target="_top" xlink:title="{hal::Periph\&lt; adc_info\l_t, adc_attr_t, &#39;a&#39;\&gt;\n||+ Periph()\l+ get_info()\l+ get_version()\l+ init()\l+ port()\l+ set_action()\land 4 more...\l# get_channel()\l# set_channel()\l# set_channel()\l}">
<polygon fill="none" stroke="black" points="31.8833,-115 31.8833,-269 142.117,-269 142.117,-115 31.8833,-115"/>
<text text-anchor="start" x="39.8833" y="-257" font-family="Helvetica,sans-Serif" font-size="10.00">hal::Periph&lt; adc_info</text>
<text text-anchor="middle" x="87" y="-247" font-family="Helvetica,sans-Serif" font-size="10.00">_t, adc_attr_t, &#39;a&#39;&gt;</text>
<polyline fill="none" stroke="black" points="31.8833,-241 142.117,-241 "/>
<text text-anchor="middle" x="87" y="-229" font-family="Helvetica,sans-Serif" font-size="10.00"> </text>
<polyline fill="none" stroke="black" points="31.8833,-223 142.117,-223 "/>
<text text-anchor="start" x="39.8833" y="-211" font-family="Helvetica,sans-Serif" font-size="10.00">+ Periph()</text>
<text text-anchor="start" x="39.8833" y="-201" font-family="Helvetica,sans-Serif" font-size="10.00">+ get_info()</text>
<text text-anchor="start" x="39.8833" y="-191" font-family="Helvetica,sans-Serif" font-size="10.00">+ get_version()</text>
<text text-anchor="start" x="39.8833" y="-181" font-family="Helvetica,sans-Serif" font-size="10.00">+ init()</text>
<text text-anchor="start" x="39.8833" y="-171" font-family="Helvetica,sans-Serif" font-size="10.00">+ port()</text>
<text text-anchor="start" x="39.8833" y="-161" font-family="Helvetica,sans-Serif" font-size="10.00">+ set_action()</text>
<text text-anchor="start" x="39.8833" y="-151" font-family="Helvetica,sans-Serif" font-size="10.00">and 4 more...</text>
<text text-anchor="start" x="39.8833" y="-141" font-family="Helvetica,sans-Serif" font-size="10.00"># get_channel()</text>
<text text-anchor="start" x="39.8833" y="-131" font-family="Helvetica,sans-Serif" font-size="10.00"># set_channel()</text>
<text text-anchor="start" x="39.8833" y="-121" font-family="Helvetica,sans-Serif" font-size="10.00"># set_channel()</text>
</a>
</g>
</g>
<!-- Node2&#45;&gt;Node1 -->
<g id="edge1" class="edge"><title>Node2&#45;&gt;Node1</title>
<path fill="none" stroke="midnightblue" d="M87,-104.274C87,-94.0523 87,-84.0952 87,-75.1619"/>
<polygon fill="none" stroke="midnightblue" points="83.5001,-104.555 87,-114.555 90.5001,-104.555 83.5001,-104.555"/>
</g>
<!-- Node3 -->
<g id="node3" class="node"><title>Node3</title>
<g id="a_node3"><a xlink:href="classhal_1_1_periph_object.html" target="_top" xlink:title="Periph Object Class. ">
<polygon fill="none" stroke="black" points="24.6455,-521 24.6455,-685 117.354,-685 117.354,-521 24.6455,-521"/>
<text text-anchor="middle" x="71" y="-673" font-family="Helvetica,sans-Serif" font-size="10.00">hal::PeriphObject</text>
<polyline fill="none" stroke="black" points="24.6455,-667 117.354,-667 "/>
<text text-anchor="start" x="32.6455" y="-655" font-family="Helvetica,sans-Serif" font-size="10.00"># m_periph_port</text>
<polyline fill="none" stroke="black" points="24.6455,-649 117.354,-649 "/>
<text text-anchor="start" x="32.6455" y="-637" font-family="Helvetica,sans-Serif" font-size="10.00">+ close()</text>
<text text-anchor="start" x="32.6455" y="-627" font-family="Helvetica,sans-Serif" font-size="10.00">+ fileno()</text>
<text text-anchor="start" x="32.6455" y="-617" font-family="Helvetica,sans-Serif" font-size="10.00">+ ioctl()</text>
<text text-anchor="start" x="32.6455" y="-607" font-family="Helvetica,sans-Serif" font-size="10.00">+ open()</text>
<text text-anchor="start" x="32.6455" y="-597" font-family="Helvetica,sans-Serif" font-size="10.00">+ read()</text>
<text text-anchor="start" x="32.6455" y="-587" font-family="Helvetica,sans-Serif" font-size="10.00">+ read()</text>
<text text-anchor="start" x="32.6455" y="-577" font-family="Helvetica,sans-Serif" font-size="10.00">+ seek()</text>
<text text-anchor="start" x="32.6455" y="-567" font-family="Helvetica,sans-Serif" font-size="10.00">+ write()</text>
<text text-anchor="start" x="32.6455" y="-557" font-family="Helvetica,sans-Serif" font-size="10.00">+ write()</text>
<text text-anchor="start" x="32.6455" y="-547" font-family="Helvetica,sans-Serif" font-size="10.00"># lookup_fileno()</text>
<text text-anchor="start" x="32.6455" y="-537" font-family="Helvetica,sans-Serif" font-size="10.00"># open()</text>
<text text-anchor="start" x="32.6455" y="-527" font-family="Helvetica,sans-Serif" font-size="10.00"># update_fileno()</text>
</a>
</g>
</g>
<!-- Node3&#45;&gt;Node2 -->
<g id="edge2" class="edge"><title>Node3&#45;&gt;Node2</title>
<path fill="none" stroke="midnightblue" d="M72.3514,-510.556C73.3876,-456.794 75.14,-387.512 78,-326 78.8545,-307.621 80.0463,-287.831 81.2834,-269.278"/>
<polygon fill="none" stroke="midnightblue" points="68.8485,-510.687 72.1599,-520.751 75.8472,-510.819 68.8485,-510.687"/>
</g>
<!-- Node10 -->
<g id="node10" class="node"><title>Node10</title>
<g id="a_node10"><a xlink:href="classhal_1_1_periph.html" target="_top" xlink:title="Peripheral Class. ">
<polygon fill="none" stroke="black" points="86.7798,-327 86.7798,-481 189.22,-481 189.22,-327 86.7798,-327"/>
<text text-anchor="start" x="94.7798" y="-469" font-family="Helvetica,sans-Serif" font-size="10.00">hal::Periph&lt; info_t,</text>
<text text-anchor="middle" x="138" y="-459" font-family="Helvetica,sans-Serif" font-size="10.00"> attr_t, ident_char &gt;</text>
<polyline fill="none" stroke="black" points="86.7798,-453 189.22,-453 "/>
<text text-anchor="middle" x="138" y="-441" font-family="Helvetica,sans-Serif" font-size="10.00"> </text>
<polyline fill="none" stroke="black" points="86.7798,-435 189.22,-435 "/>
<text text-anchor="start" x="94.7798" y="-423" font-family="Helvetica,sans-Serif" font-size="10.00">+ Periph()</text>
<text text-anchor="start" x="94.7798" y="-413" font-family="Helvetica,sans-Serif" font-size="10.00">+ get_info()</text>
<text text-anchor="start" x="94.7798" y="-403" font-family="Helvetica,sans-Serif" font-size="10.00">+ get_version()</text>
<text text-anchor="start" x="94.7798" y="-393" font-family="Helvetica,sans-Serif" font-size="10.00">+ init()</text>
<text text-anchor="start" x="94.7798" y="-383" font-family="Helvetica,sans-Serif" font-size="10.00">+ port()</text>
<text text-anchor="start" x="94.7798" y="-373" font-family="Helvetica,sans-Serif" font-size="10.00">+ set_action()</text>
<text text-anchor="start" x="94.7798" y="-363" font-family="Helvetica,sans-Serif" font-size="10.00">and 4 more...</text>
<text text-anchor="start" x="94.7798" y="-353" font-family="Helvetica,sans-Serif" font-size="10.00"># get_channel()</text>
<text text-anchor="start" x="94.7798" y="-343" font-family="Helvetica,sans-Serif" font-size="10.00"># set_channel()</text>
<text text-anchor="start" x="94.7798" y="-333" font-family="Helvetica,sans-Serif" font-size="10.00"># set_channel()</text>
</a>
</g>
</g>
<!-- Node3&#45;&gt;Node10 -->
<g id="edge10" class="edge"><title>Node3&#45;&gt;Node10</title>
<path fill="none" stroke="midnightblue" d="M101.906,-511.126C105.332,-501.055 108.793,-490.876 112.147,-481.016"/>
<polygon fill="none" stroke="midnightblue" points="98.5446,-510.141 98.6383,-520.735 105.172,-512.395 98.5446,-510.141"/>
</g>
<!-- Node4 -->
<g id="node4" class="node"><title>Node4</title>
<g id="a_node4"><a xlink:href="classhal_1_1_device.html" target="_top" xlink:title="Device Class. ">
<polygon fill="none" stroke="black" points="16.7231,-725 16.7231,-809 125.277,-809 125.277,-725 16.7231,-725"/>
<text text-anchor="middle" x="71" y="-797" font-family="Helvetica,sans-Serif" font-size="10.00">hal::Device</text>
<polyline fill="none" stroke="black" points="16.7231,-791 125.277,-791 "/>
<text text-anchor="middle" x="71" y="-779" font-family="Helvetica,sans-Serif" font-size="10.00"> </text>
<polyline fill="none" stroke="black" points="16.7231,-773 125.277,-773 "/>
<text text-anchor="start" x="24.7231" y="-761" font-family="Helvetica,sans-Serif" font-size="10.00">+ Device()</text>
<text text-anchor="start" x="24.7231" y="-751" font-family="Helvetica,sans-Serif" font-size="10.00">+ read()</text>
<text text-anchor="start" x="24.7231" y="-741" font-family="Helvetica,sans-Serif" font-size="10.00">+ set_signal_action()</text>
<text text-anchor="start" x="24.7231" y="-731" font-family="Helvetica,sans-Serif" font-size="10.00">+ write()</text>
</a>
</g>
</g>
<!-- Node4&#45;&gt;Node3 -->
<g id="edge3" class="edge"><title>Node4&#45;&gt;Node3</title>
<path fill="none" stroke="midnightblue" d="M71,-714.461C71,-705.137 71,-695.209 71,-685.275"/>
<polygon fill="none" stroke="midnightblue" points="67.5001,-714.701 71,-724.701 74.5001,-714.701 67.5001,-714.701"/>
</g>
<!-- Node5 -->
<g id="node5" class="node"><title>Node5</title>
<g id="a_node5"><a xlink:href="classapi_1_1_hal_work_object.html" target="_top" xlink:title="Hal Work Object. ">
<polygon fill="none" stroke="black" points="20.019,-849 20.019,-903 121.981,-903 121.981,-849 20.019,-849"/>
<text text-anchor="middle" x="71" y="-891" font-family="Helvetica,sans-Serif" font-size="10.00">api::HalWorkObject</text>
<polyline fill="none" stroke="black" points="20.019,-885 121.981,-885 "/>
<text text-anchor="middle" x="71" y="-873" font-family="Helvetica,sans-Serif" font-size="10.00"> </text>
<polyline fill="none" stroke="black" points="20.019,-867 121.981,-867 "/>
<text text-anchor="middle" x="71" y="-855" font-family="Helvetica,sans-Serif" font-size="10.00"> </text>
</a>
</g>
</g>
<!-- Node5&#45;&gt;Node4 -->
<g id="edge4" class="edge"><title>Node5&#45;&gt;Node4</title>
<path fill="none" stroke="midnightblue" d="M71,-838.601C71,-829.185 71,-818.979 71,-809.331"/>
<polygon fill="none" stroke="midnightblue" points="67.5001,-838.825 71,-848.825 74.5001,-838.825 67.5001,-838.825"/>
</g>
<!-- Node6 -->
<g id="node6" class="node"><title>Node6</title>
<g id="a_node6"><a xlink:href="classsys_1_1_file.html" target="_top" xlink:title="File Class. ">
<polygon fill="none" stroke="black" points="30.7588,-943 30.7588,-1107 111.241,-1107 111.241,-943 30.7588,-943"/>
<text text-anchor="middle" x="71" y="-1095" font-family="Helvetica,sans-Serif" font-size="10.00">sys::File</text>
<polyline fill="none" stroke="black" points="30.7588,-1089 111.241,-1089 "/>
<text text-anchor="start" x="38.7588" y="-1077" font-family="Helvetica,sans-Serif" font-size="10.00"># m_fd</text>
<polyline fill="none" stroke="black" points="30.7588,-1071 111.241,-1071 "/>
<text text-anchor="start" x="38.7588" y="-1059" font-family="Helvetica,sans-Serif" font-size="10.00">+ File()</text>
<text text-anchor="start" x="38.7588" y="-1049" font-family="Helvetica,sans-Serif" font-size="10.00">+ close()</text>
<text text-anchor="start" x="38.7588" y="-1039" font-family="Helvetica,sans-Serif" font-size="10.00">+ create()</text>
<text text-anchor="start" x="38.7588" y="-1029" font-family="Helvetica,sans-Serif" font-size="10.00">+ fileno()</text>
<text text-anchor="start" x="38.7588" y="-1019" font-family="Helvetica,sans-Serif" font-size="10.00">+ flags()</text>
<text text-anchor="start" x="38.7588" y="-1009" font-family="Helvetica,sans-Serif" font-size="10.00">+ gets()</text>
<text text-anchor="start" x="38.7588" y="-999" font-family="Helvetica,sans-Serif" font-size="10.00">and 22 more...</text>
<text text-anchor="start" x="38.7588" y="-989" font-family="Helvetica,sans-Serif" font-size="10.00">+ name()</text>
<text text-anchor="start" x="38.7588" y="-979" font-family="Helvetica,sans-Serif" font-size="10.00">+ remove()</text>
<text text-anchor="start" x="38.7588" y="-969" font-family="Helvetica,sans-Serif" font-size="10.00">+ size()</text>
<text text-anchor="start" x="38.7588" y="-959" font-family="Helvetica,sans-Serif" font-size="10.00">+ stat()</text>
<text text-anchor="start" x="38.7588" y="-949" font-family="Helvetica,sans-Serif" font-size="10.00">+ suffix()</text>
</a>
</g>
</g>
<!-- Node6&#45;&gt;Node5 -->
<g id="edge5" class="edge"><title>Node6&#45;&gt;Node5</title>
<path fill="none" stroke="midnightblue" d="M71,-932.442C71,-921.817 71,-911.729 71,-903.143"/>
<polygon fill="none" stroke="midnightblue" points="67.5001,-932.761 71,-942.761 74.5001,-932.761 67.5001,-932.761"/>
</g>
<!-- Node7 -->
<g id="node7" class="node"><title>Node7</title>
<g id="a_node7"><a xlink:href="classapi_1_1_sys_work_object.html" target="_top" xlink:title="System Work Object. ">
<polygon fill="none" stroke="black" points="19.1865,-1147 19.1865,-1201 122.813,-1201 122.813,-1147 19.1865,-1147"/>
<text text-anchor="middle" x="71" y="-1189" font-family="Helvetica,sans-Serif" font-size="10.00">api::SysWorkObject</text>
<polyline fill="none" stroke="black" points="19.1865,-1183 122.813,-1183 "/>
<text text-anchor="middle" x="71" y="-1171" font-family="Helvetica,sans-Serif" font-size="10.00"> </text>
<polyline fill="none" stroke="black" points="19.1865,-1165 122.813,-1165 "/>
<text text-anchor="middle" x="71" y="-1153" font-family="Helvetica,sans-Serif" font-size="10.00"> </text>
</a>
</g>
</g>
<!-- Node7&#45;&gt;Node6 -->
<g id="edge6" class="edge"><title>Node7&#45;&gt;Node6</title>
<path fill="none" stroke="midnightblue" d="M71,-1136.61C71,-1127.55 71,-1117.48 71,-1107.21"/>
<polygon fill="none" stroke="midnightblue" points="67.5001,-1136.72 71,-1146.72 74.5001,-1136.72 67.5001,-1136.72"/>
</g>
<!-- Node8 -->
<g id="node8" class="node"><title>Node8</title>
<g id="a_node8"><a xlink:href="classapi_1_1_work_object.html" target="_top" xlink:title="Work Object. ">
<polygon fill="none" stroke="black" points="-0.0859375,-1241 -0.0859375,-1385 142.086,-1385 142.086,-1241 -0.0859375,-1241"/>
<text text-anchor="middle" x="71" y="-1373" font-family="Helvetica,sans-Serif" font-size="10.00">api::WorkObject</text>
<polyline fill="none" stroke="black" points="-0.0859375,-1367 142.086,-1367 "/>
<text text-anchor="middle" x="71" y="-1355" font-family="Helvetica,sans-Serif" font-size="10.00"> </text>
<polyline fill="none" stroke="black" points="-0.0859375,-1349 142.086,-1349 "/>
<text text-anchor="start" x="7.91406" y="-1337" font-family="Helvetica,sans-Serif" font-size="10.00">+ WorkObject()</text>
<text text-anchor="start" x="7.91406" y="-1327" font-family="Helvetica,sans-Serif" font-size="10.00">+ clear_error_number()</text>
<text text-anchor="start" x="7.91406" y="-1317" font-family="Helvetica,sans-Serif" font-size="10.00">+ error_number()</text>
<text text-anchor="start" x="7.91406" y="-1307" font-family="Helvetica,sans-Serif" font-size="10.00">+ exit_fatal()</text>
<text text-anchor="start" x="7.91406" y="-1297" font-family="Helvetica,sans-Serif" font-size="10.00"># set_error_number()</text>
<text text-anchor="start" x="7.91406" y="-1287" font-family="Helvetica,sans-Serif" font-size="10.00"># set_error_number_if</text>
<text text-anchor="start" x="7.91406" y="-1277" font-family="Helvetica,sans-Serif" font-size="10.00">_error()</text>
<text text-anchor="start" x="7.91406" y="-1267" font-family="Helvetica,sans-Serif" font-size="10.00"># set_error_number_if_null()</text>
<text text-anchor="start" x="7.91406" y="-1257" font-family="Helvetica,sans-Serif" font-size="10.00"># set_error_number_to</text>
<text text-anchor="start" x="7.91406" y="-1247" font-family="Helvetica,sans-Serif" font-size="10.00">_errno()</text>
</a>
</g>
</g>
<!-- Node8&#45;&gt;Node7 -->
<g id="edge7" class="edge"><title>Node8&#45;&gt;Node7</title>
<path fill="none" stroke="midnightblue" d="M71,-1230.46C71,-1219.88 71,-1209.74 71,-1201.08"/>
<polygon fill="none" stroke="midnightblue" points="67.5001,-1230.69 71,-1240.69 74.5001,-1230.69 67.5001,-1230.69"/>
</g>
<!-- Node9 -->
<g id="node9" class="node"><title>Node9</title>
<g id="a_node9"><a xlink:href="classapi_1_1_api_object.html" target="_top" xlink:title="Application Programming Interface Object. ">
<polygon fill="none" stroke="black" points="29.7896,-1425 29.7896,-1479 112.21,-1479 112.21,-1425 29.7896,-1425"/>
<text text-anchor="middle" x="71" y="-1467" font-family="Helvetica,sans-Serif" font-size="10.00">api::ApiObject</text>
<polyline fill="none" stroke="black" points="29.7896,-1461 112.21,-1461 "/>
<text text-anchor="middle" x="71" y="-1449" font-family="Helvetica,sans-Serif" font-size="10.00"> </text>
<polyline fill="none" stroke="black" points="29.7896,-1443 112.21,-1443 "/>
<text text-anchor="start" x="37.7896" y="-1431" font-family="Helvetica,sans-Serif" font-size="10.00">+ api_version()</text>
</a>
</g>
</g>
<!-- Node9&#45;&gt;Node8 -->
<g id="edge8" class="edge"><title>Node9&#45;&gt;Node8</title>
<path fill="none" stroke="midnightblue" d="M71,-1414.65C71,-1405.47 71,-1395.29 71,-1385.04"/>
<polygon fill="none" stroke="midnightblue" points="67.5001,-1414.91 71,-1424.91 74.5001,-1414.91 67.5001,-1414.91"/>
</g>
<!-- Node10&#45;&gt;Node2 -->
<g id="edge9" class="edge"><title>Node10&#45;&gt;Node2</title>
<path fill="none" stroke="orange" d="M117.138,-317.1C113.285,-301.231 109.285,-284.761 105.507,-269.205"/>
<polygon fill="orange" stroke="orange" points="113.755,-317.997 119.516,-326.888 120.557,-316.345 113.755,-317.997"/>
<text text-anchor="start" x="114" y="-300" font-family="Helvetica,sans-Serif" font-size="10.00"> &lt; adc_info_t, adc_attr</text>
<text text-anchor="middle" x="163.617" y="-290" font-family="Helvetica,sans-Serif" font-size="10.00">_t, &#39;a&#39;&gt;</text>
</g>
</g>
</svg>
