<?xml version="1.0" encoding="UTF-8" standalone="no"?>
<!DOCTYPE svg PUBLIC "-//W3C//DTD SVG 1.1//EN"
 "http://www.w3.org/Graphics/SVG/1.1/DTD/svg11.dtd">
<!-- Generated by graphviz version 2.36.0 (20140111.2315)
 -->
<!-- Title: sgfx::Point Pages: 1 -->
<svg width="124pt" height="410pt"
 viewBox="0.00 0.00 124.00 410.00" xmlns="http://www.w3.org/2000/svg" xmlns:xlink="http://www.w3.org/1999/xlink">
<g id="graph0" class="graph" transform="scale(1 1) rotate(0) translate(4 406)">
<title>sgfx::Point</title>
<!-- Node1 -->
<g id="node1" class="node"><title>Node1</title>
<polygon fill="#bfbfbf" stroke="black" points="-0.725098,-1 -0.725098,-125 116.725,-125 116.725,-1 -0.725098,-1"/>
<text text-anchor="middle" x="58" y="-113" font-family="Helvetica,sans-Serif" font-size="10.00">sgfx::Point</text>
<polyline fill="none" stroke="black" points="-0.725098,-107 116.725,-107 "/>
<text text-anchor="middle" x="58" y="-95" font-family="Helvetica,sans-Serif" font-size="10.00"> </text>
<polyline fill="none" stroke="black" points="-0.725098,-89 116.725,-89 "/>
<text text-anchor="start" x="7.2749" y="-77" font-family="Helvetica,sans-Serif" font-size="10.00">+ Point()</text>
<text text-anchor="start" x="7.2749" y="-67" font-family="Helvetica,sans-Serif" font-size="10.00">+ Point()</text>
<text text-anchor="start" x="7.2749" y="-57" font-family="Helvetica,sans-Serif" font-size="10.00">+ Point()</text>
<text text-anchor="start" x="7.2749" y="-47" font-family="Helvetica,sans-Serif" font-size="10.00">+ map()</text>
<text text-anchor="start" x="7.2749" y="-37" font-family="Helvetica,sans-Serif" font-size="10.00">+ operator sg_point_t()</text>
<text text-anchor="start" x="7.2749" y="-27" font-family="Helvetica,sans-Serif" font-size="10.00">+ operator*()</text>
<text text-anchor="start" x="7.2749" y="-17" font-family="Helvetica,sans-Serif" font-size="10.00">and 14 more...</text>
<text text-anchor="start" x="7.2749" y="-7" font-family="Helvetica,sans-Serif" font-size="10.00">+ map_pixel_size()</text>
</g>
<!-- Node2 -->
<g id="node2" class="node"><title>Node2</title>
<g id="a_node2"><a xlink:href="classapi_1_1_sgfx_info_object.html" target="_top" xlink:title="Sgfx Informatin Object. ">
<polygon fill="none" stroke="black" points="7.75391,-163 7.75391,-217 108.246,-217 108.246,-163 7.75391,-163"/>
<text text-anchor="middle" x="58" y="-205" font-family="Helvetica,sans-Serif" font-size="10.00">api::SgfxInfoObject</text>
<polyline fill="none" stroke="black" points="7.75391,-199 108.246,-199 "/>
<text text-anchor="middle" x="58" y="-187" font-family="Helvetica,sans-Serif" font-size="10.00"> </text>
<polyline fill="none" stroke="black" points="7.75391,-181 108.246,-181 "/>
<text text-anchor="middle" x="58" y="-169" font-family="Helvetica,sans-Serif" font-size="10.00"> </text>
</a>
</g>
</g>
<!-- Node2&#45;&gt;Node1 -->
<g id="edge1" class="edge"><title>Node2&#45;&gt;Node1</title>
<path fill="none" stroke="midnightblue" d="M58,-152.715C58,-144.071 58,-134.61 58,-125.188"/>
<polygon fill="none" stroke="midnightblue" points="54.5001,-152.796 58,-162.796 61.5001,-152.796 54.5001,-152.796"/>
</g>
<!-- Node3 -->
<g id="node3" class="node"><title>Node3</title>
<g id="a_node3"><a xlink:href="classapi_1_1_info_object.html" target="_top" xlink:title="API Information Object. ">
<polygon fill="none" stroke="black" points="17.7588,-255 17.7588,-309 98.2412,-309 98.2412,-255 17.7588,-255"/>
<text text-anchor="middle" x="58" y="-297" font-family="Helvetica,sans-Serif" font-size="10.00">api::InfoObject</text>
<polyline fill="none" stroke="black" points="17.7588,-291 98.2412,-291 "/>
<text text-anchor="middle" x="58" y="-279" font-family="Helvetica,sans-Serif" font-size="10.00"> </text>
<polyline fill="none" stroke="black" points="17.7588,-273 98.2412,-273 "/>
<text text-anchor="middle" x="58" y="-261" font-family="Helvetica,sans-Serif" font-size="10.00"> </text>
</a>
</g>
</g>
<!-- Node3&#45;&gt;Node2 -->
<g id="edge2" class="edge"><title>Node3&#45;&gt;Node2</title>
<path fill="none" stroke="midnightblue" d="M58,-244.865C58,-235.644 58,-225.907 58,-217.285"/>
<polygon fill="none" stroke="midnightblue" points="54.5001,-244.968 58,-254.968 61.5001,-244.968 54.5001,-244.968"/>
</g>
<!-- Node4 -->
<g id="node4" class="node"><title>Node4</title>
<g id="a_node4"><a xlink:href="classapi_1_1_api_object.html" target="_top" xlink:title="API Object Class. ">
<polygon fill="none" stroke="black" points="16.7896,-347 16.7896,-401 99.2104,-401 99.2104,-347 16.7896,-347"/>
<text text-anchor="middle" x="58" y="-389" font-family="Helvetica,sans-Serif" font-size="10.00">api::ApiObject</text>
<polyline fill="none" stroke="black" points="16.7896,-383 99.2104,-383 "/>
<text text-anchor="middle" x="58" y="-371" font-family="Helvetica,sans-Serif" font-size="10.00"> </text>
<polyline fill="none" stroke="black" points="16.7896,-365 99.2104,-365 "/>
<text text-anchor="start" x="24.7896" y="-353" font-family="Helvetica,sans-Serif" font-size="10.00">+ api_version()</text>
</a>
</g>
</g>
<!-- Node4&#45;&gt;Node3 -->
<g id="edge3" class="edge"><title>Node4&#45;&gt;Node3</title>
<path fill="none" stroke="midnightblue" d="M58,-336.865C58,-327.644 58,-317.907 58,-309.285"/>
<polygon fill="none" stroke="midnightblue" points="54.5001,-336.968 58,-346.968 61.5001,-336.968 54.5001,-336.968"/>
</g>
</g>
</svg>
