<?xml version="1.0" encoding="UTF-8" standalone="no"?>
<!DOCTYPE svg PUBLIC "-//W3C//DTD SVG 1.1//EN"
 "http://www.w3.org/Graphics/SVG/1.1/DTD/svg11.dtd">
<!-- Generated by graphviz version 2.36.0 (20140111.2315)
 -->
<!-- Title: chrono::MicroTime Pages: 1 -->
<svg width="126pt" height="520pt"
 viewBox="0.00 0.00 126.00 520.00" xmlns="http://www.w3.org/2000/svg" xmlns:xlink="http://www.w3.org/1999/xlink">
<g id="graph0" class="graph" transform="scale(1 1) rotate(0) translate(4 516)">
<title>chrono::MicroTime</title>
<!-- Node1 -->
<g id="node1" class="node"><title>Node1</title>
<polygon fill="#bfbfbf" stroke="black" points="-0.264648,-1 -0.264648,-185 118.265,-185 118.265,-1 -0.264648,-1"/>
<text text-anchor="middle" x="59" y="-173" font-family="Helvetica,sans-Serif" font-size="10.00">chrono::MicroTime</text>
<polyline fill="none" stroke="black" points="-0.264648,-167 118.265,-167 "/>
<text text-anchor="middle" x="59" y="-155" font-family="Helvetica,sans-Serif" font-size="10.00"> </text>
<polyline fill="none" stroke="black" points="-0.264648,-149 118.265,-149 "/>
<text text-anchor="start" x="7.73535" y="-137" font-family="Helvetica,sans-Serif" font-size="10.00">+ MicroTime()</text>
<text text-anchor="start" x="7.73535" y="-127" font-family="Helvetica,sans-Serif" font-size="10.00">+ MicroTime()</text>
<text text-anchor="start" x="7.73535" y="-117" font-family="Helvetica,sans-Serif" font-size="10.00">+ is_valid()</text>
<text text-anchor="start" x="7.73535" y="-107" font-family="Helvetica,sans-Serif" font-size="10.00">+ microseconds()</text>
<text text-anchor="start" x="7.73535" y="-97" font-family="Helvetica,sans-Serif" font-size="10.00">+ milliseconds()</text>
<text text-anchor="start" x="7.73535" y="-87" font-family="Helvetica,sans-Serif" font-size="10.00">+ msec()</text>
<text text-anchor="start" x="7.73535" y="-77" font-family="Helvetica,sans-Serif" font-size="10.00">and 12 more...</text>
<text text-anchor="start" x="7.73535" y="-67" font-family="Helvetica,sans-Serif" font-size="10.00">+ from_microseconds()</text>
<text text-anchor="start" x="7.73535" y="-57" font-family="Helvetica,sans-Serif" font-size="10.00">+ from_milliseconds()</text>
<text text-anchor="start" x="7.73535" y="-47" font-family="Helvetica,sans-Serif" font-size="10.00">+ from_msec()</text>
<text text-anchor="start" x="7.73535" y="-37" font-family="Helvetica,sans-Serif" font-size="10.00">+ from_sec()</text>
<text text-anchor="start" x="7.73535" y="-27" font-family="Helvetica,sans-Serif" font-size="10.00">+ from_seconds()</text>
<text text-anchor="start" x="7.73535" y="-17" font-family="Helvetica,sans-Serif" font-size="10.00">+ from_usec()</text>
<text text-anchor="start" x="7.73535" y="-7" font-family="Helvetica,sans-Serif" font-size="10.00">+ invalid()</text>
</g>
<!-- Node2 -->
<g id="node2" class="node"><title>Node2</title>
<g id="a_node2"><a xlink:href="classapi_1_1_chrono_info_object.html" target="_top" xlink:title="Chrono Information Object. ">
<polygon fill="none" stroke="black" points="0.84375,-223 0.84375,-327 117.156,-327 117.156,-223 0.84375,-223"/>
<text text-anchor="middle" x="59" y="-315" font-family="Helvetica,sans-Serif" font-size="10.00">api::ChronoInfoObject</text>
<polyline fill="none" stroke="black" points="0.84375,-309 117.156,-309 "/>
<text text-anchor="middle" x="59" y="-297" font-family="Helvetica,sans-Serif" font-size="10.00"> </text>
<polyline fill="none" stroke="black" points="0.84375,-291 117.156,-291 "/>
<text text-anchor="start" x="8.84375" y="-279" font-family="Helvetica,sans-Serif" font-size="10.00">+ wait()</text>
<text text-anchor="start" x="8.84375" y="-269" font-family="Helvetica,sans-Serif" font-size="10.00">+ wait()</text>
<text text-anchor="start" x="8.84375" y="-259" font-family="Helvetica,sans-Serif" font-size="10.00">+ wait()</text>
<text text-anchor="start" x="8.84375" y="-249" font-family="Helvetica,sans-Serif" font-size="10.00">+ wait_microseconds()</text>
<text text-anchor="start" x="8.84375" y="-239" font-family="Helvetica,sans-Serif" font-size="10.00">+ wait_milliseconds()</text>
<text text-anchor="start" x="8.84375" y="-229" font-family="Helvetica,sans-Serif" font-size="10.00">+ wait_seconds()</text>
</a>
</g>
</g>
<!-- Node2&#45;&gt;Node1 -->
<g id="edge1" class="edge"><title>Node2&#45;&gt;Node1</title>
<path fill="none" stroke="midnightblue" d="M59,-212.663C59,-203.758 59,-194.435 59,-185.096"/>
<polygon fill="none" stroke="midnightblue" points="55.5001,-212.901 59,-222.901 62.5001,-212.901 55.5001,-212.901"/>
</g>
<!-- Node3 -->
<g id="node3" class="node"><title>Node3</title>
<g id="a_node3"><a xlink:href="classapi_1_1_info_object.html" target="_top" xlink:title="API Information Object. ">
<polygon fill="none" stroke="black" points="18.7588,-365 18.7588,-419 99.2412,-419 99.2412,-365 18.7588,-365"/>
<text text-anchor="middle" x="59" y="-407" font-family="Helvetica,sans-Serif" font-size="10.00">api::InfoObject</text>
<polyline fill="none" stroke="black" points="18.7588,-401 99.2412,-401 "/>
<text text-anchor="middle" x="59" y="-389" font-family="Helvetica,sans-Serif" font-size="10.00"> </text>
<polyline fill="none" stroke="black" points="18.7588,-383 99.2412,-383 "/>
<text text-anchor="middle" x="59" y="-371" font-family="Helvetica,sans-Serif" font-size="10.00"> </text>
</a>
</g>
</g>
<!-- Node3&#45;&gt;Node2 -->
<g id="edge2" class="edge"><title>Node3&#45;&gt;Node2</title>
<path fill="none" stroke="midnightblue" d="M59,-354.747C59,-346.06 59,-336.621 59,-327.393"/>
<polygon fill="none" stroke="midnightblue" points="55.5001,-354.905 59,-364.905 62.5001,-354.905 55.5001,-354.905"/>
</g>
<!-- Node4 -->
<g id="node4" class="node"><title>Node4</title>
<g id="a_node4"><a xlink:href="classapi_1_1_api_object.html" target="_top" xlink:title="API Object Class. ">
<polygon fill="none" stroke="black" points="17.7896,-457 17.7896,-511 100.21,-511 100.21,-457 17.7896,-457"/>
<text text-anchor="middle" x="59" y="-499" font-family="Helvetica,sans-Serif" font-size="10.00">api::ApiObject</text>
<polyline fill="none" stroke="black" points="17.7896,-493 100.21,-493 "/>
<text text-anchor="middle" x="59" y="-481" font-family="Helvetica,sans-Serif" font-size="10.00"> </text>
<polyline fill="none" stroke="black" points="17.7896,-475 100.21,-475 "/>
<text text-anchor="start" x="25.7896" y="-463" font-family="Helvetica,sans-Serif" font-size="10.00">+ api_version()</text>
</a>
</g>
</g>
<!-- Node4&#45;&gt;Node3 -->
<g id="edge3" class="edge"><title>Node4&#45;&gt;Node3</title>
<path fill="none" stroke="midnightblue" d="M59,-446.865C59,-437.644 59,-427.907 59,-419.285"/>
<polygon fill="none" stroke="midnightblue" points="55.5001,-446.968 59,-456.968 62.5001,-446.968 55.5001,-446.968"/>
</g>
</g>
</svg>
