<?xml version="1.0" encoding="UTF-8" standalone="no"?>
<!DOCTYPE svg PUBLIC "-//W3C//DTD SVG 1.1//EN"
 "http://www.w3.org/Graphics/SVG/1.1/DTD/svg11.dtd">
<!-- Generated by graphviz version 2.36.0 (20140111.2315)
 -->
<!-- Title: dsp::SignalComplexQ31 Pages: 1 -->
<!--zoomable 976 -->
<svg id="main" version="1.1" xmlns="http://www.w3.org/2000/svg" xmlns:xlink="http://www.w3.org/1999/xlink" xml:space="preserve" onload="init(evt)">
<style type="text/css"><![CDATA[
.edge:hover path { stroke: red; }
.edge:hover polygon { stroke: red; fill: red; }
]]></style>
<script type="text/javascript"><![CDATA[
var edges = document.getElementsByTagName('g');
if (edges && edges.length) {
  for (var i=0;i<edges.length;i++) {
    if (edges[i].id.substr(0,4)=='edge') {
      edges[i].setAttribute('class','edge');
    }
  }
}
]]></script>
        <defs>
                <circle id="rim" cx="0" cy="0" r="7"/>
                <circle id="rim2" cx="0" cy="0" r="3.5"/>
                <g id="zoomPlus">
                        <use xlink:href="#rim" fill="#404040">
                                <set attributeName="fill" to="#808080" begin="zoomplus.mouseover" end="zoomplus.mouseout"/>
                        </use>
                        <path d="M-4,0h8M0,-4v8" fill="none" stroke="white" stroke-width="1.5" pointer-events="none"/>
                </g>
                <g id="zoomMin">
                        <use xlink:href="#rim" fill="#404040">
                                <set attributeName="fill" to="#808080" begin="zoomminus.mouseover" end="zoomminus.mouseout"/>
                        </use>
                        <path d="M-4,0h8" fill="none" stroke="white" stroke-width="1.5" pointer-events="none"/>
                </g>
                <g id="dirArrow">
                        <path fill="none" stroke="white" stroke-width="1.5" d="M0,-3.0v7 M-2.5,-0.5L0,-3.0L2.5,-0.5"/>
                </g>
               <g id="resetDef">
                       <use xlink:href="#rim2" fill="#404040">
                               <set attributeName="fill" to="#808080" begin="reset.mouseover" end="reset.mouseout"/>
                       </use>
               </g>
        </defs>

<script type="text/javascript">
var viewWidth = 270;
var viewHeight = 976;
var sectionId = 'dynsection-0';
</script>
<script xlink:href="svgpan.js"/>
<svg id="graph" class="graph">
<g id="viewport">
<title>dsp::SignalComplexQ31</title>
<!-- Node1 -->
<g id="node1" class="node"><title>Node1</title>
<polygon fill="#bfbfbf" stroke="black" points="64.0815,-1 64.0815,-95 187.918,-95 187.918,-1 64.0815,-1"/>
<text text-anchor="middle" x="126" y="-83" font-family="Helvetica,sans-Serif" font-size="10.00">dsp::SignalComplexQ31</text>
<polyline fill="none" stroke="black" points="64.0815,-77 187.918,-77 "/>
<text text-anchor="middle" x="126" y="-65" font-family="Helvetica,sans-Serif" font-size="10.00"> </text>
<polyline fill="none" stroke="black" points="64.0815,-59 187.918,-59 "/>
<text text-anchor="start" x="72.0815" y="-47" font-family="Helvetica,sans-Serif" font-size="10.00">+ SignalComplexQ31()</text>
<text text-anchor="start" x="72.0815" y="-37" font-family="Helvetica,sans-Serif" font-size="10.00">+ SignalComplexQ31()</text>
<text text-anchor="start" x="72.0815" y="-27" font-family="Helvetica,sans-Serif" font-size="10.00">+ transform()</text>
<text text-anchor="start" x="72.0815" y="-17" font-family="Helvetica,sans-Serif" font-size="10.00">+ transform()</text>
<text text-anchor="start" x="72.0815" y="-7" font-family="Helvetica,sans-Serif" font-size="10.00">+ transform()</text>
</g>
<!-- Node2 -->
<g id="node2" class="node"><title>Node2</title>
<g id="a_node2"><a xlink:href="classdsp_1_1_signal_data.html" target="_top" xlink:title="Signal Data Template. ">
<polygon fill="none" stroke="black" points="64.3599,-133 64.3599,-247 187.64,-247 187.64,-133 64.3599,-133"/>
<text text-anchor="middle" x="126" y="-235" font-family="Helvetica,sans-Serif" font-size="10.00">SignalDataComplexQ31</text>
<polyline fill="none" stroke="black" points="64.3599,-229 187.64,-229 "/>
<text text-anchor="middle" x="126" y="-217" font-family="Helvetica,sans-Serif" font-size="10.00"> </text>
<polyline fill="none" stroke="black" points="64.3599,-211 187.64,-211 "/>
<text text-anchor="start" x="72.3599" y="-199" font-family="Helvetica,sans-Serif" font-size="10.00">+ SignalData()</text>
<text text-anchor="start" x="72.3599" y="-189" font-family="Helvetica,sans-Serif" font-size="10.00">+ SignalData()</text>
<text text-anchor="start" x="72.3599" y="-179" font-family="Helvetica,sans-Serif" font-size="10.00">+ abs()</text>
<text text-anchor="start" x="72.3599" y="-169" font-family="Helvetica,sans-Serif" font-size="10.00">+ abs()</text>
<text text-anchor="start" x="72.3599" y="-159" font-family="Helvetica,sans-Serif" font-size="10.00">+ add()</text>
<text text-anchor="start" x="72.3599" y="-149" font-family="Helvetica,sans-Serif" font-size="10.00">+ add()</text>
<text text-anchor="start" x="72.3599" y="-139" font-family="Helvetica,sans-Serif" font-size="10.00">and 49 more...</text>
</a>
</g>
</g>
<!-- Node2&#45;&gt;Node1 -->
<g id="edge1" class="edge"><title>Node2&#45;&gt;Node1</title>
<path fill="none" stroke="midnightblue" d="M126,-122.823C126,-113.509 126,-104.105 126,-95.2717"/>
<polygon fill="none" stroke="midnightblue" points="122.5,-122.863 126,-132.863 129.5,-122.863 122.5,-122.863"/>
</g>
<!-- Node3 -->
<g id="node3" class="node"><title>Node3</title>
<g id="a_node3"><a xlink:href="classvar_1_1_vector.html" target="_top" xlink:title="Vector Class. ">
<polygon fill="none" stroke="black" points="38.6021,-285 38.6021,-409 125.398,-409 125.398,-285 38.6021,-285"/>
<text text-anchor="middle" x="82" y="-397" font-family="Helvetica,sans-Serif" font-size="10.00">var::Vector&lt; T &gt;</text>
<polyline fill="none" stroke="black" points="38.6021,-391 125.398,-391 "/>
<text text-anchor="middle" x="82" y="-379" font-family="Helvetica,sans-Serif" font-size="10.00"> </text>
<polyline fill="none" stroke="black" points="38.6021,-373 125.398,-373 "/>
<text text-anchor="start" x="46.6021" y="-361" font-family="Helvetica,sans-Serif" font-size="10.00">+ Vector()</text>
<text text-anchor="start" x="46.6021" y="-351" font-family="Helvetica,sans-Serif" font-size="10.00">+ Vector()</text>
<text text-anchor="start" x="46.6021" y="-341" font-family="Helvetica,sans-Serif" font-size="10.00">+ at()</text>
<text text-anchor="start" x="46.6021" y="-331" font-family="Helvetica,sans-Serif" font-size="10.00">+ at()</text>
<text text-anchor="start" x="46.6021" y="-321" font-family="Helvetica,sans-Serif" font-size="10.00">+ capacity()</text>
<text text-anchor="start" x="46.6021" y="-311" font-family="Helvetica,sans-Serif" font-size="10.00">+ clear()</text>
<text text-anchor="start" x="46.6021" y="-301" font-family="Helvetica,sans-Serif" font-size="10.00">and 13 more...</text>
<text text-anchor="start" x="46.6021" y="-291" font-family="Helvetica,sans-Serif" font-size="10.00"># compare()</text>
</a>
</g>
</g>
<!-- Node3&#45;&gt;Node2 -->
<g id="edge2" class="edge"><title>Node3&#45;&gt;Node2</title>
<path fill="none" stroke="midnightblue" d="M102.129,-275.092C104.775,-265.768 107.459,-256.316 110.024,-247.28"/>
<polygon fill="none" stroke="midnightblue" points="98.7539,-274.164 99.39,-284.74 105.488,-276.076 98.7539,-274.164"/>
</g>
<!-- Node4 -->
<g id="node4" class="node"><title>Node4</title>
<g id="a_node4"><a xlink:href="classvar_1_1_data.html" target="_top" xlink:title="Data storage class. ">
<polygon fill="none" stroke="black" points="-0.589844,-457 -0.589844,-591 94.5898,-591 94.5898,-457 -0.589844,-457"/>
<text text-anchor="middle" x="47" y="-579" font-family="Helvetica,sans-Serif" font-size="10.00">var::Data</text>
<polyline fill="none" stroke="black" points="-0.589844,-573 94.5898,-573 "/>
<text text-anchor="middle" x="47" y="-561" font-family="Helvetica,sans-Serif" font-size="10.00"> </text>
<polyline fill="none" stroke="black" points="-0.589844,-555 94.5898,-555 "/>
<text text-anchor="start" x="7.41016" y="-543" font-family="Helvetica,sans-Serif" font-size="10.00">+ Data()</text>
<text text-anchor="start" x="7.41016" y="-533" font-family="Helvetica,sans-Serif" font-size="10.00">+ Data()</text>
<text text-anchor="start" x="7.41016" y="-523" font-family="Helvetica,sans-Serif" font-size="10.00">+ Data()</text>
<text text-anchor="start" x="7.41016" y="-513" font-family="Helvetica,sans-Serif" font-size="10.00">+ Data()</text>
<text text-anchor="start" x="7.41016" y="-503" font-family="Helvetica,sans-Serif" font-size="10.00">+ ~Data()</text>
<text text-anchor="start" x="7.41016" y="-493" font-family="Helvetica,sans-Serif" font-size="10.00">+ alloc()</text>
<text text-anchor="start" x="7.41016" y="-483" font-family="Helvetica,sans-Serif" font-size="10.00">and 19 more...</text>
<text text-anchor="start" x="7.41016" y="-473" font-family="Helvetica,sans-Serif" font-size="10.00">+ minimum_size()</text>
<text text-anchor="start" x="7.41016" y="-463" font-family="Helvetica,sans-Serif" font-size="10.00"># copy()</text>
</a>
</g>
</g>
<!-- Node4&#45;&gt;Node3 -->
<g id="edge3" class="edge"><title>Node4&#45;&gt;Node3</title>
<path fill="none" stroke="midnightblue" d="M62.2384,-446.808C64.7624,-434.188 67.3502,-421.249 69.7871,-409.064"/>
<polygon fill="none" stroke="midnightblue" points="58.7612,-446.348 60.232,-456.84 65.6253,-447.721 58.7612,-446.348"/>
</g>
<!-- Node5 -->
<g id="node5" class="node"><title>Node5</title>
<g id="a_node5"><a xlink:href="classapi_1_1_var_work_object.html" target="_top" xlink:title="Var Work Object. ">
<polygon fill="none" stroke="black" points="11.1094,-639 11.1094,-693 112.891,-693 112.891,-639 11.1094,-639"/>
<text text-anchor="middle" x="62" y="-681" font-family="Helvetica,sans-Serif" font-size="10.00">api::VarWorkObject</text>
<polyline fill="none" stroke="black" points="11.1094,-675 112.891,-675 "/>
<text text-anchor="middle" x="62" y="-663" font-family="Helvetica,sans-Serif" font-size="10.00"> </text>
<polyline fill="none" stroke="black" points="11.1094,-657 112.891,-657 "/>
<text text-anchor="middle" x="62" y="-645" font-family="Helvetica,sans-Serif" font-size="10.00"> </text>
</a>
</g>
</g>
<!-- Node5&#45;&gt;Node4 -->
<g id="edge4" class="edge"><title>Node5&#45;&gt;Node4</title>
<path fill="none" stroke="midnightblue" d="M58.1289,-628.87C56.8881,-617.289 55.4727,-604.078 54.0769,-591.051"/>
<polygon fill="none" stroke="midnightblue" points="54.6683,-629.425 59.2138,-638.995 61.6284,-628.679 54.6683,-629.425"/>
</g>
<!-- Node6 -->
<g id="node6" class="node"><title>Node6</title>
<g id="a_node6"><a xlink:href="classapi_1_1_work_object.html" target="_top" xlink:title="Work Object. ">
<polygon fill="none" stroke="black" points="29.9141,-731 29.9141,-875 172.086,-875 172.086,-731 29.9141,-731"/>
<text text-anchor="middle" x="101" y="-863" font-family="Helvetica,sans-Serif" font-size="10.00">api::WorkObject</text>
<polyline fill="none" stroke="black" points="29.9141,-857 172.086,-857 "/>
<text text-anchor="middle" x="101" y="-845" font-family="Helvetica,sans-Serif" font-size="10.00"> </text>
<polyline fill="none" stroke="black" points="29.9141,-839 172.086,-839 "/>
<text text-anchor="start" x="37.9141" y="-827" font-family="Helvetica,sans-Serif" font-size="10.00">+ WorkObject()</text>
<text text-anchor="start" x="37.9141" y="-817" font-family="Helvetica,sans-Serif" font-size="10.00">+ clear_error_number()</text>
<text text-anchor="start" x="37.9141" y="-807" font-family="Helvetica,sans-Serif" font-size="10.00">+ error_number()</text>
<text text-anchor="start" x="37.9141" y="-797" font-family="Helvetica,sans-Serif" font-size="10.00">+ exit_fatal()</text>
<text text-anchor="start" x="37.9141" y="-787" font-family="Helvetica,sans-Serif" font-size="10.00"># set_error_number()</text>
<text text-anchor="start" x="37.9141" y="-777" font-family="Helvetica,sans-Serif" font-size="10.00"># set_error_number_if</text>
<text text-anchor="start" x="37.9141" y="-767" font-family="Helvetica,sans-Serif" font-size="10.00">_error()</text>
<text text-anchor="start" x="37.9141" y="-757" font-family="Helvetica,sans-Serif" font-size="10.00"># set_error_number_if_null()</text>
<text text-anchor="start" x="37.9141" y="-747" font-family="Helvetica,sans-Serif" font-size="10.00"># set_error_number_to</text>
<text text-anchor="start" x="37.9141" y="-737" font-family="Helvetica,sans-Serif" font-size="10.00">_errno()</text>
</a>
</g>
</g>
<!-- Node6&#45;&gt;Node5 -->
<g id="edge5" class="edge"><title>Node6&#45;&gt;Node5</title>
<path fill="none" stroke="midnightblue" d="M77.664,-721.221C74.7635,-711.181 71.9809,-701.549 69.5868,-693.262"/>
<polygon fill="none" stroke="midnightblue" points="74.3341,-722.306 80.4721,-730.942 81.0591,-720.363 74.3341,-722.306"/>
</g>
<!-- Node8 -->
<g id="node8" class="node"><title>Node8</title>
<g id="a_node8"><a xlink:href="classapi_1_1_dsp_work_object.html" target="_top" xlink:title="DSP Work Object. ">
<polygon fill="none" stroke="black" points="113.018,-447 113.018,-601 262.982,-601 262.982,-447 113.018,-447"/>
<text text-anchor="middle" x="188" y="-589" font-family="Helvetica,sans-Serif" font-size="10.00">api::DspWorkObject</text>
<polyline fill="none" stroke="black" points="113.018,-583 262.982,-583 "/>
<text text-anchor="start" x="121.018" y="-571" font-family="Helvetica,sans-Serif" font-size="10.00"># m_arm_dsp_api_f32</text>
<text text-anchor="start" x="121.018" y="-561" font-family="Helvetica,sans-Serif" font-size="10.00"># m_arm_dsp_api_q15</text>
<text text-anchor="start" x="121.018" y="-551" font-family="Helvetica,sans-Serif" font-size="10.00"># m_arm_dsp_api_q31</text>
<text text-anchor="start" x="121.018" y="-541" font-family="Helvetica,sans-Serif" font-size="10.00"># m_arm_dsp_api_q7</text>
<text text-anchor="start" x="121.018" y="-531" font-family="Helvetica,sans-Serif" font-size="10.00"># m_arm_dsp_conversion_api</text>
<polyline fill="none" stroke="black" points="113.018,-525 262.982,-525 "/>
<text text-anchor="start" x="121.018" y="-513" font-family="Helvetica,sans-Serif" font-size="10.00">+ arm_dsp_api_f32()</text>
<text text-anchor="start" x="121.018" y="-503" font-family="Helvetica,sans-Serif" font-size="10.00">+ arm_dsp_api_q15()</text>
<text text-anchor="start" x="121.018" y="-493" font-family="Helvetica,sans-Serif" font-size="10.00">+ arm_dsp_api_q31()</text>
<text text-anchor="start" x="121.018" y="-483" font-family="Helvetica,sans-Serif" font-size="10.00">+ arm_dsp_api_q7()</text>
<text text-anchor="start" x="121.018" y="-473" font-family="Helvetica,sans-Serif" font-size="10.00">+ arm_dsp_conversion_api()</text>
<text text-anchor="start" x="121.018" y="-463" font-family="Helvetica,sans-Serif" font-size="10.00">+ request_arm_dsp_api()</text>
<text text-anchor="start" x="121.018" y="-453" font-family="Helvetica,sans-Serif" font-size="10.00">and 5 more...</text>
</a>
</g>
</g>
<!-- Node6&#45;&gt;Node8 -->
<g id="edge8" class="edge"><title>Node6&#45;&gt;Node8</title>
<path fill="none" stroke="midnightblue" d="M126.523,-720.737C138.36,-683.05 152.351,-638.502 163.994,-601.433"/>
<polygon fill="none" stroke="midnightblue" points="123.062,-720.076 123.405,-730.666 129.74,-722.174 123.062,-720.076"/>
</g>
<!-- Node7 -->
<g id="node7" class="node"><title>Node7</title>
<g id="a_node7"><a xlink:href="classapi_1_1_api_object.html" target="_top" xlink:title="Application Programming Interface Object. ">
<polygon fill="none" stroke="black" points="59.7896,-913 59.7896,-967 142.21,-967 142.21,-913 59.7896,-913"/>
<text text-anchor="middle" x="101" y="-955" font-family="Helvetica,sans-Serif" font-size="10.00">api::ApiObject</text>
<polyline fill="none" stroke="black" points="59.7896,-949 142.21,-949 "/>
<text text-anchor="middle" x="101" y="-937" font-family="Helvetica,sans-Serif" font-size="10.00"> </text>
<polyline fill="none" stroke="black" points="59.7896,-931 142.21,-931 "/>
<text text-anchor="start" x="67.7896" y="-919" font-family="Helvetica,sans-Serif" font-size="10.00">+ api_version()</text>
</a>
</g>
</g>
<!-- Node7&#45;&gt;Node6 -->
<g id="edge6" class="edge"><title>Node7&#45;&gt;Node6</title>
<path fill="none" stroke="midnightblue" d="M101,-902.925C101,-894.287 101,-884.765 101,-875.145"/>
<polygon fill="none" stroke="midnightblue" points="97.5001,-902.971 101,-912.971 104.5,-902.971 97.5001,-902.971"/>
</g>
<!-- Node8&#45;&gt;Node2 -->
<g id="edge7" class="edge"><title>Node8&#45;&gt;Node2</title>
<path fill="none" stroke="midnightblue" d="M171.874,-436.646C160.709,-376.86 146.17,-299.008 136.483,-247.134"/>
<polygon fill="none" stroke="midnightblue" points="168.5,-437.645 173.776,-446.832 175.381,-436.36 168.5,-437.645"/>
</g>
</g>
</svg>
        <g id="navigator" transform="translate(0 0)" fill="#404254">
                <rect fill="#f2f5e9" fill-opacity="0.5" stroke="#606060" stroke-width=".5" x="0" y="0" width="60" height="60"/>
                <use id="zoomplus" xlink:href="#zoomPlus" x="17" y="9" onmousedown="handleZoom(evt,'in')"/>
                <use id="zoomminus" xlink:href="#zoomMin" x="42" y="9" onmousedown="handleZoom(evt,'out')"/>
                <use id="reset" xlink:href="#resetDef" x="30" y="36" onmousedown="handleReset()"/>
                <g id="arrowUp" xlink:href="#dirArrow" transform="translate(30 24)" onmousedown="handlePan(0,-1)">
                  <use xlink:href="#rim" fill="#404040">
                        <set attributeName="fill" to="#808080" begin="arrowUp.mouseover" end="arrowUp.mouseout"/>
                  </use>
                  <path fill="none" stroke="white" stroke-width="1.5" d="M0,-3.0v7 M-2.5,-0.5L0,-3.0L2.5,-0.5"/>
                </g>
                <g id="arrowRight" xlink:href="#dirArrow" transform="rotate(90) translate(36 -43)" onmousedown="handlePan(1,0)">
                  <use xlink:href="#rim" fill="#404040">
                        <set attributeName="fill" to="#808080" begin="arrowRight.mouseover" end="arrowRight.mouseout"/>
                  </use>
                  <path fill="none" stroke="white" stroke-width="1.5" d="M0,-3.0v7 M-2.5,-0.5L0,-3.0L2.5,-0.5"/>
                </g>
                <g id="arrowDown" xlink:href="#dirArrow" transform="rotate(180) translate(-30 -48)" onmousedown="handlePan(0,1)">
                  <use xlink:href="#rim" fill="#404040">
                        <set attributeName="fill" to="#808080" begin="arrowDown.mouseover" end="arrowDown.mouseout"/>
                  </use>
                  <path fill="none" stroke="white" stroke-width="1.5" d="M0,-3.0v7 M-2.5,-0.5L0,-3.0L2.5,-0.5"/>
                </g>
                <g id="arrowLeft" xlink:href="#dirArrow" transform="rotate(270) translate(-36 17)" onmousedown="handlePan(-1,0)">
                  <use xlink:href="#rim" fill="#404040">
                        <set attributeName="fill" to="#808080" begin="arrowLeft.mouseover" end="arrowLeft.mouseout"/>
                  </use>
                  <path fill="none" stroke="white" stroke-width="1.5" d="M0,-3.0v7 M-2.5,-0.5L0,-3.0L2.5,-0.5"/>
                </g>
        </g>
        <svg viewBox="0 0 15 15" width="100%" height="30px" preserveAspectRatio="xMaxYMin meet">
         <g id="arrow_out" transform="scale(0.3 0.3)">
          <a xlink:href="classdsp_1_1_signal_complex_q31__inherit__graph_org.svg" target="_base">
           <rect id="button" ry="5" rx="5" y="6" x="6" height="38" width="38"
                fill="#f2f5e9" fill-opacity="0.5" stroke="#606060" stroke-width="1.0"/>
           <path id="arrow"
             d="M 11.500037,31.436501 C 11.940474,20.09759 22.043105,11.32322 32.158766,21.979434 L 37.068811,17.246167 C 37.068811,17.246167 37.088388,32 37.088388,32 L 22.160133,31.978069 C 22.160133,31.978069 26.997745,27.140456 26.997745,27.140456 C 18.528582,18.264221 13.291696,25.230495 11.500037,31.436501 z"
             style="fill:#404040;"/>
          </a>
         </g>
        </svg>
</svg>
