<?xml version="1.0" encoding="UTF-8" standalone="no"?>
<!DOCTYPE svg PUBLIC "-//W3C//DTD SVG 1.1//EN"
 "http://www.w3.org/Graphics/SVG/1.1/DTD/svg11.dtd">
<!-- Generated by graphviz version 2.36.0 (20140111.2315)
 -->
<!-- Title: hal::Uart Pages: 1 -->
<svg width="229pt" height="1266pt"
 viewBox="0.00 0.00 228.85 1266.00" xmlns="http://www.w3.org/2000/svg" xmlns:xlink="http://www.w3.org/1999/xlink">
<g id="graph0" class="graph" transform="scale(1 1) rotate(0) translate(4 1262)">
<title>hal::Uart</title>
<!-- Node1 -->
<g id="node1" class="node"><title>Node1</title>
<polygon fill="#bfbfbf" stroke="black" points="40.686,-1 40.686,-105 105.314,-105 105.314,-1 40.686,-1"/>
<text text-anchor="middle" x="73" y="-93" font-family="Helvetica,sans-Serif" font-size="10.00">hal::Uart</text>
<polyline fill="none" stroke="black" points="40.686,-87 105.314,-87 "/>
<text text-anchor="middle" x="73" y="-75" font-family="Helvetica,sans-Serif" font-size="10.00"> </text>
<polyline fill="none" stroke="black" points="40.686,-69 105.314,-69 "/>
<text text-anchor="start" x="48.686" y="-57" font-family="Helvetica,sans-Serif" font-size="10.00">+ Uart()</text>
<text text-anchor="start" x="48.686" y="-47" font-family="Helvetica,sans-Serif" font-size="10.00">+ flush()</text>
<text text-anchor="start" x="48.686" y="-37" font-family="Helvetica,sans-Serif" font-size="10.00">+ get()</text>
<text text-anchor="start" x="48.686" y="-27" font-family="Helvetica,sans-Serif" font-size="10.00">+ init()</text>
<text text-anchor="start" x="48.686" y="-17" font-family="Helvetica,sans-Serif" font-size="10.00">+ put()</text>
<text text-anchor="start" x="48.686" y="-7" font-family="Helvetica,sans-Serif" font-size="10.00">+ set_attr()</text>
</g>
<!-- Node2 -->
<g id="node2" class="node"><title>Node2</title>
<g id="a_node2"><a xlink:href="classhal_1_1_periph.html" target="_top" xlink:title="{hal::Periph\&lt; uart_info\l_t, uart_attr_t, UART\l_IOC_IDENT_CHAR \&gt;\n||+ Periph()\l+ get_info()\l+ get_version()\l+ init()\l+ port()\l+ set_action()\l+ set_action()\l+ set_attr()\l+ set_attr()\l# get_channel()\l# set_channel()\l# set_channel()\l}">
<polygon fill="none" stroke="black" points="14.292,-145 14.292,-329 131.708,-329 131.708,-145 14.292,-145"/>
<text text-anchor="start" x="22.292" y="-317" font-family="Helvetica,sans-Serif" font-size="10.00">hal::Periph&lt; uart_info</text>
<text text-anchor="start" x="22.292" y="-307" font-family="Helvetica,sans-Serif" font-size="10.00">_t, uart_attr_t, UART</text>
<text text-anchor="middle" x="73" y="-297" font-family="Helvetica,sans-Serif" font-size="10.00">_IOC_IDENT_CHAR &gt;</text>
<polyline fill="none" stroke="black" points="14.292,-291 131.708,-291 "/>
<text text-anchor="middle" x="73" y="-279" font-family="Helvetica,sans-Serif" font-size="10.00"> </text>
<polyline fill="none" stroke="black" points="14.292,-273 131.708,-273 "/>
<text text-anchor="start" x="22.292" y="-261" font-family="Helvetica,sans-Serif" font-size="10.00">+ Periph()</text>
<text text-anchor="start" x="22.292" y="-251" font-family="Helvetica,sans-Serif" font-size="10.00">+ get_info()</text>
<text text-anchor="start" x="22.292" y="-241" font-family="Helvetica,sans-Serif" font-size="10.00">+ get_version()</text>
<text text-anchor="start" x="22.292" y="-231" font-family="Helvetica,sans-Serif" font-size="10.00">+ init()</text>
<text text-anchor="start" x="22.292" y="-221" font-family="Helvetica,sans-Serif" font-size="10.00">+ port()</text>
<text text-anchor="start" x="22.292" y="-211" font-family="Helvetica,sans-Serif" font-size="10.00">+ set_action()</text>
<text text-anchor="start" x="22.292" y="-201" font-family="Helvetica,sans-Serif" font-size="10.00">+ set_action()</text>
<text text-anchor="start" x="22.292" y="-191" font-family="Helvetica,sans-Serif" font-size="10.00">+ set_attr()</text>
<text text-anchor="start" x="22.292" y="-181" font-family="Helvetica,sans-Serif" font-size="10.00">+ set_attr()</text>
<text text-anchor="start" x="22.292" y="-171" font-family="Helvetica,sans-Serif" font-size="10.00"># get_channel()</text>
<text text-anchor="start" x="22.292" y="-161" font-family="Helvetica,sans-Serif" font-size="10.00"># set_channel()</text>
<text text-anchor="start" x="22.292" y="-151" font-family="Helvetica,sans-Serif" font-size="10.00"># set_channel()</text>
</a>
</g>
</g>
<!-- Node2&#45;&gt;Node1 -->
<g id="edge1" class="edge"><title>Node2&#45;&gt;Node1</title>
<path fill="none" stroke="midnightblue" d="M73,-134.51C73,-124.327 73,-114.321 73,-105.012"/>
<polygon fill="none" stroke="midnightblue" points="69.5001,-134.733 73,-144.733 76.5001,-134.733 69.5001,-134.733"/>
</g>
<!-- Node3 -->
<g id="node3" class="node"><title>Node3</title>
<g id="a_node3"><a xlink:href="classhal_1_1_periph_object.html" target="_top" xlink:title="Periph Object Class. ">
<polygon fill="none" stroke="black" points="10.6455,-611 10.6455,-775 103.354,-775 103.354,-611 10.6455,-611"/>
<text text-anchor="middle" x="57" y="-763" font-family="Helvetica,sans-Serif" font-size="10.00">hal::PeriphObject</text>
<polyline fill="none" stroke="black" points="10.6455,-757 103.354,-757 "/>
<text text-anchor="start" x="18.6455" y="-745" font-family="Helvetica,sans-Serif" font-size="10.00"># m_periph_port</text>
<polyline fill="none" stroke="black" points="10.6455,-739 103.354,-739 "/>
<text text-anchor="start" x="18.6455" y="-727" font-family="Helvetica,sans-Serif" font-size="10.00">+ close()</text>
<text text-anchor="start" x="18.6455" y="-717" font-family="Helvetica,sans-Serif" font-size="10.00">+ fileno()</text>
<text text-anchor="start" x="18.6455" y="-707" font-family="Helvetica,sans-Serif" font-size="10.00">+ ioctl()</text>
<text text-anchor="start" x="18.6455" y="-697" font-family="Helvetica,sans-Serif" font-size="10.00">+ open()</text>
<text text-anchor="start" x="18.6455" y="-687" font-family="Helvetica,sans-Serif" font-size="10.00">+ read()</text>
<text text-anchor="start" x="18.6455" y="-677" font-family="Helvetica,sans-Serif" font-size="10.00">+ read()</text>
<text text-anchor="start" x="18.6455" y="-667" font-family="Helvetica,sans-Serif" font-size="10.00">+ seek()</text>
<text text-anchor="start" x="18.6455" y="-657" font-family="Helvetica,sans-Serif" font-size="10.00">+ write()</text>
<text text-anchor="start" x="18.6455" y="-647" font-family="Helvetica,sans-Serif" font-size="10.00">+ write()</text>
<text text-anchor="start" x="18.6455" y="-637" font-family="Helvetica,sans-Serif" font-size="10.00"># lookup_fileno()</text>
<text text-anchor="start" x="18.6455" y="-627" font-family="Helvetica,sans-Serif" font-size="10.00"># open()</text>
<text text-anchor="start" x="18.6455" y="-617" font-family="Helvetica,sans-Serif" font-size="10.00"># update_fileno()</text>
</a>
</g>
</g>
<!-- Node3&#45;&gt;Node2 -->
<g id="edge2" class="edge"><title>Node3&#45;&gt;Node2</title>
<path fill="none" stroke="midnightblue" d="M58.377,-600.615C59.4526,-542.1 61.2374,-464.56 64,-396 64.8739,-374.312 66.0655,-350.964 67.2955,-329.044"/>
<polygon fill="none" stroke="midnightblue" points="54.8717,-600.882 58.1909,-610.943 61.8706,-601.008 54.8717,-600.882"/>
</g>
<!-- Node7 -->
<g id="node7" class="node"><title>Node7</title>
<g id="a_node7"><a xlink:href="classhal_1_1_periph.html" target="_top" xlink:title="Peripheral Class. ">
<polygon fill="none" stroke="black" points="72.7798,-397 72.7798,-571 175.22,-571 175.22,-397 72.7798,-397"/>
<text text-anchor="start" x="80.7798" y="-559" font-family="Helvetica,sans-Serif" font-size="10.00">hal::Periph&lt; info_t,</text>
<text text-anchor="middle" x="124" y="-549" font-family="Helvetica,sans-Serif" font-size="10.00"> attr_t, ident_char &gt;</text>
<polyline fill="none" stroke="black" points="72.7798,-543 175.22,-543 "/>
<text text-anchor="middle" x="124" y="-531" font-family="Helvetica,sans-Serif" font-size="10.00"> </text>
<polyline fill="none" stroke="black" points="72.7798,-525 175.22,-525 "/>
<text text-anchor="start" x="80.7798" y="-513" font-family="Helvetica,sans-Serif" font-size="10.00">+ Periph()</text>
<text text-anchor="start" x="80.7798" y="-503" font-family="Helvetica,sans-Serif" font-size="10.00">+ get_info()</text>
<text text-anchor="start" x="80.7798" y="-493" font-family="Helvetica,sans-Serif" font-size="10.00">+ get_version()</text>
<text text-anchor="start" x="80.7798" y="-483" font-family="Helvetica,sans-Serif" font-size="10.00">+ init()</text>
<text text-anchor="start" x="80.7798" y="-473" font-family="Helvetica,sans-Serif" font-size="10.00">+ port()</text>
<text text-anchor="start" x="80.7798" y="-463" font-family="Helvetica,sans-Serif" font-size="10.00">+ set_action()</text>
<text text-anchor="start" x="80.7798" y="-453" font-family="Helvetica,sans-Serif" font-size="10.00">+ set_action()</text>
<text text-anchor="start" x="80.7798" y="-443" font-family="Helvetica,sans-Serif" font-size="10.00">+ set_attr()</text>
<text text-anchor="start" x="80.7798" y="-433" font-family="Helvetica,sans-Serif" font-size="10.00">+ set_attr()</text>
<text text-anchor="start" x="80.7798" y="-423" font-family="Helvetica,sans-Serif" font-size="10.00"># get_channel()</text>
<text text-anchor="start" x="80.7798" y="-413" font-family="Helvetica,sans-Serif" font-size="10.00"># set_channel()</text>
<text text-anchor="start" x="80.7798" y="-403" font-family="Helvetica,sans-Serif" font-size="10.00"># set_channel()</text>
</a>
</g>
</g>
<!-- Node3&#45;&gt;Node7 -->
<g id="edge7" class="edge"><title>Node3&#45;&gt;Node7</title>
<path fill="none" stroke="midnightblue" d="M86.3752,-601.244C89.6162,-591.231 92.9095,-581.056 96.1313,-571.102"/>
<polygon fill="none" stroke="midnightblue" points="83.0375,-600.19 83.2879,-610.782 89.6973,-602.346 83.0375,-600.19"/>
</g>
<!-- Node4 -->
<g id="node4" class="node"><title>Node4</title>
<g id="a_node4"><a xlink:href="classhal_1_1_device.html" target="_top" xlink:title="Device Class. ">
<polygon fill="none" stroke="black" points="24.2661,-815 24.2661,-889 89.7339,-889 89.7339,-815 24.2661,-815"/>
<text text-anchor="middle" x="57" y="-877" font-family="Helvetica,sans-Serif" font-size="10.00">hal::Device</text>
<polyline fill="none" stroke="black" points="24.2661,-871 89.7339,-871 "/>
<text text-anchor="middle" x="57" y="-859" font-family="Helvetica,sans-Serif" font-size="10.00"> </text>
<polyline fill="none" stroke="black" points="24.2661,-853 89.7339,-853 "/>
<text text-anchor="start" x="32.2661" y="-841" font-family="Helvetica,sans-Serif" font-size="10.00">+ Device()</text>
<text text-anchor="start" x="32.2661" y="-831" font-family="Helvetica,sans-Serif" font-size="10.00">+ read()</text>
<text text-anchor="start" x="32.2661" y="-821" font-family="Helvetica,sans-Serif" font-size="10.00">+ write()</text>
</a>
</g>
</g>
<!-- Node4&#45;&gt;Node3 -->
<g id="edge3" class="edge"><title>Node4&#45;&gt;Node3</title>
<path fill="none" stroke="midnightblue" d="M57,-804.793C57,-795.459 57,-785.388 57,-775.256"/>
<polygon fill="none" stroke="midnightblue" points="53.5001,-804.981 57,-814.981 60.5001,-804.981 53.5001,-804.981"/>
</g>
<!-- Node5 -->
<g id="node5" class="node"><title>Node5</title>
<g id="a_node5"><a xlink:href="classsys_1_1_file.html" target="_top" xlink:title="File Class. ">
<polygon fill="none" stroke="black" points="16.7588,-929 16.7588,-1093 97.2412,-1093 97.2412,-929 16.7588,-929"/>
<text text-anchor="middle" x="57" y="-1081" font-family="Helvetica,sans-Serif" font-size="10.00">sys::File</text>
<polyline fill="none" stroke="black" points="16.7588,-1075 97.2412,-1075 "/>
<text text-anchor="start" x="24.7588" y="-1063" font-family="Helvetica,sans-Serif" font-size="10.00"># m_fd</text>
<polyline fill="none" stroke="black" points="16.7588,-1057 97.2412,-1057 "/>
<text text-anchor="start" x="24.7588" y="-1045" font-family="Helvetica,sans-Serif" font-size="10.00">+ File()</text>
<text text-anchor="start" x="24.7588" y="-1035" font-family="Helvetica,sans-Serif" font-size="10.00">+ close()</text>
<text text-anchor="start" x="24.7588" y="-1025" font-family="Helvetica,sans-Serif" font-size="10.00">+ create()</text>
<text text-anchor="start" x="24.7588" y="-1015" font-family="Helvetica,sans-Serif" font-size="10.00">+ fileno()</text>
<text text-anchor="start" x="24.7588" y="-1005" font-family="Helvetica,sans-Serif" font-size="10.00">+ flags()</text>
<text text-anchor="start" x="24.7588" y="-995" font-family="Helvetica,sans-Serif" font-size="10.00">+ gets()</text>
<text text-anchor="start" x="24.7588" y="-985" font-family="Helvetica,sans-Serif" font-size="10.00">and 21 more...</text>
<text text-anchor="start" x="24.7588" y="-975" font-family="Helvetica,sans-Serif" font-size="10.00">+ name()</text>
<text text-anchor="start" x="24.7588" y="-965" font-family="Helvetica,sans-Serif" font-size="10.00">+ remove()</text>
<text text-anchor="start" x="24.7588" y="-955" font-family="Helvetica,sans-Serif" font-size="10.00">+ size()</text>
<text text-anchor="start" x="24.7588" y="-945" font-family="Helvetica,sans-Serif" font-size="10.00">+ stat()</text>
<text text-anchor="start" x="24.7588" y="-935" font-family="Helvetica,sans-Serif" font-size="10.00">+ suffix()</text>
</a>
</g>
</g>
<!-- Node5&#45;&gt;Node4 -->
<g id="edge4" class="edge"><title>Node5&#45;&gt;Node4</title>
<path fill="none" stroke="midnightblue" d="M57,-918.674C57,-908.248 57,-898.133 57,-889.09"/>
<polygon fill="none" stroke="midnightblue" points="53.5001,-918.741 57,-928.741 60.5001,-918.741 53.5001,-918.741"/>
</g>
<!-- Node6 -->
<g id="node6" class="node"><title>Node6</title>
<g id="a_node6"><a xlink:href="classapi_1_1_s_object.html" target="_top" xlink:title="SObject Class. ">
<polygon fill="none" stroke="black" points="-0.191895,-1133 -0.191895,-1257 114.192,-1257 114.192,-1133 -0.191895,-1133"/>
<text text-anchor="middle" x="57" y="-1245" font-family="Helvetica,sans-Serif" font-size="10.00">api::SObject</text>
<polyline fill="none" stroke="black" points="-0.191895,-1239 114.192,-1239 "/>
<text text-anchor="middle" x="57" y="-1227" font-family="Helvetica,sans-Serif" font-size="10.00"> </text>
<polyline fill="none" stroke="black" points="-0.191895,-1221 114.192,-1221 "/>
<text text-anchor="start" x="7.80811" y="-1209" font-family="Helvetica,sans-Serif" font-size="10.00">+ SObject()</text>
<text text-anchor="start" x="7.80811" y="-1199" font-family="Helvetica,sans-Serif" font-size="10.00">+ api_version()</text>
<text text-anchor="start" x="7.80811" y="-1189" font-family="Helvetica,sans-Serif" font-size="10.00">+ clear_error()</text>
<text text-anchor="start" x="7.80811" y="-1179" font-family="Helvetica,sans-Serif" font-size="10.00">+ error_number()</text>
<text text-anchor="start" x="7.80811" y="-1169" font-family="Helvetica,sans-Serif" font-size="10.00">+ exit_fatal()</text>
<text text-anchor="start" x="7.80811" y="-1159" font-family="Helvetica,sans-Serif" font-size="10.00"># set_error_number()</text>
<text text-anchor="start" x="7.80811" y="-1149" font-family="Helvetica,sans-Serif" font-size="10.00"># set_error_number_if</text>
<text text-anchor="start" x="7.80811" y="-1139" font-family="Helvetica,sans-Serif" font-size="10.00">_error()</text>
</a>
</g>
</g>
<!-- Node6&#45;&gt;Node5 -->
<g id="edge5" class="edge"><title>Node6&#45;&gt;Node5</title>
<path fill="none" stroke="midnightblue" d="M57,-1122.61C57,-1113 57,-1103.08 57,-1093.32"/>
<polygon fill="none" stroke="midnightblue" points="53.5001,-1122.89 57,-1132.89 60.5001,-1122.89 53.5001,-1122.89"/>
</g>
<!-- Node7&#45;&gt;Node2 -->
<g id="edge6" class="edge"><title>Node7&#45;&gt;Node2</title>
<path fill="none" stroke="orange" d="M104.037,-387.101C100.073,-368.059 95.9219,-348.115 91.9915,-329.234"/>
<polygon fill="orange" stroke="orange" points="100.626,-387.89 106.091,-396.967 107.48,-386.463 100.626,-387.89"/>
<text text-anchor="start" x="101" y="-370" font-family="Helvetica,sans-Serif" font-size="10.00"> &lt; uart_info_t, uart</text>
<text text-anchor="start" x="101" y="-360" font-family="Helvetica,sans-Serif" font-size="10.00">_attr_t, UART_IOC_IDENT</text>
<text text-anchor="middle" x="160.927" y="-350" font-family="Helvetica,sans-Serif" font-size="10.00">_CHAR &gt;</text>
</g>
</g>
</svg>
