<?xml version="1.0" encoding="UTF-8" standalone="no"?>
<!DOCTYPE svg PUBLIC "-//W3C//DTD SVG 1.1//EN"
 "http://www.w3.org/Graphics/SVG/1.1/DTD/svg11.dtd">
<!-- Generated by graphviz version 2.36.0 (20140111.2315)
 -->
<!-- Title: hal::Switchboard Pages: 1 -->
<svg width="170pt" height="966pt"
 viewBox="0.00 0.00 170.00 966.00" xmlns="http://www.w3.org/2000/svg" xmlns:xlink="http://www.w3.org/1999/xlink">
<g id="graph0" class="graph" transform="scale(1 1) rotate(0) translate(4 962)">
<title>hal::Switchboard</title>
<!-- Node1 -->
<g id="node1" class="node"><title>Node1</title>
<polygon fill="#bfbfbf" stroke="black" points="-0.515625,-1 -0.515625,-125 162.516,-125 162.516,-1 -0.515625,-1"/>
<text text-anchor="middle" x="81" y="-113" font-family="Helvetica,sans-Serif" font-size="10.00">hal::Switchboard</text>
<polyline fill="none" stroke="black" points="-0.515625,-107 162.516,-107 "/>
<text text-anchor="middle" x="81" y="-95" font-family="Helvetica,sans-Serif" font-size="10.00"> </text>
<polyline fill="none" stroke="black" points="-0.515625,-89 162.516,-89 "/>
<text text-anchor="start" x="7.48438" y="-77" font-family="Helvetica,sans-Serif" font-size="10.00">+ Switchboard()</text>
<text text-anchor="start" x="7.48438" y="-67" font-family="Helvetica,sans-Serif" font-size="10.00">+ create_fixed_size_connection()</text>
<text text-anchor="start" x="7.48438" y="-57" font-family="Helvetica,sans-Serif" font-size="10.00">+ create_persistent_connection()</text>
<text text-anchor="start" x="7.48438" y="-47" font-family="Helvetica,sans-Serif" font-size="10.00">+ destroy_connection()</text>
<text text-anchor="start" x="7.48438" y="-37" font-family="Helvetica,sans-Serif" font-size="10.00">+ destroy_connection()</text>
<text text-anchor="start" x="7.48438" y="-27" font-family="Helvetica,sans-Serif" font-size="10.00">+ get_active_connection</text>
<text text-anchor="start" x="7.48438" y="-17" font-family="Helvetica,sans-Serif" font-size="10.00">_count()</text>
<text text-anchor="start" x="7.48438" y="-7" font-family="Helvetica,sans-Serif" font-size="10.00">and 8 more...</text>
</g>
<!-- Node2 -->
<g id="node2" class="node"><title>Node2</title>
<g id="a_node2"><a xlink:href="classhal_1_1_device.html" target="_top" xlink:title="Device Class. ">
<polygon fill="none" stroke="black" points="26.7231,-163 26.7231,-247 135.277,-247 135.277,-163 26.7231,-163"/>
<text text-anchor="middle" x="81" y="-235" font-family="Helvetica,sans-Serif" font-size="10.00">hal::Device</text>
<polyline fill="none" stroke="black" points="26.7231,-229 135.277,-229 "/>
<text text-anchor="middle" x="81" y="-217" font-family="Helvetica,sans-Serif" font-size="10.00"> </text>
<polyline fill="none" stroke="black" points="26.7231,-211 135.277,-211 "/>
<text text-anchor="start" x="34.7231" y="-199" font-family="Helvetica,sans-Serif" font-size="10.00">+ Device()</text>
<text text-anchor="start" x="34.7231" y="-189" font-family="Helvetica,sans-Serif" font-size="10.00">+ read()</text>
<text text-anchor="start" x="34.7231" y="-179" font-family="Helvetica,sans-Serif" font-size="10.00">+ set_signal_action()</text>
<text text-anchor="start" x="34.7231" y="-169" font-family="Helvetica,sans-Serif" font-size="10.00">+ write()</text>
</a>
</g>
</g>
<!-- Node2&#45;&gt;Node1 -->
<g id="edge1" class="edge"><title>Node2&#45;&gt;Node1</title>
<path fill="none" stroke="midnightblue" d="M81,-152.543C81,-143.645 81,-134.316 81,-125.19"/>
<polygon fill="none" stroke="midnightblue" points="77.5001,-152.753 81,-162.753 84.5001,-152.753 77.5001,-152.753"/>
</g>
<!-- Node3 -->
<g id="node3" class="node"><title>Node3</title>
<g id="a_node3"><a xlink:href="classapi_1_1_hal_work_object.html" target="_top" xlink:title="Hal Work Object. ">
<polygon fill="none" stroke="black" points="30.019,-285 30.019,-339 131.981,-339 131.981,-285 30.019,-285"/>
<text text-anchor="middle" x="81" y="-327" font-family="Helvetica,sans-Serif" font-size="10.00">api::HalWorkObject</text>
<polyline fill="none" stroke="black" points="30.019,-321 131.981,-321 "/>
<text text-anchor="middle" x="81" y="-309" font-family="Helvetica,sans-Serif" font-size="10.00"> </text>
<polyline fill="none" stroke="black" points="30.019,-303 131.981,-303 "/>
<text text-anchor="middle" x="81" y="-291" font-family="Helvetica,sans-Serif" font-size="10.00"> </text>
</a>
</g>
</g>
<!-- Node3&#45;&gt;Node2 -->
<g id="edge2" class="edge"><title>Node3&#45;&gt;Node2</title>
<path fill="none" stroke="midnightblue" d="M81,-274.503C81,-265.755 81,-256.351 81,-247.399"/>
<polygon fill="none" stroke="midnightblue" points="77.5001,-274.775 81,-284.775 84.5001,-274.775 77.5001,-274.775"/>
</g>
<!-- Node4 -->
<g id="node4" class="node"><title>Node4</title>
<g id="a_node4"><a xlink:href="classsys_1_1_file.html" target="_top" xlink:title="File Class. ">
<polygon fill="none" stroke="black" points="40.7588,-377 40.7588,-591 121.241,-591 121.241,-377 40.7588,-377"/>
<text text-anchor="middle" x="81" y="-579" font-family="Helvetica,sans-Serif" font-size="10.00">sys::File</text>
<polyline fill="none" stroke="black" points="40.7588,-573 121.241,-573 "/>
<text text-anchor="start" x="48.7588" y="-561" font-family="Helvetica,sans-Serif" font-size="10.00"># m_fd</text>
<polyline fill="none" stroke="black" points="40.7588,-555 121.241,-555 "/>
<text text-anchor="start" x="48.7588" y="-543" font-family="Helvetica,sans-Serif" font-size="10.00">+ File()</text>
<text text-anchor="start" x="48.7588" y="-533" font-family="Helvetica,sans-Serif" font-size="10.00">+ close()</text>
<text text-anchor="start" x="48.7588" y="-523" font-family="Helvetica,sans-Serif" font-size="10.00">+ create()</text>
<text text-anchor="start" x="48.7588" y="-513" font-family="Helvetica,sans-Serif" font-size="10.00">+ fileno()</text>
<text text-anchor="start" x="48.7588" y="-503" font-family="Helvetica,sans-Serif" font-size="10.00">+ flags()</text>
<text text-anchor="start" x="48.7588" y="-493" font-family="Helvetica,sans-Serif" font-size="10.00">+ gets()</text>
<text text-anchor="start" x="48.7588" y="-483" font-family="Helvetica,sans-Serif" font-size="10.00">and 22 more...</text>
<text text-anchor="start" x="48.7588" y="-473" font-family="Helvetica,sans-Serif" font-size="10.00">+ access()</text>
<text text-anchor="start" x="48.7588" y="-463" font-family="Helvetica,sans-Serif" font-size="10.00">+ copy()</text>
<text text-anchor="start" x="48.7588" y="-453" font-family="Helvetica,sans-Serif" font-size="10.00">+ exists()</text>
<text text-anchor="start" x="48.7588" y="-443" font-family="Helvetica,sans-Serif" font-size="10.00">+ name()</text>
<text text-anchor="start" x="48.7588" y="-433" font-family="Helvetica,sans-Serif" font-size="10.00">+ remove()</text>
<text text-anchor="start" x="48.7588" y="-423" font-family="Helvetica,sans-Serif" font-size="10.00">+ rename()</text>
<text text-anchor="start" x="48.7588" y="-413" font-family="Helvetica,sans-Serif" font-size="10.00">+ size()</text>
<text text-anchor="start" x="48.7588" y="-403" font-family="Helvetica,sans-Serif" font-size="10.00">+ stat()</text>
<text text-anchor="start" x="48.7588" y="-393" font-family="Helvetica,sans-Serif" font-size="10.00">+ suffix()</text>
<text text-anchor="start" x="48.7588" y="-383" font-family="Helvetica,sans-Serif" font-size="10.00"># copy()</text>
</a>
</g>
</g>
<!-- Node4&#45;&gt;Node3 -->
<g id="edge3" class="edge"><title>Node4&#45;&gt;Node3</title>
<path fill="none" stroke="midnightblue" d="M81,-366.591C81,-356.596 81,-347.275 81,-339.302"/>
<polygon fill="none" stroke="midnightblue" points="77.5001,-366.785 81,-376.785 84.5001,-366.785 77.5001,-366.785"/>
</g>
<!-- Node5 -->
<g id="node5" class="node"><title>Node5</title>
<g id="a_node5"><a xlink:href="classapi_1_1_sys_work_object.html" target="_top" xlink:title="System Work Object. ">
<polygon fill="none" stroke="black" points="29.1865,-629 29.1865,-683 132.813,-683 132.813,-629 29.1865,-629"/>
<text text-anchor="middle" x="81" y="-671" font-family="Helvetica,sans-Serif" font-size="10.00">api::SysWorkObject</text>
<polyline fill="none" stroke="black" points="29.1865,-665 132.813,-665 "/>
<text text-anchor="middle" x="81" y="-653" font-family="Helvetica,sans-Serif" font-size="10.00"> </text>
<polyline fill="none" stroke="black" points="29.1865,-647 132.813,-647 "/>
<text text-anchor="middle" x="81" y="-635" font-family="Helvetica,sans-Serif" font-size="10.00"> </text>
</a>
</g>
</g>
<!-- Node5&#45;&gt;Node4 -->
<g id="edge4" class="edge"><title>Node5&#45;&gt;Node4</title>
<path fill="none" stroke="midnightblue" d="M81,-618.761C81,-610.391 81,-601.069 81,-591.349"/>
<polygon fill="none" stroke="midnightblue" points="77.5001,-618.81 81,-628.81 84.5001,-618.81 77.5001,-618.81"/>
</g>
<!-- Node6 -->
<g id="node6" class="node"><title>Node6</title>
<g id="a_node6"><a xlink:href="classapi_1_1_work_object.html" target="_top" xlink:title="Work Object. ">
<polygon fill="none" stroke="black" points="9.91406,-721 9.91406,-865 152.086,-865 152.086,-721 9.91406,-721"/>
<text text-anchor="middle" x="81" y="-853" font-family="Helvetica,sans-Serif" font-size="10.00">api::WorkObject</text>
<polyline fill="none" stroke="black" points="9.91406,-847 152.086,-847 "/>
<text text-anchor="middle" x="81" y="-835" font-family="Helvetica,sans-Serif" font-size="10.00"> </text>
<polyline fill="none" stroke="black" points="9.91406,-829 152.086,-829 "/>
<text text-anchor="start" x="17.9141" y="-817" font-family="Helvetica,sans-Serif" font-size="10.00">+ WorkObject()</text>
<text text-anchor="start" x="17.9141" y="-807" font-family="Helvetica,sans-Serif" font-size="10.00">+ clear_error_number()</text>
<text text-anchor="start" x="17.9141" y="-797" font-family="Helvetica,sans-Serif" font-size="10.00">+ error_number()</text>
<text text-anchor="start" x="17.9141" y="-787" font-family="Helvetica,sans-Serif" font-size="10.00">+ exit_fatal()</text>
<text text-anchor="start" x="17.9141" y="-777" font-family="Helvetica,sans-Serif" font-size="10.00"># set_error_number()</text>
<text text-anchor="start" x="17.9141" y="-767" font-family="Helvetica,sans-Serif" font-size="10.00"># set_error_number_if</text>
<text text-anchor="start" x="17.9141" y="-757" font-family="Helvetica,sans-Serif" font-size="10.00">_error()</text>
<text text-anchor="start" x="17.9141" y="-747" font-family="Helvetica,sans-Serif" font-size="10.00"># set_error_number_if_null()</text>
<text text-anchor="start" x="17.9141" y="-737" font-family="Helvetica,sans-Serif" font-size="10.00"># set_error_number_to</text>
<text text-anchor="start" x="17.9141" y="-727" font-family="Helvetica,sans-Serif" font-size="10.00">_errno()</text>
</a>
</g>
</g>
<!-- Node6&#45;&gt;Node5 -->
<g id="edge5" class="edge"><title>Node6&#45;&gt;Node5</title>
<path fill="none" stroke="midnightblue" d="M81,-710.911C81,-700.983 81,-691.464 81,-683.262"/>
<polygon fill="none" stroke="midnightblue" points="77.5001,-710.942 81,-720.942 84.5001,-710.942 77.5001,-710.942"/>
</g>
<!-- Node7 -->
<g id="node7" class="node"><title>Node7</title>
<g id="a_node7"><a xlink:href="classapi_1_1_api_object.html" target="_top" xlink:title="Application Programming Interface Object. ">
<polygon fill="none" stroke="black" points="39.7896,-903 39.7896,-957 122.21,-957 122.21,-903 39.7896,-903"/>
<text text-anchor="middle" x="81" y="-945" font-family="Helvetica,sans-Serif" font-size="10.00">api::ApiObject</text>
<polyline fill="none" stroke="black" points="39.7896,-939 122.21,-939 "/>
<text text-anchor="middle" x="81" y="-927" font-family="Helvetica,sans-Serif" font-size="10.00"> </text>
<polyline fill="none" stroke="black" points="39.7896,-921 122.21,-921 "/>
<text text-anchor="start" x="47.7896" y="-909" font-family="Helvetica,sans-Serif" font-size="10.00">+ api_version()</text>
</a>
</g>
</g>
<!-- Node7&#45;&gt;Node6 -->
<g id="edge6" class="edge"><title>Node7&#45;&gt;Node6</title>
<path fill="none" stroke="midnightblue" d="M81,-892.925C81,-884.287 81,-874.765 81,-865.145"/>
<polygon fill="none" stroke="midnightblue" points="77.5001,-892.971 81,-902.971 84.5001,-892.971 77.5001,-892.971"/>
</g>
</g>
</svg>
