<?xml version="1.0" encoding="UTF-8" standalone="no"?>
<!DOCTYPE svg PUBLIC "-//W3C//DTD SVG 1.1//EN"
 "http://www.w3.org/Graphics/SVG/1.1/DTD/svg11.dtd">
<!-- Generated by graphviz version 2.36.0 (20140111.2315)
 -->
<!-- Title: hal::SwitchboardConnection Pages: 1 -->
<svg width="148pt" height="410pt"
 viewBox="0.00 0.00 148.00 410.00" xmlns="http://www.w3.org/2000/svg" xmlns:xlink="http://www.w3.org/1999/xlink">
<g id="graph0" class="graph" transform="scale(1 1) rotate(0) translate(4 406)">
<title>hal::SwitchboardConnection</title>
<!-- Node1 -->
<g id="node1" class="node"><title>Node1</title>
<polygon fill="#bfbfbf" stroke="black" points="-0.260742,-1 -0.260742,-125 140.261,-125 140.261,-1 -0.260742,-1"/>
<text text-anchor="middle" x="70" y="-113" font-family="Helvetica,sans-Serif" font-size="10.00">hal::SwitchboardConnection</text>
<polyline fill="none" stroke="black" points="-0.260742,-107 140.261,-107 "/>
<text text-anchor="middle" x="70" y="-95" font-family="Helvetica,sans-Serif" font-size="10.00"> </text>
<polyline fill="none" stroke="black" points="-0.260742,-89 140.261,-89 "/>
<text text-anchor="start" x="7.73926" y="-77" font-family="Helvetica,sans-Serif" font-size="10.00">+ SwitchboardConnection()</text>
<text text-anchor="start" x="7.73926" y="-67" font-family="Helvetica,sans-Serif" font-size="10.00">+ SwitchboardConnection()</text>
<text text-anchor="start" x="7.73926" y="-57" font-family="Helvetica,sans-Serif" font-size="10.00">+ error_number()</text>
<text text-anchor="start" x="7.73926" y="-47" font-family="Helvetica,sans-Serif" font-size="10.00">+ id()</text>
<text text-anchor="start" x="7.73926" y="-37" font-family="Helvetica,sans-Serif" font-size="10.00">+ input()</text>
<text text-anchor="start" x="7.73926" y="-27" font-family="Helvetica,sans-Serif" font-size="10.00">+ is_stopped_on_error()</text>
<text text-anchor="start" x="7.73926" y="-17" font-family="Helvetica,sans-Serif" font-size="10.00">and 7 more...</text>
<text text-anchor="start" x="7.73926" y="-7" font-family="Helvetica,sans-Serif" font-size="10.00">+ invalid_id()</text>
</g>
<!-- Node2 -->
<g id="node2" class="node"><title>Node2</title>
<g id="a_node2"><a xlink:href="classapi_1_1_hal_info_object.html" target="_top" xlink:title="Hal Info Object. ">
<polygon fill="none" stroke="black" points="22.2563,-163 22.2563,-217 117.744,-217 117.744,-163 22.2563,-163"/>
<text text-anchor="middle" x="70" y="-205" font-family="Helvetica,sans-Serif" font-size="10.00">api::HalInfoObject</text>
<polyline fill="none" stroke="black" points="22.2563,-199 117.744,-199 "/>
<text text-anchor="middle" x="70" y="-187" font-family="Helvetica,sans-Serif" font-size="10.00"> </text>
<polyline fill="none" stroke="black" points="22.2563,-181 117.744,-181 "/>
<text text-anchor="middle" x="70" y="-169" font-family="Helvetica,sans-Serif" font-size="10.00"> </text>
</a>
</g>
</g>
<!-- Node2&#45;&gt;Node1 -->
<g id="edge1" class="edge"><title>Node2&#45;&gt;Node1</title>
<path fill="none" stroke="midnightblue" d="M70,-152.715C70,-144.071 70,-134.61 70,-125.188"/>
<polygon fill="none" stroke="midnightblue" points="66.5001,-152.796 70,-162.796 73.5001,-152.796 66.5001,-152.796"/>
</g>
<!-- Node3 -->
<g id="node3" class="node"><title>Node3</title>
<g id="a_node3"><a xlink:href="classapi_1_1_info_object.html" target="_top" xlink:title="Information Object. ">
<polygon fill="none" stroke="black" points="29.7588,-255 29.7588,-309 110.241,-309 110.241,-255 29.7588,-255"/>
<text text-anchor="middle" x="70" y="-297" font-family="Helvetica,sans-Serif" font-size="10.00">api::InfoObject</text>
<polyline fill="none" stroke="black" points="29.7588,-291 110.241,-291 "/>
<text text-anchor="middle" x="70" y="-279" font-family="Helvetica,sans-Serif" font-size="10.00"> </text>
<polyline fill="none" stroke="black" points="29.7588,-273 110.241,-273 "/>
<text text-anchor="middle" x="70" y="-261" font-family="Helvetica,sans-Serif" font-size="10.00"> </text>
</a>
</g>
</g>
<!-- Node3&#45;&gt;Node2 -->
<g id="edge2" class="edge"><title>Node3&#45;&gt;Node2</title>
<path fill="none" stroke="midnightblue" d="M70,-244.865C70,-235.644 70,-225.907 70,-217.285"/>
<polygon fill="none" stroke="midnightblue" points="66.5001,-244.968 70,-254.968 73.5001,-244.968 66.5001,-244.968"/>
</g>
<!-- Node4 -->
<g id="node4" class="node"><title>Node4</title>
<g id="a_node4"><a xlink:href="classapi_1_1_api_object.html" target="_top" xlink:title="Application Programming Interface Object. ">
<polygon fill="none" stroke="black" points="28.7896,-347 28.7896,-401 111.21,-401 111.21,-347 28.7896,-347"/>
<text text-anchor="middle" x="70" y="-389" font-family="Helvetica,sans-Serif" font-size="10.00">api::ApiObject</text>
<polyline fill="none" stroke="black" points="28.7896,-383 111.21,-383 "/>
<text text-anchor="middle" x="70" y="-371" font-family="Helvetica,sans-Serif" font-size="10.00"> </text>
<polyline fill="none" stroke="black" points="28.7896,-365 111.21,-365 "/>
<text text-anchor="start" x="36.7896" y="-353" font-family="Helvetica,sans-Serif" font-size="10.00">+ api_version()</text>
</a>
</g>
</g>
<!-- Node4&#45;&gt;Node3 -->
<g id="edge3" class="edge"><title>Node4&#45;&gt;Node3</title>
<path fill="none" stroke="midnightblue" d="M70,-336.865C70,-327.644 70,-317.907 70,-309.285"/>
<polygon fill="none" stroke="midnightblue" points="66.5001,-336.968 70,-346.968 73.5001,-336.968 66.5001,-336.968"/>
</g>
</g>
</svg>
