<?xml version="1.0" encoding="UTF-8" standalone="no"?>
<!DOCTYPE svg PUBLIC "-//W3C//DTD SVG 1.1//EN"
 "http://www.w3.org/Graphics/SVG/1.1/DTD/svg11.dtd">
<!-- Generated by graphviz version 2.36.0 (20140111.2315)
 -->
<!-- Title: var::Data Pages: 1 -->
<svg width="700pt" height="1138pt"
 viewBox="0.00 0.00 700.00 1138.00" xmlns="http://www.w3.org/2000/svg" xmlns:xlink="http://www.w3.org/1999/xlink">
<g id="graph0" class="graph" transform="scale(1 1) rotate(0) translate(4 1134)">
<title>var::Data</title>
<!-- Node1 -->
<g id="node1" class="node"><title>Node1</title>
<polygon fill="#bfbfbf" stroke="black" points="257.41,-639 257.41,-763 352.59,-763 352.59,-639 257.41,-639"/>
<text text-anchor="middle" x="305" y="-751" font-family="Helvetica,sans-Serif" font-size="10.00">var::Data</text>
<polyline fill="none" stroke="black" points="257.41,-745 352.59,-745 "/>
<text text-anchor="middle" x="305" y="-733" font-family="Helvetica,sans-Serif" font-size="10.00"> </text>
<polyline fill="none" stroke="black" points="257.41,-727 352.59,-727 "/>
<text text-anchor="start" x="265.41" y="-715" font-family="Helvetica,sans-Serif" font-size="10.00">+ Data()</text>
<text text-anchor="start" x="265.41" y="-705" font-family="Helvetica,sans-Serif" font-size="10.00">+ Data()</text>
<text text-anchor="start" x="265.41" y="-695" font-family="Helvetica,sans-Serif" font-size="10.00">+ Data()</text>
<text text-anchor="start" x="265.41" y="-685" font-family="Helvetica,sans-Serif" font-size="10.00">+ Data()</text>
<text text-anchor="start" x="265.41" y="-675" font-family="Helvetica,sans-Serif" font-size="10.00">+ ~Data()</text>
<text text-anchor="start" x="265.41" y="-665" font-family="Helvetica,sans-Serif" font-size="10.00">+ alloc()</text>
<text text-anchor="start" x="265.41" y="-655" font-family="Helvetica,sans-Serif" font-size="10.00">and 17 more...</text>
<text text-anchor="start" x="265.41" y="-645" font-family="Helvetica,sans-Serif" font-size="10.00">+ minimum_size()</text>
</g>
<!-- Node5 -->
<g id="node5" class="node"><title>Node5</title>
<g id="a_node5"><a xlink:href="classapi_1_1_sgfx_data_object.html" target="_top" xlink:title="Sgfx Object Class. ">
<polygon fill="none" stroke="black" points="20.5322,-517 20.5322,-571 125.468,-571 125.468,-517 20.5322,-517"/>
<text text-anchor="middle" x="73" y="-559" font-family="Helvetica,sans-Serif" font-size="10.00">api::SgfxDataObject</text>
<polyline fill="none" stroke="black" points="20.5322,-553 125.468,-553 "/>
<text text-anchor="middle" x="73" y="-541" font-family="Helvetica,sans-Serif" font-size="10.00"> </text>
<polyline fill="none" stroke="black" points="20.5322,-535 125.468,-535 "/>
<text text-anchor="middle" x="73" y="-523" font-family="Helvetica,sans-Serif" font-size="10.00"> </text>
</a>
</g>
</g>
<!-- Node1&#45;&gt;Node5 -->
<g id="edge4" class="edge"><title>Node1&#45;&gt;Node5</title>
<path fill="none" stroke="midnightblue" d="M248.697,-662.384C206.453,-634.16 149.688,-596.235 112.258,-571.228"/>
<polygon fill="none" stroke="midnightblue" points="246.951,-665.427 257.211,-668.072 250.84,-659.606 246.951,-665.427"/>
</g>
<!-- Node9 -->
<g id="node9" class="node"><title>Node9</title>
<g id="a_node9"><a xlink:href="classvar_1_1_ring.html" target="_top" xlink:title="Ring Buffer class. ">
<polygon fill="none" stroke="black" points="185.615,-487 185.615,-601 306.385,-601 306.385,-487 185.615,-487"/>
<text text-anchor="middle" x="246" y="-589" font-family="Helvetica,sans-Serif" font-size="10.00">var::Ring</text>
<polyline fill="none" stroke="black" points="185.615,-583 306.385,-583 "/>
<text text-anchor="middle" x="246" y="-571" font-family="Helvetica,sans-Serif" font-size="10.00"> </text>
<polyline fill="none" stroke="black" points="185.615,-565 306.385,-565 "/>
<text text-anchor="start" x="193.615" y="-553" font-family="Helvetica,sans-Serif" font-size="10.00">+ Ring()</text>
<text text-anchor="start" x="193.615" y="-543" font-family="Helvetica,sans-Serif" font-size="10.00">+ Ring()</text>
<text text-anchor="start" x="193.615" y="-533" font-family="Helvetica,sans-Serif" font-size="10.00">+ calc_free()</text>
<text text-anchor="start" x="193.615" y="-523" font-family="Helvetica,sans-Serif" font-size="10.00">+ calc_used()</text>
<text text-anchor="start" x="193.615" y="-513" font-family="Helvetica,sans-Serif" font-size="10.00">+ flush()</text>
<text text-anchor="start" x="193.615" y="-503" font-family="Helvetica,sans-Serif" font-size="10.00">+ is_overflow_allowed()</text>
<text text-anchor="start" x="193.615" y="-493" font-family="Helvetica,sans-Serif" font-size="10.00">and 4 more...</text>
</a>
</g>
</g>
<!-- Node1&#45;&gt;Node9 -->
<g id="edge8" class="edge"><title>Node1&#45;&gt;Node9</title>
<path fill="none" stroke="midnightblue" d="M278.121,-629.387C274.536,-619.967 270.898,-610.411 267.423,-601.28"/>
<polygon fill="none" stroke="midnightblue" points="274.853,-630.639 281.682,-638.74 281.395,-628.149 274.853,-630.639"/>
</g>
<!-- Node10 -->
<g id="node10" class="node"><title>Node10</title>
<g id="a_node10"><a xlink:href="classvar_1_1_string.html" target="_top" xlink:title="String class. ">
<polygon fill="none" stroke="black" points="324.759,-487 324.759,-601 405.241,-601 405.241,-487 324.759,-487"/>
<text text-anchor="middle" x="365" y="-589" font-family="Helvetica,sans-Serif" font-size="10.00">var::String</text>
<polyline fill="none" stroke="black" points="324.759,-583 405.241,-583 "/>
<text text-anchor="middle" x="365" y="-571" font-family="Helvetica,sans-Serif" font-size="10.00"> </text>
<polyline fill="none" stroke="black" points="324.759,-565 405.241,-565 "/>
<text text-anchor="start" x="332.759" y="-553" font-family="Helvetica,sans-Serif" font-size="10.00">+ String()</text>
<text text-anchor="start" x="332.759" y="-543" font-family="Helvetica,sans-Serif" font-size="10.00">+ String()</text>
<text text-anchor="start" x="332.759" y="-533" font-family="Helvetica,sans-Serif" font-size="10.00">+ String()</text>
<text text-anchor="start" x="332.759" y="-523" font-family="Helvetica,sans-Serif" font-size="10.00">+ String()</text>
<text text-anchor="start" x="332.759" y="-513" font-family="Helvetica,sans-Serif" font-size="10.00">+ String()</text>
<text text-anchor="start" x="332.759" y="-503" font-family="Helvetica,sans-Serif" font-size="10.00">+ String()</text>
<text text-anchor="start" x="332.759" y="-493" font-family="Helvetica,sans-Serif" font-size="10.00">and 52 more...</text>
</a>
</g>
</g>
<!-- Node1&#45;&gt;Node10 -->
<g id="edge9" class="edge"><title>Node1&#45;&gt;Node10</title>
<path fill="none" stroke="midnightblue" d="M332.334,-629.387C335.98,-619.967 339.68,-610.411 343.214,-601.28"/>
<polygon fill="none" stroke="midnightblue" points="329.06,-628.151 328.714,-638.74 335.588,-630.678 329.06,-628.151"/>
</g>
<!-- Node16 -->
<g id="node16" class="node"><title>Node16</title>
<g id="a_node16"><a xlink:href="classvar_1_1_vector.html" target="_top" xlink:title="Vector Class. ">
<polygon fill="none" stroke="black" points="423.602,-487 423.602,-601 510.398,-601 510.398,-487 423.602,-487"/>
<text text-anchor="middle" x="467" y="-589" font-family="Helvetica,sans-Serif" font-size="10.00">var::Vector&lt; T &gt;</text>
<polyline fill="none" stroke="black" points="423.602,-583 510.398,-583 "/>
<text text-anchor="middle" x="467" y="-571" font-family="Helvetica,sans-Serif" font-size="10.00"> </text>
<polyline fill="none" stroke="black" points="423.602,-565 510.398,-565 "/>
<text text-anchor="start" x="431.602" y="-553" font-family="Helvetica,sans-Serif" font-size="10.00">+ Vector()</text>
<text text-anchor="start" x="431.602" y="-543" font-family="Helvetica,sans-Serif" font-size="10.00">+ at()</text>
<text text-anchor="start" x="431.602" y="-533" font-family="Helvetica,sans-Serif" font-size="10.00">+ at()</text>
<text text-anchor="start" x="431.602" y="-523" font-family="Helvetica,sans-Serif" font-size="10.00">+ capacity()</text>
<text text-anchor="start" x="431.602" y="-513" font-family="Helvetica,sans-Serif" font-size="10.00">+ clear()</text>
<text text-anchor="start" x="431.602" y="-503" font-family="Helvetica,sans-Serif" font-size="10.00">+ count()</text>
<text text-anchor="start" x="431.602" y="-493" font-family="Helvetica,sans-Serif" font-size="10.00">and 8 more...</text>
</a>
</g>
</g>
<!-- Node1&#45;&gt;Node16 -->
<g id="edge15" class="edge"><title>Node1&#45;&gt;Node16</title>
<path fill="none" stroke="midnightblue" d="M360.649,-651.697C378.036,-636.148 397.086,-618.634 414,-602 417.083,-598.968 420.223,-595.804 423.359,-592.587"/>
<polygon fill="none" stroke="midnightblue" points="357.933,-649.428 352.791,-658.692 362.588,-654.657 357.933,-649.428"/>
</g>
<!-- Node2 -->
<g id="node2" class="node"><title>Node2</title>
<g id="a_node2"><a xlink:href="classapi_1_1_var_work_object.html" target="_top" xlink:title="Format Work Object Class. ">
<polygon fill="none" stroke="black" points="254.109,-801 254.109,-855 355.891,-855 355.891,-801 254.109,-801"/>
<text text-anchor="middle" x="305" y="-843" font-family="Helvetica,sans-Serif" font-size="10.00">api::VarWorkObject</text>
<polyline fill="none" stroke="black" points="254.109,-837 355.891,-837 "/>
<text text-anchor="middle" x="305" y="-825" font-family="Helvetica,sans-Serif" font-size="10.00"> </text>
<polyline fill="none" stroke="black" points="254.109,-819 355.891,-819 "/>
<text text-anchor="middle" x="305" y="-807" font-family="Helvetica,sans-Serif" font-size="10.00"> </text>
</a>
</g>
</g>
<!-- Node2&#45;&gt;Node1 -->
<g id="edge1" class="edge"><title>Node2&#45;&gt;Node1</title>
<path fill="none" stroke="midnightblue" d="M305,-790.715C305,-782.071 305,-772.61 305,-763.188"/>
<polygon fill="none" stroke="midnightblue" points="301.5,-790.796 305,-800.796 308.5,-790.796 301.5,-790.796"/>
</g>
<!-- Node3 -->
<g id="node3" class="node"><title>Node3</title>
<g id="a_node3"><a xlink:href="classapi_1_1_work_object.html" target="_top" xlink:title="WorkObject Class. ">
<polygon fill="none" stroke="black" points="233.914,-893 233.914,-1037 376.086,-1037 376.086,-893 233.914,-893"/>
<text text-anchor="middle" x="305" y="-1025" font-family="Helvetica,sans-Serif" font-size="10.00">api::WorkObject</text>
<polyline fill="none" stroke="black" points="233.914,-1019 376.086,-1019 "/>
<text text-anchor="middle" x="305" y="-1007" font-family="Helvetica,sans-Serif" font-size="10.00"> </text>
<polyline fill="none" stroke="black" points="233.914,-1001 376.086,-1001 "/>
<text text-anchor="start" x="241.914" y="-989" font-family="Helvetica,sans-Serif" font-size="10.00">+ WorkObject()</text>
<text text-anchor="start" x="241.914" y="-979" font-family="Helvetica,sans-Serif" font-size="10.00">+ clear_error_number()</text>
<text text-anchor="start" x="241.914" y="-969" font-family="Helvetica,sans-Serif" font-size="10.00">+ error_number()</text>
<text text-anchor="start" x="241.914" y="-959" font-family="Helvetica,sans-Serif" font-size="10.00">+ exit_fatal()</text>
<text text-anchor="start" x="241.914" y="-949" font-family="Helvetica,sans-Serif" font-size="10.00"># set_error_number()</text>
<text text-anchor="start" x="241.914" y="-939" font-family="Helvetica,sans-Serif" font-size="10.00"># set_error_number_if</text>
<text text-anchor="start" x="241.914" y="-929" font-family="Helvetica,sans-Serif" font-size="10.00">_error()</text>
<text text-anchor="start" x="241.914" y="-919" font-family="Helvetica,sans-Serif" font-size="10.00"># set_error_number_if_null()</text>
<text text-anchor="start" x="241.914" y="-909" font-family="Helvetica,sans-Serif" font-size="10.00"># set_error_number_to</text>
<text text-anchor="start" x="241.914" y="-899" font-family="Helvetica,sans-Serif" font-size="10.00">_errno()</text>
</a>
</g>
</g>
<!-- Node3&#45;&gt;Node2 -->
<g id="edge2" class="edge"><title>Node3&#45;&gt;Node2</title>
<path fill="none" stroke="midnightblue" d="M305,-882.911C305,-872.983 305,-863.464 305,-855.262"/>
<polygon fill="none" stroke="midnightblue" points="301.5,-882.942 305,-892.942 308.5,-882.942 301.5,-882.942"/>
</g>
<!-- Node4 -->
<g id="node4" class="node"><title>Node4</title>
<g id="a_node4"><a xlink:href="classapi_1_1_api_object.html" target="_top" xlink:title="API Object Class. ">
<polygon fill="none" stroke="black" points="263.79,-1075 263.79,-1129 346.21,-1129 346.21,-1075 263.79,-1075"/>
<text text-anchor="middle" x="305" y="-1117" font-family="Helvetica,sans-Serif" font-size="10.00">api::ApiObject</text>
<polyline fill="none" stroke="black" points="263.79,-1111 346.21,-1111 "/>
<text text-anchor="middle" x="305" y="-1099" font-family="Helvetica,sans-Serif" font-size="10.00"> </text>
<polyline fill="none" stroke="black" points="263.79,-1093 346.21,-1093 "/>
<text text-anchor="start" x="271.79" y="-1081" font-family="Helvetica,sans-Serif" font-size="10.00">+ api_version()</text>
</a>
</g>
</g>
<!-- Node4&#45;&gt;Node3 -->
<g id="edge3" class="edge"><title>Node4&#45;&gt;Node3</title>
<path fill="none" stroke="midnightblue" d="M305,-1064.93C305,-1056.29 305,-1046.77 305,-1037.14"/>
<polygon fill="none" stroke="midnightblue" points="301.5,-1064.97 305,-1074.97 308.5,-1064.97 301.5,-1064.97"/>
</g>
<!-- Node6 -->
<g id="node6" class="node"><title>Node6</title>
<g id="a_node6"><a xlink:href="classsgfx_1_1_bitmap.html" target="_top" xlink:title="Bitmap Class. ">
<polygon fill="none" stroke="black" points="-0.602051,-295 -0.602051,-449 104.602,-449 104.602,-295 -0.602051,-295"/>
<text text-anchor="middle" x="52" y="-437" font-family="Helvetica,sans-Serif" font-size="10.00">sgfx::Bitmap</text>
<polyline fill="none" stroke="black" points="-0.602051,-431 104.602,-431 "/>
<text text-anchor="middle" x="52" y="-419" font-family="Helvetica,sans-Serif" font-size="10.00"> </text>
<polyline fill="none" stroke="black" points="-0.602051,-413 104.602,-413 "/>
<text text-anchor="start" x="7.39795" y="-401" font-family="Helvetica,sans-Serif" font-size="10.00">+ Bitmap()</text>
<text text-anchor="start" x="7.39795" y="-391" font-family="Helvetica,sans-Serif" font-size="10.00">+ Bitmap()</text>
<text text-anchor="start" x="7.39795" y="-381" font-family="Helvetica,sans-Serif" font-size="10.00">+ Bitmap()</text>
<text text-anchor="start" x="7.39795" y="-371" font-family="Helvetica,sans-Serif" font-size="10.00">+ Bitmap()</text>
<text text-anchor="start" x="7.39795" y="-361" font-family="Helvetica,sans-Serif" font-size="10.00">+ Bitmap()</text>
<text text-anchor="start" x="7.39795" y="-351" font-family="Helvetica,sans-Serif" font-size="10.00">+ ~Bitmap()</text>
<text text-anchor="start" x="7.39795" y="-341" font-family="Helvetica,sans-Serif" font-size="10.00">and 72 more...</text>
<text text-anchor="start" x="7.39795" y="-331" font-family="Helvetica,sans-Serif" font-size="10.00">+ bits_per_pixel()</text>
<text text-anchor="start" x="7.39795" y="-321" font-family="Helvetica,sans-Serif" font-size="10.00">+ calc_size()</text>
<text text-anchor="start" x="7.39795" y="-311" font-family="Helvetica,sans-Serif" font-size="10.00">+ calc_word_width()</text>
<text text-anchor="start" x="7.39795" y="-301" font-family="Helvetica,sans-Serif" font-size="10.00">+ load_dim()</text>
</a>
</g>
</g>
<!-- Node5&#45;&gt;Node6 -->
<g id="edge5" class="edge"><title>Node5&#45;&gt;Node6</title>
<path fill="none" stroke="midnightblue" d="M68.5361,-506.863C66.4552,-490.018 63.8954,-469.296 61.417,-449.233"/>
<polygon fill="none" stroke="midnightblue" points="65.0651,-507.315 69.7648,-516.81 72.0123,-506.456 65.0651,-507.315"/>
</g>
<!-- Node7 -->
<g id="node7" class="node"><title>Node7</title>
<g id="a_node7"><a xlink:href="classhal_1_1_display.html" target="_top" xlink:title="Display Class. ">
<polygon fill="none" stroke="black" points="18.1553,-153 18.1553,-257 85.8447,-257 85.8447,-153 18.1553,-153"/>
<text text-anchor="middle" x="52" y="-245" font-family="Helvetica,sans-Serif" font-size="10.00">hal::Display</text>
<polyline fill="none" stroke="black" points="18.1553,-239 85.8447,-239 "/>
<text text-anchor="middle" x="52" y="-227" font-family="Helvetica,sans-Serif" font-size="10.00"> </text>
<polyline fill="none" stroke="black" points="18.1553,-221 85.8447,-221 "/>
<text text-anchor="start" x="26.1553" y="-209" font-family="Helvetica,sans-Serif" font-size="10.00">+ Display()</text>
<text text-anchor="start" x="26.1553" y="-199" font-family="Helvetica,sans-Serif" font-size="10.00">+ Display()</text>
<text text-anchor="start" x="26.1553" y="-189" font-family="Helvetica,sans-Serif" font-size="10.00">+ Display()</text>
<text text-anchor="start" x="26.1553" y="-179" font-family="Helvetica,sans-Serif" font-size="10.00">+ disable()</text>
<text text-anchor="start" x="26.1553" y="-169" font-family="Helvetica,sans-Serif" font-size="10.00">+ enable()</text>
<text text-anchor="start" x="26.1553" y="-159" font-family="Helvetica,sans-Serif" font-size="10.00">+ init()</text>
</a>
</g>
</g>
<!-- Node6&#45;&gt;Node7 -->
<g id="edge6" class="edge"><title>Node6&#45;&gt;Node7</title>
<path fill="none" stroke="midnightblue" d="M52,-284.666C52,-275.35 52,-266.098 52,-257.389"/>
<polygon fill="none" stroke="midnightblue" points="48.5001,-284.779 52,-294.779 55.5001,-284.779 48.5001,-284.779"/>
</g>
<!-- Node8 -->
<g id="node8" class="node"><title>Node8</title>
<g id="a_node8"><a xlink:href="classhal_1_1_display_device.html" target="_top" xlink:title="Display Device. ">
<polygon fill="none" stroke="black" points="2.87207,-1 2.87207,-115 101.128,-115 101.128,-1 2.87207,-1"/>
<text text-anchor="middle" x="52" y="-103" font-family="Helvetica,sans-Serif" font-size="10.00">hal::DisplayDevice</text>
<polyline fill="none" stroke="black" points="2.87207,-97 101.128,-97 "/>
<text text-anchor="middle" x="52" y="-85" font-family="Helvetica,sans-Serif" font-size="10.00"> </text>
<polyline fill="none" stroke="black" points="2.87207,-79 101.128,-79 "/>
<text text-anchor="start" x="10.8721" y="-67" font-family="Helvetica,sans-Serif" font-size="10.00">+ DisplayDevice()</text>
<text text-anchor="start" x="10.8721" y="-57" font-family="Helvetica,sans-Serif" font-size="10.00">+ disable()</text>
<text text-anchor="start" x="10.8721" y="-47" font-family="Helvetica,sans-Serif" font-size="10.00">+ enable()</text>
<text text-anchor="start" x="10.8721" y="-37" font-family="Helvetica,sans-Serif" font-size="10.00">+ init()</text>
<text text-anchor="start" x="10.8721" y="-27" font-family="Helvetica,sans-Serif" font-size="10.00">+ is_busy()</text>
<text text-anchor="start" x="10.8721" y="-17" font-family="Helvetica,sans-Serif" font-size="10.00">+ refresh()</text>
<text text-anchor="start" x="10.8721" y="-7" font-family="Helvetica,sans-Serif" font-size="10.00">+ wait()</text>
</a>
</g>
</g>
<!-- Node7&#45;&gt;Node8 -->
<g id="edge7" class="edge"><title>Node7&#45;&gt;Node8</title>
<path fill="none" stroke="midnightblue" d="M52,-142.678C52,-133.523 52,-124.124 52,-115.085"/>
<polygon fill="none" stroke="midnightblue" points="48.5001,-142.878 52,-152.878 55.5001,-142.878 48.5001,-142.878"/>
</g>
<!-- Node11 -->
<g id="node11" class="node"><title>Node11</title>
<g id="a_node11"><a xlink:href="classsys_1_1_trace.html" target="_top" xlink:title="Trace Class. ">
<polygon fill="none" stroke="black" points="122.176,-310 122.176,-434 221.824,-434 221.824,-310 122.176,-310"/>
<text text-anchor="middle" x="172" y="-422" font-family="Helvetica,sans-Serif" font-size="10.00">sys::Trace</text>
<polyline fill="none" stroke="black" points="122.176,-416 221.824,-416 "/>
<text text-anchor="middle" x="172" y="-404" font-family="Helvetica,sans-Serif" font-size="10.00"> </text>
<polyline fill="none" stroke="black" points="122.176,-398 221.824,-398 "/>
<text text-anchor="start" x="130.176" y="-386" font-family="Helvetica,sans-Serif" font-size="10.00">+ Trace()</text>
<text text-anchor="start" x="130.176" y="-376" font-family="Helvetica,sans-Serif" font-size="10.00">+ operator=()</text>
<text text-anchor="start" x="130.176" y="-366" font-family="Helvetica,sans-Serif" font-size="10.00">+ operator=()</text>
<text text-anchor="start" x="130.176" y="-356" font-family="Helvetica,sans-Serif" font-size="10.00">+ trace_critical()</text>
<text text-anchor="start" x="130.176" y="-346" font-family="Helvetica,sans-Serif" font-size="10.00">+ trace_error()</text>
<text text-anchor="start" x="130.176" y="-336" font-family="Helvetica,sans-Serif" font-size="10.00">+ trace_fatal()</text>
<text text-anchor="start" x="130.176" y="-326" font-family="Helvetica,sans-Serif" font-size="10.00">+ trace_message()</text>
<text text-anchor="start" x="130.176" y="-316" font-family="Helvetica,sans-Serif" font-size="10.00">+ trace_warning()</text>
</a>
</g>
</g>
<!-- Node10&#45;&gt;Node11 -->
<g id="edge10" class="edge"><title>Node10&#45;&gt;Node11</title>
<path fill="none" stroke="midnightblue" d="M316.85,-487.375C316.236,-486.908 315.619,-486.449 315,-486 282.128,-462.142 263.064,-474.933 231,-450 225.017,-445.348 219.315,-439.952 213.979,-434.218"/>
<polygon fill="none" stroke="midnightblue" points="314.743,-490.173 324.675,-493.86 319.209,-484.784 314.743,-490.173"/>
</g>
<!-- Node12 -->
<g id="node12" class="node"><title>Node12</title>
<g id="a_node12"><a xlink:href="classvar_1_1_name_string.html" target="_top" xlink:title="{var::NameString\n||+ NameString()\l}">
<polygon fill="none" stroke="black" points="239.877,-345 239.877,-399 328.123,-399 328.123,-345 239.877,-345"/>
<text text-anchor="middle" x="284" y="-387" font-family="Helvetica,sans-Serif" font-size="10.00">var::NameString</text>
<polyline fill="none" stroke="black" points="239.877,-381 328.123,-381 "/>
<text text-anchor="middle" x="284" y="-369" font-family="Helvetica,sans-Serif" font-size="10.00"> </text>
<polyline fill="none" stroke="black" points="239.877,-363 328.123,-363 "/>
<text text-anchor="start" x="247.877" y="-351" font-family="Helvetica,sans-Serif" font-size="10.00">+ NameString()</text>
</a>
</g>
</g>
<!-- Node10&#45;&gt;Node12 -->
<g id="edge11" class="edge"><title>Node10&#45;&gt;Node12</title>
<path fill="none" stroke="midnightblue" d="M333.887,-477.701C320.832,-450.303 306.401,-420.014 296.432,-399.093"/>
<polygon fill="none" stroke="midnightblue" points="330.792,-479.342 338.253,-486.865 337.111,-476.331 330.792,-479.342"/>
</g>
<!-- Node13 -->
<g id="node13" class="node"><title>Node13</title>
<g id="a_node13"><a xlink:href="classvar_1_1_path_string.html" target="_top" xlink:title="{var::PathString\n||+ PathString()\l+ file_name()\l+ filename()\l+ strip_suffix()\l}">
<polygon fill="none" stroke="black" points="345.929,-330 345.929,-414 428.071,-414 428.071,-330 345.929,-330"/>
<text text-anchor="middle" x="387" y="-402" font-family="Helvetica,sans-Serif" font-size="10.00">var::PathString</text>
<polyline fill="none" stroke="black" points="345.929,-396 428.071,-396 "/>
<text text-anchor="middle" x="387" y="-384" font-family="Helvetica,sans-Serif" font-size="10.00"> </text>
<polyline fill="none" stroke="black" points="345.929,-378 428.071,-378 "/>
<text text-anchor="start" x="353.929" y="-366" font-family="Helvetica,sans-Serif" font-size="10.00">+ PathString()</text>
<text text-anchor="start" x="353.929" y="-356" font-family="Helvetica,sans-Serif" font-size="10.00">+ file_name()</text>
<text text-anchor="start" x="353.929" y="-346" font-family="Helvetica,sans-Serif" font-size="10.00">+ filename()</text>
<text text-anchor="start" x="353.929" y="-336" font-family="Helvetica,sans-Serif" font-size="10.00">+ strip_suffix()</text>
</a>
</g>
</g>
<!-- Node10&#45;&gt;Node13 -->
<g id="edge12" class="edge"><title>Node10&#45;&gt;Node13</title>
<path fill="none" stroke="midnightblue" d="M373.549,-476.937C376.294,-455.732 379.252,-432.87 381.694,-414.002"/>
<polygon fill="none" stroke="midnightblue" points="370.077,-476.498 372.265,-486.865 377.019,-477.396 370.077,-476.498"/>
</g>
<!-- Node14 -->
<g id="node14" class="node"><title>Node14</title>
<g id="a_node14"><a xlink:href="classvar_1_1_static_string.html" target="_top" xlink:title="{var::StaticString\&lt;\l arraysize \&gt;\n||+ StaticString()\l+ StaticString()\l+ StaticString()\l}">
<polygon fill="none" stroke="black" points="445.79,-330 445.79,-414 538.21,-414 538.21,-330 445.79,-330"/>
<text text-anchor="start" x="453.79" y="-402" font-family="Helvetica,sans-Serif" font-size="10.00">var::StaticString&lt;</text>
<text text-anchor="middle" x="492" y="-392" font-family="Helvetica,sans-Serif" font-size="10.00"> arraysize &gt;</text>
<polyline fill="none" stroke="black" points="445.79,-386 538.21,-386 "/>
<text text-anchor="middle" x="492" y="-374" font-family="Helvetica,sans-Serif" font-size="10.00"> </text>
<polyline fill="none" stroke="black" points="445.79,-368 538.21,-368 "/>
<text text-anchor="start" x="453.79" y="-356" font-family="Helvetica,sans-Serif" font-size="10.00">+ StaticString()</text>
<text text-anchor="start" x="453.79" y="-346" font-family="Helvetica,sans-Serif" font-size="10.00">+ StaticString()</text>
<text text-anchor="start" x="453.79" y="-336" font-family="Helvetica,sans-Serif" font-size="10.00">+ StaticString()</text>
</a>
</g>
</g>
<!-- Node10&#45;&gt;Node14 -->
<g id="edge13" class="edge"><title>Node10&#45;&gt;Node14</title>
<path fill="none" stroke="midnightblue" d="M411.516,-483.62C420.068,-472.506 428.861,-460.943 437,-450 445.53,-438.532 454.614,-425.966 462.891,-414.372"/>
<polygon fill="none" stroke="midnightblue" points="408.682,-481.564 405.345,-491.619 414.224,-485.84 408.682,-481.564"/>
</g>
<!-- Node15 -->
<g id="node15" class="node"><title>Node15</title>
<g id="a_node15"><a xlink:href="classvar_1_1_token.html" target="_top" xlink:title="Abstract Token Class. ">
<polygon fill="none" stroke="black" points="555.829,-305 555.829,-439 692.171,-439 692.171,-305 555.829,-305"/>
<text text-anchor="middle" x="624" y="-427" font-family="Helvetica,sans-Serif" font-size="10.00">var::Token</text>
<polyline fill="none" stroke="black" points="555.829,-421 692.171,-421 "/>
<text text-anchor="middle" x="624" y="-409" font-family="Helvetica,sans-Serif" font-size="10.00"> </text>
<polyline fill="none" stroke="black" points="555.829,-403 692.171,-403 "/>
<text text-anchor="start" x="563.829" y="-391" font-family="Helvetica,sans-Serif" font-size="10.00">+ Token()</text>
<text text-anchor="start" x="563.829" y="-381" font-family="Helvetica,sans-Serif" font-size="10.00">+ Token()</text>
<text text-anchor="start" x="563.829" y="-371" font-family="Helvetica,sans-Serif" font-size="10.00">+ Token()</text>
<text text-anchor="start" x="563.829" y="-361" font-family="Helvetica,sans-Serif" font-size="10.00">+ at()</text>
<text text-anchor="start" x="563.829" y="-351" font-family="Helvetica,sans-Serif" font-size="10.00">+ count()</text>
<text text-anchor="start" x="563.829" y="-341" font-family="Helvetica,sans-Serif" font-size="10.00">+ is_count_empty_tokens()</text>
<text text-anchor="start" x="563.829" y="-331" font-family="Helvetica,sans-Serif" font-size="10.00">and 5 more...</text>
<text text-anchor="start" x="563.829" y="-321" font-family="Helvetica,sans-Serif" font-size="10.00">+ belongs_to()</text>
<text text-anchor="start" x="563.829" y="-311" font-family="Helvetica,sans-Serif" font-size="10.00">+ belongs_to()</text>
</a>
</g>
</g>
<!-- Node10&#45;&gt;Node15 -->
<g id="edge14" class="edge"><title>Node10&#45;&gt;Node15</title>
<path fill="none" stroke="midnightblue" d="M413.437,-487.002C413.956,-486.661 414.477,-486.327 415,-486 466.57,-453.777 494.405,-480.522 547,-450 552.559,-446.774 558,-443.046 563.256,-439.007"/>
<polygon fill="none" stroke="midnightblue" points="411.219,-484.29 405.271,-493.058 415.388,-489.913 411.219,-484.29"/>
</g>
</g>
</svg>
