<?xml version="1.0" encoding="UTF-8" standalone="no"?>
<!DOCTYPE svg PUBLIC "-//W3C//DTD SVG 1.1//EN"
 "http://www.w3.org/Graphics/SVG/1.1/DTD/svg11.dtd">
<!-- Generated by graphviz version 2.36.0 (20140111.2315)
 -->
<!-- Title: draw::Axis Pages: 1 -->
<svg width="110pt" height="420pt"
 viewBox="0.00 0.00 110.00 420.00" xmlns="http://www.w3.org/2000/svg" xmlns:xlink="http://www.w3.org/1999/xlink">
<g id="graph0" class="graph" transform="scale(1 1) rotate(0) translate(4 416)">
<title>draw::Axis</title>
<!-- Node1 -->
<g id="node1" class="node"><title>Node1</title>
<polygon fill="#bfbfbf" stroke="black" points="16.4644,-1 16.4644,-135 85.5356,-135 85.5356,-1 16.4644,-1"/>
<text text-anchor="middle" x="51" y="-123" font-family="Helvetica,sans-Serif" font-size="10.00">draw::Axis</text>
<polyline fill="none" stroke="black" points="16.4644,-117 85.5356,-117 "/>
<text text-anchor="middle" x="51" y="-105" font-family="Helvetica,sans-Serif" font-size="10.00"> </text>
<polyline fill="none" stroke="black" points="16.4644,-99 85.5356,-99 "/>
<text text-anchor="start" x="24.4644" y="-87" font-family="Helvetica,sans-Serif" font-size="10.00">+ Axis()</text>
<text text-anchor="start" x="24.4644" y="-77" font-family="Helvetica,sans-Serif" font-size="10.00">+ Axis()</text>
<text text-anchor="start" x="24.4644" y="-67" font-family="Helvetica,sans-Serif" font-size="10.00">+ label()</text>
<text text-anchor="start" x="24.4644" y="-57" font-family="Helvetica,sans-Serif" font-size="10.00">+ max()</text>
<text text-anchor="start" x="24.4644" y="-47" font-family="Helvetica,sans-Serif" font-size="10.00">+ min()</text>
<text text-anchor="start" x="24.4644" y="-37" font-family="Helvetica,sans-Serif" font-size="10.00">+ range()</text>
<text text-anchor="start" x="24.4644" y="-27" font-family="Helvetica,sans-Serif" font-size="10.00">+ set()</text>
<text text-anchor="start" x="24.4644" y="-17" font-family="Helvetica,sans-Serif" font-size="10.00">+ set_max()</text>
<text text-anchor="start" x="24.4644" y="-7" font-family="Helvetica,sans-Serif" font-size="10.00">+ set_min()</text>
</g>
<!-- Node2 -->
<g id="node2" class="node"><title>Node2</title>
<g id="a_node2"><a xlink:href="classapi_1_1_draw_info_object.html" target="_top" xlink:title="Draw Information Object. ">
<polygon fill="none" stroke="black" points="-0.908691,-173 -0.908691,-227 102.909,-227 102.909,-173 -0.908691,-173"/>
<text text-anchor="middle" x="51" y="-215" font-family="Helvetica,sans-Serif" font-size="10.00">api::DrawInfoObject</text>
<polyline fill="none" stroke="black" points="-0.908691,-209 102.909,-209 "/>
<text text-anchor="middle" x="51" y="-197" font-family="Helvetica,sans-Serif" font-size="10.00"> </text>
<polyline fill="none" stroke="black" points="-0.908691,-191 102.909,-191 "/>
<text text-anchor="middle" x="51" y="-179" font-family="Helvetica,sans-Serif" font-size="10.00"> </text>
</a>
</g>
</g>
<!-- Node2&#45;&gt;Node1 -->
<g id="edge1" class="edge"><title>Node2&#45;&gt;Node1</title>
<path fill="none" stroke="midnightblue" d="M51,-162.644C51,-154.02 51,-144.555 51,-135.059"/>
<polygon fill="none" stroke="midnightblue" points="47.5001,-162.693 51,-172.693 54.5001,-162.693 47.5001,-162.693"/>
</g>
<!-- Node3 -->
<g id="node3" class="node"><title>Node3</title>
<g id="a_node3"><a xlink:href="classapi_1_1_info_object.html" target="_top" xlink:title="Information Object. ">
<polygon fill="none" stroke="black" points="10.7588,-265 10.7588,-319 91.2412,-319 91.2412,-265 10.7588,-265"/>
<text text-anchor="middle" x="51" y="-307" font-family="Helvetica,sans-Serif" font-size="10.00">api::InfoObject</text>
<polyline fill="none" stroke="black" points="10.7588,-301 91.2412,-301 "/>
<text text-anchor="middle" x="51" y="-289" font-family="Helvetica,sans-Serif" font-size="10.00"> </text>
<polyline fill="none" stroke="black" points="10.7588,-283 91.2412,-283 "/>
<text text-anchor="middle" x="51" y="-271" font-family="Helvetica,sans-Serif" font-size="10.00"> </text>
</a>
</g>
</g>
<!-- Node3&#45;&gt;Node2 -->
<g id="edge2" class="edge"><title>Node3&#45;&gt;Node2</title>
<path fill="none" stroke="midnightblue" d="M51,-254.865C51,-245.644 51,-235.907 51,-227.285"/>
<polygon fill="none" stroke="midnightblue" points="47.5001,-254.968 51,-264.968 54.5001,-254.968 47.5001,-254.968"/>
</g>
<!-- Node4 -->
<g id="node4" class="node"><title>Node4</title>
<g id="a_node4"><a xlink:href="classapi_1_1_api_object.html" target="_top" xlink:title="Application Programming Interface Object. ">
<polygon fill="none" stroke="black" points="9.78955,-357 9.78955,-411 92.2104,-411 92.2104,-357 9.78955,-357"/>
<text text-anchor="middle" x="51" y="-399" font-family="Helvetica,sans-Serif" font-size="10.00">api::ApiObject</text>
<polyline fill="none" stroke="black" points="9.78955,-393 92.2104,-393 "/>
<text text-anchor="middle" x="51" y="-381" font-family="Helvetica,sans-Serif" font-size="10.00"> </text>
<polyline fill="none" stroke="black" points="9.78955,-375 92.2104,-375 "/>
<text text-anchor="start" x="17.7896" y="-363" font-family="Helvetica,sans-Serif" font-size="10.00">+ api_version()</text>
</a>
</g>
</g>
<!-- Node4&#45;&gt;Node3 -->
<g id="edge3" class="edge"><title>Node4&#45;&gt;Node3</title>
<path fill="none" stroke="midnightblue" d="M51,-346.865C51,-337.644 51,-327.907 51,-319.285"/>
<polygon fill="none" stroke="midnightblue" points="47.5001,-346.968 51,-356.968 54.5001,-346.968 47.5001,-346.968"/>
</g>
</g>
</svg>
