<?xml version="1.0" encoding="UTF-8" standalone="no"?>
<!DOCTYPE svg PUBLIC "-//W3C//DTD SVG 1.1//EN"
 "http://www.w3.org/Graphics/SVG/1.1/DTD/svg11.dtd">
<!-- Generated by graphviz version 2.36.0 (20140111.2315)
 -->
<!-- Title: var::Ring Pages: 1 -->
<svg width="150pt" height="662pt"
 viewBox="0.00 0.00 150.00 662.00" xmlns="http://www.w3.org/2000/svg" xmlns:xlink="http://www.w3.org/1999/xlink">
<g id="graph0" class="graph" transform="scale(1 1) rotate(0) translate(4 658)">
<title>var::Ring</title>
<!-- Node1 -->
<g id="node1" class="node"><title>Node1</title>
<polygon fill="#bfbfbf" stroke="black" points="10.6147,-1 10.6147,-115 131.385,-115 131.385,-1 10.6147,-1"/>
<text text-anchor="middle" x="71" y="-103" font-family="Helvetica,sans-Serif" font-size="10.00">var::Ring</text>
<polyline fill="none" stroke="black" points="10.6147,-97 131.385,-97 "/>
<text text-anchor="middle" x="71" y="-85" font-family="Helvetica,sans-Serif" font-size="10.00"> </text>
<polyline fill="none" stroke="black" points="10.6147,-79 131.385,-79 "/>
<text text-anchor="start" x="18.6147" y="-67" font-family="Helvetica,sans-Serif" font-size="10.00">+ Ring()</text>
<text text-anchor="start" x="18.6147" y="-57" font-family="Helvetica,sans-Serif" font-size="10.00">+ Ring()</text>
<text text-anchor="start" x="18.6147" y="-47" font-family="Helvetica,sans-Serif" font-size="10.00">+ calc_free()</text>
<text text-anchor="start" x="18.6147" y="-37" font-family="Helvetica,sans-Serif" font-size="10.00">+ calc_used()</text>
<text text-anchor="start" x="18.6147" y="-27" font-family="Helvetica,sans-Serif" font-size="10.00">+ flush()</text>
<text text-anchor="start" x="18.6147" y="-17" font-family="Helvetica,sans-Serif" font-size="10.00">+ is_overflow_allowed()</text>
<text text-anchor="start" x="18.6147" y="-7" font-family="Helvetica,sans-Serif" font-size="10.00">and 4 more...</text>
</g>
<!-- Node2 -->
<g id="node2" class="node"><title>Node2</title>
<g id="a_node2"><a xlink:href="classvar_1_1_data.html" target="_top" xlink:title="Data storage class. ">
<polygon fill="none" stroke="black" points="23.4102,-153 23.4102,-287 118.59,-287 118.59,-153 23.4102,-153"/>
<text text-anchor="middle" x="71" y="-275" font-family="Helvetica,sans-Serif" font-size="10.00">var::Data</text>
<polyline fill="none" stroke="black" points="23.4102,-269 118.59,-269 "/>
<text text-anchor="middle" x="71" y="-257" font-family="Helvetica,sans-Serif" font-size="10.00"> </text>
<polyline fill="none" stroke="black" points="23.4102,-251 118.59,-251 "/>
<text text-anchor="start" x="31.4102" y="-239" font-family="Helvetica,sans-Serif" font-size="10.00">+ Data()</text>
<text text-anchor="start" x="31.4102" y="-229" font-family="Helvetica,sans-Serif" font-size="10.00">+ Data()</text>
<text text-anchor="start" x="31.4102" y="-219" font-family="Helvetica,sans-Serif" font-size="10.00">+ Data()</text>
<text text-anchor="start" x="31.4102" y="-209" font-family="Helvetica,sans-Serif" font-size="10.00">+ Data()</text>
<text text-anchor="start" x="31.4102" y="-199" font-family="Helvetica,sans-Serif" font-size="10.00">+ ~Data()</text>
<text text-anchor="start" x="31.4102" y="-189" font-family="Helvetica,sans-Serif" font-size="10.00">+ alloc()</text>
<text text-anchor="start" x="31.4102" y="-179" font-family="Helvetica,sans-Serif" font-size="10.00">and 19 more...</text>
<text text-anchor="start" x="31.4102" y="-169" font-family="Helvetica,sans-Serif" font-size="10.00">+ minimum_size()</text>
<text text-anchor="start" x="31.4102" y="-159" font-family="Helvetica,sans-Serif" font-size="10.00"># copy()</text>
</a>
</g>
</g>
<!-- Node2&#45;&gt;Node1 -->
<g id="edge1" class="edge"><title>Node2&#45;&gt;Node1</title>
<path fill="none" stroke="midnightblue" d="M71,-142.907C71,-133.558 71,-124.139 71,-115.16"/>
<polygon fill="none" stroke="midnightblue" points="67.5001,-142.998 71,-152.998 74.5001,-142.998 67.5001,-142.998"/>
</g>
<!-- Node3 -->
<g id="node3" class="node"><title>Node3</title>
<g id="a_node3"><a xlink:href="classapi_1_1_var_work_object.html" target="_top" xlink:title="Var Work Object. ">
<polygon fill="none" stroke="black" points="20.1094,-325 20.1094,-379 121.891,-379 121.891,-325 20.1094,-325"/>
<text text-anchor="middle" x="71" y="-367" font-family="Helvetica,sans-Serif" font-size="10.00">api::VarWorkObject</text>
<polyline fill="none" stroke="black" points="20.1094,-361 121.891,-361 "/>
<text text-anchor="middle" x="71" y="-349" font-family="Helvetica,sans-Serif" font-size="10.00"> </text>
<polyline fill="none" stroke="black" points="20.1094,-343 121.891,-343 "/>
<text text-anchor="middle" x="71" y="-331" font-family="Helvetica,sans-Serif" font-size="10.00"> </text>
</a>
</g>
</g>
<!-- Node3&#45;&gt;Node2 -->
<g id="edge2" class="edge"><title>Node3&#45;&gt;Node2</title>
<path fill="none" stroke="midnightblue" d="M71,-314.644C71,-306.02 71,-296.555 71,-287.059"/>
<polygon fill="none" stroke="midnightblue" points="67.5001,-314.693 71,-324.693 74.5001,-314.693 67.5001,-314.693"/>
</g>
<!-- Node4 -->
<g id="node4" class="node"><title>Node4</title>
<g id="a_node4"><a xlink:href="classapi_1_1_work_object.html" target="_top" xlink:title="Work Object. ">
<polygon fill="none" stroke="black" points="-0.0859375,-417 -0.0859375,-561 142.086,-561 142.086,-417 -0.0859375,-417"/>
<text text-anchor="middle" x="71" y="-549" font-family="Helvetica,sans-Serif" font-size="10.00">api::WorkObject</text>
<polyline fill="none" stroke="black" points="-0.0859375,-543 142.086,-543 "/>
<text text-anchor="middle" x="71" y="-531" font-family="Helvetica,sans-Serif" font-size="10.00"> </text>
<polyline fill="none" stroke="black" points="-0.0859375,-525 142.086,-525 "/>
<text text-anchor="start" x="7.91406" y="-513" font-family="Helvetica,sans-Serif" font-size="10.00">+ WorkObject()</text>
<text text-anchor="start" x="7.91406" y="-503" font-family="Helvetica,sans-Serif" font-size="10.00">+ clear_error_number()</text>
<text text-anchor="start" x="7.91406" y="-493" font-family="Helvetica,sans-Serif" font-size="10.00">+ error_number()</text>
<text text-anchor="start" x="7.91406" y="-483" font-family="Helvetica,sans-Serif" font-size="10.00">+ exit_fatal()</text>
<text text-anchor="start" x="7.91406" y="-473" font-family="Helvetica,sans-Serif" font-size="10.00"># set_error_number()</text>
<text text-anchor="start" x="7.91406" y="-463" font-family="Helvetica,sans-Serif" font-size="10.00"># set_error_number_if</text>
<text text-anchor="start" x="7.91406" y="-453" font-family="Helvetica,sans-Serif" font-size="10.00">_error()</text>
<text text-anchor="start" x="7.91406" y="-443" font-family="Helvetica,sans-Serif" font-size="10.00"># set_error_number_if_null()</text>
<text text-anchor="start" x="7.91406" y="-433" font-family="Helvetica,sans-Serif" font-size="10.00"># set_error_number_to</text>
<text text-anchor="start" x="7.91406" y="-423" font-family="Helvetica,sans-Serif" font-size="10.00">_errno()</text>
</a>
</g>
</g>
<!-- Node4&#45;&gt;Node3 -->
<g id="edge3" class="edge"><title>Node4&#45;&gt;Node3</title>
<path fill="none" stroke="midnightblue" d="M71,-406.911C71,-396.983 71,-387.464 71,-379.262"/>
<polygon fill="none" stroke="midnightblue" points="67.5001,-406.942 71,-416.942 74.5001,-406.942 67.5001,-406.942"/>
</g>
<!-- Node5 -->
<g id="node5" class="node"><title>Node5</title>
<g id="a_node5"><a xlink:href="classapi_1_1_api_object.html" target="_top" xlink:title="Application Programming Interface Object. ">
<polygon fill="none" stroke="black" points="29.7896,-599 29.7896,-653 112.21,-653 112.21,-599 29.7896,-599"/>
<text text-anchor="middle" x="71" y="-641" font-family="Helvetica,sans-Serif" font-size="10.00">api::ApiObject</text>
<polyline fill="none" stroke="black" points="29.7896,-635 112.21,-635 "/>
<text text-anchor="middle" x="71" y="-623" font-family="Helvetica,sans-Serif" font-size="10.00"> </text>
<polyline fill="none" stroke="black" points="29.7896,-617 112.21,-617 "/>
<text text-anchor="start" x="37.7896" y="-605" font-family="Helvetica,sans-Serif" font-size="10.00">+ api_version()</text>
</a>
</g>
</g>
<!-- Node5&#45;&gt;Node4 -->
<g id="edge4" class="edge"><title>Node5&#45;&gt;Node4</title>
<path fill="none" stroke="midnightblue" d="M71,-588.925C71,-580.287 71,-570.765 71,-561.145"/>
<polygon fill="none" stroke="midnightblue" points="67.5001,-588.971 71,-598.971 74.5001,-588.971 67.5001,-588.971"/>
</g>
</g>
</svg>
