<?xml version="1.0" encoding="UTF-8" standalone="no"?>
<!DOCTYPE svg PUBLIC "-//W3C//DTD SVG 1.1//EN"
 "http://www.w3.org/Graphics/SVG/1.1/DTD/svg11.dtd">
<!-- Generated by graphviz version 2.36.0 (20140111.2315)
 -->
<!-- Title: calc::Ema_s16 Pages: 1 -->
<svg width="206pt" height="732pt"
 viewBox="0.00 0.00 206.00 732.00" xmlns="http://www.w3.org/2000/svg" xmlns:xlink="http://www.w3.org/1999/xlink">
<g id="graph0" class="graph" transform="scale(1 1) rotate(0) translate(4 728)">
<title>calc::Ema_s16</title>
<!-- Node1 -->
<g id="node1" class="node"><title>Node1</title>
<polygon fill="#bfbfbf" stroke="black" points="47.207,-1 47.207,-55 128.793,-55 128.793,-1 47.207,-1"/>
<text text-anchor="middle" x="88" y="-43" font-family="Helvetica,sans-Serif" font-size="10.00">calc::Ema_s16</text>
<polyline fill="none" stroke="black" points="47.207,-37 128.793,-37 "/>
<text text-anchor="middle" x="88" y="-25" font-family="Helvetica,sans-Serif" font-size="10.00"> </text>
<polyline fill="none" stroke="black" points="47.207,-19 128.793,-19 "/>
<text text-anchor="start" x="55.207" y="-7" font-family="Helvetica,sans-Serif" font-size="10.00">+ Ema_s16()</text>
</g>
<!-- Node2 -->
<g id="node2" class="node"><title>Node2</title>
<g id="a_node2"><a xlink:href="classcalc_1_1_ema.html" target="_top" xlink:title="{calc::Ema\&lt; u8, s16,\l s32 \&gt;\n||+ Ema()\l+ average()\l+ calc()\l+ set_average()\l+ small_max()\l}">
<polygon fill="none" stroke="black" points="35.9497,-95 35.9497,-199 140.05,-199 140.05,-95 35.9497,-95"/>
<text text-anchor="start" x="43.9497" y="-187" font-family="Helvetica,sans-Serif" font-size="10.00">calc::Ema&lt; u8, s16,</text>
<text text-anchor="middle" x="88" y="-177" font-family="Helvetica,sans-Serif" font-size="10.00"> s32 &gt;</text>
<polyline fill="none" stroke="black" points="35.9497,-171 140.05,-171 "/>
<text text-anchor="middle" x="88" y="-159" font-family="Helvetica,sans-Serif" font-size="10.00"> </text>
<polyline fill="none" stroke="black" points="35.9497,-153 140.05,-153 "/>
<text text-anchor="start" x="43.9497" y="-141" font-family="Helvetica,sans-Serif" font-size="10.00">+ Ema()</text>
<text text-anchor="start" x="43.9497" y="-131" font-family="Helvetica,sans-Serif" font-size="10.00">+ average()</text>
<text text-anchor="start" x="43.9497" y="-121" font-family="Helvetica,sans-Serif" font-size="10.00">+ calc()</text>
<text text-anchor="start" x="43.9497" y="-111" font-family="Helvetica,sans-Serif" font-size="10.00">+ set_average()</text>
<text text-anchor="start" x="43.9497" y="-101" font-family="Helvetica,sans-Serif" font-size="10.00">+ small_max()</text>
</a>
</g>
</g>
<!-- Node2&#45;&gt;Node1 -->
<g id="edge1" class="edge"><title>Node2&#45;&gt;Node1</title>
<path fill="none" stroke="midnightblue" d="M88,-84.4073C88,-74.1278 88,-63.9761 88,-55.2263"/>
<polygon fill="none" stroke="midnightblue" points="84.5001,-84.6821 88,-94.6821 91.5001,-84.6821 84.5001,-84.6821"/>
</g>
<!-- Node3 -->
<g id="node3" class="node"><title>Node3</title>
<g id="a_node3"><a xlink:href="classapi_1_1_calc_work_object.html" target="_top" xlink:title="Format Work Object Class. ">
<polygon fill="none" stroke="black" points="17.519,-391 17.519,-445 124.481,-445 124.481,-391 17.519,-391"/>
<text text-anchor="middle" x="71" y="-433" font-family="Helvetica,sans-Serif" font-size="10.00">api::CalcWorkObject</text>
<polyline fill="none" stroke="black" points="17.519,-427 124.481,-427 "/>
<text text-anchor="middle" x="71" y="-415" font-family="Helvetica,sans-Serif" font-size="10.00"> </text>
<polyline fill="none" stroke="black" points="17.519,-409 124.481,-409 "/>
<text text-anchor="middle" x="71" y="-397" font-family="Helvetica,sans-Serif" font-size="10.00"> </text>
</a>
</g>
</g>
<!-- Node3&#45;&gt;Node2 -->
<g id="edge2" class="edge"><title>Node3&#45;&gt;Node2</title>
<path fill="none" stroke="midnightblue" d="M71.8439,-380.79C72.8021,-346.154 74.6814,-292.465 78,-246 79.0904,-230.732 80.6407,-214.162 82.196,-199.066"/>
<polygon fill="none" stroke="midnightblue" points="68.3423,-380.81 71.5755,-390.899 75.3398,-380.996 68.3423,-380.81"/>
</g>
<!-- Node6 -->
<g id="node6" class="node"><title>Node6</title>
<g id="a_node6"><a xlink:href="classcalc_1_1_ema.html" target="_top" xlink:title="Exponential Moving Average template class. ">
<polygon fill="none" stroke="black" points="87.0605,-247 87.0605,-351 198.939,-351 198.939,-247 87.0605,-247"/>
<text text-anchor="start" x="95.0605" y="-339" font-family="Helvetica,sans-Serif" font-size="10.00">calc::Ema&lt; intsmall,</text>
<text text-anchor="middle" x="143" y="-329" font-family="Helvetica,sans-Serif" font-size="10.00"> intmedium, intlarge &gt;</text>
<polyline fill="none" stroke="black" points="87.0605,-323 198.939,-323 "/>
<text text-anchor="middle" x="143" y="-311" font-family="Helvetica,sans-Serif" font-size="10.00"> </text>
<polyline fill="none" stroke="black" points="87.0605,-305 198.939,-305 "/>
<text text-anchor="start" x="95.0605" y="-293" font-family="Helvetica,sans-Serif" font-size="10.00">+ Ema()</text>
<text text-anchor="start" x="95.0605" y="-283" font-family="Helvetica,sans-Serif" font-size="10.00">+ average()</text>
<text text-anchor="start" x="95.0605" y="-273" font-family="Helvetica,sans-Serif" font-size="10.00">+ calc()</text>
<text text-anchor="start" x="95.0605" y="-263" font-family="Helvetica,sans-Serif" font-size="10.00">+ set_average()</text>
<text text-anchor="start" x="95.0605" y="-253" font-family="Helvetica,sans-Serif" font-size="10.00">+ small_max()</text>
</a>
</g>
</g>
<!-- Node3&#45;&gt;Node6 -->
<g id="edge6" class="edge"><title>Node3&#45;&gt;Node6</title>
<path fill="none" stroke="midnightblue" d="M92.4612,-382.126C98.4602,-372.377 105.107,-361.577 111.555,-351.099"/>
<polygon fill="none" stroke="midnightblue" points="89.4184,-380.392 87.1582,-390.743 95.38,-384.061 89.4184,-380.392"/>
</g>
<!-- Node4 -->
<g id="node4" class="node"><title>Node4</title>
<g id="a_node4"><a xlink:href="classapi_1_1_work_object.html" target="_top" xlink:title="WorkObject Class. ">
<polygon fill="none" stroke="black" points="-0.0859375,-485 -0.0859375,-629 142.086,-629 142.086,-485 -0.0859375,-485"/>
<text text-anchor="middle" x="71" y="-617" font-family="Helvetica,sans-Serif" font-size="10.00">api::WorkObject</text>
<polyline fill="none" stroke="black" points="-0.0859375,-611 142.086,-611 "/>
<text text-anchor="middle" x="71" y="-599" font-family="Helvetica,sans-Serif" font-size="10.00"> </text>
<polyline fill="none" stroke="black" points="-0.0859375,-593 142.086,-593 "/>
<text text-anchor="start" x="7.91406" y="-581" font-family="Helvetica,sans-Serif" font-size="10.00">+ WorkObject()</text>
<text text-anchor="start" x="7.91406" y="-571" font-family="Helvetica,sans-Serif" font-size="10.00">+ clear_error_number()</text>
<text text-anchor="start" x="7.91406" y="-561" font-family="Helvetica,sans-Serif" font-size="10.00">+ error_number()</text>
<text text-anchor="start" x="7.91406" y="-551" font-family="Helvetica,sans-Serif" font-size="10.00">+ exit_fatal()</text>
<text text-anchor="start" x="7.91406" y="-541" font-family="Helvetica,sans-Serif" font-size="10.00"># set_error_number()</text>
<text text-anchor="start" x="7.91406" y="-531" font-family="Helvetica,sans-Serif" font-size="10.00"># set_error_number_if</text>
<text text-anchor="start" x="7.91406" y="-521" font-family="Helvetica,sans-Serif" font-size="10.00">_error()</text>
<text text-anchor="start" x="7.91406" y="-511" font-family="Helvetica,sans-Serif" font-size="10.00"># set_error_number_if_null()</text>
<text text-anchor="start" x="7.91406" y="-501" font-family="Helvetica,sans-Serif" font-size="10.00"># set_error_number_to</text>
<text text-anchor="start" x="7.91406" y="-491" font-family="Helvetica,sans-Serif" font-size="10.00">_errno()</text>
</a>
</g>
</g>
<!-- Node4&#45;&gt;Node3 -->
<g id="edge3" class="edge"><title>Node4&#45;&gt;Node3</title>
<path fill="none" stroke="midnightblue" d="M71,-474.456C71,-463.882 71,-453.739 71,-445.085"/>
<polygon fill="none" stroke="midnightblue" points="67.5001,-474.691 71,-484.691 74.5001,-474.691 67.5001,-474.691"/>
</g>
<!-- Node5 -->
<g id="node5" class="node"><title>Node5</title>
<g id="a_node5"><a xlink:href="classapi_1_1_api_object.html" target="_top" xlink:title="API Object Class. ">
<polygon fill="none" stroke="black" points="29.7896,-669 29.7896,-723 112.21,-723 112.21,-669 29.7896,-669"/>
<text text-anchor="middle" x="71" y="-711" font-family="Helvetica,sans-Serif" font-size="10.00">api::ApiObject</text>
<polyline fill="none" stroke="black" points="29.7896,-705 112.21,-705 "/>
<text text-anchor="middle" x="71" y="-693" font-family="Helvetica,sans-Serif" font-size="10.00"> </text>
<polyline fill="none" stroke="black" points="29.7896,-687 112.21,-687 "/>
<text text-anchor="start" x="37.7896" y="-675" font-family="Helvetica,sans-Serif" font-size="10.00">+ api_version()</text>
</a>
</g>
</g>
<!-- Node5&#45;&gt;Node4 -->
<g id="edge4" class="edge"><title>Node5&#45;&gt;Node4</title>
<path fill="none" stroke="midnightblue" d="M71,-658.646C71,-649.468 71,-639.293 71,-629.043"/>
<polygon fill="none" stroke="midnightblue" points="67.5001,-658.909 71,-668.909 74.5001,-658.909 67.5001,-658.909"/>
</g>
<!-- Node6&#45;&gt;Node2 -->
<g id="edge5" class="edge"><title>Node6&#45;&gt;Node2</title>
<path fill="none" stroke="orange" d="M120.735,-237.278C116.106,-224.653 111.272,-211.468 106.783,-199.226"/>
<polygon fill="orange" stroke="orange" points="117.497,-238.614 124.226,-246.798 124.069,-236.204 117.497,-238.614"/>
<text text-anchor="middle" x="154.249" y="-220" font-family="Helvetica,sans-Serif" font-size="10.00"> &lt; u8, s16, s32 &gt;</text>
</g>
</g>
</svg>
