<?xml version="1.0" encoding="UTF-8" standalone="no"?>
<!DOCTYPE svg PUBLIC "-//W3C//DTD SVG 1.1//EN"
 "http://www.w3.org/Graphics/SVG/1.1/DTD/svg11.dtd">
<!-- Generated by graphviz version 2.36.0 (20140111.2315)
 -->
<!-- Title: sm::SimpleStateMachine&lt; container_class, return_type, args &gt; Pages: 1 -->
<svg width="134pt" height="520pt"
 viewBox="0.00 0.00 134.00 520.00" xmlns="http://www.w3.org/2000/svg" xmlns:xlink="http://www.w3.org/1999/xlink">
<g id="graph0" class="graph" transform="scale(1 1) rotate(0) translate(4 516)">
<title>sm::SimpleStateMachine&lt; container_class, return_type, args &gt;</title>
<!-- Node1 -->
<g id="node1" class="node"><title>Node1</title>
<polygon fill="#bfbfbf" stroke="black" points="-0.300293,-1 -0.300293,-155 126.3,-155 126.3,-1 -0.300293,-1"/>
<text text-anchor="start" x="7.69971" y="-143" font-family="Helvetica,sans-Serif" font-size="10.00">sm::SimpleStateMachine</text>
<text text-anchor="start" x="7.69971" y="-133" font-family="Helvetica,sans-Serif" font-size="10.00">&lt; container_class, return</text>
<text text-anchor="middle" x="63" y="-123" font-family="Helvetica,sans-Serif" font-size="10.00">_type, args &gt;</text>
<polyline fill="none" stroke="black" points="-0.300293,-117 126.3,-117 "/>
<text text-anchor="middle" x="63" y="-105" font-family="Helvetica,sans-Serif" font-size="10.00"> </text>
<polyline fill="none" stroke="black" points="-0.300293,-99 126.3,-99 "/>
<text text-anchor="start" x="7.69971" y="-87" font-family="Helvetica,sans-Serif" font-size="10.00">+ SimpleStateMachine()</text>
<text text-anchor="start" x="7.69971" y="-77" font-family="Helvetica,sans-Serif" font-size="10.00">+ count()</text>
<text text-anchor="start" x="7.69971" y="-67" font-family="Helvetica,sans-Serif" font-size="10.00">+ error()</text>
<text text-anchor="start" x="7.69971" y="-57" font-family="Helvetica,sans-Serif" font-size="10.00">+ is_state_valid()</text>
<text text-anchor="start" x="7.69971" y="-47" font-family="Helvetica,sans-Serif" font-size="10.00">+ resize()</text>
<text text-anchor="start" x="7.69971" y="-37" font-family="Helvetica,sans-Serif" font-size="10.00">+ set_state()</text>
<text text-anchor="start" x="7.69971" y="-27" font-family="Helvetica,sans-Serif" font-size="10.00">+ set_state_method()</text>
<text text-anchor="start" x="7.69971" y="-17" font-family="Helvetica,sans-Serif" font-size="10.00">+ state()</text>
<text text-anchor="start" x="7.69971" y="-7" font-family="Helvetica,sans-Serif" font-size="10.00">+ update()</text>
</g>
<!-- Node2 -->
<g id="node2" class="node"><title>Node2</title>
<g id="a_node2"><a xlink:href="classapi_1_1_sm_work_object.html" target="_top" xlink:title="State Machine Work Object Class. ">
<polygon fill="none" stroke="black" points="12.0215,-193 12.0215,-247 113.979,-247 113.979,-193 12.0215,-193"/>
<text text-anchor="middle" x="63" y="-235" font-family="Helvetica,sans-Serif" font-size="10.00">api::SmWorkObject</text>
<polyline fill="none" stroke="black" points="12.0215,-229 113.979,-229 "/>
<text text-anchor="middle" x="63" y="-217" font-family="Helvetica,sans-Serif" font-size="10.00"> </text>
<polyline fill="none" stroke="black" points="12.0215,-211 113.979,-211 "/>
<text text-anchor="middle" x="63" y="-199" font-family="Helvetica,sans-Serif" font-size="10.00"> </text>
</a>
</g>
</g>
<!-- Node2&#45;&gt;Node1 -->
<g id="edge1" class="edge"><title>Node2&#45;&gt;Node1</title>
<path fill="none" stroke="midnightblue" d="M63,-182.981C63,-174.361 63,-164.833 63,-155.147"/>
<polygon fill="none" stroke="midnightblue" points="59.5001,-182.995 63,-192.995 66.5001,-182.995 59.5001,-182.995"/>
</g>
<!-- Node3 -->
<g id="node3" class="node"><title>Node3</title>
<g id="a_node3"><a xlink:href="classapi_1_1_work_object.html" target="_top" xlink:title="WorkObject Class. ">
<polygon fill="none" stroke="black" points="3.45215,-285 3.45215,-419 122.548,-419 122.548,-285 3.45215,-285"/>
<text text-anchor="middle" x="63" y="-407" font-family="Helvetica,sans-Serif" font-size="10.00">api::WorkObject</text>
<polyline fill="none" stroke="black" points="3.45215,-401 122.548,-401 "/>
<text text-anchor="middle" x="63" y="-389" font-family="Helvetica,sans-Serif" font-size="10.00"> </text>
<polyline fill="none" stroke="black" points="3.45215,-383 122.548,-383 "/>
<text text-anchor="start" x="11.4521" y="-371" font-family="Helvetica,sans-Serif" font-size="10.00">+ WorkObject()</text>
<text text-anchor="start" x="11.4521" y="-361" font-family="Helvetica,sans-Serif" font-size="10.00">+ clear_error_number()</text>
<text text-anchor="start" x="11.4521" y="-351" font-family="Helvetica,sans-Serif" font-size="10.00">+ error_number()</text>
<text text-anchor="start" x="11.4521" y="-341" font-family="Helvetica,sans-Serif" font-size="10.00">+ exit_fatal()</text>
<text text-anchor="start" x="11.4521" y="-331" font-family="Helvetica,sans-Serif" font-size="10.00"># set_error_number()</text>
<text text-anchor="start" x="11.4521" y="-321" font-family="Helvetica,sans-Serif" font-size="10.00"># set_error_number_if</text>
<text text-anchor="start" x="11.4521" y="-311" font-family="Helvetica,sans-Serif" font-size="10.00">_error()</text>
<text text-anchor="start" x="11.4521" y="-301" font-family="Helvetica,sans-Serif" font-size="10.00"># set_error_number_to</text>
<text text-anchor="start" x="11.4521" y="-291" font-family="Helvetica,sans-Serif" font-size="10.00">_errno()</text>
</a>
</g>
</g>
<!-- Node3&#45;&gt;Node2 -->
<g id="edge2" class="edge"><title>Node3&#45;&gt;Node2</title>
<path fill="none" stroke="midnightblue" d="M63,-274.838C63,-264.903 63,-255.326 63,-247.074"/>
<polygon fill="none" stroke="midnightblue" points="59.5001,-274.857 63,-284.857 66.5001,-274.858 59.5001,-274.857"/>
</g>
<!-- Node4 -->
<g id="node4" class="node"><title>Node4</title>
<g id="a_node4"><a xlink:href="classapi_1_1_api_object.html" target="_top" xlink:title="API Object Class. ">
<polygon fill="none" stroke="black" points="21.7896,-457 21.7896,-511 104.21,-511 104.21,-457 21.7896,-457"/>
<text text-anchor="middle" x="63" y="-499" font-family="Helvetica,sans-Serif" font-size="10.00">api::ApiObject</text>
<polyline fill="none" stroke="black" points="21.7896,-493 104.21,-493 "/>
<text text-anchor="middle" x="63" y="-481" font-family="Helvetica,sans-Serif" font-size="10.00"> </text>
<polyline fill="none" stroke="black" points="21.7896,-475 104.21,-475 "/>
<text text-anchor="start" x="29.7896" y="-463" font-family="Helvetica,sans-Serif" font-size="10.00">+ api_version()</text>
</a>
</g>
</g>
<!-- Node4&#45;&gt;Node3 -->
<g id="edge3" class="edge"><title>Node4&#45;&gt;Node3</title>
<path fill="none" stroke="midnightblue" d="M63,-446.644C63,-438.02 63,-428.555 63,-419.059"/>
<polygon fill="none" stroke="midnightblue" points="59.5001,-446.693 63,-456.693 66.5001,-446.693 59.5001,-446.693"/>
</g>
</g>
</svg>
