<?xml version="1.0" encoding="UTF-8" standalone="no"?>
<!DOCTYPE svg PUBLIC "-//W3C//DTD SVG 1.1//EN"
 "http://www.w3.org/Graphics/SVG/1.1/DTD/svg11.dtd">
<!-- Generated by graphviz version 2.36.0 (20140111.2315)
 -->
<!-- Title: var::Token Pages: 1 -->
<svg width="144pt" height="814pt"
 viewBox="0.00 0.00 144.00 814.00" xmlns="http://www.w3.org/2000/svg" xmlns:xlink="http://www.w3.org/1999/xlink">
<g id="graph0" class="graph" transform="scale(1 1) rotate(0) translate(4 810)">
<title>var::Token</title>
<!-- Node1 -->
<g id="node1" class="node"><title>Node1</title>
<polygon fill="#bfbfbf" stroke="black" points="-0.170898,-1 -0.170898,-135 136.171,-135 136.171,-1 -0.170898,-1"/>
<text text-anchor="middle" x="68" y="-123" font-family="Helvetica,sans-Serif" font-size="10.00">var::Token</text>
<polyline fill="none" stroke="black" points="-0.170898,-117 136.171,-117 "/>
<text text-anchor="middle" x="68" y="-105" font-family="Helvetica,sans-Serif" font-size="10.00"> </text>
<polyline fill="none" stroke="black" points="-0.170898,-99 136.171,-99 "/>
<text text-anchor="start" x="7.8291" y="-87" font-family="Helvetica,sans-Serif" font-size="10.00">+ Token()</text>
<text text-anchor="start" x="7.8291" y="-77" font-family="Helvetica,sans-Serif" font-size="10.00">+ Token()</text>
<text text-anchor="start" x="7.8291" y="-67" font-family="Helvetica,sans-Serif" font-size="10.00">+ Token()</text>
<text text-anchor="start" x="7.8291" y="-57" font-family="Helvetica,sans-Serif" font-size="10.00">+ at()</text>
<text text-anchor="start" x="7.8291" y="-47" font-family="Helvetica,sans-Serif" font-size="10.00">+ count()</text>
<text text-anchor="start" x="7.8291" y="-37" font-family="Helvetica,sans-Serif" font-size="10.00">+ is_count_empty_tokens()</text>
<text text-anchor="start" x="7.8291" y="-27" font-family="Helvetica,sans-Serif" font-size="10.00">and 5 more...</text>
<text text-anchor="start" x="7.8291" y="-17" font-family="Helvetica,sans-Serif" font-size="10.00">+ belongs_to()</text>
<text text-anchor="start" x="7.8291" y="-7" font-family="Helvetica,sans-Serif" font-size="10.00">+ belongs_to()</text>
</g>
<!-- Node2 -->
<g id="node2" class="node"><title>Node2</title>
<g id="a_node2"><a xlink:href="classvar_1_1_string.html" target="_top" xlink:title="String class. ">
<polygon fill="none" stroke="black" points="27.7588,-173 27.7588,-287 108.241,-287 108.241,-173 27.7588,-173"/>
<text text-anchor="middle" x="68" y="-275" font-family="Helvetica,sans-Serif" font-size="10.00">var::String</text>
<polyline fill="none" stroke="black" points="27.7588,-269 108.241,-269 "/>
<text text-anchor="middle" x="68" y="-257" font-family="Helvetica,sans-Serif" font-size="10.00"> </text>
<polyline fill="none" stroke="black" points="27.7588,-251 108.241,-251 "/>
<text text-anchor="start" x="35.7588" y="-239" font-family="Helvetica,sans-Serif" font-size="10.00">+ String()</text>
<text text-anchor="start" x="35.7588" y="-229" font-family="Helvetica,sans-Serif" font-size="10.00">+ String()</text>
<text text-anchor="start" x="35.7588" y="-219" font-family="Helvetica,sans-Serif" font-size="10.00">+ String()</text>
<text text-anchor="start" x="35.7588" y="-209" font-family="Helvetica,sans-Serif" font-size="10.00">+ String()</text>
<text text-anchor="start" x="35.7588" y="-199" font-family="Helvetica,sans-Serif" font-size="10.00">+ String()</text>
<text text-anchor="start" x="35.7588" y="-189" font-family="Helvetica,sans-Serif" font-size="10.00">+ String()</text>
<text text-anchor="start" x="35.7588" y="-179" font-family="Helvetica,sans-Serif" font-size="10.00">and 52 more...</text>
</a>
</g>
</g>
<!-- Node2&#45;&gt;Node1 -->
<g id="edge1" class="edge"><title>Node2&#45;&gt;Node1</title>
<path fill="none" stroke="midnightblue" d="M68,-162.474C68,-153.401 68,-144.09 68,-135.026"/>
<polygon fill="none" stroke="midnightblue" points="64.5001,-162.59 68,-172.59 71.5001,-162.59 64.5001,-162.59"/>
</g>
<!-- Node3 -->
<g id="node3" class="node"><title>Node3</title>
<g id="a_node3"><a xlink:href="classvar_1_1_data.html" target="_top" xlink:title="Data storage class. ">
<polygon fill="none" stroke="black" points="20.4102,-325 20.4102,-449 115.59,-449 115.59,-325 20.4102,-325"/>
<text text-anchor="middle" x="68" y="-437" font-family="Helvetica,sans-Serif" font-size="10.00">var::Data</text>
<polyline fill="none" stroke="black" points="20.4102,-431 115.59,-431 "/>
<text text-anchor="middle" x="68" y="-419" font-family="Helvetica,sans-Serif" font-size="10.00"> </text>
<polyline fill="none" stroke="black" points="20.4102,-413 115.59,-413 "/>
<text text-anchor="start" x="28.4102" y="-401" font-family="Helvetica,sans-Serif" font-size="10.00">+ Data()</text>
<text text-anchor="start" x="28.4102" y="-391" font-family="Helvetica,sans-Serif" font-size="10.00">+ Data()</text>
<text text-anchor="start" x="28.4102" y="-381" font-family="Helvetica,sans-Serif" font-size="10.00">+ Data()</text>
<text text-anchor="start" x="28.4102" y="-371" font-family="Helvetica,sans-Serif" font-size="10.00">+ Data()</text>
<text text-anchor="start" x="28.4102" y="-361" font-family="Helvetica,sans-Serif" font-size="10.00">+ ~Data()</text>
<text text-anchor="start" x="28.4102" y="-351" font-family="Helvetica,sans-Serif" font-size="10.00">+ alloc()</text>
<text text-anchor="start" x="28.4102" y="-341" font-family="Helvetica,sans-Serif" font-size="10.00">and 17 more...</text>
<text text-anchor="start" x="28.4102" y="-331" font-family="Helvetica,sans-Serif" font-size="10.00">+ minimum_size()</text>
</a>
</g>
</g>
<!-- Node3&#45;&gt;Node2 -->
<g id="edge2" class="edge"><title>Node3&#45;&gt;Node2</title>
<path fill="none" stroke="midnightblue" d="M68,-314.503C68,-305.37 68,-296.126 68,-287.28"/>
<polygon fill="none" stroke="midnightblue" points="64.5001,-314.74 68,-324.74 71.5001,-314.74 64.5001,-314.74"/>
</g>
<!-- Node4 -->
<g id="node4" class="node"><title>Node4</title>
<g id="a_node4"><a xlink:href="classapi_1_1_var_work_object.html" target="_top" xlink:title="Format Work Object Class. ">
<polygon fill="none" stroke="black" points="17.1094,-487 17.1094,-541 118.891,-541 118.891,-487 17.1094,-487"/>
<text text-anchor="middle" x="68" y="-529" font-family="Helvetica,sans-Serif" font-size="10.00">api::VarWorkObject</text>
<polyline fill="none" stroke="black" points="17.1094,-523 118.891,-523 "/>
<text text-anchor="middle" x="68" y="-511" font-family="Helvetica,sans-Serif" font-size="10.00"> </text>
<polyline fill="none" stroke="black" points="17.1094,-505 118.891,-505 "/>
<text text-anchor="middle" x="68" y="-493" font-family="Helvetica,sans-Serif" font-size="10.00"> </text>
</a>
</g>
</g>
<!-- Node4&#45;&gt;Node3 -->
<g id="edge3" class="edge"><title>Node4&#45;&gt;Node3</title>
<path fill="none" stroke="midnightblue" d="M68,-476.715C68,-468.071 68,-458.61 68,-449.188"/>
<polygon fill="none" stroke="midnightblue" points="64.5001,-476.796 68,-486.796 71.5001,-476.796 64.5001,-476.796"/>
</g>
<!-- Node5 -->
<g id="node5" class="node"><title>Node5</title>
<g id="a_node5"><a xlink:href="classapi_1_1_work_object.html" target="_top" xlink:title="WorkObject Class. ">
<polygon fill="none" stroke="black" points="8.45215,-579 8.45215,-713 127.548,-713 127.548,-579 8.45215,-579"/>
<text text-anchor="middle" x="68" y="-701" font-family="Helvetica,sans-Serif" font-size="10.00">api::WorkObject</text>
<polyline fill="none" stroke="black" points="8.45215,-695 127.548,-695 "/>
<text text-anchor="middle" x="68" y="-683" font-family="Helvetica,sans-Serif" font-size="10.00"> </text>
<polyline fill="none" stroke="black" points="8.45215,-677 127.548,-677 "/>
<text text-anchor="start" x="16.4521" y="-665" font-family="Helvetica,sans-Serif" font-size="10.00">+ WorkObject()</text>
<text text-anchor="start" x="16.4521" y="-655" font-family="Helvetica,sans-Serif" font-size="10.00">+ clear_error_number()</text>
<text text-anchor="start" x="16.4521" y="-645" font-family="Helvetica,sans-Serif" font-size="10.00">+ error_number()</text>
<text text-anchor="start" x="16.4521" y="-635" font-family="Helvetica,sans-Serif" font-size="10.00">+ exit_fatal()</text>
<text text-anchor="start" x="16.4521" y="-625" font-family="Helvetica,sans-Serif" font-size="10.00"># set_error_number()</text>
<text text-anchor="start" x="16.4521" y="-615" font-family="Helvetica,sans-Serif" font-size="10.00"># set_error_number_if</text>
<text text-anchor="start" x="16.4521" y="-605" font-family="Helvetica,sans-Serif" font-size="10.00">_error()</text>
<text text-anchor="start" x="16.4521" y="-595" font-family="Helvetica,sans-Serif" font-size="10.00"># set_error_number_to</text>
<text text-anchor="start" x="16.4521" y="-585" font-family="Helvetica,sans-Serif" font-size="10.00">_errno()</text>
</a>
</g>
</g>
<!-- Node5&#45;&gt;Node4 -->
<g id="edge4" class="edge"><title>Node5&#45;&gt;Node4</title>
<path fill="none" stroke="midnightblue" d="M68,-568.838C68,-558.903 68,-549.326 68,-541.074"/>
<polygon fill="none" stroke="midnightblue" points="64.5001,-568.857 68,-578.857 71.5001,-568.858 64.5001,-568.857"/>
</g>
<!-- Node6 -->
<g id="node6" class="node"><title>Node6</title>
<g id="a_node6"><a xlink:href="classapi_1_1_api_object.html" target="_top" xlink:title="API Object Class. ">
<polygon fill="none" stroke="black" points="26.7896,-751 26.7896,-805 109.21,-805 109.21,-751 26.7896,-751"/>
<text text-anchor="middle" x="68" y="-793" font-family="Helvetica,sans-Serif" font-size="10.00">api::ApiObject</text>
<polyline fill="none" stroke="black" points="26.7896,-787 109.21,-787 "/>
<text text-anchor="middle" x="68" y="-775" font-family="Helvetica,sans-Serif" font-size="10.00"> </text>
<polyline fill="none" stroke="black" points="26.7896,-769 109.21,-769 "/>
<text text-anchor="start" x="34.7896" y="-757" font-family="Helvetica,sans-Serif" font-size="10.00">+ api_version()</text>
</a>
</g>
</g>
<!-- Node6&#45;&gt;Node5 -->
<g id="edge5" class="edge"><title>Node6&#45;&gt;Node5</title>
<path fill="none" stroke="midnightblue" d="M68,-740.644C68,-732.02 68,-722.555 68,-713.059"/>
<polygon fill="none" stroke="midnightblue" points="64.5001,-740.693 68,-750.693 71.5001,-740.693 64.5001,-740.693"/>
</g>
</g>
</svg>
