<?xml version="1.0" encoding="UTF-8" standalone="no"?>
<!DOCTYPE svg PUBLIC "-//W3C//DTD SVG 1.1//EN"
 "http://www.w3.org/Graphics/SVG/1.1/DTD/svg11.dtd">
<!-- Generated by graphviz version 2.36.0 (20140111.2315)
 -->
<!-- Title: calc::Ema_s16 Pages: 1 -->
<!--zoomable 732 -->
<svg id="main" version="1.1" xmlns="http://www.w3.org/2000/svg" xmlns:xlink="http://www.w3.org/1999/xlink" xml:space="preserve" onload="init(evt)">
<style type="text/css"><![CDATA[
.edge:hover path { stroke: red; }
.edge:hover polygon { stroke: red; fill: red; }
]]></style>
<script type="text/javascript"><![CDATA[
var edges = document.getElementsByTagName('g');
if (edges && edges.length) {
  for (var i=0;i<edges.length;i++) {
    if (edges[i].id.substr(0,4)=='edge') {
      edges[i].setAttribute('class','edge');
    }
  }
}
]]></script>
        <defs>
                <circle id="rim" cx="0" cy="0" r="7"/>
                <circle id="rim2" cx="0" cy="0" r="3.5"/>
                <g id="zoomPlus">
                        <use xlink:href="#rim" fill="#404040">
                                <set attributeName="fill" to="#808080" begin="zoomplus.mouseover" end="zoomplus.mouseout"/>
                        </use>
                        <path d="M-4,0h8M0,-4v8" fill="none" stroke="white" stroke-width="1.5" pointer-events="none"/>
                </g>
                <g id="zoomMin">
                        <use xlink:href="#rim" fill="#404040">
                                <set attributeName="fill" to="#808080" begin="zoomminus.mouseover" end="zoomminus.mouseout"/>
                        </use>
                        <path d="M-4,0h8" fill="none" stroke="white" stroke-width="1.5" pointer-events="none"/>
                </g>
                <g id="dirArrow">
                        <path fill="none" stroke="white" stroke-width="1.5" d="M0,-3.0v7 M-2.5,-0.5L0,-3.0L2.5,-0.5"/>
                </g>
               <g id="resetDef">
                       <use xlink:href="#rim2" fill="#404040">
                               <set attributeName="fill" to="#808080" begin="reset.mouseover" end="reset.mouseout"/>
                       </use>
               </g>
        </defs>

<script type="text/javascript">
var viewWidth = 206;
var viewHeight = 732;
var sectionId = 'dynsection-0';
</script>
<script xlink:href="svgpan.js"/>
<svg id="graph" class="graph">
<g id="viewport">
<title>calc::Ema_s16</title>
<!-- Node1 -->
<g id="node1" class="node"><title>Node1</title>
<polygon fill="#bfbfbf" stroke="black" points="47.207,-1 47.207,-55 128.793,-55 128.793,-1 47.207,-1"/>
<text text-anchor="middle" x="88" y="-43" font-family="Helvetica,sans-Serif" font-size="10.00">calc::Ema_s16</text>
<polyline fill="none" stroke="black" points="47.207,-37 128.793,-37 "/>
<text text-anchor="middle" x="88" y="-25" font-family="Helvetica,sans-Serif" font-size="10.00"> </text>
<polyline fill="none" stroke="black" points="47.207,-19 128.793,-19 "/>
<text text-anchor="start" x="55.207" y="-7" font-family="Helvetica,sans-Serif" font-size="10.00">+ Ema_s16()</text>
</g>
<!-- Node2 -->
<g id="node2" class="node"><title>Node2</title>
<g id="a_node2"><a xlink:href="classcalc_1_1_ema.html" target="_top" xlink:title="{calc::Ema\&lt; u8, s16,\l s32 \&gt;\n||+ Ema()\l+ average()\l+ calc()\l+ set_average()\l+ small_max()\l}">
<polygon fill="none" stroke="black" points="35.9497,-95 35.9497,-199 140.05,-199 140.05,-95 35.9497,-95"/>
<text text-anchor="start" x="43.9497" y="-187" font-family="Helvetica,sans-Serif" font-size="10.00">calc::Ema&lt; u8, s16,</text>
<text text-anchor="middle" x="88" y="-177" font-family="Helvetica,sans-Serif" font-size="10.00"> s32 &gt;</text>
<polyline fill="none" stroke="black" points="35.9497,-171 140.05,-171 "/>
<text text-anchor="middle" x="88" y="-159" font-family="Helvetica,sans-Serif" font-size="10.00"> </text>
<polyline fill="none" stroke="black" points="35.9497,-153 140.05,-153 "/>
<text text-anchor="start" x="43.9497" y="-141" font-family="Helvetica,sans-Serif" font-size="10.00">+ Ema()</text>
<text text-anchor="start" x="43.9497" y="-131" font-family="Helvetica,sans-Serif" font-size="10.00">+ average()</text>
<text text-anchor="start" x="43.9497" y="-121" font-family="Helvetica,sans-Serif" font-size="10.00">+ calc()</text>
<text text-anchor="start" x="43.9497" y="-111" font-family="Helvetica,sans-Serif" font-size="10.00">+ set_average()</text>
<text text-anchor="start" x="43.9497" y="-101" font-family="Helvetica,sans-Serif" font-size="10.00">+ small_max()</text>
</a>
</g>
</g>
<!-- Node2&#45;&gt;Node1 -->
<g id="edge1" class="edge"><title>Node2&#45;&gt;Node1</title>
<path fill="none" stroke="midnightblue" d="M88,-84.4073C88,-74.1278 88,-63.9761 88,-55.2263"/>
<polygon fill="none" stroke="midnightblue" points="84.5001,-84.6821 88,-94.6821 91.5001,-84.6821 84.5001,-84.6821"/>
</g>
<!-- Node3 -->
<g id="node3" class="node"><title>Node3</title>
<g id="a_node3"><a xlink:href="classapi_1_1_calc_work_object.html" target="_top" xlink:title="Calc Work Object. ">
<polygon fill="none" stroke="black" points="17.519,-391 17.519,-445 124.481,-445 124.481,-391 17.519,-391"/>
<text text-anchor="middle" x="71" y="-433" font-family="Helvetica,sans-Serif" font-size="10.00">api::CalcWorkObject</text>
<polyline fill="none" stroke="black" points="17.519,-427 124.481,-427 "/>
<text text-anchor="middle" x="71" y="-415" font-family="Helvetica,sans-Serif" font-size="10.00"> </text>
<polyline fill="none" stroke="black" points="17.519,-409 124.481,-409 "/>
<text text-anchor="middle" x="71" y="-397" font-family="Helvetica,sans-Serif" font-size="10.00"> </text>
</a>
</g>
</g>
<!-- Node3&#45;&gt;Node2 -->
<g id="edge2" class="edge"><title>Node3&#45;&gt;Node2</title>
<path fill="none" stroke="midnightblue" d="M71.8439,-380.79C72.8021,-346.154 74.6814,-292.465 78,-246 79.0904,-230.732 80.6407,-214.162 82.196,-199.066"/>
<polygon fill="none" stroke="midnightblue" points="68.3423,-380.81 71.5755,-390.899 75.3398,-380.996 68.3423,-380.81"/>
</g>
<!-- Node6 -->
<g id="node6" class="node"><title>Node6</title>
<g id="a_node6"><a xlink:href="classcalc_1_1_ema.html" target="_top" xlink:title="Exponential Moving Average template class. ">
<polygon fill="none" stroke="black" points="87.0605,-247 87.0605,-351 198.939,-351 198.939,-247 87.0605,-247"/>
<text text-anchor="start" x="95.0605" y="-339" font-family="Helvetica,sans-Serif" font-size="10.00">calc::Ema&lt; intsmall,</text>
<text text-anchor="middle" x="143" y="-329" font-family="Helvetica,sans-Serif" font-size="10.00"> intmedium, intlarge &gt;</text>
<polyline fill="none" stroke="black" points="87.0605,-323 198.939,-323 "/>
<text text-anchor="middle" x="143" y="-311" font-family="Helvetica,sans-Serif" font-size="10.00"> </text>
<polyline fill="none" stroke="black" points="87.0605,-305 198.939,-305 "/>
<text text-anchor="start" x="95.0605" y="-293" font-family="Helvetica,sans-Serif" font-size="10.00">+ Ema()</text>
<text text-anchor="start" x="95.0605" y="-283" font-family="Helvetica,sans-Serif" font-size="10.00">+ average()</text>
<text text-anchor="start" x="95.0605" y="-273" font-family="Helvetica,sans-Serif" font-size="10.00">+ calc()</text>
<text text-anchor="start" x="95.0605" y="-263" font-family="Helvetica,sans-Serif" font-size="10.00">+ set_average()</text>
<text text-anchor="start" x="95.0605" y="-253" font-family="Helvetica,sans-Serif" font-size="10.00">+ small_max()</text>
</a>
</g>
</g>
<!-- Node3&#45;&gt;Node6 -->
<g id="edge6" class="edge"><title>Node3&#45;&gt;Node6</title>
<path fill="none" stroke="midnightblue" d="M92.4612,-382.126C98.4602,-372.377 105.107,-361.577 111.555,-351.099"/>
<polygon fill="none" stroke="midnightblue" points="89.4184,-380.392 87.1582,-390.743 95.38,-384.061 89.4184,-380.392"/>
</g>
<!-- Node4 -->
<g id="node4" class="node"><title>Node4</title>
<g id="a_node4"><a xlink:href="classapi_1_1_work_object.html" target="_top" xlink:title="Work Object. ">
<polygon fill="none" stroke="black" points="-0.0859375,-485 -0.0859375,-629 142.086,-629 142.086,-485 -0.0859375,-485"/>
<text text-anchor="middle" x="71" y="-617" font-family="Helvetica,sans-Serif" font-size="10.00">api::WorkObject</text>
<polyline fill="none" stroke="black" points="-0.0859375,-611 142.086,-611 "/>
<text text-anchor="middle" x="71" y="-599" font-family="Helvetica,sans-Serif" font-size="10.00"> </text>
<polyline fill="none" stroke="black" points="-0.0859375,-593 142.086,-593 "/>
<text text-anchor="start" x="7.91406" y="-581" font-family="Helvetica,sans-Serif" font-size="10.00">+ WorkObject()</text>
<text text-anchor="start" x="7.91406" y="-571" font-family="Helvetica,sans-Serif" font-size="10.00">+ clear_error_number()</text>
<text text-anchor="start" x="7.91406" y="-561" font-family="Helvetica,sans-Serif" font-size="10.00">+ error_number()</text>
<text text-anchor="start" x="7.91406" y="-551" font-family="Helvetica,sans-Serif" font-size="10.00">+ exit_fatal()</text>
<text text-anchor="start" x="7.91406" y="-541" font-family="Helvetica,sans-Serif" font-size="10.00"># set_error_number()</text>
<text text-anchor="start" x="7.91406" y="-531" font-family="Helvetica,sans-Serif" font-size="10.00"># set_error_number_if</text>
<text text-anchor="start" x="7.91406" y="-521" font-family="Helvetica,sans-Serif" font-size="10.00">_error()</text>
<text text-anchor="start" x="7.91406" y="-511" font-family="Helvetica,sans-Serif" font-size="10.00"># set_error_number_if_null()</text>
<text text-anchor="start" x="7.91406" y="-501" font-family="Helvetica,sans-Serif" font-size="10.00"># set_error_number_to</text>
<text text-anchor="start" x="7.91406" y="-491" font-family="Helvetica,sans-Serif" font-size="10.00">_errno()</text>
</a>
</g>
</g>
<!-- Node4&#45;&gt;Node3 -->
<g id="edge3" class="edge"><title>Node4&#45;&gt;Node3</title>
<path fill="none" stroke="midnightblue" d="M71,-474.456C71,-463.882 71,-453.739 71,-445.085"/>
<polygon fill="none" stroke="midnightblue" points="67.5001,-474.691 71,-484.691 74.5001,-474.691 67.5001,-474.691"/>
</g>
<!-- Node5 -->
<g id="node5" class="node"><title>Node5</title>
<g id="a_node5"><a xlink:href="classapi_1_1_api_object.html" target="_top" xlink:title="Application Programming Interface Object. ">
<polygon fill="none" stroke="black" points="29.7896,-669 29.7896,-723 112.21,-723 112.21,-669 29.7896,-669"/>
<text text-anchor="middle" x="71" y="-711" font-family="Helvetica,sans-Serif" font-size="10.00">api::ApiObject</text>
<polyline fill="none" stroke="black" points="29.7896,-705 112.21,-705 "/>
<text text-anchor="middle" x="71" y="-693" font-family="Helvetica,sans-Serif" font-size="10.00"> </text>
<polyline fill="none" stroke="black" points="29.7896,-687 112.21,-687 "/>
<text text-anchor="start" x="37.7896" y="-675" font-family="Helvetica,sans-Serif" font-size="10.00">+ api_version()</text>
</a>
</g>
</g>
<!-- Node5&#45;&gt;Node4 -->
<g id="edge4" class="edge"><title>Node5&#45;&gt;Node4</title>
<path fill="none" stroke="midnightblue" d="M71,-658.646C71,-649.468 71,-639.293 71,-629.043"/>
<polygon fill="none" stroke="midnightblue" points="67.5001,-658.909 71,-668.909 74.5001,-658.909 67.5001,-658.909"/>
</g>
<!-- Node6&#45;&gt;Node2 -->
<g id="edge5" class="edge"><title>Node6&#45;&gt;Node2</title>
<path fill="none" stroke="orange" d="M120.735,-237.278C116.106,-224.653 111.272,-211.468 106.783,-199.226"/>
<polygon fill="orange" stroke="orange" points="117.497,-238.614 124.226,-246.798 124.069,-236.204 117.497,-238.614"/>
<text text-anchor="middle" x="154.249" y="-220" font-family="Helvetica,sans-Serif" font-size="10.00"> &lt; u8, s16, s32 &gt;</text>
</g>
</g>
</svg>
        <g id="navigator" transform="translate(0 0)" fill="#404254">
                <rect fill="#f2f5e9" fill-opacity="0.5" stroke="#606060" stroke-width=".5" x="0" y="0" width="60" height="60"/>
                <use id="zoomplus" xlink:href="#zoomPlus" x="17" y="9" onmousedown="handleZoom(evt,'in')"/>
                <use id="zoomminus" xlink:href="#zoomMin" x="42" y="9" onmousedown="handleZoom(evt,'out')"/>
                <use id="reset" xlink:href="#resetDef" x="30" y="36" onmousedown="handleReset()"/>
                <g id="arrowUp" xlink:href="#dirArrow" transform="translate(30 24)" onmousedown="handlePan(0,-1)">
                  <use xlink:href="#rim" fill="#404040">
                        <set attributeName="fill" to="#808080" begin="arrowUp.mouseover" end="arrowUp.mouseout"/>
                  </use>
                  <path fill="none" stroke="white" stroke-width="1.5" d="M0,-3.0v7 M-2.5,-0.5L0,-3.0L2.5,-0.5"/>
                </g>
                <g id="arrowRight" xlink:href="#dirArrow" transform="rotate(90) translate(36 -43)" onmousedown="handlePan(1,0)">
                  <use xlink:href="#rim" fill="#404040">
                        <set attributeName="fill" to="#808080" begin="arrowRight.mouseover" end="arrowRight.mouseout"/>
                  </use>
                  <path fill="none" stroke="white" stroke-width="1.5" d="M0,-3.0v7 M-2.5,-0.5L0,-3.0L2.5,-0.5"/>
                </g>
                <g id="arrowDown" xlink:href="#dirArrow" transform="rotate(180) translate(-30 -48)" onmousedown="handlePan(0,1)">
                  <use xlink:href="#rim" fill="#404040">
                        <set attributeName="fill" to="#808080" begin="arrowDown.mouseover" end="arrowDown.mouseout"/>
                  </use>
                  <path fill="none" stroke="white" stroke-width="1.5" d="M0,-3.0v7 M-2.5,-0.5L0,-3.0L2.5,-0.5"/>
                </g>
                <g id="arrowLeft" xlink:href="#dirArrow" transform="rotate(270) translate(-36 17)" onmousedown="handlePan(-1,0)">
                  <use xlink:href="#rim" fill="#404040">
                        <set attributeName="fill" to="#808080" begin="arrowLeft.mouseover" end="arrowLeft.mouseout"/>
                  </use>
                  <path fill="none" stroke="white" stroke-width="1.5" d="M0,-3.0v7 M-2.5,-0.5L0,-3.0L2.5,-0.5"/>
                </g>
        </g>
        <svg viewBox="0 0 15 15" width="100%" height="30px" preserveAspectRatio="xMaxYMin meet">
         <g id="arrow_out" transform="scale(0.3 0.3)">
          <a xlink:href="classcalc_1_1_ema__s16__inherit__graph_org.svg" target="_base">
           <rect id="button" ry="5" rx="5" y="6" x="6" height="38" width="38"
                fill="#f2f5e9" fill-opacity="0.5" stroke="#606060" stroke-width="1.0"/>
           <path id="arrow"
             d="M 11.500037,31.436501 C 11.940474,20.09759 22.043105,11.32322 32.158766,21.979434 L 37.068811,17.246167 C 37.068811,17.246167 37.088388,32 37.088388,32 L 22.160133,31.978069 C 22.160133,31.978069 26.997745,27.140456 26.997745,27.140456 C 18.528582,18.264221 13.291696,25.230495 11.500037,31.436501 z"
             style="fill:#404040;"/>
          </a>
         </g>
        </svg>
</svg>
