<?xml version="1.0" encoding="UTF-8" standalone="no"?>
<!DOCTYPE svg PUBLIC "-//W3C//DTD SVG 1.1//EN"
 "http://www.w3.org/Graphics/SVG/1.1/DTD/svg11.dtd">
<!-- Generated by graphviz version 2.36.0 (20140111.2315)
 -->
<!-- Title: ev::EventLoop Pages: 1 -->
<!--zoomable 934 -->
<svg id="main" version="1.1" xmlns="http://www.w3.org/2000/svg" xmlns:xlink="http://www.w3.org/1999/xlink" xml:space="preserve" onload="init(evt)">
<style type="text/css"><![CDATA[
.edge:hover path { stroke: red; }
.edge:hover polygon { stroke: red; fill: red; }
]]></style>
<script type="text/javascript"><![CDATA[
var edges = document.getElementsByTagName('g');
if (edges && edges.length) {
  for (var i=0;i<edges.length;i++) {
    if (edges[i].id.substr(0,4)=='edge') {
      edges[i].setAttribute('class','edge');
    }
  }
}
]]></script>
        <defs>
                <circle id="rim" cx="0" cy="0" r="7"/>
                <circle id="rim2" cx="0" cy="0" r="3.5"/>
                <g id="zoomPlus">
                        <use xlink:href="#rim" fill="#404040">
                                <set attributeName="fill" to="#808080" begin="zoomplus.mouseover" end="zoomplus.mouseout"/>
                        </use>
                        <path d="M-4,0h8M0,-4v8" fill="none" stroke="white" stroke-width="1.5" pointer-events="none"/>
                </g>
                <g id="zoomMin">
                        <use xlink:href="#rim" fill="#404040">
                                <set attributeName="fill" to="#808080" begin="zoomminus.mouseover" end="zoomminus.mouseout"/>
                        </use>
                        <path d="M-4,0h8" fill="none" stroke="white" stroke-width="1.5" pointer-events="none"/>
                </g>
                <g id="dirArrow">
                        <path fill="none" stroke="white" stroke-width="1.5" d="M0,-3.0v7 M-2.5,-0.5L0,-3.0L2.5,-0.5"/>
                </g>
               <g id="resetDef">
                       <use xlink:href="#rim2" fill="#404040">
                               <set attributeName="fill" to="#808080" begin="reset.mouseover" end="reset.mouseout"/>
                       </use>
               </g>
        </defs>

<script type="text/javascript">
var viewWidth = 273;
var viewHeight = 934;
var sectionId = 'dynsection-0';
</script>
<script xlink:href="svgpan.js"/>
<svg id="graph" class="graph">
<g id="viewport">
<title>ev::EventLoop</title>
<!-- Node1 -->
<g id="node1" class="node"><title>Node1</title>
<polygon fill="#bfbfbf" stroke="black" points="67.876,-203 67.876,-407 218.124,-407 218.124,-203 67.876,-203"/>
<text text-anchor="middle" x="143" y="-395" font-family="Helvetica,sans-Serif" font-size="10.00">ev::EventLoop</text>
<polyline fill="none" stroke="black" points="67.876,-389 218.124,-389 "/>
<text text-anchor="middle" x="143" y="-377" font-family="Helvetica,sans-Serif" font-size="10.00"> </text>
<polyline fill="none" stroke="black" points="67.876,-371 218.124,-371 "/>
<text text-anchor="start" x="75.876" y="-359" font-family="Helvetica,sans-Serif" font-size="10.00">+ EventLoop()</text>
<text text-anchor="start" x="75.876" y="-349" font-family="Helvetica,sans-Serif" font-size="10.00">+ catch_null_handler()</text>
<text text-anchor="start" x="75.876" y="-339" font-family="Helvetica,sans-Serif" font-size="10.00">+ current_event_handler()</text>
<text text-anchor="start" x="75.876" y="-329" font-family="Helvetica,sans-Serif" font-size="10.00">+ execute()</text>
<text text-anchor="start" x="75.876" y="-319" font-family="Helvetica,sans-Serif" font-size="10.00">+ loop()</text>
<text text-anchor="start" x="75.876" y="-309" font-family="Helvetica,sans-Serif" font-size="10.00">+ process_events()</text>
<text text-anchor="start" x="75.876" y="-299" font-family="Helvetica,sans-Serif" font-size="10.00">+ set_current_event_handler()</text>
<text text-anchor="start" x="75.876" y="-289" font-family="Helvetica,sans-Serif" font-size="10.00">+ start()</text>
<text text-anchor="start" x="75.876" y="-279" font-family="Helvetica,sans-Serif" font-size="10.00">+ handle_event()</text>
<text text-anchor="start" x="75.876" y="-269" font-family="Helvetica,sans-Serif" font-size="10.00">+ handle_transition()</text>
<text text-anchor="start" x="75.876" y="-259" font-family="Helvetica,sans-Serif" font-size="10.00">+ start()</text>
<text text-anchor="start" x="75.876" y="-249" font-family="Helvetica,sans-Serif" font-size="10.00"># check_loop_for_hibernate()</text>
<text text-anchor="start" x="75.876" y="-239" font-family="Helvetica,sans-Serif" font-size="10.00"># check_loop_for_update()</text>
<text text-anchor="start" x="75.876" y="-229" font-family="Helvetica,sans-Serif" font-size="10.00"># handle_event()</text>
<text text-anchor="start" x="75.876" y="-219" font-family="Helvetica,sans-Serif" font-size="10.00"># loop_timer()</text>
<text text-anchor="start" x="75.876" y="-209" font-family="Helvetica,sans-Serif" font-size="10.00"># update_timer()</text>
</g>
<!-- Node8 -->
<g id="node8" class="node"><title>Node8</title>
<g id="a_node8"><a xlink:href="classui_1_1_event_loop.html" target="_top" xlink:title="Event Loop Class (Graphical UI) ">
<polygon fill="none" stroke="black" points="81.7798,-1 81.7798,-165 204.22,-165 204.22,-1 81.7798,-1"/>
<text text-anchor="middle" x="143" y="-153" font-family="Helvetica,sans-Serif" font-size="10.00">ui::EventLoop</text>
<polyline fill="none" stroke="black" points="81.7798,-147 204.22,-147 "/>
<text text-anchor="middle" x="143" y="-135" font-family="Helvetica,sans-Serif" font-size="10.00"> </text>
<polyline fill="none" stroke="black" points="81.7798,-129 204.22,-129 "/>
<text text-anchor="start" x="89.7798" y="-117" font-family="Helvetica,sans-Serif" font-size="10.00">+ EventLoop()</text>
<text text-anchor="start" x="89.7798" y="-107" font-family="Helvetica,sans-Serif" font-size="10.00">+ catch_null_handler()</text>
<text text-anchor="start" x="89.7798" y="-97" font-family="Helvetica,sans-Serif" font-size="10.00">+ current_element()</text>
<text text-anchor="start" x="89.7798" y="-87" font-family="Helvetica,sans-Serif" font-size="10.00">+ drawing_attr()</text>
<text text-anchor="start" x="89.7798" y="-77" font-family="Helvetica,sans-Serif" font-size="10.00">+ loop()</text>
<text text-anchor="start" x="89.7798" y="-67" font-family="Helvetica,sans-Serif" font-size="10.00">+ set_current_element()</text>
<text text-anchor="start" x="89.7798" y="-57" font-family="Helvetica,sans-Serif" font-size="10.00">+ set_drawing_attr()</text>
<text text-anchor="start" x="89.7798" y="-47" font-family="Helvetica,sans-Serif" font-size="10.00">+ start()</text>
<text text-anchor="start" x="89.7798" y="-37" font-family="Helvetica,sans-Serif" font-size="10.00">+ handle_event()</text>
<text text-anchor="start" x="89.7798" y="-27" font-family="Helvetica,sans-Serif" font-size="10.00">+ handle_transition()</text>
<text text-anchor="start" x="89.7798" y="-17" font-family="Helvetica,sans-Serif" font-size="10.00">+ start()</text>
<text text-anchor="start" x="89.7798" y="-7" font-family="Helvetica,sans-Serif" font-size="10.00"># handle_event()</text>
</a>
</g>
</g>
<!-- Node1&#45;&gt;Node8 -->
<g id="edge8" class="edge"><title>Node1&#45;&gt;Node8</title>
<path fill="none" stroke="midnightblue" d="M143,-192.608C143,-183.307 143,-174.02 143,-165.012"/>
<polygon fill="none" stroke="midnightblue" points="139.5,-192.693 143,-202.693 146.5,-192.693 139.5,-192.693"/>
</g>
<!-- Node2 -->
<g id="node2" class="node"><title>Node2</title>
<g id="a_node2"><a xlink:href="classev_1_1_event_loop_attr.html" target="_top" xlink:title="Event Loop Attributes. ">
<polygon fill="none" stroke="black" points="-0.180664,-445 -0.180664,-569 146.181,-569 146.181,-445 -0.180664,-445"/>
<text text-anchor="middle" x="73" y="-557" font-family="Helvetica,sans-Serif" font-size="10.00">ev::EventLoopAttr</text>
<polyline fill="none" stroke="black" points="-0.180664,-551 146.181,-551 "/>
<text text-anchor="start" x="7.81934" y="-539" font-family="Helvetica,sans-Serif" font-size="10.00"># m_attr</text>
<polyline fill="none" stroke="black" points="-0.180664,-533 146.181,-533 "/>
<text text-anchor="start" x="7.81934" y="-521" font-family="Helvetica,sans-Serif" font-size="10.00">+ EventLoopAttr()</text>
<text text-anchor="start" x="7.81934" y="-511" font-family="Helvetica,sans-Serif" font-size="10.00">+ hibernation_threshold()</text>
<text text-anchor="start" x="7.81934" y="-501" font-family="Helvetica,sans-Serif" font-size="10.00">+ operator event_loop</text>
<text text-anchor="start" x="7.81934" y="-491" font-family="Helvetica,sans-Serif" font-size="10.00">_attr_t()</text>
<text text-anchor="start" x="7.81934" y="-481" font-family="Helvetica,sans-Serif" font-size="10.00">+ period()</text>
<text text-anchor="start" x="7.81934" y="-471" font-family="Helvetica,sans-Serif" font-size="10.00">+ refresh_wait_resolution()</text>
<text text-anchor="start" x="7.81934" y="-461" font-family="Helvetica,sans-Serif" font-size="10.00">+ set_hibernation_threshold()</text>
<text text-anchor="start" x="7.81934" y="-451" font-family="Helvetica,sans-Serif" font-size="10.00">and 5 more...</text>
</a>
</g>
</g>
<!-- Node2&#45;&gt;Node1 -->
<g id="edge1" class="edge"><title>Node2&#45;&gt;Node1</title>
<path fill="none" stroke="midnightblue" d="M97.7742,-435.216C100.949,-426.144 104.248,-416.721 107.551,-407.282"/>
<polygon fill="none" stroke="midnightblue" points="94.3827,-434.312 94.3827,-444.907 100.99,-436.624 94.3827,-434.312"/>
</g>
<!-- Node3 -->
<g id="node3" class="node"><title>Node3</title>
<g id="a_node3"><a xlink:href="classapi_1_1_ev_info_object.html" target="_top" xlink:title="Event Informatin Object. ">
<polygon fill="none" stroke="black" points="37.9238,-607 37.9238,-661 130.076,-661 130.076,-607 37.9238,-607"/>
<text text-anchor="middle" x="84" y="-649" font-family="Helvetica,sans-Serif" font-size="10.00">api::EvInfoObject</text>
<polyline fill="none" stroke="black" points="37.9238,-643 130.076,-643 "/>
<text text-anchor="middle" x="84" y="-631" font-family="Helvetica,sans-Serif" font-size="10.00"> </text>
<polyline fill="none" stroke="black" points="37.9238,-625 130.076,-625 "/>
<text text-anchor="middle" x="84" y="-613" font-family="Helvetica,sans-Serif" font-size="10.00"> </text>
</a>
</g>
</g>
<!-- Node3&#45;&gt;Node2 -->
<g id="edge2" class="edge"><title>Node3&#45;&gt;Node2</title>
<path fill="none" stroke="midnightblue" d="M80.8069,-596.715C80.0462,-588.071 79.2137,-578.61 78.3846,-569.188"/>
<polygon fill="none" stroke="midnightblue" points="77.3308,-597.141 81.694,-606.796 84.3039,-596.528 77.3308,-597.141"/>
</g>
<!-- Node4 -->
<g id="node4" class="node"><title>Node4</title>
<g id="a_node4"><a xlink:href="classapi_1_1_info_object.html" target="_top" xlink:title="API Information Object. ">
<polygon fill="none" stroke="black" points="46.7588,-739 46.7588,-793 127.241,-793 127.241,-739 46.7588,-739"/>
<text text-anchor="middle" x="87" y="-781" font-family="Helvetica,sans-Serif" font-size="10.00">api::InfoObject</text>
<polyline fill="none" stroke="black" points="46.7588,-775 127.241,-775 "/>
<text text-anchor="middle" x="87" y="-763" font-family="Helvetica,sans-Serif" font-size="10.00"> </text>
<polyline fill="none" stroke="black" points="46.7588,-757 127.241,-757 "/>
<text text-anchor="middle" x="87" y="-745" font-family="Helvetica,sans-Serif" font-size="10.00"> </text>
</a>
</g>
</g>
<!-- Node4&#45;&gt;Node3 -->
<g id="edge3" class="edge"><title>Node4&#45;&gt;Node3</title>
<path fill="none" stroke="midnightblue" d="M86.1612,-728.652C85.6671,-707.24 85.0533,-680.641 84.6062,-661.268"/>
<polygon fill="none" stroke="midnightblue" points="82.663,-728.776 86.3929,-738.693 89.6612,-728.614 82.663,-728.776"/>
</g>
<!-- Node5 -->
<g id="node5" class="node"><title>Node5</title>
<g id="a_node5"><a xlink:href="classapi_1_1_api_object.html" target="_top" xlink:title="API Object Class. ">
<polygon fill="none" stroke="black" points="104.79,-871 104.79,-925 187.21,-925 187.21,-871 104.79,-871"/>
<text text-anchor="middle" x="146" y="-913" font-family="Helvetica,sans-Serif" font-size="10.00">api::ApiObject</text>
<polyline fill="none" stroke="black" points="104.79,-907 187.21,-907 "/>
<text text-anchor="middle" x="146" y="-895" font-family="Helvetica,sans-Serif" font-size="10.00"> </text>
<polyline fill="none" stroke="black" points="104.79,-889 187.21,-889 "/>
<text text-anchor="start" x="112.79" y="-877" font-family="Helvetica,sans-Serif" font-size="10.00">+ api_version()</text>
</a>
</g>
</g>
<!-- Node5&#45;&gt;Node4 -->
<g id="edge4" class="edge"><title>Node5&#45;&gt;Node4</title>
<path fill="none" stroke="midnightblue" d="M129.9,-861.525C120.116,-839.966 107.834,-812.905 98.9218,-793.268"/>
<polygon fill="none" stroke="midnightblue" points="126.741,-863.033 134.06,-870.693 133.115,-860.14 126.741,-863.033"/>
</g>
<!-- Node7 -->
<g id="node7" class="node"><title>Node7</title>
<g id="a_node7"><a xlink:href="classapi_1_1_work_object.html" target="_top" xlink:title="WorkObject Class. ">
<polygon fill="none" stroke="black" points="146.452,-699 146.452,-833 265.548,-833 265.548,-699 146.452,-699"/>
<text text-anchor="middle" x="206" y="-821" font-family="Helvetica,sans-Serif" font-size="10.00">api::WorkObject</text>
<polyline fill="none" stroke="black" points="146.452,-815 265.548,-815 "/>
<text text-anchor="middle" x="206" y="-803" font-family="Helvetica,sans-Serif" font-size="10.00"> </text>
<polyline fill="none" stroke="black" points="146.452,-797 265.548,-797 "/>
<text text-anchor="start" x="154.452" y="-785" font-family="Helvetica,sans-Serif" font-size="10.00">+ WorkObject()</text>
<text text-anchor="start" x="154.452" y="-775" font-family="Helvetica,sans-Serif" font-size="10.00">+ clear_error_number()</text>
<text text-anchor="start" x="154.452" y="-765" font-family="Helvetica,sans-Serif" font-size="10.00">+ error_number()</text>
<text text-anchor="start" x="154.452" y="-755" font-family="Helvetica,sans-Serif" font-size="10.00">+ exit_fatal()</text>
<text text-anchor="start" x="154.452" y="-745" font-family="Helvetica,sans-Serif" font-size="10.00"># set_error_number()</text>
<text text-anchor="start" x="154.452" y="-735" font-family="Helvetica,sans-Serif" font-size="10.00"># set_error_number_if</text>
<text text-anchor="start" x="154.452" y="-725" font-family="Helvetica,sans-Serif" font-size="10.00">_error()</text>
<text text-anchor="start" x="154.452" y="-715" font-family="Helvetica,sans-Serif" font-size="10.00"># set_error_number_to</text>
<text text-anchor="start" x="154.452" y="-705" font-family="Helvetica,sans-Serif" font-size="10.00">_errno()</text>
</a>
</g>
</g>
<!-- Node5&#45;&gt;Node7 -->
<g id="edge7" class="edge"><title>Node5&#45;&gt;Node7</title>
<path fill="none" stroke="midnightblue" d="M162.387,-861.495C166.472,-852.644 170.984,-842.868 175.511,-833.059"/>
<polygon fill="none" stroke="midnightblue" points="159.155,-860.146 158.142,-870.693 165.51,-863.08 159.155,-860.146"/>
</g>
<!-- Node6 -->
<g id="node6" class="node"><title>Node6</title>
<g id="a_node6"><a xlink:href="classapi_1_1_ev_work_object.html" target="_top" xlink:title="Event Object Class. ">
<polygon fill="none" stroke="black" points="163.687,-480 163.687,-534 262.313,-534 262.313,-480 163.687,-480"/>
<text text-anchor="middle" x="213" y="-522" font-family="Helvetica,sans-Serif" font-size="10.00">api::EvWorkObject</text>
<polyline fill="none" stroke="black" points="163.687,-516 262.313,-516 "/>
<text text-anchor="middle" x="213" y="-504" font-family="Helvetica,sans-Serif" font-size="10.00"> </text>
<polyline fill="none" stroke="black" points="163.687,-498 262.313,-498 "/>
<text text-anchor="middle" x="213" y="-486" font-family="Helvetica,sans-Serif" font-size="10.00"> </text>
</a>
</g>
</g>
<!-- Node6&#45;&gt;Node1 -->
<g id="edge5" class="edge"><title>Node6&#45;&gt;Node1</title>
<path fill="none" stroke="midnightblue" d="M200.391,-469.973C194.178,-452.224 186.344,-429.84 178.477,-407.364"/>
<polygon fill="none" stroke="midnightblue" points="197.242,-471.571 203.849,-479.853 203.849,-469.259 197.242,-471.571"/>
</g>
<!-- Node7&#45;&gt;Node6 -->
<g id="edge6" class="edge"><title>Node7&#45;&gt;Node6</title>
<path fill="none" stroke="midnightblue" d="M208.082,-688.567C209.504,-636.335 211.303,-570.291 212.283,-534.311"/>
<polygon fill="none" stroke="midnightblue" points="204.576,-688.724 207.803,-698.816 211.574,-688.915 204.576,-688.724"/>
</g>
</g>
</svg>
        <g id="navigator" transform="translate(0 0)" fill="#404254">
                <rect fill="#f2f5e9" fill-opacity="0.5" stroke="#606060" stroke-width=".5" x="0" y="0" width="60" height="60"/>
                <use id="zoomplus" xlink:href="#zoomPlus" x="17" y="9" onmousedown="handleZoom(evt,'in')"/>
                <use id="zoomminus" xlink:href="#zoomMin" x="42" y="9" onmousedown="handleZoom(evt,'out')"/>
                <use id="reset" xlink:href="#resetDef" x="30" y="36" onmousedown="handleReset()"/>
                <g id="arrowUp" xlink:href="#dirArrow" transform="translate(30 24)" onmousedown="handlePan(0,-1)">
                  <use xlink:href="#rim" fill="#404040">
                        <set attributeName="fill" to="#808080" begin="arrowUp.mouseover" end="arrowUp.mouseout"/>
                  </use>
                  <path fill="none" stroke="white" stroke-width="1.5" d="M0,-3.0v7 M-2.5,-0.5L0,-3.0L2.5,-0.5"/>
                </g>
                <g id="arrowRight" xlink:href="#dirArrow" transform="rotate(90) translate(36 -43)" onmousedown="handlePan(1,0)">
                  <use xlink:href="#rim" fill="#404040">
                        <set attributeName="fill" to="#808080" begin="arrowRight.mouseover" end="arrowRight.mouseout"/>
                  </use>
                  <path fill="none" stroke="white" stroke-width="1.5" d="M0,-3.0v7 M-2.5,-0.5L0,-3.0L2.5,-0.5"/>
                </g>
                <g id="arrowDown" xlink:href="#dirArrow" transform="rotate(180) translate(-30 -48)" onmousedown="handlePan(0,1)">
                  <use xlink:href="#rim" fill="#404040">
                        <set attributeName="fill" to="#808080" begin="arrowDown.mouseover" end="arrowDown.mouseout"/>
                  </use>
                  <path fill="none" stroke="white" stroke-width="1.5" d="M0,-3.0v7 M-2.5,-0.5L0,-3.0L2.5,-0.5"/>
                </g>
                <g id="arrowLeft" xlink:href="#dirArrow" transform="rotate(270) translate(-36 17)" onmousedown="handlePan(-1,0)">
                  <use xlink:href="#rim" fill="#404040">
                        <set attributeName="fill" to="#808080" begin="arrowLeft.mouseover" end="arrowLeft.mouseout"/>
                  </use>
                  <path fill="none" stroke="white" stroke-width="1.5" d="M0,-3.0v7 M-2.5,-0.5L0,-3.0L2.5,-0.5"/>
                </g>
        </g>
        <svg viewBox="0 0 15 15" width="100%" height="30px" preserveAspectRatio="xMaxYMin meet">
         <g id="arrow_out" transform="scale(0.3 0.3)">
          <a xlink:href="classev_1_1_event_loop__inherit__graph_org.svg" target="_base">
           <rect id="button" ry="5" rx="5" y="6" x="6" height="38" width="38"
                fill="#f2f5e9" fill-opacity="0.5" stroke="#606060" stroke-width="1.0"/>
           <path id="arrow"
             d="M 11.500037,31.436501 C 11.940474,20.09759 22.043105,11.32322 32.158766,21.979434 L 37.068811,17.246167 C 37.068811,17.246167 37.088388,32 37.088388,32 L 22.160133,31.978069 C 22.160133,31.978069 26.997745,27.140456 26.997745,27.140456 C 18.528582,18.264221 13.291696,25.230495 11.500037,31.436501 z"
             style="fill:#404040;"/>
          </a>
         </g>
        </svg>
</svg>
