<?xml version="1.0" encoding="UTF-8" standalone="no"?>
<!DOCTYPE svg PUBLIC "-//W3C//DTD SVG 1.1//EN"
 "http://www.w3.org/Graphics/SVG/1.1/DTD/svg11.dtd">
<!-- Generated by graphviz version 2.36.0 (20140111.2315)
 -->
<!-- Title: chrono::Time Pages: 1 -->
<svg width="124pt" height="460pt"
 viewBox="0.00 0.00 124.00 460.00" xmlns="http://www.w3.org/2000/svg" xmlns:xlink="http://www.w3.org/1999/xlink">
<g id="graph0" class="graph" transform="scale(1 1) rotate(0) translate(4 456)">
<title>chrono::Time</title>
<!-- Node1 -->
<g id="node1" class="node"><title>Node1</title>
<polygon fill="#bfbfbf" stroke="black" points="3.44482,-1 3.44482,-125 112.555,-125 112.555,-1 3.44482,-1"/>
<text text-anchor="middle" x="58" y="-113" font-family="Helvetica,sans-Serif" font-size="10.00">chrono::Time</text>
<polyline fill="none" stroke="black" points="3.44482,-107 112.555,-107 "/>
<text text-anchor="middle" x="58" y="-95" font-family="Helvetica,sans-Serif" font-size="10.00"> </text>
<polyline fill="none" stroke="black" points="3.44482,-89 112.555,-89 "/>
<text text-anchor="start" x="11.4448" y="-77" font-family="Helvetica,sans-Serif" font-size="10.00">+ Time()</text>
<text text-anchor="start" x="11.4448" y="-67" font-family="Helvetica,sans-Serif" font-size="10.00">+ Time()</text>
<text text-anchor="start" x="11.4448" y="-57" font-family="Helvetica,sans-Serif" font-size="10.00">+ get_day()</text>
<text text-anchor="start" x="11.4448" y="-47" font-family="Helvetica,sans-Serif" font-size="10.00">+ get_month()</text>
<text text-anchor="start" x="11.4448" y="-37" font-family="Helvetica,sans-Serif" font-size="10.00">+ get_month_name()</text>
<text text-anchor="start" x="11.4448" y="-27" font-family="Helvetica,sans-Serif" font-size="10.00">+ get_time_of_day()</text>
<text text-anchor="start" x="11.4448" y="-17" font-family="Helvetica,sans-Serif" font-size="10.00">and 16 more...</text>
<text text-anchor="start" x="11.4448" y="-7" font-family="Helvetica,sans-Serif" font-size="10.00">+ set_time_of_day()</text>
</g>
<!-- Node2 -->
<g id="node2" class="node"><title>Node2</title>
<g id="a_node2"><a xlink:href="classapi_1_1_chrono_info_object.html" target="_top" xlink:title="Chrono Information Object. ">
<polygon fill="none" stroke="black" points="-0.15625,-163 -0.15625,-267 116.156,-267 116.156,-163 -0.15625,-163"/>
<text text-anchor="middle" x="58" y="-255" font-family="Helvetica,sans-Serif" font-size="10.00">api::ChronoInfoObject</text>
<polyline fill="none" stroke="black" points="-0.15625,-249 116.156,-249 "/>
<text text-anchor="middle" x="58" y="-237" font-family="Helvetica,sans-Serif" font-size="10.00"> </text>
<polyline fill="none" stroke="black" points="-0.15625,-231 116.156,-231 "/>
<text text-anchor="start" x="7.84375" y="-219" font-family="Helvetica,sans-Serif" font-size="10.00">+ wait()</text>
<text text-anchor="start" x="7.84375" y="-209" font-family="Helvetica,sans-Serif" font-size="10.00">+ wait()</text>
<text text-anchor="start" x="7.84375" y="-199" font-family="Helvetica,sans-Serif" font-size="10.00">+ wait()</text>
<text text-anchor="start" x="7.84375" y="-189" font-family="Helvetica,sans-Serif" font-size="10.00">+ wait_microseconds()</text>
<text text-anchor="start" x="7.84375" y="-179" font-family="Helvetica,sans-Serif" font-size="10.00">+ wait_milliseconds()</text>
<text text-anchor="start" x="7.84375" y="-169" font-family="Helvetica,sans-Serif" font-size="10.00">+ wait_seconds()</text>
</a>
</g>
</g>
<!-- Node2&#45;&gt;Node1 -->
<g id="edge1" class="edge"><title>Node2&#45;&gt;Node1</title>
<path fill="none" stroke="midnightblue" d="M58,-152.664C58,-143.557 58,-134.172 58,-125.071"/>
<polygon fill="none" stroke="midnightblue" points="54.5001,-152.798 58,-162.798 61.5001,-152.798 54.5001,-152.798"/>
</g>
<!-- Node3 -->
<g id="node3" class="node"><title>Node3</title>
<g id="a_node3"><a xlink:href="classapi_1_1_info_object.html" target="_top" xlink:title="Information Object. ">
<polygon fill="none" stroke="black" points="17.7588,-305 17.7588,-359 98.2412,-359 98.2412,-305 17.7588,-305"/>
<text text-anchor="middle" x="58" y="-347" font-family="Helvetica,sans-Serif" font-size="10.00">api::InfoObject</text>
<polyline fill="none" stroke="black" points="17.7588,-341 98.2412,-341 "/>
<text text-anchor="middle" x="58" y="-329" font-family="Helvetica,sans-Serif" font-size="10.00"> </text>
<polyline fill="none" stroke="black" points="17.7588,-323 98.2412,-323 "/>
<text text-anchor="middle" x="58" y="-311" font-family="Helvetica,sans-Serif" font-size="10.00"> </text>
</a>
</g>
</g>
<!-- Node3&#45;&gt;Node2 -->
<g id="edge2" class="edge"><title>Node3&#45;&gt;Node2</title>
<path fill="none" stroke="midnightblue" d="M58,-294.747C58,-286.06 58,-276.621 58,-267.393"/>
<polygon fill="none" stroke="midnightblue" points="54.5001,-294.905 58,-304.905 61.5001,-294.905 54.5001,-294.905"/>
</g>
<!-- Node4 -->
<g id="node4" class="node"><title>Node4</title>
<g id="a_node4"><a xlink:href="classapi_1_1_api_object.html" target="_top" xlink:title="Application Programming Interface Object. ">
<polygon fill="none" stroke="black" points="16.7896,-397 16.7896,-451 99.2104,-451 99.2104,-397 16.7896,-397"/>
<text text-anchor="middle" x="58" y="-439" font-family="Helvetica,sans-Serif" font-size="10.00">api::ApiObject</text>
<polyline fill="none" stroke="black" points="16.7896,-433 99.2104,-433 "/>
<text text-anchor="middle" x="58" y="-421" font-family="Helvetica,sans-Serif" font-size="10.00"> </text>
<polyline fill="none" stroke="black" points="16.7896,-415 99.2104,-415 "/>
<text text-anchor="start" x="24.7896" y="-403" font-family="Helvetica,sans-Serif" font-size="10.00">+ api_version()</text>
</a>
</g>
</g>
<!-- Node4&#45;&gt;Node3 -->
<g id="edge3" class="edge"><title>Node4&#45;&gt;Node3</title>
<path fill="none" stroke="midnightblue" d="M58,-386.865C58,-377.644 58,-367.907 58,-359.285"/>
<polygon fill="none" stroke="midnightblue" points="54.5001,-386.968 58,-396.968 61.5001,-386.968 54.5001,-386.968"/>
</g>
</g>
</svg>
