<?xml version="1.0" encoding="UTF-8" standalone="no"?>
<!DOCTYPE svg PUBLIC "-//W3C//DTD SVG 1.1//EN"
 "http://www.w3.org/Graphics/SVG/1.1/DTD/svg11.dtd">
<!-- Generated by graphviz version 2.36.0 (20140111.2315)
 -->
<!-- Title: sys::SignalHandler Pages: 1 -->
<svg width="106pt" height="360pt"
 viewBox="0.00 0.00 106.00 360.00" xmlns="http://www.w3.org/2000/svg" xmlns:xlink="http://www.w3.org/1999/xlink">
<g id="graph0" class="graph" transform="scale(1 1) rotate(0) translate(4 356)">
<title>sys::SignalHandler</title>
<!-- Node1 -->
<g id="node1" class="node"><title>Node1</title>
<polygon fill="#bfbfbf" stroke="black" points="-0.687012,-1 -0.687012,-75 98.687,-75 98.687,-1 -0.687012,-1"/>
<text text-anchor="middle" x="49" y="-63" font-family="Helvetica,sans-Serif" font-size="10.00">sys::SignalHandler</text>
<polyline fill="none" stroke="black" points="-0.687012,-57 98.687,-57 "/>
<text text-anchor="middle" x="49" y="-45" font-family="Helvetica,sans-Serif" font-size="10.00"> </text>
<polyline fill="none" stroke="black" points="-0.687012,-39 98.687,-39 "/>
<text text-anchor="start" x="7.31299" y="-27" font-family="Helvetica,sans-Serif" font-size="10.00">+ SignalHandler()</text>
<text text-anchor="start" x="7.31299" y="-17" font-family="Helvetica,sans-Serif" font-size="10.00">+ SignalHandler()</text>
<text text-anchor="start" x="7.31299" y="-7" font-family="Helvetica,sans-Serif" font-size="10.00">+ sigaction()</text>
</g>
<!-- Node2 -->
<g id="node2" class="node"><title>Node2</title>
<g id="a_node2"><a xlink:href="classapi_1_1_sys_info_object.html" target="_top" xlink:title="System Info Object. ">
<polygon fill="none" stroke="black" points="0.423828,-113 0.423828,-167 97.5762,-167 97.5762,-113 0.423828,-113"/>
<text text-anchor="middle" x="49" y="-155" font-family="Helvetica,sans-Serif" font-size="10.00">api::SysInfoObject</text>
<polyline fill="none" stroke="black" points="0.423828,-149 97.5762,-149 "/>
<text text-anchor="middle" x="49" y="-137" font-family="Helvetica,sans-Serif" font-size="10.00"> </text>
<polyline fill="none" stroke="black" points="0.423828,-131 97.5762,-131 "/>
<text text-anchor="middle" x="49" y="-119" font-family="Helvetica,sans-Serif" font-size="10.00"> </text>
</a>
</g>
</g>
<!-- Node2&#45;&gt;Node1 -->
<g id="edge1" class="edge"><title>Node2&#45;&gt;Node1</title>
<path fill="none" stroke="midnightblue" d="M49,-102.767C49,-93.7395 49,-84.063 49,-75.0449"/>
<polygon fill="none" stroke="midnightblue" points="45.5001,-102.987 49,-112.987 52.5001,-102.987 45.5001,-102.987"/>
</g>
<!-- Node3 -->
<g id="node3" class="node"><title>Node3</title>
<g id="a_node3"><a xlink:href="classapi_1_1_info_object.html" target="_top" xlink:title="API Information Object. ">
<polygon fill="none" stroke="black" points="8.75879,-205 8.75879,-259 89.2412,-259 89.2412,-205 8.75879,-205"/>
<text text-anchor="middle" x="49" y="-247" font-family="Helvetica,sans-Serif" font-size="10.00">api::InfoObject</text>
<polyline fill="none" stroke="black" points="8.75879,-241 89.2412,-241 "/>
<text text-anchor="middle" x="49" y="-229" font-family="Helvetica,sans-Serif" font-size="10.00"> </text>
<polyline fill="none" stroke="black" points="8.75879,-223 89.2412,-223 "/>
<text text-anchor="middle" x="49" y="-211" font-family="Helvetica,sans-Serif" font-size="10.00"> </text>
</a>
</g>
</g>
<!-- Node3&#45;&gt;Node2 -->
<g id="edge2" class="edge"><title>Node3&#45;&gt;Node2</title>
<path fill="none" stroke="midnightblue" d="M49,-194.865C49,-185.644 49,-175.907 49,-167.285"/>
<polygon fill="none" stroke="midnightblue" points="45.5001,-194.968 49,-204.968 52.5001,-194.968 45.5001,-194.968"/>
</g>
<!-- Node4 -->
<g id="node4" class="node"><title>Node4</title>
<g id="a_node4"><a xlink:href="classapi_1_1_api_object.html" target="_top" xlink:title="API Object Class. ">
<polygon fill="none" stroke="black" points="7.78955,-297 7.78955,-351 90.2104,-351 90.2104,-297 7.78955,-297"/>
<text text-anchor="middle" x="49" y="-339" font-family="Helvetica,sans-Serif" font-size="10.00">api::ApiObject</text>
<polyline fill="none" stroke="black" points="7.78955,-333 90.2104,-333 "/>
<text text-anchor="middle" x="49" y="-321" font-family="Helvetica,sans-Serif" font-size="10.00"> </text>
<polyline fill="none" stroke="black" points="7.78955,-315 90.2104,-315 "/>
<text text-anchor="start" x="15.7896" y="-303" font-family="Helvetica,sans-Serif" font-size="10.00">+ api_version()</text>
</a>
</g>
</g>
<!-- Node4&#45;&gt;Node3 -->
<g id="edge3" class="edge"><title>Node4&#45;&gt;Node3</title>
<path fill="none" stroke="midnightblue" d="M49,-286.865C49,-277.644 49,-267.907 49,-259.285"/>
<polygon fill="none" stroke="midnightblue" points="45.5001,-286.968 49,-296.968 52.5001,-286.968 45.5001,-286.968"/>
</g>
</g>
</svg>
