<?xml version="1.0" encoding="UTF-8" standalone="no"?>
<!DOCTYPE svg PUBLIC "-//W3C//DTD SVG 1.1//EN"
 "http://www.w3.org/Graphics/SVG/1.1/DTD/svg11.dtd">
<!-- Generated by graphviz version 2.36.0 (20140111.2315)
 -->
<!-- Title: draw::AnimationAttr Pages: 1 -->
<svg width="134pt" height="532pt"
 viewBox="0.00 0.00 134.00 532.00" xmlns="http://www.w3.org/2000/svg" xmlns:xlink="http://www.w3.org/1999/xlink">
<g id="graph0" class="graph" transform="scale(1 1) rotate(0) translate(4 528)">
<title>draw::AnimationAttr</title>
<!-- Node1 -->
<g id="node1" class="node"><title>Node1</title>
<polygon fill="#bfbfbf" stroke="black" points="-0.168457,-133 -0.168457,-247 126.168,-247 126.168,-133 -0.168457,-133"/>
<text text-anchor="middle" x="63" y="-235" font-family="Helvetica,sans-Serif" font-size="10.00">draw::AnimationAttr</text>
<polyline fill="none" stroke="black" points="-0.168457,-229 126.168,-229 "/>
<text text-anchor="middle" x="63" y="-217" font-family="Helvetica,sans-Serif" font-size="10.00"> </text>
<polyline fill="none" stroke="black" points="-0.168457,-211 126.168,-211 "/>
<text text-anchor="start" x="7.83154" y="-199" font-family="Helvetica,sans-Serif" font-size="10.00">+ AnimationAttr()</text>
<text text-anchor="start" x="7.83154" y="-189" font-family="Helvetica,sans-Serif" font-size="10.00">+ assign()</text>
<text text-anchor="start" x="7.83154" y="-179" font-family="Helvetica,sans-Serif" font-size="10.00">+ attr()</text>
<text text-anchor="start" x="7.83154" y="-169" font-family="Helvetica,sans-Serif" font-size="10.00">+ data()</text>
<text text-anchor="start" x="7.83154" y="-159" font-family="Helvetica,sans-Serif" font-size="10.00">+ dim()</text>
<text text-anchor="start" x="7.83154" y="-149" font-family="Helvetica,sans-Serif" font-size="10.00">+ drawing_motion_total()</text>
<text text-anchor="start" x="7.83154" y="-139" font-family="Helvetica,sans-Serif" font-size="10.00">and 12 more...</text>
</g>
<!-- Node5 -->
<g id="node5" class="node"><title>Node5</title>
<g id="a_node5"><a xlink:href="classdraw_1_1_animation.html" target="_top" xlink:title="Animation Class. ">
<polygon fill="none" stroke="black" points="19.1504,-1 19.1504,-95 106.85,-95 106.85,-1 19.1504,-1"/>
<text text-anchor="middle" x="63" y="-83" font-family="Helvetica,sans-Serif" font-size="10.00">draw::Animation</text>
<polyline fill="none" stroke="black" points="19.1504,-77 106.85,-77 "/>
<text text-anchor="middle" x="63" y="-65" font-family="Helvetica,sans-Serif" font-size="10.00"> </text>
<polyline fill="none" stroke="black" points="19.1504,-59 106.85,-59 "/>
<text text-anchor="start" x="27.1504" y="-47" font-family="Helvetica,sans-Serif" font-size="10.00">+ Animation()</text>
<text text-anchor="start" x="27.1504" y="-37" font-family="Helvetica,sans-Serif" font-size="10.00">+ Animation()</text>
<text text-anchor="start" x="27.1504" y="-27" font-family="Helvetica,sans-Serif" font-size="10.00">+ exec()</text>
<text text-anchor="start" x="27.1504" y="-17" font-family="Helvetica,sans-Serif" font-size="10.00">+ init()</text>
<text text-anchor="start" x="27.1504" y="-7" font-family="Helvetica,sans-Serif" font-size="10.00">+ reinit()</text>
</a>
</g>
</g>
<!-- Node1&#45;&gt;Node5 -->
<g id="edge4" class="edge"><title>Node1&#45;&gt;Node5</title>
<path fill="none" stroke="midnightblue" d="M63,-122.823C63,-113.509 63,-104.105 63,-95.2717"/>
<polygon fill="none" stroke="midnightblue" points="59.5001,-122.863 63,-132.863 66.5001,-122.863 59.5001,-122.863"/>
</g>
<!-- Node2 -->
<g id="node2" class="node"><title>Node2</title>
<g id="a_node2"><a xlink:href="classapi_1_1_draw_info_object.html" target="_top" xlink:title="Draw Information Object. ">
<polygon fill="none" stroke="black" points="11.0913,-285 11.0913,-339 114.909,-339 114.909,-285 11.0913,-285"/>
<text text-anchor="middle" x="63" y="-327" font-family="Helvetica,sans-Serif" font-size="10.00">api::DrawInfoObject</text>
<polyline fill="none" stroke="black" points="11.0913,-321 114.909,-321 "/>
<text text-anchor="middle" x="63" y="-309" font-family="Helvetica,sans-Serif" font-size="10.00"> </text>
<polyline fill="none" stroke="black" points="11.0913,-303 114.909,-303 "/>
<text text-anchor="middle" x="63" y="-291" font-family="Helvetica,sans-Serif" font-size="10.00"> </text>
</a>
</g>
</g>
<!-- Node2&#45;&gt;Node1 -->
<g id="edge1" class="edge"><title>Node2&#45;&gt;Node1</title>
<path fill="none" stroke="midnightblue" d="M63,-274.754C63,-266.008 63,-256.458 63,-247.039"/>
<polygon fill="none" stroke="midnightblue" points="59.5001,-274.962 63,-284.962 66.5001,-274.962 59.5001,-274.962"/>
</g>
<!-- Node3 -->
<g id="node3" class="node"><title>Node3</title>
<g id="a_node3"><a xlink:href="classapi_1_1_info_object.html" target="_top" xlink:title="API Information Object. ">
<polygon fill="none" stroke="black" points="22.7588,-377 22.7588,-431 103.241,-431 103.241,-377 22.7588,-377"/>
<text text-anchor="middle" x="63" y="-419" font-family="Helvetica,sans-Serif" font-size="10.00">api::InfoObject</text>
<polyline fill="none" stroke="black" points="22.7588,-413 103.241,-413 "/>
<text text-anchor="middle" x="63" y="-401" font-family="Helvetica,sans-Serif" font-size="10.00"> </text>
<polyline fill="none" stroke="black" points="22.7588,-395 103.241,-395 "/>
<text text-anchor="middle" x="63" y="-383" font-family="Helvetica,sans-Serif" font-size="10.00"> </text>
</a>
</g>
</g>
<!-- Node3&#45;&gt;Node2 -->
<g id="edge2" class="edge"><title>Node3&#45;&gt;Node2</title>
<path fill="none" stroke="midnightblue" d="M63,-366.865C63,-357.644 63,-347.907 63,-339.285"/>
<polygon fill="none" stroke="midnightblue" points="59.5001,-366.968 63,-376.968 66.5001,-366.968 59.5001,-366.968"/>
</g>
<!-- Node4 -->
<g id="node4" class="node"><title>Node4</title>
<g id="a_node4"><a xlink:href="classapi_1_1_api_object.html" target="_top" xlink:title="API Object Class. ">
<polygon fill="none" stroke="black" points="21.7896,-469 21.7896,-523 104.21,-523 104.21,-469 21.7896,-469"/>
<text text-anchor="middle" x="63" y="-511" font-family="Helvetica,sans-Serif" font-size="10.00">api::ApiObject</text>
<polyline fill="none" stroke="black" points="21.7896,-505 104.21,-505 "/>
<text text-anchor="middle" x="63" y="-493" font-family="Helvetica,sans-Serif" font-size="10.00"> </text>
<polyline fill="none" stroke="black" points="21.7896,-487 104.21,-487 "/>
<text text-anchor="start" x="29.7896" y="-475" font-family="Helvetica,sans-Serif" font-size="10.00">+ api_version()</text>
</a>
</g>
</g>
<!-- Node4&#45;&gt;Node3 -->
<g id="edge3" class="edge"><title>Node4&#45;&gt;Node3</title>
<path fill="none" stroke="midnightblue" d="M63,-458.865C63,-449.644 63,-439.907 63,-431.285"/>
<polygon fill="none" stroke="midnightblue" points="59.5001,-458.968 63,-468.968 66.5001,-458.968 59.5001,-458.968"/>
</g>
</g>
</svg>
