<?xml version="1.0" encoding="UTF-8" standalone="no"?>
<!DOCTYPE svg PUBLIC "-//W3C//DTD SVG 1.1//EN"
 "http://www.w3.org/Graphics/SVG/1.1/DTD/svg11.dtd">
<!-- Generated by graphviz version 2.36.0 (20140111.2315)
 -->
<!-- Title: draw::PanelAttr Pages: 1 -->
<svg width="110pt" height="472pt"
 viewBox="0.00 0.00 110.00 472.00" xmlns="http://www.w3.org/2000/svg" xmlns:xlink="http://www.w3.org/1999/xlink">
<g id="graph0" class="graph" transform="scale(1 1) rotate(0) translate(4 468)">
<title>draw::PanelAttr</title>
<!-- Node1 -->
<g id="node1" class="node"><title>Node1</title>
<polygon fill="#bfbfbf" stroke="black" points="8.81787,-103 8.81787,-187 93.1821,-187 93.1821,-103 8.81787,-103"/>
<text text-anchor="middle" x="51" y="-175" font-family="Helvetica,sans-Serif" font-size="10.00">draw::PanelAttr</text>
<polyline fill="none" stroke="black" points="8.81787,-169 93.1821,-169 "/>
<text text-anchor="start" x="16.8179" y="-157" font-family="Helvetica,sans-Serif" font-size="10.00"># m_pen</text>
<text text-anchor="start" x="16.8179" y="-147" font-family="Helvetica,sans-Serif" font-size="10.00"># m_radius</text>
<polyline fill="none" stroke="black" points="8.81787,-141 93.1821,-141 "/>
<text text-anchor="start" x="16.8179" y="-129" font-family="Helvetica,sans-Serif" font-size="10.00">+ pen()</text>
<text text-anchor="start" x="16.8179" y="-119" font-family="Helvetica,sans-Serif" font-size="10.00">+ radius()</text>
<text text-anchor="start" x="16.8179" y="-109" font-family="Helvetica,sans-Serif" font-size="10.00">+ set_radius()</text>
</g>
<!-- Node5 -->
<g id="node5" class="node"><title>Node5</title>
<g id="a_node5"><a xlink:href="classdraw_1_1_panel.html" target="_top" xlink:title="Panel Class. ">
<polygon fill="none" stroke="black" points="3.11963,-1 3.11963,-65 98.8804,-65 98.8804,-1 3.11963,-1"/>
<text text-anchor="middle" x="51" y="-53" font-family="Helvetica,sans-Serif" font-size="10.00">draw::Panel</text>
<polyline fill="none" stroke="black" points="3.11963,-47 98.8804,-47 "/>
<text text-anchor="middle" x="51" y="-35" font-family="Helvetica,sans-Serif" font-size="10.00"> </text>
<polyline fill="none" stroke="black" points="3.11963,-29 98.8804,-29 "/>
<text text-anchor="start" x="11.1196" y="-17" font-family="Helvetica,sans-Serif" font-size="10.00">+ Panel()</text>
<text text-anchor="start" x="11.1196" y="-7" font-family="Helvetica,sans-Serif" font-size="10.00">+ draw_to_scale()</text>
</a>
</g>
</g>
<!-- Node1&#45;&gt;Node5 -->
<g id="edge4" class="edge"><title>Node1&#45;&gt;Node5</title>
<path fill="none" stroke="midnightblue" d="M51,-92.657C51,-83.2774 51,-73.7553 51,-65.1883"/>
<polygon fill="none" stroke="midnightblue" points="47.5001,-92.7271 51,-102.727 54.5001,-92.7271 47.5001,-92.7271"/>
</g>
<!-- Node2 -->
<g id="node2" class="node"><title>Node2</title>
<g id="a_node2"><a xlink:href="classapi_1_1_draw_info_object.html" target="_top" xlink:title="Draw Information Object. ">
<polygon fill="none" stroke="black" points="-0.908691,-225 -0.908691,-279 102.909,-279 102.909,-225 -0.908691,-225"/>
<text text-anchor="middle" x="51" y="-267" font-family="Helvetica,sans-Serif" font-size="10.00">api::DrawInfoObject</text>
<polyline fill="none" stroke="black" points="-0.908691,-261 102.909,-261 "/>
<text text-anchor="middle" x="51" y="-249" font-family="Helvetica,sans-Serif" font-size="10.00"> </text>
<polyline fill="none" stroke="black" points="-0.908691,-243 102.909,-243 "/>
<text text-anchor="middle" x="51" y="-231" font-family="Helvetica,sans-Serif" font-size="10.00"> </text>
</a>
</g>
</g>
<!-- Node2&#45;&gt;Node1 -->
<g id="edge1" class="edge"><title>Node2&#45;&gt;Node1</title>
<path fill="none" stroke="midnightblue" d="M51,-214.503C51,-205.755 51,-196.351 51,-187.399"/>
<polygon fill="none" stroke="midnightblue" points="47.5001,-214.775 51,-224.775 54.5001,-214.775 47.5001,-214.775"/>
</g>
<!-- Node3 -->
<g id="node3" class="node"><title>Node3</title>
<g id="a_node3"><a xlink:href="classapi_1_1_info_object.html" target="_top" xlink:title="API Information Object. ">
<polygon fill="none" stroke="black" points="10.7588,-317 10.7588,-371 91.2412,-371 91.2412,-317 10.7588,-317"/>
<text text-anchor="middle" x="51" y="-359" font-family="Helvetica,sans-Serif" font-size="10.00">api::InfoObject</text>
<polyline fill="none" stroke="black" points="10.7588,-353 91.2412,-353 "/>
<text text-anchor="middle" x="51" y="-341" font-family="Helvetica,sans-Serif" font-size="10.00"> </text>
<polyline fill="none" stroke="black" points="10.7588,-335 91.2412,-335 "/>
<text text-anchor="middle" x="51" y="-323" font-family="Helvetica,sans-Serif" font-size="10.00"> </text>
</a>
</g>
</g>
<!-- Node3&#45;&gt;Node2 -->
<g id="edge2" class="edge"><title>Node3&#45;&gt;Node2</title>
<path fill="none" stroke="midnightblue" d="M51,-306.865C51,-297.644 51,-287.907 51,-279.285"/>
<polygon fill="none" stroke="midnightblue" points="47.5001,-306.968 51,-316.968 54.5001,-306.968 47.5001,-306.968"/>
</g>
<!-- Node4 -->
<g id="node4" class="node"><title>Node4</title>
<g id="a_node4"><a xlink:href="classapi_1_1_api_object.html" target="_top" xlink:title="API Object Class. ">
<polygon fill="none" stroke="black" points="9.78955,-409 9.78955,-463 92.2104,-463 92.2104,-409 9.78955,-409"/>
<text text-anchor="middle" x="51" y="-451" font-family="Helvetica,sans-Serif" font-size="10.00">api::ApiObject</text>
<polyline fill="none" stroke="black" points="9.78955,-445 92.2104,-445 "/>
<text text-anchor="middle" x="51" y="-433" font-family="Helvetica,sans-Serif" font-size="10.00"> </text>
<polyline fill="none" stroke="black" points="9.78955,-427 92.2104,-427 "/>
<text text-anchor="start" x="17.7896" y="-415" font-family="Helvetica,sans-Serif" font-size="10.00">+ api_version()</text>
</a>
</g>
</g>
<!-- Node4&#45;&gt;Node3 -->
<g id="edge3" class="edge"><title>Node4&#45;&gt;Node3</title>
<path fill="none" stroke="midnightblue" d="M51,-398.865C51,-389.644 51,-379.907 51,-371.285"/>
<polygon fill="none" stroke="midnightblue" points="47.5001,-398.968 51,-408.968 54.5001,-398.968 47.5001,-398.968"/>
</g>
</g>
</svg>
