<?xml version="1.0" encoding="UTF-8" standalone="no"?>
<!DOCTYPE svg PUBLIC "-//W3C//DTD SVG 1.1//EN"
 "http://www.w3.org/Graphics/SVG/1.1/DTD/svg11.dtd">
<!-- Generated by graphviz version 2.36.0 (20140111.2315)
 -->
<!-- Title: ui::MenuList Pages: 1 -->
<svg width="256pt" height="932pt"
 viewBox="0.00 0.00 256.00 932.00" xmlns="http://www.w3.org/2000/svg" xmlns:xlink="http://www.w3.org/1999/xlink">
<g id="graph0" class="graph" transform="scale(1 1) rotate(0) translate(4 928)">
<title>ui::MenuList</title>
<!-- Node1 -->
<g id="node1" class="node"><title>Node1</title>
<polygon fill="#bfbfbf" stroke="black" points="93.0728,-1 93.0728,-85 164.927,-85 164.927,-1 93.0728,-1"/>
<text text-anchor="middle" x="129" y="-73" font-family="Helvetica,sans-Serif" font-size="10.00">ui::MenuList</text>
<polyline fill="none" stroke="black" points="93.0728,-67 164.927,-67 "/>
<text text-anchor="middle" x="129" y="-55" font-family="Helvetica,sans-Serif" font-size="10.00"> </text>
<polyline fill="none" stroke="black" points="93.0728,-49 164.927,-49 "/>
<text text-anchor="start" x="101.073" y="-37" font-family="Helvetica,sans-Serif" font-size="10.00">+ MenuList()</text>
<text text-anchor="start" x="101.073" y="-27" font-family="Helvetica,sans-Serif" font-size="10.00">+ at()</text>
<text text-anchor="start" x="101.073" y="-17" font-family="Helvetica,sans-Serif" font-size="10.00">+ back()</text>
<text text-anchor="start" x="101.073" y="-7" font-family="Helvetica,sans-Serif" font-size="10.00">+ size()</text>
</g>
<!-- Node2 -->
<g id="node2" class="node"><title>Node2</title>
<g id="a_node2"><a xlink:href="classui_1_1_list.html" target="_top" xlink:title="List Class. ">
<polygon fill="none" stroke="black" points="50.3872,-123 50.3872,-337 207.613,-337 207.613,-123 50.3872,-123"/>
<text text-anchor="middle" x="129" y="-325" font-family="Helvetica,sans-Serif" font-size="10.00">ui::List</text>
<polyline fill="none" stroke="black" points="50.3872,-319 207.613,-319 "/>
<text text-anchor="start" x="58.3872" y="-307" font-family="Helvetica,sans-Serif" font-size="10.00"># m_draw_animation_item</text>
<text text-anchor="start" x="58.3872" y="-297" font-family="Helvetica,sans-Serif" font-size="10.00"># m_draw_animation_offset</text>
<text text-anchor="start" x="58.3872" y="-287" font-family="Helvetica,sans-Serif" font-size="10.00"># m_scroll_animation</text>
<text text-anchor="start" x="58.3872" y="-277" font-family="Helvetica,sans-Serif" font-size="10.00"># m_scroll_timer</text>
<text text-anchor="start" x="58.3872" y="-267" font-family="Helvetica,sans-Serif" font-size="10.00"># m_select_top_bottom</text>
<polyline fill="none" stroke="black" points="50.3872,-261 207.613,-261 "/>
<text text-anchor="start" x="58.3872" y="-249" font-family="Helvetica,sans-Serif" font-size="10.00">+ List()</text>
<text text-anchor="start" x="58.3872" y="-239" font-family="Helvetica,sans-Serif" font-size="10.00">+ at()</text>
<text text-anchor="start" x="58.3872" y="-229" font-family="Helvetica,sans-Serif" font-size="10.00">+ current()</text>
<text text-anchor="start" x="58.3872" y="-219" font-family="Helvetica,sans-Serif" font-size="10.00">+ draw_item_to_scale()</text>
<text text-anchor="start" x="58.3872" y="-209" font-family="Helvetica,sans-Serif" font-size="10.00">+ draw_to_scale()</text>
<text text-anchor="start" x="58.3872" y="-199" font-family="Helvetica,sans-Serif" font-size="10.00">+ handle_event()</text>
<text text-anchor="start" x="58.3872" y="-189" font-family="Helvetica,sans-Serif" font-size="10.00"># animate_scroll()</text>
<text text-anchor="start" x="58.3872" y="-179" font-family="Helvetica,sans-Serif" font-size="10.00"># handle_down_button</text>
<text text-anchor="start" x="58.3872" y="-169" font-family="Helvetica,sans-Serif" font-size="10.00">_actuation()</text>
<text text-anchor="start" x="58.3872" y="-159" font-family="Helvetica,sans-Serif" font-size="10.00"># handle_select_button</text>
<text text-anchor="start" x="58.3872" y="-149" font-family="Helvetica,sans-Serif" font-size="10.00">_actuation()</text>
<text text-anchor="start" x="58.3872" y="-139" font-family="Helvetica,sans-Serif" font-size="10.00"># handle_up_button_actuation()</text>
<text text-anchor="start" x="58.3872" y="-129" font-family="Helvetica,sans-Serif" font-size="10.00"># init()</text>
</a>
</g>
</g>
<!-- Node2&#45;&gt;Node1 -->
<g id="edge1" class="edge"><title>Node2&#45;&gt;Node1</title>
<path fill="none" stroke="midnightblue" d="M129,-112.725C129,-102.983 129,-93.6192 129,-85.1059"/>
<polygon fill="none" stroke="midnightblue" points="125.5,-112.993 129,-122.993 132.5,-112.993 125.5,-112.993"/>
</g>
<!-- Node3 -->
<g id="node3" class="node"><title>Node3</title>
<g id="a_node3"><a xlink:href="classui_1_1_linked_element.html" target="_top" xlink:title="Linked Element. ">
<polygon fill="none" stroke="black" points="18.2847,-375 18.2847,-489 115.715,-489 115.715,-375 18.2847,-375"/>
<text text-anchor="middle" x="67" y="-477" font-family="Helvetica,sans-Serif" font-size="10.00">ui::LinkedElement</text>
<polyline fill="none" stroke="black" points="18.2847,-471 115.715,-471 "/>
<text text-anchor="middle" x="67" y="-459" font-family="Helvetica,sans-Serif" font-size="10.00"> </text>
<polyline fill="none" stroke="black" points="18.2847,-453 115.715,-453 "/>
<text text-anchor="start" x="26.2847" y="-441" font-family="Helvetica,sans-Serif" font-size="10.00">+ LinkedElement()</text>
<text text-anchor="start" x="26.2847" y="-431" font-family="Helvetica,sans-Serif" font-size="10.00">+ LinkedElement()</text>
<text text-anchor="start" x="26.2847" y="-421" font-family="Helvetica,sans-Serif" font-size="10.00">+ child()</text>
<text text-anchor="start" x="26.2847" y="-411" font-family="Helvetica,sans-Serif" font-size="10.00">+ handle_event()</text>
<text text-anchor="start" x="26.2847" y="-401" font-family="Helvetica,sans-Serif" font-size="10.00">+ parent()</text>
<text text-anchor="start" x="26.2847" y="-391" font-family="Helvetica,sans-Serif" font-size="10.00">+ set_child()</text>
<text text-anchor="start" x="26.2847" y="-381" font-family="Helvetica,sans-Serif" font-size="10.00">+ set_parent()</text>
</a>
</g>
</g>
<!-- Node3&#45;&gt;Node2 -->
<g id="edge2" class="edge"><title>Node3&#45;&gt;Node2</title>
<path fill="none" stroke="midnightblue" d="M87.4079,-365.168C90.1989,-356.165 93.1202,-346.741 96.0648,-337.243"/>
<polygon fill="none" stroke="midnightblue" points="84.0535,-364.169 84.4354,-374.757 90.7396,-366.241 84.0535,-364.169"/>
</g>
<!-- Node4 -->
<g id="node4" class="node"><title>Node4</title>
<g id="a_node4"><a xlink:href="classui_1_1_element.html" target="_top" xlink:title="Element Class. ">
<polygon fill="none" stroke="black" points="-0.614258,-527 -0.614258,-661 134.614,-661 134.614,-527 -0.614258,-527"/>
<text text-anchor="middle" x="67" y="-649" font-family="Helvetica,sans-Serif" font-size="10.00">ui::Element</text>
<polyline fill="none" stroke="black" points="-0.614258,-643 134.614,-643 "/>
<text text-anchor="start" x="7.38574" y="-631" font-family="Helvetica,sans-Serif" font-size="10.00"># m_animation_attr</text>
<polyline fill="none" stroke="black" points="-0.614258,-625 134.614,-625 "/>
<text text-anchor="start" x="7.38574" y="-613" font-family="Helvetica,sans-Serif" font-size="10.00">+ Element()</text>
<text text-anchor="start" x="7.38574" y="-603" font-family="Helvetica,sans-Serif" font-size="10.00">+ animation_attr()</text>
<text text-anchor="start" x="7.38574" y="-593" font-family="Helvetica,sans-Serif" font-size="10.00">+ animation_frame_delay()</text>
<text text-anchor="start" x="7.38574" y="-583" font-family="Helvetica,sans-Serif" font-size="10.00">+ animation_path()</text>
<text text-anchor="start" x="7.38574" y="-573" font-family="Helvetica,sans-Serif" font-size="10.00">+ animation_type()</text>
<text text-anchor="start" x="7.38574" y="-563" font-family="Helvetica,sans-Serif" font-size="10.00">+ handle_event()</text>
<text text-anchor="start" x="7.38574" y="-553" font-family="Helvetica,sans-Serif" font-size="10.00">and 21 more...</text>
<text text-anchor="start" x="7.38574" y="-543" font-family="Helvetica,sans-Serif" font-size="10.00"># adjust_x_center()</text>
<text text-anchor="start" x="7.38574" y="-533" font-family="Helvetica,sans-Serif" font-size="10.00"># draw_scroll()</text>
</a>
</g>
</g>
<!-- Node4&#45;&gt;Node3 -->
<g id="edge3" class="edge"><title>Node4&#45;&gt;Node3</title>
<path fill="none" stroke="midnightblue" d="M67,-516.907C67,-507.558 67,-498.139 67,-489.16"/>
<polygon fill="none" stroke="midnightblue" points="63.5001,-516.998 67,-526.998 70.5001,-516.998 63.5001,-516.998"/>
</g>
<!-- Node5 -->
<g id="node5" class="node"><title>Node5</title>
<g id="a_node5"><a xlink:href="classdraw_1_1_drawing.html" target="_top" xlink:title="Drawing Class. ">
<polygon fill="none" stroke="black" points="7.44727,-699 7.44727,-923 126.553,-923 126.553,-699 7.44727,-699"/>
<text text-anchor="middle" x="67" y="-911" font-family="Helvetica,sans-Serif" font-size="10.00">draw::Drawing</text>
<polyline fill="none" stroke="black" points="7.44727,-905 126.553,-905 "/>
<text text-anchor="middle" x="67" y="-893" font-family="Helvetica,sans-Serif" font-size="10.00"> </text>
<polyline fill="none" stroke="black" points="7.44727,-887 126.553,-887 "/>
<text text-anchor="start" x="15.4473" y="-875" font-family="Helvetica,sans-Serif" font-size="10.00">+ Drawing()</text>
<text text-anchor="start" x="15.4473" y="-865" font-family="Helvetica,sans-Serif" font-size="10.00">+ dark()</text>
<text text-anchor="start" x="15.4473" y="-855" font-family="Helvetica,sans-Serif" font-size="10.00">+ draw()</text>
<text text-anchor="start" x="15.4473" y="-845" font-family="Helvetica,sans-Serif" font-size="10.00">+ draw()</text>
<text text-anchor="start" x="15.4473" y="-835" font-family="Helvetica,sans-Serif" font-size="10.00">+ draw_scratch()</text>
<text text-anchor="start" x="15.4473" y="-825" font-family="Helvetica,sans-Serif" font-size="10.00">+ draw_to_scale()</text>
<text text-anchor="start" x="15.4473" y="-815" font-family="Helvetica,sans-Serif" font-size="10.00">and 18 more...</text>
<text text-anchor="start" x="15.4473" y="-805" font-family="Helvetica,sans-Serif" font-size="10.00">+ clear()</text>
<text text-anchor="start" x="15.4473" y="-795" font-family="Helvetica,sans-Serif" font-size="10.00">+ draw_checkerboard()</text>
<text text-anchor="start" x="15.4473" y="-785" font-family="Helvetica,sans-Serif" font-size="10.00">+ draw_pattern()</text>
<text text-anchor="start" x="15.4473" y="-775" font-family="Helvetica,sans-Serif" font-size="10.00">+ h()</text>
<text text-anchor="start" x="15.4473" y="-765" font-family="Helvetica,sans-Serif" font-size="10.00">+ height()</text>
<text text-anchor="start" x="15.4473" y="-755" font-family="Helvetica,sans-Serif" font-size="10.00">+ invert()</text>
<text text-anchor="start" x="15.4473" y="-745" font-family="Helvetica,sans-Serif" font-size="10.00">and 4 more...</text>
<text text-anchor="start" x="15.4473" y="-735" font-family="Helvetica,sans-Serif" font-size="10.00"># dim_on_bitmap()</text>
<text text-anchor="start" x="15.4473" y="-725" font-family="Helvetica,sans-Serif" font-size="10.00"># flag()</text>
<text text-anchor="start" x="15.4473" y="-715" font-family="Helvetica,sans-Serif" font-size="10.00"># point_on_bitmap()</text>
<text text-anchor="start" x="15.4473" y="-705" font-family="Helvetica,sans-Serif" font-size="10.00"># set_flag()</text>
</a>
</g>
</g>
<!-- Node5&#45;&gt;Node4 -->
<g id="edge4" class="edge"><title>Node5&#45;&gt;Node4</title>
<path fill="none" stroke="midnightblue" d="M67,-688.544C67,-679.204 67,-670.007 67,-661.241"/>
<polygon fill="none" stroke="midnightblue" points="63.5001,-688.721 67,-698.721 70.5001,-688.721 63.5001,-688.721"/>
</g>
<!-- Node6 -->
<g id="node6" class="node"><title>Node6</title>
<g id="a_node6"><a xlink:href="classui_1_1_list_attr.html" target="_top" xlink:title="List Attribute Class. ">
<polygon fill="none" stroke="black" points="133.398,-375 133.398,-489 248.602,-489 248.602,-375 133.398,-375"/>
<text text-anchor="middle" x="191" y="-477" font-family="Helvetica,sans-Serif" font-size="10.00">ui::ListAttr</text>
<polyline fill="none" stroke="black" points="133.398,-471 248.602,-471 "/>
<text text-anchor="middle" x="191" y="-459" font-family="Helvetica,sans-Serif" font-size="10.00"> </text>
<polyline fill="none" stroke="black" points="133.398,-453 248.602,-453 "/>
<text text-anchor="start" x="141.398" y="-441" font-family="Helvetica,sans-Serif" font-size="10.00">+ ListAttr()</text>
<text text-anchor="start" x="141.398" y="-431" font-family="Helvetica,sans-Serif" font-size="10.00">+ calc_display_items()</text>
<text text-anchor="start" x="141.398" y="-421" font-family="Helvetica,sans-Serif" font-size="10.00">+ calc_next_visible()</text>
<text text-anchor="start" x="141.398" y="-411" font-family="Helvetica,sans-Serif" font-size="10.00">+ calc_visible_offset()</text>
<text text-anchor="start" x="141.398" y="-401" font-family="Helvetica,sans-Serif" font-size="10.00">+ dec_selected()</text>
<text text-anchor="start" x="141.398" y="-391" font-family="Helvetica,sans-Serif" font-size="10.00">+ inc_selected()</text>
<text text-anchor="start" x="141.398" y="-381" font-family="Helvetica,sans-Serif" font-size="10.00">and 7 more...</text>
</a>
</g>
</g>
<!-- Node6&#45;&gt;Node2 -->
<g id="edge5" class="edge"><title>Node6&#45;&gt;Node2</title>
<path fill="none" stroke="midnightblue" d="M170.592,-365.168C167.801,-356.165 164.88,-346.741 161.935,-337.243"/>
<polygon fill="none" stroke="midnightblue" points="167.26,-366.241 173.565,-374.757 173.947,-364.169 167.26,-366.241"/>
</g>
</g>
</svg>
