<?xml version="1.0" encoding="UTF-8" standalone="no"?>
<!DOCTYPE svg PUBLIC "-//W3C//DTD SVG 1.1//EN"
 "http://www.w3.org/Graphics/SVG/1.1/DTD/svg11.dtd">
<!-- Generated by graphviz version 2.36.0 (20140111.2315)
 -->
<!-- Title: hal::DisplayPalette Pages: 1 -->
<!--zoomable 774 -->
<svg id="main" version="1.1" xmlns="http://www.w3.org/2000/svg" xmlns:xlink="http://www.w3.org/1999/xlink" xml:space="preserve" onload="init(evt)">
<style type="text/css"><![CDATA[
.edge:hover path { stroke: red; }
.edge:hover polygon { stroke: red; fill: red; }
]]></style>
<script type="text/javascript"><![CDATA[
var edges = document.getElementsByTagName('g');
if (edges && edges.length) {
  for (var i=0;i<edges.length;i++) {
    if (edges[i].id.substr(0,4)=='edge') {
      edges[i].setAttribute('class','edge');
    }
  }
}
]]></script>
        <defs>
                <circle id="rim" cx="0" cy="0" r="7"/>
                <circle id="rim2" cx="0" cy="0" r="3.5"/>
                <g id="zoomPlus">
                        <use xlink:href="#rim" fill="#404040">
                                <set attributeName="fill" to="#808080" begin="zoomplus.mouseover" end="zoomplus.mouseout"/>
                        </use>
                        <path d="M-4,0h8M0,-4v8" fill="none" stroke="white" stroke-width="1.5" pointer-events="none"/>
                </g>
                <g id="zoomMin">
                        <use xlink:href="#rim" fill="#404040">
                                <set attributeName="fill" to="#808080" begin="zoomminus.mouseover" end="zoomminus.mouseout"/>
                        </use>
                        <path d="M-4,0h8" fill="none" stroke="white" stroke-width="1.5" pointer-events="none"/>
                </g>
                <g id="dirArrow">
                        <path fill="none" stroke="white" stroke-width="1.5" d="M0,-3.0v7 M-2.5,-0.5L0,-3.0L2.5,-0.5"/>
                </g>
               <g id="resetDef">
                       <use xlink:href="#rim2" fill="#404040">
                               <set attributeName="fill" to="#808080" begin="reset.mouseover" end="reset.mouseout"/>
                       </use>
               </g>
        </defs>

<script type="text/javascript">
var viewWidth = 286;
var viewHeight = 774;
var sectionId = 'dynsection-0';
</script>
<script xlink:href="svgpan.js"/>
<svg id="graph" class="graph">
<g id="viewport">
<title>hal::DisplayPalette</title>
<!-- Node1 -->
<g id="node1" class="node"><title>Node1</title>
<polygon fill="#bfbfbf" stroke="black" points="129.589,-1 129.589,-115 228.411,-115 228.411,-1 129.589,-1"/>
<text text-anchor="middle" x="179" y="-103" font-family="Helvetica,sans-Serif" font-size="10.00">hal::DisplayPalette</text>
<polyline fill="none" stroke="black" points="129.589,-97 228.411,-97 "/>
<text text-anchor="middle" x="179" y="-85" font-family="Helvetica,sans-Serif" font-size="10.00"> </text>
<polyline fill="none" stroke="black" points="129.589,-79 228.411,-79 "/>
<text text-anchor="start" x="137.589" y="-67" font-family="Helvetica,sans-Serif" font-size="10.00">+ alloc_colors()</text>
<text text-anchor="start" x="137.589" y="-57" font-family="Helvetica,sans-Serif" font-size="10.00">+ color()</text>
<text text-anchor="start" x="137.589" y="-47" font-family="Helvetica,sans-Serif" font-size="10.00">+ count()</text>
<text text-anchor="start" x="137.589" y="-37" font-family="Helvetica,sans-Serif" font-size="10.00">+ load()</text>
<text text-anchor="start" x="137.589" y="-27" font-family="Helvetica,sans-Serif" font-size="10.00">+ pixel_format()</text>
<text text-anchor="start" x="137.589" y="-17" font-family="Helvetica,sans-Serif" font-size="10.00">+ pixel_size()</text>
<text text-anchor="start" x="137.589" y="-7" font-family="Helvetica,sans-Serif" font-size="10.00">and 5 more...</text>
</g>
<!-- Node2 -->
<g id="node2" class="node"><title>Node2</title>
<g id="a_node2"><a xlink:href="classvar_1_1_item.html" target="_top" xlink:title="{var::Item\&lt; display\l_palette_t \&gt;\n||+ Item()\l+ Item()\l+ Item()\l+ data_const()\l+ item()\l+ operator const display\l_palette_t &amp;()\l+ operator const display\l_palette_t *()\l+ size()\l+ value()\l# data()\l# data_void()\l# data_void_const()\l# set()\l# set()\l}">
<polygon fill="none" stroke="black" points="41.7749,-155 41.7749,-369 164.225,-369 164.225,-155 41.7749,-155"/>
<text text-anchor="start" x="49.7749" y="-357" font-family="Helvetica,sans-Serif" font-size="10.00">var::Item&lt; display</text>
<text text-anchor="middle" x="103" y="-347" font-family="Helvetica,sans-Serif" font-size="10.00">_palette_t &gt;</text>
<polyline fill="none" stroke="black" points="41.7749,-341 164.225,-341 "/>
<text text-anchor="middle" x="103" y="-329" font-family="Helvetica,sans-Serif" font-size="10.00"> </text>
<polyline fill="none" stroke="black" points="41.7749,-323 164.225,-323 "/>
<text text-anchor="start" x="49.7749" y="-311" font-family="Helvetica,sans-Serif" font-size="10.00">+ Item()</text>
<text text-anchor="start" x="49.7749" y="-301" font-family="Helvetica,sans-Serif" font-size="10.00">+ Item()</text>
<text text-anchor="start" x="49.7749" y="-291" font-family="Helvetica,sans-Serif" font-size="10.00">+ Item()</text>
<text text-anchor="start" x="49.7749" y="-281" font-family="Helvetica,sans-Serif" font-size="10.00">+ data_const()</text>
<text text-anchor="start" x="49.7749" y="-271" font-family="Helvetica,sans-Serif" font-size="10.00">+ item()</text>
<text text-anchor="start" x="49.7749" y="-261" font-family="Helvetica,sans-Serif" font-size="10.00">+ operator const display</text>
<text text-anchor="start" x="49.7749" y="-251" font-family="Helvetica,sans-Serif" font-size="10.00">_palette_t &amp;()</text>
<text text-anchor="start" x="49.7749" y="-241" font-family="Helvetica,sans-Serif" font-size="10.00">+ operator const display</text>
<text text-anchor="start" x="49.7749" y="-231" font-family="Helvetica,sans-Serif" font-size="10.00">_palette_t *()</text>
<text text-anchor="start" x="49.7749" y="-221" font-family="Helvetica,sans-Serif" font-size="10.00">+ size()</text>
<text text-anchor="start" x="49.7749" y="-211" font-family="Helvetica,sans-Serif" font-size="10.00">+ value()</text>
<text text-anchor="start" x="49.7749" y="-201" font-family="Helvetica,sans-Serif" font-size="10.00"># data()</text>
<text text-anchor="start" x="49.7749" y="-191" font-family="Helvetica,sans-Serif" font-size="10.00"># data_void()</text>
<text text-anchor="start" x="49.7749" y="-181" font-family="Helvetica,sans-Serif" font-size="10.00"># data_void_const()</text>
<text text-anchor="start" x="49.7749" y="-171" font-family="Helvetica,sans-Serif" font-size="10.00"># set()</text>
<text text-anchor="start" x="49.7749" y="-161" font-family="Helvetica,sans-Serif" font-size="10.00"># set()</text>
</a>
</g>
</g>
<!-- Node2&#45;&gt;Node1 -->
<g id="edge1" class="edge"><title>Node2&#45;&gt;Node1</title>
<path fill="none" stroke="midnightblue" d="M146.508,-145.361C150.426,-134.946 154.265,-124.744 157.852,-115.21"/>
<polygon fill="none" stroke="midnightblue" points="143.138,-144.38 142.892,-154.972 149.689,-146.845 143.138,-144.38"/>
</g>
<!-- Node3 -->
<g id="node3" class="node"><title>Node3</title>
<g id="a_node3"><a xlink:href="classvar_1_1_item_object.html" target="_top" xlink:title="Abstract Item for storing binary data. ">
<polygon fill="none" stroke="black" points="-0.916016,-661 -0.916016,-765 102.916,-765 102.916,-661 -0.916016,-661"/>
<text text-anchor="middle" x="51" y="-753" font-family="Helvetica,sans-Serif" font-size="10.00">var::ItemObject</text>
<polyline fill="none" stroke="black" points="-0.916016,-747 102.916,-747 "/>
<text text-anchor="middle" x="51" y="-735" font-family="Helvetica,sans-Serif" font-size="10.00"> </text>
<polyline fill="none" stroke="black" points="-0.916016,-729 102.916,-729 "/>
<text text-anchor="start" x="7.08398" y="-717" font-family="Helvetica,sans-Serif" font-size="10.00">+ clear()</text>
<text text-anchor="start" x="7.08398" y="-707" font-family="Helvetica,sans-Serif" font-size="10.00">+ load()</text>
<text text-anchor="start" x="7.08398" y="-697" font-family="Helvetica,sans-Serif" font-size="10.00">+ save()</text>
<text text-anchor="start" x="7.08398" y="-687" font-family="Helvetica,sans-Serif" font-size="10.00">+ size()</text>
<text text-anchor="start" x="7.08398" y="-677" font-family="Helvetica,sans-Serif" font-size="10.00"># data_void()</text>
<text text-anchor="start" x="7.08398" y="-667" font-family="Helvetica,sans-Serif" font-size="10.00"># data_void_const()</text>
</a>
</g>
</g>
<!-- Node3&#45;&gt;Node2 -->
<g id="edge2" class="edge"><title>Node3&#45;&gt;Node2</title>
<path fill="none" stroke="midnightblue" d="M41.4027,-650.809C33.753,-590.516 26.6275,-496.066 42,-416 44.9655,-400.554 49.4724,-384.683 54.7215,-369.283"/>
<polygon fill="none" stroke="midnightblue" points="37.9583,-651.462 42.7313,-660.921 44.8986,-650.55 37.9583,-651.462"/>
</g>
<!-- Node4 -->
<g id="node4" class="node"><title>Node4</title>
<g id="a_node4"><a xlink:href="classvar_1_1_item.html" target="_top" xlink:title="Item Class for storing and accessing binary data. ">
<polygon fill="none" stroke="black" points="50.9707,-417 50.9707,-621 167.029,-621 167.029,-417 50.9707,-417"/>
<text text-anchor="middle" x="109" y="-609" font-family="Helvetica,sans-Serif" font-size="10.00">var::Item&lt; data_type &gt;</text>
<polyline fill="none" stroke="black" points="50.9707,-603 167.029,-603 "/>
<text text-anchor="middle" x="109" y="-591" font-family="Helvetica,sans-Serif" font-size="10.00"> </text>
<polyline fill="none" stroke="black" points="50.9707,-585 167.029,-585 "/>
<text text-anchor="start" x="58.9707" y="-573" font-family="Helvetica,sans-Serif" font-size="10.00">+ Item()</text>
<text text-anchor="start" x="58.9707" y="-563" font-family="Helvetica,sans-Serif" font-size="10.00">+ Item()</text>
<text text-anchor="start" x="58.9707" y="-553" font-family="Helvetica,sans-Serif" font-size="10.00">+ Item()</text>
<text text-anchor="start" x="58.9707" y="-543" font-family="Helvetica,sans-Serif" font-size="10.00">+ data_const()</text>
<text text-anchor="start" x="58.9707" y="-533" font-family="Helvetica,sans-Serif" font-size="10.00">+ item()</text>
<text text-anchor="start" x="58.9707" y="-523" font-family="Helvetica,sans-Serif" font-size="10.00">+ operator const data</text>
<text text-anchor="start" x="58.9707" y="-513" font-family="Helvetica,sans-Serif" font-size="10.00">_type &amp;()</text>
<text text-anchor="start" x="58.9707" y="-503" font-family="Helvetica,sans-Serif" font-size="10.00">+ operator const data</text>
<text text-anchor="start" x="58.9707" y="-493" font-family="Helvetica,sans-Serif" font-size="10.00">_type *()</text>
<text text-anchor="start" x="58.9707" y="-483" font-family="Helvetica,sans-Serif" font-size="10.00">+ size()</text>
<text text-anchor="start" x="58.9707" y="-473" font-family="Helvetica,sans-Serif" font-size="10.00">+ value()</text>
<text text-anchor="start" x="58.9707" y="-463" font-family="Helvetica,sans-Serif" font-size="10.00"># data()</text>
<text text-anchor="start" x="58.9707" y="-453" font-family="Helvetica,sans-Serif" font-size="10.00"># data_void()</text>
<text text-anchor="start" x="58.9707" y="-443" font-family="Helvetica,sans-Serif" font-size="10.00"># data_void_const()</text>
<text text-anchor="start" x="58.9707" y="-433" font-family="Helvetica,sans-Serif" font-size="10.00"># set()</text>
<text text-anchor="start" x="58.9707" y="-423" font-family="Helvetica,sans-Serif" font-size="10.00"># set()</text>
</a>
</g>
</g>
<!-- Node3&#45;&gt;Node4 -->
<g id="edge4" class="edge"><title>Node3&#45;&gt;Node4</title>
<path fill="none" stroke="midnightblue" d="M69.4185,-651.029C72.3132,-641.446 75.3709,-631.324 78.4519,-621.125"/>
<polygon fill="none" stroke="midnightblue" points="66.0081,-650.215 66.4667,-660.8 72.7091,-652.239 66.0081,-650.215"/>
</g>
<!-- Node4&#45;&gt;Node2 -->
<g id="edge3" class="edge"><title>Node4&#45;&gt;Node2</title>
<path fill="none" stroke="orange" d="M106.385,-406.843C106.089,-394.294 105.789,-381.53 105.495,-369.049"/>
<polygon fill="orange" stroke="orange" points="102.886,-406.936 106.62,-416.851 109.884,-406.771 102.886,-406.936"/>
<text text-anchor="middle" x="153.534" y="-390" font-family="Helvetica,sans-Serif" font-size="10.00"> &lt; display_palette_t &gt;</text>
</g>
<!-- Node5 -->
<g id="node5" class="node"><title>Node5</title>
<g id="a_node5"><a xlink:href="classapi_1_1_hal_info_object.html" target="_top" xlink:title="Hal Info Object. ">
<polygon fill="none" stroke="black" points="182.256,-235 182.256,-289 277.744,-289 277.744,-235 182.256,-235"/>
<text text-anchor="middle" x="230" y="-277" font-family="Helvetica,sans-Serif" font-size="10.00">api::HalInfoObject</text>
<polyline fill="none" stroke="black" points="182.256,-271 277.744,-271 "/>
<text text-anchor="middle" x="230" y="-259" font-family="Helvetica,sans-Serif" font-size="10.00"> </text>
<polyline fill="none" stroke="black" points="182.256,-253 277.744,-253 "/>
<text text-anchor="middle" x="230" y="-241" font-family="Helvetica,sans-Serif" font-size="10.00"> </text>
</a>
</g>
</g>
<!-- Node5&#45;&gt;Node1 -->
<g id="edge5" class="edge"><title>Node5&#45;&gt;Node1</title>
<path fill="none" stroke="midnightblue" d="M220.864,-224.816C213.173,-194.352 202.043,-150.267 193.192,-115.21"/>
<polygon fill="none" stroke="midnightblue" points="217.491,-225.753 223.333,-234.592 224.278,-224.039 217.491,-225.753"/>
</g>
<!-- Node6 -->
<g id="node6" class="node"><title>Node6</title>
<g id="a_node6"><a xlink:href="classapi_1_1_info_object.html" target="_top" xlink:title="API Information Object. ">
<polygon fill="none" stroke="black" points="189.759,-492 189.759,-546 270.241,-546 270.241,-492 189.759,-492"/>
<text text-anchor="middle" x="230" y="-534" font-family="Helvetica,sans-Serif" font-size="10.00">api::InfoObject</text>
<polyline fill="none" stroke="black" points="189.759,-528 270.241,-528 "/>
<text text-anchor="middle" x="230" y="-516" font-family="Helvetica,sans-Serif" font-size="10.00"> </text>
<polyline fill="none" stroke="black" points="189.759,-510 270.241,-510 "/>
<text text-anchor="middle" x="230" y="-498" font-family="Helvetica,sans-Serif" font-size="10.00"> </text>
</a>
</g>
</g>
<!-- Node6&#45;&gt;Node5 -->
<g id="edge6" class="edge"><title>Node6&#45;&gt;Node5</title>
<path fill="none" stroke="midnightblue" d="M230,-481.535C230,-429.426 230,-334.918 230,-289.186"/>
<polygon fill="none" stroke="midnightblue" points="226.5,-481.671 230,-491.671 233.5,-481.671 226.5,-481.671"/>
</g>
<!-- Node7 -->
<g id="node7" class="node"><title>Node7</title>
<g id="a_node7"><a xlink:href="classapi_1_1_api_object.html" target="_top" xlink:title="API Object Class. ">
<polygon fill="none" stroke="black" points="188.79,-686 188.79,-740 271.21,-740 271.21,-686 188.79,-686"/>
<text text-anchor="middle" x="230" y="-728" font-family="Helvetica,sans-Serif" font-size="10.00">api::ApiObject</text>
<polyline fill="none" stroke="black" points="188.79,-722 271.21,-722 "/>
<text text-anchor="middle" x="230" y="-710" font-family="Helvetica,sans-Serif" font-size="10.00"> </text>
<polyline fill="none" stroke="black" points="188.79,-704 271.21,-704 "/>
<text text-anchor="start" x="196.79" y="-692" font-family="Helvetica,sans-Serif" font-size="10.00">+ api_version()</text>
</a>
</g>
</g>
<!-- Node7&#45;&gt;Node6 -->
<g id="edge7" class="edge"><title>Node7&#45;&gt;Node6</title>
<path fill="none" stroke="midnightblue" d="M230,-675.638C230,-637.898 230,-579.793 230,-546.284"/>
<polygon fill="none" stroke="midnightblue" points="226.5,-675.706 230,-685.706 233.5,-675.706 226.5,-675.706"/>
</g>
</g>
</svg>
        <g id="navigator" transform="translate(0 0)" fill="#404254">
                <rect fill="#f2f5e9" fill-opacity="0.5" stroke="#606060" stroke-width=".5" x="0" y="0" width="60" height="60"/>
                <use id="zoomplus" xlink:href="#zoomPlus" x="17" y="9" onmousedown="handleZoom(evt,'in')"/>
                <use id="zoomminus" xlink:href="#zoomMin" x="42" y="9" onmousedown="handleZoom(evt,'out')"/>
                <use id="reset" xlink:href="#resetDef" x="30" y="36" onmousedown="handleReset()"/>
                <g id="arrowUp" xlink:href="#dirArrow" transform="translate(30 24)" onmousedown="handlePan(0,-1)">
                  <use xlink:href="#rim" fill="#404040">
                        <set attributeName="fill" to="#808080" begin="arrowUp.mouseover" end="arrowUp.mouseout"/>
                  </use>
                  <path fill="none" stroke="white" stroke-width="1.5" d="M0,-3.0v7 M-2.5,-0.5L0,-3.0L2.5,-0.5"/>
                </g>
                <g id="arrowRight" xlink:href="#dirArrow" transform="rotate(90) translate(36 -43)" onmousedown="handlePan(1,0)">
                  <use xlink:href="#rim" fill="#404040">
                        <set attributeName="fill" to="#808080" begin="arrowRight.mouseover" end="arrowRight.mouseout"/>
                  </use>
                  <path fill="none" stroke="white" stroke-width="1.5" d="M0,-3.0v7 M-2.5,-0.5L0,-3.0L2.5,-0.5"/>
                </g>
                <g id="arrowDown" xlink:href="#dirArrow" transform="rotate(180) translate(-30 -48)" onmousedown="handlePan(0,1)">
                  <use xlink:href="#rim" fill="#404040">
                        <set attributeName="fill" to="#808080" begin="arrowDown.mouseover" end="arrowDown.mouseout"/>
                  </use>
                  <path fill="none" stroke="white" stroke-width="1.5" d="M0,-3.0v7 M-2.5,-0.5L0,-3.0L2.5,-0.5"/>
                </g>
                <g id="arrowLeft" xlink:href="#dirArrow" transform="rotate(270) translate(-36 17)" onmousedown="handlePan(-1,0)">
                  <use xlink:href="#rim" fill="#404040">
                        <set attributeName="fill" to="#808080" begin="arrowLeft.mouseover" end="arrowLeft.mouseout"/>
                  </use>
                  <path fill="none" stroke="white" stroke-width="1.5" d="M0,-3.0v7 M-2.5,-0.5L0,-3.0L2.5,-0.5"/>
                </g>
        </g>
        <svg viewBox="0 0 15 15" width="100%" height="30px" preserveAspectRatio="xMaxYMin meet">
         <g id="arrow_out" transform="scale(0.3 0.3)">
          <a xlink:href="classhal_1_1_display_palette__inherit__graph_org.svg" target="_base">
           <rect id="button" ry="5" rx="5" y="6" x="6" height="38" width="38"
                fill="#f2f5e9" fill-opacity="0.5" stroke="#606060" stroke-width="1.0"/>
           <path id="arrow"
             d="M 11.500037,31.436501 C 11.940474,20.09759 22.043105,11.32322 32.158766,21.979434 L 37.068811,17.246167 C 37.068811,17.246167 37.088388,32 37.088388,32 L 22.160133,31.978069 C 22.160133,31.978069 26.997745,27.140456 26.997745,27.140456 C 18.528582,18.264221 13.291696,25.230495 11.500037,31.436501 z"
             style="fill:#404040;"/>
          </a>
         </g>
        </svg>
</svg>
