<?xml version="1.0" encoding="UTF-8" standalone="no"?>
<!DOCTYPE svg PUBLIC "-//W3C//DTD SVG 1.1//EN"
 "http://www.w3.org/Graphics/SVG/1.1/DTD/svg11.dtd">
<!-- Generated by graphviz version 2.36.0 (20140111.2315)
 -->
<!-- Title: api::SgfxInfoObject Pages: 1 -->
<!--zoomable 410 -->
<svg id="main" version="1.1" xmlns="http://www.w3.org/2000/svg" xmlns:xlink="http://www.w3.org/1999/xlink" xml:space="preserve" onload="init(evt)">
<style type="text/css"><![CDATA[
.edge:hover path { stroke: red; }
.edge:hover polygon { stroke: red; fill: red; }
]]></style>
<script type="text/javascript"><![CDATA[
var edges = document.getElementsByTagName('g');
if (edges && edges.length) {
  for (var i=0;i<edges.length;i++) {
    if (edges[i].id.substr(0,4)=='edge') {
      edges[i].setAttribute('class','edge');
    }
  }
}
]]></script>
        <defs>
                <circle id="rim" cx="0" cy="0" r="7"/>
                <circle id="rim2" cx="0" cy="0" r="3.5"/>
                <g id="zoomPlus">
                        <use xlink:href="#rim" fill="#404040">
                                <set attributeName="fill" to="#808080" begin="zoomplus.mouseover" end="zoomplus.mouseout"/>
                        </use>
                        <path d="M-4,0h8M0,-4v8" fill="none" stroke="white" stroke-width="1.5" pointer-events="none"/>
                </g>
                <g id="zoomMin">
                        <use xlink:href="#rim" fill="#404040">
                                <set attributeName="fill" to="#808080" begin="zoomminus.mouseover" end="zoomminus.mouseout"/>
                        </use>
                        <path d="M-4,0h8" fill="none" stroke="white" stroke-width="1.5" pointer-events="none"/>
                </g>
                <g id="dirArrow">
                        <path fill="none" stroke="white" stroke-width="1.5" d="M0,-3.0v7 M-2.5,-0.5L0,-3.0L2.5,-0.5"/>
                </g>
               <g id="resetDef">
                       <use xlink:href="#rim2" fill="#404040">
                               <set attributeName="fill" to="#808080" begin="reset.mouseover" end="reset.mouseout"/>
                       </use>
               </g>
        </defs>

<script type="text/javascript">
var viewWidth = 576;
var viewHeight = 410;
var sectionId = 'dynsection-0';
</script>
<script xlink:href="svgpan.js"/>
<svg id="graph" class="graph">
<g id="viewport">
<title>api::SgfxInfoObject</title>
<!-- Node1 -->
<g id="node1" class="node"><title>Node1</title>
<polygon fill="#bfbfbf" stroke="black" points="235.754,-163 235.754,-217 336.246,-217 336.246,-163 235.754,-163"/>
<text text-anchor="middle" x="286" y="-205" font-family="Helvetica,sans-Serif" font-size="10.00">api::SgfxInfoObject</text>
<polyline fill="none" stroke="black" points="235.754,-199 336.246,-199 "/>
<text text-anchor="middle" x="286" y="-187" font-family="Helvetica,sans-Serif" font-size="10.00"> </text>
<polyline fill="none" stroke="black" points="235.754,-181 336.246,-181 "/>
<text text-anchor="middle" x="286" y="-169" font-family="Helvetica,sans-Serif" font-size="10.00"> </text>
</g>
<!-- Node4 -->
<g id="node4" class="node"><title>Node4</title>
<g id="a_node4"><a xlink:href="classsgfx_1_1_dim.html" target="_top" xlink:title="Dimension Class. ">
<polygon fill="none" stroke="black" points="-0.939453,-6 -0.939453,-120 110.939,-120 110.939,-6 -0.939453,-6"/>
<text text-anchor="middle" x="55" y="-108" font-family="Helvetica,sans-Serif" font-size="10.00">sgfx::Dim</text>
<polyline fill="none" stroke="black" points="-0.939453,-102 110.939,-102 "/>
<text text-anchor="middle" x="55" y="-90" font-family="Helvetica,sans-Serif" font-size="10.00"> </text>
<polyline fill="none" stroke="black" points="-0.939453,-84 110.939,-84 "/>
<text text-anchor="start" x="7.06055" y="-72" font-family="Helvetica,sans-Serif" font-size="10.00">+ Dim()</text>
<text text-anchor="start" x="7.06055" y="-62" font-family="Helvetica,sans-Serif" font-size="10.00">+ Dim()</text>
<text text-anchor="start" x="7.06055" y="-52" font-family="Helvetica,sans-Serif" font-size="10.00">+ Dim()</text>
<text text-anchor="start" x="7.06055" y="-42" font-family="Helvetica,sans-Serif" font-size="10.00">+ dim()</text>
<text text-anchor="start" x="7.06055" y="-32" font-family="Helvetica,sans-Serif" font-size="10.00">+ height()</text>
<text text-anchor="start" x="7.06055" y="-22" font-family="Helvetica,sans-Serif" font-size="10.00">+ operator sg_dim_t()</text>
<text text-anchor="start" x="7.06055" y="-12" font-family="Helvetica,sans-Serif" font-size="10.00">and 7 more...</text>
</a>
</g>
</g>
<!-- Node1&#45;&gt;Node4 -->
<g id="edge3" class="edge"><title>Node1&#45;&gt;Node4</title>
<path fill="none" stroke="midnightblue" d="M225.741,-172.545C192.982,-162.058 152.616,-146.551 120,-126 116.965,-124.088 113.951,-122.019 110.979,-119.837"/>
<polygon fill="none" stroke="midnightblue" points="225.058,-175.998 235.647,-175.638 227.144,-169.316 225.058,-175.998"/>
</g>
<!-- Node5 -->
<g id="node5" class="node"><title>Node5</title>
<g id="a_node5"><a xlink:href="classsgfx_1_1_pen.html" target="_top" xlink:title="Pen Class. ">
<polygon fill="none" stroke="black" points="129.127,-6 129.127,-120 208.873,-120 208.873,-6 129.127,-6"/>
<text text-anchor="middle" x="169" y="-108" font-family="Helvetica,sans-Serif" font-size="10.00">sgfx::Pen</text>
<polyline fill="none" stroke="black" points="129.127,-102 208.873,-102 "/>
<text text-anchor="middle" x="169" y="-90" font-family="Helvetica,sans-Serif" font-size="10.00"> </text>
<polyline fill="none" stroke="black" points="129.127,-84 208.873,-84 "/>
<text text-anchor="start" x="137.127" y="-72" font-family="Helvetica,sans-Serif" font-size="10.00">+ Pen()</text>
<text text-anchor="start" x="137.127" y="-62" font-family="Helvetica,sans-Serif" font-size="10.00">+ Pen()</text>
<text text-anchor="start" x="137.127" y="-52" font-family="Helvetica,sans-Serif" font-size="10.00">+ Pen()</text>
<text text-anchor="start" x="137.127" y="-42" font-family="Helvetica,sans-Serif" font-size="10.00">+ color()</text>
<text text-anchor="start" x="137.127" y="-32" font-family="Helvetica,sans-Serif" font-size="10.00">+ is_blend()</text>
<text text-anchor="start" x="137.127" y="-22" font-family="Helvetica,sans-Serif" font-size="10.00">+ is_erase()</text>
<text text-anchor="start" x="137.127" y="-12" font-family="Helvetica,sans-Serif" font-size="10.00">and 11 more...</text>
</a>
</g>
</g>
<!-- Node1&#45;&gt;Node5 -->
<g id="edge4" class="edge"><title>Node1&#45;&gt;Node5</title>
<path fill="none" stroke="midnightblue" d="M248.318,-156.018C238.168,-146.622 227.402,-136.17 218,-126 215.02,-122.776 212.019,-119.39 209.049,-115.931"/>
<polygon fill="none" stroke="midnightblue" points="246.185,-158.81 255.927,-162.974 250.908,-153.643 246.185,-158.81"/>
</g>
<!-- Node6 -->
<g id="node6" class="node"><title>Node6</title>
<g id="a_node6"><a xlink:href="classsgfx_1_1_point.html" target="_top" xlink:title="Point Class. ">
<polygon fill="none" stroke="black" points="227.275,-1 227.275,-125 344.725,-125 344.725,-1 227.275,-1"/>
<text text-anchor="middle" x="286" y="-113" font-family="Helvetica,sans-Serif" font-size="10.00">sgfx::Point</text>
<polyline fill="none" stroke="black" points="227.275,-107 344.725,-107 "/>
<text text-anchor="middle" x="286" y="-95" font-family="Helvetica,sans-Serif" font-size="10.00"> </text>
<polyline fill="none" stroke="black" points="227.275,-89 344.725,-89 "/>
<text text-anchor="start" x="235.275" y="-77" font-family="Helvetica,sans-Serif" font-size="10.00">+ Point()</text>
<text text-anchor="start" x="235.275" y="-67" font-family="Helvetica,sans-Serif" font-size="10.00">+ Point()</text>
<text text-anchor="start" x="235.275" y="-57" font-family="Helvetica,sans-Serif" font-size="10.00">+ Point()</text>
<text text-anchor="start" x="235.275" y="-47" font-family="Helvetica,sans-Serif" font-size="10.00">+ map()</text>
<text text-anchor="start" x="235.275" y="-37" font-family="Helvetica,sans-Serif" font-size="10.00">+ operator sg_point_t()</text>
<text text-anchor="start" x="235.275" y="-27" font-family="Helvetica,sans-Serif" font-size="10.00">+ operator*()</text>
<text text-anchor="start" x="235.275" y="-17" font-family="Helvetica,sans-Serif" font-size="10.00">and 14 more...</text>
<text text-anchor="start" x="235.275" y="-7" font-family="Helvetica,sans-Serif" font-size="10.00">+ map_pixel_size()</text>
</a>
</g>
</g>
<!-- Node1&#45;&gt;Node6 -->
<g id="edge5" class="edge"><title>Node1&#45;&gt;Node6</title>
<path fill="none" stroke="midnightblue" d="M286,-152.715C286,-144.071 286,-134.61 286,-125.188"/>
<polygon fill="none" stroke="midnightblue" points="282.5,-152.796 286,-162.796 289.5,-152.796 282.5,-152.796"/>
</g>
<!-- Node7 -->
<g id="node7" class="node"><title>Node7</title>
<g id="a_node7"><a xlink:href="classsgfx_1_1_region.html" target="_top" xlink:title="Region Class. ">
<polygon fill="none" stroke="black" points="362.54,-6 362.54,-120 437.46,-120 437.46,-6 362.54,-6"/>
<text text-anchor="middle" x="400" y="-108" font-family="Helvetica,sans-Serif" font-size="10.00">sgfx::Region</text>
<polyline fill="none" stroke="black" points="362.54,-102 437.46,-102 "/>
<text text-anchor="middle" x="400" y="-90" font-family="Helvetica,sans-Serif" font-size="10.00"> </text>
<polyline fill="none" stroke="black" points="362.54,-84 437.46,-84 "/>
<text text-anchor="start" x="370.54" y="-72" font-family="Helvetica,sans-Serif" font-size="10.00">+ Region()</text>
<text text-anchor="start" x="370.54" y="-62" font-family="Helvetica,sans-Serif" font-size="10.00">+ Region()</text>
<text text-anchor="start" x="370.54" y="-52" font-family="Helvetica,sans-Serif" font-size="10.00">+ Region()</text>
<text text-anchor="start" x="370.54" y="-42" font-family="Helvetica,sans-Serif" font-size="10.00">+ Region()</text>
<text text-anchor="start" x="370.54" y="-32" font-family="Helvetica,sans-Serif" font-size="10.00">+ dim()</text>
<text text-anchor="start" x="370.54" y="-22" font-family="Helvetica,sans-Serif" font-size="10.00">+ height()</text>
<text text-anchor="start" x="370.54" y="-12" font-family="Helvetica,sans-Serif" font-size="10.00">and 8 more...</text>
</a>
</g>
</g>
<!-- Node1&#45;&gt;Node7 -->
<g id="edge6" class="edge"><title>Node1&#45;&gt;Node7</title>
<path fill="none" stroke="midnightblue" d="M323.506,-155.819C333.425,-146.492 343.897,-136.123 353,-126 356.161,-122.485 359.336,-118.772 362.463,-114.981"/>
<polygon fill="none" stroke="midnightblue" points="321.01,-153.36 316.061,-162.728 325.772,-158.492 321.01,-153.36"/>
</g>
<!-- Node8 -->
<g id="node8" class="node"><title>Node8</title>
<g id="a_node8"><a xlink:href="classsgfx_1_1_vector_map.html" target="_top" xlink:title="Vecotor Map Class. ">
<polygon fill="none" stroke="black" points="455.226,-6 455.226,-120 568.774,-120 568.774,-6 455.226,-6"/>
<text text-anchor="middle" x="512" y="-108" font-family="Helvetica,sans-Serif" font-size="10.00">sgfx::VectorMap</text>
<polyline fill="none" stroke="black" points="455.226,-102 568.774,-102 "/>
<text text-anchor="middle" x="512" y="-90" font-family="Helvetica,sans-Serif" font-size="10.00"> </text>
<polyline fill="none" stroke="black" points="455.226,-84 568.774,-84 "/>
<text text-anchor="start" x="463.226" y="-72" font-family="Helvetica,sans-Serif" font-size="10.00">+ VectorMap()</text>
<text text-anchor="start" x="463.226" y="-62" font-family="Helvetica,sans-Serif" font-size="10.00">+ VectorMap()</text>
<text text-anchor="start" x="463.226" y="-52" font-family="Helvetica,sans-Serif" font-size="10.00">+ fill_region()</text>
<text text-anchor="start" x="463.226" y="-42" font-family="Helvetica,sans-Serif" font-size="10.00">+ height()</text>
<text text-anchor="start" x="463.226" y="-32" font-family="Helvetica,sans-Serif" font-size="10.00">+ set_bitmap_center()</text>
<text text-anchor="start" x="463.226" y="-22" font-family="Helvetica,sans-Serif" font-size="10.00">+ set_dim()</text>
<text text-anchor="start" x="463.226" y="-12" font-family="Helvetica,sans-Serif" font-size="10.00">and 8 more...</text>
</a>
</g>
</g>
<!-- Node1&#45;&gt;Node8 -->
<g id="edge7" class="edge"><title>Node1&#45;&gt;Node8</title>
<path fill="none" stroke="midnightblue" d="M346.126,-171.376C377.286,-160.778 415.164,-145.532 446,-126 449.055,-124.065 452.093,-121.977 455.094,-119.78"/>
<polygon fill="none" stroke="midnightblue" points="344.649,-168.178 336.263,-174.653 346.856,-174.821 344.649,-168.178"/>
</g>
<!-- Node2 -->
<g id="node2" class="node"><title>Node2</title>
<g id="a_node2"><a xlink:href="classapi_1_1_info_object.html" target="_top" xlink:title="Information Object. ">
<polygon fill="none" stroke="black" points="245.759,-255 245.759,-309 326.241,-309 326.241,-255 245.759,-255"/>
<text text-anchor="middle" x="286" y="-297" font-family="Helvetica,sans-Serif" font-size="10.00">api::InfoObject</text>
<polyline fill="none" stroke="black" points="245.759,-291 326.241,-291 "/>
<text text-anchor="middle" x="286" y="-279" font-family="Helvetica,sans-Serif" font-size="10.00"> </text>
<polyline fill="none" stroke="black" points="245.759,-273 326.241,-273 "/>
<text text-anchor="middle" x="286" y="-261" font-family="Helvetica,sans-Serif" font-size="10.00"> </text>
</a>
</g>
</g>
<!-- Node2&#45;&gt;Node1 -->
<g id="edge1" class="edge"><title>Node2&#45;&gt;Node1</title>
<path fill="none" stroke="midnightblue" d="M286,-244.865C286,-235.644 286,-225.907 286,-217.285"/>
<polygon fill="none" stroke="midnightblue" points="282.5,-244.968 286,-254.968 289.5,-244.968 282.5,-244.968"/>
</g>
<!-- Node3 -->
<g id="node3" class="node"><title>Node3</title>
<g id="a_node3"><a xlink:href="classapi_1_1_api_object.html" target="_top" xlink:title="Application Programming Interface Object. ">
<polygon fill="none" stroke="black" points="244.79,-347 244.79,-401 327.21,-401 327.21,-347 244.79,-347"/>
<text text-anchor="middle" x="286" y="-389" font-family="Helvetica,sans-Serif" font-size="10.00">api::ApiObject</text>
<polyline fill="none" stroke="black" points="244.79,-383 327.21,-383 "/>
<text text-anchor="middle" x="286" y="-371" font-family="Helvetica,sans-Serif" font-size="10.00"> </text>
<polyline fill="none" stroke="black" points="244.79,-365 327.21,-365 "/>
<text text-anchor="start" x="252.79" y="-353" font-family="Helvetica,sans-Serif" font-size="10.00">+ api_version()</text>
</a>
</g>
</g>
<!-- Node3&#45;&gt;Node2 -->
<g id="edge2" class="edge"><title>Node3&#45;&gt;Node2</title>
<path fill="none" stroke="midnightblue" d="M286,-336.865C286,-327.644 286,-317.907 286,-309.285"/>
<polygon fill="none" stroke="midnightblue" points="282.5,-336.968 286,-346.968 289.5,-336.968 282.5,-336.968"/>
</g>
</g>
</svg>
        <g id="navigator" transform="translate(0 0)" fill="#404254">
                <rect fill="#f2f5e9" fill-opacity="0.5" stroke="#606060" stroke-width=".5" x="0" y="0" width="60" height="60"/>
                <use id="zoomplus" xlink:href="#zoomPlus" x="17" y="9" onmousedown="handleZoom(evt,'in')"/>
                <use id="zoomminus" xlink:href="#zoomMin" x="42" y="9" onmousedown="handleZoom(evt,'out')"/>
                <use id="reset" xlink:href="#resetDef" x="30" y="36" onmousedown="handleReset()"/>
                <g id="arrowUp" xlink:href="#dirArrow" transform="translate(30 24)" onmousedown="handlePan(0,-1)">
                  <use xlink:href="#rim" fill="#404040">
                        <set attributeName="fill" to="#808080" begin="arrowUp.mouseover" end="arrowUp.mouseout"/>
                  </use>
                  <path fill="none" stroke="white" stroke-width="1.5" d="M0,-3.0v7 M-2.5,-0.5L0,-3.0L2.5,-0.5"/>
                </g>
                <g id="arrowRight" xlink:href="#dirArrow" transform="rotate(90) translate(36 -43)" onmousedown="handlePan(1,0)">
                  <use xlink:href="#rim" fill="#404040">
                        <set attributeName="fill" to="#808080" begin="arrowRight.mouseover" end="arrowRight.mouseout"/>
                  </use>
                  <path fill="none" stroke="white" stroke-width="1.5" d="M0,-3.0v7 M-2.5,-0.5L0,-3.0L2.5,-0.5"/>
                </g>
                <g id="arrowDown" xlink:href="#dirArrow" transform="rotate(180) translate(-30 -48)" onmousedown="handlePan(0,1)">
                  <use xlink:href="#rim" fill="#404040">
                        <set attributeName="fill" to="#808080" begin="arrowDown.mouseover" end="arrowDown.mouseout"/>
                  </use>
                  <path fill="none" stroke="white" stroke-width="1.5" d="M0,-3.0v7 M-2.5,-0.5L0,-3.0L2.5,-0.5"/>
                </g>
                <g id="arrowLeft" xlink:href="#dirArrow" transform="rotate(270) translate(-36 17)" onmousedown="handlePan(-1,0)">
                  <use xlink:href="#rim" fill="#404040">
                        <set attributeName="fill" to="#808080" begin="arrowLeft.mouseover" end="arrowLeft.mouseout"/>
                  </use>
                  <path fill="none" stroke="white" stroke-width="1.5" d="M0,-3.0v7 M-2.5,-0.5L0,-3.0L2.5,-0.5"/>
                </g>
        </g>
        <svg viewBox="0 0 15 15" width="100%" height="30px" preserveAspectRatio="xMaxYMin meet">
         <g id="arrow_out" transform="scale(0.3 0.3)">
          <a xlink:href="classapi_1_1_sgfx_info_object__inherit__graph_org.svg" target="_base">
           <rect id="button" ry="5" rx="5" y="6" x="6" height="38" width="38"
                fill="#f2f5e9" fill-opacity="0.5" stroke="#606060" stroke-width="1.0"/>
           <path id="arrow"
             d="M 11.500037,31.436501 C 11.940474,20.09759 22.043105,11.32322 32.158766,21.979434 L 37.068811,17.246167 C 37.068811,17.246167 37.088388,32 37.088388,32 L 22.160133,31.978069 C 22.160133,31.978069 26.997745,27.140456 26.997745,27.140456 C 18.528582,18.264221 13.291696,25.230495 11.500037,31.436501 z"
             style="fill:#404040;"/>
          </a>
         </g>
        </svg>
</svg>
