<?xml version="1.0" encoding="UTF-8" standalone="no"?>
<!DOCTYPE svg PUBLIC "-//W3C//DTD SVG 1.1//EN"
 "http://www.w3.org/Graphics/SVG/1.1/DTD/svg11.dtd">
<!-- Generated by graphviz version 2.36.0 (20140111.2315)
 -->
<!-- Title: chrono::MicroTimer Pages: 1 -->
<svg width="126pt" height="540pt"
 viewBox="0.00 0.00 126.00 540.00" xmlns="http://www.w3.org/2000/svg" xmlns:xlink="http://www.w3.org/1999/xlink">
<g id="graph0" class="graph" transform="scale(1 1) rotate(0) translate(4 536)">
<title>chrono::MicroTimer</title>
<!-- Node1 -->
<g id="node1" class="node"><title>Node1</title>
<polygon fill="#bfbfbf" stroke="black" points="8.11914,-1 8.11914,-155 109.881,-155 109.881,-1 8.11914,-1"/>
<text text-anchor="middle" x="59" y="-143" font-family="Helvetica,sans-Serif" font-size="10.00">chrono::MicroTimer</text>
<polyline fill="none" stroke="black" points="8.11914,-137 109.881,-137 "/>
<text text-anchor="middle" x="59" y="-125" font-family="Helvetica,sans-Serif" font-size="10.00"> </text>
<polyline fill="none" stroke="black" points="8.11914,-119 109.881,-119 "/>
<text text-anchor="start" x="16.1191" y="-107" font-family="Helvetica,sans-Serif" font-size="10.00">+ MicroTimer()</text>
<text text-anchor="start" x="16.1191" y="-97" font-family="Helvetica,sans-Serif" font-size="10.00">+ calc_msec()</text>
<text text-anchor="start" x="16.1191" y="-87" font-family="Helvetica,sans-Serif" font-size="10.00">+ calc_sec()</text>
<text text-anchor="start" x="16.1191" y="-77" font-family="Helvetica,sans-Serif" font-size="10.00">+ calc_usec()</text>
<text text-anchor="start" x="16.1191" y="-67" font-family="Helvetica,sans-Serif" font-size="10.00">+ calc_value()</text>
<text text-anchor="start" x="16.1191" y="-57" font-family="Helvetica,sans-Serif" font-size="10.00">+ is_reset()</text>
<text text-anchor="start" x="16.1191" y="-47" font-family="Helvetica,sans-Serif" font-size="10.00">and 15 more...</text>
<text text-anchor="start" x="16.1191" y="-37" font-family="Helvetica,sans-Serif" font-size="10.00">+ wait()</text>
<text text-anchor="start" x="16.1191" y="-27" font-family="Helvetica,sans-Serif" font-size="10.00">+ wait_msec()</text>
<text text-anchor="start" x="16.1191" y="-17" font-family="Helvetica,sans-Serif" font-size="10.00">+ wait_sec()</text>
<text text-anchor="start" x="16.1191" y="-7" font-family="Helvetica,sans-Serif" font-size="10.00">+ wait_usec()</text>
</g>
<!-- Node2 -->
<g id="node2" class="node"><title>Node2</title>
<g id="a_node2"><a xlink:href="classapi_1_1_chrono_work_object.html" target="_top" xlink:title="Chrono Work Object Class. ">
<polygon fill="none" stroke="black" points="-0.877441,-193 -0.877441,-267 118.877,-267 118.877,-193 -0.877441,-193"/>
<text text-anchor="middle" x="59" y="-255" font-family="Helvetica,sans-Serif" font-size="10.00">api::ChronoWorkObject</text>
<polyline fill="none" stroke="black" points="-0.877441,-249 118.877,-249 "/>
<text text-anchor="middle" x="59" y="-237" font-family="Helvetica,sans-Serif" font-size="10.00"> </text>
<polyline fill="none" stroke="black" points="-0.877441,-231 118.877,-231 "/>
<text text-anchor="start" x="7.12256" y="-219" font-family="Helvetica,sans-Serif" font-size="10.00">+ wait_microseconds()</text>
<text text-anchor="start" x="7.12256" y="-209" font-family="Helvetica,sans-Serif" font-size="10.00">+ wait_milliseconds()</text>
<text text-anchor="start" x="7.12256" y="-199" font-family="Helvetica,sans-Serif" font-size="10.00">+ wait_seconds()</text>
</a>
</g>
</g>
<!-- Node2&#45;&gt;Node1 -->
<g id="edge1" class="edge"><title>Node2&#45;&gt;Node1</title>
<path fill="none" stroke="midnightblue" d="M59,-182.676C59,-173.872 59,-164.448 59,-155.002"/>
<polygon fill="none" stroke="midnightblue" points="55.5001,-182.689 59,-192.689 62.5001,-182.689 55.5001,-182.689"/>
</g>
<!-- Node3 -->
<g id="node3" class="node"><title>Node3</title>
<g id="a_node3"><a xlink:href="classapi_1_1_work_object.html" target="_top" xlink:title="WorkObject Class. ">
<polygon fill="none" stroke="black" points="-0.547852,-305 -0.547852,-439 118.548,-439 118.548,-305 -0.547852,-305"/>
<text text-anchor="middle" x="59" y="-427" font-family="Helvetica,sans-Serif" font-size="10.00">api::WorkObject</text>
<polyline fill="none" stroke="black" points="-0.547852,-421 118.548,-421 "/>
<text text-anchor="middle" x="59" y="-409" font-family="Helvetica,sans-Serif" font-size="10.00"> </text>
<polyline fill="none" stroke="black" points="-0.547852,-403 118.548,-403 "/>
<text text-anchor="start" x="7.45215" y="-391" font-family="Helvetica,sans-Serif" font-size="10.00">+ WorkObject()</text>
<text text-anchor="start" x="7.45215" y="-381" font-family="Helvetica,sans-Serif" font-size="10.00">+ clear_error_number()</text>
<text text-anchor="start" x="7.45215" y="-371" font-family="Helvetica,sans-Serif" font-size="10.00">+ error_number()</text>
<text text-anchor="start" x="7.45215" y="-361" font-family="Helvetica,sans-Serif" font-size="10.00">+ exit_fatal()</text>
<text text-anchor="start" x="7.45215" y="-351" font-family="Helvetica,sans-Serif" font-size="10.00"># set_error_number()</text>
<text text-anchor="start" x="7.45215" y="-341" font-family="Helvetica,sans-Serif" font-size="10.00"># set_error_number_if</text>
<text text-anchor="start" x="7.45215" y="-331" font-family="Helvetica,sans-Serif" font-size="10.00">_error()</text>
<text text-anchor="start" x="7.45215" y="-321" font-family="Helvetica,sans-Serif" font-size="10.00"># set_error_number_to</text>
<text text-anchor="start" x="7.45215" y="-311" font-family="Helvetica,sans-Serif" font-size="10.00">_errno()</text>
</a>
</g>
</g>
<!-- Node3&#45;&gt;Node2 -->
<g id="edge2" class="edge"><title>Node3&#45;&gt;Node2</title>
<path fill="none" stroke="midnightblue" d="M59,-294.437C59,-285.016 59,-275.755 59,-267.345"/>
<polygon fill="none" stroke="midnightblue" points="55.5001,-294.69 59,-304.69 62.5001,-294.69 55.5001,-294.69"/>
</g>
<!-- Node4 -->
<g id="node4" class="node"><title>Node4</title>
<g id="a_node4"><a xlink:href="classapi_1_1_api_object.html" target="_top" xlink:title="API Object Class. ">
<polygon fill="none" stroke="black" points="17.7896,-477 17.7896,-531 100.21,-531 100.21,-477 17.7896,-477"/>
<text text-anchor="middle" x="59" y="-519" font-family="Helvetica,sans-Serif" font-size="10.00">api::ApiObject</text>
<polyline fill="none" stroke="black" points="17.7896,-513 100.21,-513 "/>
<text text-anchor="middle" x="59" y="-501" font-family="Helvetica,sans-Serif" font-size="10.00"> </text>
<polyline fill="none" stroke="black" points="17.7896,-495 100.21,-495 "/>
<text text-anchor="start" x="25.7896" y="-483" font-family="Helvetica,sans-Serif" font-size="10.00">+ api_version()</text>
</a>
</g>
</g>
<!-- Node4&#45;&gt;Node3 -->
<g id="edge3" class="edge"><title>Node4&#45;&gt;Node3</title>
<path fill="none" stroke="midnightblue" d="M59,-466.644C59,-458.02 59,-448.555 59,-439.059"/>
<polygon fill="none" stroke="midnightblue" points="55.5001,-466.693 59,-476.693 62.5001,-466.693 55.5001,-466.693"/>
</g>
</g>
</svg>
