<?xml version="1.0" encoding="UTF-8" standalone="no"?>
<!DOCTYPE svg PUBLIC "-//W3C//DTD SVG 1.1//EN"
 "http://www.w3.org/Graphics/SVG/1.1/DTD/svg11.dtd">
<!-- Generated by graphviz version 2.36.0 (20140111.2315)
 -->
<!-- Title: ui::List Pages: 1 -->
<svg width="312pt" height="1338pt"
 viewBox="0.00 0.00 312.00 1338.00" xmlns="http://www.w3.org/2000/svg" xmlns:xlink="http://www.w3.org/1999/xlink">
<g id="graph0" class="graph" transform="scale(1 1) rotate(0) translate(4 1334)">
<title>ui::List</title>
<!-- Node1 -->
<g id="node1" class="node"><title>Node1</title>
<polygon fill="#bfbfbf" stroke="black" points="105.387,-163 105.387,-377 262.613,-377 262.613,-163 105.387,-163"/>
<text text-anchor="middle" x="184" y="-365" font-family="Helvetica,sans-Serif" font-size="10.00">ui::List</text>
<polyline fill="none" stroke="black" points="105.387,-359 262.613,-359 "/>
<text text-anchor="start" x="113.387" y="-347" font-family="Helvetica,sans-Serif" font-size="10.00"># m_draw_animation_item</text>
<text text-anchor="start" x="113.387" y="-337" font-family="Helvetica,sans-Serif" font-size="10.00"># m_draw_animation_offset</text>
<text text-anchor="start" x="113.387" y="-327" font-family="Helvetica,sans-Serif" font-size="10.00"># m_scroll_animation</text>
<text text-anchor="start" x="113.387" y="-317" font-family="Helvetica,sans-Serif" font-size="10.00"># m_scroll_timer</text>
<text text-anchor="start" x="113.387" y="-307" font-family="Helvetica,sans-Serif" font-size="10.00"># m_select_top_bottom</text>
<polyline fill="none" stroke="black" points="105.387,-301 262.613,-301 "/>
<text text-anchor="start" x="113.387" y="-289" font-family="Helvetica,sans-Serif" font-size="10.00">+ List()</text>
<text text-anchor="start" x="113.387" y="-279" font-family="Helvetica,sans-Serif" font-size="10.00">+ at()</text>
<text text-anchor="start" x="113.387" y="-269" font-family="Helvetica,sans-Serif" font-size="10.00">+ current()</text>
<text text-anchor="start" x="113.387" y="-259" font-family="Helvetica,sans-Serif" font-size="10.00">+ draw_item_to_scale()</text>
<text text-anchor="start" x="113.387" y="-249" font-family="Helvetica,sans-Serif" font-size="10.00">+ draw_to_scale()</text>
<text text-anchor="start" x="113.387" y="-239" font-family="Helvetica,sans-Serif" font-size="10.00">+ handle_event()</text>
<text text-anchor="start" x="113.387" y="-229" font-family="Helvetica,sans-Serif" font-size="10.00"># animate_scroll()</text>
<text text-anchor="start" x="113.387" y="-219" font-family="Helvetica,sans-Serif" font-size="10.00"># handle_down_button</text>
<text text-anchor="start" x="113.387" y="-209" font-family="Helvetica,sans-Serif" font-size="10.00">_actuation()</text>
<text text-anchor="start" x="113.387" y="-199" font-family="Helvetica,sans-Serif" font-size="10.00"># handle_select_button</text>
<text text-anchor="start" x="113.387" y="-189" font-family="Helvetica,sans-Serif" font-size="10.00">_actuation()</text>
<text text-anchor="start" x="113.387" y="-179" font-family="Helvetica,sans-Serif" font-size="10.00"># handle_up_button_actuation()</text>
<text text-anchor="start" x="113.387" y="-169" font-family="Helvetica,sans-Serif" font-size="10.00"># init()</text>
</g>
<!-- Node11 -->
<g id="node11" class="node"><title>Node11</title>
<g id="a_node11"><a xlink:href="classui_1_1_dir_list.html" target="_top" xlink:title="Directory List Class. ">
<polygon fill="none" stroke="black" points="81.6245,-1 81.6245,-125 182.375,-125 182.375,-1 81.6245,-1"/>
<text text-anchor="middle" x="132" y="-113" font-family="Helvetica,sans-Serif" font-size="10.00">ui::DirList</text>
<polyline fill="none" stroke="black" points="81.6245,-107 182.375,-107 "/>
<text text-anchor="middle" x="132" y="-95" font-family="Helvetica,sans-Serif" font-size="10.00"> </text>
<polyline fill="none" stroke="black" points="81.6245,-89 182.375,-89 "/>
<text text-anchor="start" x="89.6245" y="-77" font-family="Helvetica,sans-Serif" font-size="10.00">+ DirList()</text>
<text text-anchor="start" x="89.6245" y="-67" font-family="Helvetica,sans-Serif" font-size="10.00">+ ~DirList()</text>
<text text-anchor="start" x="89.6245" y="-57" font-family="Helvetica,sans-Serif" font-size="10.00">+ at()</text>
<text text-anchor="start" x="89.6245" y="-47" font-family="Helvetica,sans-Serif" font-size="10.00">+ dir()</text>
<text text-anchor="start" x="89.6245" y="-37" font-family="Helvetica,sans-Serif" font-size="10.00">+ handle_event()</text>
<text text-anchor="start" x="89.6245" y="-27" font-family="Helvetica,sans-Serif" font-size="10.00">+ is_suffix_visible()</text>
<text text-anchor="start" x="89.6245" y="-17" font-family="Helvetica,sans-Serif" font-size="10.00">and 6 more...</text>
<text text-anchor="start" x="89.6245" y="-7" font-family="Helvetica,sans-Serif" font-size="10.00"># set_size()</text>
</a>
</g>
</g>
<!-- Node1&#45;&gt;Node11 -->
<g id="edge11" class="edge"><title>Node1&#45;&gt;Node11</title>
<path fill="none" stroke="midnightblue" d="M154.563,-152.952C152.153,-143.45 149.783,-134.106 147.538,-125.255"/>
<polygon fill="none" stroke="midnightblue" points="151.235,-154.065 157.086,-162.897 158.02,-152.344 151.235,-154.065"/>
</g>
<!-- Node12 -->
<g id="node12" class="node"><title>Node12</title>
<g id="a_node12"><a xlink:href="classui_1_1_menu_list.html" target="_top" xlink:title="Menu List Class. ">
<polygon fill="none" stroke="black" points="200.073,-21 200.073,-105 271.927,-105 271.927,-21 200.073,-21"/>
<text text-anchor="middle" x="236" y="-93" font-family="Helvetica,sans-Serif" font-size="10.00">ui::MenuList</text>
<polyline fill="none" stroke="black" points="200.073,-87 271.927,-87 "/>
<text text-anchor="middle" x="236" y="-75" font-family="Helvetica,sans-Serif" font-size="10.00"> </text>
<polyline fill="none" stroke="black" points="200.073,-69 271.927,-69 "/>
<text text-anchor="start" x="208.073" y="-57" font-family="Helvetica,sans-Serif" font-size="10.00">+ MenuList()</text>
<text text-anchor="start" x="208.073" y="-47" font-family="Helvetica,sans-Serif" font-size="10.00">+ at()</text>
<text text-anchor="start" x="208.073" y="-37" font-family="Helvetica,sans-Serif" font-size="10.00">+ back()</text>
<text text-anchor="start" x="208.073" y="-27" font-family="Helvetica,sans-Serif" font-size="10.00">+ size()</text>
</a>
</g>
</g>
<!-- Node1&#45;&gt;Node12 -->
<g id="edge12" class="edge"><title>Node1&#45;&gt;Node12</title>
<path fill="none" stroke="midnightblue" d="M213.468,-152.829C217.786,-135.806 221.974,-119.294 225.544,-105.219"/>
<polygon fill="none" stroke="midnightblue" points="209.98,-152.344 210.914,-162.897 216.765,-154.065 209.98,-152.344"/>
</g>
<!-- Node2 -->
<g id="node2" class="node"><title>Node2</title>
<g id="a_node2"><a xlink:href="classui_1_1_linked_element.html" target="_top" xlink:title="Linked Element. ">
<polygon fill="none" stroke="black" points="73.2847,-415 73.2847,-529 170.715,-529 170.715,-415 73.2847,-415"/>
<text text-anchor="middle" x="122" y="-517" font-family="Helvetica,sans-Serif" font-size="10.00">ui::LinkedElement</text>
<polyline fill="none" stroke="black" points="73.2847,-511 170.715,-511 "/>
<text text-anchor="middle" x="122" y="-499" font-family="Helvetica,sans-Serif" font-size="10.00"> </text>
<polyline fill="none" stroke="black" points="73.2847,-493 170.715,-493 "/>
<text text-anchor="start" x="81.2847" y="-481" font-family="Helvetica,sans-Serif" font-size="10.00">+ LinkedElement()</text>
<text text-anchor="start" x="81.2847" y="-471" font-family="Helvetica,sans-Serif" font-size="10.00">+ LinkedElement()</text>
<text text-anchor="start" x="81.2847" y="-461" font-family="Helvetica,sans-Serif" font-size="10.00">+ child()</text>
<text text-anchor="start" x="81.2847" y="-451" font-family="Helvetica,sans-Serif" font-size="10.00">+ handle_event()</text>
<text text-anchor="start" x="81.2847" y="-441" font-family="Helvetica,sans-Serif" font-size="10.00">+ parent()</text>
<text text-anchor="start" x="81.2847" y="-431" font-family="Helvetica,sans-Serif" font-size="10.00">+ set_child()</text>
<text text-anchor="start" x="81.2847" y="-421" font-family="Helvetica,sans-Serif" font-size="10.00">+ set_parent()</text>
</a>
</g>
</g>
<!-- Node2&#45;&gt;Node1 -->
<g id="edge1" class="edge"><title>Node2&#45;&gt;Node1</title>
<path fill="none" stroke="midnightblue" d="M142.408,-405.168C145.199,-396.165 148.12,-386.741 151.065,-377.243"/>
<polygon fill="none" stroke="midnightblue" points="139.053,-404.169 139.435,-414.757 145.74,-406.241 139.053,-404.169"/>
</g>
<!-- Node3 -->
<g id="node3" class="node"><title>Node3</title>
<g id="a_node3"><a xlink:href="classui_1_1_element.html" target="_top" xlink:title="Element Class. ">
<polygon fill="none" stroke="black" points="54.3857,-567 54.3857,-701 189.614,-701 189.614,-567 54.3857,-567"/>
<text text-anchor="middle" x="122" y="-689" font-family="Helvetica,sans-Serif" font-size="10.00">ui::Element</text>
<polyline fill="none" stroke="black" points="54.3857,-683 189.614,-683 "/>
<text text-anchor="start" x="62.3857" y="-671" font-family="Helvetica,sans-Serif" font-size="10.00"># m_animation_attr</text>
<polyline fill="none" stroke="black" points="54.3857,-665 189.614,-665 "/>
<text text-anchor="start" x="62.3857" y="-653" font-family="Helvetica,sans-Serif" font-size="10.00">+ Element()</text>
<text text-anchor="start" x="62.3857" y="-643" font-family="Helvetica,sans-Serif" font-size="10.00">+ animation_attr()</text>
<text text-anchor="start" x="62.3857" y="-633" font-family="Helvetica,sans-Serif" font-size="10.00">+ animation_frame_delay()</text>
<text text-anchor="start" x="62.3857" y="-623" font-family="Helvetica,sans-Serif" font-size="10.00">+ animation_path()</text>
<text text-anchor="start" x="62.3857" y="-613" font-family="Helvetica,sans-Serif" font-size="10.00">+ animation_type()</text>
<text text-anchor="start" x="62.3857" y="-603" font-family="Helvetica,sans-Serif" font-size="10.00">+ handle_event()</text>
<text text-anchor="start" x="62.3857" y="-593" font-family="Helvetica,sans-Serif" font-size="10.00">and 21 more...</text>
<text text-anchor="start" x="62.3857" y="-583" font-family="Helvetica,sans-Serif" font-size="10.00"># adjust_x_center()</text>
<text text-anchor="start" x="62.3857" y="-573" font-family="Helvetica,sans-Serif" font-size="10.00"># draw_scroll()</text>
</a>
</g>
</g>
<!-- Node3&#45;&gt;Node2 -->
<g id="edge2" class="edge"><title>Node3&#45;&gt;Node2</title>
<path fill="none" stroke="midnightblue" d="M122,-556.907C122,-547.558 122,-538.139 122,-529.16"/>
<polygon fill="none" stroke="midnightblue" points="118.5,-556.998 122,-566.998 125.5,-556.998 118.5,-556.998"/>
</g>
<!-- Node4 -->
<g id="node4" class="node"><title>Node4</title>
<g id="a_node4"><a xlink:href="classdraw_1_1_drawing.html" target="_top" xlink:title="Drawing Class. ">
<polygon fill="none" stroke="black" points="-0.552734,-739 -0.552734,-963 118.553,-963 118.553,-739 -0.552734,-739"/>
<text text-anchor="middle" x="59" y="-951" font-family="Helvetica,sans-Serif" font-size="10.00">draw::Drawing</text>
<polyline fill="none" stroke="black" points="-0.552734,-945 118.553,-945 "/>
<text text-anchor="middle" x="59" y="-933" font-family="Helvetica,sans-Serif" font-size="10.00"> </text>
<polyline fill="none" stroke="black" points="-0.552734,-927 118.553,-927 "/>
<text text-anchor="start" x="7.44727" y="-915" font-family="Helvetica,sans-Serif" font-size="10.00">+ Drawing()</text>
<text text-anchor="start" x="7.44727" y="-905" font-family="Helvetica,sans-Serif" font-size="10.00">+ dark()</text>
<text text-anchor="start" x="7.44727" y="-895" font-family="Helvetica,sans-Serif" font-size="10.00">+ draw()</text>
<text text-anchor="start" x="7.44727" y="-885" font-family="Helvetica,sans-Serif" font-size="10.00">+ draw()</text>
<text text-anchor="start" x="7.44727" y="-875" font-family="Helvetica,sans-Serif" font-size="10.00">+ draw_scratch()</text>
<text text-anchor="start" x="7.44727" y="-865" font-family="Helvetica,sans-Serif" font-size="10.00">+ draw_to_scale()</text>
<text text-anchor="start" x="7.44727" y="-855" font-family="Helvetica,sans-Serif" font-size="10.00">and 18 more...</text>
<text text-anchor="start" x="7.44727" y="-845" font-family="Helvetica,sans-Serif" font-size="10.00">+ clear()</text>
<text text-anchor="start" x="7.44727" y="-835" font-family="Helvetica,sans-Serif" font-size="10.00">+ draw_checkerboard()</text>
<text text-anchor="start" x="7.44727" y="-825" font-family="Helvetica,sans-Serif" font-size="10.00">+ draw_pattern()</text>
<text text-anchor="start" x="7.44727" y="-815" font-family="Helvetica,sans-Serif" font-size="10.00">+ h()</text>
<text text-anchor="start" x="7.44727" y="-805" font-family="Helvetica,sans-Serif" font-size="10.00">+ height()</text>
<text text-anchor="start" x="7.44727" y="-795" font-family="Helvetica,sans-Serif" font-size="10.00">+ invert()</text>
<text text-anchor="start" x="7.44727" y="-785" font-family="Helvetica,sans-Serif" font-size="10.00">and 4 more...</text>
<text text-anchor="start" x="7.44727" y="-775" font-family="Helvetica,sans-Serif" font-size="10.00"># dim_on_bitmap()</text>
<text text-anchor="start" x="7.44727" y="-765" font-family="Helvetica,sans-Serif" font-size="10.00"># flag()</text>
<text text-anchor="start" x="7.44727" y="-755" font-family="Helvetica,sans-Serif" font-size="10.00"># point_on_bitmap()</text>
<text text-anchor="start" x="7.44727" y="-745" font-family="Helvetica,sans-Serif" font-size="10.00"># set_flag()</text>
</a>
</g>
</g>
<!-- Node4&#45;&gt;Node3 -->
<g id="edge3" class="edge"><title>Node4&#45;&gt;Node3</title>
<path fill="none" stroke="midnightblue" d="M94.5021,-728.842C97.269,-719.399 99.994,-710.1 102.59,-701.241"/>
<polygon fill="none" stroke="midnightblue" points="91.0605,-728.141 91.6072,-738.721 97.7781,-730.109 91.0605,-728.141"/>
</g>
<!-- Node5 -->
<g id="node5" class="node"><title>Node5</title>
<g id="a_node5"><a xlink:href="classapi_1_1_draw_work_object.html" target="_top" xlink:title="State Machine Work Object Class. ">
<polygon fill="none" stroke="black" points="5.854,-1001 5.854,-1055 116.146,-1055 116.146,-1001 5.854,-1001"/>
<text text-anchor="middle" x="61" y="-1043" font-family="Helvetica,sans-Serif" font-size="10.00">api::DrawWorkObject</text>
<polyline fill="none" stroke="black" points="5.854,-1037 116.146,-1037 "/>
<text text-anchor="middle" x="61" y="-1025" font-family="Helvetica,sans-Serif" font-size="10.00"> </text>
<polyline fill="none" stroke="black" points="5.854,-1019 116.146,-1019 "/>
<text text-anchor="middle" x="61" y="-1007" font-family="Helvetica,sans-Serif" font-size="10.00"> </text>
</a>
</g>
</g>
<!-- Node5&#45;&gt;Node4 -->
<g id="edge4" class="edge"><title>Node5&#45;&gt;Node4</title>
<path fill="none" stroke="midnightblue" d="M60.585,-990.684C60.4886,-982.251 60.381,-972.84 60.2686,-963.001"/>
<polygon fill="none" stroke="midnightblue" points="57.0864,-990.841 60.7006,-1000.8 64.086,-990.761 57.0864,-990.841"/>
</g>
<!-- Node6 -->
<g id="node6" class="node"><title>Node6</title>
<g id="a_node6"><a xlink:href="classapi_1_1_work_object.html" target="_top" xlink:title="WorkObject Class. ">
<polygon fill="none" stroke="black" points="50.9141,-1093 50.9141,-1237 193.086,-1237 193.086,-1093 50.9141,-1093"/>
<text text-anchor="middle" x="122" y="-1225" font-family="Helvetica,sans-Serif" font-size="10.00">api::WorkObject</text>
<polyline fill="none" stroke="black" points="50.9141,-1219 193.086,-1219 "/>
<text text-anchor="middle" x="122" y="-1207" font-family="Helvetica,sans-Serif" font-size="10.00"> </text>
<polyline fill="none" stroke="black" points="50.9141,-1201 193.086,-1201 "/>
<text text-anchor="start" x="58.9141" y="-1189" font-family="Helvetica,sans-Serif" font-size="10.00">+ WorkObject()</text>
<text text-anchor="start" x="58.9141" y="-1179" font-family="Helvetica,sans-Serif" font-size="10.00">+ clear_error_number()</text>
<text text-anchor="start" x="58.9141" y="-1169" font-family="Helvetica,sans-Serif" font-size="10.00">+ error_number()</text>
<text text-anchor="start" x="58.9141" y="-1159" font-family="Helvetica,sans-Serif" font-size="10.00">+ exit_fatal()</text>
<text text-anchor="start" x="58.9141" y="-1149" font-family="Helvetica,sans-Serif" font-size="10.00"># set_error_number()</text>
<text text-anchor="start" x="58.9141" y="-1139" font-family="Helvetica,sans-Serif" font-size="10.00"># set_error_number_if</text>
<text text-anchor="start" x="58.9141" y="-1129" font-family="Helvetica,sans-Serif" font-size="10.00">_error()</text>
<text text-anchor="start" x="58.9141" y="-1119" font-family="Helvetica,sans-Serif" font-size="10.00"># set_error_number_if_null()</text>
<text text-anchor="start" x="58.9141" y="-1109" font-family="Helvetica,sans-Serif" font-size="10.00"># set_error_number_to</text>
<text text-anchor="start" x="58.9141" y="-1099" font-family="Helvetica,sans-Serif" font-size="10.00">_errno()</text>
</a>
</g>
</g>
<!-- Node6&#45;&gt;Node5 -->
<g id="edge5" class="edge"><title>Node6&#45;&gt;Node5</title>
<path fill="none" stroke="midnightblue" d="M85.6404,-1083.53C81.0532,-1073.38 76.6498,-1063.63 72.8666,-1055.26"/>
<polygon fill="none" stroke="midnightblue" points="82.585,-1085.27 89.8923,-1092.94 88.964,-1082.39 82.585,-1085.27"/>
</g>
<!-- Node9 -->
<g id="node9" class="node"><title>Node9</title>
<g id="a_node9"><a xlink:href="classapi_1_1_ev_work_object.html" target="_top" xlink:title="Event Object Class. ">
<polygon fill="none" stroke="black" points="134.687,-1001 134.687,-1055 233.313,-1055 233.313,-1001 134.687,-1001"/>
<text text-anchor="middle" x="184" y="-1043" font-family="Helvetica,sans-Serif" font-size="10.00">api::EvWorkObject</text>
<polyline fill="none" stroke="black" points="134.687,-1037 233.313,-1037 "/>
<text text-anchor="middle" x="184" y="-1025" font-family="Helvetica,sans-Serif" font-size="10.00"> </text>
<polyline fill="none" stroke="black" points="134.687,-1019 233.313,-1019 "/>
<text text-anchor="middle" x="184" y="-1007" font-family="Helvetica,sans-Serif" font-size="10.00"> </text>
</a>
</g>
</g>
<!-- Node6&#45;&gt;Node9 -->
<g id="edge9" class="edge"><title>Node6&#45;&gt;Node9</title>
<path fill="none" stroke="midnightblue" d="M158.813,-1083.84C163.527,-1073.58 168.054,-1063.72 171.939,-1055.26"/>
<polygon fill="none" stroke="midnightblue" points="155.627,-1082.39 154.634,-1092.94 161.988,-1085.32 155.627,-1082.39"/>
</g>
<!-- Node7 -->
<g id="node7" class="node"><title>Node7</title>
<g id="a_node7"><a xlink:href="classapi_1_1_api_object.html" target="_top" xlink:title="API Object Class. ">
<polygon fill="none" stroke="black" points="80.7896,-1275 80.7896,-1329 163.21,-1329 163.21,-1275 80.7896,-1275"/>
<text text-anchor="middle" x="122" y="-1317" font-family="Helvetica,sans-Serif" font-size="10.00">api::ApiObject</text>
<polyline fill="none" stroke="black" points="80.7896,-1311 163.21,-1311 "/>
<text text-anchor="middle" x="122" y="-1299" font-family="Helvetica,sans-Serif" font-size="10.00"> </text>
<polyline fill="none" stroke="black" points="80.7896,-1293 163.21,-1293 "/>
<text text-anchor="start" x="88.7896" y="-1281" font-family="Helvetica,sans-Serif" font-size="10.00">+ api_version()</text>
</a>
</g>
</g>
<!-- Node7&#45;&gt;Node6 -->
<g id="edge6" class="edge"><title>Node7&#45;&gt;Node6</title>
<path fill="none" stroke="midnightblue" d="M122,-1264.93C122,-1256.29 122,-1246.77 122,-1237.14"/>
<polygon fill="none" stroke="midnightblue" points="118.5,-1264.97 122,-1274.97 125.5,-1264.97 118.5,-1264.97"/>
</g>
<!-- Node8 -->
<g id="node8" class="node"><title>Node8</title>
<g id="a_node8"><a xlink:href="classev_1_1_event_handler.html" target="_top" xlink:title="Event Handler Class. ">
<polygon fill="none" stroke="black" points="136.584,-809 136.584,-893 235.416,-893 235.416,-809 136.584,-809"/>
<text text-anchor="middle" x="186" y="-881" font-family="Helvetica,sans-Serif" font-size="10.00">ev::EventHandler</text>
<polyline fill="none" stroke="black" points="136.584,-875 235.416,-875 "/>
<text text-anchor="middle" x="186" y="-863" font-family="Helvetica,sans-Serif" font-size="10.00"> </text>
<polyline fill="none" stroke="black" points="136.584,-857 235.416,-857 "/>
<text text-anchor="start" x="144.584" y="-845" font-family="Helvetica,sans-Serif" font-size="10.00">+ EventHandler()</text>
<text text-anchor="start" x="144.584" y="-835" font-family="Helvetica,sans-Serif" font-size="10.00">+ event_loop()</text>
<text text-anchor="start" x="144.584" y="-825" font-family="Helvetica,sans-Serif" font-size="10.00">+ handle_event()</text>
<text text-anchor="start" x="144.584" y="-815" font-family="Helvetica,sans-Serif" font-size="10.00"># set_event_loop()</text>
</a>
</g>
</g>
<!-- Node8&#45;&gt;Node3 -->
<g id="edge7" class="edge"><title>Node8&#45;&gt;Node3</title>
<path fill="none" stroke="midnightblue" d="M170.869,-799.171C162.135,-769.827 151.052,-732.595 141.649,-701.008"/>
<polygon fill="none" stroke="midnightblue" points="167.528,-800.214 173.736,-808.8 174.237,-798.217 167.528,-800.214"/>
</g>
<!-- Node9&#45;&gt;Node8 -->
<g id="edge8" class="edge"><title>Node9&#45;&gt;Node8</title>
<path fill="none" stroke="midnightblue" d="M184.417,-990.484C184.742,-962.041 185.194,-922.56 185.531,-893.029"/>
<polygon fill="none" stroke="midnightblue" points="180.914,-990.761 184.299,-1000.8 187.914,-990.841 180.914,-990.761"/>
</g>
<!-- Node10 -->
<g id="node10" class="node"><title>Node10</title>
<g id="a_node10"><a xlink:href="classui_1_1_list_attr.html" target="_top" xlink:title="List Attribute Class. ">
<polygon fill="none" stroke="black" points="188.398,-415 188.398,-529 303.602,-529 303.602,-415 188.398,-415"/>
<text text-anchor="middle" x="246" y="-517" font-family="Helvetica,sans-Serif" font-size="10.00">ui::ListAttr</text>
<polyline fill="none" stroke="black" points="188.398,-511 303.602,-511 "/>
<text text-anchor="middle" x="246" y="-499" font-family="Helvetica,sans-Serif" font-size="10.00"> </text>
<polyline fill="none" stroke="black" points="188.398,-493 303.602,-493 "/>
<text text-anchor="start" x="196.398" y="-481" font-family="Helvetica,sans-Serif" font-size="10.00">+ ListAttr()</text>
<text text-anchor="start" x="196.398" y="-471" font-family="Helvetica,sans-Serif" font-size="10.00">+ calc_display_items()</text>
<text text-anchor="start" x="196.398" y="-461" font-family="Helvetica,sans-Serif" font-size="10.00">+ calc_next_visible()</text>
<text text-anchor="start" x="196.398" y="-451" font-family="Helvetica,sans-Serif" font-size="10.00">+ calc_visible_offset()</text>
<text text-anchor="start" x="196.398" y="-441" font-family="Helvetica,sans-Serif" font-size="10.00">+ dec_selected()</text>
<text text-anchor="start" x="196.398" y="-431" font-family="Helvetica,sans-Serif" font-size="10.00">+ inc_selected()</text>
<text text-anchor="start" x="196.398" y="-421" font-family="Helvetica,sans-Serif" font-size="10.00">and 7 more...</text>
</a>
</g>
</g>
<!-- Node10&#45;&gt;Node1 -->
<g id="edge10" class="edge"><title>Node10&#45;&gt;Node1</title>
<path fill="none" stroke="midnightblue" d="M225.592,-405.168C222.801,-396.165 219.88,-386.741 216.935,-377.243"/>
<polygon fill="none" stroke="midnightblue" points="222.26,-406.241 228.565,-414.757 228.947,-404.169 222.26,-406.241"/>
</g>
</g>
</svg>
