<?xml version="1.0" encoding="UTF-8" standalone="no"?>
<!DOCTYPE svg PUBLIC "-//W3C//DTD SVG 1.1//EN"
 "http://www.w3.org/Graphics/SVG/1.1/DTD/svg11.dtd">
<!-- Generated by graphviz version 2.36.0 (20140111.2315)
 -->
<!-- Title: sgfx::MemoryFont Pages: 1 -->
<svg width="136pt" height="742pt"
 viewBox="0.00 0.00 136.00 742.00" xmlns="http://www.w3.org/2000/svg" xmlns:xlink="http://www.w3.org/1999/xlink">
<g id="graph0" class="graph" transform="scale(1 1) rotate(0) translate(4 738)">
<title>sgfx::MemoryFont</title>
<!-- Node1 -->
<g id="node1" class="node"><title>Node1</title>
<polygon fill="#bfbfbf" stroke="black" points="-0.975098,-1 -0.975098,-135 128.975,-135 128.975,-1 -0.975098,-1"/>
<text text-anchor="middle" x="64" y="-123" font-family="Helvetica,sans-Serif" font-size="10.00">sgfx::MemoryFont</text>
<polyline fill="none" stroke="black" points="-0.975098,-117 128.975,-117 "/>
<text text-anchor="middle" x="64" y="-105" font-family="Helvetica,sans-Serif" font-size="10.00"> </text>
<polyline fill="none" stroke="black" points="-0.975098,-99 128.975,-99 "/>
<text text-anchor="start" x="7.0249" y="-87" font-family="Helvetica,sans-Serif" font-size="10.00">+ MemoryFont()</text>
<text text-anchor="start" x="7.0249" y="-77" font-family="Helvetica,sans-Serif" font-size="10.00">+ MemoryFont()</text>
<text text-anchor="start" x="7.0249" y="-67" font-family="Helvetica,sans-Serif" font-size="10.00">+ font_memory()</text>
<text text-anchor="start" x="7.0249" y="-57" font-family="Helvetica,sans-Serif" font-size="10.00">+ get_height()</text>
<text text-anchor="start" x="7.0249" y="-47" font-family="Helvetica,sans-Serif" font-size="10.00">+ get_width()</text>
<text text-anchor="start" x="7.0249" y="-37" font-family="Helvetica,sans-Serif" font-size="10.00">+ set_font_memory()</text>
<text text-anchor="start" x="7.0249" y="-27" font-family="Helvetica,sans-Serif" font-size="10.00"># draw_char_on_bitmap()</text>
<text text-anchor="start" x="7.0249" y="-17" font-family="Helvetica,sans-Serif" font-size="10.00"># load_char()</text>
<text text-anchor="start" x="7.0249" y="-7" font-family="Helvetica,sans-Serif" font-size="10.00"># load_kerning()</text>
</g>
<!-- Node2 -->
<g id="node2" class="node"><title>Node2</title>
<g id="a_node2"><a xlink:href="classsgfx_1_1_font.html" target="_top" xlink:title="Font class. ">
<polygon fill="none" stroke="black" points="-0.975098,-173 -0.975098,-377 128.975,-377 128.975,-173 -0.975098,-173"/>
<text text-anchor="middle" x="64" y="-365" font-family="Helvetica,sans-Serif" font-size="10.00">sgfx::Font</text>
<polyline fill="none" stroke="black" points="-0.975098,-359 128.975,-359 "/>
<text text-anchor="start" x="7.0249" y="-347" font-family="Helvetica,sans-Serif" font-size="10.00"># m_char</text>
<text text-anchor="start" x="7.0249" y="-337" font-family="Helvetica,sans-Serif" font-size="10.00"># m_hdr</text>
<text text-anchor="start" x="7.0249" y="-327" font-family="Helvetica,sans-Serif" font-size="10.00"># m_letter_spacing</text>
<text text-anchor="start" x="7.0249" y="-317" font-family="Helvetica,sans-Serif" font-size="10.00"># m_offset</text>
<text text-anchor="start" x="7.0249" y="-307" font-family="Helvetica,sans-Serif" font-size="10.00"># m_space_size</text>
<polyline fill="none" stroke="black" points="-0.975098,-301 128.975,-301 "/>
<text text-anchor="start" x="7.0249" y="-289" font-family="Helvetica,sans-Serif" font-size="10.00">+ Font()</text>
<text text-anchor="start" x="7.0249" y="-279" font-family="Helvetica,sans-Serif" font-size="10.00">+ bits_per_pixel()</text>
<text text-anchor="start" x="7.0249" y="-269" font-family="Helvetica,sans-Serif" font-size="10.00">+ calc_len()</text>
<text text-anchor="start" x="7.0249" y="-259" font-family="Helvetica,sans-Serif" font-size="10.00">+ character()</text>
<text text-anchor="start" x="7.0249" y="-249" font-family="Helvetica,sans-Serif" font-size="10.00">+ draw_char()</text>
<text text-anchor="start" x="7.0249" y="-239" font-family="Helvetica,sans-Serif" font-size="10.00">+ draw_str()</text>
<text text-anchor="start" x="7.0249" y="-229" font-family="Helvetica,sans-Serif" font-size="10.00">and 11 more...</text>
<text text-anchor="start" x="7.0249" y="-219" font-family="Helvetica,sans-Serif" font-size="10.00">+ charset()</text>
<text text-anchor="start" x="7.0249" y="-209" font-family="Helvetica,sans-Serif" font-size="10.00"># draw_char_on_bitmap()</text>
<text text-anchor="start" x="7.0249" y="-199" font-family="Helvetica,sans-Serif" font-size="10.00"># load_char()</text>
<text text-anchor="start" x="7.0249" y="-189" font-family="Helvetica,sans-Serif" font-size="10.00"># load_kerning()</text>
<text text-anchor="start" x="7.0249" y="-179" font-family="Helvetica,sans-Serif" font-size="10.00"># to_charset()</text>
</a>
</g>
</g>
<!-- Node2&#45;&gt;Node1 -->
<g id="edge1" class="edge"><title>Node2&#45;&gt;Node1</title>
<path fill="none" stroke="midnightblue" d="M64,-162.582C64,-153.279 64,-144.075 64,-135.279"/>
<polygon fill="none" stroke="midnightblue" points="60.5001,-162.701 64,-172.701 67.5001,-162.701 60.5001,-162.701"/>
</g>
<!-- Node3 -->
<g id="node3" class="node"><title>Node3</title>
<g id="a_node3"><a xlink:href="classapi_1_1_sgfx_work_object.html" target="_top" xlink:title="Sgfx Object Class. ">
<polygon fill="none" stroke="black" points="10.5166,-415 10.5166,-469 117.483,-469 117.483,-415 10.5166,-415"/>
<text text-anchor="middle" x="64" y="-457" font-family="Helvetica,sans-Serif" font-size="10.00">api::SgfxWorkObject</text>
<polyline fill="none" stroke="black" points="10.5166,-451 117.483,-451 "/>
<text text-anchor="middle" x="64" y="-439" font-family="Helvetica,sans-Serif" font-size="10.00"> </text>
<polyline fill="none" stroke="black" points="10.5166,-433 117.483,-433 "/>
<text text-anchor="middle" x="64" y="-421" font-family="Helvetica,sans-Serif" font-size="10.00"> </text>
</a>
</g>
</g>
<!-- Node3&#45;&gt;Node2 -->
<g id="edge2" class="edge"><title>Node3&#45;&gt;Node2</title>
<path fill="none" stroke="midnightblue" d="M64,-404.706C64,-396.256 64,-386.851 64,-377.079"/>
<polygon fill="none" stroke="midnightblue" points="60.5001,-404.855 64,-414.855 67.5001,-404.855 60.5001,-404.855"/>
</g>
<!-- Node4 -->
<g id="node4" class="node"><title>Node4</title>
<g id="a_node4"><a xlink:href="classapi_1_1_work_object.html" target="_top" xlink:title="WorkObject Class. ">
<polygon fill="none" stroke="black" points="4.45215,-507 4.45215,-641 123.548,-641 123.548,-507 4.45215,-507"/>
<text text-anchor="middle" x="64" y="-629" font-family="Helvetica,sans-Serif" font-size="10.00">api::WorkObject</text>
<polyline fill="none" stroke="black" points="4.45215,-623 123.548,-623 "/>
<text text-anchor="middle" x="64" y="-611" font-family="Helvetica,sans-Serif" font-size="10.00"> </text>
<polyline fill="none" stroke="black" points="4.45215,-605 123.548,-605 "/>
<text text-anchor="start" x="12.4521" y="-593" font-family="Helvetica,sans-Serif" font-size="10.00">+ WorkObject()</text>
<text text-anchor="start" x="12.4521" y="-583" font-family="Helvetica,sans-Serif" font-size="10.00">+ clear_error_number()</text>
<text text-anchor="start" x="12.4521" y="-573" font-family="Helvetica,sans-Serif" font-size="10.00">+ error_number()</text>
<text text-anchor="start" x="12.4521" y="-563" font-family="Helvetica,sans-Serif" font-size="10.00">+ exit_fatal()</text>
<text text-anchor="start" x="12.4521" y="-553" font-family="Helvetica,sans-Serif" font-size="10.00"># set_error_number()</text>
<text text-anchor="start" x="12.4521" y="-543" font-family="Helvetica,sans-Serif" font-size="10.00"># set_error_number_if</text>
<text text-anchor="start" x="12.4521" y="-533" font-family="Helvetica,sans-Serif" font-size="10.00">_error()</text>
<text text-anchor="start" x="12.4521" y="-523" font-family="Helvetica,sans-Serif" font-size="10.00"># set_error_number_to</text>
<text text-anchor="start" x="12.4521" y="-513" font-family="Helvetica,sans-Serif" font-size="10.00">_errno()</text>
</a>
</g>
</g>
<!-- Node4&#45;&gt;Node3 -->
<g id="edge3" class="edge"><title>Node4&#45;&gt;Node3</title>
<path fill="none" stroke="midnightblue" d="M64,-496.838C64,-486.903 64,-477.326 64,-469.074"/>
<polygon fill="none" stroke="midnightblue" points="60.5001,-496.857 64,-506.857 67.5001,-496.858 60.5001,-496.857"/>
</g>
<!-- Node5 -->
<g id="node5" class="node"><title>Node5</title>
<g id="a_node5"><a xlink:href="classapi_1_1_api_object.html" target="_top" xlink:title="API Object Class. ">
<polygon fill="none" stroke="black" points="22.7896,-679 22.7896,-733 105.21,-733 105.21,-679 22.7896,-679"/>
<text text-anchor="middle" x="64" y="-721" font-family="Helvetica,sans-Serif" font-size="10.00">api::ApiObject</text>
<polyline fill="none" stroke="black" points="22.7896,-715 105.21,-715 "/>
<text text-anchor="middle" x="64" y="-703" font-family="Helvetica,sans-Serif" font-size="10.00"> </text>
<polyline fill="none" stroke="black" points="22.7896,-697 105.21,-697 "/>
<text text-anchor="start" x="30.7896" y="-685" font-family="Helvetica,sans-Serif" font-size="10.00">+ api_version()</text>
</a>
</g>
</g>
<!-- Node5&#45;&gt;Node4 -->
<g id="edge4" class="edge"><title>Node5&#45;&gt;Node4</title>
<path fill="none" stroke="midnightblue" d="M64,-668.644C64,-660.02 64,-650.555 64,-641.059"/>
<polygon fill="none" stroke="midnightblue" points="60.5001,-668.693 64,-678.693 67.5001,-668.693 60.5001,-668.693"/>
</g>
</g>
</svg>
