<?xml version="1.0" encoding="UTF-8" standalone="no"?>
<!DOCTYPE svg PUBLIC "-//W3C//DTD SVG 1.1//EN"
 "http://www.w3.org/Graphics/SVG/1.1/DTD/svg11.dtd">
<!-- Generated by graphviz version 2.36.0 (20140111.2315)
 -->
<!-- Title: calc::Ema_s16 Pages: 1 -->
<svg width="183pt" height="524pt"
 viewBox="0.00 0.00 183.00 524.00" xmlns="http://www.w3.org/2000/svg" xmlns:xlink="http://www.w3.org/1999/xlink">
<g id="graph0" class="graph" transform="scale(1 1) rotate(0) translate(4 520)">
<title>calc::Ema_s16</title>
<!-- Node1 -->
<g id="node1" class="node"><title>Node1</title>
<polygon fill="#bfbfbf" stroke="black" points="11.207,-1 11.207,-55 92.793,-55 92.793,-1 11.207,-1"/>
<text text-anchor="middle" x="52" y="-43" font-family="Helvetica,sans-Serif" font-size="10.00">calc::Ema_s16</text>
<polyline fill="none" stroke="black" points="11.207,-37 92.793,-37 "/>
<text text-anchor="middle" x="52" y="-25" font-family="Helvetica,sans-Serif" font-size="10.00"> </text>
<polyline fill="none" stroke="black" points="11.207,-19 92.793,-19 "/>
<text text-anchor="start" x="19.207" y="-7" font-family="Helvetica,sans-Serif" font-size="10.00">+ Ema_s16()</text>
</g>
<!-- Node2 -->
<g id="node2" class="node"><title>Node2</title>
<g id="a_node2"><a xlink:href="classcalc_1_1_ema.html" target="_top" xlink:title="{calc::Ema\&lt; u8, s16,\l s32 \&gt;\n||+ Ema()\l+ average()\l+ calc()\l+ set_average()\l+ small_max()\l}">
<polygon fill="none" stroke="black" points="-0.050293,-95 -0.050293,-199 104.05,-199 104.05,-95 -0.050293,-95"/>
<text text-anchor="start" x="7.94971" y="-187" font-family="Helvetica,sans-Serif" font-size="10.00">calc::Ema&lt; u8, s16,</text>
<text text-anchor="middle" x="52" y="-177" font-family="Helvetica,sans-Serif" font-size="10.00"> s32 &gt;</text>
<polyline fill="none" stroke="black" points="-0.050293,-171 104.05,-171 "/>
<text text-anchor="middle" x="52" y="-159" font-family="Helvetica,sans-Serif" font-size="10.00"> </text>
<polyline fill="none" stroke="black" points="-0.050293,-153 104.05,-153 "/>
<text text-anchor="start" x="7.94971" y="-141" font-family="Helvetica,sans-Serif" font-size="10.00">+ Ema()</text>
<text text-anchor="start" x="7.94971" y="-131" font-family="Helvetica,sans-Serif" font-size="10.00">+ average()</text>
<text text-anchor="start" x="7.94971" y="-121" font-family="Helvetica,sans-Serif" font-size="10.00">+ calc()</text>
<text text-anchor="start" x="7.94971" y="-111" font-family="Helvetica,sans-Serif" font-size="10.00">+ set_average()</text>
<text text-anchor="start" x="7.94971" y="-101" font-family="Helvetica,sans-Serif" font-size="10.00">+ small_max()</text>
</a>
</g>
</g>
<!-- Node2&#45;&gt;Node1 -->
<g id="edge1" class="edge"><title>Node2&#45;&gt;Node1</title>
<path fill="none" stroke="midnightblue" d="M52,-84.4073C52,-74.1278 52,-63.9761 52,-55.2263"/>
<polygon fill="none" stroke="midnightblue" points="48.5001,-84.6821 52,-94.6821 55.5001,-84.6821 48.5001,-84.6821"/>
</g>
<!-- Node3 -->
<g id="node3" class="node"><title>Node3</title>
<g id="a_node3"><a xlink:href="classapi_1_1_s_object.html" target="_top" xlink:title="SObject Class. ">
<polygon fill="none" stroke="black" points="5.80811,-391 5.80811,-515 120.192,-515 120.192,-391 5.80811,-391"/>
<text text-anchor="middle" x="63" y="-503" font-family="Helvetica,sans-Serif" font-size="10.00">api::SObject</text>
<polyline fill="none" stroke="black" points="5.80811,-497 120.192,-497 "/>
<text text-anchor="middle" x="63" y="-485" font-family="Helvetica,sans-Serif" font-size="10.00"> </text>
<polyline fill="none" stroke="black" points="5.80811,-479 120.192,-479 "/>
<text text-anchor="start" x="13.8081" y="-467" font-family="Helvetica,sans-Serif" font-size="10.00">+ SObject()</text>
<text text-anchor="start" x="13.8081" y="-457" font-family="Helvetica,sans-Serif" font-size="10.00">+ api_version()</text>
<text text-anchor="start" x="13.8081" y="-447" font-family="Helvetica,sans-Serif" font-size="10.00">+ clear_error()</text>
<text text-anchor="start" x="13.8081" y="-437" font-family="Helvetica,sans-Serif" font-size="10.00">+ error_number()</text>
<text text-anchor="start" x="13.8081" y="-427" font-family="Helvetica,sans-Serif" font-size="10.00">+ exit_fatal()</text>
<text text-anchor="start" x="13.8081" y="-417" font-family="Helvetica,sans-Serif" font-size="10.00"># set_error_number()</text>
<text text-anchor="start" x="13.8081" y="-407" font-family="Helvetica,sans-Serif" font-size="10.00"># set_error_number_if</text>
<text text-anchor="start" x="13.8081" y="-397" font-family="Helvetica,sans-Serif" font-size="10.00">_error()</text>
</a>
</g>
</g>
<!-- Node3&#45;&gt;Node2 -->
<g id="edge2" class="edge"><title>Node3&#45;&gt;Node2</title>
<path fill="none" stroke="midnightblue" d="M56.7404,-380.915C56.0529,-371.205 55.4428,-361.361 55,-352 52.5398,-299.99 51.9158,-240.446 51.8304,-199.169"/>
<polygon fill="none" stroke="midnightblue" points="53.2551,-381.244 57.4811,-390.96 60.2361,-380.73 53.2551,-381.244"/>
</g>
<!-- Node4 -->
<g id="node4" class="node"><title>Node4</title>
<g id="a_node4"><a xlink:href="classcalc_1_1_ema.html" target="_top" xlink:title="Exponential Moving Average template class. ">
<polygon fill="none" stroke="black" points="64.0605,-247 64.0605,-351 175.939,-351 175.939,-247 64.0605,-247"/>
<text text-anchor="start" x="72.0605" y="-339" font-family="Helvetica,sans-Serif" font-size="10.00">calc::Ema&lt; intsmall,</text>
<text text-anchor="middle" x="120" y="-329" font-family="Helvetica,sans-Serif" font-size="10.00"> intmedium, intlarge &gt;</text>
<polyline fill="none" stroke="black" points="64.0605,-323 175.939,-323 "/>
<text text-anchor="middle" x="120" y="-311" font-family="Helvetica,sans-Serif" font-size="10.00"> </text>
<polyline fill="none" stroke="black" points="64.0605,-305 175.939,-305 "/>
<text text-anchor="start" x="72.0605" y="-293" font-family="Helvetica,sans-Serif" font-size="10.00">+ Ema()</text>
<text text-anchor="start" x="72.0605" y="-283" font-family="Helvetica,sans-Serif" font-size="10.00">+ average()</text>
<text text-anchor="start" x="72.0605" y="-273" font-family="Helvetica,sans-Serif" font-size="10.00">+ calc()</text>
<text text-anchor="start" x="72.0605" y="-263" font-family="Helvetica,sans-Serif" font-size="10.00">+ set_average()</text>
<text text-anchor="start" x="72.0605" y="-253" font-family="Helvetica,sans-Serif" font-size="10.00">+ small_max()</text>
</a>
</g>
</g>
<!-- Node3&#45;&gt;Node4 -->
<g id="edge4" class="edge"><title>Node3&#45;&gt;Node4</title>
<path fill="none" stroke="midnightblue" d="M89.5974,-381.074C93.352,-371.061 97.1508,-360.931 100.732,-351.382"/>
<polygon fill="none" stroke="midnightblue" points="86.2539,-380.022 86.0198,-390.614 92.8082,-382.48 86.2539,-380.022"/>
</g>
<!-- Node4&#45;&gt;Node2 -->
<g id="edge3" class="edge"><title>Node4&#45;&gt;Node2</title>
<path fill="none" stroke="orange" d="M92.641,-237.649C86.8668,-224.912 80.8267,-211.588 75.2223,-199.226"/>
<polygon fill="orange" stroke="orange" points="89.4718,-239.135 96.7884,-246.798 95.8473,-236.245 89.4718,-239.135"/>
<text text-anchor="middle" x="125.249" y="-220" font-family="Helvetica,sans-Serif" font-size="10.00"> &lt; u8, s16, s32 &gt;</text>
</g>
</g>
</svg>
