<?xml version="1.0" encoding="UTF-8" standalone="no"?>
<!DOCTYPE svg PUBLIC "-//W3C//DTD SVG 1.1//EN"
 "http://www.w3.org/Graphics/SVG/1.1/DTD/svg11.dtd">
<!-- Generated by graphviz version 2.36.0 (20140111.2315)
 -->
<!-- Title: hal::I2CPinAssignment Pages: 1 -->
<svg width="189pt" height="440pt"
 viewBox="0.00 0.00 188.74 440.00" xmlns="http://www.w3.org/2000/svg" xmlns:xlink="http://www.w3.org/1999/xlink">
<g id="graph0" class="graph" transform="scale(1 1) rotate(0) translate(4 436)">
<title>hal::I2CPinAssignment</title>
<!-- Node1 -->
<g id="node1" class="node"><title>Node1</title>
<polygon fill="#bfbfbf" stroke="black" points="5.41895,-1 5.41895,-55 122.581,-55 122.581,-1 5.41895,-1"/>
<text text-anchor="middle" x="64" y="-43" font-family="Helvetica,sans-Serif" font-size="10.00">hal::I2CPinAssignment</text>
<polyline fill="none" stroke="black" points="5.41895,-37 122.581,-37 "/>
<text text-anchor="middle" x="64" y="-25" font-family="Helvetica,sans-Serif" font-size="10.00"> </text>
<polyline fill="none" stroke="black" points="5.41895,-19 122.581,-19 "/>
<text text-anchor="middle" x="64" y="-7" font-family="Helvetica,sans-Serif" font-size="10.00"> </text>
</g>
<!-- Node2 -->
<g id="node2" class="node"><title>Node2</title>
<g id="a_node2"><a xlink:href="classhal_1_1_pin_assignment.html" target="_top" xlink:title="{hal::PinAssignment\l\&lt; i2c_pin_assignment_t \&gt;\n||+ PinAssignment()\l+ assign()\l+ clear()\l+ copy()\l+ count()\l+ operator const i2c\l_pin_assignment_t *()\l+ operator&#45;\&gt;()\l+ size()\l}">
<polygon fill="none" stroke="black" points="-0.982422,-95 -0.982422,-239 128.982,-239 128.982,-95 -0.982422,-95"/>
<text text-anchor="start" x="7.01758" y="-227" font-family="Helvetica,sans-Serif" font-size="10.00">hal::PinAssignment</text>
<text text-anchor="middle" x="64" y="-217" font-family="Helvetica,sans-Serif" font-size="10.00">&lt; i2c_pin_assignment_t &gt;</text>
<polyline fill="none" stroke="black" points="-0.982422,-211 128.982,-211 "/>
<text text-anchor="middle" x="64" y="-199" font-family="Helvetica,sans-Serif" font-size="10.00"> </text>
<polyline fill="none" stroke="black" points="-0.982422,-193 128.982,-193 "/>
<text text-anchor="start" x="7.01758" y="-181" font-family="Helvetica,sans-Serif" font-size="10.00">+ PinAssignment()</text>
<text text-anchor="start" x="7.01758" y="-171" font-family="Helvetica,sans-Serif" font-size="10.00">+ assign()</text>
<text text-anchor="start" x="7.01758" y="-161" font-family="Helvetica,sans-Serif" font-size="10.00">+ clear()</text>
<text text-anchor="start" x="7.01758" y="-151" font-family="Helvetica,sans-Serif" font-size="10.00">+ copy()</text>
<text text-anchor="start" x="7.01758" y="-141" font-family="Helvetica,sans-Serif" font-size="10.00">+ count()</text>
<text text-anchor="start" x="7.01758" y="-131" font-family="Helvetica,sans-Serif" font-size="10.00">+ operator const i2c</text>
<text text-anchor="start" x="7.01758" y="-121" font-family="Helvetica,sans-Serif" font-size="10.00">_pin_assignment_t *()</text>
<text text-anchor="start" x="7.01758" y="-111" font-family="Helvetica,sans-Serif" font-size="10.00">+ operator&#45;&gt;()</text>
<text text-anchor="start" x="7.01758" y="-101" font-family="Helvetica,sans-Serif" font-size="10.00">+ size()</text>
</a>
</g>
</g>
<!-- Node2&#45;&gt;Node1 -->
<g id="edge1" class="edge"><title>Node2&#45;&gt;Node1</title>
<path fill="none" stroke="midnightblue" d="M64,-84.4559C64,-73.882 64,-63.7388 64,-55.0848"/>
<polygon fill="none" stroke="midnightblue" points="60.5001,-84.6911 64,-94.6911 67.5001,-84.6912 60.5001,-84.6911"/>
</g>
<!-- Node3 -->
<g id="node3" class="node"><title>Node3</title>
<g id="a_node3"><a xlink:href="classhal_1_1_pin_assignment.html" target="_top" xlink:title="Pin Assignment Class. ">
<polygon fill="none" stroke="black" points="0.128418,-287 0.128418,-431 127.872,-431 127.872,-287 0.128418,-287"/>
<text text-anchor="start" x="8.12842" y="-419" font-family="Helvetica,sans-Serif" font-size="10.00">hal::PinAssignment</text>
<text text-anchor="middle" x="64" y="-409" font-family="Helvetica,sans-Serif" font-size="10.00">&lt; pin_assignment_type &gt;</text>
<polyline fill="none" stroke="black" points="0.128418,-403 127.872,-403 "/>
<text text-anchor="middle" x="64" y="-391" font-family="Helvetica,sans-Serif" font-size="10.00"> </text>
<polyline fill="none" stroke="black" points="0.128418,-385 127.872,-385 "/>
<text text-anchor="start" x="8.12842" y="-373" font-family="Helvetica,sans-Serif" font-size="10.00">+ PinAssignment()</text>
<text text-anchor="start" x="8.12842" y="-363" font-family="Helvetica,sans-Serif" font-size="10.00">+ assign()</text>
<text text-anchor="start" x="8.12842" y="-353" font-family="Helvetica,sans-Serif" font-size="10.00">+ clear()</text>
<text text-anchor="start" x="8.12842" y="-343" font-family="Helvetica,sans-Serif" font-size="10.00">+ copy()</text>
<text text-anchor="start" x="8.12842" y="-333" font-family="Helvetica,sans-Serif" font-size="10.00">+ count()</text>
<text text-anchor="start" x="8.12842" y="-323" font-family="Helvetica,sans-Serif" font-size="10.00">+ operator const pin</text>
<text text-anchor="start" x="8.12842" y="-313" font-family="Helvetica,sans-Serif" font-size="10.00">_assignment_type *()</text>
<text text-anchor="start" x="8.12842" y="-303" font-family="Helvetica,sans-Serif" font-size="10.00">+ operator&#45;&gt;()</text>
<text text-anchor="start" x="8.12842" y="-293" font-family="Helvetica,sans-Serif" font-size="10.00">+ size()</text>
</a>
</g>
</g>
<!-- Node3&#45;&gt;Node2 -->
<g id="edge2" class="edge"><title>Node3&#45;&gt;Node2</title>
<path fill="none" stroke="orange" d="M64,-276.63C64,-264.196 64,-251.444 64,-239.249"/>
<polygon fill="orange" stroke="orange" points="60.5001,-276.981 64,-286.981 67.5001,-276.981 60.5001,-276.981"/>
<text text-anchor="middle" x="122.372" y="-260" font-family="Helvetica,sans-Serif" font-size="10.00"> &lt; i2c_pin_assignment_t &gt;</text>
</g>
</g>
</svg>
