<?xml version="1.0" encoding="UTF-8" standalone="no"?>
<!DOCTYPE svg PUBLIC "-//W3C//DTD SVG 1.1//EN"
 "http://www.w3.org/Graphics/SVG/1.1/DTD/svg11.dtd">
<!-- Generated by graphviz version 2.36.0 (20140111.2315)
 -->
<!-- Title: chrono::Clock Pages: 1 -->
<svg width="124pt" height="400pt"
 viewBox="0.00 0.00 124.00 400.00" xmlns="http://www.w3.org/2000/svg" xmlns:xlink="http://www.w3.org/1999/xlink">
<g id="graph0" class="graph" transform="scale(1 1) rotate(0) translate(4 396)">
<title>chrono::Clock</title>
<!-- Node1 -->
<g id="node1" class="node"><title>Node1</title>
<polygon fill="#bfbfbf" stroke="black" points="10.9497,-1 10.9497,-65 105.05,-65 105.05,-1 10.9497,-1"/>
<text text-anchor="middle" x="58" y="-53" font-family="Helvetica,sans-Serif" font-size="10.00">chrono::Clock</text>
<polyline fill="none" stroke="black" points="10.9497,-47 105.05,-47 "/>
<text text-anchor="middle" x="58" y="-35" font-family="Helvetica,sans-Serif" font-size="10.00"> </text>
<polyline fill="none" stroke="black" points="10.9497,-29 105.05,-29 "/>
<text text-anchor="start" x="18.9497" y="-17" font-family="Helvetica,sans-Serif" font-size="10.00">+ get_resolution()</text>
<text text-anchor="start" x="18.9497" y="-7" font-family="Helvetica,sans-Serif" font-size="10.00">+ get_time()</text>
</g>
<!-- Node2 -->
<g id="node2" class="node"><title>Node2</title>
<g id="a_node2"><a xlink:href="classapi_1_1_chrono_info_object.html" target="_top" xlink:title="Chrono Information Object. ">
<polygon fill="none" stroke="black" points="-0.15625,-103 -0.15625,-207 116.156,-207 116.156,-103 -0.15625,-103"/>
<text text-anchor="middle" x="58" y="-195" font-family="Helvetica,sans-Serif" font-size="10.00">api::ChronoInfoObject</text>
<polyline fill="none" stroke="black" points="-0.15625,-189 116.156,-189 "/>
<text text-anchor="middle" x="58" y="-177" font-family="Helvetica,sans-Serif" font-size="10.00"> </text>
<polyline fill="none" stroke="black" points="-0.15625,-171 116.156,-171 "/>
<text text-anchor="start" x="7.84375" y="-159" font-family="Helvetica,sans-Serif" font-size="10.00">+ wait()</text>
<text text-anchor="start" x="7.84375" y="-149" font-family="Helvetica,sans-Serif" font-size="10.00">+ wait()</text>
<text text-anchor="start" x="7.84375" y="-139" font-family="Helvetica,sans-Serif" font-size="10.00">+ wait()</text>
<text text-anchor="start" x="7.84375" y="-129" font-family="Helvetica,sans-Serif" font-size="10.00">+ wait_microseconds()</text>
<text text-anchor="start" x="7.84375" y="-119" font-family="Helvetica,sans-Serif" font-size="10.00">+ wait_milliseconds()</text>
<text text-anchor="start" x="7.84375" y="-109" font-family="Helvetica,sans-Serif" font-size="10.00">+ wait_seconds()</text>
</a>
</g>
</g>
<!-- Node2&#45;&gt;Node1 -->
<g id="edge1" class="edge"><title>Node2&#45;&gt;Node1</title>
<path fill="none" stroke="midnightblue" d="M58,-92.5389C58,-83.095 58,-73.6994 58,-65.2887"/>
<polygon fill="none" stroke="midnightblue" points="54.5001,-92.7611 58,-102.761 61.5001,-92.7612 54.5001,-92.7611"/>
</g>
<!-- Node3 -->
<g id="node3" class="node"><title>Node3</title>
<g id="a_node3"><a xlink:href="classapi_1_1_info_object.html" target="_top" xlink:title="API Information Object. ">
<polygon fill="none" stroke="black" points="17.7588,-245 17.7588,-299 98.2412,-299 98.2412,-245 17.7588,-245"/>
<text text-anchor="middle" x="58" y="-287" font-family="Helvetica,sans-Serif" font-size="10.00">api::InfoObject</text>
<polyline fill="none" stroke="black" points="17.7588,-281 98.2412,-281 "/>
<text text-anchor="middle" x="58" y="-269" font-family="Helvetica,sans-Serif" font-size="10.00"> </text>
<polyline fill="none" stroke="black" points="17.7588,-263 98.2412,-263 "/>
<text text-anchor="middle" x="58" y="-251" font-family="Helvetica,sans-Serif" font-size="10.00"> </text>
</a>
</g>
</g>
<!-- Node3&#45;&gt;Node2 -->
<g id="edge2" class="edge"><title>Node3&#45;&gt;Node2</title>
<path fill="none" stroke="midnightblue" d="M58,-234.747C58,-226.06 58,-216.621 58,-207.393"/>
<polygon fill="none" stroke="midnightblue" points="54.5001,-234.905 58,-244.905 61.5001,-234.905 54.5001,-234.905"/>
</g>
<!-- Node4 -->
<g id="node4" class="node"><title>Node4</title>
<g id="a_node4"><a xlink:href="classapi_1_1_api_object.html" target="_top" xlink:title="API Object Class. ">
<polygon fill="none" stroke="black" points="16.7896,-337 16.7896,-391 99.2104,-391 99.2104,-337 16.7896,-337"/>
<text text-anchor="middle" x="58" y="-379" font-family="Helvetica,sans-Serif" font-size="10.00">api::ApiObject</text>
<polyline fill="none" stroke="black" points="16.7896,-373 99.2104,-373 "/>
<text text-anchor="middle" x="58" y="-361" font-family="Helvetica,sans-Serif" font-size="10.00"> </text>
<polyline fill="none" stroke="black" points="16.7896,-355 99.2104,-355 "/>
<text text-anchor="start" x="24.7896" y="-343" font-family="Helvetica,sans-Serif" font-size="10.00">+ api_version()</text>
</a>
</g>
</g>
<!-- Node4&#45;&gt;Node3 -->
<g id="edge3" class="edge"><title>Node4&#45;&gt;Node3</title>
<path fill="none" stroke="midnightblue" d="M58,-326.865C58,-317.644 58,-307.907 58,-299.285"/>
<polygon fill="none" stroke="midnightblue" points="54.5001,-326.968 58,-336.968 61.5001,-326.968 54.5001,-326.968"/>
</g>
</g>
</svg>
