<?xml version="1.0" encoding="UTF-8" standalone="no"?>
<!DOCTYPE svg PUBLIC "-//W3C//DTD SVG 1.1//EN"
 "http://www.w3.org/Graphics/SVG/1.1/DTD/svg11.dtd">
<!-- Generated by graphviz version 2.36.0 (20140111.2315)
 -->
<!-- Title: sys::Signal Pages: 1 -->
<svg width="150pt" height="612pt"
 viewBox="0.00 0.00 150.00 612.00" xmlns="http://www.w3.org/2000/svg" xmlns:xlink="http://www.w3.org/1999/xlink">
<g id="graph0" class="graph" transform="scale(1 1) rotate(0) translate(4 608)">
<title>sys::Signal</title>
<!-- Node1 -->
<g id="node1" class="node"><title>Node1</title>
<polygon fill="#bfbfbf" stroke="black" points="33.5396,-123 33.5396,-237 108.46,-237 108.46,-123 33.5396,-123"/>
<text text-anchor="middle" x="71" y="-225" font-family="Helvetica,sans-Serif" font-size="10.00">sys::Signal</text>
<polyline fill="none" stroke="black" points="33.5396,-219 108.46,-219 "/>
<text text-anchor="middle" x="71" y="-207" font-family="Helvetica,sans-Serif" font-size="10.00"> </text>
<polyline fill="none" stroke="black" points="33.5396,-201 108.46,-201 "/>
<text text-anchor="start" x="41.5396" y="-189" font-family="Helvetica,sans-Serif" font-size="10.00">+ Signal()</text>
<text text-anchor="start" x="41.5396" y="-179" font-family="Helvetica,sans-Serif" font-size="10.00">+ Signal()</text>
<text text-anchor="start" x="41.5396" y="-169" font-family="Helvetica,sans-Serif" font-size="10.00">+ event()</text>
<text text-anchor="start" x="41.5396" y="-159" font-family="Helvetica,sans-Serif" font-size="10.00">+ queue()</text>
<text text-anchor="start" x="41.5396" y="-149" font-family="Helvetica,sans-Serif" font-size="10.00">+ send()</text>
<text text-anchor="start" x="41.5396" y="-139" font-family="Helvetica,sans-Serif" font-size="10.00">+ send()</text>
<text text-anchor="start" x="41.5396" y="-129" font-family="Helvetica,sans-Serif" font-size="10.00">and 5 more...</text>
</g>
<!-- Node5 -->
<g id="node5" class="node"><title>Node5</title>
<g id="a_node5"><a xlink:href="classhal_1_1_device_signal.html" target="_top" xlink:title="Class for bridging device events with Signal events. ">
<polygon fill="none" stroke="black" points="24.3672,-1 24.3672,-85 117.633,-85 117.633,-1 24.3672,-1"/>
<text text-anchor="middle" x="71" y="-73" font-family="Helvetica,sans-Serif" font-size="10.00">hal::DeviceSignal</text>
<polyline fill="none" stroke="black" points="24.3672,-67 117.633,-67 "/>
<text text-anchor="middle" x="71" y="-55" font-family="Helvetica,sans-Serif" font-size="10.00"> </text>
<polyline fill="none" stroke="black" points="24.3672,-49 117.633,-49 "/>
<text text-anchor="start" x="32.3672" y="-37" font-family="Helvetica,sans-Serif" font-size="10.00">+ DeviceSignal()</text>
<text text-anchor="start" x="32.3672" y="-27" font-family="Helvetica,sans-Serif" font-size="10.00">+ DeviceSignal()</text>
<text text-anchor="start" x="32.3672" y="-17" font-family="Helvetica,sans-Serif" font-size="10.00">+ DeviceSignal()</text>
<text text-anchor="start" x="32.3672" y="-7" font-family="Helvetica,sans-Serif" font-size="10.00">+ create_action()</text>
</a>
</g>
</g>
<!-- Node1&#45;&gt;Node5 -->
<g id="edge4" class="edge"><title>Node1&#45;&gt;Node5</title>
<path fill="none" stroke="midnightblue" d="M71,-112.794C71,-103.419 71,-94.0096 71,-85.2911"/>
<polygon fill="none" stroke="midnightblue" points="67.5001,-112.921 71,-122.921 74.5001,-112.921 67.5001,-112.921"/>
</g>
<!-- Node2 -->
<g id="node2" class="node"><title>Node2</title>
<g id="a_node2"><a xlink:href="classapi_1_1_sys_work_object.html" target="_top" xlink:title="System Work Object. ">
<polygon fill="none" stroke="black" points="19.1865,-275 19.1865,-329 122.813,-329 122.813,-275 19.1865,-275"/>
<text text-anchor="middle" x="71" y="-317" font-family="Helvetica,sans-Serif" font-size="10.00">api::SysWorkObject</text>
<polyline fill="none" stroke="black" points="19.1865,-311 122.813,-311 "/>
<text text-anchor="middle" x="71" y="-299" font-family="Helvetica,sans-Serif" font-size="10.00"> </text>
<polyline fill="none" stroke="black" points="19.1865,-293 122.813,-293 "/>
<text text-anchor="middle" x="71" y="-281" font-family="Helvetica,sans-Serif" font-size="10.00"> </text>
</a>
</g>
</g>
<!-- Node2&#45;&gt;Node1 -->
<g id="edge1" class="edge"><title>Node2&#45;&gt;Node1</title>
<path fill="none" stroke="midnightblue" d="M71,-264.754C71,-256.008 71,-246.458 71,-237.039"/>
<polygon fill="none" stroke="midnightblue" points="67.5001,-264.962 71,-274.962 74.5001,-264.962 67.5001,-264.962"/>
</g>
<!-- Node3 -->
<g id="node3" class="node"><title>Node3</title>
<g id="a_node3"><a xlink:href="classapi_1_1_work_object.html" target="_top" xlink:title="Work Object. ">
<polygon fill="none" stroke="black" points="-0.0859375,-367 -0.0859375,-511 142.086,-511 142.086,-367 -0.0859375,-367"/>
<text text-anchor="middle" x="71" y="-499" font-family="Helvetica,sans-Serif" font-size="10.00">api::WorkObject</text>
<polyline fill="none" stroke="black" points="-0.0859375,-493 142.086,-493 "/>
<text text-anchor="middle" x="71" y="-481" font-family="Helvetica,sans-Serif" font-size="10.00"> </text>
<polyline fill="none" stroke="black" points="-0.0859375,-475 142.086,-475 "/>
<text text-anchor="start" x="7.91406" y="-463" font-family="Helvetica,sans-Serif" font-size="10.00">+ WorkObject()</text>
<text text-anchor="start" x="7.91406" y="-453" font-family="Helvetica,sans-Serif" font-size="10.00">+ clear_error_number()</text>
<text text-anchor="start" x="7.91406" y="-443" font-family="Helvetica,sans-Serif" font-size="10.00">+ error_number()</text>
<text text-anchor="start" x="7.91406" y="-433" font-family="Helvetica,sans-Serif" font-size="10.00">+ exit_fatal()</text>
<text text-anchor="start" x="7.91406" y="-423" font-family="Helvetica,sans-Serif" font-size="10.00"># set_error_number()</text>
<text text-anchor="start" x="7.91406" y="-413" font-family="Helvetica,sans-Serif" font-size="10.00"># set_error_number_if</text>
<text text-anchor="start" x="7.91406" y="-403" font-family="Helvetica,sans-Serif" font-size="10.00">_error()</text>
<text text-anchor="start" x="7.91406" y="-393" font-family="Helvetica,sans-Serif" font-size="10.00"># set_error_number_if_null()</text>
<text text-anchor="start" x="7.91406" y="-383" font-family="Helvetica,sans-Serif" font-size="10.00"># set_error_number_to</text>
<text text-anchor="start" x="7.91406" y="-373" font-family="Helvetica,sans-Serif" font-size="10.00">_errno()</text>
</a>
</g>
</g>
<!-- Node3&#45;&gt;Node2 -->
<g id="edge2" class="edge"><title>Node3&#45;&gt;Node2</title>
<path fill="none" stroke="midnightblue" d="M71,-356.911C71,-346.983 71,-337.464 71,-329.262"/>
<polygon fill="none" stroke="midnightblue" points="67.5001,-356.942 71,-366.942 74.5001,-356.942 67.5001,-356.942"/>
</g>
<!-- Node4 -->
<g id="node4" class="node"><title>Node4</title>
<g id="a_node4"><a xlink:href="classapi_1_1_api_object.html" target="_top" xlink:title="Application Programming Interface Object. ">
<polygon fill="none" stroke="black" points="29.7896,-549 29.7896,-603 112.21,-603 112.21,-549 29.7896,-549"/>
<text text-anchor="middle" x="71" y="-591" font-family="Helvetica,sans-Serif" font-size="10.00">api::ApiObject</text>
<polyline fill="none" stroke="black" points="29.7896,-585 112.21,-585 "/>
<text text-anchor="middle" x="71" y="-573" font-family="Helvetica,sans-Serif" font-size="10.00"> </text>
<polyline fill="none" stroke="black" points="29.7896,-567 112.21,-567 "/>
<text text-anchor="start" x="37.7896" y="-555" font-family="Helvetica,sans-Serif" font-size="10.00">+ api_version()</text>
</a>
</g>
</g>
<!-- Node4&#45;&gt;Node3 -->
<g id="edge3" class="edge"><title>Node4&#45;&gt;Node3</title>
<path fill="none" stroke="midnightblue" d="M71,-538.925C71,-530.287 71,-520.765 71,-511.145"/>
<polygon fill="none" stroke="midnightblue" points="67.5001,-538.971 71,-548.971 74.5001,-538.971 67.5001,-538.971"/>
</g>
</g>
</svg>
