<?xml version="1.0" encoding="UTF-8" standalone="no"?>
<!DOCTYPE svg PUBLIC "-//W3C//DTD SVG 1.1//EN"
 "http://www.w3.org/Graphics/SVG/1.1/DTD/svg11.dtd">
<!-- Generated by graphviz version 2.36.0 (20140111.2315)
 -->
<!-- Title: draw::DrawingAttr Pages: 1 -->
<svg width="142pt" height="480pt"
 viewBox="0.00 0.00 142.00 480.00" xmlns="http://www.w3.org/2000/svg" xmlns:xlink="http://www.w3.org/1999/xlink">
<g id="graph0" class="graph" transform="scale(1 1) rotate(0) translate(4 476)">
<title>draw::DrawingAttr</title>
<!-- Node1 -->
<g id="node1" class="node"><title>Node1</title>
<polygon fill="#bfbfbf" stroke="black" points="-0.34082,-1 -0.34082,-195 134.341,-195 134.341,-1 -0.34082,-1"/>
<text text-anchor="middle" x="67" y="-183" font-family="Helvetica,sans-Serif" font-size="10.00">draw::DrawingAttr</text>
<polyline fill="none" stroke="black" points="-0.34082,-177 134.341,-177 "/>
<text text-anchor="middle" x="67" y="-165" font-family="Helvetica,sans-Serif" font-size="10.00"> </text>
<polyline fill="none" stroke="black" points="-0.34082,-159 134.341,-159 "/>
<text text-anchor="start" x="7.65918" y="-147" font-family="Helvetica,sans-Serif" font-size="10.00">+ DrawingAttr()</text>
<text text-anchor="start" x="7.65918" y="-137" font-family="Helvetica,sans-Serif" font-size="10.00">+ DrawingAttr()</text>
<text text-anchor="start" x="7.65918" y="-127" font-family="Helvetica,sans-Serif" font-size="10.00">+ attr()</text>
<text text-anchor="start" x="7.65918" y="-117" font-family="Helvetica,sans-Serif" font-size="10.00">+ bitmap()</text>
<text text-anchor="start" x="7.65918" y="-107" font-family="Helvetica,sans-Serif" font-size="10.00">+ calc_dim_on_bitmap()</text>
<text text-anchor="start" x="7.65918" y="-97" font-family="Helvetica,sans-Serif" font-size="10.00">+ calc_height()</text>
<text text-anchor="start" x="7.65918" y="-87" font-family="Helvetica,sans-Serif" font-size="10.00">and 31 more...</text>
<text text-anchor="start" x="7.65918" y="-77" font-family="Helvetica,sans-Serif" font-size="10.00">+ calc_dim_on_bitmap()</text>
<text text-anchor="start" x="7.65918" y="-67" font-family="Helvetica,sans-Serif" font-size="10.00">+ calc_height_on_bitmap()</text>
<text text-anchor="start" x="7.65918" y="-57" font-family="Helvetica,sans-Serif" font-size="10.00">+ calc_height_on_bitmap()</text>
<text text-anchor="start" x="7.65918" y="-47" font-family="Helvetica,sans-Serif" font-size="10.00">+ calc_point_on_bitmap()</text>
<text text-anchor="start" x="7.65918" y="-37" font-family="Helvetica,sans-Serif" font-size="10.00">+ calc_region_on_bitmap()</text>
<text text-anchor="start" x="7.65918" y="-27" font-family="Helvetica,sans-Serif" font-size="10.00">+ calc_width_on_bitmap()</text>
<text text-anchor="start" x="7.65918" y="-17" font-family="Helvetica,sans-Serif" font-size="10.00">+ calc_width_on_bitmap()</text>
<text text-anchor="start" x="7.65918" y="-7" font-family="Helvetica,sans-Serif" font-size="10.00">+ scale()</text>
</g>
<!-- Node2 -->
<g id="node2" class="node"><title>Node2</title>
<g id="a_node2"><a xlink:href="classapi_1_1_draw_info_object.html" target="_top" xlink:title="Draw Information Object. ">
<polygon fill="none" stroke="black" points="15.0913,-233 15.0913,-287 118.909,-287 118.909,-233 15.0913,-233"/>
<text text-anchor="middle" x="67" y="-275" font-family="Helvetica,sans-Serif" font-size="10.00">api::DrawInfoObject</text>
<polyline fill="none" stroke="black" points="15.0913,-269 118.909,-269 "/>
<text text-anchor="middle" x="67" y="-257" font-family="Helvetica,sans-Serif" font-size="10.00"> </text>
<polyline fill="none" stroke="black" points="15.0913,-251 118.909,-251 "/>
<text text-anchor="middle" x="67" y="-239" font-family="Helvetica,sans-Serif" font-size="10.00"> </text>
</a>
</g>
</g>
<!-- Node2&#45;&gt;Node1 -->
<g id="edge1" class="edge"><title>Node2&#45;&gt;Node1</title>
<path fill="none" stroke="midnightblue" d="M67,-222.801C67,-214.367 67,-204.993 67,-195.285"/>
<polygon fill="none" stroke="midnightblue" points="63.5001,-222.937 67,-232.937 70.5001,-222.937 63.5001,-222.937"/>
</g>
<!-- Node3 -->
<g id="node3" class="node"><title>Node3</title>
<g id="a_node3"><a xlink:href="classapi_1_1_info_object.html" target="_top" xlink:title="API Information Object. ">
<polygon fill="none" stroke="black" points="26.7588,-325 26.7588,-379 107.241,-379 107.241,-325 26.7588,-325"/>
<text text-anchor="middle" x="67" y="-367" font-family="Helvetica,sans-Serif" font-size="10.00">api::InfoObject</text>
<polyline fill="none" stroke="black" points="26.7588,-361 107.241,-361 "/>
<text text-anchor="middle" x="67" y="-349" font-family="Helvetica,sans-Serif" font-size="10.00"> </text>
<polyline fill="none" stroke="black" points="26.7588,-343 107.241,-343 "/>
<text text-anchor="middle" x="67" y="-331" font-family="Helvetica,sans-Serif" font-size="10.00"> </text>
</a>
</g>
</g>
<!-- Node3&#45;&gt;Node2 -->
<g id="edge2" class="edge"><title>Node3&#45;&gt;Node2</title>
<path fill="none" stroke="midnightblue" d="M67,-314.865C67,-305.644 67,-295.907 67,-287.285"/>
<polygon fill="none" stroke="midnightblue" points="63.5001,-314.968 67,-324.968 70.5001,-314.968 63.5001,-314.968"/>
</g>
<!-- Node4 -->
<g id="node4" class="node"><title>Node4</title>
<g id="a_node4"><a xlink:href="classapi_1_1_api_object.html" target="_top" xlink:title="API Object Class. ">
<polygon fill="none" stroke="black" points="25.7896,-417 25.7896,-471 108.21,-471 108.21,-417 25.7896,-417"/>
<text text-anchor="middle" x="67" y="-459" font-family="Helvetica,sans-Serif" font-size="10.00">api::ApiObject</text>
<polyline fill="none" stroke="black" points="25.7896,-453 108.21,-453 "/>
<text text-anchor="middle" x="67" y="-441" font-family="Helvetica,sans-Serif" font-size="10.00"> </text>
<polyline fill="none" stroke="black" points="25.7896,-435 108.21,-435 "/>
<text text-anchor="start" x="33.7896" y="-423" font-family="Helvetica,sans-Serif" font-size="10.00">+ api_version()</text>
</a>
</g>
</g>
<!-- Node4&#45;&gt;Node3 -->
<g id="edge3" class="edge"><title>Node4&#45;&gt;Node3</title>
<path fill="none" stroke="midnightblue" d="M67,-406.865C67,-397.644 67,-387.907 67,-379.285"/>
<polygon fill="none" stroke="midnightblue" points="63.5001,-406.968 67,-416.968 70.5001,-406.968 63.5001,-406.968"/>
</g>
</g>
</svg>
