<?xml version="1.0" encoding="UTF-8" standalone="no"?>
<!DOCTYPE svg PUBLIC "-//W3C//DTD SVG 1.1//EN"
 "http://www.w3.org/Graphics/SVG/1.1/DTD/svg11.dtd">
<!-- Generated by graphviz version 2.36.0 (20140111.2315)
 -->
<!-- Title: hal::FFifoInfo Pages: 1 -->
<svg width="102pt" height="410pt"
 viewBox="0.00 0.00 102.00 410.00" xmlns="http://www.w3.org/2000/svg" xmlns:xlink="http://www.w3.org/1999/xlink">
<g id="graph0" class="graph" transform="scale(1 1) rotate(0) translate(4 406)">
<title>hal::FFifoInfo</title>
<!-- Node1 -->
<g id="node1" class="node"><title>Node1</title>
<polygon fill="#bfbfbf" stroke="black" points="2.45703,-1 2.45703,-125 91.543,-125 91.543,-1 2.45703,-1"/>
<text text-anchor="middle" x="47" y="-113" font-family="Helvetica,sans-Serif" font-size="10.00">hal::FFifoInfo</text>
<polyline fill="none" stroke="black" points="2.45703,-107 91.543,-107 "/>
<text text-anchor="middle" x="47" y="-95" font-family="Helvetica,sans-Serif" font-size="10.00"> </text>
<polyline fill="none" stroke="black" points="2.45703,-89 91.543,-89 "/>
<text text-anchor="start" x="10.457" y="-77" font-family="Helvetica,sans-Serif" font-size="10.00">+ FFifoInfo()</text>
<text text-anchor="start" x="10.457" y="-67" font-family="Helvetica,sans-Serif" font-size="10.00">+ FFifoInfo()</text>
<text text-anchor="start" x="10.457" y="-57" font-family="Helvetica,sans-Serif" font-size="10.00">+ frame_count()</text>
<text text-anchor="start" x="10.457" y="-47" font-family="Helvetica,sans-Serif" font-size="10.00">+ frame_size()</text>
<text text-anchor="start" x="10.457" y="-37" font-family="Helvetica,sans-Serif" font-size="10.00">+ frames_used()</text>
<text text-anchor="start" x="10.457" y="-27" font-family="Helvetica,sans-Serif" font-size="10.00">+ is_overflow()</text>
<text text-anchor="start" x="10.457" y="-17" font-family="Helvetica,sans-Serif" font-size="10.00">+ is_valid()</text>
<text text-anchor="start" x="10.457" y="-7" font-family="Helvetica,sans-Serif" font-size="10.00">+ size()</text>
</g>
<!-- Node2 -->
<g id="node2" class="node"><title>Node2</title>
<g id="a_node2"><a xlink:href="classapi_1_1_hal_info_object.html" target="_top" xlink:title="Hal Info Object. ">
<polygon fill="none" stroke="black" points="-0.743652,-163 -0.743652,-217 94.7437,-217 94.7437,-163 -0.743652,-163"/>
<text text-anchor="middle" x="47" y="-205" font-family="Helvetica,sans-Serif" font-size="10.00">api::HalInfoObject</text>
<polyline fill="none" stroke="black" points="-0.743652,-199 94.7437,-199 "/>
<text text-anchor="middle" x="47" y="-187" font-family="Helvetica,sans-Serif" font-size="10.00"> </text>
<polyline fill="none" stroke="black" points="-0.743652,-181 94.7437,-181 "/>
<text text-anchor="middle" x="47" y="-169" font-family="Helvetica,sans-Serif" font-size="10.00"> </text>
</a>
</g>
</g>
<!-- Node2&#45;&gt;Node1 -->
<g id="edge1" class="edge"><title>Node2&#45;&gt;Node1</title>
<path fill="none" stroke="midnightblue" d="M47,-152.715C47,-144.071 47,-134.61 47,-125.188"/>
<polygon fill="none" stroke="midnightblue" points="43.5001,-152.796 47,-162.796 50.5001,-152.796 43.5001,-152.796"/>
</g>
<!-- Node3 -->
<g id="node3" class="node"><title>Node3</title>
<g id="a_node3"><a xlink:href="classapi_1_1_info_object.html" target="_top" xlink:title="Information Object. ">
<polygon fill="none" stroke="black" points="6.75879,-255 6.75879,-309 87.2412,-309 87.2412,-255 6.75879,-255"/>
<text text-anchor="middle" x="47" y="-297" font-family="Helvetica,sans-Serif" font-size="10.00">api::InfoObject</text>
<polyline fill="none" stroke="black" points="6.75879,-291 87.2412,-291 "/>
<text text-anchor="middle" x="47" y="-279" font-family="Helvetica,sans-Serif" font-size="10.00"> </text>
<polyline fill="none" stroke="black" points="6.75879,-273 87.2412,-273 "/>
<text text-anchor="middle" x="47" y="-261" font-family="Helvetica,sans-Serif" font-size="10.00"> </text>
</a>
</g>
</g>
<!-- Node3&#45;&gt;Node2 -->
<g id="edge2" class="edge"><title>Node3&#45;&gt;Node2</title>
<path fill="none" stroke="midnightblue" d="M47,-244.865C47,-235.644 47,-225.907 47,-217.285"/>
<polygon fill="none" stroke="midnightblue" points="43.5001,-244.968 47,-254.968 50.5001,-244.968 43.5001,-244.968"/>
</g>
<!-- Node4 -->
<g id="node4" class="node"><title>Node4</title>
<g id="a_node4"><a xlink:href="classapi_1_1_api_object.html" target="_top" xlink:title="Application Programming Interface Object. ">
<polygon fill="none" stroke="black" points="5.78955,-347 5.78955,-401 88.2104,-401 88.2104,-347 5.78955,-347"/>
<text text-anchor="middle" x="47" y="-389" font-family="Helvetica,sans-Serif" font-size="10.00">api::ApiObject</text>
<polyline fill="none" stroke="black" points="5.78955,-383 88.2104,-383 "/>
<text text-anchor="middle" x="47" y="-371" font-family="Helvetica,sans-Serif" font-size="10.00"> </text>
<polyline fill="none" stroke="black" points="5.78955,-365 88.2104,-365 "/>
<text text-anchor="start" x="13.7896" y="-353" font-family="Helvetica,sans-Serif" font-size="10.00">+ api_version()</text>
</a>
</g>
</g>
<!-- Node4&#45;&gt;Node3 -->
<g id="edge3" class="edge"><title>Node4&#45;&gt;Node3</title>
<path fill="none" stroke="midnightblue" d="M47,-336.865C47,-327.644 47,-317.907 47,-309.285"/>
<polygon fill="none" stroke="midnightblue" points="43.5001,-336.968 47,-346.968 50.5001,-336.968 43.5001,-336.968"/>
</g>
</g>
</svg>
