<?xml version="1.0" encoding="UTF-8" standalone="no"?>
<!DOCTYPE svg PUBLIC "-//W3C//DTD SVG 1.1//EN"
 "http://www.w3.org/Graphics/SVG/1.1/DTD/svg11.dtd">
<!-- Generated by graphviz version 2.36.0 (20140111.2315)
 -->
<!-- Title: api::ChronoInfoObject Pages: 1 -->
<!--zoomable 520 -->
<svg id="main" version="1.1" xmlns="http://www.w3.org/2000/svg" xmlns:xlink="http://www.w3.org/1999/xlink" xml:space="preserve" onload="init(evt)">
<style type="text/css"><![CDATA[
.edge:hover path { stroke: red; }
.edge:hover polygon { stroke: red; fill: red; }
]]></style>
<script type="text/javascript"><![CDATA[
var edges = document.getElementsByTagName('g');
if (edges && edges.length) {
  for (var i=0;i<edges.length;i++) {
    if (edges[i].id.substr(0,4)=='edge') {
      edges[i].setAttribute('class','edge');
    }
  }
}
]]></script>
        <defs>
                <circle id="rim" cx="0" cy="0" r="7"/>
                <circle id="rim2" cx="0" cy="0" r="3.5"/>
                <g id="zoomPlus">
                        <use xlink:href="#rim" fill="#404040">
                                <set attributeName="fill" to="#808080" begin="zoomplus.mouseover" end="zoomplus.mouseout"/>
                        </use>
                        <path d="M-4,0h8M0,-4v8" fill="none" stroke="white" stroke-width="1.5" pointer-events="none"/>
                </g>
                <g id="zoomMin">
                        <use xlink:href="#rim" fill="#404040">
                                <set attributeName="fill" to="#808080" begin="zoomminus.mouseover" end="zoomminus.mouseout"/>
                        </use>
                        <path d="M-4,0h8" fill="none" stroke="white" stroke-width="1.5" pointer-events="none"/>
                </g>
                <g id="dirArrow">
                        <path fill="none" stroke="white" stroke-width="1.5" d="M0,-3.0v7 M-2.5,-0.5L0,-3.0L2.5,-0.5"/>
                </g>
               <g id="resetDef">
                       <use xlink:href="#rim2" fill="#404040">
                               <set attributeName="fill" to="#808080" begin="reset.mouseover" end="reset.mouseout"/>
                       </use>
               </g>
        </defs>

<script type="text/javascript">
var viewWidth = 483;
var viewHeight = 520;
var sectionId = 'dynsection-0';
</script>
<script xlink:href="svgpan.js"/>
<svg id="graph" class="graph">
<g id="viewport">
<title>api::ChronoInfoObject</title>
<!-- Node1 -->
<g id="node1" class="node"><title>Node1</title>
<polygon fill="#bfbfbf" stroke="black" points="166.844,-223 166.844,-327 283.156,-327 283.156,-223 166.844,-223"/>
<text text-anchor="middle" x="225" y="-315" font-family="Helvetica,sans-Serif" font-size="10.00">api::ChronoInfoObject</text>
<polyline fill="none" stroke="black" points="166.844,-309 283.156,-309 "/>
<text text-anchor="middle" x="225" y="-297" font-family="Helvetica,sans-Serif" font-size="10.00"> </text>
<polyline fill="none" stroke="black" points="166.844,-291 283.156,-291 "/>
<text text-anchor="start" x="174.844" y="-279" font-family="Helvetica,sans-Serif" font-size="10.00">+ wait()</text>
<text text-anchor="start" x="174.844" y="-269" font-family="Helvetica,sans-Serif" font-size="10.00">+ wait()</text>
<text text-anchor="start" x="174.844" y="-259" font-family="Helvetica,sans-Serif" font-size="10.00">+ wait()</text>
<text text-anchor="start" x="174.844" y="-249" font-family="Helvetica,sans-Serif" font-size="10.00">+ wait_microseconds()</text>
<text text-anchor="start" x="174.844" y="-239" font-family="Helvetica,sans-Serif" font-size="10.00">+ wait_milliseconds()</text>
<text text-anchor="start" x="174.844" y="-229" font-family="Helvetica,sans-Serif" font-size="10.00">+ wait_seconds()</text>
</g>
<!-- Node4 -->
<g id="node4" class="node"><title>Node4</title>
<g id="a_node4"><a xlink:href="classchrono_1_1_clock.html" target="_top" xlink:title="Clock Class. ">
<polygon fill="none" stroke="black" points="-0.050293,-61 -0.050293,-125 94.0503,-125 94.0503,-61 -0.050293,-61"/>
<text text-anchor="middle" x="47" y="-113" font-family="Helvetica,sans-Serif" font-size="10.00">chrono::Clock</text>
<polyline fill="none" stroke="black" points="-0.050293,-107 94.0503,-107 "/>
<text text-anchor="middle" x="47" y="-95" font-family="Helvetica,sans-Serif" font-size="10.00"> </text>
<polyline fill="none" stroke="black" points="-0.050293,-89 94.0503,-89 "/>
<text text-anchor="start" x="7.94971" y="-77" font-family="Helvetica,sans-Serif" font-size="10.00">+ get_resolution()</text>
<text text-anchor="start" x="7.94971" y="-67" font-family="Helvetica,sans-Serif" font-size="10.00">+ get_time()</text>
</a>
</g>
</g>
<!-- Node1&#45;&gt;Node4 -->
<g id="edge3" class="edge"><title>Node1&#45;&gt;Node4</title>
<path fill="none" stroke="midnightblue" d="M158.514,-232.663C139.653,-219.15 119.935,-203.162 104,-186 87.1242,-167.825 72.497,-143.933 62.2863,-125.052"/>
<polygon fill="none" stroke="midnightblue" points="156.621,-235.611 166.816,-238.495 160.645,-229.883 156.621,-235.611"/>
</g>
<!-- Node5 -->
<g id="node5" class="node"><title>Node5</title>
<g id="a_node5"><a xlink:href="classchrono_1_1_clock_time.html" target="_top" xlink:title="Clock Time Class. ">
<polygon fill="none" stroke="black" points="112.503,-31 112.503,-155 211.497,-155 211.497,-31 112.503,-31"/>
<text text-anchor="middle" x="162" y="-143" font-family="Helvetica,sans-Serif" font-size="10.00">chrono::ClockTime</text>
<polyline fill="none" stroke="black" points="112.503,-137 211.497,-137 "/>
<text text-anchor="middle" x="162" y="-125" font-family="Helvetica,sans-Serif" font-size="10.00"> </text>
<polyline fill="none" stroke="black" points="112.503,-119 211.497,-119 "/>
<text text-anchor="start" x="120.503" y="-107" font-family="Helvetica,sans-Serif" font-size="10.00">+ ClockTime()</text>
<text text-anchor="start" x="120.503" y="-97" font-family="Helvetica,sans-Serif" font-size="10.00">+ ClockTime()</text>
<text text-anchor="start" x="120.503" y="-87" font-family="Helvetica,sans-Serif" font-size="10.00">+ ClockTime()</text>
<text text-anchor="start" x="120.503" y="-77" font-family="Helvetica,sans-Serif" font-size="10.00">+ ClockTime()</text>
<text text-anchor="start" x="120.503" y="-67" font-family="Helvetica,sans-Serif" font-size="10.00">+ is_valid()</text>
<text text-anchor="start" x="120.503" y="-57" font-family="Helvetica,sans-Serif" font-size="10.00">+ nanoseconds()</text>
<text text-anchor="start" x="120.503" y="-47" font-family="Helvetica,sans-Serif" font-size="10.00">and 17 more...</text>
<text text-anchor="start" x="120.503" y="-37" font-family="Helvetica,sans-Serif" font-size="10.00">+ invalid()</text>
</a>
</g>
</g>
<!-- Node1&#45;&gt;Node5 -->
<g id="edge4" class="edge"><title>Node1&#45;&gt;Node5</title>
<path fill="none" stroke="midnightblue" d="M203.752,-213.291C197.191,-194.546 189.964,-173.898 183.393,-155.124"/>
<polygon fill="none" stroke="midnightblue" points="200.508,-214.618 207.115,-222.901 207.115,-212.306 200.508,-214.618"/>
</g>
<!-- Node6 -->
<g id="node6" class="node"><title>Node6</title>
<g id="a_node6"><a xlink:href="classchrono_1_1_micro_time.html" target="_top" xlink:title="MicroTime Class. ">
<polygon fill="none" stroke="black" points="229.735,-1 229.735,-185 348.265,-185 348.265,-1 229.735,-1"/>
<text text-anchor="middle" x="289" y="-173" font-family="Helvetica,sans-Serif" font-size="10.00">chrono::MicroTime</text>
<polyline fill="none" stroke="black" points="229.735,-167 348.265,-167 "/>
<text text-anchor="middle" x="289" y="-155" font-family="Helvetica,sans-Serif" font-size="10.00"> </text>
<polyline fill="none" stroke="black" points="229.735,-149 348.265,-149 "/>
<text text-anchor="start" x="237.735" y="-137" font-family="Helvetica,sans-Serif" font-size="10.00">+ MicroTime()</text>
<text text-anchor="start" x="237.735" y="-127" font-family="Helvetica,sans-Serif" font-size="10.00">+ MicroTime()</text>
<text text-anchor="start" x="237.735" y="-117" font-family="Helvetica,sans-Serif" font-size="10.00">+ is_valid()</text>
<text text-anchor="start" x="237.735" y="-107" font-family="Helvetica,sans-Serif" font-size="10.00">+ microseconds()</text>
<text text-anchor="start" x="237.735" y="-97" font-family="Helvetica,sans-Serif" font-size="10.00">+ milliseconds()</text>
<text text-anchor="start" x="237.735" y="-87" font-family="Helvetica,sans-Serif" font-size="10.00">+ msec()</text>
<text text-anchor="start" x="237.735" y="-77" font-family="Helvetica,sans-Serif" font-size="10.00">and 12 more...</text>
<text text-anchor="start" x="237.735" y="-67" font-family="Helvetica,sans-Serif" font-size="10.00">+ from_microseconds()</text>
<text text-anchor="start" x="237.735" y="-57" font-family="Helvetica,sans-Serif" font-size="10.00">+ from_milliseconds()</text>
<text text-anchor="start" x="237.735" y="-47" font-family="Helvetica,sans-Serif" font-size="10.00">+ from_msec()</text>
<text text-anchor="start" x="237.735" y="-37" font-family="Helvetica,sans-Serif" font-size="10.00">+ from_sec()</text>
<text text-anchor="start" x="237.735" y="-27" font-family="Helvetica,sans-Serif" font-size="10.00">+ from_seconds()</text>
<text text-anchor="start" x="237.735" y="-17" font-family="Helvetica,sans-Serif" font-size="10.00">+ from_usec()</text>
<text text-anchor="start" x="237.735" y="-7" font-family="Helvetica,sans-Serif" font-size="10.00">+ invalid()</text>
</a>
</g>
</g>
<!-- Node1&#45;&gt;Node6 -->
<g id="edge5" class="edge"><title>Node1&#45;&gt;Node6</title>
<path fill="none" stroke="midnightblue" d="M246.602,-213.243C249.831,-204.163 253.218,-194.638 256.61,-185.096"/>
<polygon fill="none" stroke="midnightblue" points="243.221,-212.306 243.169,-222.901 249.817,-214.651 243.221,-212.306"/>
</g>
<!-- Node7 -->
<g id="node7" class="node"><title>Node7</title>
<g id="a_node7"><a xlink:href="classchrono_1_1_time.html" target="_top" xlink:title="Time Class. ">
<polygon fill="none" stroke="black" points="366.445,-31 366.445,-155 475.555,-155 475.555,-31 366.445,-31"/>
<text text-anchor="middle" x="421" y="-143" font-family="Helvetica,sans-Serif" font-size="10.00">chrono::Time</text>
<polyline fill="none" stroke="black" points="366.445,-137 475.555,-137 "/>
<text text-anchor="middle" x="421" y="-125" font-family="Helvetica,sans-Serif" font-size="10.00"> </text>
<polyline fill="none" stroke="black" points="366.445,-119 475.555,-119 "/>
<text text-anchor="start" x="374.445" y="-107" font-family="Helvetica,sans-Serif" font-size="10.00">+ Time()</text>
<text text-anchor="start" x="374.445" y="-97" font-family="Helvetica,sans-Serif" font-size="10.00">+ Time()</text>
<text text-anchor="start" x="374.445" y="-87" font-family="Helvetica,sans-Serif" font-size="10.00">+ get_day()</text>
<text text-anchor="start" x="374.445" y="-77" font-family="Helvetica,sans-Serif" font-size="10.00">+ get_month()</text>
<text text-anchor="start" x="374.445" y="-67" font-family="Helvetica,sans-Serif" font-size="10.00">+ get_month_name()</text>
<text text-anchor="start" x="374.445" y="-57" font-family="Helvetica,sans-Serif" font-size="10.00">+ get_time_of_day()</text>
<text text-anchor="start" x="374.445" y="-47" font-family="Helvetica,sans-Serif" font-size="10.00">and 16 more...</text>
<text text-anchor="start" x="374.445" y="-37" font-family="Helvetica,sans-Serif" font-size="10.00">+ set_time_of_day()</text>
</a>
</g>
</g>
<!-- Node1&#45;&gt;Node7 -->
<g id="edge6" class="edge"><title>Node1&#45;&gt;Node7</title>
<path fill="none" stroke="midnightblue" d="M292.057,-236.213C314.083,-222.062 337.814,-204.809 357,-186 366.309,-176.874 375.129,-166.223 383.078,-155.47"/>
<polygon fill="none" stroke="midnightblue" points="289.98,-233.385 283.39,-241.681 293.715,-239.305 289.98,-233.385"/>
</g>
<!-- Node2 -->
<g id="node2" class="node"><title>Node2</title>
<g id="a_node2"><a xlink:href="classapi_1_1_info_object.html" target="_top" xlink:title="Information Object. ">
<polygon fill="none" stroke="black" points="184.759,-365 184.759,-419 265.241,-419 265.241,-365 184.759,-365"/>
<text text-anchor="middle" x="225" y="-407" font-family="Helvetica,sans-Serif" font-size="10.00">api::InfoObject</text>
<polyline fill="none" stroke="black" points="184.759,-401 265.241,-401 "/>
<text text-anchor="middle" x="225" y="-389" font-family="Helvetica,sans-Serif" font-size="10.00"> </text>
<polyline fill="none" stroke="black" points="184.759,-383 265.241,-383 "/>
<text text-anchor="middle" x="225" y="-371" font-family="Helvetica,sans-Serif" font-size="10.00"> </text>
</a>
</g>
</g>
<!-- Node2&#45;&gt;Node1 -->
<g id="edge1" class="edge"><title>Node2&#45;&gt;Node1</title>
<path fill="none" stroke="midnightblue" d="M225,-354.747C225,-346.06 225,-336.621 225,-327.393"/>
<polygon fill="none" stroke="midnightblue" points="221.5,-354.905 225,-364.905 228.5,-354.905 221.5,-354.905"/>
</g>
<!-- Node3 -->
<g id="node3" class="node"><title>Node3</title>
<g id="a_node3"><a xlink:href="classapi_1_1_api_object.html" target="_top" xlink:title="Application Programming Interface Object. ">
<polygon fill="none" stroke="black" points="183.79,-457 183.79,-511 266.21,-511 266.21,-457 183.79,-457"/>
<text text-anchor="middle" x="225" y="-499" font-family="Helvetica,sans-Serif" font-size="10.00">api::ApiObject</text>
<polyline fill="none" stroke="black" points="183.79,-493 266.21,-493 "/>
<text text-anchor="middle" x="225" y="-481" font-family="Helvetica,sans-Serif" font-size="10.00"> </text>
<polyline fill="none" stroke="black" points="183.79,-475 266.21,-475 "/>
<text text-anchor="start" x="191.79" y="-463" font-family="Helvetica,sans-Serif" font-size="10.00">+ api_version()</text>
</a>
</g>
</g>
<!-- Node3&#45;&gt;Node2 -->
<g id="edge2" class="edge"><title>Node3&#45;&gt;Node2</title>
<path fill="none" stroke="midnightblue" d="M225,-446.865C225,-437.644 225,-427.907 225,-419.285"/>
<polygon fill="none" stroke="midnightblue" points="221.5,-446.968 225,-456.968 228.5,-446.968 221.5,-446.968"/>
</g>
</g>
</svg>
        <g id="navigator" transform="translate(0 0)" fill="#404254">
                <rect fill="#f2f5e9" fill-opacity="0.5" stroke="#606060" stroke-width=".5" x="0" y="0" width="60" height="60"/>
                <use id="zoomplus" xlink:href="#zoomPlus" x="17" y="9" onmousedown="handleZoom(evt,'in')"/>
                <use id="zoomminus" xlink:href="#zoomMin" x="42" y="9" onmousedown="handleZoom(evt,'out')"/>
                <use id="reset" xlink:href="#resetDef" x="30" y="36" onmousedown="handleReset()"/>
                <g id="arrowUp" xlink:href="#dirArrow" transform="translate(30 24)" onmousedown="handlePan(0,-1)">
                  <use xlink:href="#rim" fill="#404040">
                        <set attributeName="fill" to="#808080" begin="arrowUp.mouseover" end="arrowUp.mouseout"/>
                  </use>
                  <path fill="none" stroke="white" stroke-width="1.5" d="M0,-3.0v7 M-2.5,-0.5L0,-3.0L2.5,-0.5"/>
                </g>
                <g id="arrowRight" xlink:href="#dirArrow" transform="rotate(90) translate(36 -43)" onmousedown="handlePan(1,0)">
                  <use xlink:href="#rim" fill="#404040">
                        <set attributeName="fill" to="#808080" begin="arrowRight.mouseover" end="arrowRight.mouseout"/>
                  </use>
                  <path fill="none" stroke="white" stroke-width="1.5" d="M0,-3.0v7 M-2.5,-0.5L0,-3.0L2.5,-0.5"/>
                </g>
                <g id="arrowDown" xlink:href="#dirArrow" transform="rotate(180) translate(-30 -48)" onmousedown="handlePan(0,1)">
                  <use xlink:href="#rim" fill="#404040">
                        <set attributeName="fill" to="#808080" begin="arrowDown.mouseover" end="arrowDown.mouseout"/>
                  </use>
                  <path fill="none" stroke="white" stroke-width="1.5" d="M0,-3.0v7 M-2.5,-0.5L0,-3.0L2.5,-0.5"/>
                </g>
                <g id="arrowLeft" xlink:href="#dirArrow" transform="rotate(270) translate(-36 17)" onmousedown="handlePan(-1,0)">
                  <use xlink:href="#rim" fill="#404040">
                        <set attributeName="fill" to="#808080" begin="arrowLeft.mouseover" end="arrowLeft.mouseout"/>
                  </use>
                  <path fill="none" stroke="white" stroke-width="1.5" d="M0,-3.0v7 M-2.5,-0.5L0,-3.0L2.5,-0.5"/>
                </g>
        </g>
        <svg viewBox="0 0 15 15" width="100%" height="30px" preserveAspectRatio="xMaxYMin meet">
         <g id="arrow_out" transform="scale(0.3 0.3)">
          <a xlink:href="classapi_1_1_chrono_info_object__inherit__graph_org.svg" target="_base">
           <rect id="button" ry="5" rx="5" y="6" x="6" height="38" width="38"
                fill="#f2f5e9" fill-opacity="0.5" stroke="#606060" stroke-width="1.0"/>
           <path id="arrow"
             d="M 11.500037,31.436501 C 11.940474,20.09759 22.043105,11.32322 32.158766,21.979434 L 37.068811,17.246167 C 37.068811,17.246167 37.088388,32 37.088388,32 L 22.160133,31.978069 C 22.160133,31.978069 26.997745,27.140456 26.997745,27.140456 C 18.528582,18.264221 13.291696,25.230495 11.500037,31.436501 z"
             style="fill:#404040;"/>
          </a>
         </g>
        </svg>
</svg>
