<?xml version="1.0" encoding="UTF-8" standalone="no"?>
<!DOCTYPE svg PUBLIC "-//W3C//DTD SVG 1.1//EN"
 "http://www.w3.org/Graphics/SVG/1.1/DTD/svg11.dtd">
<!-- Generated by graphviz version 2.36.0 (20140111.2315)
 -->
<!-- Title: var::StaticString&lt; arraysize &gt; Pages: 1 -->
<svg width="150pt" height="774pt"
 viewBox="0.00 0.00 150.00 774.00" xmlns="http://www.w3.org/2000/svg" xmlns:xlink="http://www.w3.org/1999/xlink">
<g id="graph0" class="graph" transform="scale(1 1) rotate(0) translate(4 770)">
<title>var::StaticString&lt; arraysize &gt;</title>
<!-- Node1 -->
<g id="node1" class="node"><title>Node1</title>
<polygon fill="#bfbfbf" stroke="black" points="24.7896,-1 24.7896,-85 117.21,-85 117.21,-1 24.7896,-1"/>
<text text-anchor="start" x="32.7896" y="-73" font-family="Helvetica,sans-Serif" font-size="10.00">var::StaticString&lt;</text>
<text text-anchor="middle" x="71" y="-63" font-family="Helvetica,sans-Serif" font-size="10.00"> arraysize &gt;</text>
<polyline fill="none" stroke="black" points="24.7896,-57 117.21,-57 "/>
<text text-anchor="middle" x="71" y="-45" font-family="Helvetica,sans-Serif" font-size="10.00"> </text>
<polyline fill="none" stroke="black" points="24.7896,-39 117.21,-39 "/>
<text text-anchor="start" x="32.7896" y="-27" font-family="Helvetica,sans-Serif" font-size="10.00">+ StaticString()</text>
<text text-anchor="start" x="32.7896" y="-17" font-family="Helvetica,sans-Serif" font-size="10.00">+ StaticString()</text>
<text text-anchor="start" x="32.7896" y="-7" font-family="Helvetica,sans-Serif" font-size="10.00">+ StaticString()</text>
</g>
<!-- Node2 -->
<g id="node2" class="node"><title>Node2</title>
<g id="a_node2"><a xlink:href="classvar_1_1_string.html" target="_top" xlink:title="String class. ">
<polygon fill="none" stroke="black" points="30.7588,-123 30.7588,-237 111.241,-237 111.241,-123 30.7588,-123"/>
<text text-anchor="middle" x="71" y="-225" font-family="Helvetica,sans-Serif" font-size="10.00">var::String</text>
<polyline fill="none" stroke="black" points="30.7588,-219 111.241,-219 "/>
<text text-anchor="middle" x="71" y="-207" font-family="Helvetica,sans-Serif" font-size="10.00"> </text>
<polyline fill="none" stroke="black" points="30.7588,-201 111.241,-201 "/>
<text text-anchor="start" x="38.7588" y="-189" font-family="Helvetica,sans-Serif" font-size="10.00">+ String()</text>
<text text-anchor="start" x="38.7588" y="-179" font-family="Helvetica,sans-Serif" font-size="10.00">+ String()</text>
<text text-anchor="start" x="38.7588" y="-169" font-family="Helvetica,sans-Serif" font-size="10.00">+ String()</text>
<text text-anchor="start" x="38.7588" y="-159" font-family="Helvetica,sans-Serif" font-size="10.00">+ String()</text>
<text text-anchor="start" x="38.7588" y="-149" font-family="Helvetica,sans-Serif" font-size="10.00">+ String()</text>
<text text-anchor="start" x="38.7588" y="-139" font-family="Helvetica,sans-Serif" font-size="10.00">+ String()</text>
<text text-anchor="start" x="38.7588" y="-129" font-family="Helvetica,sans-Serif" font-size="10.00">and 52 more...</text>
</a>
</g>
</g>
<!-- Node2&#45;&gt;Node1 -->
<g id="edge1" class="edge"><title>Node2&#45;&gt;Node1</title>
<path fill="none" stroke="midnightblue" d="M71,-112.794C71,-103.419 71,-94.0096 71,-85.2911"/>
<polygon fill="none" stroke="midnightblue" points="67.5001,-112.921 71,-122.921 74.5001,-112.921 67.5001,-112.921"/>
</g>
<!-- Node3 -->
<g id="node3" class="node"><title>Node3</title>
<g id="a_node3"><a xlink:href="classvar_1_1_data.html" target="_top" xlink:title="Data storage class. ">
<polygon fill="none" stroke="black" points="23.4102,-275 23.4102,-399 118.59,-399 118.59,-275 23.4102,-275"/>
<text text-anchor="middle" x="71" y="-387" font-family="Helvetica,sans-Serif" font-size="10.00">var::Data</text>
<polyline fill="none" stroke="black" points="23.4102,-381 118.59,-381 "/>
<text text-anchor="middle" x="71" y="-369" font-family="Helvetica,sans-Serif" font-size="10.00"> </text>
<polyline fill="none" stroke="black" points="23.4102,-363 118.59,-363 "/>
<text text-anchor="start" x="31.4102" y="-351" font-family="Helvetica,sans-Serif" font-size="10.00">+ Data()</text>
<text text-anchor="start" x="31.4102" y="-341" font-family="Helvetica,sans-Serif" font-size="10.00">+ Data()</text>
<text text-anchor="start" x="31.4102" y="-331" font-family="Helvetica,sans-Serif" font-size="10.00">+ Data()</text>
<text text-anchor="start" x="31.4102" y="-321" font-family="Helvetica,sans-Serif" font-size="10.00">+ Data()</text>
<text text-anchor="start" x="31.4102" y="-311" font-family="Helvetica,sans-Serif" font-size="10.00">+ ~Data()</text>
<text text-anchor="start" x="31.4102" y="-301" font-family="Helvetica,sans-Serif" font-size="10.00">+ alloc()</text>
<text text-anchor="start" x="31.4102" y="-291" font-family="Helvetica,sans-Serif" font-size="10.00">and 17 more...</text>
<text text-anchor="start" x="31.4102" y="-281" font-family="Helvetica,sans-Serif" font-size="10.00">+ minimum_size()</text>
</a>
</g>
</g>
<!-- Node3&#45;&gt;Node2 -->
<g id="edge2" class="edge"><title>Node3&#45;&gt;Node2</title>
<path fill="none" stroke="midnightblue" d="M71,-264.503C71,-255.37 71,-246.126 71,-237.28"/>
<polygon fill="none" stroke="midnightblue" points="67.5001,-264.74 71,-274.74 74.5001,-264.74 67.5001,-264.74"/>
</g>
<!-- Node4 -->
<g id="node4" class="node"><title>Node4</title>
<g id="a_node4"><a xlink:href="classapi_1_1_var_work_object.html" target="_top" xlink:title="Format Work Object Class. ">
<polygon fill="none" stroke="black" points="20.1094,-437 20.1094,-491 121.891,-491 121.891,-437 20.1094,-437"/>
<text text-anchor="middle" x="71" y="-479" font-family="Helvetica,sans-Serif" font-size="10.00">api::VarWorkObject</text>
<polyline fill="none" stroke="black" points="20.1094,-473 121.891,-473 "/>
<text text-anchor="middle" x="71" y="-461" font-family="Helvetica,sans-Serif" font-size="10.00"> </text>
<polyline fill="none" stroke="black" points="20.1094,-455 121.891,-455 "/>
<text text-anchor="middle" x="71" y="-443" font-family="Helvetica,sans-Serif" font-size="10.00"> </text>
</a>
</g>
</g>
<!-- Node4&#45;&gt;Node3 -->
<g id="edge3" class="edge"><title>Node4&#45;&gt;Node3</title>
<path fill="none" stroke="midnightblue" d="M71,-426.715C71,-418.071 71,-408.61 71,-399.188"/>
<polygon fill="none" stroke="midnightblue" points="67.5001,-426.796 71,-436.796 74.5001,-426.796 67.5001,-426.796"/>
</g>
<!-- Node5 -->
<g id="node5" class="node"><title>Node5</title>
<g id="a_node5"><a xlink:href="classapi_1_1_work_object.html" target="_top" xlink:title="WorkObject Class. ">
<polygon fill="none" stroke="black" points="-0.0859375,-529 -0.0859375,-673 142.086,-673 142.086,-529 -0.0859375,-529"/>
<text text-anchor="middle" x="71" y="-661" font-family="Helvetica,sans-Serif" font-size="10.00">api::WorkObject</text>
<polyline fill="none" stroke="black" points="-0.0859375,-655 142.086,-655 "/>
<text text-anchor="middle" x="71" y="-643" font-family="Helvetica,sans-Serif" font-size="10.00"> </text>
<polyline fill="none" stroke="black" points="-0.0859375,-637 142.086,-637 "/>
<text text-anchor="start" x="7.91406" y="-625" font-family="Helvetica,sans-Serif" font-size="10.00">+ WorkObject()</text>
<text text-anchor="start" x="7.91406" y="-615" font-family="Helvetica,sans-Serif" font-size="10.00">+ clear_error_number()</text>
<text text-anchor="start" x="7.91406" y="-605" font-family="Helvetica,sans-Serif" font-size="10.00">+ error_number()</text>
<text text-anchor="start" x="7.91406" y="-595" font-family="Helvetica,sans-Serif" font-size="10.00">+ exit_fatal()</text>
<text text-anchor="start" x="7.91406" y="-585" font-family="Helvetica,sans-Serif" font-size="10.00"># set_error_number()</text>
<text text-anchor="start" x="7.91406" y="-575" font-family="Helvetica,sans-Serif" font-size="10.00"># set_error_number_if</text>
<text text-anchor="start" x="7.91406" y="-565" font-family="Helvetica,sans-Serif" font-size="10.00">_error()</text>
<text text-anchor="start" x="7.91406" y="-555" font-family="Helvetica,sans-Serif" font-size="10.00"># set_error_number_if_null()</text>
<text text-anchor="start" x="7.91406" y="-545" font-family="Helvetica,sans-Serif" font-size="10.00"># set_error_number_to</text>
<text text-anchor="start" x="7.91406" y="-535" font-family="Helvetica,sans-Serif" font-size="10.00">_errno()</text>
</a>
</g>
</g>
<!-- Node5&#45;&gt;Node4 -->
<g id="edge4" class="edge"><title>Node5&#45;&gt;Node4</title>
<path fill="none" stroke="midnightblue" d="M71,-518.911C71,-508.983 71,-499.464 71,-491.262"/>
<polygon fill="none" stroke="midnightblue" points="67.5001,-518.942 71,-528.942 74.5001,-518.942 67.5001,-518.942"/>
</g>
<!-- Node6 -->
<g id="node6" class="node"><title>Node6</title>
<g id="a_node6"><a xlink:href="classapi_1_1_api_object.html" target="_top" xlink:title="API Object Class. ">
<polygon fill="none" stroke="black" points="29.7896,-711 29.7896,-765 112.21,-765 112.21,-711 29.7896,-711"/>
<text text-anchor="middle" x="71" y="-753" font-family="Helvetica,sans-Serif" font-size="10.00">api::ApiObject</text>
<polyline fill="none" stroke="black" points="29.7896,-747 112.21,-747 "/>
<text text-anchor="middle" x="71" y="-735" font-family="Helvetica,sans-Serif" font-size="10.00"> </text>
<polyline fill="none" stroke="black" points="29.7896,-729 112.21,-729 "/>
<text text-anchor="start" x="37.7896" y="-717" font-family="Helvetica,sans-Serif" font-size="10.00">+ api_version()</text>
</a>
</g>
</g>
<!-- Node6&#45;&gt;Node5 -->
<g id="edge5" class="edge"><title>Node6&#45;&gt;Node5</title>
<path fill="none" stroke="midnightblue" d="M71,-700.925C71,-692.287 71,-682.765 71,-673.145"/>
<polygon fill="none" stroke="midnightblue" points="67.5001,-700.971 71,-710.971 74.5001,-700.971 67.5001,-700.971"/>
</g>
</g>
</svg>
