<?xml version="1.0" encoding="UTF-8" standalone="no"?>
<!DOCTYPE svg PUBLIC "-//W3C//DTD SVG 1.1//EN"
 "http://www.w3.org/Graphics/SVG/1.1/DTD/svg11.dtd">
<!-- Generated by graphviz version 2.36.0 (20140111.2315)
 -->
<!-- Title: sys::Mutex Pages: 1 -->
<svg width="122pt" height="286pt"
 viewBox="0.00 0.00 122.00 286.00" xmlns="http://www.w3.org/2000/svg" xmlns:xlink="http://www.w3.org/1999/xlink">
<g id="graph0" class="graph" transform="scale(1 1) rotate(0) translate(4 282)">
<title>sys::Mutex</title>
<!-- Node1 -->
<g id="node1" class="node"><title>Node1</title>
<polygon fill="#bfbfbf" stroke="black" points="17.4619,-1 17.4619,-115 96.5381,-115 96.5381,-1 17.4619,-1"/>
<text text-anchor="middle" x="57" y="-103" font-family="Helvetica,sans-Serif" font-size="10.00">sys::Mutex</text>
<polyline fill="none" stroke="black" points="17.4619,-97 96.5381,-97 "/>
<text text-anchor="middle" x="57" y="-85" font-family="Helvetica,sans-Serif" font-size="10.00"> </text>
<polyline fill="none" stroke="black" points="17.4619,-79 96.5381,-79 "/>
<text text-anchor="start" x="25.4619" y="-67" font-family="Helvetica,sans-Serif" font-size="10.00">+ Mutex()</text>
<text text-anchor="start" x="25.4619" y="-57" font-family="Helvetica,sans-Serif" font-size="10.00">+ Mutex()</text>
<text text-anchor="start" x="25.4619" y="-47" font-family="Helvetica,sans-Serif" font-size="10.00">+ lock()</text>
<text text-anchor="start" x="25.4619" y="-37" font-family="Helvetica,sans-Serif" font-size="10.00">+ lock_timed()</text>
<text text-anchor="start" x="25.4619" y="-27" font-family="Helvetica,sans-Serif" font-size="10.00">+ set_attr()</text>
<text text-anchor="start" x="25.4619" y="-17" font-family="Helvetica,sans-Serif" font-size="10.00">+ try_lock()</text>
<text text-anchor="start" x="25.4619" y="-7" font-family="Helvetica,sans-Serif" font-size="10.00">+ unlock()</text>
</g>
<!-- Node2 -->
<g id="node2" class="node"><title>Node2</title>
<g id="a_node2"><a xlink:href="classapi_1_1_s_object.html" target="_top" xlink:title="SObject Class. ">
<polygon fill="none" stroke="black" points="-0.191895,-153 -0.191895,-277 114.192,-277 114.192,-153 -0.191895,-153"/>
<text text-anchor="middle" x="57" y="-265" font-family="Helvetica,sans-Serif" font-size="10.00">api::SObject</text>
<polyline fill="none" stroke="black" points="-0.191895,-259 114.192,-259 "/>
<text text-anchor="middle" x="57" y="-247" font-family="Helvetica,sans-Serif" font-size="10.00"> </text>
<polyline fill="none" stroke="black" points="-0.191895,-241 114.192,-241 "/>
<text text-anchor="start" x="7.80811" y="-229" font-family="Helvetica,sans-Serif" font-size="10.00">+ SObject()</text>
<text text-anchor="start" x="7.80811" y="-219" font-family="Helvetica,sans-Serif" font-size="10.00">+ api_version()</text>
<text text-anchor="start" x="7.80811" y="-209" font-family="Helvetica,sans-Serif" font-size="10.00">+ clear_error()</text>
<text text-anchor="start" x="7.80811" y="-199" font-family="Helvetica,sans-Serif" font-size="10.00">+ error_number()</text>
<text text-anchor="start" x="7.80811" y="-189" font-family="Helvetica,sans-Serif" font-size="10.00">+ exit_fatal()</text>
<text text-anchor="start" x="7.80811" y="-179" font-family="Helvetica,sans-Serif" font-size="10.00"># set_error_number()</text>
<text text-anchor="start" x="7.80811" y="-169" font-family="Helvetica,sans-Serif" font-size="10.00"># set_error_number_if</text>
<text text-anchor="start" x="7.80811" y="-159" font-family="Helvetica,sans-Serif" font-size="10.00">_error()</text>
</a>
</g>
</g>
<!-- Node2&#45;&gt;Node1 -->
<g id="edge1" class="edge"><title>Node2&#45;&gt;Node1</title>
<path fill="none" stroke="midnightblue" d="M57,-142.503C57,-133.37 57,-124.126 57,-115.28"/>
<polygon fill="none" stroke="midnightblue" points="53.5001,-142.74 57,-152.74 60.5001,-142.74 53.5001,-142.74"/>
</g>
</g>
</svg>
