<?xml version="1.0" encoding="UTF-8" standalone="no"?>
<!DOCTYPE svg PUBLIC "-//W3C//DTD SVG 1.1//EN"
 "http://www.w3.org/Graphics/SVG/1.1/DTD/svg11.dtd">
<!-- Generated by graphviz version 2.36.0 (20140111.2315)
 -->
<!-- Title: draw::Icon Pages: 1 -->
<!--zoomable 712 -->
<svg id="main" version="1.1" xmlns="http://www.w3.org/2000/svg" xmlns:xlink="http://www.w3.org/1999/xlink" xml:space="preserve" onload="init(evt)">
<style type="text/css"><![CDATA[
.edge:hover path { stroke: red; }
.edge:hover polygon { stroke: red; fill: red; }
]]></style>
<script type="text/javascript"><![CDATA[
var edges = document.getElementsByTagName('g');
if (edges && edges.length) {
  for (var i=0;i<edges.length;i++) {
    if (edges[i].id.substr(0,4)=='edge') {
      edges[i].setAttribute('class','edge');
    }
  }
}
]]></script>
        <defs>
                <circle id="rim" cx="0" cy="0" r="7"/>
                <circle id="rim2" cx="0" cy="0" r="3.5"/>
                <g id="zoomPlus">
                        <use xlink:href="#rim" fill="#404040">
                                <set attributeName="fill" to="#808080" begin="zoomplus.mouseover" end="zoomplus.mouseout"/>
                        </use>
                        <path d="M-4,0h8M0,-4v8" fill="none" stroke="white" stroke-width="1.5" pointer-events="none"/>
                </g>
                <g id="zoomMin">
                        <use xlink:href="#rim" fill="#404040">
                                <set attributeName="fill" to="#808080" begin="zoomminus.mouseover" end="zoomminus.mouseout"/>
                        </use>
                        <path d="M-4,0h8" fill="none" stroke="white" stroke-width="1.5" pointer-events="none"/>
                </g>
                <g id="dirArrow">
                        <path fill="none" stroke="white" stroke-width="1.5" d="M0,-3.0v7 M-2.5,-0.5L0,-3.0L2.5,-0.5"/>
                </g>
               <g id="resetDef">
                       <use xlink:href="#rim2" fill="#404040">
                               <set attributeName="fill" to="#808080" begin="reset.mouseover" end="reset.mouseout"/>
                       </use>
               </g>
        </defs>

<script type="text/javascript">
var viewWidth = 263;
var viewHeight = 712;
var sectionId = 'dynsection-0';
</script>
<script xlink:href="svgpan.js"/>
<svg id="graph" class="graph">
<g id="viewport">
<title>draw::Icon</title>
<!-- Node1 -->
<g id="node1" class="node"><title>Node1</title>
<polygon fill="#bfbfbf" stroke="black" points="87.1196,-1 87.1196,-75 182.88,-75 182.88,-1 87.1196,-1"/>
<text text-anchor="middle" x="135" y="-63" font-family="Helvetica,sans-Serif" font-size="10.00">draw::Icon</text>
<polyline fill="none" stroke="black" points="87.1196,-57 182.88,-57 "/>
<text text-anchor="middle" x="135" y="-45" font-family="Helvetica,sans-Serif" font-size="10.00"> </text>
<polyline fill="none" stroke="black" points="87.1196,-39 182.88,-39 "/>
<text text-anchor="start" x="95.1196" y="-27" font-family="Helvetica,sans-Serif" font-size="10.00">+ Icon()</text>
<text text-anchor="start" x="95.1196" y="-17" font-family="Helvetica,sans-Serif" font-size="10.00">+ bounds()</text>
<text text-anchor="start" x="95.1196" y="-7" font-family="Helvetica,sans-Serif" font-size="10.00">+ draw_to_scale()</text>
</g>
<!-- Node2 -->
<g id="node2" class="node"><title>Node2</title>
<g id="a_node2"><a xlink:href="classdraw_1_1_drawing.html" target="_top" xlink:title="Drawing Class. ">
<polygon fill="none" stroke="black" points="10.4473,-113 10.4473,-337 129.553,-337 129.553,-113 10.4473,-113"/>
<text text-anchor="middle" x="70" y="-325" font-family="Helvetica,sans-Serif" font-size="10.00">draw::Drawing</text>
<polyline fill="none" stroke="black" points="10.4473,-319 129.553,-319 "/>
<text text-anchor="middle" x="70" y="-307" font-family="Helvetica,sans-Serif" font-size="10.00"> </text>
<polyline fill="none" stroke="black" points="10.4473,-301 129.553,-301 "/>
<text text-anchor="start" x="18.4473" y="-289" font-family="Helvetica,sans-Serif" font-size="10.00">+ Drawing()</text>
<text text-anchor="start" x="18.4473" y="-279" font-family="Helvetica,sans-Serif" font-size="10.00">+ dark()</text>
<text text-anchor="start" x="18.4473" y="-269" font-family="Helvetica,sans-Serif" font-size="10.00">+ draw()</text>
<text text-anchor="start" x="18.4473" y="-259" font-family="Helvetica,sans-Serif" font-size="10.00">+ draw()</text>
<text text-anchor="start" x="18.4473" y="-249" font-family="Helvetica,sans-Serif" font-size="10.00">+ draw_scratch()</text>
<text text-anchor="start" x="18.4473" y="-239" font-family="Helvetica,sans-Serif" font-size="10.00">+ draw_to_scale()</text>
<text text-anchor="start" x="18.4473" y="-229" font-family="Helvetica,sans-Serif" font-size="10.00">and 18 more...</text>
<text text-anchor="start" x="18.4473" y="-219" font-family="Helvetica,sans-Serif" font-size="10.00">+ clear()</text>
<text text-anchor="start" x="18.4473" y="-209" font-family="Helvetica,sans-Serif" font-size="10.00">+ draw_checkerboard()</text>
<text text-anchor="start" x="18.4473" y="-199" font-family="Helvetica,sans-Serif" font-size="10.00">+ draw_pattern()</text>
<text text-anchor="start" x="18.4473" y="-189" font-family="Helvetica,sans-Serif" font-size="10.00">+ h()</text>
<text text-anchor="start" x="18.4473" y="-179" font-family="Helvetica,sans-Serif" font-size="10.00">+ height()</text>
<text text-anchor="start" x="18.4473" y="-169" font-family="Helvetica,sans-Serif" font-size="10.00">+ invert()</text>
<text text-anchor="start" x="18.4473" y="-159" font-family="Helvetica,sans-Serif" font-size="10.00">and 4 more...</text>
<text text-anchor="start" x="18.4473" y="-149" font-family="Helvetica,sans-Serif" font-size="10.00"># dim_on_bitmap()</text>
<text text-anchor="start" x="18.4473" y="-139" font-family="Helvetica,sans-Serif" font-size="10.00"># flag()</text>
<text text-anchor="start" x="18.4473" y="-129" font-family="Helvetica,sans-Serif" font-size="10.00"># point_on_bitmap()</text>
<text text-anchor="start" x="18.4473" y="-119" font-family="Helvetica,sans-Serif" font-size="10.00"># set_flag()</text>
</a>
</g>
</g>
<!-- Node2&#45;&gt;Node1 -->
<g id="edge1" class="edge"><title>Node2&#45;&gt;Node1</title>
<path fill="none" stroke="midnightblue" d="M112.438,-103.216C115.944,-93.2372 119.279,-83.7445 122.257,-75.2673"/>
<polygon fill="none" stroke="midnightblue" points="109.043,-102.32 109.03,-112.914 115.647,-104.64 109.043,-102.32"/>
</g>
<!-- Node3 -->
<g id="node3" class="node"><title>Node3</title>
<g id="a_node3"><a xlink:href="classapi_1_1_draw_work_object.html" target="_top" xlink:title="State Machine Work Object Class. ">
<polygon fill="none" stroke="black" points="15.854,-375 15.854,-429 126.146,-429 126.146,-375 15.854,-375"/>
<text text-anchor="middle" x="71" y="-417" font-family="Helvetica,sans-Serif" font-size="10.00">api::DrawWorkObject</text>
<polyline fill="none" stroke="black" points="15.854,-411 126.146,-411 "/>
<text text-anchor="middle" x="71" y="-399" font-family="Helvetica,sans-Serif" font-size="10.00"> </text>
<polyline fill="none" stroke="black" points="15.854,-393 126.146,-393 "/>
<text text-anchor="middle" x="71" y="-381" font-family="Helvetica,sans-Serif" font-size="10.00"> </text>
</a>
</g>
</g>
<!-- Node3&#45;&gt;Node2 -->
<g id="edge2" class="edge"><title>Node3&#45;&gt;Node2</title>
<path fill="none" stroke="midnightblue" d="M70.7925,-364.684C70.7443,-356.251 70.6905,-346.84 70.6343,-337.001"/>
<polygon fill="none" stroke="midnightblue" points="67.2931,-364.821 70.8503,-374.801 74.293,-364.781 67.2931,-364.821"/>
</g>
<!-- Node4 -->
<g id="node4" class="node"><title>Node4</title>
<g id="a_node4"><a xlink:href="classapi_1_1_work_object.html" target="_top" xlink:title="WorkObject Class. ">
<polygon fill="none" stroke="black" points="-0.0859375,-467 -0.0859375,-611 142.086,-611 142.086,-467 -0.0859375,-467"/>
<text text-anchor="middle" x="71" y="-599" font-family="Helvetica,sans-Serif" font-size="10.00">api::WorkObject</text>
<polyline fill="none" stroke="black" points="-0.0859375,-593 142.086,-593 "/>
<text text-anchor="middle" x="71" y="-581" font-family="Helvetica,sans-Serif" font-size="10.00"> </text>
<polyline fill="none" stroke="black" points="-0.0859375,-575 142.086,-575 "/>
<text text-anchor="start" x="7.91406" y="-563" font-family="Helvetica,sans-Serif" font-size="10.00">+ WorkObject()</text>
<text text-anchor="start" x="7.91406" y="-553" font-family="Helvetica,sans-Serif" font-size="10.00">+ clear_error_number()</text>
<text text-anchor="start" x="7.91406" y="-543" font-family="Helvetica,sans-Serif" font-size="10.00">+ error_number()</text>
<text text-anchor="start" x="7.91406" y="-533" font-family="Helvetica,sans-Serif" font-size="10.00">+ exit_fatal()</text>
<text text-anchor="start" x="7.91406" y="-523" font-family="Helvetica,sans-Serif" font-size="10.00"># set_error_number()</text>
<text text-anchor="start" x="7.91406" y="-513" font-family="Helvetica,sans-Serif" font-size="10.00"># set_error_number_if</text>
<text text-anchor="start" x="7.91406" y="-503" font-family="Helvetica,sans-Serif" font-size="10.00">_error()</text>
<text text-anchor="start" x="7.91406" y="-493" font-family="Helvetica,sans-Serif" font-size="10.00"># set_error_number_if_null()</text>
<text text-anchor="start" x="7.91406" y="-483" font-family="Helvetica,sans-Serif" font-size="10.00"># set_error_number_to</text>
<text text-anchor="start" x="7.91406" y="-473" font-family="Helvetica,sans-Serif" font-size="10.00">_errno()</text>
</a>
</g>
</g>
<!-- Node4&#45;&gt;Node3 -->
<g id="edge3" class="edge"><title>Node4&#45;&gt;Node3</title>
<path fill="none" stroke="midnightblue" d="M71,-456.911C71,-446.983 71,-437.464 71,-429.262"/>
<polygon fill="none" stroke="midnightblue" points="67.5001,-456.942 71,-466.942 74.5001,-456.942 67.5001,-456.942"/>
</g>
<!-- Node5 -->
<g id="node5" class="node"><title>Node5</title>
<g id="a_node5"><a xlink:href="classapi_1_1_api_object.html" target="_top" xlink:title="API Object Class. ">
<polygon fill="none" stroke="black" points="93.7896,-649 93.7896,-703 176.21,-703 176.21,-649 93.7896,-649"/>
<text text-anchor="middle" x="135" y="-691" font-family="Helvetica,sans-Serif" font-size="10.00">api::ApiObject</text>
<polyline fill="none" stroke="black" points="93.7896,-685 176.21,-685 "/>
<text text-anchor="middle" x="135" y="-673" font-family="Helvetica,sans-Serif" font-size="10.00"> </text>
<polyline fill="none" stroke="black" points="93.7896,-667 176.21,-667 "/>
<text text-anchor="start" x="101.79" y="-655" font-family="Helvetica,sans-Serif" font-size="10.00">+ api_version()</text>
</a>
</g>
</g>
<!-- Node5&#45;&gt;Node4 -->
<g id="edge4" class="edge"><title>Node5&#45;&gt;Node4</title>
<path fill="none" stroke="midnightblue" d="M118.302,-639.777C114.1,-630.915 109.439,-621.083 104.728,-611.145"/>
<polygon fill="none" stroke="midnightblue" points="115.214,-641.434 122.66,-648.971 121.539,-638.435 115.214,-641.434"/>
</g>
<!-- Node8 -->
<g id="node8" class="node"><title>Node8</title>
<g id="a_node8"><a xlink:href="classapi_1_1_info_object.html" target="_top" xlink:title="API Information Object. ">
<polygon fill="none" stroke="black" points="159.759,-512 159.759,-566 240.241,-566 240.241,-512 159.759,-512"/>
<text text-anchor="middle" x="200" y="-554" font-family="Helvetica,sans-Serif" font-size="10.00">api::InfoObject</text>
<polyline fill="none" stroke="black" points="159.759,-548 240.241,-548 "/>
<text text-anchor="middle" x="200" y="-536" font-family="Helvetica,sans-Serif" font-size="10.00"> </text>
<polyline fill="none" stroke="black" points="159.759,-530 240.241,-530 "/>
<text text-anchor="middle" x="200" y="-518" font-family="Helvetica,sans-Serif" font-size="10.00"> </text>
</a>
</g>
</g>
<!-- Node5&#45;&gt;Node8 -->
<g id="edge8" class="edge"><title>Node5&#45;&gt;Node8</title>
<path fill="none" stroke="midnightblue" d="M151.905,-639.889C162.965,-616.919 177.182,-587.39 187.284,-566.41"/>
<polygon fill="none" stroke="midnightblue" points="148.717,-638.442 147.533,-648.971 155.024,-641.479 148.717,-638.442"/>
</g>
<!-- Node6 -->
<g id="node6" class="node"><title>Node6</title>
<g id="a_node6"><a xlink:href="classdraw_1_1_icon_attr.html" target="_top" xlink:title="Icon Attributes Class. ">
<polygon fill="none" stroke="black" points="147.841,-163 147.841,-287 254.159,-287 254.159,-163 147.841,-163"/>
<text text-anchor="middle" x="201" y="-275" font-family="Helvetica,sans-Serif" font-size="10.00">draw::IconAttr</text>
<polyline fill="none" stroke="black" points="147.841,-269 254.159,-269 "/>
<text text-anchor="middle" x="201" y="-257" font-family="Helvetica,sans-Serif" font-size="10.00"> </text>
<polyline fill="none" stroke="black" points="147.841,-251 254.159,-251 "/>
<text text-anchor="start" x="155.841" y="-239" font-family="Helvetica,sans-Serif" font-size="10.00">+ IconAttr()</text>
<text text-anchor="start" x="155.841" y="-229" font-family="Helvetica,sans-Serif" font-size="10.00">+ IconAttr()</text>
<text text-anchor="start" x="155.841" y="-219" font-family="Helvetica,sans-Serif" font-size="10.00">+ icon()</text>
<text text-anchor="start" x="155.841" y="-209" font-family="Helvetica,sans-Serif" font-size="10.00">+ pen()</text>
<text text-anchor="start" x="155.841" y="-199" font-family="Helvetica,sans-Serif" font-size="10.00">+ pen_const()</text>
<text text-anchor="start" x="155.841" y="-189" font-family="Helvetica,sans-Serif" font-size="10.00">+ rotation()</text>
<text text-anchor="start" x="155.841" y="-179" font-family="Helvetica,sans-Serif" font-size="10.00">and 4 more...</text>
<text text-anchor="start" x="155.841" y="-169" font-family="Helvetica,sans-Serif" font-size="10.00">+ get_system_icon()</text>
</a>
</g>
</g>
<!-- Node6&#45;&gt;Node1 -->
<g id="edge5" class="edge"><title>Node6&#45;&gt;Node1</title>
<path fill="none" stroke="midnightblue" d="M175.752,-153.229C166.248,-126.588 155.834,-97.3987 147.913,-75.195"/>
<polygon fill="none" stroke="midnightblue" points="172.55,-154.669 179.206,-162.911 179.143,-152.317 172.55,-154.669"/>
</g>
<!-- Node7 -->
<g id="node7" class="node"><title>Node7</title>
<g id="a_node7"><a xlink:href="classapi_1_1_draw_info_object.html" target="_top" xlink:title="Draw Information Object. ">
<polygon fill="none" stroke="black" points="148.091,-375 148.091,-429 251.909,-429 251.909,-375 148.091,-375"/>
<text text-anchor="middle" x="200" y="-417" font-family="Helvetica,sans-Serif" font-size="10.00">api::DrawInfoObject</text>
<polyline fill="none" stroke="black" points="148.091,-411 251.909,-411 "/>
<text text-anchor="middle" x="200" y="-399" font-family="Helvetica,sans-Serif" font-size="10.00"> </text>
<polyline fill="none" stroke="black" points="148.091,-393 251.909,-393 "/>
<text text-anchor="middle" x="200" y="-381" font-family="Helvetica,sans-Serif" font-size="10.00"> </text>
</a>
</g>
</g>
<!-- Node7&#45;&gt;Node6 -->
<g id="edge6" class="edge"><title>Node7&#45;&gt;Node6</title>
<path fill="none" stroke="midnightblue" d="M200.207,-364.736C200.335,-342.376 200.502,-313.123 200.65,-287.247"/>
<polygon fill="none" stroke="midnightblue" points="196.707,-364.781 200.15,-374.801 203.707,-364.821 196.707,-364.781"/>
</g>
<!-- Node8&#45;&gt;Node7 -->
<g id="edge7" class="edge"><title>Node8&#45;&gt;Node7</title>
<path fill="none" stroke="midnightblue" d="M200,-501.967C200,-479.133 200,-450.111 200,-429.41"/>
<polygon fill="none" stroke="midnightblue" points="196.5,-501.971 200,-511.971 203.5,-501.971 196.5,-501.971"/>
</g>
</g>
</svg>
        <g id="navigator" transform="translate(0 0)" fill="#404254">
                <rect fill="#f2f5e9" fill-opacity="0.5" stroke="#606060" stroke-width=".5" x="0" y="0" width="60" height="60"/>
                <use id="zoomplus" xlink:href="#zoomPlus" x="17" y="9" onmousedown="handleZoom(evt,'in')"/>
                <use id="zoomminus" xlink:href="#zoomMin" x="42" y="9" onmousedown="handleZoom(evt,'out')"/>
                <use id="reset" xlink:href="#resetDef" x="30" y="36" onmousedown="handleReset()"/>
                <g id="arrowUp" xlink:href="#dirArrow" transform="translate(30 24)" onmousedown="handlePan(0,-1)">
                  <use xlink:href="#rim" fill="#404040">
                        <set attributeName="fill" to="#808080" begin="arrowUp.mouseover" end="arrowUp.mouseout"/>
                  </use>
                  <path fill="none" stroke="white" stroke-width="1.5" d="M0,-3.0v7 M-2.5,-0.5L0,-3.0L2.5,-0.5"/>
                </g>
                <g id="arrowRight" xlink:href="#dirArrow" transform="rotate(90) translate(36 -43)" onmousedown="handlePan(1,0)">
                  <use xlink:href="#rim" fill="#404040">
                        <set attributeName="fill" to="#808080" begin="arrowRight.mouseover" end="arrowRight.mouseout"/>
                  </use>
                  <path fill="none" stroke="white" stroke-width="1.5" d="M0,-3.0v7 M-2.5,-0.5L0,-3.0L2.5,-0.5"/>
                </g>
                <g id="arrowDown" xlink:href="#dirArrow" transform="rotate(180) translate(-30 -48)" onmousedown="handlePan(0,1)">
                  <use xlink:href="#rim" fill="#404040">
                        <set attributeName="fill" to="#808080" begin="arrowDown.mouseover" end="arrowDown.mouseout"/>
                  </use>
                  <path fill="none" stroke="white" stroke-width="1.5" d="M0,-3.0v7 M-2.5,-0.5L0,-3.0L2.5,-0.5"/>
                </g>
                <g id="arrowLeft" xlink:href="#dirArrow" transform="rotate(270) translate(-36 17)" onmousedown="handlePan(-1,0)">
                  <use xlink:href="#rim" fill="#404040">
                        <set attributeName="fill" to="#808080" begin="arrowLeft.mouseover" end="arrowLeft.mouseout"/>
                  </use>
                  <path fill="none" stroke="white" stroke-width="1.5" d="M0,-3.0v7 M-2.5,-0.5L0,-3.0L2.5,-0.5"/>
                </g>
        </g>
        <svg viewBox="0 0 15 15" width="100%" height="30px" preserveAspectRatio="xMaxYMin meet">
         <g id="arrow_out" transform="scale(0.3 0.3)">
          <a xlink:href="classdraw_1_1_icon__inherit__graph_org.svg" target="_base">
           <rect id="button" ry="5" rx="5" y="6" x="6" height="38" width="38"
                fill="#f2f5e9" fill-opacity="0.5" stroke="#606060" stroke-width="1.0"/>
           <path id="arrow"
             d="M 11.500037,31.436501 C 11.940474,20.09759 22.043105,11.32322 32.158766,21.979434 L 37.068811,17.246167 C 37.068811,17.246167 37.088388,32 37.088388,32 L 22.160133,31.978069 C 22.160133,31.978069 26.997745,27.140456 26.997745,27.140456 C 18.528582,18.264221 13.291696,25.230495 11.500037,31.436501 z"
             style="fill:#404040;"/>
          </a>
         </g>
        </svg>
</svg>
