<?xml version="1.0" encoding="UTF-8" standalone="no"?>
<!DOCTYPE svg PUBLIC "-//W3C//DTD SVG 1.1//EN"
 "http://www.w3.org/Graphics/SVG/1.1/DTD/svg11.dtd">
<!-- Generated by graphviz version 2.36.0 (20140111.2315)
 -->
<!-- Title: draw::CircleProgress Pages: 1 -->
<svg width="263pt" height="458pt"
 viewBox="0.00 0.00 263.00 458.00" xmlns="http://www.w3.org/2000/svg" xmlns:xlink="http://www.w3.org/1999/xlink">
<g id="graph0" class="graph" transform="scale(1 1) rotate(0) translate(4 454)">
<title>draw::CircleProgress</title>
<!-- Node1 -->
<g id="node1" class="node"><title>Node1</title>
<polygon fill="#bfbfbf" stroke="black" points="72.5986,-1 72.5986,-65 181.401,-65 181.401,-1 72.5986,-1"/>
<text text-anchor="middle" x="127" y="-53" font-family="Helvetica,sans-Serif" font-size="10.00">draw::CircleProgress</text>
<polyline fill="none" stroke="black" points="72.5986,-47 181.401,-47 "/>
<text text-anchor="middle" x="127" y="-35" font-family="Helvetica,sans-Serif" font-size="10.00"> </text>
<polyline fill="none" stroke="black" points="72.5986,-29 181.401,-29 "/>
<text text-anchor="start" x="80.5986" y="-17" font-family="Helvetica,sans-Serif" font-size="10.00">+ CircleProgress()</text>
<text text-anchor="start" x="80.5986" y="-7" font-family="Helvetica,sans-Serif" font-size="10.00">+ draw_to_scale()</text>
</g>
<!-- Node2 -->
<g id="node2" class="node"><title>Node2</title>
<g id="a_node2"><a xlink:href="classdraw_1_1_progress.html" target="_top" xlink:title="Progress Class. ">
<polygon fill="none" stroke="black" points="52.5742,-103 52.5742,-187 201.426,-187 201.426,-103 52.5742,-103"/>
<text text-anchor="middle" x="127" y="-175" font-family="Helvetica,sans-Serif" font-size="10.00">draw::Progress</text>
<polyline fill="none" stroke="black" points="52.5742,-169 201.426,-169 "/>
<text text-anchor="start" x="60.5742" y="-157" font-family="Helvetica,sans-Serif" font-size="10.00"># m_scaled_border_thickness</text>
<polyline fill="none" stroke="black" points="52.5742,-151 201.426,-151 "/>
<text text-anchor="start" x="60.5742" y="-139" font-family="Helvetica,sans-Serif" font-size="10.00">+ Progress()</text>
<text text-anchor="start" x="60.5742" y="-129" font-family="Helvetica,sans-Serif" font-size="10.00">+ border_thickness()</text>
<text text-anchor="start" x="60.5742" y="-119" font-family="Helvetica,sans-Serif" font-size="10.00">+ set_border_thickness()</text>
<text text-anchor="start" x="60.5742" y="-109" font-family="Helvetica,sans-Serif" font-size="10.00"># scaled_border_thickness()</text>
</a>
</g>
</g>
<!-- Node2&#45;&gt;Node1 -->
<g id="edge1" class="edge"><title>Node2&#45;&gt;Node1</title>
<path fill="none" stroke="midnightblue" d="M127,-92.657C127,-83.2774 127,-73.7553 127,-65.1883"/>
<polygon fill="none" stroke="midnightblue" points="123.5,-92.7271 127,-102.727 130.5,-92.7271 123.5,-92.7271"/>
</g>
<!-- Node3 -->
<g id="node3" class="node"><title>Node3</title>
<g id="a_node3"><a xlink:href="classdraw_1_1_drawing.html" target="_top" xlink:title="Drawing Class. ">
<polygon fill="none" stroke="black" points="-0.552734,-225 -0.552734,-449 118.553,-449 118.553,-225 -0.552734,-225"/>
<text text-anchor="middle" x="59" y="-437" font-family="Helvetica,sans-Serif" font-size="10.00">draw::Drawing</text>
<polyline fill="none" stroke="black" points="-0.552734,-431 118.553,-431 "/>
<text text-anchor="middle" x="59" y="-419" font-family="Helvetica,sans-Serif" font-size="10.00"> </text>
<polyline fill="none" stroke="black" points="-0.552734,-413 118.553,-413 "/>
<text text-anchor="start" x="7.44727" y="-401" font-family="Helvetica,sans-Serif" font-size="10.00">+ Drawing()</text>
<text text-anchor="start" x="7.44727" y="-391" font-family="Helvetica,sans-Serif" font-size="10.00">+ dark()</text>
<text text-anchor="start" x="7.44727" y="-381" font-family="Helvetica,sans-Serif" font-size="10.00">+ draw()</text>
<text text-anchor="start" x="7.44727" y="-371" font-family="Helvetica,sans-Serif" font-size="10.00">+ draw()</text>
<text text-anchor="start" x="7.44727" y="-361" font-family="Helvetica,sans-Serif" font-size="10.00">+ draw_scratch()</text>
<text text-anchor="start" x="7.44727" y="-351" font-family="Helvetica,sans-Serif" font-size="10.00">+ draw_to_scale()</text>
<text text-anchor="start" x="7.44727" y="-341" font-family="Helvetica,sans-Serif" font-size="10.00">and 18 more...</text>
<text text-anchor="start" x="7.44727" y="-331" font-family="Helvetica,sans-Serif" font-size="10.00">+ clear()</text>
<text text-anchor="start" x="7.44727" y="-321" font-family="Helvetica,sans-Serif" font-size="10.00">+ draw_checkerboard()</text>
<text text-anchor="start" x="7.44727" y="-311" font-family="Helvetica,sans-Serif" font-size="10.00">+ draw_pattern()</text>
<text text-anchor="start" x="7.44727" y="-301" font-family="Helvetica,sans-Serif" font-size="10.00">+ h()</text>
<text text-anchor="start" x="7.44727" y="-291" font-family="Helvetica,sans-Serif" font-size="10.00">+ height()</text>
<text text-anchor="start" x="7.44727" y="-281" font-family="Helvetica,sans-Serif" font-size="10.00">+ invert()</text>
<text text-anchor="start" x="7.44727" y="-271" font-family="Helvetica,sans-Serif" font-size="10.00">and 4 more...</text>
<text text-anchor="start" x="7.44727" y="-261" font-family="Helvetica,sans-Serif" font-size="10.00"># dim_on_bitmap()</text>
<text text-anchor="start" x="7.44727" y="-251" font-family="Helvetica,sans-Serif" font-size="10.00"># flag()</text>
<text text-anchor="start" x="7.44727" y="-241" font-family="Helvetica,sans-Serif" font-size="10.00"># point_on_bitmap()</text>
<text text-anchor="start" x="7.44727" y="-231" font-family="Helvetica,sans-Serif" font-size="10.00"># set_flag()</text>
</a>
</g>
</g>
<!-- Node3&#45;&gt;Node2 -->
<g id="edge2" class="edge"><title>Node3&#45;&gt;Node2</title>
<path fill="none" stroke="midnightblue" d="M102.183,-215.342C105.721,-205.457 109.115,-195.973 112.197,-187.363"/>
<polygon fill="none" stroke="midnightblue" points="98.827,-214.332 98.7526,-224.926 105.418,-216.691 98.827,-214.332"/>
</g>
<!-- Node4 -->
<g id="node4" class="node"><title>Node4</title>
<g id="a_node4"><a xlink:href="classdraw_1_1_progress_attr.html" target="_top" xlink:title="Progress Attribute Class. ">
<polygon fill="none" stroke="black" points="136.726,-280 136.726,-394 255.274,-394 255.274,-280 136.726,-280"/>
<text text-anchor="middle" x="196" y="-382" font-family="Helvetica,sans-Serif" font-size="10.00">draw::ProgressAttr</text>
<polyline fill="none" stroke="black" points="136.726,-376 255.274,-376 "/>
<text text-anchor="middle" x="196" y="-364" font-family="Helvetica,sans-Serif" font-size="10.00"> </text>
<polyline fill="none" stroke="black" points="136.726,-358 255.274,-358 "/>
<text text-anchor="start" x="144.726" y="-346" font-family="Helvetica,sans-Serif" font-size="10.00">+ ProgressAttr()</text>
<text text-anchor="start" x="144.726" y="-336" font-family="Helvetica,sans-Serif" font-size="10.00">+ ProgressAttr()</text>
<text text-anchor="start" x="144.726" y="-326" font-family="Helvetica,sans-Serif" font-size="10.00">+ max()</text>
<text text-anchor="start" x="144.726" y="-316" font-family="Helvetica,sans-Serif" font-size="10.00">+ operator progress_t()</text>
<text text-anchor="start" x="144.726" y="-306" font-family="Helvetica,sans-Serif" font-size="10.00">+ pen()</text>
<text text-anchor="start" x="144.726" y="-296" font-family="Helvetica,sans-Serif" font-size="10.00">+ set_attr()</text>
<text text-anchor="start" x="144.726" y="-286" font-family="Helvetica,sans-Serif" font-size="10.00">and 5 more...</text>
</a>
</g>
</g>
<!-- Node4&#45;&gt;Node2 -->
<g id="edge3" class="edge"><title>Node4&#45;&gt;Node2</title>
<path fill="none" stroke="midnightblue" d="M172.09,-270.16C162.055,-242.528 150.696,-211.25 141.89,-187.001"/>
<polygon fill="none" stroke="midnightblue" points="168.874,-271.56 175.578,-279.765 175.454,-269.171 168.874,-271.56"/>
</g>
</g>
</svg>
