<?xml version="1.0" encoding="UTF-8" standalone="no"?>
<!DOCTYPE svg PUBLIC "-//W3C//DTD SVG 1.1//EN"
 "http://www.w3.org/Graphics/SVG/1.1/DTD/svg11.dtd">
<!-- Generated by graphviz version 2.36.0 (20140111.2315)
 -->
<!-- Title: draw::Rect Pages: 1 -->
<svg width="126pt" height="692pt"
 viewBox="0.00 0.00 126.00 692.00" xmlns="http://www.w3.org/2000/svg" xmlns:xlink="http://www.w3.org/1999/xlink">
<g id="graph0" class="graph" transform="scale(1 1) rotate(0) translate(4 688)">
<title>draw::Rect</title>
<!-- Node1 -->
<g id="node1" class="node"><title>Node1</title>
<polygon fill="#bfbfbf" stroke="black" points="11.1196,-1 11.1196,-65 106.88,-65 106.88,-1 11.1196,-1"/>
<text text-anchor="middle" x="59" y="-53" font-family="Helvetica,sans-Serif" font-size="10.00">draw::Rect</text>
<polyline fill="none" stroke="black" points="11.1196,-47 106.88,-47 "/>
<text text-anchor="middle" x="59" y="-35" font-family="Helvetica,sans-Serif" font-size="10.00"> </text>
<polyline fill="none" stroke="black" points="11.1196,-29 106.88,-29 "/>
<text text-anchor="start" x="19.1196" y="-17" font-family="Helvetica,sans-Serif" font-size="10.00">+ Rect()</text>
<text text-anchor="start" x="19.1196" y="-7" font-family="Helvetica,sans-Serif" font-size="10.00">+ draw_to_scale()</text>
</g>
<!-- Node2 -->
<g id="node2" class="node"><title>Node2</title>
<g id="a_node2"><a xlink:href="classdraw_1_1_drawing.html" target="_top" xlink:title="Drawing Class. ">
<polygon fill="none" stroke="black" points="-0.552734,-103 -0.552734,-327 118.553,-327 118.553,-103 -0.552734,-103"/>
<text text-anchor="middle" x="59" y="-315" font-family="Helvetica,sans-Serif" font-size="10.00">draw::Drawing</text>
<polyline fill="none" stroke="black" points="-0.552734,-309 118.553,-309 "/>
<text text-anchor="middle" x="59" y="-297" font-family="Helvetica,sans-Serif" font-size="10.00"> </text>
<polyline fill="none" stroke="black" points="-0.552734,-291 118.553,-291 "/>
<text text-anchor="start" x="7.44727" y="-279" font-family="Helvetica,sans-Serif" font-size="10.00">+ Drawing()</text>
<text text-anchor="start" x="7.44727" y="-269" font-family="Helvetica,sans-Serif" font-size="10.00">+ dark()</text>
<text text-anchor="start" x="7.44727" y="-259" font-family="Helvetica,sans-Serif" font-size="10.00">+ draw()</text>
<text text-anchor="start" x="7.44727" y="-249" font-family="Helvetica,sans-Serif" font-size="10.00">+ draw()</text>
<text text-anchor="start" x="7.44727" y="-239" font-family="Helvetica,sans-Serif" font-size="10.00">+ draw_scratch()</text>
<text text-anchor="start" x="7.44727" y="-229" font-family="Helvetica,sans-Serif" font-size="10.00">+ draw_to_scale()</text>
<text text-anchor="start" x="7.44727" y="-219" font-family="Helvetica,sans-Serif" font-size="10.00">and 18 more...</text>
<text text-anchor="start" x="7.44727" y="-209" font-family="Helvetica,sans-Serif" font-size="10.00">+ clear()</text>
<text text-anchor="start" x="7.44727" y="-199" font-family="Helvetica,sans-Serif" font-size="10.00">+ draw_checkerboard()</text>
<text text-anchor="start" x="7.44727" y="-189" font-family="Helvetica,sans-Serif" font-size="10.00">+ draw_pattern()</text>
<text text-anchor="start" x="7.44727" y="-179" font-family="Helvetica,sans-Serif" font-size="10.00">+ h()</text>
<text text-anchor="start" x="7.44727" y="-169" font-family="Helvetica,sans-Serif" font-size="10.00">+ height()</text>
<text text-anchor="start" x="7.44727" y="-159" font-family="Helvetica,sans-Serif" font-size="10.00">+ invert()</text>
<text text-anchor="start" x="7.44727" y="-149" font-family="Helvetica,sans-Serif" font-size="10.00">and 4 more...</text>
<text text-anchor="start" x="7.44727" y="-139" font-family="Helvetica,sans-Serif" font-size="10.00"># dim_on_bitmap()</text>
<text text-anchor="start" x="7.44727" y="-129" font-family="Helvetica,sans-Serif" font-size="10.00"># flag()</text>
<text text-anchor="start" x="7.44727" y="-119" font-family="Helvetica,sans-Serif" font-size="10.00"># point_on_bitmap()</text>
<text text-anchor="start" x="7.44727" y="-109" font-family="Helvetica,sans-Serif" font-size="10.00"># set_flag()</text>
</a>
</g>
</g>
<!-- Node2&#45;&gt;Node1 -->
<g id="edge1" class="edge"><title>Node2&#45;&gt;Node1</title>
<path fill="none" stroke="midnightblue" d="M59,-92.6933C59,-82.739 59,-73.3684 59,-65.1601"/>
<polygon fill="none" stroke="midnightblue" points="55.5001,-92.8207 59,-102.821 62.5001,-92.8208 55.5001,-92.8207"/>
</g>
<!-- Node3 -->
<g id="node3" class="node"><title>Node3</title>
<g id="a_node3"><a xlink:href="classapi_1_1_draw_work_object.html" target="_top" xlink:title="State Machine Work Object Class. ">
<polygon fill="none" stroke="black" points="3.854,-365 3.854,-419 114.146,-419 114.146,-365 3.854,-365"/>
<text text-anchor="middle" x="59" y="-407" font-family="Helvetica,sans-Serif" font-size="10.00">api::DrawWorkObject</text>
<polyline fill="none" stroke="black" points="3.854,-401 114.146,-401 "/>
<text text-anchor="middle" x="59" y="-389" font-family="Helvetica,sans-Serif" font-size="10.00"> </text>
<polyline fill="none" stroke="black" points="3.854,-383 114.146,-383 "/>
<text text-anchor="middle" x="59" y="-371" font-family="Helvetica,sans-Serif" font-size="10.00"> </text>
</a>
</g>
</g>
<!-- Node3&#45;&gt;Node2 -->
<g id="edge2" class="edge"><title>Node3&#45;&gt;Node2</title>
<path fill="none" stroke="midnightblue" d="M59,-354.684C59,-346.251 59,-336.84 59,-327.001"/>
<polygon fill="none" stroke="midnightblue" points="55.5001,-354.801 59,-364.801 62.5001,-354.801 55.5001,-354.801"/>
</g>
<!-- Node4 -->
<g id="node4" class="node"><title>Node4</title>
<g id="a_node4"><a xlink:href="classapi_1_1_work_object.html" target="_top" xlink:title="WorkObject Class. ">
<polygon fill="none" stroke="black" points="-0.547852,-457 -0.547852,-591 118.548,-591 118.548,-457 -0.547852,-457"/>
<text text-anchor="middle" x="59" y="-579" font-family="Helvetica,sans-Serif" font-size="10.00">api::WorkObject</text>
<polyline fill="none" stroke="black" points="-0.547852,-573 118.548,-573 "/>
<text text-anchor="middle" x="59" y="-561" font-family="Helvetica,sans-Serif" font-size="10.00"> </text>
<polyline fill="none" stroke="black" points="-0.547852,-555 118.548,-555 "/>
<text text-anchor="start" x="7.45215" y="-543" font-family="Helvetica,sans-Serif" font-size="10.00">+ WorkObject()</text>
<text text-anchor="start" x="7.45215" y="-533" font-family="Helvetica,sans-Serif" font-size="10.00">+ clear_error_number()</text>
<text text-anchor="start" x="7.45215" y="-523" font-family="Helvetica,sans-Serif" font-size="10.00">+ error_number()</text>
<text text-anchor="start" x="7.45215" y="-513" font-family="Helvetica,sans-Serif" font-size="10.00">+ exit_fatal()</text>
<text text-anchor="start" x="7.45215" y="-503" font-family="Helvetica,sans-Serif" font-size="10.00"># set_error_number()</text>
<text text-anchor="start" x="7.45215" y="-493" font-family="Helvetica,sans-Serif" font-size="10.00"># set_error_number_if</text>
<text text-anchor="start" x="7.45215" y="-483" font-family="Helvetica,sans-Serif" font-size="10.00">_error()</text>
<text text-anchor="start" x="7.45215" y="-473" font-family="Helvetica,sans-Serif" font-size="10.00"># set_error_number_to</text>
<text text-anchor="start" x="7.45215" y="-463" font-family="Helvetica,sans-Serif" font-size="10.00">_errno()</text>
</a>
</g>
</g>
<!-- Node4&#45;&gt;Node3 -->
<g id="edge3" class="edge"><title>Node4&#45;&gt;Node3</title>
<path fill="none" stroke="midnightblue" d="M59,-446.838C59,-436.903 59,-427.326 59,-419.074"/>
<polygon fill="none" stroke="midnightblue" points="55.5001,-446.857 59,-456.857 62.5001,-446.858 55.5001,-446.857"/>
</g>
<!-- Node5 -->
<g id="node5" class="node"><title>Node5</title>
<g id="a_node5"><a xlink:href="classapi_1_1_api_object.html" target="_top" xlink:title="API Object Class. ">
<polygon fill="none" stroke="black" points="17.7896,-629 17.7896,-683 100.21,-683 100.21,-629 17.7896,-629"/>
<text text-anchor="middle" x="59" y="-671" font-family="Helvetica,sans-Serif" font-size="10.00">api::ApiObject</text>
<polyline fill="none" stroke="black" points="17.7896,-665 100.21,-665 "/>
<text text-anchor="middle" x="59" y="-653" font-family="Helvetica,sans-Serif" font-size="10.00"> </text>
<polyline fill="none" stroke="black" points="17.7896,-647 100.21,-647 "/>
<text text-anchor="start" x="25.7896" y="-635" font-family="Helvetica,sans-Serif" font-size="10.00">+ api_version()</text>
</a>
</g>
</g>
<!-- Node5&#45;&gt;Node4 -->
<g id="edge4" class="edge"><title>Node5&#45;&gt;Node4</title>
<path fill="none" stroke="midnightblue" d="M59,-618.644C59,-610.02 59,-600.555 59,-591.059"/>
<polygon fill="none" stroke="midnightblue" points="55.5001,-618.693 59,-628.693 62.5001,-618.693 55.5001,-618.693"/>
</g>
</g>
</svg>
