<?xml version="1.0" encoding="UTF-8" standalone="no"?>
<!DOCTYPE svg PUBLIC "-//W3C//DTD SVG 1.1//EN"
 "http://www.w3.org/Graphics/SVG/1.1/DTD/svg11.dtd">
<!-- Generated by graphviz version 2.36.0 (20140111.2315)
 -->
<!-- Title: dsp::SignalData&lt; T, BigType &gt; Pages: 1 -->
<svg width="821pt" height="1180pt"
 viewBox="0.00 0.00 821.00 1180.00" xmlns="http://www.w3.org/2000/svg" xmlns:xlink="http://www.w3.org/1999/xlink">
<g id="graph0" class="graph" transform="scale(1 1) rotate(0) translate(4 1176)">
<title>dsp::SignalData&lt; T, BigType &gt;</title>
<!-- Node1 -->
<g id="node1" class="node"><title>Node1</title>
<polygon fill="#bfbfbf" stroke="black" points="359.589,-183 359.589,-307 462.411,-307 462.411,-183 359.589,-183"/>
<text text-anchor="start" x="367.589" y="-295" font-family="Helvetica,sans-Serif" font-size="10.00">dsp::SignalData&lt; T,</text>
<text text-anchor="middle" x="411" y="-285" font-family="Helvetica,sans-Serif" font-size="10.00"> BigType &gt;</text>
<polyline fill="none" stroke="black" points="359.589,-279 462.411,-279 "/>
<text text-anchor="middle" x="411" y="-267" font-family="Helvetica,sans-Serif" font-size="10.00"> </text>
<polyline fill="none" stroke="black" points="359.589,-261 462.411,-261 "/>
<text text-anchor="start" x="367.589" y="-249" font-family="Helvetica,sans-Serif" font-size="10.00">+ SignalData()</text>
<text text-anchor="start" x="367.589" y="-239" font-family="Helvetica,sans-Serif" font-size="10.00">+ SignalData()</text>
<text text-anchor="start" x="367.589" y="-229" font-family="Helvetica,sans-Serif" font-size="10.00">+ abs()</text>
<text text-anchor="start" x="367.589" y="-219" font-family="Helvetica,sans-Serif" font-size="10.00">+ abs()</text>
<text text-anchor="start" x="367.589" y="-209" font-family="Helvetica,sans-Serif" font-size="10.00">+ add()</text>
<text text-anchor="start" x="367.589" y="-199" font-family="Helvetica,sans-Serif" font-size="10.00">+ add()</text>
<text text-anchor="start" x="367.589" y="-189" font-family="Helvetica,sans-Serif" font-size="10.00">and 49 more...</text>
</g>
<!-- Node8 -->
<g id="node8" class="node"><title>Node8</title>
<g id="a_node8"><a xlink:href="classdsp_1_1_signal_complex_q15.html" target="_top" xlink:title="Signal with Complex q1.15 data. ">
<polygon fill="none" stroke="black" points="-0.918457,-6 -0.918457,-130 122.918,-130 122.918,-6 -0.918457,-6"/>
<text text-anchor="start" x="7.08154" y="-118" font-family="Helvetica,sans-Serif" font-size="10.00">dsp::SignalComplexQ15</text>
<text text-anchor="middle" x="61" y="-108" font-family="Helvetica,sans-Serif" font-size="10.00">&lt; ComplexQ15, q63_t &gt;</text>
<polyline fill="none" stroke="black" points="-0.918457,-102 122.918,-102 "/>
<text text-anchor="middle" x="61" y="-90" font-family="Helvetica,sans-Serif" font-size="10.00"> </text>
<polyline fill="none" stroke="black" points="-0.918457,-84 122.918,-84 "/>
<text text-anchor="start" x="7.08154" y="-72" font-family="Helvetica,sans-Serif" font-size="10.00">+ SignalComplexQ15()</text>
<text text-anchor="start" x="7.08154" y="-62" font-family="Helvetica,sans-Serif" font-size="10.00">+ SignalComplexQ15()</text>
<text text-anchor="start" x="7.08154" y="-52" font-family="Helvetica,sans-Serif" font-size="10.00">+ SignalComplexQ15()</text>
<text text-anchor="start" x="7.08154" y="-42" font-family="Helvetica,sans-Serif" font-size="10.00">+ operator=()</text>
<text text-anchor="start" x="7.08154" y="-32" font-family="Helvetica,sans-Serif" font-size="10.00">+ transform()</text>
<text text-anchor="start" x="7.08154" y="-22" font-family="Helvetica,sans-Serif" font-size="10.00">+ transform()</text>
<text text-anchor="start" x="7.08154" y="-12" font-family="Helvetica,sans-Serif" font-size="10.00">+ transform()</text>
</a>
</g>
</g>
<!-- Node1&#45;&gt;Node8 -->
<g id="edge8" class="edge"><title>Node1&#45;&gt;Node8</title>
<path fill="none" stroke="midnightblue" d="M349.481,-227.691C290.725,-210.431 201.138,-179.624 132,-136 128.99,-134.101 125.996,-132.062 123.036,-129.92"/>
<polygon fill="none" stroke="midnightblue" points="348.78,-231.131 359.359,-230.55 350.726,-224.407 348.78,-231.131"/>
</g>
<!-- Node9 -->
<g id="node9" class="node"><title>Node9</title>
<g id="a_node9"><a xlink:href="classdsp_1_1_signal_complex_q31.html" target="_top" xlink:title="Signal with Complex q1.31 Data. ">
<polygon fill="none" stroke="black" points="141.082,-16 141.082,-120 264.918,-120 264.918,-16 141.082,-16"/>
<text text-anchor="start" x="149.082" y="-108" font-family="Helvetica,sans-Serif" font-size="10.00">dsp::SignalComplexQ31</text>
<text text-anchor="middle" x="203" y="-98" font-family="Helvetica,sans-Serif" font-size="10.00">&lt; ComplexQ31, q63_t &gt;</text>
<polyline fill="none" stroke="black" points="141.082,-92 264.918,-92 "/>
<text text-anchor="middle" x="203" y="-80" font-family="Helvetica,sans-Serif" font-size="10.00"> </text>
<polyline fill="none" stroke="black" points="141.082,-74 264.918,-74 "/>
<text text-anchor="start" x="149.082" y="-62" font-family="Helvetica,sans-Serif" font-size="10.00">+ SignalComplexQ31()</text>
<text text-anchor="start" x="149.082" y="-52" font-family="Helvetica,sans-Serif" font-size="10.00">+ SignalComplexQ31()</text>
<text text-anchor="start" x="149.082" y="-42" font-family="Helvetica,sans-Serif" font-size="10.00">+ transform()</text>
<text text-anchor="start" x="149.082" y="-32" font-family="Helvetica,sans-Serif" font-size="10.00">+ transform()</text>
<text text-anchor="start" x="149.082" y="-22" font-family="Helvetica,sans-Serif" font-size="10.00">+ transform()</text>
</a>
</g>
</g>
<!-- Node1&#45;&gt;Node9 -->
<g id="edge9" class="edge"><title>Node1&#45;&gt;Node9</title>
<path fill="none" stroke="midnightblue" d="M351.278,-198.776C326.917,-179.853 298.72,-157.334 274,-136 268.098,-130.906 262.024,-125.48 256.032,-120.005"/>
<polygon fill="none" stroke="midnightblue" points="349.332,-201.696 359.382,-205.049 353.617,-196.16 349.332,-201.696"/>
</g>
<!-- Node10 -->
<g id="node10" class="node"><title>Node10</title>
<g id="a_node10"><a xlink:href="classdsp_1_1_signal_f32.html" target="_top" xlink:title="Signal with 32&#45;bit Floating Point values. ">
<polygon fill="none" stroke="black" points="283.324,-6 283.324,-130 404.676,-130 404.676,-6 283.324,-6"/>
<text text-anchor="start" x="291.324" y="-118" font-family="Helvetica,sans-Serif" font-size="10.00">dsp::SignalF32&lt; float32</text>
<text text-anchor="middle" x="344" y="-108" font-family="Helvetica,sans-Serif" font-size="10.00">_t, float32_t &gt;</text>
<polyline fill="none" stroke="black" points="283.324,-102 404.676,-102 "/>
<text text-anchor="middle" x="344" y="-90" font-family="Helvetica,sans-Serif" font-size="10.00"> </text>
<polyline fill="none" stroke="black" points="283.324,-84 404.676,-84 "/>
<text text-anchor="start" x="291.324" y="-72" font-family="Helvetica,sans-Serif" font-size="10.00">+ SignalF32()</text>
<text text-anchor="start" x="291.324" y="-62" font-family="Helvetica,sans-Serif" font-size="10.00">+ SignalF32()</text>
<text text-anchor="start" x="291.324" y="-52" font-family="Helvetica,sans-Serif" font-size="10.00">+ SignalF32()</text>
<text text-anchor="start" x="291.324" y="-42" font-family="Helvetica,sans-Serif" font-size="10.00">+ abs()</text>
<text text-anchor="start" x="291.324" y="-32" font-family="Helvetica,sans-Serif" font-size="10.00">+ abs()</text>
<text text-anchor="start" x="291.324" y="-22" font-family="Helvetica,sans-Serif" font-size="10.00">+ add()</text>
<text text-anchor="start" x="291.324" y="-12" font-family="Helvetica,sans-Serif" font-size="10.00">and 31 more...</text>
</a>
</g>
</g>
<!-- Node1&#45;&gt;Node10 -->
<g id="edge10" class="edge"><title>Node1&#45;&gt;Node10</title>
<path fill="none" stroke="midnightblue" d="M383.843,-173.066C378.399,-158.848 372.724,-144.025 367.42,-130.172"/>
<polygon fill="none" stroke="midnightblue" points="380.722,-174.706 387.567,-182.793 387.26,-172.203 380.722,-174.706"/>
</g>
<!-- Node11 -->
<g id="node11" class="node"><title>Node11</title>
<g id="a_node11"><a xlink:href="classdsp_1_1_signal_q15.html" target="_top" xlink:title="Signal q1.15. ">
<polygon fill="none" stroke="black" points="423.159,-6 423.159,-130 532.841,-130 532.841,-6 423.159,-6"/>
<text text-anchor="start" x="431.159" y="-118" font-family="Helvetica,sans-Serif" font-size="10.00">dsp::SignalQ15&lt; q15</text>
<text text-anchor="middle" x="478" y="-108" font-family="Helvetica,sans-Serif" font-size="10.00">_t, q63_t &gt;</text>
<polyline fill="none" stroke="black" points="423.159,-102 532.841,-102 "/>
<text text-anchor="middle" x="478" y="-90" font-family="Helvetica,sans-Serif" font-size="10.00"> </text>
<polyline fill="none" stroke="black" points="423.159,-84 532.841,-84 "/>
<text text-anchor="start" x="431.159" y="-72" font-family="Helvetica,sans-Serif" font-size="10.00">+ SignalQ15()</text>
<text text-anchor="start" x="431.159" y="-62" font-family="Helvetica,sans-Serif" font-size="10.00">+ SignalQ15()</text>
<text text-anchor="start" x="431.159" y="-52" font-family="Helvetica,sans-Serif" font-size="10.00">+ SignalQ15()</text>
<text text-anchor="start" x="431.159" y="-42" font-family="Helvetica,sans-Serif" font-size="10.00">+ abs()</text>
<text text-anchor="start" x="431.159" y="-32" font-family="Helvetica,sans-Serif" font-size="10.00">+ abs()</text>
<text text-anchor="start" x="431.159" y="-22" font-family="Helvetica,sans-Serif" font-size="10.00">+ add()</text>
<text text-anchor="start" x="431.159" y="-12" font-family="Helvetica,sans-Serif" font-size="10.00">and 33 more...</text>
</a>
</g>
</g>
<!-- Node1&#45;&gt;Node11 -->
<g id="edge11" class="edge"><title>Node1&#45;&gt;Node11</title>
<path fill="none" stroke="midnightblue" d="M438.157,-173.066C443.601,-158.848 449.276,-144.025 454.58,-130.172"/>
<polygon fill="none" stroke="midnightblue" points="434.74,-172.203 434.433,-182.793 441.278,-174.706 434.74,-172.203"/>
</g>
<!-- Node12 -->
<g id="node12" class="node"><title>Node12</title>
<g id="a_node12"><a xlink:href="classdsp_1_1_signal_q31.html" target="_top" xlink:title="Fixed point q1.31 data signal. ">
<polygon fill="none" stroke="black" points="551.159,-1 551.159,-135 660.841,-135 660.841,-1 551.159,-1"/>
<text text-anchor="start" x="559.159" y="-123" font-family="Helvetica,sans-Serif" font-size="10.00">dsp::SignalQ31&lt; q31</text>
<text text-anchor="middle" x="606" y="-113" font-family="Helvetica,sans-Serif" font-size="10.00">_t, q63_t &gt;</text>
<polyline fill="none" stroke="black" points="551.159,-107 660.841,-107 "/>
<text text-anchor="middle" x="606" y="-95" font-family="Helvetica,sans-Serif" font-size="10.00"> </text>
<polyline fill="none" stroke="black" points="551.159,-89 660.841,-89 "/>
<text text-anchor="start" x="559.159" y="-77" font-family="Helvetica,sans-Serif" font-size="10.00">+ SignalQ31()</text>
<text text-anchor="start" x="559.159" y="-67" font-family="Helvetica,sans-Serif" font-size="10.00">+ SignalQ31()</text>
<text text-anchor="start" x="559.159" y="-57" font-family="Helvetica,sans-Serif" font-size="10.00">+ SignalQ31()</text>
<text text-anchor="start" x="559.159" y="-47" font-family="Helvetica,sans-Serif" font-size="10.00">+ abs()</text>
<text text-anchor="start" x="559.159" y="-37" font-family="Helvetica,sans-Serif" font-size="10.00">+ abs()</text>
<text text-anchor="start" x="559.159" y="-27" font-family="Helvetica,sans-Serif" font-size="10.00">+ add()</text>
<text text-anchor="start" x="559.159" y="-17" font-family="Helvetica,sans-Serif" font-size="10.00">and 35 more...</text>
<text text-anchor="start" x="559.159" y="-7" font-family="Helvetica,sans-Serif" font-size="10.00">+ create_sin_wave()</text>
</a>
</g>
</g>
<!-- Node1&#45;&gt;Node12 -->
<g id="edge12" class="edge"><title>Node1&#45;&gt;Node12</title>
<path fill="none" stroke="midnightblue" d="M470.537,-196.791C493.069,-178.344 518.658,-156.684 541,-136 544.33,-132.917 547.709,-129.707 551.087,-126.435"/>
<polygon fill="none" stroke="midnightblue" points="468.245,-194.144 462.705,-203.175 472.667,-199.57 468.245,-194.144"/>
</g>
<!-- Node13 -->
<g id="node13" class="node"><title>Node13</title>
<g id="a_node13"><a xlink:href="classdsp_1_1_signal_data.html" target="_top" xlink:title="{dsp::SignalData\&lt; Complex\lF32, float32_t \&gt;\n||+ SignalData()\l+ SignalData()\l+ abs()\l+ abs()\l+ add()\l+ add()\land 49 more...\l}">
<polygon fill="none" stroke="black" points="678.662,-6 678.662,-130 813.338,-130 813.338,-6 678.662,-6"/>
<text text-anchor="start" x="686.662" y="-118" font-family="Helvetica,sans-Serif" font-size="10.00">dsp::SignalData&lt; Complex</text>
<text text-anchor="middle" x="746" y="-108" font-family="Helvetica,sans-Serif" font-size="10.00">F32, float32_t &gt;</text>
<polyline fill="none" stroke="black" points="678.662,-102 813.338,-102 "/>
<text text-anchor="middle" x="746" y="-90" font-family="Helvetica,sans-Serif" font-size="10.00"> </text>
<polyline fill="none" stroke="black" points="678.662,-84 813.338,-84 "/>
<text text-anchor="start" x="686.662" y="-72" font-family="Helvetica,sans-Serif" font-size="10.00">+ SignalData()</text>
<text text-anchor="start" x="686.662" y="-62" font-family="Helvetica,sans-Serif" font-size="10.00">+ SignalData()</text>
<text text-anchor="start" x="686.662" y="-52" font-family="Helvetica,sans-Serif" font-size="10.00">+ abs()</text>
<text text-anchor="start" x="686.662" y="-42" font-family="Helvetica,sans-Serif" font-size="10.00">+ abs()</text>
<text text-anchor="start" x="686.662" y="-32" font-family="Helvetica,sans-Serif" font-size="10.00">+ add()</text>
<text text-anchor="start" x="686.662" y="-22" font-family="Helvetica,sans-Serif" font-size="10.00">+ add()</text>
<text text-anchor="start" x="686.662" y="-12" font-family="Helvetica,sans-Serif" font-size="10.00">and 49 more...</text>
</a>
</g>
</g>
<!-- Node1&#45;&gt;Node13 -->
<g id="edge13" class="edge"><title>Node1&#45;&gt;Node13</title>
<path fill="none" stroke="orange" d="M472.569,-224.49C526.588,-205.944 606.11,-175.101 669,-136 672.16,-134.035 675.32,-131.942 678.458,-129.754"/>
<polygon fill="orange" stroke="orange" points="471.134,-221.281 462.789,-227.81 473.384,-227.91 471.134,-221.281"/>
<text text-anchor="middle" x="696.312" y="-156" font-family="Helvetica,sans-Serif" font-size="10.00"> &lt; ComplexF32, float32_t &gt;</text>
</g>
<!-- Node2 -->
<g id="node2" class="node"><title>Node2</title>
<g id="a_node2"><a xlink:href="classvar_1_1_vector.html" target="_top" xlink:title="Vector Class. ">
<polygon fill="none" stroke="black" points="319.602,-347 319.602,-471 406.398,-471 406.398,-347 319.602,-347"/>
<text text-anchor="middle" x="363" y="-459" font-family="Helvetica,sans-Serif" font-size="10.00">var::Vector&lt; T &gt;</text>
<polyline fill="none" stroke="black" points="319.602,-453 406.398,-453 "/>
<text text-anchor="middle" x="363" y="-441" font-family="Helvetica,sans-Serif" font-size="10.00"> </text>
<polyline fill="none" stroke="black" points="319.602,-435 406.398,-435 "/>
<text text-anchor="start" x="327.602" y="-423" font-family="Helvetica,sans-Serif" font-size="10.00">+ Vector()</text>
<text text-anchor="start" x="327.602" y="-413" font-family="Helvetica,sans-Serif" font-size="10.00">+ Vector()</text>
<text text-anchor="start" x="327.602" y="-403" font-family="Helvetica,sans-Serif" font-size="10.00">+ at()</text>
<text text-anchor="start" x="327.602" y="-393" font-family="Helvetica,sans-Serif" font-size="10.00">+ at()</text>
<text text-anchor="start" x="327.602" y="-383" font-family="Helvetica,sans-Serif" font-size="10.00">+ capacity()</text>
<text text-anchor="start" x="327.602" y="-373" font-family="Helvetica,sans-Serif" font-size="10.00">+ clear()</text>
<text text-anchor="start" x="327.602" y="-363" font-family="Helvetica,sans-Serif" font-size="10.00">and 13 more...</text>
<text text-anchor="start" x="327.602" y="-353" font-family="Helvetica,sans-Serif" font-size="10.00"># compare()</text>
</a>
</g>
</g>
<!-- Node2&#45;&gt;Node1 -->
<g id="edge1" class="edge"><title>Node2&#45;&gt;Node1</title>
<path fill="none" stroke="midnightblue" d="M384.067,-336.898C387.014,-326.951 390.022,-316.802 392.907,-307.063"/>
<polygon fill="none" stroke="midnightblue" points="380.632,-336.172 381.147,-346.755 387.343,-338.161 380.632,-336.172"/>
</g>
<!-- Node3 -->
<g id="node3" class="node"><title>Node3</title>
<g id="a_node3"><a xlink:href="classvar_1_1_data.html" target="_top" xlink:title="Data storage class. ">
<polygon fill="none" stroke="black" points="309.41,-511 309.41,-645 404.59,-645 404.59,-511 309.41,-511"/>
<text text-anchor="middle" x="357" y="-633" font-family="Helvetica,sans-Serif" font-size="10.00">var::Data</text>
<polyline fill="none" stroke="black" points="309.41,-627 404.59,-627 "/>
<text text-anchor="middle" x="357" y="-615" font-family="Helvetica,sans-Serif" font-size="10.00"> </text>
<polyline fill="none" stroke="black" points="309.41,-609 404.59,-609 "/>
<text text-anchor="start" x="317.41" y="-597" font-family="Helvetica,sans-Serif" font-size="10.00">+ Data()</text>
<text text-anchor="start" x="317.41" y="-587" font-family="Helvetica,sans-Serif" font-size="10.00">+ Data()</text>
<text text-anchor="start" x="317.41" y="-577" font-family="Helvetica,sans-Serif" font-size="10.00">+ Data()</text>
<text text-anchor="start" x="317.41" y="-567" font-family="Helvetica,sans-Serif" font-size="10.00">+ Data()</text>
<text text-anchor="start" x="317.41" y="-557" font-family="Helvetica,sans-Serif" font-size="10.00">+ ~Data()</text>
<text text-anchor="start" x="317.41" y="-547" font-family="Helvetica,sans-Serif" font-size="10.00">+ alloc()</text>
<text text-anchor="start" x="317.41" y="-537" font-family="Helvetica,sans-Serif" font-size="10.00">and 19 more...</text>
<text text-anchor="start" x="317.41" y="-527" font-family="Helvetica,sans-Serif" font-size="10.00">+ minimum_size()</text>
<text text-anchor="start" x="317.41" y="-517" font-family="Helvetica,sans-Serif" font-size="10.00"># copy()</text>
</a>
</g>
</g>
<!-- Node3&#45;&gt;Node2 -->
<g id="edge2" class="edge"><title>Node3&#45;&gt;Node2</title>
<path fill="none" stroke="midnightblue" d="M359.74,-500.746C360.096,-490.839 360.456,-480.795 360.802,-471.177"/>
<polygon fill="none" stroke="midnightblue" points="356.233,-500.878 359.371,-510.997 363.228,-501.129 356.233,-500.878"/>
</g>
<!-- Node4 -->
<g id="node4" class="node"><title>Node4</title>
<g id="a_node4"><a xlink:href="classapi_1_1_var_work_object.html" target="_top" xlink:title="Var Work Object. ">
<polygon fill="none" stroke="black" points="302.109,-839 302.109,-893 403.891,-893 403.891,-839 302.109,-839"/>
<text text-anchor="middle" x="353" y="-881" font-family="Helvetica,sans-Serif" font-size="10.00">api::VarWorkObject</text>
<polyline fill="none" stroke="black" points="302.109,-875 403.891,-875 "/>
<text text-anchor="middle" x="353" y="-863" font-family="Helvetica,sans-Serif" font-size="10.00"> </text>
<polyline fill="none" stroke="black" points="302.109,-857 403.891,-857 "/>
<text text-anchor="middle" x="353" y="-845" font-family="Helvetica,sans-Serif" font-size="10.00"> </text>
</a>
</g>
</g>
<!-- Node4&#45;&gt;Node3 -->
<g id="edge3" class="edge"><title>Node4&#45;&gt;Node3</title>
<path fill="none" stroke="midnightblue" d="M353.507,-828.751C354.151,-782.696 355.275,-702.344 356.074,-645.224"/>
<polygon fill="none" stroke="midnightblue" points="350.006,-828.813 353.366,-838.861 357.005,-828.911 350.006,-828.813"/>
</g>
<!-- Node5 -->
<g id="node5" class="node"><title>Node5</title>
<g id="a_node5"><a xlink:href="classapi_1_1_work_object.html" target="_top" xlink:title="Work Object. ">
<polygon fill="none" stroke="black" points="340.914,-933 340.914,-1077 483.086,-1077 483.086,-933 340.914,-933"/>
<text text-anchor="middle" x="412" y="-1065" font-family="Helvetica,sans-Serif" font-size="10.00">api::WorkObject</text>
<polyline fill="none" stroke="black" points="340.914,-1059 483.086,-1059 "/>
<text text-anchor="middle" x="412" y="-1047" font-family="Helvetica,sans-Serif" font-size="10.00"> </text>
<polyline fill="none" stroke="black" points="340.914,-1041 483.086,-1041 "/>
<text text-anchor="start" x="348.914" y="-1029" font-family="Helvetica,sans-Serif" font-size="10.00">+ WorkObject()</text>
<text text-anchor="start" x="348.914" y="-1019" font-family="Helvetica,sans-Serif" font-size="10.00">+ clear_error_number()</text>
<text text-anchor="start" x="348.914" y="-1009" font-family="Helvetica,sans-Serif" font-size="10.00">+ error_number()</text>
<text text-anchor="start" x="348.914" y="-999" font-family="Helvetica,sans-Serif" font-size="10.00">+ exit_fatal()</text>
<text text-anchor="start" x="348.914" y="-989" font-family="Helvetica,sans-Serif" font-size="10.00"># set_error_number()</text>
<text text-anchor="start" x="348.914" y="-979" font-family="Helvetica,sans-Serif" font-size="10.00"># set_error_number_if</text>
<text text-anchor="start" x="348.914" y="-969" font-family="Helvetica,sans-Serif" font-size="10.00">_error()</text>
<text text-anchor="start" x="348.914" y="-959" font-family="Helvetica,sans-Serif" font-size="10.00"># set_error_number_if_null()</text>
<text text-anchor="start" x="348.914" y="-949" font-family="Helvetica,sans-Serif" font-size="10.00"># set_error_number_to</text>
<text text-anchor="start" x="348.914" y="-939" font-family="Helvetica,sans-Serif" font-size="10.00">_errno()</text>
</a>
</g>
</g>
<!-- Node5&#45;&gt;Node4 -->
<g id="edge4" class="edge"><title>Node5&#45;&gt;Node4</title>
<path fill="none" stroke="midnightblue" d="M377.306,-923.438C372.6,-912.511 368.076,-902.006 364.234,-893.085"/>
<polygon fill="none" stroke="midnightblue" points="374.12,-924.891 381.29,-932.691 380.549,-922.122 374.12,-924.891"/>
</g>
<!-- Node7 -->
<g id="node7" class="node"><title>Node7</title>
<g id="a_node7"><a xlink:href="classapi_1_1_dsp_work_object.html" target="_top" xlink:title="DSP Work Object. ">
<polygon fill="none" stroke="black" points="365.018,-665 365.018,-819 514.982,-819 514.982,-665 365.018,-665"/>
<text text-anchor="middle" x="440" y="-807" font-family="Helvetica,sans-Serif" font-size="10.00">api::DspWorkObject</text>
<polyline fill="none" stroke="black" points="365.018,-801 514.982,-801 "/>
<text text-anchor="start" x="373.018" y="-789" font-family="Helvetica,sans-Serif" font-size="10.00"># m_arm_dsp_api_f32</text>
<text text-anchor="start" x="373.018" y="-779" font-family="Helvetica,sans-Serif" font-size="10.00"># m_arm_dsp_api_q15</text>
<text text-anchor="start" x="373.018" y="-769" font-family="Helvetica,sans-Serif" font-size="10.00"># m_arm_dsp_api_q31</text>
<text text-anchor="start" x="373.018" y="-759" font-family="Helvetica,sans-Serif" font-size="10.00"># m_arm_dsp_api_q7</text>
<text text-anchor="start" x="373.018" y="-749" font-family="Helvetica,sans-Serif" font-size="10.00"># m_arm_dsp_conversion_api</text>
<polyline fill="none" stroke="black" points="365.018,-743 514.982,-743 "/>
<text text-anchor="start" x="373.018" y="-731" font-family="Helvetica,sans-Serif" font-size="10.00">+ arm_dsp_api_f32()</text>
<text text-anchor="start" x="373.018" y="-721" font-family="Helvetica,sans-Serif" font-size="10.00">+ arm_dsp_api_q15()</text>
<text text-anchor="start" x="373.018" y="-711" font-family="Helvetica,sans-Serif" font-size="10.00">+ arm_dsp_api_q31()</text>
<text text-anchor="start" x="373.018" y="-701" font-family="Helvetica,sans-Serif" font-size="10.00">+ arm_dsp_api_q7()</text>
<text text-anchor="start" x="373.018" y="-691" font-family="Helvetica,sans-Serif" font-size="10.00">+ arm_dsp_conversion_api()</text>
<text text-anchor="start" x="373.018" y="-681" font-family="Helvetica,sans-Serif" font-size="10.00">+ request_arm_dsp_api()</text>
<text text-anchor="start" x="373.018" y="-671" font-family="Helvetica,sans-Serif" font-size="10.00">and 5 more...</text>
</a>
</g>
</g>
<!-- Node5&#45;&gt;Node7 -->
<g id="edge7" class="edge"><title>Node5&#45;&gt;Node7</title>
<path fill="none" stroke="midnightblue" d="M420.732,-922.609C424.271,-889.614 428.337,-851.714 431.819,-819.259"/>
<polygon fill="none" stroke="midnightblue" points="417.238,-922.364 419.651,-932.681 424.198,-923.111 417.238,-922.364"/>
</g>
<!-- Node6 -->
<g id="node6" class="node"><title>Node6</title>
<g id="a_node6"><a xlink:href="classapi_1_1_api_object.html" target="_top" xlink:title="Application Programming Interface Object. ">
<polygon fill="none" stroke="black" points="370.79,-1117 370.79,-1171 453.21,-1171 453.21,-1117 370.79,-1117"/>
<text text-anchor="middle" x="412" y="-1159" font-family="Helvetica,sans-Serif" font-size="10.00">api::ApiObject</text>
<polyline fill="none" stroke="black" points="370.79,-1153 453.21,-1153 "/>
<text text-anchor="middle" x="412" y="-1141" font-family="Helvetica,sans-Serif" font-size="10.00"> </text>
<polyline fill="none" stroke="black" points="370.79,-1135 453.21,-1135 "/>
<text text-anchor="start" x="378.79" y="-1123" font-family="Helvetica,sans-Serif" font-size="10.00">+ api_version()</text>
</a>
</g>
</g>
<!-- Node6&#45;&gt;Node5 -->
<g id="edge5" class="edge"><title>Node6&#45;&gt;Node5</title>
<path fill="none" stroke="midnightblue" d="M412,-1106.65C412,-1097.47 412,-1087.29 412,-1077.04"/>
<polygon fill="none" stroke="midnightblue" points="408.5,-1106.91 412,-1116.91 415.5,-1106.91 408.5,-1106.91"/>
</g>
<!-- Node7&#45;&gt;Node1 -->
<g id="edge6" class="edge"><title>Node7&#45;&gt;Node1</title>
<path fill="none" stroke="midnightblue" d="M434.945,-654.72C429.12,-555.297 419.696,-394.428 414.58,-307.111"/>
<polygon fill="none" stroke="midnightblue" points="431.453,-654.963 435.532,-664.741 438.441,-654.553 431.453,-654.963"/>
</g>
</g>
</svg>
