<?xml version="1.0" encoding="UTF-8" standalone="no"?>
<!DOCTYPE svg PUBLIC "-//W3C//DTD SVG 1.1//EN"
 "http://www.w3.org/Graphics/SVG/1.1/DTD/svg11.dtd">
<!-- Generated by graphviz version 2.36.0 (20140111.2315)
 -->
<!-- Title: ev::EventLoopAttr Pages: 1 -->
<svg width="158pt" height="854pt"
 viewBox="0.00 0.00 158.00 854.00" xmlns="http://www.w3.org/2000/svg" xmlns:xlink="http://www.w3.org/1999/xlink">
<g id="graph0" class="graph" transform="scale(1 1) rotate(0) translate(4 850)">
<title>ev::EventLoopAttr</title>
<!-- Node1 -->
<g id="node1" class="node"><title>Node1</title>
<polygon fill="#bfbfbf" stroke="black" points="1.81934,-445 1.81934,-569 148.181,-569 148.181,-445 1.81934,-445"/>
<text text-anchor="middle" x="75" y="-557" font-family="Helvetica,sans-Serif" font-size="10.00">ev::EventLoopAttr</text>
<polyline fill="none" stroke="black" points="1.81934,-551 148.181,-551 "/>
<text text-anchor="start" x="9.81934" y="-539" font-family="Helvetica,sans-Serif" font-size="10.00"># m_attr</text>
<polyline fill="none" stroke="black" points="1.81934,-533 148.181,-533 "/>
<text text-anchor="start" x="9.81934" y="-521" font-family="Helvetica,sans-Serif" font-size="10.00">+ EventLoopAttr()</text>
<text text-anchor="start" x="9.81934" y="-511" font-family="Helvetica,sans-Serif" font-size="10.00">+ hibernation_threshold()</text>
<text text-anchor="start" x="9.81934" y="-501" font-family="Helvetica,sans-Serif" font-size="10.00">+ operator event_loop</text>
<text text-anchor="start" x="9.81934" y="-491" font-family="Helvetica,sans-Serif" font-size="10.00">_attr_t()</text>
<text text-anchor="start" x="9.81934" y="-481" font-family="Helvetica,sans-Serif" font-size="10.00">+ period()</text>
<text text-anchor="start" x="9.81934" y="-471" font-family="Helvetica,sans-Serif" font-size="10.00">+ refresh_wait_resolution()</text>
<text text-anchor="start" x="9.81934" y="-461" font-family="Helvetica,sans-Serif" font-size="10.00">+ set_hibernation_threshold()</text>
<text text-anchor="start" x="9.81934" y="-451" font-family="Helvetica,sans-Serif" font-size="10.00">and 5 more...</text>
</g>
<!-- Node5 -->
<g id="node5" class="node"><title>Node5</title>
<g id="a_node5"><a xlink:href="classev_1_1_event_loop.html" target="_top" xlink:title="Event Loop Class. ">
<polygon fill="none" stroke="black" points="-0.124023,-203 -0.124023,-407 150.124,-407 150.124,-203 -0.124023,-203"/>
<text text-anchor="middle" x="75" y="-395" font-family="Helvetica,sans-Serif" font-size="10.00">ev::EventLoop</text>
<polyline fill="none" stroke="black" points="-0.124023,-389 150.124,-389 "/>
<text text-anchor="middle" x="75" y="-377" font-family="Helvetica,sans-Serif" font-size="10.00"> </text>
<polyline fill="none" stroke="black" points="-0.124023,-371 150.124,-371 "/>
<text text-anchor="start" x="7.87598" y="-359" font-family="Helvetica,sans-Serif" font-size="10.00">+ EventLoop()</text>
<text text-anchor="start" x="7.87598" y="-349" font-family="Helvetica,sans-Serif" font-size="10.00">+ catch_null_handler()</text>
<text text-anchor="start" x="7.87598" y="-339" font-family="Helvetica,sans-Serif" font-size="10.00">+ current_event_handler()</text>
<text text-anchor="start" x="7.87598" y="-329" font-family="Helvetica,sans-Serif" font-size="10.00">+ execute()</text>
<text text-anchor="start" x="7.87598" y="-319" font-family="Helvetica,sans-Serif" font-size="10.00">+ loop()</text>
<text text-anchor="start" x="7.87598" y="-309" font-family="Helvetica,sans-Serif" font-size="10.00">+ process_events()</text>
<text text-anchor="start" x="7.87598" y="-299" font-family="Helvetica,sans-Serif" font-size="10.00">+ set_current_event_handler()</text>
<text text-anchor="start" x="7.87598" y="-289" font-family="Helvetica,sans-Serif" font-size="10.00">+ start()</text>
<text text-anchor="start" x="7.87598" y="-279" font-family="Helvetica,sans-Serif" font-size="10.00">+ handle_event()</text>
<text text-anchor="start" x="7.87598" y="-269" font-family="Helvetica,sans-Serif" font-size="10.00">+ handle_transition()</text>
<text text-anchor="start" x="7.87598" y="-259" font-family="Helvetica,sans-Serif" font-size="10.00">+ start()</text>
<text text-anchor="start" x="7.87598" y="-249" font-family="Helvetica,sans-Serif" font-size="10.00"># check_loop_for_hibernate()</text>
<text text-anchor="start" x="7.87598" y="-239" font-family="Helvetica,sans-Serif" font-size="10.00"># check_loop_for_update()</text>
<text text-anchor="start" x="7.87598" y="-229" font-family="Helvetica,sans-Serif" font-size="10.00"># handle_event()</text>
<text text-anchor="start" x="7.87598" y="-219" font-family="Helvetica,sans-Serif" font-size="10.00"># loop_timer()</text>
<text text-anchor="start" x="7.87598" y="-209" font-family="Helvetica,sans-Serif" font-size="10.00"># update_timer()</text>
</a>
</g>
</g>
<!-- Node1&#45;&gt;Node5 -->
<g id="edge4" class="edge"><title>Node1&#45;&gt;Node5</title>
<path fill="none" stroke="midnightblue" d="M75,-434.637C75,-425.743 75,-416.52 75,-407.282"/>
<polygon fill="none" stroke="midnightblue" points="71.5001,-434.907 75,-444.907 78.5001,-434.907 71.5001,-434.907"/>
</g>
<!-- Node2 -->
<g id="node2" class="node"><title>Node2</title>
<g id="a_node2"><a xlink:href="classapi_1_1_ev_info_object.html" target="_top" xlink:title="Event Informatin Object. ">
<polygon fill="none" stroke="black" points="28.9238,-607 28.9238,-661 121.076,-661 121.076,-607 28.9238,-607"/>
<text text-anchor="middle" x="75" y="-649" font-family="Helvetica,sans-Serif" font-size="10.00">api::EvInfoObject</text>
<polyline fill="none" stroke="black" points="28.9238,-643 121.076,-643 "/>
<text text-anchor="middle" x="75" y="-631" font-family="Helvetica,sans-Serif" font-size="10.00"> </text>
<polyline fill="none" stroke="black" points="28.9238,-625 121.076,-625 "/>
<text text-anchor="middle" x="75" y="-613" font-family="Helvetica,sans-Serif" font-size="10.00"> </text>
</a>
</g>
</g>
<!-- Node2&#45;&gt;Node1 -->
<g id="edge1" class="edge"><title>Node2&#45;&gt;Node1</title>
<path fill="none" stroke="midnightblue" d="M75,-596.715C75,-588.071 75,-578.61 75,-569.188"/>
<polygon fill="none" stroke="midnightblue" points="71.5001,-596.796 75,-606.796 78.5001,-596.796 71.5001,-596.796"/>
</g>
<!-- Node3 -->
<g id="node3" class="node"><title>Node3</title>
<g id="a_node3"><a xlink:href="classapi_1_1_info_object.html" target="_top" xlink:title="API Information Object. ">
<polygon fill="none" stroke="black" points="34.7588,-699 34.7588,-753 115.241,-753 115.241,-699 34.7588,-699"/>
<text text-anchor="middle" x="75" y="-741" font-family="Helvetica,sans-Serif" font-size="10.00">api::InfoObject</text>
<polyline fill="none" stroke="black" points="34.7588,-735 115.241,-735 "/>
<text text-anchor="middle" x="75" y="-723" font-family="Helvetica,sans-Serif" font-size="10.00"> </text>
<polyline fill="none" stroke="black" points="34.7588,-717 115.241,-717 "/>
<text text-anchor="middle" x="75" y="-705" font-family="Helvetica,sans-Serif" font-size="10.00"> </text>
</a>
</g>
</g>
<!-- Node3&#45;&gt;Node2 -->
<g id="edge2" class="edge"><title>Node3&#45;&gt;Node2</title>
<path fill="none" stroke="midnightblue" d="M75,-688.865C75,-679.644 75,-669.907 75,-661.285"/>
<polygon fill="none" stroke="midnightblue" points="71.5001,-688.968 75,-698.968 78.5001,-688.968 71.5001,-688.968"/>
</g>
<!-- Node4 -->
<g id="node4" class="node"><title>Node4</title>
<g id="a_node4"><a xlink:href="classapi_1_1_api_object.html" target="_top" xlink:title="API Object Class. ">
<polygon fill="none" stroke="black" points="33.7896,-791 33.7896,-845 116.21,-845 116.21,-791 33.7896,-791"/>
<text text-anchor="middle" x="75" y="-833" font-family="Helvetica,sans-Serif" font-size="10.00">api::ApiObject</text>
<polyline fill="none" stroke="black" points="33.7896,-827 116.21,-827 "/>
<text text-anchor="middle" x="75" y="-815" font-family="Helvetica,sans-Serif" font-size="10.00"> </text>
<polyline fill="none" stroke="black" points="33.7896,-809 116.21,-809 "/>
<text text-anchor="start" x="41.7896" y="-797" font-family="Helvetica,sans-Serif" font-size="10.00">+ api_version()</text>
</a>
</g>
</g>
<!-- Node4&#45;&gt;Node3 -->
<g id="edge3" class="edge"><title>Node4&#45;&gt;Node3</title>
<path fill="none" stroke="midnightblue" d="M75,-780.865C75,-771.644 75,-761.907 75,-753.285"/>
<polygon fill="none" stroke="midnightblue" points="71.5001,-780.968 75,-790.968 78.5001,-780.968 71.5001,-780.968"/>
</g>
<!-- Node6 -->
<g id="node6" class="node"><title>Node6</title>
<g id="a_node6"><a xlink:href="classui_1_1_event_loop.html" target="_top" xlink:title="Event Loop Class (Graphical UI) ">
<polygon fill="none" stroke="black" points="13.7798,-1 13.7798,-165 136.22,-165 136.22,-1 13.7798,-1"/>
<text text-anchor="middle" x="75" y="-153" font-family="Helvetica,sans-Serif" font-size="10.00">ui::EventLoop</text>
<polyline fill="none" stroke="black" points="13.7798,-147 136.22,-147 "/>
<text text-anchor="middle" x="75" y="-135" font-family="Helvetica,sans-Serif" font-size="10.00"> </text>
<polyline fill="none" stroke="black" points="13.7798,-129 136.22,-129 "/>
<text text-anchor="start" x="21.7798" y="-117" font-family="Helvetica,sans-Serif" font-size="10.00">+ EventLoop()</text>
<text text-anchor="start" x="21.7798" y="-107" font-family="Helvetica,sans-Serif" font-size="10.00">+ catch_null_handler()</text>
<text text-anchor="start" x="21.7798" y="-97" font-family="Helvetica,sans-Serif" font-size="10.00">+ current_element()</text>
<text text-anchor="start" x="21.7798" y="-87" font-family="Helvetica,sans-Serif" font-size="10.00">+ drawing_attr()</text>
<text text-anchor="start" x="21.7798" y="-77" font-family="Helvetica,sans-Serif" font-size="10.00">+ loop()</text>
<text text-anchor="start" x="21.7798" y="-67" font-family="Helvetica,sans-Serif" font-size="10.00">+ set_current_element()</text>
<text text-anchor="start" x="21.7798" y="-57" font-family="Helvetica,sans-Serif" font-size="10.00">+ set_drawing_attr()</text>
<text text-anchor="start" x="21.7798" y="-47" font-family="Helvetica,sans-Serif" font-size="10.00">+ start()</text>
<text text-anchor="start" x="21.7798" y="-37" font-family="Helvetica,sans-Serif" font-size="10.00">+ handle_event()</text>
<text text-anchor="start" x="21.7798" y="-27" font-family="Helvetica,sans-Serif" font-size="10.00">+ handle_transition()</text>
<text text-anchor="start" x="21.7798" y="-17" font-family="Helvetica,sans-Serif" font-size="10.00">+ start()</text>
<text text-anchor="start" x="21.7798" y="-7" font-family="Helvetica,sans-Serif" font-size="10.00"># handle_event()</text>
</a>
</g>
</g>
<!-- Node5&#45;&gt;Node6 -->
<g id="edge5" class="edge"><title>Node5&#45;&gt;Node6</title>
<path fill="none" stroke="midnightblue" d="M75,-192.608C75,-183.307 75,-174.02 75,-165.012"/>
<polygon fill="none" stroke="midnightblue" points="71.5001,-192.693 75,-202.693 78.5001,-192.693 71.5001,-192.693"/>
</g>
</g>
</svg>
