<?xml version="1.0" encoding="UTF-8" standalone="no"?>
<!DOCTYPE svg PUBLIC "-//W3C//DTD SVG 1.1//EN"
 "http://www.w3.org/Graphics/SVG/1.1/DTD/svg11.dtd">
<!-- Generated by graphviz version 2.36.0 (20140111.2315)
 -->
<!-- Title: hal::Spi Pages: 1 -->
<!--zoomable 1518 -->
<svg id="main" version="1.1" xmlns="http://www.w3.org/2000/svg" xmlns:xlink="http://www.w3.org/1999/xlink" xml:space="preserve" onload="init(evt)">
<style type="text/css"><![CDATA[
.edge:hover path { stroke: red; }
.edge:hover polygon { stroke: red; fill: red; }
]]></style>
<script type="text/javascript"><![CDATA[
var edges = document.getElementsByTagName('g');
if (edges && edges.length) {
  for (var i=0;i<edges.length;i++) {
    if (edges[i].id.substr(0,4)=='edge') {
      edges[i].setAttribute('class','edge');
    }
  }
}
]]></script>
        <defs>
                <circle id="rim" cx="0" cy="0" r="7"/>
                <circle id="rim2" cx="0" cy="0" r="3.5"/>
                <g id="zoomPlus">
                        <use xlink:href="#rim" fill="#404040">
                                <set attributeName="fill" to="#808080" begin="zoomplus.mouseover" end="zoomplus.mouseout"/>
                        </use>
                        <path d="M-4,0h8M0,-4v8" fill="none" stroke="white" stroke-width="1.5" pointer-events="none"/>
                </g>
                <g id="zoomMin">
                        <use xlink:href="#rim" fill="#404040">
                                <set attributeName="fill" to="#808080" begin="zoomminus.mouseover" end="zoomminus.mouseout"/>
                        </use>
                        <path d="M-4,0h8" fill="none" stroke="white" stroke-width="1.5" pointer-events="none"/>
                </g>
                <g id="dirArrow">
                        <path fill="none" stroke="white" stroke-width="1.5" d="M0,-3.0v7 M-2.5,-0.5L0,-3.0L2.5,-0.5"/>
                </g>
               <g id="resetDef">
                       <use xlink:href="#rim2" fill="#404040">
                               <set attributeName="fill" to="#808080" begin="reset.mouseover" end="reset.mouseout"/>
                       </use>
               </g>
        </defs>

<script type="text/javascript">
var viewWidth = 203;
var viewHeight = 1518;
var sectionId = 'dynsection-0';
</script>
<script xlink:href="svgpan.js"/>
<svg id="graph" class="graph">
<g id="viewport">
<title>hal::Spi</title>
<!-- Node1 -->
<g id="node1" class="node"><title>Node1</title>
<polygon fill="#bfbfbf" stroke="black" points="42.686,-1 42.686,-85 107.314,-85 107.314,-1 42.686,-1"/>
<text text-anchor="middle" x="75" y="-73" font-family="Helvetica,sans-Serif" font-size="10.00">hal::Spi</text>
<polyline fill="none" stroke="black" points="42.686,-67 107.314,-67 "/>
<text text-anchor="middle" x="75" y="-55" font-family="Helvetica,sans-Serif" font-size="10.00"> </text>
<polyline fill="none" stroke="black" points="42.686,-49 107.314,-49 "/>
<text text-anchor="start" x="50.686" y="-37" font-family="Helvetica,sans-Serif" font-size="10.00">+ Spi()</text>
<text text-anchor="start" x="50.686" y="-27" font-family="Helvetica,sans-Serif" font-size="10.00">+ init()</text>
<text text-anchor="start" x="50.686" y="-17" font-family="Helvetica,sans-Serif" font-size="10.00">+ set_attr()</text>
<text text-anchor="start" x="50.686" y="-7" font-family="Helvetica,sans-Serif" font-size="10.00">+ swap()</text>
</g>
<!-- Node2 -->
<g id="node2" class="node"><title>Node2</title>
<g id="a_node2"><a xlink:href="classhal_1_1_periph.html" target="_top" xlink:title="{hal::Periph\&lt; spi_info\l_t, spi_attr_t, &#39;s&#39;\&gt;\n||+ Periph()\l+ get_info()\l+ get_version()\l+ init()\l+ port()\l+ set_action()\l+ set_action()\l+ set_attr()\l+ set_attr()\l# get_channel()\l# set_channel()\l# set_channel()\l}">
<polygon fill="none" stroke="black" points="21.5532,-125 21.5532,-299 128.447,-299 128.447,-125 21.5532,-125"/>
<text text-anchor="start" x="29.5532" y="-287" font-family="Helvetica,sans-Serif" font-size="10.00">hal::Periph&lt; spi_info</text>
<text text-anchor="middle" x="75" y="-277" font-family="Helvetica,sans-Serif" font-size="10.00">_t, spi_attr_t, &#39;s&#39;&gt;</text>
<polyline fill="none" stroke="black" points="21.5532,-271 128.447,-271 "/>
<text text-anchor="middle" x="75" y="-259" font-family="Helvetica,sans-Serif" font-size="10.00"> </text>
<polyline fill="none" stroke="black" points="21.5532,-253 128.447,-253 "/>
<text text-anchor="start" x="29.5532" y="-241" font-family="Helvetica,sans-Serif" font-size="10.00">+ Periph()</text>
<text text-anchor="start" x="29.5532" y="-231" font-family="Helvetica,sans-Serif" font-size="10.00">+ get_info()</text>
<text text-anchor="start" x="29.5532" y="-221" font-family="Helvetica,sans-Serif" font-size="10.00">+ get_version()</text>
<text text-anchor="start" x="29.5532" y="-211" font-family="Helvetica,sans-Serif" font-size="10.00">+ init()</text>
<text text-anchor="start" x="29.5532" y="-201" font-family="Helvetica,sans-Serif" font-size="10.00">+ port()</text>
<text text-anchor="start" x="29.5532" y="-191" font-family="Helvetica,sans-Serif" font-size="10.00">+ set_action()</text>
<text text-anchor="start" x="29.5532" y="-181" font-family="Helvetica,sans-Serif" font-size="10.00">+ set_action()</text>
<text text-anchor="start" x="29.5532" y="-171" font-family="Helvetica,sans-Serif" font-size="10.00">+ set_attr()</text>
<text text-anchor="start" x="29.5532" y="-161" font-family="Helvetica,sans-Serif" font-size="10.00">+ set_attr()</text>
<text text-anchor="start" x="29.5532" y="-151" font-family="Helvetica,sans-Serif" font-size="10.00"># get_channel()</text>
<text text-anchor="start" x="29.5532" y="-141" font-family="Helvetica,sans-Serif" font-size="10.00"># set_channel()</text>
<text text-anchor="start" x="29.5532" y="-131" font-family="Helvetica,sans-Serif" font-size="10.00"># set_channel()</text>
</a>
</g>
</g>
<!-- Node2&#45;&gt;Node1 -->
<g id="edge1" class="edge"><title>Node2&#45;&gt;Node1</title>
<path fill="none" stroke="midnightblue" d="M75,-114.341C75,-104.183 75,-94.2909 75,-85.2876"/>
<polygon fill="none" stroke="midnightblue" points="71.5001,-114.565 75,-124.565 78.5001,-114.565 71.5001,-114.565"/>
</g>
<!-- Node3 -->
<g id="node3" class="node"><title>Node3</title>
<g id="a_node3"><a xlink:href="classhal_1_1_periph_object.html" target="_top" xlink:title="Periph Object Class. ">
<polygon fill="none" stroke="black" points="12.6455,-571 12.6455,-735 105.354,-735 105.354,-571 12.6455,-571"/>
<text text-anchor="middle" x="59" y="-723" font-family="Helvetica,sans-Serif" font-size="10.00">hal::PeriphObject</text>
<polyline fill="none" stroke="black" points="12.6455,-717 105.354,-717 "/>
<text text-anchor="start" x="20.6455" y="-705" font-family="Helvetica,sans-Serif" font-size="10.00"># m_periph_port</text>
<polyline fill="none" stroke="black" points="12.6455,-699 105.354,-699 "/>
<text text-anchor="start" x="20.6455" y="-687" font-family="Helvetica,sans-Serif" font-size="10.00">+ close()</text>
<text text-anchor="start" x="20.6455" y="-677" font-family="Helvetica,sans-Serif" font-size="10.00">+ fileno()</text>
<text text-anchor="start" x="20.6455" y="-667" font-family="Helvetica,sans-Serif" font-size="10.00">+ ioctl()</text>
<text text-anchor="start" x="20.6455" y="-657" font-family="Helvetica,sans-Serif" font-size="10.00">+ open()</text>
<text text-anchor="start" x="20.6455" y="-647" font-family="Helvetica,sans-Serif" font-size="10.00">+ read()</text>
<text text-anchor="start" x="20.6455" y="-637" font-family="Helvetica,sans-Serif" font-size="10.00">+ read()</text>
<text text-anchor="start" x="20.6455" y="-627" font-family="Helvetica,sans-Serif" font-size="10.00">+ seek()</text>
<text text-anchor="start" x="20.6455" y="-617" font-family="Helvetica,sans-Serif" font-size="10.00">+ write()</text>
<text text-anchor="start" x="20.6455" y="-607" font-family="Helvetica,sans-Serif" font-size="10.00">+ write()</text>
<text text-anchor="start" x="20.6455" y="-597" font-family="Helvetica,sans-Serif" font-size="10.00"># lookup_fileno()</text>
<text text-anchor="start" x="20.6455" y="-587" font-family="Helvetica,sans-Serif" font-size="10.00"># open()</text>
<text text-anchor="start" x="20.6455" y="-577" font-family="Helvetica,sans-Serif" font-size="10.00"># update_fileno()</text>
</a>
</g>
</g>
<!-- Node3&#45;&gt;Node2 -->
<g id="edge2" class="edge"><title>Node3&#45;&gt;Node2</title>
<path fill="none" stroke="midnightblue" d="M60.2368,-560.609C61.2573,-502.092 63.0333,-424.552 66,-356 66.7959,-337.609 67.8837,-317.902 69.0281,-299.176"/>
<polygon fill="none" stroke="midnightblue" points="56.7318,-560.88 60.061,-570.938 63.7308,-560.999 56.7318,-560.88"/>
</g>
<!-- Node10 -->
<g id="node10" class="node"><title>Node10</title>
<g id="a_node10"><a xlink:href="classhal_1_1_periph.html" target="_top" xlink:title="Peripheral Class. ">
<polygon fill="none" stroke="black" points="74.7798,-357 74.7798,-531 177.22,-531 177.22,-357 74.7798,-357"/>
<text text-anchor="start" x="82.7798" y="-519" font-family="Helvetica,sans-Serif" font-size="10.00">hal::Periph&lt; info_t,</text>
<text text-anchor="middle" x="126" y="-509" font-family="Helvetica,sans-Serif" font-size="10.00"> attr_t, ident_char &gt;</text>
<polyline fill="none" stroke="black" points="74.7798,-503 177.22,-503 "/>
<text text-anchor="middle" x="126" y="-491" font-family="Helvetica,sans-Serif" font-size="10.00"> </text>
<polyline fill="none" stroke="black" points="74.7798,-485 177.22,-485 "/>
<text text-anchor="start" x="82.7798" y="-473" font-family="Helvetica,sans-Serif" font-size="10.00">+ Periph()</text>
<text text-anchor="start" x="82.7798" y="-463" font-family="Helvetica,sans-Serif" font-size="10.00">+ get_info()</text>
<text text-anchor="start" x="82.7798" y="-453" font-family="Helvetica,sans-Serif" font-size="10.00">+ get_version()</text>
<text text-anchor="start" x="82.7798" y="-443" font-family="Helvetica,sans-Serif" font-size="10.00">+ init()</text>
<text text-anchor="start" x="82.7798" y="-433" font-family="Helvetica,sans-Serif" font-size="10.00">+ port()</text>
<text text-anchor="start" x="82.7798" y="-423" font-family="Helvetica,sans-Serif" font-size="10.00">+ set_action()</text>
<text text-anchor="start" x="82.7798" y="-413" font-family="Helvetica,sans-Serif" font-size="10.00">+ set_action()</text>
<text text-anchor="start" x="82.7798" y="-403" font-family="Helvetica,sans-Serif" font-size="10.00">+ set_attr()</text>
<text text-anchor="start" x="82.7798" y="-393" font-family="Helvetica,sans-Serif" font-size="10.00">+ set_attr()</text>
<text text-anchor="start" x="82.7798" y="-383" font-family="Helvetica,sans-Serif" font-size="10.00"># get_channel()</text>
<text text-anchor="start" x="82.7798" y="-373" font-family="Helvetica,sans-Serif" font-size="10.00"># set_channel()</text>
<text text-anchor="start" x="82.7798" y="-363" font-family="Helvetica,sans-Serif" font-size="10.00"># set_channel()</text>
</a>
</g>
</g>
<!-- Node3&#45;&gt;Node10 -->
<g id="edge10" class="edge"><title>Node3&#45;&gt;Node10</title>
<path fill="none" stroke="midnightblue" d="M88.3752,-561.244C91.6162,-551.231 94.9095,-541.056 98.1313,-531.102"/>
<polygon fill="none" stroke="midnightblue" points="85.0375,-560.19 85.2879,-570.782 91.6973,-562.346 85.0375,-560.19"/>
</g>
<!-- Node4 -->
<g id="node4" class="node"><title>Node4</title>
<g id="a_node4"><a xlink:href="classhal_1_1_device.html" target="_top" xlink:title="Device Class. ">
<polygon fill="none" stroke="black" points="26.2661,-775 26.2661,-849 91.7339,-849 91.7339,-775 26.2661,-775"/>
<text text-anchor="middle" x="59" y="-837" font-family="Helvetica,sans-Serif" font-size="10.00">hal::Device</text>
<polyline fill="none" stroke="black" points="26.2661,-831 91.7339,-831 "/>
<text text-anchor="middle" x="59" y="-819" font-family="Helvetica,sans-Serif" font-size="10.00"> </text>
<polyline fill="none" stroke="black" points="26.2661,-813 91.7339,-813 "/>
<text text-anchor="start" x="34.2661" y="-801" font-family="Helvetica,sans-Serif" font-size="10.00">+ Device()</text>
<text text-anchor="start" x="34.2661" y="-791" font-family="Helvetica,sans-Serif" font-size="10.00">+ read()</text>
<text text-anchor="start" x="34.2661" y="-781" font-family="Helvetica,sans-Serif" font-size="10.00">+ write()</text>
</a>
</g>
</g>
<!-- Node4&#45;&gt;Node3 -->
<g id="edge3" class="edge"><title>Node4&#45;&gt;Node3</title>
<path fill="none" stroke="midnightblue" d="M59,-764.793C59,-755.459 59,-745.388 59,-735.256"/>
<polygon fill="none" stroke="midnightblue" points="55.5001,-764.981 59,-774.981 62.5001,-764.981 55.5001,-764.981"/>
</g>
<!-- Node5 -->
<g id="node5" class="node"><title>Node5</title>
<g id="a_node5"><a xlink:href="classapi_1_1_hal_work_object.html" target="_top" xlink:title="Hal Object Class. ">
<polygon fill="none" stroke="black" points="8.01904,-889 8.01904,-943 109.981,-943 109.981,-889 8.01904,-889"/>
<text text-anchor="middle" x="59" y="-931" font-family="Helvetica,sans-Serif" font-size="10.00">api::HalWorkObject</text>
<polyline fill="none" stroke="black" points="8.01904,-925 109.981,-925 "/>
<text text-anchor="middle" x="59" y="-913" font-family="Helvetica,sans-Serif" font-size="10.00"> </text>
<polyline fill="none" stroke="black" points="8.01904,-907 109.981,-907 "/>
<text text-anchor="middle" x="59" y="-895" font-family="Helvetica,sans-Serif" font-size="10.00"> </text>
</a>
</g>
</g>
<!-- Node5&#45;&gt;Node4 -->
<g id="edge4" class="edge"><title>Node5&#45;&gt;Node4</title>
<path fill="none" stroke="midnightblue" d="M59,-878.952C59,-869.347 59,-858.966 59,-849.345"/>
<polygon fill="none" stroke="midnightblue" points="55.5001,-878.997 59,-888.997 62.5001,-878.997 55.5001,-878.997"/>
</g>
<!-- Node6 -->
<g id="node6" class="node"><title>Node6</title>
<g id="a_node6"><a xlink:href="classsys_1_1_file.html" target="_top" xlink:title="File Class. ">
<polygon fill="none" stroke="black" points="18.7588,-983 18.7588,-1147 99.2412,-1147 99.2412,-983 18.7588,-983"/>
<text text-anchor="middle" x="59" y="-1135" font-family="Helvetica,sans-Serif" font-size="10.00">sys::File</text>
<polyline fill="none" stroke="black" points="18.7588,-1129 99.2412,-1129 "/>
<text text-anchor="start" x="26.7588" y="-1117" font-family="Helvetica,sans-Serif" font-size="10.00"># m_fd</text>
<polyline fill="none" stroke="black" points="18.7588,-1111 99.2412,-1111 "/>
<text text-anchor="start" x="26.7588" y="-1099" font-family="Helvetica,sans-Serif" font-size="10.00">+ File()</text>
<text text-anchor="start" x="26.7588" y="-1089" font-family="Helvetica,sans-Serif" font-size="10.00">+ close()</text>
<text text-anchor="start" x="26.7588" y="-1079" font-family="Helvetica,sans-Serif" font-size="10.00">+ create()</text>
<text text-anchor="start" x="26.7588" y="-1069" font-family="Helvetica,sans-Serif" font-size="10.00">+ fileno()</text>
<text text-anchor="start" x="26.7588" y="-1059" font-family="Helvetica,sans-Serif" font-size="10.00">+ flags()</text>
<text text-anchor="start" x="26.7588" y="-1049" font-family="Helvetica,sans-Serif" font-size="10.00">+ gets()</text>
<text text-anchor="start" x="26.7588" y="-1039" font-family="Helvetica,sans-Serif" font-size="10.00">and 21 more...</text>
<text text-anchor="start" x="26.7588" y="-1029" font-family="Helvetica,sans-Serif" font-size="10.00">+ name()</text>
<text text-anchor="start" x="26.7588" y="-1019" font-family="Helvetica,sans-Serif" font-size="10.00">+ remove()</text>
<text text-anchor="start" x="26.7588" y="-1009" font-family="Helvetica,sans-Serif" font-size="10.00">+ size()</text>
<text text-anchor="start" x="26.7588" y="-999" font-family="Helvetica,sans-Serif" font-size="10.00">+ stat()</text>
<text text-anchor="start" x="26.7588" y="-989" font-family="Helvetica,sans-Serif" font-size="10.00">+ suffix()</text>
</a>
</g>
</g>
<!-- Node6&#45;&gt;Node5 -->
<g id="edge5" class="edge"><title>Node6&#45;&gt;Node5</title>
<path fill="none" stroke="midnightblue" d="M59,-972.442C59,-961.817 59,-951.729 59,-943.143"/>
<polygon fill="none" stroke="midnightblue" points="55.5001,-972.761 59,-982.761 62.5001,-972.761 55.5001,-972.761"/>
</g>
<!-- Node7 -->
<g id="node7" class="node"><title>Node7</title>
<g id="a_node7"><a xlink:href="classapi_1_1_sys_work_object.html" target="_top" xlink:title="System Work Object Class. ">
<polygon fill="none" stroke="black" points="7.18652,-1187 7.18652,-1241 110.813,-1241 110.813,-1187 7.18652,-1187"/>
<text text-anchor="middle" x="59" y="-1229" font-family="Helvetica,sans-Serif" font-size="10.00">api::SysWorkObject</text>
<polyline fill="none" stroke="black" points="7.18652,-1223 110.813,-1223 "/>
<text text-anchor="middle" x="59" y="-1211" font-family="Helvetica,sans-Serif" font-size="10.00"> </text>
<polyline fill="none" stroke="black" points="7.18652,-1205 110.813,-1205 "/>
<text text-anchor="middle" x="59" y="-1193" font-family="Helvetica,sans-Serif" font-size="10.00"> </text>
</a>
</g>
</g>
<!-- Node7&#45;&gt;Node6 -->
<g id="edge6" class="edge"><title>Node7&#45;&gt;Node6</title>
<path fill="none" stroke="midnightblue" d="M59,-1176.61C59,-1167.55 59,-1157.48 59,-1147.21"/>
<polygon fill="none" stroke="midnightblue" points="55.5001,-1176.72 59,-1186.72 62.5001,-1176.72 55.5001,-1176.72"/>
</g>
<!-- Node8 -->
<g id="node8" class="node"><title>Node8</title>
<g id="a_node8"><a xlink:href="classapi_1_1_work_object.html" target="_top" xlink:title="WorkObject Class. ">
<polygon fill="none" stroke="black" points="-0.547852,-1281 -0.547852,-1415 118.548,-1415 118.548,-1281 -0.547852,-1281"/>
<text text-anchor="middle" x="59" y="-1403" font-family="Helvetica,sans-Serif" font-size="10.00">api::WorkObject</text>
<polyline fill="none" stroke="black" points="-0.547852,-1397 118.548,-1397 "/>
<text text-anchor="middle" x="59" y="-1385" font-family="Helvetica,sans-Serif" font-size="10.00"> </text>
<polyline fill="none" stroke="black" points="-0.547852,-1379 118.548,-1379 "/>
<text text-anchor="start" x="7.45215" y="-1367" font-family="Helvetica,sans-Serif" font-size="10.00">+ WorkObject()</text>
<text text-anchor="start" x="7.45215" y="-1357" font-family="Helvetica,sans-Serif" font-size="10.00">+ clear_error_number()</text>
<text text-anchor="start" x="7.45215" y="-1347" font-family="Helvetica,sans-Serif" font-size="10.00">+ error_number()</text>
<text text-anchor="start" x="7.45215" y="-1337" font-family="Helvetica,sans-Serif" font-size="10.00">+ exit_fatal()</text>
<text text-anchor="start" x="7.45215" y="-1327" font-family="Helvetica,sans-Serif" font-size="10.00"># set_error_number()</text>
<text text-anchor="start" x="7.45215" y="-1317" font-family="Helvetica,sans-Serif" font-size="10.00"># set_error_number_if</text>
<text text-anchor="start" x="7.45215" y="-1307" font-family="Helvetica,sans-Serif" font-size="10.00">_error()</text>
<text text-anchor="start" x="7.45215" y="-1297" font-family="Helvetica,sans-Serif" font-size="10.00"># set_error_number_to</text>
<text text-anchor="start" x="7.45215" y="-1287" font-family="Helvetica,sans-Serif" font-size="10.00">_errno()</text>
</a>
</g>
</g>
<!-- Node8&#45;&gt;Node7 -->
<g id="edge7" class="edge"><title>Node8&#45;&gt;Node7</title>
<path fill="none" stroke="midnightblue" d="M59,-1270.48C59,-1260 59,-1249.88 59,-1241.21"/>
<polygon fill="none" stroke="midnightblue" points="55.5001,-1270.61 59,-1280.61 62.5001,-1270.61 55.5001,-1270.61"/>
</g>
<!-- Node9 -->
<g id="node9" class="node"><title>Node9</title>
<g id="a_node9"><a xlink:href="classapi_1_1_api_object.html" target="_top" xlink:title="API Object Class. ">
<polygon fill="none" stroke="black" points="17.7896,-1455 17.7896,-1509 100.21,-1509 100.21,-1455 17.7896,-1455"/>
<text text-anchor="middle" x="59" y="-1497" font-family="Helvetica,sans-Serif" font-size="10.00">api::ApiObject</text>
<polyline fill="none" stroke="black" points="17.7896,-1491 100.21,-1491 "/>
<text text-anchor="middle" x="59" y="-1479" font-family="Helvetica,sans-Serif" font-size="10.00"> </text>
<polyline fill="none" stroke="black" points="17.7896,-1473 100.21,-1473 "/>
<text text-anchor="start" x="25.7896" y="-1461" font-family="Helvetica,sans-Serif" font-size="10.00">+ api_version()</text>
</a>
</g>
</g>
<!-- Node9&#45;&gt;Node8 -->
<g id="edge8" class="edge"><title>Node9&#45;&gt;Node8</title>
<path fill="none" stroke="midnightblue" d="M59,-1444.66C59,-1435.5 59,-1425.38 59,-1415.24"/>
<polygon fill="none" stroke="midnightblue" points="55.5001,-1444.92 59,-1454.92 62.5001,-1444.92 55.5001,-1444.92"/>
</g>
<!-- Node10&#45;&gt;Node2 -->
<g id="edge9" class="edge"><title>Node10&#45;&gt;Node2</title>
<path fill="none" stroke="orange" d="M104.688,-346.888C101.167,-331.006 97.5354,-314.63 94.0732,-299.017"/>
<polygon fill="orange" stroke="orange" points="101.282,-347.697 106.864,-356.702 108.116,-346.182 101.282,-347.697"/>
<text text-anchor="start" x="102" y="-330" font-family="Helvetica,sans-Serif" font-size="10.00"> &lt; spi_info_t, spi_attr</text>
<text text-anchor="middle" x="148.277" y="-320" font-family="Helvetica,sans-Serif" font-size="10.00">_t, &#39;s&#39;&gt;</text>
</g>
</g>
</svg>
        <g id="navigator" transform="translate(0 0)" fill="#404254">
                <rect fill="#f2f5e9" fill-opacity="0.5" stroke="#606060" stroke-width=".5" x="0" y="0" width="60" height="60"/>
                <use id="zoomplus" xlink:href="#zoomPlus" x="17" y="9" onmousedown="handleZoom(evt,'in')"/>
                <use id="zoomminus" xlink:href="#zoomMin" x="42" y="9" onmousedown="handleZoom(evt,'out')"/>
                <use id="reset" xlink:href="#resetDef" x="30" y="36" onmousedown="handleReset()"/>
                <g id="arrowUp" xlink:href="#dirArrow" transform="translate(30 24)" onmousedown="handlePan(0,-1)">
                  <use xlink:href="#rim" fill="#404040">
                        <set attributeName="fill" to="#808080" begin="arrowUp.mouseover" end="arrowUp.mouseout"/>
                  </use>
                  <path fill="none" stroke="white" stroke-width="1.5" d="M0,-3.0v7 M-2.5,-0.5L0,-3.0L2.5,-0.5"/>
                </g>
                <g id="arrowRight" xlink:href="#dirArrow" transform="rotate(90) translate(36 -43)" onmousedown="handlePan(1,0)">
                  <use xlink:href="#rim" fill="#404040">
                        <set attributeName="fill" to="#808080" begin="arrowRight.mouseover" end="arrowRight.mouseout"/>
                  </use>
                  <path fill="none" stroke="white" stroke-width="1.5" d="M0,-3.0v7 M-2.5,-0.5L0,-3.0L2.5,-0.5"/>
                </g>
                <g id="arrowDown" xlink:href="#dirArrow" transform="rotate(180) translate(-30 -48)" onmousedown="handlePan(0,1)">
                  <use xlink:href="#rim" fill="#404040">
                        <set attributeName="fill" to="#808080" begin="arrowDown.mouseover" end="arrowDown.mouseout"/>
                  </use>
                  <path fill="none" stroke="white" stroke-width="1.5" d="M0,-3.0v7 M-2.5,-0.5L0,-3.0L2.5,-0.5"/>
                </g>
                <g id="arrowLeft" xlink:href="#dirArrow" transform="rotate(270) translate(-36 17)" onmousedown="handlePan(-1,0)">
                  <use xlink:href="#rim" fill="#404040">
                        <set attributeName="fill" to="#808080" begin="arrowLeft.mouseover" end="arrowLeft.mouseout"/>
                  </use>
                  <path fill="none" stroke="white" stroke-width="1.5" d="M0,-3.0v7 M-2.5,-0.5L0,-3.0L2.5,-0.5"/>
                </g>
        </g>
        <svg viewBox="0 0 15 15" width="100%" height="30px" preserveAspectRatio="xMaxYMin meet">
         <g id="arrow_out" transform="scale(0.3 0.3)">
          <a xlink:href="classhal_1_1_spi__inherit__graph_org.svg" target="_base">
           <rect id="button" ry="5" rx="5" y="6" x="6" height="38" width="38"
                fill="#f2f5e9" fill-opacity="0.5" stroke="#606060" stroke-width="1.0"/>
           <path id="arrow"
             d="M 11.500037,31.436501 C 11.940474,20.09759 22.043105,11.32322 32.158766,21.979434 L 37.068811,17.246167 C 37.068811,17.246167 37.088388,32 37.088388,32 L 22.160133,31.978069 C 22.160133,31.978069 26.997745,27.140456 26.997745,27.140456 C 18.528582,18.264221 13.291696,25.230495 11.500037,31.436501 z"
             style="fill:#404040;"/>
          </a>
         </g>
        </svg>
</svg>
