<?xml version="1.0" encoding="UTF-8" standalone="no"?>
<!DOCTYPE svg PUBLIC "-//W3C//DTD SVG 1.1//EN"
 "http://www.w3.org/Graphics/SVG/1.1/DTD/svg11.dtd">
<!-- Generated by graphviz version 2.36.0 (20140111.2315)
 -->
<!-- Title: sm::State Pages: 1 -->
<svg width="150pt" height="602pt"
 viewBox="0.00 0.00 150.00 602.00" xmlns="http://www.w3.org/2000/svg" xmlns:xlink="http://www.w3.org/1999/xlink">
<g id="graph0" class="graph" transform="scale(1 1) rotate(0) translate(4 598)">
<title>sm::State</title>
<!-- Node1 -->
<g id="node1" class="node"><title>Node1</title>
<polygon fill="#bfbfbf" stroke="black" points="13.6616,-1 13.6616,-105 128.338,-105 128.338,-1 13.6616,-1"/>
<text text-anchor="middle" x="71" y="-93" font-family="Helvetica,sans-Serif" font-size="10.00">sm::State</text>
<polyline fill="none" stroke="black" points="13.6616,-87 128.338,-87 "/>
<text text-anchor="middle" x="71" y="-75" font-family="Helvetica,sans-Serif" font-size="10.00"> </text>
<polyline fill="none" stroke="black" points="13.6616,-69 128.338,-69 "/>
<text text-anchor="start" x="21.6616" y="-57" font-family="Helvetica,sans-Serif" font-size="10.00">+ State()</text>
<text text-anchor="start" x="21.6616" y="-47" font-family="Helvetica,sans-Serif" font-size="10.00">+ add_action()</text>
<text text-anchor="start" x="21.6616" y="-37" font-family="Helvetica,sans-Serif" font-size="10.00">+ add_entry_action()</text>
<text text-anchor="start" x="21.6616" y="-27" font-family="Helvetica,sans-Serif" font-size="10.00">+ add_exit_action()</text>
<text text-anchor="start" x="21.6616" y="-17" font-family="Helvetica,sans-Serif" font-size="10.00">+ add_exit_condition()</text>
<text text-anchor="start" x="21.6616" y="-7" font-family="Helvetica,sans-Serif" font-size="10.00">+ type()</text>
</g>
<!-- Node2 -->
<g id="node2" class="node"><title>Node2</title>
<g id="a_node2"><a xlink:href="classsm_1_1_object.html" target="_top" xlink:title="State Machine Object. ">
<polygon fill="none" stroke="black" points="22.8413,-143 22.8413,-227 119.159,-227 119.159,-143 22.8413,-143"/>
<text text-anchor="middle" x="71" y="-215" font-family="Helvetica,sans-Serif" font-size="10.00">sm::Object</text>
<polyline fill="none" stroke="black" points="22.8413,-209 119.159,-209 "/>
<text text-anchor="middle" x="71" y="-197" font-family="Helvetica,sans-Serif" font-size="10.00"> </text>
<polyline fill="none" stroke="black" points="22.8413,-191 119.159,-191 "/>
<text text-anchor="start" x="30.8413" y="-179" font-family="Helvetica,sans-Serif" font-size="10.00">+ Object()</text>
<text text-anchor="start" x="30.8413" y="-169" font-family="Helvetica,sans-Serif" font-size="10.00">+ name()</text>
<text text-anchor="start" x="30.8413" y="-159" font-family="Helvetica,sans-Serif" font-size="10.00">+ state_machine()</text>
<text text-anchor="start" x="30.8413" y="-149" font-family="Helvetica,sans-Serif" font-size="10.00">+ type()</text>
</a>
</g>
</g>
<!-- Node2&#45;&gt;Node1 -->
<g id="edge1" class="edge"><title>Node2&#45;&gt;Node1</title>
<path fill="none" stroke="midnightblue" d="M71,-132.865C71,-123.831 71,-114.421 71,-105.379"/>
<polygon fill="none" stroke="midnightblue" points="67.5001,-132.867 71,-142.867 74.5001,-132.867 67.5001,-132.867"/>
</g>
<!-- Node3 -->
<g id="node3" class="node"><title>Node3</title>
<g id="a_node3"><a xlink:href="classapi_1_1_sm_work_object.html" target="_top" xlink:title="State Machine Work Object Class. ">
<polygon fill="none" stroke="black" points="20.0215,-265 20.0215,-319 121.979,-319 121.979,-265 20.0215,-265"/>
<text text-anchor="middle" x="71" y="-307" font-family="Helvetica,sans-Serif" font-size="10.00">api::SmWorkObject</text>
<polyline fill="none" stroke="black" points="20.0215,-301 121.979,-301 "/>
<text text-anchor="middle" x="71" y="-289" font-family="Helvetica,sans-Serif" font-size="10.00"> </text>
<polyline fill="none" stroke="black" points="20.0215,-283 121.979,-283 "/>
<text text-anchor="middle" x="71" y="-271" font-family="Helvetica,sans-Serif" font-size="10.00"> </text>
</a>
</g>
</g>
<!-- Node3&#45;&gt;Node2 -->
<g id="edge2" class="edge"><title>Node3&#45;&gt;Node2</title>
<path fill="none" stroke="midnightblue" d="M71,-254.503C71,-245.755 71,-236.351 71,-227.399"/>
<polygon fill="none" stroke="midnightblue" points="67.5001,-254.775 71,-264.775 74.5001,-254.775 67.5001,-254.775"/>
</g>
<!-- Node4 -->
<g id="node4" class="node"><title>Node4</title>
<g id="a_node4"><a xlink:href="classapi_1_1_work_object.html" target="_top" xlink:title="WorkObject Class. ">
<polygon fill="none" stroke="black" points="-0.0859375,-357 -0.0859375,-501 142.086,-501 142.086,-357 -0.0859375,-357"/>
<text text-anchor="middle" x="71" y="-489" font-family="Helvetica,sans-Serif" font-size="10.00">api::WorkObject</text>
<polyline fill="none" stroke="black" points="-0.0859375,-483 142.086,-483 "/>
<text text-anchor="middle" x="71" y="-471" font-family="Helvetica,sans-Serif" font-size="10.00"> </text>
<polyline fill="none" stroke="black" points="-0.0859375,-465 142.086,-465 "/>
<text text-anchor="start" x="7.91406" y="-453" font-family="Helvetica,sans-Serif" font-size="10.00">+ WorkObject()</text>
<text text-anchor="start" x="7.91406" y="-443" font-family="Helvetica,sans-Serif" font-size="10.00">+ clear_error_number()</text>
<text text-anchor="start" x="7.91406" y="-433" font-family="Helvetica,sans-Serif" font-size="10.00">+ error_number()</text>
<text text-anchor="start" x="7.91406" y="-423" font-family="Helvetica,sans-Serif" font-size="10.00">+ exit_fatal()</text>
<text text-anchor="start" x="7.91406" y="-413" font-family="Helvetica,sans-Serif" font-size="10.00"># set_error_number()</text>
<text text-anchor="start" x="7.91406" y="-403" font-family="Helvetica,sans-Serif" font-size="10.00"># set_error_number_if</text>
<text text-anchor="start" x="7.91406" y="-393" font-family="Helvetica,sans-Serif" font-size="10.00">_error()</text>
<text text-anchor="start" x="7.91406" y="-383" font-family="Helvetica,sans-Serif" font-size="10.00"># set_error_number_if_null()</text>
<text text-anchor="start" x="7.91406" y="-373" font-family="Helvetica,sans-Serif" font-size="10.00"># set_error_number_to</text>
<text text-anchor="start" x="7.91406" y="-363" font-family="Helvetica,sans-Serif" font-size="10.00">_errno()</text>
</a>
</g>
</g>
<!-- Node4&#45;&gt;Node3 -->
<g id="edge3" class="edge"><title>Node4&#45;&gt;Node3</title>
<path fill="none" stroke="midnightblue" d="M71,-346.911C71,-336.983 71,-327.464 71,-319.262"/>
<polygon fill="none" stroke="midnightblue" points="67.5001,-346.942 71,-356.942 74.5001,-346.942 67.5001,-346.942"/>
</g>
<!-- Node5 -->
<g id="node5" class="node"><title>Node5</title>
<g id="a_node5"><a xlink:href="classapi_1_1_api_object.html" target="_top" xlink:title="API Object Class. ">
<polygon fill="none" stroke="black" points="29.7896,-539 29.7896,-593 112.21,-593 112.21,-539 29.7896,-539"/>
<text text-anchor="middle" x="71" y="-581" font-family="Helvetica,sans-Serif" font-size="10.00">api::ApiObject</text>
<polyline fill="none" stroke="black" points="29.7896,-575 112.21,-575 "/>
<text text-anchor="middle" x="71" y="-563" font-family="Helvetica,sans-Serif" font-size="10.00"> </text>
<polyline fill="none" stroke="black" points="29.7896,-557 112.21,-557 "/>
<text text-anchor="start" x="37.7896" y="-545" font-family="Helvetica,sans-Serif" font-size="10.00">+ api_version()</text>
</a>
</g>
</g>
<!-- Node5&#45;&gt;Node4 -->
<g id="edge4" class="edge"><title>Node5&#45;&gt;Node4</title>
<path fill="none" stroke="midnightblue" d="M71,-528.925C71,-520.287 71,-510.765 71,-501.145"/>
<polygon fill="none" stroke="midnightblue" points="67.5001,-528.971 71,-538.971 74.5001,-528.971 67.5001,-528.971"/>
</g>
</g>
</svg>
