<?xml version="1.0" encoding="UTF-8" standalone="no"?>
<!DOCTYPE svg PUBLIC "-//W3C//DTD SVG 1.1//EN"
 "http://www.w3.org/Graphics/SVG/1.1/DTD/svg11.dtd">
<!-- Generated by graphviz version 2.36.0 (20140111.2315)
 -->
<!-- Title: calc::RleAppfs Pages: 1 -->
<svg width="181pt" height="236pt"
 viewBox="0.00 0.00 181.00 236.00" xmlns="http://www.w3.org/2000/svg" xmlns:xlink="http://www.w3.org/1999/xlink">
<g id="graph0" class="graph" transform="scale(1 1) rotate(0) translate(4 232)">
<title>calc::RleAppfs</title>
<!-- Node1 -->
<g id="node1" class="node"><title>Node1</title>
<polygon fill="#bfbfbf" stroke="black" points="44.042,-1 44.042,-75 123.958,-75 123.958,-1 44.042,-1"/>
<text text-anchor="middle" x="84" y="-63" font-family="Helvetica,sans-Serif" font-size="10.00">calc::RleAppfs</text>
<polyline fill="none" stroke="black" points="44.042,-57 123.958,-57 "/>
<text text-anchor="middle" x="84" y="-45" font-family="Helvetica,sans-Serif" font-size="10.00"> </text>
<polyline fill="none" stroke="black" points="44.042,-39 123.958,-39 "/>
<text text-anchor="start" x="52.042" y="-27" font-family="Helvetica,sans-Serif" font-size="10.00">+ RleAppfs()</text>
<text text-anchor="start" x="52.042" y="-17" font-family="Helvetica,sans-Serif" font-size="10.00">+ read()</text>
<text text-anchor="start" x="52.042" y="-7" font-family="Helvetica,sans-Serif" font-size="10.00">+ write()</text>
</g>
<!-- Node2 -->
<g id="node2" class="node"><title>Node2</title>
<g id="a_node2"><a xlink:href="classcalc_1_1_rle.html" target="_top" xlink:title="Run Length Encoding Class. ">
<polygon fill="none" stroke="black" points="-0.203125,-128 -0.203125,-212 72.2031,-212 72.2031,-128 -0.203125,-128"/>
<text text-anchor="middle" x="36" y="-200" font-family="Helvetica,sans-Serif" font-size="10.00">calc::Rle</text>
<polyline fill="none" stroke="black" points="-0.203125,-194 72.2031,-194 "/>
<text text-anchor="middle" x="36" y="-182" font-family="Helvetica,sans-Serif" font-size="10.00"> </text>
<polyline fill="none" stroke="black" points="-0.203125,-176 72.2031,-176 "/>
<text text-anchor="start" x="7.79688" y="-164" font-family="Helvetica,sans-Serif" font-size="10.00">+ Rle()</text>
<text text-anchor="start" x="7.79688" y="-154" font-family="Helvetica,sans-Serif" font-size="10.00">+ calc_size()</text>
<text text-anchor="start" x="7.79688" y="-144" font-family="Helvetica,sans-Serif" font-size="10.00">+ decode()</text>
<text text-anchor="start" x="7.79688" y="-134" font-family="Helvetica,sans-Serif" font-size="10.00">+ encode()</text>
</a>
</g>
</g>
<!-- Node2&#45;&gt;Node1 -->
<g id="edge1" class="edge"><title>Node2&#45;&gt;Node1</title>
<path fill="none" stroke="midnightblue" d="M54.7944,-118.099C60.1065,-103.711 65.7761,-88.3563 70.6931,-75.0396"/>
<polygon fill="none" stroke="midnightblue" points="51.368,-117.274 51.1875,-127.867 57.9346,-119.699 51.368,-117.274"/>
</g>
<!-- Node3 -->
<g id="node3" class="node"><title>Node3</title>
<g id="a_node3"><a xlink:href="classsys_1_1_appfs.html" target="_top" xlink:title="Application File System Class. ">
<polygon fill="none" stroke="black" points="90.5112,-113 90.5112,-227 173.489,-227 173.489,-113 90.5112,-113"/>
<text text-anchor="middle" x="132" y="-215" font-family="Helvetica,sans-Serif" font-size="10.00">sys::Appfs</text>
<polyline fill="none" stroke="black" points="90.5112,-209 173.489,-209 "/>
<text text-anchor="middle" x="132" y="-197" font-family="Helvetica,sans-Serif" font-size="10.00"> </text>
<polyline fill="none" stroke="black" points="90.5112,-191 173.489,-191 "/>
<text text-anchor="start" x="98.5112" y="-179" font-family="Helvetica,sans-Serif" font-size="10.00">+ cleanup()</text>
<text text-anchor="start" x="98.5112" y="-169" font-family="Helvetica,sans-Serif" font-size="10.00">+ create()</text>
<text text-anchor="start" x="98.5112" y="-159" font-family="Helvetica,sans-Serif" font-size="10.00">+ get_id()</text>
<text text-anchor="start" x="98.5112" y="-149" font-family="Helvetica,sans-Serif" font-size="10.00">+ get_id()</text>
<text text-anchor="start" x="98.5112" y="-139" font-family="Helvetica,sans-Serif" font-size="10.00">+ get_info()</text>
<text text-anchor="start" x="98.5112" y="-129" font-family="Helvetica,sans-Serif" font-size="10.00">+ get_version()</text>
<text text-anchor="start" x="98.5112" y="-119" font-family="Helvetica,sans-Serif" font-size="10.00">+ page_size()</text>
</a>
</g>
</g>
<!-- Node3&#45;&gt;Node1 -->
<g id="edge2" class="edge"><title>Node3&#45;&gt;Node1</title>
<path fill="none" stroke="midnightblue" d="M107.671,-103.109C104.108,-93.4595 100.555,-83.8359 97.3254,-75.0895"/>
<polygon fill="none" stroke="midnightblue" points="104.479,-104.568 111.226,-112.736 111.045,-102.143 104.479,-104.568"/>
</g>
</g>
</svg>
