<?xml version="1.0" encoding="UTF-8" standalone="no"?>
<!DOCTYPE svg PUBLIC "-//W3C//DTD SVG 1.1//EN"
 "http://www.w3.org/Graphics/SVG/1.1/DTD/svg11.dtd">
<!-- Generated by graphviz version 2.36.0 (20140111.2315)
 -->
<!-- Title: sm::Action Pages: 1 -->
<svg width="126pt" height="562pt"
 viewBox="0.00 0.00 126.00 562.00" xmlns="http://www.w3.org/2000/svg" xmlns:xlink="http://www.w3.org/1999/xlink">
<g id="graph0" class="graph" transform="scale(1 1) rotate(0) translate(4 558)">
<title>sm::Action</title>
<!-- Node1 -->
<g id="node1" class="node"><title>Node1</title>
<polygon fill="#bfbfbf" stroke="black" points="25.8486,-1 25.8486,-75 92.1514,-75 92.1514,-1 25.8486,-1"/>
<text text-anchor="middle" x="59" y="-63" font-family="Helvetica,sans-Serif" font-size="10.00">sm::Action</text>
<polyline fill="none" stroke="black" points="25.8486,-57 92.1514,-57 "/>
<text text-anchor="middle" x="59" y="-45" font-family="Helvetica,sans-Serif" font-size="10.00"> </text>
<polyline fill="none" stroke="black" points="25.8486,-39 92.1514,-39 "/>
<text text-anchor="start" x="33.8486" y="-27" font-family="Helvetica,sans-Serif" font-size="10.00">+ Action()</text>
<text text-anchor="start" x="33.8486" y="-17" font-family="Helvetica,sans-Serif" font-size="10.00">+ execute()</text>
<text text-anchor="start" x="33.8486" y="-7" font-family="Helvetica,sans-Serif" font-size="10.00">+ type()</text>
</g>
<!-- Node2 -->
<g id="node2" class="node"><title>Node2</title>
<g id="a_node2"><a xlink:href="classsm_1_1_object.html" target="_top" xlink:title="State Machine Object. ">
<polygon fill="none" stroke="black" points="10.8413,-113 10.8413,-197 107.159,-197 107.159,-113 10.8413,-113"/>
<text text-anchor="middle" x="59" y="-185" font-family="Helvetica,sans-Serif" font-size="10.00">sm::Object</text>
<polyline fill="none" stroke="black" points="10.8413,-179 107.159,-179 "/>
<text text-anchor="middle" x="59" y="-167" font-family="Helvetica,sans-Serif" font-size="10.00"> </text>
<polyline fill="none" stroke="black" points="10.8413,-161 107.159,-161 "/>
<text text-anchor="start" x="18.8413" y="-149" font-family="Helvetica,sans-Serif" font-size="10.00">+ Object()</text>
<text text-anchor="start" x="18.8413" y="-139" font-family="Helvetica,sans-Serif" font-size="10.00">+ name()</text>
<text text-anchor="start" x="18.8413" y="-129" font-family="Helvetica,sans-Serif" font-size="10.00">+ state_machine()</text>
<text text-anchor="start" x="18.8413" y="-119" font-family="Helvetica,sans-Serif" font-size="10.00">+ type()</text>
</a>
</g>
</g>
<!-- Node2&#45;&gt;Node1 -->
<g id="edge1" class="edge"><title>Node2&#45;&gt;Node1</title>
<path fill="none" stroke="midnightblue" d="M59,-102.572C59,-93.3822 59,-83.9836 59,-75.3287"/>
<polygon fill="none" stroke="midnightblue" points="55.5001,-102.807 59,-112.807 62.5001,-102.807 55.5001,-102.807"/>
</g>
<!-- Node3 -->
<g id="node3" class="node"><title>Node3</title>
<g id="a_node3"><a xlink:href="classapi_1_1_sm_work_object.html" target="_top" xlink:title="State Machine Work Object Class. ">
<polygon fill="none" stroke="black" points="8.02148,-235 8.02148,-289 109.979,-289 109.979,-235 8.02148,-235"/>
<text text-anchor="middle" x="59" y="-277" font-family="Helvetica,sans-Serif" font-size="10.00">api::SmWorkObject</text>
<polyline fill="none" stroke="black" points="8.02148,-271 109.979,-271 "/>
<text text-anchor="middle" x="59" y="-259" font-family="Helvetica,sans-Serif" font-size="10.00"> </text>
<polyline fill="none" stroke="black" points="8.02148,-253 109.979,-253 "/>
<text text-anchor="middle" x="59" y="-241" font-family="Helvetica,sans-Serif" font-size="10.00"> </text>
</a>
</g>
</g>
<!-- Node3&#45;&gt;Node2 -->
<g id="edge2" class="edge"><title>Node3&#45;&gt;Node2</title>
<path fill="none" stroke="midnightblue" d="M59,-224.503C59,-215.755 59,-206.351 59,-197.399"/>
<polygon fill="none" stroke="midnightblue" points="55.5001,-224.775 59,-234.775 62.5001,-224.775 55.5001,-224.775"/>
</g>
<!-- Node4 -->
<g id="node4" class="node"><title>Node4</title>
<g id="a_node4"><a xlink:href="classapi_1_1_work_object.html" target="_top" xlink:title="WorkObject Class. ">
<polygon fill="none" stroke="black" points="-0.547852,-327 -0.547852,-461 118.548,-461 118.548,-327 -0.547852,-327"/>
<text text-anchor="middle" x="59" y="-449" font-family="Helvetica,sans-Serif" font-size="10.00">api::WorkObject</text>
<polyline fill="none" stroke="black" points="-0.547852,-443 118.548,-443 "/>
<text text-anchor="middle" x="59" y="-431" font-family="Helvetica,sans-Serif" font-size="10.00"> </text>
<polyline fill="none" stroke="black" points="-0.547852,-425 118.548,-425 "/>
<text text-anchor="start" x="7.45215" y="-413" font-family="Helvetica,sans-Serif" font-size="10.00">+ WorkObject()</text>
<text text-anchor="start" x="7.45215" y="-403" font-family="Helvetica,sans-Serif" font-size="10.00">+ clear_error_number()</text>
<text text-anchor="start" x="7.45215" y="-393" font-family="Helvetica,sans-Serif" font-size="10.00">+ error_number()</text>
<text text-anchor="start" x="7.45215" y="-383" font-family="Helvetica,sans-Serif" font-size="10.00">+ exit_fatal()</text>
<text text-anchor="start" x="7.45215" y="-373" font-family="Helvetica,sans-Serif" font-size="10.00"># set_error_number()</text>
<text text-anchor="start" x="7.45215" y="-363" font-family="Helvetica,sans-Serif" font-size="10.00"># set_error_number_if</text>
<text text-anchor="start" x="7.45215" y="-353" font-family="Helvetica,sans-Serif" font-size="10.00">_error()</text>
<text text-anchor="start" x="7.45215" y="-343" font-family="Helvetica,sans-Serif" font-size="10.00"># set_error_number_to</text>
<text text-anchor="start" x="7.45215" y="-333" font-family="Helvetica,sans-Serif" font-size="10.00">_errno()</text>
</a>
</g>
</g>
<!-- Node4&#45;&gt;Node3 -->
<g id="edge3" class="edge"><title>Node4&#45;&gt;Node3</title>
<path fill="none" stroke="midnightblue" d="M59,-316.838C59,-306.903 59,-297.326 59,-289.074"/>
<polygon fill="none" stroke="midnightblue" points="55.5001,-316.857 59,-326.857 62.5001,-316.858 55.5001,-316.857"/>
</g>
<!-- Node5 -->
<g id="node5" class="node"><title>Node5</title>
<g id="a_node5"><a xlink:href="classapi_1_1_api_object.html" target="_top" xlink:title="API Object Class. ">
<polygon fill="none" stroke="black" points="17.7896,-499 17.7896,-553 100.21,-553 100.21,-499 17.7896,-499"/>
<text text-anchor="middle" x="59" y="-541" font-family="Helvetica,sans-Serif" font-size="10.00">api::ApiObject</text>
<polyline fill="none" stroke="black" points="17.7896,-535 100.21,-535 "/>
<text text-anchor="middle" x="59" y="-523" font-family="Helvetica,sans-Serif" font-size="10.00"> </text>
<polyline fill="none" stroke="black" points="17.7896,-517 100.21,-517 "/>
<text text-anchor="start" x="25.7896" y="-505" font-family="Helvetica,sans-Serif" font-size="10.00">+ api_version()</text>
</a>
</g>
</g>
<!-- Node5&#45;&gt;Node4 -->
<g id="edge4" class="edge"><title>Node5&#45;&gt;Node4</title>
<path fill="none" stroke="midnightblue" d="M59,-488.644C59,-480.02 59,-470.555 59,-461.059"/>
<polygon fill="none" stroke="midnightblue" points="55.5001,-488.693 59,-498.693 62.5001,-488.693 55.5001,-488.693"/>
</g>
</g>
</svg>
