<?xml version="1.0" encoding="UTF-8" standalone="no"?>
<!DOCTYPE svg PUBLIC "-//W3C//DTD SVG 1.1//EN"
 "http://www.w3.org/Graphics/SVG/1.1/DTD/svg11.dtd">
<!-- Generated by graphviz version 2.36.0 (20140111.2315)
 -->
<!-- Title: api::FmtFileObject Pages: 1 -->
<svg width="304pt" height="804pt"
 viewBox="0.00 0.00 304.00 804.00" xmlns="http://www.w3.org/2000/svg" xmlns:xlink="http://www.w3.org/1999/xlink">
<g id="graph0" class="graph" transform="scale(1 1) rotate(0) translate(4 800)">
<title>api::FmtFileObject</title>
<!-- Node1 -->
<g id="node1" class="node"><title>Node1</title>
<polygon fill="#bfbfbf" stroke="black" points="106.434,-173 106.434,-227 203.566,-227 203.566,-173 106.434,-173"/>
<text text-anchor="middle" x="155" y="-215" font-family="Helvetica,sans-Serif" font-size="10.00">api::FmtFileObject</text>
<polyline fill="none" stroke="black" points="106.434,-209 203.566,-209 "/>
<text text-anchor="middle" x="155" y="-197" font-family="Helvetica,sans-Serif" font-size="10.00"> </text>
<polyline fill="none" stroke="black" points="106.434,-191 203.566,-191 "/>
<text text-anchor="middle" x="155" y="-179" font-family="Helvetica,sans-Serif" font-size="10.00"> </text>
</g>
<!-- Node6 -->
<g id="node6" class="node"><title>Node6</title>
<g id="a_node6"><a xlink:href="classfmt_1_1_bmp.html" target="_top" xlink:title="BMP File format. ">
<polygon fill="none" stroke="black" points="-0.0405273,-6 -0.0405273,-130 94.0405,-130 94.0405,-6 -0.0405273,-6"/>
<text text-anchor="middle" x="47" y="-118" font-family="Helvetica,sans-Serif" font-size="10.00">fmt::Bmp</text>
<polyline fill="none" stroke="black" points="-0.0405273,-112 94.0405,-112 "/>
<text text-anchor="middle" x="47" y="-100" font-family="Helvetica,sans-Serif" font-size="10.00"> </text>
<polyline fill="none" stroke="black" points="-0.0405273,-94 94.0405,-94 "/>
<text text-anchor="start" x="7.95947" y="-82" font-family="Helvetica,sans-Serif" font-size="10.00">+ Bmp()</text>
<text text-anchor="start" x="7.95947" y="-72" font-family="Helvetica,sans-Serif" font-size="10.00">+ Bmp()</text>
<text text-anchor="start" x="7.95947" y="-62" font-family="Helvetica,sans-Serif" font-size="10.00">+ bits_per_pixel()</text>
<text text-anchor="start" x="7.95947" y="-52" font-family="Helvetica,sans-Serif" font-size="10.00">+ calc_row_size()</text>
<text text-anchor="start" x="7.95947" y="-42" font-family="Helvetica,sans-Serif" font-size="10.00">+ create()</text>
<text text-anchor="start" x="7.95947" y="-32" font-family="Helvetica,sans-Serif" font-size="10.00">+ height()</text>
<text text-anchor="start" x="7.95947" y="-22" font-family="Helvetica,sans-Serif" font-size="10.00">and 8 more...</text>
<text text-anchor="start" x="7.95947" y="-12" font-family="Helvetica,sans-Serif" font-size="10.00">+ create_appfs()</text>
</a>
</g>
</g>
<!-- Node1&#45;&gt;Node6 -->
<g id="edge5" class="edge"><title>Node1&#45;&gt;Node6</title>
<path fill="none" stroke="midnightblue" d="M126.551,-164.755C116.649,-152.837 105.258,-139.126 94.2476,-125.872"/>
<polygon fill="none" stroke="midnightblue" points="124.062,-167.237 133.145,-172.693 129.447,-162.764 124.062,-167.237"/>
</g>
<!-- Node7 -->
<g id="node7" class="node"><title>Node7</title>
<g id="a_node7"><a xlink:href="classfmt_1_1_wav.html" target="_top" xlink:title="WAV File format. ">
<polygon fill="none" stroke="black" points="111.846,-1 111.846,-135 198.154,-135 198.154,-1 111.846,-1"/>
<text text-anchor="middle" x="155" y="-123" font-family="Helvetica,sans-Serif" font-size="10.00">fmt::Wav</text>
<polyline fill="none" stroke="black" points="111.846,-117 198.154,-117 "/>
<text text-anchor="middle" x="155" y="-105" font-family="Helvetica,sans-Serif" font-size="10.00"> </text>
<polyline fill="none" stroke="black" points="111.846,-99 198.154,-99 "/>
<text text-anchor="start" x="119.846" y="-87" font-family="Helvetica,sans-Serif" font-size="10.00">+ Wav()</text>
<text text-anchor="start" x="119.846" y="-77" font-family="Helvetica,sans-Serif" font-size="10.00">+ bits_sample()</text>
<text text-anchor="start" x="119.846" y="-67" font-family="Helvetica,sans-Serif" font-size="10.00">+ bytes_sec()</text>
<text text-anchor="start" x="119.846" y="-57" font-family="Helvetica,sans-Serif" font-size="10.00">+ channels()</text>
<text text-anchor="start" x="119.846" y="-47" font-family="Helvetica,sans-Serif" font-size="10.00">+ data_size()</text>
<text text-anchor="start" x="119.846" y="-37" font-family="Helvetica,sans-Serif" font-size="10.00">+ sample_rate()</text>
<text text-anchor="start" x="119.846" y="-27" font-family="Helvetica,sans-Serif" font-size="10.00">+ size()</text>
<text text-anchor="start" x="119.846" y="-17" font-family="Helvetica,sans-Serif" font-size="10.00">+ wav_fmt()</text>
<text text-anchor="start" x="119.846" y="-7" font-family="Helvetica,sans-Serif" font-size="10.00">+ wav_size()</text>
</a>
</g>
</g>
<!-- Node1&#45;&gt;Node7 -->
<g id="edge6" class="edge"><title>Node1&#45;&gt;Node7</title>
<path fill="none" stroke="midnightblue" d="M155,-162.644C155,-154.02 155,-144.555 155,-135.059"/>
<polygon fill="none" stroke="midnightblue" points="151.5,-162.693 155,-172.693 158.5,-162.693 151.5,-162.693"/>
</g>
<!-- Node8 -->
<g id="node8" class="node"><title>Node8</title>
<g id="a_node8"><a xlink:href="classfmt_1_1_xml.html" target="_top" xlink:title="XML Class. ">
<polygon fill="none" stroke="black" points="215.759,-11 215.759,-125 296.241,-125 296.241,-11 215.759,-11"/>
<text text-anchor="middle" x="256" y="-113" font-family="Helvetica,sans-Serif" font-size="10.00">fmt::Xml</text>
<polyline fill="none" stroke="black" points="215.759,-107 296.241,-107 "/>
<text text-anchor="middle" x="256" y="-95" font-family="Helvetica,sans-Serif" font-size="10.00"> </text>
<polyline fill="none" stroke="black" points="215.759,-89 296.241,-89 "/>
<text text-anchor="start" x="223.759" y="-77" font-family="Helvetica,sans-Serif" font-size="10.00">+ Xml()</text>
<text text-anchor="start" x="223.759" y="-67" font-family="Helvetica,sans-Serif" font-size="10.00">+ Xml()</text>
<text text-anchor="start" x="223.759" y="-57" font-family="Helvetica,sans-Serif" font-size="10.00">+ attr()</text>
<text text-anchor="start" x="223.759" y="-47" font-family="Helvetica,sans-Serif" font-size="10.00">+ child()</text>
<text text-anchor="start" x="223.759" y="-37" font-family="Helvetica,sans-Serif" font-size="10.00">+ child()</text>
<text text-anchor="start" x="223.759" y="-27" font-family="Helvetica,sans-Serif" font-size="10.00">+ child()</text>
<text text-anchor="start" x="223.759" y="-17" font-family="Helvetica,sans-Serif" font-size="10.00">and 21 more...</text>
</a>
</g>
</g>
<!-- Node1&#45;&gt;Node8 -->
<g id="edge7" class="edge"><title>Node1&#45;&gt;Node8</title>
<path fill="none" stroke="midnightblue" d="M183.685,-164.99C191.369,-155.679 199.595,-145.526 207,-136 209.83,-132.359 212.718,-128.582 215.606,-124.758"/>
<polygon fill="none" stroke="midnightblue" points="180.798,-162.987 177.106,-172.918 186.185,-167.457 180.798,-162.987"/>
</g>
<!-- Node2 -->
<g id="node2" class="node"><title>Node2</title>
<g id="a_node2"><a xlink:href="classsys_1_1_file.html" target="_top" xlink:title="File Class. ">
<polygon fill="none" stroke="black" points="114.759,-265 114.759,-429 195.241,-429 195.241,-265 114.759,-265"/>
<text text-anchor="middle" x="155" y="-417" font-family="Helvetica,sans-Serif" font-size="10.00">sys::File</text>
<polyline fill="none" stroke="black" points="114.759,-411 195.241,-411 "/>
<text text-anchor="start" x="122.759" y="-399" font-family="Helvetica,sans-Serif" font-size="10.00"># m_fd</text>
<polyline fill="none" stroke="black" points="114.759,-393 195.241,-393 "/>
<text text-anchor="start" x="122.759" y="-381" font-family="Helvetica,sans-Serif" font-size="10.00">+ File()</text>
<text text-anchor="start" x="122.759" y="-371" font-family="Helvetica,sans-Serif" font-size="10.00">+ close()</text>
<text text-anchor="start" x="122.759" y="-361" font-family="Helvetica,sans-Serif" font-size="10.00">+ create()</text>
<text text-anchor="start" x="122.759" y="-351" font-family="Helvetica,sans-Serif" font-size="10.00">+ fileno()</text>
<text text-anchor="start" x="122.759" y="-341" font-family="Helvetica,sans-Serif" font-size="10.00">+ flags()</text>
<text text-anchor="start" x="122.759" y="-331" font-family="Helvetica,sans-Serif" font-size="10.00">+ gets()</text>
<text text-anchor="start" x="122.759" y="-321" font-family="Helvetica,sans-Serif" font-size="10.00">and 22 more...</text>
<text text-anchor="start" x="122.759" y="-311" font-family="Helvetica,sans-Serif" font-size="10.00">+ name()</text>
<text text-anchor="start" x="122.759" y="-301" font-family="Helvetica,sans-Serif" font-size="10.00">+ remove()</text>
<text text-anchor="start" x="122.759" y="-291" font-family="Helvetica,sans-Serif" font-size="10.00">+ size()</text>
<text text-anchor="start" x="122.759" y="-281" font-family="Helvetica,sans-Serif" font-size="10.00">+ stat()</text>
<text text-anchor="start" x="122.759" y="-271" font-family="Helvetica,sans-Serif" font-size="10.00">+ suffix()</text>
</a>
</g>
</g>
<!-- Node2&#45;&gt;Node1 -->
<g id="edge1" class="edge"><title>Node2&#45;&gt;Node1</title>
<path fill="none" stroke="midnightblue" d="M155,-254.541C155,-244.622 155,-235.213 155,-227.129"/>
<polygon fill="none" stroke="midnightblue" points="151.5,-254.599 155,-264.599 158.5,-254.599 151.5,-254.599"/>
</g>
<!-- Node3 -->
<g id="node3" class="node"><title>Node3</title>
<g id="a_node3"><a xlink:href="classapi_1_1_sys_work_object.html" target="_top" xlink:title="System Work Object. ">
<polygon fill="none" stroke="black" points="103.187,-467 103.187,-521 206.813,-521 206.813,-467 103.187,-467"/>
<text text-anchor="middle" x="155" y="-509" font-family="Helvetica,sans-Serif" font-size="10.00">api::SysWorkObject</text>
<polyline fill="none" stroke="black" points="103.187,-503 206.813,-503 "/>
<text text-anchor="middle" x="155" y="-491" font-family="Helvetica,sans-Serif" font-size="10.00"> </text>
<polyline fill="none" stroke="black" points="103.187,-485 206.813,-485 "/>
<text text-anchor="middle" x="155" y="-473" font-family="Helvetica,sans-Serif" font-size="10.00"> </text>
</a>
</g>
</g>
<!-- Node3&#45;&gt;Node2 -->
<g id="edge2" class="edge"><title>Node3&#45;&gt;Node2</title>
<path fill="none" stroke="midnightblue" d="M155,-456.498C155,-447.997 155,-438.612 155,-429.024"/>
<polygon fill="none" stroke="midnightblue" points="151.5,-456.742 155,-466.742 158.5,-456.742 151.5,-456.742"/>
</g>
<!-- Node4 -->
<g id="node4" class="node"><title>Node4</title>
<g id="a_node4"><a xlink:href="classapi_1_1_work_object.html" target="_top" xlink:title="Work Object. ">
<polygon fill="none" stroke="black" points="83.9141,-559 83.9141,-703 226.086,-703 226.086,-559 83.9141,-559"/>
<text text-anchor="middle" x="155" y="-691" font-family="Helvetica,sans-Serif" font-size="10.00">api::WorkObject</text>
<polyline fill="none" stroke="black" points="83.9141,-685 226.086,-685 "/>
<text text-anchor="middle" x="155" y="-673" font-family="Helvetica,sans-Serif" font-size="10.00"> </text>
<polyline fill="none" stroke="black" points="83.9141,-667 226.086,-667 "/>
<text text-anchor="start" x="91.9141" y="-655" font-family="Helvetica,sans-Serif" font-size="10.00">+ WorkObject()</text>
<text text-anchor="start" x="91.9141" y="-645" font-family="Helvetica,sans-Serif" font-size="10.00">+ clear_error_number()</text>
<text text-anchor="start" x="91.9141" y="-635" font-family="Helvetica,sans-Serif" font-size="10.00">+ error_number()</text>
<text text-anchor="start" x="91.9141" y="-625" font-family="Helvetica,sans-Serif" font-size="10.00">+ exit_fatal()</text>
<text text-anchor="start" x="91.9141" y="-615" font-family="Helvetica,sans-Serif" font-size="10.00"># set_error_number()</text>
<text text-anchor="start" x="91.9141" y="-605" font-family="Helvetica,sans-Serif" font-size="10.00"># set_error_number_if</text>
<text text-anchor="start" x="91.9141" y="-595" font-family="Helvetica,sans-Serif" font-size="10.00">_error()</text>
<text text-anchor="start" x="91.9141" y="-585" font-family="Helvetica,sans-Serif" font-size="10.00"># set_error_number_if_null()</text>
<text text-anchor="start" x="91.9141" y="-575" font-family="Helvetica,sans-Serif" font-size="10.00"># set_error_number_to</text>
<text text-anchor="start" x="91.9141" y="-565" font-family="Helvetica,sans-Serif" font-size="10.00">_errno()</text>
</a>
</g>
</g>
<!-- Node4&#45;&gt;Node3 -->
<g id="edge3" class="edge"><title>Node4&#45;&gt;Node3</title>
<path fill="none" stroke="midnightblue" d="M155,-548.911C155,-538.983 155,-529.464 155,-521.262"/>
<polygon fill="none" stroke="midnightblue" points="151.5,-548.942 155,-558.942 158.5,-548.942 151.5,-548.942"/>
</g>
<!-- Node5 -->
<g id="node5" class="node"><title>Node5</title>
<g id="a_node5"><a xlink:href="classapi_1_1_api_object.html" target="_top" xlink:title="Application Programming Interface Object. ">
<polygon fill="none" stroke="black" points="113.79,-741 113.79,-795 196.21,-795 196.21,-741 113.79,-741"/>
<text text-anchor="middle" x="155" y="-783" font-family="Helvetica,sans-Serif" font-size="10.00">api::ApiObject</text>
<polyline fill="none" stroke="black" points="113.79,-777 196.21,-777 "/>
<text text-anchor="middle" x="155" y="-765" font-family="Helvetica,sans-Serif" font-size="10.00"> </text>
<polyline fill="none" stroke="black" points="113.79,-759 196.21,-759 "/>
<text text-anchor="start" x="121.79" y="-747" font-family="Helvetica,sans-Serif" font-size="10.00">+ api_version()</text>
</a>
</g>
</g>
<!-- Node5&#45;&gt;Node4 -->
<g id="edge4" class="edge"><title>Node5&#45;&gt;Node4</title>
<path fill="none" stroke="midnightblue" d="M155,-730.925C155,-722.287 155,-712.765 155,-703.145"/>
<polygon fill="none" stroke="midnightblue" points="151.5,-730.971 155,-740.971 158.5,-730.971 151.5,-730.971"/>
</g>
</g>
</svg>
