<?xml version="1.0" encoding="UTF-8" standalone="no"?>
<!DOCTYPE svg PUBLIC "-//W3C//DTD SVG 1.1//EN"
 "http://www.w3.org/Graphics/SVG/1.1/DTD/svg11.dtd">
<!-- Generated by graphviz version 2.36.0 (20140111.2315)
 -->
<!-- Title: hal::FifoInfo Pages: 1 -->
<svg width="102pt" height="400pt"
 viewBox="0.00 0.00 102.00 400.00" xmlns="http://www.w3.org/2000/svg" xmlns:xlink="http://www.w3.org/1999/xlink">
<g id="graph0" class="graph" transform="scale(1 1) rotate(0) translate(4 396)">
<title>hal::FifoInfo</title>
<!-- Node1 -->
<g id="node1" class="node"><title>Node1</title>
<polygon fill="#bfbfbf" stroke="black" points="6.35107,-1 6.35107,-115 87.6489,-115 87.6489,-1 6.35107,-1"/>
<text text-anchor="middle" x="47" y="-103" font-family="Helvetica,sans-Serif" font-size="10.00">hal::FifoInfo</text>
<polyline fill="none" stroke="black" points="6.35107,-97 87.6489,-97 "/>
<text text-anchor="middle" x="47" y="-85" font-family="Helvetica,sans-Serif" font-size="10.00"> </text>
<polyline fill="none" stroke="black" points="6.35107,-79 87.6489,-79 "/>
<text text-anchor="start" x="14.3511" y="-67" font-family="Helvetica,sans-Serif" font-size="10.00">+ FifoInfo()</text>
<text text-anchor="start" x="14.3511" y="-57" font-family="Helvetica,sans-Serif" font-size="10.00">+ FifoInfo()</text>
<text text-anchor="start" x="14.3511" y="-47" font-family="Helvetica,sans-Serif" font-size="10.00">+ is_overflow()</text>
<text text-anchor="start" x="14.3511" y="-37" font-family="Helvetica,sans-Serif" font-size="10.00">+ is_valid()</text>
<text text-anchor="start" x="14.3511" y="-27" font-family="Helvetica,sans-Serif" font-size="10.00">+ overflow()</text>
<text text-anchor="start" x="14.3511" y="-17" font-family="Helvetica,sans-Serif" font-size="10.00">+ size()</text>
<text text-anchor="start" x="14.3511" y="-7" font-family="Helvetica,sans-Serif" font-size="10.00">+ used()</text>
</g>
<!-- Node2 -->
<g id="node2" class="node"><title>Node2</title>
<g id="a_node2"><a xlink:href="classapi_1_1_hal_info_object.html" target="_top" xlink:title="Hal Info Object. ">
<polygon fill="none" stroke="black" points="-0.743652,-153 -0.743652,-207 94.7437,-207 94.7437,-153 -0.743652,-153"/>
<text text-anchor="middle" x="47" y="-195" font-family="Helvetica,sans-Serif" font-size="10.00">api::HalInfoObject</text>
<polyline fill="none" stroke="black" points="-0.743652,-189 94.7437,-189 "/>
<text text-anchor="middle" x="47" y="-177" font-family="Helvetica,sans-Serif" font-size="10.00"> </text>
<polyline fill="none" stroke="black" points="-0.743652,-171 94.7437,-171 "/>
<text text-anchor="middle" x="47" y="-159" font-family="Helvetica,sans-Serif" font-size="10.00"> </text>
</a>
</g>
</g>
<!-- Node2&#45;&gt;Node1 -->
<g id="edge1" class="edge"><title>Node2&#45;&gt;Node1</title>
<path fill="none" stroke="midnightblue" d="M47,-142.754C47,-134.008 47,-124.458 47,-115.039"/>
<polygon fill="none" stroke="midnightblue" points="43.5001,-142.962 47,-152.962 50.5001,-142.962 43.5001,-142.962"/>
</g>
<!-- Node3 -->
<g id="node3" class="node"><title>Node3</title>
<g id="a_node3"><a xlink:href="classapi_1_1_info_object.html" target="_top" xlink:title="API Information Object. ">
<polygon fill="none" stroke="black" points="6.75879,-245 6.75879,-299 87.2412,-299 87.2412,-245 6.75879,-245"/>
<text text-anchor="middle" x="47" y="-287" font-family="Helvetica,sans-Serif" font-size="10.00">api::InfoObject</text>
<polyline fill="none" stroke="black" points="6.75879,-281 87.2412,-281 "/>
<text text-anchor="middle" x="47" y="-269" font-family="Helvetica,sans-Serif" font-size="10.00"> </text>
<polyline fill="none" stroke="black" points="6.75879,-263 87.2412,-263 "/>
<text text-anchor="middle" x="47" y="-251" font-family="Helvetica,sans-Serif" font-size="10.00"> </text>
</a>
</g>
</g>
<!-- Node3&#45;&gt;Node2 -->
<g id="edge2" class="edge"><title>Node3&#45;&gt;Node2</title>
<path fill="none" stroke="midnightblue" d="M47,-234.865C47,-225.644 47,-215.907 47,-207.285"/>
<polygon fill="none" stroke="midnightblue" points="43.5001,-234.968 47,-244.968 50.5001,-234.968 43.5001,-234.968"/>
</g>
<!-- Node4 -->
<g id="node4" class="node"><title>Node4</title>
<g id="a_node4"><a xlink:href="classapi_1_1_api_object.html" target="_top" xlink:title="API Object Class. ">
<polygon fill="none" stroke="black" points="5.78955,-337 5.78955,-391 88.2104,-391 88.2104,-337 5.78955,-337"/>
<text text-anchor="middle" x="47" y="-379" font-family="Helvetica,sans-Serif" font-size="10.00">api::ApiObject</text>
<polyline fill="none" stroke="black" points="5.78955,-373 88.2104,-373 "/>
<text text-anchor="middle" x="47" y="-361" font-family="Helvetica,sans-Serif" font-size="10.00"> </text>
<polyline fill="none" stroke="black" points="5.78955,-355 88.2104,-355 "/>
<text text-anchor="start" x="13.7896" y="-343" font-family="Helvetica,sans-Serif" font-size="10.00">+ api_version()</text>
</a>
</g>
</g>
<!-- Node4&#45;&gt;Node3 -->
<g id="edge3" class="edge"><title>Node4&#45;&gt;Node3</title>
<path fill="none" stroke="midnightblue" d="M47,-326.865C47,-317.644 47,-307.907 47,-299.285"/>
<polygon fill="none" stroke="midnightblue" points="43.5001,-326.968 47,-336.968 50.5001,-326.968 43.5001,-326.968"/>
</g>
</g>
</svg>
