<?xml version="1.0" encoding="UTF-8" standalone="no"?>
<!DOCTYPE svg PUBLIC "-//W3C//DTD SVG 1.1//EN"
 "http://www.w3.org/Graphics/SVG/1.1/DTD/svg11.dtd">
<!-- Generated by graphviz version 2.36.0 (20140111.2315)
 -->
<!-- Title: api::SysInfoObject Pages: 1 -->
<!--zoomable 410 -->
<svg id="main" version="1.1" xmlns="http://www.w3.org/2000/svg" xmlns:xlink="http://www.w3.org/1999/xlink" xml:space="preserve" onload="init(evt)">
<style type="text/css"><![CDATA[
.edge:hover path { stroke: red; }
.edge:hover polygon { stroke: red; fill: red; }
]]></style>
<script type="text/javascript"><![CDATA[
var edges = document.getElementsByTagName('g');
if (edges && edges.length) {
  for (var i=0;i<edges.length;i++) {
    if (edges[i].id.substr(0,4)=='edge') {
      edges[i].setAttribute('class','edge');
    }
  }
}
]]></script>
        <defs>
                <circle id="rim" cx="0" cy="0" r="7"/>
                <circle id="rim2" cx="0" cy="0" r="3.5"/>
                <g id="zoomPlus">
                        <use xlink:href="#rim" fill="#404040">
                                <set attributeName="fill" to="#808080" begin="zoomplus.mouseover" end="zoomplus.mouseout"/>
                        </use>
                        <path d="M-4,0h8M0,-4v8" fill="none" stroke="white" stroke-width="1.5" pointer-events="none"/>
                </g>
                <g id="zoomMin">
                        <use xlink:href="#rim" fill="#404040">
                                <set attributeName="fill" to="#808080" begin="zoomminus.mouseover" end="zoomminus.mouseout"/>
                        </use>
                        <path d="M-4,0h8" fill="none" stroke="white" stroke-width="1.5" pointer-events="none"/>
                </g>
                <g id="dirArrow">
                        <path fill="none" stroke="white" stroke-width="1.5" d="M0,-3.0v7 M-2.5,-0.5L0,-3.0L2.5,-0.5"/>
                </g>
               <g id="resetDef">
                       <use xlink:href="#rim2" fill="#404040">
                               <set attributeName="fill" to="#808080" begin="reset.mouseover" end="reset.mouseout"/>
                       </use>
               </g>
        </defs>

<script type="text/javascript">
var viewWidth = 653;
var viewHeight = 410;
var sectionId = 'dynsection-0';
</script>
<script xlink:href="svgpan.js"/>
<svg id="graph" class="graph">
<g id="viewport">
<title>api::SysInfoObject</title>
<!-- Node1 -->
<g id="node1" class="node"><title>Node1</title>
<polygon fill="#bfbfbf" stroke="black" points="274.424,-163 274.424,-217 371.576,-217 371.576,-163 274.424,-163"/>
<text text-anchor="middle" x="323" y="-205" font-family="Helvetica,sans-Serif" font-size="10.00">api::SysInfoObject</text>
<polyline fill="none" stroke="black" points="274.424,-199 371.576,-199 "/>
<text text-anchor="middle" x="323" y="-187" font-family="Helvetica,sans-Serif" font-size="10.00"> </text>
<polyline fill="none" stroke="black" points="274.424,-181 371.576,-181 "/>
<text text-anchor="middle" x="323" y="-169" font-family="Helvetica,sans-Serif" font-size="10.00"> </text>
</g>
<!-- Node4 -->
<g id="node4" class="node"><title>Node4</title>
<g id="a_node4"><a xlink:href="classsys_1_1_appfs.html" target="_top" xlink:title="Application File System Class. ">
<polygon fill="none" stroke="black" points="-0.48877,-6 -0.48877,-120 82.4888,-120 82.4888,-6 -0.48877,-6"/>
<text text-anchor="middle" x="41" y="-108" font-family="Helvetica,sans-Serif" font-size="10.00">sys::Appfs</text>
<polyline fill="none" stroke="black" points="-0.48877,-102 82.4888,-102 "/>
<text text-anchor="middle" x="41" y="-90" font-family="Helvetica,sans-Serif" font-size="10.00"> </text>
<polyline fill="none" stroke="black" points="-0.48877,-84 82.4888,-84 "/>
<text text-anchor="start" x="7.51123" y="-72" font-family="Helvetica,sans-Serif" font-size="10.00">+ cleanup()</text>
<text text-anchor="start" x="7.51123" y="-62" font-family="Helvetica,sans-Serif" font-size="10.00">+ create()</text>
<text text-anchor="start" x="7.51123" y="-52" font-family="Helvetica,sans-Serif" font-size="10.00">+ get_id()</text>
<text text-anchor="start" x="7.51123" y="-42" font-family="Helvetica,sans-Serif" font-size="10.00">+ get_id()</text>
<text text-anchor="start" x="7.51123" y="-32" font-family="Helvetica,sans-Serif" font-size="10.00">+ get_info()</text>
<text text-anchor="start" x="7.51123" y="-22" font-family="Helvetica,sans-Serif" font-size="10.00">+ get_version()</text>
<text text-anchor="start" x="7.51123" y="-12" font-family="Helvetica,sans-Serif" font-size="10.00">+ page_size()</text>
</a>
</g>
</g>
<!-- Node1&#45;&gt;Node4 -->
<g id="edge3" class="edge"><title>Node1&#45;&gt;Node4</title>
<path fill="none" stroke="midnightblue" d="M264.213,-183.01C214.948,-175.748 144.456,-159.945 92,-126 88.7236,-123.88 85.5539,-121.482 82.5066,-118.892"/>
<polygon fill="none" stroke="midnightblue" points="264.001,-186.514 274.389,-184.433 264.971,-179.581 264.001,-186.514"/>
</g>
<!-- Node5 -->
<g id="node5" class="node"><title>Node5</title>
<g id="a_node5"><a xlink:href="classsys_1_1_assets.html" target="_top" xlink:title="Assets Class. ">
<polygon fill="none" stroke="black" points="100.78,-1 100.78,-125 213.22,-125 213.22,-1 100.78,-1"/>
<text text-anchor="middle" x="157" y="-113" font-family="Helvetica,sans-Serif" font-size="10.00">sys::Assets</text>
<polyline fill="none" stroke="black" points="100.78,-107 213.22,-107 "/>
<text text-anchor="middle" x="157" y="-95" font-family="Helvetica,sans-Serif" font-size="10.00"> </text>
<polyline fill="none" stroke="black" points="100.78,-89 213.22,-89 "/>
<text text-anchor="start" x="108.78" y="-77" font-family="Helvetica,sans-Serif" font-size="10.00">+ bmap_icon_count()</text>
<text text-anchor="start" x="108.78" y="-67" font-family="Helvetica,sans-Serif" font-size="10.00">+ font()</text>
<text text-anchor="start" x="108.78" y="-57" font-family="Helvetica,sans-Serif" font-size="10.00">+ font_count()</text>
<text text-anchor="start" x="108.78" y="-47" font-family="Helvetica,sans-Serif" font-size="10.00">+ get_bmap_icon()</text>
<text text-anchor="start" x="108.78" y="-37" font-family="Helvetica,sans-Serif" font-size="10.00">+ get_font()</text>
<text text-anchor="start" x="108.78" y="-27" font-family="Helvetica,sans-Serif" font-size="10.00">+ get_vector_icon()</text>
<text text-anchor="start" x="108.78" y="-17" font-family="Helvetica,sans-Serif" font-size="10.00">+ init()</text>
<text text-anchor="start" x="108.78" y="-7" font-family="Helvetica,sans-Serif" font-size="10.00">+ vector_icon_count()</text>
</a>
</g>
</g>
<!-- Node1&#45;&gt;Node5 -->
<g id="edge4" class="edge"><title>Node1&#45;&gt;Node5</title>
<path fill="none" stroke="midnightblue" d="M268.664,-157.411C253.482,-147.885 237.248,-137.016 223,-126 219.766,-123.5 216.509,-120.868 213.265,-118.157"/>
<polygon fill="none" stroke="midnightblue" points="267.114,-160.568 277.459,-162.856 270.799,-154.616 267.114,-160.568"/>
</g>
<!-- Node6 -->
<g id="node6" class="node"><title>Node6</title>
<g id="a_node6"><a xlink:href="classsys_1_1_mq_attr.html" target="_top" xlink:title="Message Queue Attribute Class. ">
<polygon fill="none" stroke="black" points="231.54,-6 231.54,-120 306.46,-120 306.46,-6 231.54,-6"/>
<text text-anchor="middle" x="269" y="-108" font-family="Helvetica,sans-Serif" font-size="10.00">sys::MqAttr</text>
<polyline fill="none" stroke="black" points="231.54,-102 306.46,-102 "/>
<text text-anchor="middle" x="269" y="-90" font-family="Helvetica,sans-Serif" font-size="10.00"> </text>
<polyline fill="none" stroke="black" points="231.54,-84 306.46,-84 "/>
<text text-anchor="start" x="239.54" y="-72" font-family="Helvetica,sans-Serif" font-size="10.00">+ MqAttr()</text>
<text text-anchor="start" x="239.54" y="-62" font-family="Helvetica,sans-Serif" font-size="10.00">+ MqAttr()</text>
<text text-anchor="start" x="239.54" y="-52" font-family="Helvetica,sans-Serif" font-size="10.00">+ curmsgs()</text>
<text text-anchor="start" x="239.54" y="-42" font-family="Helvetica,sans-Serif" font-size="10.00">+ flags()</text>
<text text-anchor="start" x="239.54" y="-32" font-family="Helvetica,sans-Serif" font-size="10.00">+ maxmsg()</text>
<text text-anchor="start" x="239.54" y="-22" font-family="Helvetica,sans-Serif" font-size="10.00">+ msgsize()</text>
<text text-anchor="start" x="239.54" y="-12" font-family="Helvetica,sans-Serif" font-size="10.00">and 4 more...</text>
</a>
</g>
</g>
<!-- Node1&#45;&gt;Node6 -->
<g id="edge5" class="edge"><title>Node1&#45;&gt;Node6</title>
<path fill="none" stroke="midnightblue" d="M307.706,-153.597C303.192,-143.148 298.137,-131.446 293.207,-120.034"/>
<polygon fill="none" stroke="midnightblue" points="304.501,-155.004 311.68,-162.796 310.927,-152.228 304.501,-155.004"/>
</g>
<!-- Node7 -->
<g id="node7" class="node"><title>Node7</title>
<g id="a_node7"><a xlink:href="classsys_1_1_sched.html" target="_top" xlink:title="Sched Class. ">
<polygon fill="none" stroke="black" points="324.4,-6 324.4,-120 429.6,-120 429.6,-6 324.4,-6"/>
<text text-anchor="middle" x="377" y="-108" font-family="Helvetica,sans-Serif" font-size="10.00">sys::Sched</text>
<polyline fill="none" stroke="black" points="324.4,-102 429.6,-102 "/>
<text text-anchor="middle" x="377" y="-90" font-family="Helvetica,sans-Serif" font-size="10.00"> </text>
<polyline fill="none" stroke="black" points="324.4,-84 429.6,-84 "/>
<text text-anchor="start" x="332.4" y="-72" font-family="Helvetica,sans-Serif" font-size="10.00">+ get_pid()</text>
<text text-anchor="start" x="332.4" y="-62" font-family="Helvetica,sans-Serif" font-size="10.00">+ get_priority()</text>
<text text-anchor="start" x="332.4" y="-52" font-family="Helvetica,sans-Serif" font-size="10.00">+ get_priority_max()</text>
<text text-anchor="start" x="332.4" y="-42" font-family="Helvetica,sans-Serif" font-size="10.00">+ get_priority_min()</text>
<text text-anchor="start" x="332.4" y="-32" font-family="Helvetica,sans-Serif" font-size="10.00">+ get_rr_interval()</text>
<text text-anchor="start" x="332.4" y="-22" font-family="Helvetica,sans-Serif" font-size="10.00">+ set_scheduler()</text>
<text text-anchor="start" x="332.4" y="-12" font-family="Helvetica,sans-Serif" font-size="10.00">+ yield()</text>
</a>
</g>
</g>
<!-- Node1&#45;&gt;Node7 -->
<g id="edge6" class="edge"><title>Node1&#45;&gt;Node7</title>
<path fill="none" stroke="midnightblue" d="M338.294,-153.597C342.808,-143.148 347.863,-131.446 352.793,-120.034"/>
<polygon fill="none" stroke="midnightblue" points="335.073,-152.228 334.32,-162.796 341.499,-155.004 335.073,-152.228"/>
</g>
<!-- Node8 -->
<g id="node8" class="node"><title>Node8</title>
<g id="a_node8"><a xlink:href="classsys_1_1_signal_handler.html" target="_top" xlink:title="Signal Handler Class. ">
<polygon fill="none" stroke="black" points="447.313,-26 447.313,-100 546.687,-100 546.687,-26 447.313,-26"/>
<text text-anchor="middle" x="497" y="-88" font-family="Helvetica,sans-Serif" font-size="10.00">sys::SignalHandler</text>
<polyline fill="none" stroke="black" points="447.313,-82 546.687,-82 "/>
<text text-anchor="middle" x="497" y="-70" font-family="Helvetica,sans-Serif" font-size="10.00"> </text>
<polyline fill="none" stroke="black" points="447.313,-64 546.687,-64 "/>
<text text-anchor="start" x="455.313" y="-52" font-family="Helvetica,sans-Serif" font-size="10.00">+ SignalHandler()</text>
<text text-anchor="start" x="455.313" y="-42" font-family="Helvetica,sans-Serif" font-size="10.00">+ SignalHandler()</text>
<text text-anchor="start" x="455.313" y="-32" font-family="Helvetica,sans-Serif" font-size="10.00">+ sigaction()</text>
</a>
</g>
</g>
<!-- Node1&#45;&gt;Node8 -->
<g id="edge7" class="edge"><title>Node1&#45;&gt;Node8</title>
<path fill="none" stroke="midnightblue" d="M380.655,-161.898C399.697,-151.799 420.476,-139.48 438,-126 447.893,-118.39 457.646,-109.099 466.286,-100.049"/>
<polygon fill="none" stroke="midnightblue" points="379.015,-158.806 371.758,-166.525 382.245,-165.016 379.015,-158.806"/>
</g>
<!-- Node9 -->
<g id="node9" class="node"><title>Node9</title>
<g id="a_node9"><a xlink:href="classsys_1_1_task_info.html" target="_top" xlink:title="The Task Attributes Class. ">
<polygon fill="none" stroke="black" points="564.759,-1 564.759,-125 645.241,-125 645.241,-1 564.759,-1"/>
<text text-anchor="middle" x="605" y="-113" font-family="Helvetica,sans-Serif" font-size="10.00">sys::TaskInfo</text>
<polyline fill="none" stroke="black" points="564.759,-107 645.241,-107 "/>
<text text-anchor="middle" x="605" y="-95" font-family="Helvetica,sans-Serif" font-size="10.00"> </text>
<polyline fill="none" stroke="black" points="564.759,-89 645.241,-89 "/>
<text text-anchor="start" x="572.759" y="-77" font-family="Helvetica,sans-Serif" font-size="10.00">+ TaskInfo()</text>
<text text-anchor="start" x="572.759" y="-67" font-family="Helvetica,sans-Serif" font-size="10.00">+ TaskInfo()</text>
<text text-anchor="start" x="572.759" y="-57" font-family="Helvetica,sans-Serif" font-size="10.00">+ heap_size()</text>
<text text-anchor="start" x="572.759" y="-47" font-family="Helvetica,sans-Serif" font-size="10.00">+ id()</text>
<text text-anchor="start" x="572.759" y="-37" font-family="Helvetica,sans-Serif" font-size="10.00">+ is_active()</text>
<text text-anchor="start" x="572.759" y="-27" font-family="Helvetica,sans-Serif" font-size="10.00">+ is_enabled()</text>
<text text-anchor="start" x="572.759" y="-17" font-family="Helvetica,sans-Serif" font-size="10.00">and 10 more...</text>
<text text-anchor="start" x="572.759" y="-7" font-family="Helvetica,sans-Serif" font-size="10.00">+ invalid()</text>
</a>
</g>
</g>
<!-- Node1&#45;&gt;Node9 -->
<g id="edge8" class="edge"><title>Node1&#45;&gt;Node9</title>
<path fill="none" stroke="midnightblue" d="M381.814,-183.24C431.358,-176.113 502.369,-160.38 555,-126 558.357,-123.807 561.596,-121.315 564.699,-118.62"/>
<polygon fill="none" stroke="midnightblue" points="381.328,-179.774 371.893,-184.594 382.275,-186.71 381.328,-179.774"/>
</g>
<!-- Node2 -->
<g id="node2" class="node"><title>Node2</title>
<g id="a_node2"><a xlink:href="classapi_1_1_info_object.html" target="_top" xlink:title="API Information Object. ">
<polygon fill="none" stroke="black" points="282.759,-255 282.759,-309 363.241,-309 363.241,-255 282.759,-255"/>
<text text-anchor="middle" x="323" y="-297" font-family="Helvetica,sans-Serif" font-size="10.00">api::InfoObject</text>
<polyline fill="none" stroke="black" points="282.759,-291 363.241,-291 "/>
<text text-anchor="middle" x="323" y="-279" font-family="Helvetica,sans-Serif" font-size="10.00"> </text>
<polyline fill="none" stroke="black" points="282.759,-273 363.241,-273 "/>
<text text-anchor="middle" x="323" y="-261" font-family="Helvetica,sans-Serif" font-size="10.00"> </text>
</a>
</g>
</g>
<!-- Node2&#45;&gt;Node1 -->
<g id="edge1" class="edge"><title>Node2&#45;&gt;Node1</title>
<path fill="none" stroke="midnightblue" d="M323,-244.865C323,-235.644 323,-225.907 323,-217.285"/>
<polygon fill="none" stroke="midnightblue" points="319.5,-244.968 323,-254.968 326.5,-244.968 319.5,-244.968"/>
</g>
<!-- Node3 -->
<g id="node3" class="node"><title>Node3</title>
<g id="a_node3"><a xlink:href="classapi_1_1_api_object.html" target="_top" xlink:title="API Object Class. ">
<polygon fill="none" stroke="black" points="281.79,-347 281.79,-401 364.21,-401 364.21,-347 281.79,-347"/>
<text text-anchor="middle" x="323" y="-389" font-family="Helvetica,sans-Serif" font-size="10.00">api::ApiObject</text>
<polyline fill="none" stroke="black" points="281.79,-383 364.21,-383 "/>
<text text-anchor="middle" x="323" y="-371" font-family="Helvetica,sans-Serif" font-size="10.00"> </text>
<polyline fill="none" stroke="black" points="281.79,-365 364.21,-365 "/>
<text text-anchor="start" x="289.79" y="-353" font-family="Helvetica,sans-Serif" font-size="10.00">+ api_version()</text>
</a>
</g>
</g>
<!-- Node3&#45;&gt;Node2 -->
<g id="edge2" class="edge"><title>Node3&#45;&gt;Node2</title>
<path fill="none" stroke="midnightblue" d="M323,-336.865C323,-327.644 323,-317.907 323,-309.285"/>
<polygon fill="none" stroke="midnightblue" points="319.5,-336.968 323,-346.968 326.5,-336.968 319.5,-336.968"/>
</g>
</g>
</svg>
        <g id="navigator" transform="translate(0 0)" fill="#404254">
                <rect fill="#f2f5e9" fill-opacity="0.5" stroke="#606060" stroke-width=".5" x="0" y="0" width="60" height="60"/>
                <use id="zoomplus" xlink:href="#zoomPlus" x="17" y="9" onmousedown="handleZoom(evt,'in')"/>
                <use id="zoomminus" xlink:href="#zoomMin" x="42" y="9" onmousedown="handleZoom(evt,'out')"/>
                <use id="reset" xlink:href="#resetDef" x="30" y="36" onmousedown="handleReset()"/>
                <g id="arrowUp" xlink:href="#dirArrow" transform="translate(30 24)" onmousedown="handlePan(0,-1)">
                  <use xlink:href="#rim" fill="#404040">
                        <set attributeName="fill" to="#808080" begin="arrowUp.mouseover" end="arrowUp.mouseout"/>
                  </use>
                  <path fill="none" stroke="white" stroke-width="1.5" d="M0,-3.0v7 M-2.5,-0.5L0,-3.0L2.5,-0.5"/>
                </g>
                <g id="arrowRight" xlink:href="#dirArrow" transform="rotate(90) translate(36 -43)" onmousedown="handlePan(1,0)">
                  <use xlink:href="#rim" fill="#404040">
                        <set attributeName="fill" to="#808080" begin="arrowRight.mouseover" end="arrowRight.mouseout"/>
                  </use>
                  <path fill="none" stroke="white" stroke-width="1.5" d="M0,-3.0v7 M-2.5,-0.5L0,-3.0L2.5,-0.5"/>
                </g>
                <g id="arrowDown" xlink:href="#dirArrow" transform="rotate(180) translate(-30 -48)" onmousedown="handlePan(0,1)">
                  <use xlink:href="#rim" fill="#404040">
                        <set attributeName="fill" to="#808080" begin="arrowDown.mouseover" end="arrowDown.mouseout"/>
                  </use>
                  <path fill="none" stroke="white" stroke-width="1.5" d="M0,-3.0v7 M-2.5,-0.5L0,-3.0L2.5,-0.5"/>
                </g>
                <g id="arrowLeft" xlink:href="#dirArrow" transform="rotate(270) translate(-36 17)" onmousedown="handlePan(-1,0)">
                  <use xlink:href="#rim" fill="#404040">
                        <set attributeName="fill" to="#808080" begin="arrowLeft.mouseover" end="arrowLeft.mouseout"/>
                  </use>
                  <path fill="none" stroke="white" stroke-width="1.5" d="M0,-3.0v7 M-2.5,-0.5L0,-3.0L2.5,-0.5"/>
                </g>
        </g>
        <svg viewBox="0 0 15 15" width="100%" height="30px" preserveAspectRatio="xMaxYMin meet">
         <g id="arrow_out" transform="scale(0.3 0.3)">
          <a xlink:href="classapi_1_1_sys_info_object__inherit__graph_org.svg" target="_base">
           <rect id="button" ry="5" rx="5" y="6" x="6" height="38" width="38"
                fill="#f2f5e9" fill-opacity="0.5" stroke="#606060" stroke-width="1.0"/>
           <path id="arrow"
             d="M 11.500037,31.436501 C 11.940474,20.09759 22.043105,11.32322 32.158766,21.979434 L 37.068811,17.246167 C 37.068811,17.246167 37.088388,32 37.088388,32 L 22.160133,31.978069 C 22.160133,31.978069 26.997745,27.140456 26.997745,27.140456 C 18.528582,18.264221 13.291696,25.230495 11.500037,31.436501 z"
             style="fill:#404040;"/>
          </a>
         </g>
        </svg>
</svg>
