<?xml version="1.0" encoding="UTF-8" standalone="no"?>
<!DOCTYPE svg PUBLIC "-//W3C//DTD SVG 1.1//EN"
 "http://www.w3.org/Graphics/SVG/1.1/DTD/svg11.dtd">
<!-- Generated by graphviz version 2.36.0 (20140111.2315)
 -->
<!-- Title: calc::Rle Pages: 1 -->
<svg width="175pt" height="206pt"
 viewBox="0.00 0.00 175.00 206.00" xmlns="http://www.w3.org/2000/svg" xmlns:xlink="http://www.w3.org/1999/xlink">
<g id="graph0" class="graph" transform="scale(1 1) rotate(0) translate(4 202)">
<title>calc::Rle</title>
<!-- Node1 -->
<g id="node1" class="node"><title>Node1</title>
<polygon fill="#bfbfbf" stroke="black" points="48.7969,-113 48.7969,-197 121.203,-197 121.203,-113 48.7969,-113"/>
<text text-anchor="middle" x="85" y="-185" font-family="Helvetica,sans-Serif" font-size="10.00">calc::Rle</text>
<polyline fill="none" stroke="black" points="48.7969,-179 121.203,-179 "/>
<text text-anchor="middle" x="85" y="-167" font-family="Helvetica,sans-Serif" font-size="10.00"> </text>
<polyline fill="none" stroke="black" points="48.7969,-161 121.203,-161 "/>
<text text-anchor="start" x="56.7969" y="-149" font-family="Helvetica,sans-Serif" font-size="10.00">+ Rle()</text>
<text text-anchor="start" x="56.7969" y="-139" font-family="Helvetica,sans-Serif" font-size="10.00">+ calc_size()</text>
<text text-anchor="start" x="56.7969" y="-129" font-family="Helvetica,sans-Serif" font-size="10.00">+ decode()</text>
<text text-anchor="start" x="56.7969" y="-119" font-family="Helvetica,sans-Serif" font-size="10.00">+ encode()</text>
</g>
<!-- Node2 -->
<g id="node2" class="node"><title>Node2</title>
<g id="a_node2"><a xlink:href="classcalc_1_1_rle_appfs.html" target="_top" xlink:title="Class for reading/writing compressed file data using Appfs. ">
<polygon fill="none" stroke="black" points="-0.958008,-1 -0.958008,-75 78.958,-75 78.958,-1 -0.958008,-1"/>
<text text-anchor="middle" x="39" y="-63" font-family="Helvetica,sans-Serif" font-size="10.00">calc::RleAppfs</text>
<polyline fill="none" stroke="black" points="-0.958008,-57 78.958,-57 "/>
<text text-anchor="middle" x="39" y="-45" font-family="Helvetica,sans-Serif" font-size="10.00"> </text>
<polyline fill="none" stroke="black" points="-0.958008,-39 78.958,-39 "/>
<text text-anchor="start" x="7.04199" y="-27" font-family="Helvetica,sans-Serif" font-size="10.00">+ RleAppfs()</text>
<text text-anchor="start" x="7.04199" y="-17" font-family="Helvetica,sans-Serif" font-size="10.00">+ read()</text>
<text text-anchor="start" x="7.04199" y="-7" font-family="Helvetica,sans-Serif" font-size="10.00">+ write()</text>
</a>
</g>
</g>
<!-- Node1&#45;&gt;Node2 -->
<g id="edge1" class="edge"><title>Node1&#45;&gt;Node2</title>
<path fill="none" stroke="midnightblue" d="M64.7841,-103.46C60.9957,-93.9894 57.1051,-84.2628 53.5315,-75.3287"/>
<polygon fill="none" stroke="midnightblue" points="61.5592,-104.822 68.5229,-112.807 68.0586,-102.223 61.5592,-104.822"/>
</g>
<!-- Node3 -->
<g id="node3" class="node"><title>Node3</title>
<g id="a_node3"><a xlink:href="classcalc_1_1_rle_file.html" target="_top" xlink:title="Class for reading/writing compressed file data. ">
<polygon fill="none" stroke="black" points="96.771,-6 96.771,-70 167.229,-70 167.229,-6 96.771,-6"/>
<text text-anchor="middle" x="132" y="-58" font-family="Helvetica,sans-Serif" font-size="10.00">calc::RleFile</text>
<polyline fill="none" stroke="black" points="96.771,-52 167.229,-52 "/>
<text text-anchor="middle" x="132" y="-40" font-family="Helvetica,sans-Serif" font-size="10.00"> </text>
<polyline fill="none" stroke="black" points="96.771,-34 167.229,-34 "/>
<text text-anchor="start" x="104.771" y="-22" font-family="Helvetica,sans-Serif" font-size="10.00">+ read()</text>
<text text-anchor="start" x="104.771" y="-12" font-family="Helvetica,sans-Serif" font-size="10.00">+ write()</text>
</a>
</g>
</g>
<!-- Node1&#45;&gt;Node3 -->
<g id="edge2" class="edge"><title>Node1&#45;&gt;Node3</title>
<path fill="none" stroke="midnightblue" d="M105.671,-103.423C110.297,-92.1027 115.072,-80.4192 119.264,-70.1621"/>
<polygon fill="none" stroke="midnightblue" points="102.379,-102.226 101.835,-112.807 108.858,-104.875 102.379,-102.226"/>
</g>
</g>
</svg>
