<?xml version="1.0" encoding="UTF-8" standalone="no"?>
<!DOCTYPE svg PUBLIC "-//W3C//DTD SVG 1.1//EN"
 "http://www.w3.org/Graphics/SVG/1.1/DTD/svg11.dtd">
<!-- Generated by graphviz version 2.36.0 (20140111.2315)
 -->
<!-- Title: sys::TaskInfo Pages: 1 -->
<svg width="104pt" height="410pt"
 viewBox="0.00 0.00 104.00 410.00" xmlns="http://www.w3.org/2000/svg" xmlns:xlink="http://www.w3.org/1999/xlink">
<g id="graph0" class="graph" transform="scale(1 1) rotate(0) translate(4 406)">
<title>sys::TaskInfo</title>
<!-- Node1 -->
<g id="node1" class="node"><title>Node1</title>
<polygon fill="#bfbfbf" stroke="black" points="7.75879,-1 7.75879,-125 88.2412,-125 88.2412,-1 7.75879,-1"/>
<text text-anchor="middle" x="48" y="-113" font-family="Helvetica,sans-Serif" font-size="10.00">sys::TaskInfo</text>
<polyline fill="none" stroke="black" points="7.75879,-107 88.2412,-107 "/>
<text text-anchor="middle" x="48" y="-95" font-family="Helvetica,sans-Serif" font-size="10.00"> </text>
<polyline fill="none" stroke="black" points="7.75879,-89 88.2412,-89 "/>
<text text-anchor="start" x="15.7588" y="-77" font-family="Helvetica,sans-Serif" font-size="10.00">+ TaskInfo()</text>
<text text-anchor="start" x="15.7588" y="-67" font-family="Helvetica,sans-Serif" font-size="10.00">+ TaskInfo()</text>
<text text-anchor="start" x="15.7588" y="-57" font-family="Helvetica,sans-Serif" font-size="10.00">+ heap_size()</text>
<text text-anchor="start" x="15.7588" y="-47" font-family="Helvetica,sans-Serif" font-size="10.00">+ id()</text>
<text text-anchor="start" x="15.7588" y="-37" font-family="Helvetica,sans-Serif" font-size="10.00">+ is_active()</text>
<text text-anchor="start" x="15.7588" y="-27" font-family="Helvetica,sans-Serif" font-size="10.00">+ is_enabled()</text>
<text text-anchor="start" x="15.7588" y="-17" font-family="Helvetica,sans-Serif" font-size="10.00">and 10 more...</text>
<text text-anchor="start" x="15.7588" y="-7" font-family="Helvetica,sans-Serif" font-size="10.00">+ invalid()</text>
</g>
<!-- Node2 -->
<g id="node2" class="node"><title>Node2</title>
<g id="a_node2"><a xlink:href="classapi_1_1_sys_info_object.html" target="_top" xlink:title="System Info Object. ">
<polygon fill="none" stroke="black" points="-0.576172,-163 -0.576172,-217 96.5762,-217 96.5762,-163 -0.576172,-163"/>
<text text-anchor="middle" x="48" y="-205" font-family="Helvetica,sans-Serif" font-size="10.00">api::SysInfoObject</text>
<polyline fill="none" stroke="black" points="-0.576172,-199 96.5762,-199 "/>
<text text-anchor="middle" x="48" y="-187" font-family="Helvetica,sans-Serif" font-size="10.00"> </text>
<polyline fill="none" stroke="black" points="-0.576172,-181 96.5762,-181 "/>
<text text-anchor="middle" x="48" y="-169" font-family="Helvetica,sans-Serif" font-size="10.00"> </text>
</a>
</g>
</g>
<!-- Node2&#45;&gt;Node1 -->
<g id="edge1" class="edge"><title>Node2&#45;&gt;Node1</title>
<path fill="none" stroke="midnightblue" d="M48,-152.715C48,-144.071 48,-134.61 48,-125.188"/>
<polygon fill="none" stroke="midnightblue" points="44.5001,-152.796 48,-162.796 51.5001,-152.796 44.5001,-152.796"/>
</g>
<!-- Node3 -->
<g id="node3" class="node"><title>Node3</title>
<g id="a_node3"><a xlink:href="classapi_1_1_info_object.html" target="_top" xlink:title="API Information Object. ">
<polygon fill="none" stroke="black" points="7.75879,-255 7.75879,-309 88.2412,-309 88.2412,-255 7.75879,-255"/>
<text text-anchor="middle" x="48" y="-297" font-family="Helvetica,sans-Serif" font-size="10.00">api::InfoObject</text>
<polyline fill="none" stroke="black" points="7.75879,-291 88.2412,-291 "/>
<text text-anchor="middle" x="48" y="-279" font-family="Helvetica,sans-Serif" font-size="10.00"> </text>
<polyline fill="none" stroke="black" points="7.75879,-273 88.2412,-273 "/>
<text text-anchor="middle" x="48" y="-261" font-family="Helvetica,sans-Serif" font-size="10.00"> </text>
</a>
</g>
</g>
<!-- Node3&#45;&gt;Node2 -->
<g id="edge2" class="edge"><title>Node3&#45;&gt;Node2</title>
<path fill="none" stroke="midnightblue" d="M48,-244.865C48,-235.644 48,-225.907 48,-217.285"/>
<polygon fill="none" stroke="midnightblue" points="44.5001,-244.968 48,-254.968 51.5001,-244.968 44.5001,-244.968"/>
</g>
<!-- Node4 -->
<g id="node4" class="node"><title>Node4</title>
<g id="a_node4"><a xlink:href="classapi_1_1_api_object.html" target="_top" xlink:title="API Object Class. ">
<polygon fill="none" stroke="black" points="6.78955,-347 6.78955,-401 89.2104,-401 89.2104,-347 6.78955,-347"/>
<text text-anchor="middle" x="48" y="-389" font-family="Helvetica,sans-Serif" font-size="10.00">api::ApiObject</text>
<polyline fill="none" stroke="black" points="6.78955,-383 89.2104,-383 "/>
<text text-anchor="middle" x="48" y="-371" font-family="Helvetica,sans-Serif" font-size="10.00"> </text>
<polyline fill="none" stroke="black" points="6.78955,-365 89.2104,-365 "/>
<text text-anchor="start" x="14.7896" y="-353" font-family="Helvetica,sans-Serif" font-size="10.00">+ api_version()</text>
</a>
</g>
</g>
<!-- Node4&#45;&gt;Node3 -->
<g id="edge3" class="edge"><title>Node4&#45;&gt;Node3</title>
<path fill="none" stroke="midnightblue" d="M48,-336.865C48,-327.644 48,-317.907 48,-309.285"/>
<polygon fill="none" stroke="midnightblue" points="44.5001,-336.968 48,-346.968 51.5001,-336.968 44.5001,-336.968"/>
</g>
</g>
</svg>
