<?xml version="1.0" encoding="UTF-8" standalone="no"?>
<!DOCTYPE svg PUBLIC "-//W3C//DTD SVG 1.1//EN"
 "http://www.w3.org/Graphics/SVG/1.1/DTD/svg11.dtd">
<!-- Generated by graphviz version 2.36.0 (20140111.2315)
 -->
<!-- Title: sys::Trace Pages: 1 -->
<svg width="150pt" height="824pt"
 viewBox="0.00 0.00 150.00 824.00" xmlns="http://www.w3.org/2000/svg" xmlns:xlink="http://www.w3.org/1999/xlink">
<g id="graph0" class="graph" transform="scale(1 1) rotate(0) translate(4 820)">
<title>sys::Trace</title>
<!-- Node1 -->
<g id="node1" class="node"><title>Node1</title>
<polygon fill="#bfbfbf" stroke="black" points="21.1763,-1 21.1763,-125 120.824,-125 120.824,-1 21.1763,-1"/>
<text text-anchor="middle" x="71" y="-113" font-family="Helvetica,sans-Serif" font-size="10.00">sys::Trace</text>
<polyline fill="none" stroke="black" points="21.1763,-107 120.824,-107 "/>
<text text-anchor="middle" x="71" y="-95" font-family="Helvetica,sans-Serif" font-size="10.00"> </text>
<polyline fill="none" stroke="black" points="21.1763,-89 120.824,-89 "/>
<text text-anchor="start" x="29.1763" y="-77" font-family="Helvetica,sans-Serif" font-size="10.00">+ Trace()</text>
<text text-anchor="start" x="29.1763" y="-67" font-family="Helvetica,sans-Serif" font-size="10.00">+ operator=()</text>
<text text-anchor="start" x="29.1763" y="-57" font-family="Helvetica,sans-Serif" font-size="10.00">+ operator=()</text>
<text text-anchor="start" x="29.1763" y="-47" font-family="Helvetica,sans-Serif" font-size="10.00">+ trace_critical()</text>
<text text-anchor="start" x="29.1763" y="-37" font-family="Helvetica,sans-Serif" font-size="10.00">+ trace_error()</text>
<text text-anchor="start" x="29.1763" y="-27" font-family="Helvetica,sans-Serif" font-size="10.00">+ trace_fatal()</text>
<text text-anchor="start" x="29.1763" y="-17" font-family="Helvetica,sans-Serif" font-size="10.00">+ trace_message()</text>
<text text-anchor="start" x="29.1763" y="-7" font-family="Helvetica,sans-Serif" font-size="10.00">+ trace_warning()</text>
</g>
<!-- Node2 -->
<g id="node2" class="node"><title>Node2</title>
<g id="a_node2"><a xlink:href="classvar_1_1_string.html" target="_top" xlink:title="String class. ">
<polygon fill="none" stroke="black" points="30.7588,-163 30.7588,-277 111.241,-277 111.241,-163 30.7588,-163"/>
<text text-anchor="middle" x="71" y="-265" font-family="Helvetica,sans-Serif" font-size="10.00">var::String</text>
<polyline fill="none" stroke="black" points="30.7588,-259 111.241,-259 "/>
<text text-anchor="middle" x="71" y="-247" font-family="Helvetica,sans-Serif" font-size="10.00"> </text>
<polyline fill="none" stroke="black" points="30.7588,-241 111.241,-241 "/>
<text text-anchor="start" x="38.7588" y="-229" font-family="Helvetica,sans-Serif" font-size="10.00">+ String()</text>
<text text-anchor="start" x="38.7588" y="-219" font-family="Helvetica,sans-Serif" font-size="10.00">+ String()</text>
<text text-anchor="start" x="38.7588" y="-209" font-family="Helvetica,sans-Serif" font-size="10.00">+ String()</text>
<text text-anchor="start" x="38.7588" y="-199" font-family="Helvetica,sans-Serif" font-size="10.00">+ String()</text>
<text text-anchor="start" x="38.7588" y="-189" font-family="Helvetica,sans-Serif" font-size="10.00">+ String()</text>
<text text-anchor="start" x="38.7588" y="-179" font-family="Helvetica,sans-Serif" font-size="10.00">+ String()</text>
<text text-anchor="start" x="38.7588" y="-169" font-family="Helvetica,sans-Serif" font-size="10.00">and 59 more...</text>
</a>
</g>
</g>
<!-- Node2&#45;&gt;Node1 -->
<g id="edge1" class="edge"><title>Node2&#45;&gt;Node1</title>
<path fill="none" stroke="midnightblue" d="M71,-152.449C71,-143.354 71,-134.054 71,-125.063"/>
<polygon fill="none" stroke="midnightblue" points="67.5001,-152.603 71,-162.603 74.5001,-152.603 67.5001,-152.603"/>
</g>
<!-- Node3 -->
<g id="node3" class="node"><title>Node3</title>
<g id="a_node3"><a xlink:href="classvar_1_1_data.html" target="_top" xlink:title="Data storage class. ">
<polygon fill="none" stroke="black" points="23.4102,-315 23.4102,-449 118.59,-449 118.59,-315 23.4102,-315"/>
<text text-anchor="middle" x="71" y="-437" font-family="Helvetica,sans-Serif" font-size="10.00">var::Data</text>
<polyline fill="none" stroke="black" points="23.4102,-431 118.59,-431 "/>
<text text-anchor="middle" x="71" y="-419" font-family="Helvetica,sans-Serif" font-size="10.00"> </text>
<polyline fill="none" stroke="black" points="23.4102,-413 118.59,-413 "/>
<text text-anchor="start" x="31.4102" y="-401" font-family="Helvetica,sans-Serif" font-size="10.00">+ Data()</text>
<text text-anchor="start" x="31.4102" y="-391" font-family="Helvetica,sans-Serif" font-size="10.00">+ Data()</text>
<text text-anchor="start" x="31.4102" y="-381" font-family="Helvetica,sans-Serif" font-size="10.00">+ Data()</text>
<text text-anchor="start" x="31.4102" y="-371" font-family="Helvetica,sans-Serif" font-size="10.00">+ Data()</text>
<text text-anchor="start" x="31.4102" y="-361" font-family="Helvetica,sans-Serif" font-size="10.00">+ ~Data()</text>
<text text-anchor="start" x="31.4102" y="-351" font-family="Helvetica,sans-Serif" font-size="10.00">+ alloc()</text>
<text text-anchor="start" x="31.4102" y="-341" font-family="Helvetica,sans-Serif" font-size="10.00">and 19 more...</text>
<text text-anchor="start" x="31.4102" y="-331" font-family="Helvetica,sans-Serif" font-size="10.00">+ minimum_size()</text>
<text text-anchor="start" x="31.4102" y="-321" font-family="Helvetica,sans-Serif" font-size="10.00"># copy()</text>
</a>
</g>
</g>
<!-- Node3&#45;&gt;Node2 -->
<g id="edge2" class="edge"><title>Node3&#45;&gt;Node2</title>
<path fill="none" stroke="midnightblue" d="M71,-304.907C71,-295.558 71,-286.139 71,-277.16"/>
<polygon fill="none" stroke="midnightblue" points="67.5001,-304.998 71,-314.998 74.5001,-304.998 67.5001,-304.998"/>
</g>
<!-- Node4 -->
<g id="node4" class="node"><title>Node4</title>
<g id="a_node4"><a xlink:href="classapi_1_1_var_work_object.html" target="_top" xlink:title="Var Work Object. ">
<polygon fill="none" stroke="black" points="20.1094,-487 20.1094,-541 121.891,-541 121.891,-487 20.1094,-487"/>
<text text-anchor="middle" x="71" y="-529" font-family="Helvetica,sans-Serif" font-size="10.00">api::VarWorkObject</text>
<polyline fill="none" stroke="black" points="20.1094,-523 121.891,-523 "/>
<text text-anchor="middle" x="71" y="-511" font-family="Helvetica,sans-Serif" font-size="10.00"> </text>
<polyline fill="none" stroke="black" points="20.1094,-505 121.891,-505 "/>
<text text-anchor="middle" x="71" y="-493" font-family="Helvetica,sans-Serif" font-size="10.00"> </text>
</a>
</g>
</g>
<!-- Node4&#45;&gt;Node3 -->
<g id="edge3" class="edge"><title>Node4&#45;&gt;Node3</title>
<path fill="none" stroke="midnightblue" d="M71,-476.644C71,-468.02 71,-458.555 71,-449.059"/>
<polygon fill="none" stroke="midnightblue" points="67.5001,-476.693 71,-486.693 74.5001,-476.693 67.5001,-476.693"/>
</g>
<!-- Node5 -->
<g id="node5" class="node"><title>Node5</title>
<g id="a_node5"><a xlink:href="classapi_1_1_work_object.html" target="_top" xlink:title="Work Object. ">
<polygon fill="none" stroke="black" points="-0.0859375,-579 -0.0859375,-723 142.086,-723 142.086,-579 -0.0859375,-579"/>
<text text-anchor="middle" x="71" y="-711" font-family="Helvetica,sans-Serif" font-size="10.00">api::WorkObject</text>
<polyline fill="none" stroke="black" points="-0.0859375,-705 142.086,-705 "/>
<text text-anchor="middle" x="71" y="-693" font-family="Helvetica,sans-Serif" font-size="10.00"> </text>
<polyline fill="none" stroke="black" points="-0.0859375,-687 142.086,-687 "/>
<text text-anchor="start" x="7.91406" y="-675" font-family="Helvetica,sans-Serif" font-size="10.00">+ WorkObject()</text>
<text text-anchor="start" x="7.91406" y="-665" font-family="Helvetica,sans-Serif" font-size="10.00">+ clear_error_number()</text>
<text text-anchor="start" x="7.91406" y="-655" font-family="Helvetica,sans-Serif" font-size="10.00">+ error_number()</text>
<text text-anchor="start" x="7.91406" y="-645" font-family="Helvetica,sans-Serif" font-size="10.00">+ exit_fatal()</text>
<text text-anchor="start" x="7.91406" y="-635" font-family="Helvetica,sans-Serif" font-size="10.00"># set_error_number()</text>
<text text-anchor="start" x="7.91406" y="-625" font-family="Helvetica,sans-Serif" font-size="10.00"># set_error_number_if</text>
<text text-anchor="start" x="7.91406" y="-615" font-family="Helvetica,sans-Serif" font-size="10.00">_error()</text>
<text text-anchor="start" x="7.91406" y="-605" font-family="Helvetica,sans-Serif" font-size="10.00"># set_error_number_if_null()</text>
<text text-anchor="start" x="7.91406" y="-595" font-family="Helvetica,sans-Serif" font-size="10.00"># set_error_number_to</text>
<text text-anchor="start" x="7.91406" y="-585" font-family="Helvetica,sans-Serif" font-size="10.00">_errno()</text>
</a>
</g>
</g>
<!-- Node5&#45;&gt;Node4 -->
<g id="edge4" class="edge"><title>Node5&#45;&gt;Node4</title>
<path fill="none" stroke="midnightblue" d="M71,-568.911C71,-558.983 71,-549.464 71,-541.262"/>
<polygon fill="none" stroke="midnightblue" points="67.5001,-568.942 71,-578.942 74.5001,-568.942 67.5001,-568.942"/>
</g>
<!-- Node6 -->
<g id="node6" class="node"><title>Node6</title>
<g id="a_node6"><a xlink:href="classapi_1_1_api_object.html" target="_top" xlink:title="Application Programming Interface Object. ">
<polygon fill="none" stroke="black" points="29.7896,-761 29.7896,-815 112.21,-815 112.21,-761 29.7896,-761"/>
<text text-anchor="middle" x="71" y="-803" font-family="Helvetica,sans-Serif" font-size="10.00">api::ApiObject</text>
<polyline fill="none" stroke="black" points="29.7896,-797 112.21,-797 "/>
<text text-anchor="middle" x="71" y="-785" font-family="Helvetica,sans-Serif" font-size="10.00"> </text>
<polyline fill="none" stroke="black" points="29.7896,-779 112.21,-779 "/>
<text text-anchor="start" x="37.7896" y="-767" font-family="Helvetica,sans-Serif" font-size="10.00">+ api_version()</text>
</a>
</g>
</g>
<!-- Node6&#45;&gt;Node5 -->
<g id="edge5" class="edge"><title>Node6&#45;&gt;Node5</title>
<path fill="none" stroke="midnightblue" d="M71,-750.925C71,-742.287 71,-732.765 71,-723.145"/>
<polygon fill="none" stroke="midnightblue" points="67.5001,-750.971 71,-760.971 74.5001,-750.971 67.5001,-750.971"/>
</g>
</g>
</svg>
