<?xml version="1.0" encoding="UTF-8" standalone="no"?>
<!DOCTYPE svg PUBLIC "-//W3C//DTD SVG 1.1//EN"
 "http://www.w3.org/Graphics/SVG/1.1/DTD/svg11.dtd">
<!-- Generated by graphviz version 2.36.0 (20140111.2315)
 -->
<!-- Title: sys::Signal Pages: 1 -->
<svg width="126pt" height="592pt"
 viewBox="0.00 0.00 126.00 592.00" xmlns="http://www.w3.org/2000/svg" xmlns:xlink="http://www.w3.org/1999/xlink">
<g id="graph0" class="graph" transform="scale(1 1) rotate(0) translate(4 588)">
<title>sys::Signal</title>
<!-- Node1 -->
<g id="node1" class="node"><title>Node1</title>
<polygon fill="#bfbfbf" stroke="black" points="17.2305,-113 17.2305,-227 100.77,-227 100.77,-113 17.2305,-113"/>
<text text-anchor="middle" x="59" y="-215" font-family="Helvetica,sans-Serif" font-size="10.00">sys::Signal</text>
<polyline fill="none" stroke="black" points="17.2305,-209 100.77,-209 "/>
<text text-anchor="middle" x="59" y="-197" font-family="Helvetica,sans-Serif" font-size="10.00"> </text>
<polyline fill="none" stroke="black" points="17.2305,-191 100.77,-191 "/>
<text text-anchor="start" x="25.2305" y="-179" font-family="Helvetica,sans-Serif" font-size="10.00">+ Signal()</text>
<text text-anchor="start" x="25.2305" y="-169" font-family="Helvetica,sans-Serif" font-size="10.00">+ event()</text>
<text text-anchor="start" x="25.2305" y="-159" font-family="Helvetica,sans-Serif" font-size="10.00">+ set_handler()</text>
<text text-anchor="start" x="25.2305" y="-149" font-family="Helvetica,sans-Serif" font-size="10.00">+ signo()</text>
<text text-anchor="start" x="25.2305" y="-139" font-family="Helvetica,sans-Serif" font-size="10.00">+ sigptr()</text>
<text text-anchor="start" x="25.2305" y="-129" font-family="Helvetica,sans-Serif" font-size="10.00">+ sigvalue()</text>
<text text-anchor="start" x="25.2305" y="-119" font-family="Helvetica,sans-Serif" font-size="10.00">and 4 more...</text>
</g>
<!-- Node5 -->
<g id="node5" class="node"><title>Node5</title>
<g id="a_node5"><a xlink:href="classhal_1_1_device_signal.html" target="_top" xlink:title="Class for bridging device events with Signal events. ">
<polygon fill="none" stroke="black" points="12.3672,-1 12.3672,-75 105.633,-75 105.633,-1 12.3672,-1"/>
<text text-anchor="middle" x="59" y="-63" font-family="Helvetica,sans-Serif" font-size="10.00">hal::DeviceSignal</text>
<polyline fill="none" stroke="black" points="12.3672,-57 105.633,-57 "/>
<text text-anchor="middle" x="59" y="-45" font-family="Helvetica,sans-Serif" font-size="10.00"> </text>
<polyline fill="none" stroke="black" points="12.3672,-39 105.633,-39 "/>
<text text-anchor="start" x="20.3672" y="-27" font-family="Helvetica,sans-Serif" font-size="10.00">+ DeviceSignal()</text>
<text text-anchor="start" x="20.3672" y="-17" font-family="Helvetica,sans-Serif" font-size="10.00">+ DeviceSignal()</text>
<text text-anchor="start" x="20.3672" y="-7" font-family="Helvetica,sans-Serif" font-size="10.00">+ create_action()</text>
</a>
</g>
</g>
<!-- Node1&#45;&gt;Node5 -->
<g id="edge4" class="edge"><title>Node1&#45;&gt;Node5</title>
<path fill="none" stroke="midnightblue" d="M59,-102.506C59,-93.0589 59,-83.6537 59,-75.0895"/>
<polygon fill="none" stroke="midnightblue" points="55.5001,-102.736 59,-112.736 62.5001,-102.736 55.5001,-102.736"/>
</g>
<!-- Node2 -->
<g id="node2" class="node"><title>Node2</title>
<g id="a_node2"><a xlink:href="classapi_1_1_sys_work_object.html" target="_top" xlink:title="System Work Object Class. ">
<polygon fill="none" stroke="black" points="7.18652,-265 7.18652,-319 110.813,-319 110.813,-265 7.18652,-265"/>
<text text-anchor="middle" x="59" y="-307" font-family="Helvetica,sans-Serif" font-size="10.00">api::SysWorkObject</text>
<polyline fill="none" stroke="black" points="7.18652,-301 110.813,-301 "/>
<text text-anchor="middle" x="59" y="-289" font-family="Helvetica,sans-Serif" font-size="10.00"> </text>
<polyline fill="none" stroke="black" points="7.18652,-283 110.813,-283 "/>
<text text-anchor="middle" x="59" y="-271" font-family="Helvetica,sans-Serif" font-size="10.00"> </text>
</a>
</g>
</g>
<!-- Node2&#45;&gt;Node1 -->
<g id="edge1" class="edge"><title>Node2&#45;&gt;Node1</title>
<path fill="none" stroke="midnightblue" d="M59,-254.754C59,-246.008 59,-236.458 59,-227.039"/>
<polygon fill="none" stroke="midnightblue" points="55.5001,-254.962 59,-264.962 62.5001,-254.962 55.5001,-254.962"/>
</g>
<!-- Node3 -->
<g id="node3" class="node"><title>Node3</title>
<g id="a_node3"><a xlink:href="classapi_1_1_work_object.html" target="_top" xlink:title="WorkObject Class. ">
<polygon fill="none" stroke="black" points="-0.547852,-357 -0.547852,-491 118.548,-491 118.548,-357 -0.547852,-357"/>
<text text-anchor="middle" x="59" y="-479" font-family="Helvetica,sans-Serif" font-size="10.00">api::WorkObject</text>
<polyline fill="none" stroke="black" points="-0.547852,-473 118.548,-473 "/>
<text text-anchor="middle" x="59" y="-461" font-family="Helvetica,sans-Serif" font-size="10.00"> </text>
<polyline fill="none" stroke="black" points="-0.547852,-455 118.548,-455 "/>
<text text-anchor="start" x="7.45215" y="-443" font-family="Helvetica,sans-Serif" font-size="10.00">+ WorkObject()</text>
<text text-anchor="start" x="7.45215" y="-433" font-family="Helvetica,sans-Serif" font-size="10.00">+ clear_error_number()</text>
<text text-anchor="start" x="7.45215" y="-423" font-family="Helvetica,sans-Serif" font-size="10.00">+ error_number()</text>
<text text-anchor="start" x="7.45215" y="-413" font-family="Helvetica,sans-Serif" font-size="10.00">+ exit_fatal()</text>
<text text-anchor="start" x="7.45215" y="-403" font-family="Helvetica,sans-Serif" font-size="10.00"># set_error_number()</text>
<text text-anchor="start" x="7.45215" y="-393" font-family="Helvetica,sans-Serif" font-size="10.00"># set_error_number_if</text>
<text text-anchor="start" x="7.45215" y="-383" font-family="Helvetica,sans-Serif" font-size="10.00">_error()</text>
<text text-anchor="start" x="7.45215" y="-373" font-family="Helvetica,sans-Serif" font-size="10.00"># set_error_number_to</text>
<text text-anchor="start" x="7.45215" y="-363" font-family="Helvetica,sans-Serif" font-size="10.00">_errno()</text>
</a>
</g>
</g>
<!-- Node3&#45;&gt;Node2 -->
<g id="edge2" class="edge"><title>Node3&#45;&gt;Node2</title>
<path fill="none" stroke="midnightblue" d="M59,-346.838C59,-336.903 59,-327.326 59,-319.074"/>
<polygon fill="none" stroke="midnightblue" points="55.5001,-346.857 59,-356.857 62.5001,-346.858 55.5001,-346.857"/>
</g>
<!-- Node4 -->
<g id="node4" class="node"><title>Node4</title>
<g id="a_node4"><a xlink:href="classapi_1_1_api_object.html" target="_top" xlink:title="API Object Class. ">
<polygon fill="none" stroke="black" points="17.7896,-529 17.7896,-583 100.21,-583 100.21,-529 17.7896,-529"/>
<text text-anchor="middle" x="59" y="-571" font-family="Helvetica,sans-Serif" font-size="10.00">api::ApiObject</text>
<polyline fill="none" stroke="black" points="17.7896,-565 100.21,-565 "/>
<text text-anchor="middle" x="59" y="-553" font-family="Helvetica,sans-Serif" font-size="10.00"> </text>
<polyline fill="none" stroke="black" points="17.7896,-547 100.21,-547 "/>
<text text-anchor="start" x="25.7896" y="-535" font-family="Helvetica,sans-Serif" font-size="10.00">+ api_version()</text>
</a>
</g>
</g>
<!-- Node4&#45;&gt;Node3 -->
<g id="edge3" class="edge"><title>Node4&#45;&gt;Node3</title>
<path fill="none" stroke="midnightblue" d="M59,-518.644C59,-510.02 59,-500.555 59,-491.059"/>
<polygon fill="none" stroke="midnightblue" points="55.5001,-518.693 59,-528.693 62.5001,-518.693 55.5001,-518.693"/>
</g>
</g>
</svg>
