<?xml version="1.0" encoding="UTF-8" standalone="no"?>
<!DOCTYPE svg PUBLIC "-//W3C//DTD SVG 1.1//EN"
 "http://www.w3.org/Graphics/SVG/1.1/DTD/svg11.dtd">
<!-- Generated by graphviz version 2.36.0 (20140111.2315)
 -->
<!-- Title: hal::CFifo Pages: 1 -->
<svg width="122pt" height="600pt"
 viewBox="0.00 0.00 122.00 600.00" xmlns="http://www.w3.org/2000/svg" xmlns:xlink="http://www.w3.org/1999/xlink">
<g id="graph0" class="graph" transform="scale(1 1) rotate(0) translate(4 596)">
<title>hal::CFifo</title>
<!-- Node1 -->
<g id="node1" class="node"><title>Node1</title>
<polygon fill="#bfbfbf" stroke="black" points="19.3979,-1 19.3979,-115 94.6021,-115 94.6021,-1 19.3979,-1"/>
<text text-anchor="middle" x="57" y="-103" font-family="Helvetica,sans-Serif" font-size="10.00">hal::CFifo</text>
<polyline fill="none" stroke="black" points="19.3979,-97 94.6021,-97 "/>
<text text-anchor="middle" x="57" y="-85" font-family="Helvetica,sans-Serif" font-size="10.00"> </text>
<polyline fill="none" stroke="black" points="19.3979,-79 94.6021,-79 "/>
<text text-anchor="start" x="27.3979" y="-67" font-family="Helvetica,sans-Serif" font-size="10.00">+ CFifo()</text>
<text text-anchor="start" x="27.3979" y="-57" font-family="Helvetica,sans-Serif" font-size="10.00">+ exit()</text>
<text text-anchor="start" x="27.3979" y="-47" font-family="Helvetica,sans-Serif" font-size="10.00">+ flush()</text>
<text text-anchor="start" x="27.3979" y="-37" font-family="Helvetica,sans-Serif" font-size="10.00">+ get_count()</text>
<text text-anchor="start" x="27.3979" y="-27" font-family="Helvetica,sans-Serif" font-size="10.00">+ get_info()</text>
<text text-anchor="start" x="27.3979" y="-17" font-family="Helvetica,sans-Serif" font-size="10.00">+ get_info()</text>
<text text-anchor="start" x="27.3979" y="-7" font-family="Helvetica,sans-Serif" font-size="10.00">and 6 more...</text>
</g>
<!-- Node2 -->
<g id="node2" class="node"><title>Node2</title>
<g id="a_node2"><a xlink:href="classhal_1_1_device.html" target="_top" xlink:title="Device Class. ">
<polygon fill="none" stroke="black" points="24.2661,-153 24.2661,-227 89.7339,-227 89.7339,-153 24.2661,-153"/>
<text text-anchor="middle" x="57" y="-215" font-family="Helvetica,sans-Serif" font-size="10.00">hal::Device</text>
<polyline fill="none" stroke="black" points="24.2661,-209 89.7339,-209 "/>
<text text-anchor="middle" x="57" y="-197" font-family="Helvetica,sans-Serif" font-size="10.00"> </text>
<polyline fill="none" stroke="black" points="24.2661,-191 89.7339,-191 "/>
<text text-anchor="start" x="32.2661" y="-179" font-family="Helvetica,sans-Serif" font-size="10.00">+ Device()</text>
<text text-anchor="start" x="32.2661" y="-169" font-family="Helvetica,sans-Serif" font-size="10.00">+ read()</text>
<text text-anchor="start" x="32.2661" y="-159" font-family="Helvetica,sans-Serif" font-size="10.00">+ write()</text>
</a>
</g>
</g>
<!-- Node2&#45;&gt;Node1 -->
<g id="edge1" class="edge"><title>Node2&#45;&gt;Node1</title>
<path fill="none" stroke="midnightblue" d="M57,-142.708C57,-133.887 57,-124.564 57,-115.467"/>
<polygon fill="none" stroke="midnightblue" points="53.5001,-142.788 57,-152.788 60.5001,-142.788 53.5001,-142.788"/>
</g>
<!-- Node3 -->
<g id="node3" class="node"><title>Node3</title>
<g id="a_node3"><a xlink:href="classsys_1_1_file.html" target="_top" xlink:title="File Class. ">
<polygon fill="none" stroke="black" points="16.7588,-265 16.7588,-429 97.2412,-429 97.2412,-265 16.7588,-265"/>
<text text-anchor="middle" x="57" y="-417" font-family="Helvetica,sans-Serif" font-size="10.00">sys::File</text>
<polyline fill="none" stroke="black" points="16.7588,-411 97.2412,-411 "/>
<text text-anchor="start" x="24.7588" y="-399" font-family="Helvetica,sans-Serif" font-size="10.00"># m_fd</text>
<polyline fill="none" stroke="black" points="16.7588,-393 97.2412,-393 "/>
<text text-anchor="start" x="24.7588" y="-381" font-family="Helvetica,sans-Serif" font-size="10.00">+ File()</text>
<text text-anchor="start" x="24.7588" y="-371" font-family="Helvetica,sans-Serif" font-size="10.00">+ close()</text>
<text text-anchor="start" x="24.7588" y="-361" font-family="Helvetica,sans-Serif" font-size="10.00">+ create()</text>
<text text-anchor="start" x="24.7588" y="-351" font-family="Helvetica,sans-Serif" font-size="10.00">+ fileno()</text>
<text text-anchor="start" x="24.7588" y="-341" font-family="Helvetica,sans-Serif" font-size="10.00">+ flags()</text>
<text text-anchor="start" x="24.7588" y="-331" font-family="Helvetica,sans-Serif" font-size="10.00">+ gets()</text>
<text text-anchor="start" x="24.7588" y="-321" font-family="Helvetica,sans-Serif" font-size="10.00">and 21 more...</text>
<text text-anchor="start" x="24.7588" y="-311" font-family="Helvetica,sans-Serif" font-size="10.00">+ name()</text>
<text text-anchor="start" x="24.7588" y="-301" font-family="Helvetica,sans-Serif" font-size="10.00">+ remove()</text>
<text text-anchor="start" x="24.7588" y="-291" font-family="Helvetica,sans-Serif" font-size="10.00">+ size()</text>
<text text-anchor="start" x="24.7588" y="-281" font-family="Helvetica,sans-Serif" font-size="10.00">+ stat()</text>
<text text-anchor="start" x="24.7588" y="-271" font-family="Helvetica,sans-Serif" font-size="10.00">+ suffix()</text>
</a>
</g>
</g>
<!-- Node3&#45;&gt;Node2 -->
<g id="edge2" class="edge"><title>Node3&#45;&gt;Node2</title>
<path fill="none" stroke="midnightblue" d="M57,-254.725C57,-245.069 57,-235.708 57,-227.267"/>
<polygon fill="none" stroke="midnightblue" points="53.5001,-254.868 57,-264.868 60.5001,-254.868 53.5001,-254.868"/>
</g>
<!-- Node4 -->
<g id="node4" class="node"><title>Node4</title>
<g id="a_node4"><a xlink:href="classapi_1_1_s_object.html" target="_top" xlink:title="SObject Class. ">
<polygon fill="none" stroke="black" points="-0.191895,-467 -0.191895,-591 114.192,-591 114.192,-467 -0.191895,-467"/>
<text text-anchor="middle" x="57" y="-579" font-family="Helvetica,sans-Serif" font-size="10.00">api::SObject</text>
<polyline fill="none" stroke="black" points="-0.191895,-573 114.192,-573 "/>
<text text-anchor="middle" x="57" y="-561" font-family="Helvetica,sans-Serif" font-size="10.00"> </text>
<polyline fill="none" stroke="black" points="-0.191895,-555 114.192,-555 "/>
<text text-anchor="start" x="7.80811" y="-543" font-family="Helvetica,sans-Serif" font-size="10.00">+ SObject()</text>
<text text-anchor="start" x="7.80811" y="-533" font-family="Helvetica,sans-Serif" font-size="10.00">+ api_version()</text>
<text text-anchor="start" x="7.80811" y="-523" font-family="Helvetica,sans-Serif" font-size="10.00">+ clear_error()</text>
<text text-anchor="start" x="7.80811" y="-513" font-family="Helvetica,sans-Serif" font-size="10.00">+ error_number()</text>
<text text-anchor="start" x="7.80811" y="-503" font-family="Helvetica,sans-Serif" font-size="10.00">+ exit_fatal()</text>
<text text-anchor="start" x="7.80811" y="-493" font-family="Helvetica,sans-Serif" font-size="10.00"># set_error_number()</text>
<text text-anchor="start" x="7.80811" y="-483" font-family="Helvetica,sans-Serif" font-size="10.00"># set_error_number_if</text>
<text text-anchor="start" x="7.80811" y="-473" font-family="Helvetica,sans-Serif" font-size="10.00">_error()</text>
</a>
</g>
</g>
<!-- Node4&#45;&gt;Node3 -->
<g id="edge3" class="edge"><title>Node4&#45;&gt;Node3</title>
<path fill="none" stroke="midnightblue" d="M57,-456.706C57,-447.639 57,-438.307 57,-429.101"/>
<polygon fill="none" stroke="midnightblue" points="53.5001,-456.809 57,-466.809 60.5001,-456.809 53.5001,-456.809"/>
</g>
</g>
</svg>
