<?xml version="1.0" encoding="UTF-8" standalone="no"?>
<!DOCTYPE svg PUBLIC "-//W3C//DTD SVG 1.1//EN"
 "http://www.w3.org/Graphics/SVG/1.1/DTD/svg11.dtd">
<!-- Generated by graphviz version 2.36.0 (20140111.2315)
 -->
<!-- Title: ui::PinButton Pages: 1 -->
<svg width="274pt" height="2124pt"
 viewBox="0.00 0.00 273.68 2124.00" xmlns="http://www.w3.org/2000/svg" xmlns:xlink="http://www.w3.org/1999/xlink">
<g id="graph0" class="graph" transform="scale(1 1) rotate(0) translate(4 2120)">
<title>ui::PinButton</title>
<!-- Node1 -->
<g id="node1" class="node"><title>Node1</title>
<polygon fill="#bfbfbf" stroke="black" points="27.6074,-1 27.6074,-155 138.393,-155 138.393,-1 27.6074,-1"/>
<text text-anchor="middle" x="83" y="-143" font-family="Helvetica,sans-Serif" font-size="10.00">ui::PinButton</text>
<polyline fill="none" stroke="black" points="27.6074,-137 138.393,-137 "/>
<text text-anchor="middle" x="83" y="-125" font-family="Helvetica,sans-Serif" font-size="10.00"> </text>
<polyline fill="none" stroke="black" points="27.6074,-119 138.393,-119 "/>
<text text-anchor="start" x="35.6074" y="-107" font-family="Helvetica,sans-Serif" font-size="10.00">+ PinButton()</text>
<text text-anchor="start" x="35.6074" y="-97" font-family="Helvetica,sans-Serif" font-size="10.00">+ active_value()</text>
<text text-anchor="start" x="35.6074" y="-87" font-family="Helvetica,sans-Serif" font-size="10.00">+ event_id()</text>
<text text-anchor="start" x="35.6074" y="-77" font-family="Helvetica,sans-Serif" font-size="10.00">+ get_actuated()</text>
<text text-anchor="start" x="35.6074" y="-67" font-family="Helvetica,sans-Serif" font-size="10.00">+ get_duration()</text>
<text text-anchor="start" x="35.6074" y="-57" font-family="Helvetica,sans-Serif" font-size="10.00">+ get_held()</text>
<text text-anchor="start" x="35.6074" y="-47" font-family="Helvetica,sans-Serif" font-size="10.00">and 6 more...</text>
<text text-anchor="start" x="35.6074" y="-37" font-family="Helvetica,sans-Serif" font-size="10.00">+ held_duration()</text>
<text text-anchor="start" x="35.6074" y="-27" font-family="Helvetica,sans-Serif" font-size="10.00">+ set_held_duration()</text>
<text text-anchor="start" x="35.6074" y="-17" font-family="Helvetica,sans-Serif" font-size="10.00"># get_is_active()</text>
<text text-anchor="start" x="35.6074" y="-7" font-family="Helvetica,sans-Serif" font-size="10.00"># update()</text>
</g>
<!-- Node2 -->
<g id="node2" class="node"><title>Node2</title>
<g id="a_node2"><a xlink:href="classui_1_1_button.html" target="_top" xlink:title="Button Class. ">
<polygon fill="none" stroke="black" points="0.831543,-1321 0.831543,-1455 117.168,-1455 117.168,-1321 0.831543,-1321"/>
<text text-anchor="middle" x="59" y="-1443" font-family="Helvetica,sans-Serif" font-size="10.00">ui::Button</text>
<polyline fill="none" stroke="black" points="0.831543,-1437 117.168,-1437 "/>
<text text-anchor="middle" x="59" y="-1425" font-family="Helvetica,sans-Serif" font-size="10.00"> </text>
<polyline fill="none" stroke="black" points="0.831543,-1419 117.168,-1419 "/>
<text text-anchor="start" x="8.83154" y="-1407" font-family="Helvetica,sans-Serif" font-size="10.00">+ event()</text>
<text text-anchor="start" x="8.83154" y="-1397" font-family="Helvetica,sans-Serif" font-size="10.00">+ event_id()</text>
<text text-anchor="start" x="8.83154" y="-1387" font-family="Helvetica,sans-Serif" font-size="10.00">+ get_actuated()</text>
<text text-anchor="start" x="8.83154" y="-1377" font-family="Helvetica,sans-Serif" font-size="10.00">+ get_duration()</text>
<text text-anchor="start" x="8.83154" y="-1367" font-family="Helvetica,sans-Serif" font-size="10.00">+ get_event()</text>
<text text-anchor="start" x="8.83154" y="-1357" font-family="Helvetica,sans-Serif" font-size="10.00">+ get_held()</text>
<text text-anchor="start" x="8.83154" y="-1347" font-family="Helvetica,sans-Serif" font-size="10.00">and 4 more...</text>
<text text-anchor="start" x="8.83154" y="-1337" font-family="Helvetica,sans-Serif" font-size="10.00">+ max_held_duration()</text>
<text text-anchor="start" x="8.83154" y="-1327" font-family="Helvetica,sans-Serif" font-size="10.00"># update()</text>
</a>
</g>
</g>
<!-- Node2&#45;&gt;Node1 -->
<g id="edge1" class="edge"><title>Node2&#45;&gt;Node1</title>
<path fill="none" stroke="midnightblue" d="M59,-1310.61C59,-1284.42 59,-1254.93 59,-1228 59,-1228 59,-1228 59,-251 59,-219.493 62.9991,-185.048 67.7324,-155.314"/>
<polygon fill="none" stroke="midnightblue" points="55.5001,-1310.86 59,-1320.86 62.5001,-1310.86 55.5001,-1310.86"/>
</g>
<!-- Node3 -->
<g id="node3" class="node"><title>Node3</title>
<g id="a_node3"><a xlink:href="classapi_1_1_ui_work_object.html" target="_top" xlink:title="User Interface Work Object. ">
<polygon fill="none" stroke="black" points="10.7998,-1709 10.7998,-1763 107.2,-1763 107.2,-1709 10.7998,-1709"/>
<text text-anchor="middle" x="59" y="-1751" font-family="Helvetica,sans-Serif" font-size="10.00">api::UiWorkObject</text>
<polyline fill="none" stroke="black" points="10.7998,-1745 107.2,-1745 "/>
<text text-anchor="middle" x="59" y="-1733" font-family="Helvetica,sans-Serif" font-size="10.00"> </text>
<polyline fill="none" stroke="black" points="10.7998,-1727 107.2,-1727 "/>
<text text-anchor="middle" x="59" y="-1715" font-family="Helvetica,sans-Serif" font-size="10.00"> </text>
</a>
</g>
</g>
<!-- Node3&#45;&gt;Node2 -->
<g id="edge2" class="edge"><title>Node3&#45;&gt;Node2</title>
<path fill="none" stroke="midnightblue" d="M59,-1698.92C59,-1641.35 59,-1527.83 59,-1455.32"/>
<polygon fill="none" stroke="midnightblue" points="55.5001,-1698.99 59,-1708.99 62.5001,-1698.99 55.5001,-1698.99"/>
</g>
<!-- Node4 -->
<g id="node4" class="node"><title>Node4</title>
<g id="a_node4"><a xlink:href="classapi_1_1_work_object.html" target="_top" xlink:title="Work Object. ">
<polygon fill="none" stroke="black" points="-0.0859375,-1877 -0.0859375,-2021 142.086,-2021 142.086,-1877 -0.0859375,-1877"/>
<text text-anchor="middle" x="71" y="-2009" font-family="Helvetica,sans-Serif" font-size="10.00">api::WorkObject</text>
<polyline fill="none" stroke="black" points="-0.0859375,-2003 142.086,-2003 "/>
<text text-anchor="middle" x="71" y="-1991" font-family="Helvetica,sans-Serif" font-size="10.00"> </text>
<polyline fill="none" stroke="black" points="-0.0859375,-1985 142.086,-1985 "/>
<text text-anchor="start" x="7.91406" y="-1973" font-family="Helvetica,sans-Serif" font-size="10.00">+ WorkObject()</text>
<text text-anchor="start" x="7.91406" y="-1963" font-family="Helvetica,sans-Serif" font-size="10.00">+ clear_error_number()</text>
<text text-anchor="start" x="7.91406" y="-1953" font-family="Helvetica,sans-Serif" font-size="10.00">+ error_number()</text>
<text text-anchor="start" x="7.91406" y="-1943" font-family="Helvetica,sans-Serif" font-size="10.00">+ exit_fatal()</text>
<text text-anchor="start" x="7.91406" y="-1933" font-family="Helvetica,sans-Serif" font-size="10.00"># set_error_number()</text>
<text text-anchor="start" x="7.91406" y="-1923" font-family="Helvetica,sans-Serif" font-size="10.00"># set_error_number_if</text>
<text text-anchor="start" x="7.91406" y="-1913" font-family="Helvetica,sans-Serif" font-size="10.00">_error()</text>
<text text-anchor="start" x="7.91406" y="-1903" font-family="Helvetica,sans-Serif" font-size="10.00"># set_error_number_if_null()</text>
<text text-anchor="start" x="7.91406" y="-1893" font-family="Helvetica,sans-Serif" font-size="10.00"># set_error_number_to</text>
<text text-anchor="start" x="7.91406" y="-1883" font-family="Helvetica,sans-Serif" font-size="10.00">_errno()</text>
</a>
</g>
</g>
<!-- Node4&#45;&gt;Node3 -->
<g id="edge3" class="edge"><title>Node4&#45;&gt;Node3</title>
<path fill="none" stroke="midnightblue" d="M66.3706,-1866.6C64.2767,-1829.78 61.9475,-1788.83 60.4788,-1763"/>
<polygon fill="none" stroke="midnightblue" points="62.8918,-1867.07 66.9541,-1876.86 69.8805,-1866.68 62.8918,-1867.07"/>
</g>
<!-- Node13 -->
<g id="node13" class="node"><title>Node13</title>
<g id="a_node13"><a xlink:href="classapi_1_1_sys_work_object.html" target="_top" xlink:title="System Work Object. ">
<polygon fill="none" stroke="black" points="88.1865,-1783 88.1865,-1837 191.813,-1837 191.813,-1783 88.1865,-1783"/>
<text text-anchor="middle" x="140" y="-1825" font-family="Helvetica,sans-Serif" font-size="10.00">api::SysWorkObject</text>
<polyline fill="none" stroke="black" points="88.1865,-1819 191.813,-1819 "/>
<text text-anchor="middle" x="140" y="-1807" font-family="Helvetica,sans-Serif" font-size="10.00"> </text>
<polyline fill="none" stroke="black" points="88.1865,-1801 191.813,-1801 "/>
<text text-anchor="middle" x="140" y="-1789" font-family="Helvetica,sans-Serif" font-size="10.00"> </text>
</a>
</g>
</g>
<!-- Node4&#45;&gt;Node13 -->
<g id="edge13" class="edge"><title>Node4&#45;&gt;Node13</title>
<path fill="none" stroke="midnightblue" d="M111.575,-1867.44C117.078,-1856.51 122.369,-1846.01 126.862,-1837.08"/>
<polygon fill="none" stroke="midnightblue" points="108.287,-1866.19 106.915,-1876.69 114.539,-1869.33 108.287,-1866.19"/>
</g>
<!-- Node5 -->
<g id="node5" class="node"><title>Node5</title>
<g id="a_node5"><a xlink:href="classapi_1_1_api_object.html" target="_top" xlink:title="Application Programming Interface Object. ">
<polygon fill="none" stroke="black" points="29.7896,-2061 29.7896,-2115 112.21,-2115 112.21,-2061 29.7896,-2061"/>
<text text-anchor="middle" x="71" y="-2103" font-family="Helvetica,sans-Serif" font-size="10.00">api::ApiObject</text>
<polyline fill="none" stroke="black" points="29.7896,-2097 112.21,-2097 "/>
<text text-anchor="middle" x="71" y="-2085" font-family="Helvetica,sans-Serif" font-size="10.00"> </text>
<polyline fill="none" stroke="black" points="29.7896,-2079 112.21,-2079 "/>
<text text-anchor="start" x="37.7896" y="-2067" font-family="Helvetica,sans-Serif" font-size="10.00">+ api_version()</text>
</a>
</g>
</g>
<!-- Node5&#45;&gt;Node4 -->
<g id="edge4" class="edge"><title>Node5&#45;&gt;Node4</title>
<path fill="none" stroke="midnightblue" d="M71,-2050.65C71,-2041.47 71,-2031.29 71,-2021.04"/>
<polygon fill="none" stroke="midnightblue" points="67.5001,-2050.91 71,-2060.91 74.5001,-2050.91 67.5001,-2050.91"/>
</g>
<!-- Node6 -->
<g id="node6" class="node"><title>Node6</title>
<g id="a_node6"><a xlink:href="classhal_1_1_pin.html" target="_top" xlink:title="Pin class. ">
<polygon fill="none" stroke="black" points="87.8955,-195 87.8955,-309 178.104,-309 178.104,-195 87.8955,-195"/>
<text text-anchor="middle" x="133" y="-297" font-family="Helvetica,sans-Serif" font-size="10.00">hal::Pin</text>
<polyline fill="none" stroke="black" points="87.8955,-291 178.104,-291 "/>
<text text-anchor="middle" x="133" y="-279" font-family="Helvetica,sans-Serif" font-size="10.00"> </text>
<polyline fill="none" stroke="black" points="87.8955,-273 178.104,-273 "/>
<text text-anchor="start" x="95.8955" y="-261" font-family="Helvetica,sans-Serif" font-size="10.00">+ Pin()</text>
<text text-anchor="start" x="95.8955" y="-251" font-family="Helvetica,sans-Serif" font-size="10.00">+ Pin()</text>
<text text-anchor="start" x="95.8955" y="-241" font-family="Helvetica,sans-Serif" font-size="10.00">+ clear()</text>
<text text-anchor="start" x="95.8955" y="-231" font-family="Helvetica,sans-Serif" font-size="10.00">+ get_value()</text>
<text text-anchor="start" x="95.8955" y="-221" font-family="Helvetica,sans-Serif" font-size="10.00">+ init()</text>
<text text-anchor="start" x="95.8955" y="-211" font-family="Helvetica,sans-Serif" font-size="10.00">+ operator bool()</text>
<text text-anchor="start" x="95.8955" y="-201" font-family="Helvetica,sans-Serif" font-size="10.00">and 7 more...</text>
</a>
</g>
</g>
<!-- Node6&#45;&gt;Node1 -->
<g id="edge5" class="edge"><title>Node6&#45;&gt;Node1</title>
<path fill="none" stroke="midnightblue" d="M113.825,-185.039C110.981,-175.255 108.031,-165.105 105.132,-155.134"/>
<polygon fill="none" stroke="midnightblue" points="110.476,-186.055 116.628,-194.681 117.198,-184.101 110.476,-186.055"/>
</g>
<!-- Node7 -->
<g id="node7" class="node"><title>Node7</title>
<g id="a_node7"><a xlink:href="classhal_1_1_pio.html" target="_top" xlink:title="Pin Input/Output Class. ">
<polygon fill="none" stroke="black" points="94.7969,-349 94.7969,-473 177.203,-473 177.203,-349 94.7969,-349"/>
<text text-anchor="middle" x="136" y="-461" font-family="Helvetica,sans-Serif" font-size="10.00">hal::Pio</text>
<polyline fill="none" stroke="black" points="94.7969,-455 177.203,-455 "/>
<text text-anchor="middle" x="136" y="-443" font-family="Helvetica,sans-Serif" font-size="10.00"> </text>
<polyline fill="none" stroke="black" points="94.7969,-437 177.203,-437 "/>
<text text-anchor="start" x="102.797" y="-425" font-family="Helvetica,sans-Serif" font-size="10.00">+ Pio()</text>
<text text-anchor="start" x="102.797" y="-415" font-family="Helvetica,sans-Serif" font-size="10.00">+ assign()</text>
<text text-anchor="start" x="102.797" y="-405" font-family="Helvetica,sans-Serif" font-size="10.00">+ clear_mask()</text>
<text text-anchor="start" x="102.797" y="-395" font-family="Helvetica,sans-Serif" font-size="10.00">+ get_value()</text>
<text text-anchor="start" x="102.797" y="-385" font-family="Helvetica,sans-Serif" font-size="10.00">+ init()</text>
<text text-anchor="start" x="102.797" y="-375" font-family="Helvetica,sans-Serif" font-size="10.00">+ set_attr()</text>
<text text-anchor="start" x="102.797" y="-365" font-family="Helvetica,sans-Serif" font-size="10.00">+ set_mask()</text>
<text text-anchor="start" x="102.797" y="-355" font-family="Helvetica,sans-Serif" font-size="10.00">+ set_value()</text>
</a>
</g>
</g>
<!-- Node7&#45;&gt;Node6 -->
<g id="edge6" class="edge"><title>Node7&#45;&gt;Node6</title>
<path fill="none" stroke="midnightblue" d="M134.636,-338.62C134.447,-328.724 134.255,-318.676 134.072,-309.113"/>
<polygon fill="none" stroke="midnightblue" points="131.141,-338.919 134.832,-348.85 138.14,-338.785 131.141,-338.919"/>
</g>
<!-- Node8 -->
<g id="node8" class="node"><title>Node8</title>
<g id="a_node8"><a xlink:href="classhal_1_1_periph.html" target="_top" xlink:title="{hal::Periph\&lt; pio_info\l_t, pio_attr_t, &#39;p&#39;\&gt;\n||+ Periph()\l+ get_info()\l+ get_version()\l+ init()\l+ port()\l+ set_action()\land 4 more...\l# get_channel()\l# set_channel()\l# set_channel()\l}">
<polygon fill="none" stroke="black" points="87.2725,-513 87.2725,-667 194.728,-667 194.728,-513 87.2725,-513"/>
<text text-anchor="start" x="95.2725" y="-655" font-family="Helvetica,sans-Serif" font-size="10.00">hal::Periph&lt; pio_info</text>
<text text-anchor="middle" x="141" y="-645" font-family="Helvetica,sans-Serif" font-size="10.00">_t, pio_attr_t, &#39;p&#39;&gt;</text>
<polyline fill="none" stroke="black" points="87.2725,-639 194.728,-639 "/>
<text text-anchor="middle" x="141" y="-627" font-family="Helvetica,sans-Serif" font-size="10.00"> </text>
<polyline fill="none" stroke="black" points="87.2725,-621 194.728,-621 "/>
<text text-anchor="start" x="95.2725" y="-609" font-family="Helvetica,sans-Serif" font-size="10.00">+ Periph()</text>
<text text-anchor="start" x="95.2725" y="-599" font-family="Helvetica,sans-Serif" font-size="10.00">+ get_info()</text>
<text text-anchor="start" x="95.2725" y="-589" font-family="Helvetica,sans-Serif" font-size="10.00">+ get_version()</text>
<text text-anchor="start" x="95.2725" y="-579" font-family="Helvetica,sans-Serif" font-size="10.00">+ init()</text>
<text text-anchor="start" x="95.2725" y="-569" font-family="Helvetica,sans-Serif" font-size="10.00">+ port()</text>
<text text-anchor="start" x="95.2725" y="-559" font-family="Helvetica,sans-Serif" font-size="10.00">+ set_action()</text>
<text text-anchor="start" x="95.2725" y="-549" font-family="Helvetica,sans-Serif" font-size="10.00">and 4 more...</text>
<text text-anchor="start" x="95.2725" y="-539" font-family="Helvetica,sans-Serif" font-size="10.00"># get_channel()</text>
<text text-anchor="start" x="95.2725" y="-529" font-family="Helvetica,sans-Serif" font-size="10.00"># set_channel()</text>
<text text-anchor="start" x="95.2725" y="-519" font-family="Helvetica,sans-Serif" font-size="10.00"># set_channel()</text>
</a>
</g>
</g>
<!-- Node8&#45;&gt;Node7 -->
<g id="edge7" class="edge"><title>Node8&#45;&gt;Node7</title>
<path fill="none" stroke="midnightblue" d="M138.567,-502.878C138.283,-492.814 137.997,-482.709 137.726,-473.084"/>
<polygon fill="none" stroke="midnightblue" points="135.069,-503.012 138.851,-512.909 142.067,-502.814 135.069,-503.012"/>
</g>
<!-- Node9 -->
<g id="node9" class="node"><title>Node9</title>
<g id="a_node9"><a xlink:href="classhal_1_1_periph_object.html" target="_top" xlink:title="Periph Object Class. ">
<polygon fill="none" stroke="black" points="94.6455,-919 94.6455,-1083 187.354,-1083 187.354,-919 94.6455,-919"/>
<text text-anchor="middle" x="141" y="-1071" font-family="Helvetica,sans-Serif" font-size="10.00">hal::PeriphObject</text>
<polyline fill="none" stroke="black" points="94.6455,-1065 187.354,-1065 "/>
<text text-anchor="start" x="102.646" y="-1053" font-family="Helvetica,sans-Serif" font-size="10.00"># m_periph_port</text>
<polyline fill="none" stroke="black" points="94.6455,-1047 187.354,-1047 "/>
<text text-anchor="start" x="102.646" y="-1035" font-family="Helvetica,sans-Serif" font-size="10.00">+ close()</text>
<text text-anchor="start" x="102.646" y="-1025" font-family="Helvetica,sans-Serif" font-size="10.00">+ fileno()</text>
<text text-anchor="start" x="102.646" y="-1015" font-family="Helvetica,sans-Serif" font-size="10.00">+ ioctl()</text>
<text text-anchor="start" x="102.646" y="-1005" font-family="Helvetica,sans-Serif" font-size="10.00">+ open()</text>
<text text-anchor="start" x="102.646" y="-995" font-family="Helvetica,sans-Serif" font-size="10.00">+ read()</text>
<text text-anchor="start" x="102.646" y="-985" font-family="Helvetica,sans-Serif" font-size="10.00">+ read()</text>
<text text-anchor="start" x="102.646" y="-975" font-family="Helvetica,sans-Serif" font-size="10.00">+ seek()</text>
<text text-anchor="start" x="102.646" y="-965" font-family="Helvetica,sans-Serif" font-size="10.00">+ write()</text>
<text text-anchor="start" x="102.646" y="-955" font-family="Helvetica,sans-Serif" font-size="10.00">+ write()</text>
<text text-anchor="start" x="102.646" y="-945" font-family="Helvetica,sans-Serif" font-size="10.00"># lookup_fileno()</text>
<text text-anchor="start" x="102.646" y="-935" font-family="Helvetica,sans-Serif" font-size="10.00"># open()</text>
<text text-anchor="start" x="102.646" y="-925" font-family="Helvetica,sans-Serif" font-size="10.00"># update_fileno()</text>
</a>
</g>
</g>
<!-- Node9&#45;&gt;Node8 -->
<g id="edge8" class="edge"><title>Node9&#45;&gt;Node8</title>
<path fill="none" stroke="midnightblue" d="M140.161,-908.863C140.095,-899.12 140.039,-889.355 140,-880 139.711,-810.667 139.739,-793.333 140,-724 140.069,-705.643 140.192,-685.861 140.328,-667.309"/>
<polygon fill="none" stroke="midnightblue" points="136.662,-909.016 140.233,-918.991 143.662,-908.967 136.662,-909.016"/>
</g>
<!-- Node14 -->
<g id="node14" class="node"><title>Node14</title>
<g id="a_node14"><a xlink:href="classhal_1_1_periph.html" target="_top" xlink:title="Peripheral Class. ">
<polygon fill="none" stroke="black" points="148.78,-725 148.78,-879 251.22,-879 251.22,-725 148.78,-725"/>
<text text-anchor="start" x="156.78" y="-867" font-family="Helvetica,sans-Serif" font-size="10.00">hal::Periph&lt; info_t,</text>
<text text-anchor="middle" x="200" y="-857" font-family="Helvetica,sans-Serif" font-size="10.00"> attr_t, ident_char &gt;</text>
<polyline fill="none" stroke="black" points="148.78,-851 251.22,-851 "/>
<text text-anchor="middle" x="200" y="-839" font-family="Helvetica,sans-Serif" font-size="10.00"> </text>
<polyline fill="none" stroke="black" points="148.78,-833 251.22,-833 "/>
<text text-anchor="start" x="156.78" y="-821" font-family="Helvetica,sans-Serif" font-size="10.00">+ Periph()</text>
<text text-anchor="start" x="156.78" y="-811" font-family="Helvetica,sans-Serif" font-size="10.00">+ get_info()</text>
<text text-anchor="start" x="156.78" y="-801" font-family="Helvetica,sans-Serif" font-size="10.00">+ get_version()</text>
<text text-anchor="start" x="156.78" y="-791" font-family="Helvetica,sans-Serif" font-size="10.00">+ init()</text>
<text text-anchor="start" x="156.78" y="-781" font-family="Helvetica,sans-Serif" font-size="10.00">+ port()</text>
<text text-anchor="start" x="156.78" y="-771" font-family="Helvetica,sans-Serif" font-size="10.00">+ set_action()</text>
<text text-anchor="start" x="156.78" y="-761" font-family="Helvetica,sans-Serif" font-size="10.00">and 4 more...</text>
<text text-anchor="start" x="156.78" y="-751" font-family="Helvetica,sans-Serif" font-size="10.00"># get_channel()</text>
<text text-anchor="start" x="156.78" y="-741" font-family="Helvetica,sans-Serif" font-size="10.00"># set_channel()</text>
<text text-anchor="start" x="156.78" y="-731" font-family="Helvetica,sans-Serif" font-size="10.00"># set_channel()</text>
</a>
</g>
</g>
<!-- Node9&#45;&gt;Node14 -->
<g id="edge15" class="edge"><title>Node9&#45;&gt;Node14</title>
<path fill="none" stroke="midnightblue" d="M168.216,-909.126C171.232,-899.055 174.281,-888.876 177.234,-879.016"/>
<polygon fill="none" stroke="midnightblue" points="164.854,-908.151 165.338,-918.735 171.56,-910.16 164.854,-908.151"/>
</g>
<!-- Node10 -->
<g id="node10" class="node"><title>Node10</title>
<g id="a_node10"><a xlink:href="classhal_1_1_device.html" target="_top" xlink:title="Device Class. ">
<polygon fill="none" stroke="black" points="86.7231,-1123 86.7231,-1207 195.277,-1207 195.277,-1123 86.7231,-1123"/>
<text text-anchor="middle" x="141" y="-1195" font-family="Helvetica,sans-Serif" font-size="10.00">hal::Device</text>
<polyline fill="none" stroke="black" points="86.7231,-1189 195.277,-1189 "/>
<text text-anchor="middle" x="141" y="-1177" font-family="Helvetica,sans-Serif" font-size="10.00"> </text>
<polyline fill="none" stroke="black" points="86.7231,-1171 195.277,-1171 "/>
<text text-anchor="start" x="94.7231" y="-1159" font-family="Helvetica,sans-Serif" font-size="10.00">+ Device()</text>
<text text-anchor="start" x="94.7231" y="-1149" font-family="Helvetica,sans-Serif" font-size="10.00">+ read()</text>
<text text-anchor="start" x="94.7231" y="-1139" font-family="Helvetica,sans-Serif" font-size="10.00">+ set_signal_action()</text>
<text text-anchor="start" x="94.7231" y="-1129" font-family="Helvetica,sans-Serif" font-size="10.00">+ write()</text>
</a>
</g>
</g>
<!-- Node10&#45;&gt;Node9 -->
<g id="edge9" class="edge"><title>Node10&#45;&gt;Node9</title>
<path fill="none" stroke="midnightblue" d="M141,-1112.46C141,-1103.14 141,-1093.21 141,-1083.28"/>
<polygon fill="none" stroke="midnightblue" points="137.5,-1112.7 141,-1122.7 144.5,-1112.7 137.5,-1112.7"/>
</g>
<!-- Node11 -->
<g id="node11" class="node"><title>Node11</title>
<g id="a_node11"><a xlink:href="classapi_1_1_hal_work_object.html" target="_top" xlink:title="Hal Work Object. ">
<polygon fill="none" stroke="black" points="89.019,-1247 89.019,-1301 190.981,-1301 190.981,-1247 89.019,-1247"/>
<text text-anchor="middle" x="140" y="-1289" font-family="Helvetica,sans-Serif" font-size="10.00">api::HalWorkObject</text>
<polyline fill="none" stroke="black" points="89.019,-1283 190.981,-1283 "/>
<text text-anchor="middle" x="140" y="-1271" font-family="Helvetica,sans-Serif" font-size="10.00"> </text>
<polyline fill="none" stroke="black" points="89.019,-1265 190.981,-1265 "/>
<text text-anchor="middle" x="140" y="-1253" font-family="Helvetica,sans-Serif" font-size="10.00"> </text>
</a>
</g>
</g>
<!-- Node11&#45;&gt;Node10 -->
<g id="edge10" class="edge"><title>Node11&#45;&gt;Node10</title>
<path fill="none" stroke="midnightblue" d="M140.34,-1236.6C140.428,-1227.19 140.524,-1216.98 140.614,-1207.33"/>
<polygon fill="none" stroke="midnightblue" points="136.838,-1236.79 140.245,-1246.82 143.838,-1236.86 136.838,-1236.79"/>
</g>
<!-- Node12 -->
<g id="node12" class="node"><title>Node12</title>
<g id="a_node12"><a xlink:href="classsys_1_1_file.html" target="_top" xlink:title="File Class. ">
<polygon fill="none" stroke="black" points="99.7588,-1475 99.7588,-1689 180.241,-1689 180.241,-1475 99.7588,-1475"/>
<text text-anchor="middle" x="140" y="-1677" font-family="Helvetica,sans-Serif" font-size="10.00">sys::File</text>
<polyline fill="none" stroke="black" points="99.7588,-1671 180.241,-1671 "/>
<text text-anchor="start" x="107.759" y="-1659" font-family="Helvetica,sans-Serif" font-size="10.00"># m_fd</text>
<polyline fill="none" stroke="black" points="99.7588,-1653 180.241,-1653 "/>
<text text-anchor="start" x="107.759" y="-1641" font-family="Helvetica,sans-Serif" font-size="10.00">+ File()</text>
<text text-anchor="start" x="107.759" y="-1631" font-family="Helvetica,sans-Serif" font-size="10.00">+ close()</text>
<text text-anchor="start" x="107.759" y="-1621" font-family="Helvetica,sans-Serif" font-size="10.00">+ create()</text>
<text text-anchor="start" x="107.759" y="-1611" font-family="Helvetica,sans-Serif" font-size="10.00">+ fileno()</text>
<text text-anchor="start" x="107.759" y="-1601" font-family="Helvetica,sans-Serif" font-size="10.00">+ flags()</text>
<text text-anchor="start" x="107.759" y="-1591" font-family="Helvetica,sans-Serif" font-size="10.00">+ gets()</text>
<text text-anchor="start" x="107.759" y="-1581" font-family="Helvetica,sans-Serif" font-size="10.00">and 22 more...</text>
<text text-anchor="start" x="107.759" y="-1571" font-family="Helvetica,sans-Serif" font-size="10.00">+ access()</text>
<text text-anchor="start" x="107.759" y="-1561" font-family="Helvetica,sans-Serif" font-size="10.00">+ copy()</text>
<text text-anchor="start" x="107.759" y="-1551" font-family="Helvetica,sans-Serif" font-size="10.00">+ exists()</text>
<text text-anchor="start" x="107.759" y="-1541" font-family="Helvetica,sans-Serif" font-size="10.00">+ name()</text>
<text text-anchor="start" x="107.759" y="-1531" font-family="Helvetica,sans-Serif" font-size="10.00">+ remove()</text>
<text text-anchor="start" x="107.759" y="-1521" font-family="Helvetica,sans-Serif" font-size="10.00">+ rename()</text>
<text text-anchor="start" x="107.759" y="-1511" font-family="Helvetica,sans-Serif" font-size="10.00">+ size()</text>
<text text-anchor="start" x="107.759" y="-1501" font-family="Helvetica,sans-Serif" font-size="10.00">+ stat()</text>
<text text-anchor="start" x="107.759" y="-1491" font-family="Helvetica,sans-Serif" font-size="10.00">+ suffix()</text>
<text text-anchor="start" x="107.759" y="-1481" font-family="Helvetica,sans-Serif" font-size="10.00"># copy()</text>
</a>
</g>
</g>
<!-- Node12&#45;&gt;Node11 -->
<g id="edge11" class="edge"><title>Node12&#45;&gt;Node11</title>
<path fill="none" stroke="midnightblue" d="M140,-1464.57C140,-1404.95 140,-1337.46 140,-1301.27"/>
<polygon fill="none" stroke="midnightblue" points="136.5,-1464.83 140,-1474.83 143.5,-1464.83 136.5,-1464.83"/>
</g>
<!-- Node13&#45;&gt;Node12 -->
<g id="edge12" class="edge"><title>Node13&#45;&gt;Node12</title>
<path fill="none" stroke="midnightblue" d="M140,-1772.43C140,-1749.64 140,-1719.05 140,-1689.1"/>
<polygon fill="none" stroke="midnightblue" points="136.5,-1772.63 140,-1782.63 143.5,-1772.63 136.5,-1772.63"/>
</g>
<!-- Node14&#45;&gt;Node8 -->
<g id="edge14" class="edge"><title>Node14&#45;&gt;Node8</title>
<path fill="none" stroke="orange" d="M175.866,-715.1C171.408,-699.231 166.78,-682.761 162.41,-667.205"/>
<polygon fill="orange" stroke="orange" points="172.542,-716.208 178.616,-724.888 179.281,-714.314 172.542,-716.208"/>
<text text-anchor="start" x="172" y="-698" font-family="Helvetica,sans-Serif" font-size="10.00"> &lt; pio_info_t, pio_attr</text>
<text text-anchor="middle" x="218.838" y="-688" font-family="Helvetica,sans-Serif" font-size="10.00">_t, &#39;p&#39;&gt;</text>
</g>
</g>
</svg>
