<?xml version="1.0" encoding="UTF-8" standalone="no"?>
<!DOCTYPE svg PUBLIC "-//W3C//DTD SVG 1.1//EN"
 "http://www.w3.org/Graphics/SVG/1.1/DTD/svg11.dtd">
<!-- Generated by graphviz version 2.36.0 (20140111.2315)
 -->
<!-- Title: var::Vector&lt; T &gt; Pages: 1 -->
<svg width="948pt" height="1044pt"
 viewBox="0.00 0.00 948.00 1044.00" xmlns="http://www.w3.org/2000/svg" xmlns:xlink="http://www.w3.org/1999/xlink">
<g id="graph0" class="graph" transform="scale(1 1) rotate(0) translate(4 1040)">
<title>var::Vector&lt; T &gt;</title>
<!-- Node1 -->
<g id="node1" class="node"><title>Node1</title>
<polygon fill="#bfbfbf" stroke="black" points="550.602,-355 550.602,-479 637.398,-479 637.398,-355 550.602,-355"/>
<text text-anchor="middle" x="594" y="-467" font-family="Helvetica,sans-Serif" font-size="10.00">var::Vector&lt; T &gt;</text>
<polyline fill="none" stroke="black" points="550.602,-461 637.398,-461 "/>
<text text-anchor="middle" x="594" y="-449" font-family="Helvetica,sans-Serif" font-size="10.00"> </text>
<polyline fill="none" stroke="black" points="550.602,-443 637.398,-443 "/>
<text text-anchor="start" x="558.602" y="-431" font-family="Helvetica,sans-Serif" font-size="10.00">+ Vector()</text>
<text text-anchor="start" x="558.602" y="-421" font-family="Helvetica,sans-Serif" font-size="10.00">+ Vector()</text>
<text text-anchor="start" x="558.602" y="-411" font-family="Helvetica,sans-Serif" font-size="10.00">+ at()</text>
<text text-anchor="start" x="558.602" y="-401" font-family="Helvetica,sans-Serif" font-size="10.00">+ at()</text>
<text text-anchor="start" x="558.602" y="-391" font-family="Helvetica,sans-Serif" font-size="10.00">+ capacity()</text>
<text text-anchor="start" x="558.602" y="-381" font-family="Helvetica,sans-Serif" font-size="10.00">+ clear()</text>
<text text-anchor="start" x="558.602" y="-371" font-family="Helvetica,sans-Serif" font-size="10.00">and 13 more...</text>
<text text-anchor="start" x="558.602" y="-361" font-family="Helvetica,sans-Serif" font-size="10.00"># compare()</text>
</g>
<!-- Node6 -->
<g id="node6" class="node"><title>Node6</title>
<g id="a_node6"><a xlink:href="classdsp_1_1_signal_data.html" target="_top" xlink:title="Signal Data Template. ">
<polygon fill="none" stroke="black" points="289.203,-188 289.203,-302 398.797,-302 398.797,-188 289.203,-188"/>
<text text-anchor="middle" x="344" y="-290" font-family="Helvetica,sans-Serif" font-size="10.00">dsp::SignalData&lt; T &gt;</text>
<polyline fill="none" stroke="black" points="289.203,-284 398.797,-284 "/>
<text text-anchor="middle" x="344" y="-272" font-family="Helvetica,sans-Serif" font-size="10.00"> </text>
<polyline fill="none" stroke="black" points="289.203,-266 398.797,-266 "/>
<text text-anchor="start" x="297.203" y="-254" font-family="Helvetica,sans-Serif" font-size="10.00">+ SignalData()</text>
<text text-anchor="start" x="297.203" y="-244" font-family="Helvetica,sans-Serif" font-size="10.00">+ SignalData()</text>
<text text-anchor="start" x="297.203" y="-234" font-family="Helvetica,sans-Serif" font-size="10.00">+ abs()</text>
<text text-anchor="start" x="297.203" y="-224" font-family="Helvetica,sans-Serif" font-size="10.00">+ abs()</text>
<text text-anchor="start" x="297.203" y="-214" font-family="Helvetica,sans-Serif" font-size="10.00">+ add()</text>
<text text-anchor="start" x="297.203" y="-204" font-family="Helvetica,sans-Serif" font-size="10.00">+ add()</text>
<text text-anchor="start" x="297.203" y="-194" font-family="Helvetica,sans-Serif" font-size="10.00">and 49 more...</text>
</a>
</g>
</g>
<!-- Node1&#45;&gt;Node6 -->
<g id="edge5" class="edge"><title>Node1&#45;&gt;Node6</title>
<path fill="none" stroke="midnightblue" d="M541.438,-389.904C502.965,-369.771 450.314,-340.02 408,-308 405.039,-305.76 402.071,-303.394 399.123,-300.947"/>
<polygon fill="none" stroke="midnightblue" points="539.917,-393.058 550.405,-394.558 543.141,-386.845 539.917,-393.058"/>
</g>
<!-- Node13 -->
<g id="node13" class="node"><title>Node13</title>
<g id="a_node13"><a xlink:href="classvar_1_1_vector.html" target="_top" xlink:title="{var::Vector\&lt; q31_t \&gt;\n||+ Vector()\l+ Vector()\l+ at()\l+ at()\l+ capacity()\l+ clear()\land 13 more...\l# compare()\l}">
<polygon fill="none" stroke="black" points="416.968,-183 416.968,-307 523.032,-307 523.032,-183 416.968,-183"/>
<text text-anchor="middle" x="470" y="-295" font-family="Helvetica,sans-Serif" font-size="10.00">var::Vector&lt; q31_t &gt;</text>
<polyline fill="none" stroke="black" points="416.968,-289 523.032,-289 "/>
<text text-anchor="middle" x="470" y="-277" font-family="Helvetica,sans-Serif" font-size="10.00"> </text>
<polyline fill="none" stroke="black" points="416.968,-271 523.032,-271 "/>
<text text-anchor="start" x="424.968" y="-259" font-family="Helvetica,sans-Serif" font-size="10.00">+ Vector()</text>
<text text-anchor="start" x="424.968" y="-249" font-family="Helvetica,sans-Serif" font-size="10.00">+ Vector()</text>
<text text-anchor="start" x="424.968" y="-239" font-family="Helvetica,sans-Serif" font-size="10.00">+ at()</text>
<text text-anchor="start" x="424.968" y="-229" font-family="Helvetica,sans-Serif" font-size="10.00">+ at()</text>
<text text-anchor="start" x="424.968" y="-219" font-family="Helvetica,sans-Serif" font-size="10.00">+ capacity()</text>
<text text-anchor="start" x="424.968" y="-209" font-family="Helvetica,sans-Serif" font-size="10.00">+ clear()</text>
<text text-anchor="start" x="424.968" y="-199" font-family="Helvetica,sans-Serif" font-size="10.00">and 13 more...</text>
<text text-anchor="start" x="424.968" y="-189" font-family="Helvetica,sans-Serif" font-size="10.00"># compare()</text>
</a>
</g>
</g>
<!-- Node1&#45;&gt;Node13 -->
<g id="edge12" class="edge"><title>Node1&#45;&gt;Node13</title>
<path fill="none" stroke="orange" d="M544.241,-347.781C534.434,-334.337 524.202,-320.309 514.579,-307.117"/>
<polygon fill="orange" stroke="orange" points="541.561,-350.048 550.282,-356.064 547.217,-345.923 541.561,-350.048"/>
<text text-anchor="middle" x="554.52" y="-328" font-family="Helvetica,sans-Serif" font-size="10.00"> &lt; q31_t &gt;</text>
</g>
<!-- Node14 -->
<g id="node14" class="node"><title>Node14</title>
<g id="a_node14"><a xlink:href="classvar_1_1_vector.html" target="_top" xlink:title="{var::Vector\&lt; q15_t \&gt;\n||+ Vector()\l+ Vector()\l+ at()\l+ at()\l+ capacity()\l+ clear()\land 13 more...\l# compare()\l}">
<polygon fill="none" stroke="black" points="540.968,-183 540.968,-307 647.032,-307 647.032,-183 540.968,-183"/>
<text text-anchor="middle" x="594" y="-295" font-family="Helvetica,sans-Serif" font-size="10.00">var::Vector&lt; q15_t &gt;</text>
<polyline fill="none" stroke="black" points="540.968,-289 647.032,-289 "/>
<text text-anchor="middle" x="594" y="-277" font-family="Helvetica,sans-Serif" font-size="10.00"> </text>
<polyline fill="none" stroke="black" points="540.968,-271 647.032,-271 "/>
<text text-anchor="start" x="548.968" y="-259" font-family="Helvetica,sans-Serif" font-size="10.00">+ Vector()</text>
<text text-anchor="start" x="548.968" y="-249" font-family="Helvetica,sans-Serif" font-size="10.00">+ Vector()</text>
<text text-anchor="start" x="548.968" y="-239" font-family="Helvetica,sans-Serif" font-size="10.00">+ at()</text>
<text text-anchor="start" x="548.968" y="-229" font-family="Helvetica,sans-Serif" font-size="10.00">+ at()</text>
<text text-anchor="start" x="548.968" y="-219" font-family="Helvetica,sans-Serif" font-size="10.00">+ capacity()</text>
<text text-anchor="start" x="548.968" y="-209" font-family="Helvetica,sans-Serif" font-size="10.00">+ clear()</text>
<text text-anchor="start" x="548.968" y="-199" font-family="Helvetica,sans-Serif" font-size="10.00">and 13 more...</text>
<text text-anchor="start" x="548.968" y="-189" font-family="Helvetica,sans-Serif" font-size="10.00"># compare()</text>
</a>
</g>
</g>
<!-- Node1&#45;&gt;Node14 -->
<g id="edge13" class="edge"><title>Node1&#45;&gt;Node14</title>
<path fill="none" stroke="orange" d="M594,-344.377C594,-332.04 594,-319.317 594,-307.284"/>
<polygon fill="orange" stroke="orange" points="590.5,-344.626 594,-354.626 597.5,-344.626 590.5,-344.626"/>
<text text-anchor="middle" x="616.52" y="-328" font-family="Helvetica,sans-Serif" font-size="10.00"> &lt; q15_t &gt;</text>
</g>
<!-- Node15 -->
<g id="node15" class="node"><title>Node15</title>
<g id="a_node15"><a xlink:href="classvar_1_1_vector.html" target="_top" xlink:title="{var::Vector\&lt; float32_t \&gt;\n||+ Vector()\l+ Vector()\l+ at()\l+ at()\l+ capacity()\l+ clear()\land 13 more...\l# compare()\l}">
<polygon fill="none" stroke="black" points="665.298,-183 665.298,-307 784.702,-307 784.702,-183 665.298,-183"/>
<text text-anchor="middle" x="725" y="-295" font-family="Helvetica,sans-Serif" font-size="10.00">var::Vector&lt; float32_t &gt;</text>
<polyline fill="none" stroke="black" points="665.298,-289 784.702,-289 "/>
<text text-anchor="middle" x="725" y="-277" font-family="Helvetica,sans-Serif" font-size="10.00"> </text>
<polyline fill="none" stroke="black" points="665.298,-271 784.702,-271 "/>
<text text-anchor="start" x="673.298" y="-259" font-family="Helvetica,sans-Serif" font-size="10.00">+ Vector()</text>
<text text-anchor="start" x="673.298" y="-249" font-family="Helvetica,sans-Serif" font-size="10.00">+ Vector()</text>
<text text-anchor="start" x="673.298" y="-239" font-family="Helvetica,sans-Serif" font-size="10.00">+ at()</text>
<text text-anchor="start" x="673.298" y="-229" font-family="Helvetica,sans-Serif" font-size="10.00">+ at()</text>
<text text-anchor="start" x="673.298" y="-219" font-family="Helvetica,sans-Serif" font-size="10.00">+ capacity()</text>
<text text-anchor="start" x="673.298" y="-209" font-family="Helvetica,sans-Serif" font-size="10.00">+ clear()</text>
<text text-anchor="start" x="673.298" y="-199" font-family="Helvetica,sans-Serif" font-size="10.00">and 13 more...</text>
<text text-anchor="start" x="673.298" y="-189" font-family="Helvetica,sans-Serif" font-size="10.00"># compare()</text>
</a>
</g>
</g>
<!-- Node1&#45;&gt;Node15 -->
<g id="edge14" class="edge"><title>Node1&#45;&gt;Node15</title>
<path fill="none" stroke="orange" d="M643.777,-351.404C654.995,-336.846 666.868,-321.439 677.969,-307.032"/>
<polygon fill="orange" stroke="orange" points="640.953,-349.335 637.621,-359.392 646.497,-353.608 640.953,-349.335"/>
<text text-anchor="middle" x="689.189" y="-328" font-family="Helvetica,sans-Serif" font-size="10.00"> &lt; float32_t &gt;</text>
</g>
<!-- Node16 -->
<g id="node16" class="node"><title>Node16</title>
<g id="a_node16"><a xlink:href="classvar_1_1_vector.html" target="_top" xlink:title="{var::Vector\&lt; ComplexF32 \&gt;\n||+ Vector()\l+ Vector()\l+ at()\l+ at()\l+ capacity()\l+ clear()\land 13 more...\l# compare()\l}">
<polygon fill="none" stroke="black" points="803.136,-183 803.136,-307 940.864,-307 940.864,-183 803.136,-183"/>
<text text-anchor="middle" x="872" y="-295" font-family="Helvetica,sans-Serif" font-size="10.00">var::Vector&lt; ComplexF32 &gt;</text>
<polyline fill="none" stroke="black" points="803.136,-289 940.864,-289 "/>
<text text-anchor="middle" x="872" y="-277" font-family="Helvetica,sans-Serif" font-size="10.00"> </text>
<polyline fill="none" stroke="black" points="803.136,-271 940.864,-271 "/>
<text text-anchor="start" x="811.136" y="-259" font-family="Helvetica,sans-Serif" font-size="10.00">+ Vector()</text>
<text text-anchor="start" x="811.136" y="-249" font-family="Helvetica,sans-Serif" font-size="10.00">+ Vector()</text>
<text text-anchor="start" x="811.136" y="-239" font-family="Helvetica,sans-Serif" font-size="10.00">+ at()</text>
<text text-anchor="start" x="811.136" y="-229" font-family="Helvetica,sans-Serif" font-size="10.00">+ at()</text>
<text text-anchor="start" x="811.136" y="-219" font-family="Helvetica,sans-Serif" font-size="10.00">+ capacity()</text>
<text text-anchor="start" x="811.136" y="-209" font-family="Helvetica,sans-Serif" font-size="10.00">+ clear()</text>
<text text-anchor="start" x="811.136" y="-199" font-family="Helvetica,sans-Serif" font-size="10.00">and 13 more...</text>
<text text-anchor="start" x="811.136" y="-189" font-family="Helvetica,sans-Serif" font-size="10.00"># compare()</text>
</a>
</g>
</g>
<!-- Node1&#45;&gt;Node16 -->
<g id="edge15" class="edge"><title>Node1&#45;&gt;Node16</title>
<path fill="none" stroke="orange" d="M646.508,-390.558C687.455,-369.999 745.202,-339.406 793,-308 796.351,-305.798 799.738,-303.491 803.127,-301.116"/>
<polygon fill="orange" stroke="orange" points="644.901,-387.448 637.517,-395.047 648.028,-393.711 644.901,-387.448"/>
<text text-anchor="middle" x="800.352" y="-328" font-family="Helvetica,sans-Serif" font-size="10.00"> &lt; ComplexF32 &gt;</text>
</g>
<!-- Node2 -->
<g id="node2" class="node"><title>Node2</title>
<g id="a_node2"><a xlink:href="classvar_1_1_data.html" target="_top" xlink:title="Data storage class. ">
<polygon fill="none" stroke="black" points="546.41,-519 546.41,-663 641.59,-663 641.59,-519 546.41,-519"/>
<text text-anchor="middle" x="594" y="-651" font-family="Helvetica,sans-Serif" font-size="10.00">var::Data</text>
<polyline fill="none" stroke="black" points="546.41,-645 641.59,-645 "/>
<text text-anchor="middle" x="594" y="-633" font-family="Helvetica,sans-Serif" font-size="10.00"> </text>
<polyline fill="none" stroke="black" points="546.41,-627 641.59,-627 "/>
<text text-anchor="start" x="554.41" y="-615" font-family="Helvetica,sans-Serif" font-size="10.00">+ Data()</text>
<text text-anchor="start" x="554.41" y="-605" font-family="Helvetica,sans-Serif" font-size="10.00">+ Data()</text>
<text text-anchor="start" x="554.41" y="-595" font-family="Helvetica,sans-Serif" font-size="10.00">+ Data()</text>
<text text-anchor="start" x="554.41" y="-585" font-family="Helvetica,sans-Serif" font-size="10.00">+ Data()</text>
<text text-anchor="start" x="554.41" y="-575" font-family="Helvetica,sans-Serif" font-size="10.00">+ ~Data()</text>
<text text-anchor="start" x="554.41" y="-565" font-family="Helvetica,sans-Serif" font-size="10.00">+ alloc()</text>
<text text-anchor="start" x="554.41" y="-555" font-family="Helvetica,sans-Serif" font-size="10.00">and 20 more...</text>
<text text-anchor="start" x="554.41" y="-545" font-family="Helvetica,sans-Serif" font-size="10.00">+ block_size()</text>
<text text-anchor="start" x="554.41" y="-535" font-family="Helvetica,sans-Serif" font-size="10.00">+ minimum_size()</text>
<text text-anchor="start" x="554.41" y="-525" font-family="Helvetica,sans-Serif" font-size="10.00"># copy()</text>
</a>
</g>
</g>
<!-- Node2&#45;&gt;Node1 -->
<g id="edge1" class="edge"><title>Node2&#45;&gt;Node1</title>
<path fill="none" stroke="midnightblue" d="M594,-508.343C594,-498.5 594,-488.582 594,-479.104"/>
<polygon fill="none" stroke="midnightblue" points="590.5,-508.551 594,-518.551 597.5,-508.551 590.5,-508.551"/>
</g>
<!-- Node3 -->
<g id="node3" class="node"><title>Node3</title>
<g id="a_node3"><a xlink:href="classapi_1_1_var_work_object.html" target="_top" xlink:title="Var Work Object. ">
<polygon fill="none" stroke="black" points="543.109,-703 543.109,-757 644.891,-757 644.891,-703 543.109,-703"/>
<text text-anchor="middle" x="594" y="-745" font-family="Helvetica,sans-Serif" font-size="10.00">api::VarWorkObject</text>
<polyline fill="none" stroke="black" points="543.109,-739 644.891,-739 "/>
<text text-anchor="middle" x="594" y="-727" font-family="Helvetica,sans-Serif" font-size="10.00"> </text>
<polyline fill="none" stroke="black" points="543.109,-721 644.891,-721 "/>
<text text-anchor="middle" x="594" y="-709" font-family="Helvetica,sans-Serif" font-size="10.00"> </text>
</a>
</g>
</g>
<!-- Node3&#45;&gt;Node2 -->
<g id="edge2" class="edge"><title>Node3&#45;&gt;Node2</title>
<path fill="none" stroke="midnightblue" d="M594,-692.646C594,-683.468 594,-673.293 594,-663.043"/>
<polygon fill="none" stroke="midnightblue" points="590.5,-692.909 594,-702.909 597.5,-692.909 590.5,-692.909"/>
</g>
<!-- Node4 -->
<g id="node4" class="node"><title>Node4</title>
<g id="a_node4"><a xlink:href="classapi_1_1_work_object.html" target="_top" xlink:title="Work Object. ">
<polygon fill="none" stroke="black" points="522.914,-797 522.914,-941 665.086,-941 665.086,-797 522.914,-797"/>
<text text-anchor="middle" x="594" y="-929" font-family="Helvetica,sans-Serif" font-size="10.00">api::WorkObject</text>
<polyline fill="none" stroke="black" points="522.914,-923 665.086,-923 "/>
<text text-anchor="middle" x="594" y="-911" font-family="Helvetica,sans-Serif" font-size="10.00"> </text>
<polyline fill="none" stroke="black" points="522.914,-905 665.086,-905 "/>
<text text-anchor="start" x="530.914" y="-893" font-family="Helvetica,sans-Serif" font-size="10.00">+ WorkObject()</text>
<text text-anchor="start" x="530.914" y="-883" font-family="Helvetica,sans-Serif" font-size="10.00">+ clear_error_number()</text>
<text text-anchor="start" x="530.914" y="-873" font-family="Helvetica,sans-Serif" font-size="10.00">+ error_number()</text>
<text text-anchor="start" x="530.914" y="-863" font-family="Helvetica,sans-Serif" font-size="10.00">+ exit_fatal()</text>
<text text-anchor="start" x="530.914" y="-853" font-family="Helvetica,sans-Serif" font-size="10.00"># set_error_number()</text>
<text text-anchor="start" x="530.914" y="-843" font-family="Helvetica,sans-Serif" font-size="10.00"># set_error_number_if</text>
<text text-anchor="start" x="530.914" y="-833" font-family="Helvetica,sans-Serif" font-size="10.00">_error()</text>
<text text-anchor="start" x="530.914" y="-823" font-family="Helvetica,sans-Serif" font-size="10.00"># set_error_number_if_null()</text>
<text text-anchor="start" x="530.914" y="-813" font-family="Helvetica,sans-Serif" font-size="10.00"># set_error_number_to</text>
<text text-anchor="start" x="530.914" y="-803" font-family="Helvetica,sans-Serif" font-size="10.00">_errno()</text>
</a>
</g>
</g>
<!-- Node4&#45;&gt;Node3 -->
<g id="edge3" class="edge"><title>Node4&#45;&gt;Node3</title>
<path fill="none" stroke="midnightblue" d="M594,-786.456C594,-775.882 594,-765.739 594,-757.085"/>
<polygon fill="none" stroke="midnightblue" points="590.5,-786.691 594,-796.691 597.5,-786.691 590.5,-786.691"/>
</g>
<!-- Node5 -->
<g id="node5" class="node"><title>Node5</title>
<g id="a_node5"><a xlink:href="classapi_1_1_api_object.html" target="_top" xlink:title="Application Programming Interface Object. ">
<polygon fill="none" stroke="black" points="552.79,-981 552.79,-1035 635.21,-1035 635.21,-981 552.79,-981"/>
<text text-anchor="middle" x="594" y="-1023" font-family="Helvetica,sans-Serif" font-size="10.00">api::ApiObject</text>
<polyline fill="none" stroke="black" points="552.79,-1017 635.21,-1017 "/>
<text text-anchor="middle" x="594" y="-1005" font-family="Helvetica,sans-Serif" font-size="10.00"> </text>
<polyline fill="none" stroke="black" points="552.79,-999 635.21,-999 "/>
<text text-anchor="start" x="560.79" y="-987" font-family="Helvetica,sans-Serif" font-size="10.00">+ api_version()</text>
</a>
</g>
</g>
<!-- Node5&#45;&gt;Node4 -->
<g id="edge4" class="edge"><title>Node5&#45;&gt;Node4</title>
<path fill="none" stroke="midnightblue" d="M594,-970.646C594,-961.468 594,-951.293 594,-941.043"/>
<polygon fill="none" stroke="midnightblue" points="590.5,-970.909 594,-980.909 597.5,-970.909 590.5,-970.909"/>
</g>
<!-- Node7 -->
<g id="node7" class="node"><title>Node7</title>
<g id="a_node7"><a xlink:href="classdsp_1_1_signal_complex_q15.html" target="_top" xlink:title="Signal with Complex q1.15 data. ">
<polygon fill="none" stroke="black" points="-0.918457,-6 -0.918457,-130 122.918,-130 122.918,-6 -0.918457,-6"/>
<text text-anchor="start" x="7.08154" y="-118" font-family="Helvetica,sans-Serif" font-size="10.00">dsp::SignalComplexQ15</text>
<text text-anchor="middle" x="61" y="-108" font-family="Helvetica,sans-Serif" font-size="10.00">&lt; ComplexQ15, q63_t &gt;</text>
<polyline fill="none" stroke="black" points="-0.918457,-102 122.918,-102 "/>
<text text-anchor="middle" x="61" y="-90" font-family="Helvetica,sans-Serif" font-size="10.00"> </text>
<polyline fill="none" stroke="black" points="-0.918457,-84 122.918,-84 "/>
<text text-anchor="start" x="7.08154" y="-72" font-family="Helvetica,sans-Serif" font-size="10.00">+ SignalComplexQ15()</text>
<text text-anchor="start" x="7.08154" y="-62" font-family="Helvetica,sans-Serif" font-size="10.00">+ SignalComplexQ15()</text>
<text text-anchor="start" x="7.08154" y="-52" font-family="Helvetica,sans-Serif" font-size="10.00">+ SignalComplexQ15()</text>
<text text-anchor="start" x="7.08154" y="-42" font-family="Helvetica,sans-Serif" font-size="10.00">+ operator=()</text>
<text text-anchor="start" x="7.08154" y="-32" font-family="Helvetica,sans-Serif" font-size="10.00">+ transform()</text>
<text text-anchor="start" x="7.08154" y="-22" font-family="Helvetica,sans-Serif" font-size="10.00">+ transform()</text>
<text text-anchor="start" x="7.08154" y="-12" font-family="Helvetica,sans-Serif" font-size="10.00">+ transform()</text>
</a>
</g>
</g>
<!-- Node6&#45;&gt;Node7 -->
<g id="edge6" class="edge"><title>Node6&#45;&gt;Node7</title>
<path fill="none" stroke="midnightblue" d="M279.545,-216.993C236.073,-197.407 178.401,-168.693 132,-136 129.091,-133.95 126.181,-131.786 123.29,-129.539"/>
<polygon fill="none" stroke="midnightblue" points="278.317,-220.278 288.875,-221.155 281.168,-213.885 278.317,-220.278"/>
</g>
<!-- Node8 -->
<g id="node8" class="node"><title>Node8</title>
<g id="a_node8"><a xlink:href="classdsp_1_1_signal_complex_q31.html" target="_top" xlink:title="Signal with Complex q1.31 Data. ">
<polygon fill="none" stroke="black" points="141.082,-16 141.082,-120 264.918,-120 264.918,-16 141.082,-16"/>
<text text-anchor="start" x="149.082" y="-108" font-family="Helvetica,sans-Serif" font-size="10.00">dsp::SignalComplexQ31</text>
<text text-anchor="middle" x="203" y="-98" font-family="Helvetica,sans-Serif" font-size="10.00">&lt; ComplexQ31, q63_t &gt;</text>
<polyline fill="none" stroke="black" points="141.082,-92 264.918,-92 "/>
<text text-anchor="middle" x="203" y="-80" font-family="Helvetica,sans-Serif" font-size="10.00"> </text>
<polyline fill="none" stroke="black" points="141.082,-74 264.918,-74 "/>
<text text-anchor="start" x="149.082" y="-62" font-family="Helvetica,sans-Serif" font-size="10.00">+ SignalComplexQ31()</text>
<text text-anchor="start" x="149.082" y="-52" font-family="Helvetica,sans-Serif" font-size="10.00">+ SignalComplexQ31()</text>
<text text-anchor="start" x="149.082" y="-42" font-family="Helvetica,sans-Serif" font-size="10.00">+ transform()</text>
<text text-anchor="start" x="149.082" y="-32" font-family="Helvetica,sans-Serif" font-size="10.00">+ transform()</text>
<text text-anchor="start" x="149.082" y="-22" font-family="Helvetica,sans-Serif" font-size="10.00">+ transform()</text>
</a>
</g>
</g>
<!-- Node6&#45;&gt;Node8 -->
<g id="edge7" class="edge"><title>Node6&#45;&gt;Node8</title>
<path fill="none" stroke="midnightblue" d="M292.169,-179.671C276.378,-160.072 259.239,-138.801 244.247,-120.193"/>
<polygon fill="none" stroke="midnightblue" points="289.611,-182.075 298.611,-187.666 295.062,-177.683 289.611,-182.075"/>
</g>
<!-- Node9 -->
<g id="node9" class="node"><title>Node9</title>
<g id="a_node9"><a xlink:href="classdsp_1_1_signal_f32.html" target="_top" xlink:title="Signal with 32&#45;bit Floating Point values. ">
<polygon fill="none" stroke="black" points="283.324,-6 283.324,-130 404.676,-130 404.676,-6 283.324,-6"/>
<text text-anchor="start" x="291.324" y="-118" font-family="Helvetica,sans-Serif" font-size="10.00">dsp::SignalF32&lt; float32</text>
<text text-anchor="middle" x="344" y="-108" font-family="Helvetica,sans-Serif" font-size="10.00">_t, float32_t &gt;</text>
<polyline fill="none" stroke="black" points="283.324,-102 404.676,-102 "/>
<text text-anchor="middle" x="344" y="-90" font-family="Helvetica,sans-Serif" font-size="10.00"> </text>
<polyline fill="none" stroke="black" points="283.324,-84 404.676,-84 "/>
<text text-anchor="start" x="291.324" y="-72" font-family="Helvetica,sans-Serif" font-size="10.00">+ SignalF32()</text>
<text text-anchor="start" x="291.324" y="-62" font-family="Helvetica,sans-Serif" font-size="10.00">+ SignalF32()</text>
<text text-anchor="start" x="291.324" y="-52" font-family="Helvetica,sans-Serif" font-size="10.00">+ SignalF32()</text>
<text text-anchor="start" x="291.324" y="-42" font-family="Helvetica,sans-Serif" font-size="10.00">+ abs()</text>
<text text-anchor="start" x="291.324" y="-32" font-family="Helvetica,sans-Serif" font-size="10.00">+ abs()</text>
<text text-anchor="start" x="291.324" y="-22" font-family="Helvetica,sans-Serif" font-size="10.00">+ add()</text>
<text text-anchor="start" x="291.324" y="-12" font-family="Helvetica,sans-Serif" font-size="10.00">and 31 more...</text>
</a>
</g>
</g>
<!-- Node6&#45;&gt;Node9 -->
<g id="edge8" class="edge"><title>Node6&#45;&gt;Node9</title>
<path fill="none" stroke="midnightblue" d="M344,-177.573C344,-161.972 344,-145.421 344,-130.068"/>
<polygon fill="none" stroke="midnightblue" points="340.5,-177.666 344,-187.666 347.5,-177.666 340.5,-177.666"/>
</g>
<!-- Node10 -->
<g id="node10" class="node"><title>Node10</title>
<g id="a_node10"><a xlink:href="classdsp_1_1_signal_q15.html" target="_top" xlink:title="Signal q1.15. ">
<polygon fill="none" stroke="black" points="423.159,-6 423.159,-130 532.841,-130 532.841,-6 423.159,-6"/>
<text text-anchor="start" x="431.159" y="-118" font-family="Helvetica,sans-Serif" font-size="10.00">dsp::SignalQ15&lt; q15</text>
<text text-anchor="middle" x="478" y="-108" font-family="Helvetica,sans-Serif" font-size="10.00">_t, q63_t &gt;</text>
<polyline fill="none" stroke="black" points="423.159,-102 532.841,-102 "/>
<text text-anchor="middle" x="478" y="-90" font-family="Helvetica,sans-Serif" font-size="10.00"> </text>
<polyline fill="none" stroke="black" points="423.159,-84 532.841,-84 "/>
<text text-anchor="start" x="431.159" y="-72" font-family="Helvetica,sans-Serif" font-size="10.00">+ SignalQ15()</text>
<text text-anchor="start" x="431.159" y="-62" font-family="Helvetica,sans-Serif" font-size="10.00">+ SignalQ15()</text>
<text text-anchor="start" x="431.159" y="-52" font-family="Helvetica,sans-Serif" font-size="10.00">+ SignalQ15()</text>
<text text-anchor="start" x="431.159" y="-42" font-family="Helvetica,sans-Serif" font-size="10.00">+ abs()</text>
<text text-anchor="start" x="431.159" y="-32" font-family="Helvetica,sans-Serif" font-size="10.00">+ abs()</text>
<text text-anchor="start" x="431.159" y="-22" font-family="Helvetica,sans-Serif" font-size="10.00">+ add()</text>
<text text-anchor="start" x="431.159" y="-12" font-family="Helvetica,sans-Serif" font-size="10.00">and 33 more...</text>
</a>
</g>
</g>
<!-- Node6&#45;&gt;Node10 -->
<g id="edge9" class="edge"><title>Node6&#45;&gt;Node10</title>
<path fill="none" stroke="midnightblue" d="M393.502,-179.352C405.843,-163.235 419.035,-146.006 431.239,-130.068"/>
<polygon fill="none" stroke="midnightblue" points="390.437,-177.598 387.136,-187.666 395.995,-181.854 390.437,-177.598"/>
</g>
<!-- Node11 -->
<g id="node11" class="node"><title>Node11</title>
<g id="a_node11"><a xlink:href="classdsp_1_1_signal_q31.html" target="_top" xlink:title="Fixed point q1.31 data signal. ">
<polygon fill="none" stroke="black" points="551.159,-1 551.159,-135 660.841,-135 660.841,-1 551.159,-1"/>
<text text-anchor="start" x="559.159" y="-123" font-family="Helvetica,sans-Serif" font-size="10.00">dsp::SignalQ31&lt; q31</text>
<text text-anchor="middle" x="606" y="-113" font-family="Helvetica,sans-Serif" font-size="10.00">_t, q63_t &gt;</text>
<polyline fill="none" stroke="black" points="551.159,-107 660.841,-107 "/>
<text text-anchor="middle" x="606" y="-95" font-family="Helvetica,sans-Serif" font-size="10.00"> </text>
<polyline fill="none" stroke="black" points="551.159,-89 660.841,-89 "/>
<text text-anchor="start" x="559.159" y="-77" font-family="Helvetica,sans-Serif" font-size="10.00">+ SignalQ31()</text>
<text text-anchor="start" x="559.159" y="-67" font-family="Helvetica,sans-Serif" font-size="10.00">+ SignalQ31()</text>
<text text-anchor="start" x="559.159" y="-57" font-family="Helvetica,sans-Serif" font-size="10.00">+ SignalQ31()</text>
<text text-anchor="start" x="559.159" y="-47" font-family="Helvetica,sans-Serif" font-size="10.00">+ abs()</text>
<text text-anchor="start" x="559.159" y="-37" font-family="Helvetica,sans-Serif" font-size="10.00">+ abs()</text>
<text text-anchor="start" x="559.159" y="-27" font-family="Helvetica,sans-Serif" font-size="10.00">+ add()</text>
<text text-anchor="start" x="559.159" y="-17" font-family="Helvetica,sans-Serif" font-size="10.00">and 35 more...</text>
<text text-anchor="start" x="559.159" y="-7" font-family="Helvetica,sans-Serif" font-size="10.00">+ create_sin_wave()</text>
</a>
</g>
</g>
<!-- Node6&#45;&gt;Node11 -->
<g id="edge10" class="edge"><title>Node6&#45;&gt;Node11</title>
<path fill="none" stroke="midnightblue" d="M407.432,-182.351C407.621,-182.234 407.811,-182.116 408,-182 461.282,-149.241 488.233,-169.582 541,-136 544.418,-133.825 547.788,-131.435 551.088,-128.894"/>
<polygon fill="none" stroke="midnightblue" points="405.336,-179.543 399.01,-188.043 409.256,-185.343 405.336,-179.543"/>
</g>
<!-- Node12 -->
<g id="node12" class="node"><title>Node12</title>
<g id="a_node12"><a xlink:href="classdsp_1_1_signal_data.html" target="_top" xlink:title="{dsp::SignalData\&lt; Complex\lF32, float32_t \&gt;\n||+ SignalData()\l+ SignalData()\l+ abs()\l+ abs()\l+ add()\l+ add()\land 49 more...\l}">
<polygon fill="none" stroke="black" points="728.662,-6 728.662,-130 863.338,-130 863.338,-6 728.662,-6"/>
<text text-anchor="start" x="736.662" y="-118" font-family="Helvetica,sans-Serif" font-size="10.00">dsp::SignalData&lt; Complex</text>
<text text-anchor="middle" x="796" y="-108" font-family="Helvetica,sans-Serif" font-size="10.00">F32, float32_t &gt;</text>
<polyline fill="none" stroke="black" points="728.662,-102 863.338,-102 "/>
<text text-anchor="middle" x="796" y="-90" font-family="Helvetica,sans-Serif" font-size="10.00"> </text>
<polyline fill="none" stroke="black" points="728.662,-84 863.338,-84 "/>
<text text-anchor="start" x="736.662" y="-72" font-family="Helvetica,sans-Serif" font-size="10.00">+ SignalData()</text>
<text text-anchor="start" x="736.662" y="-62" font-family="Helvetica,sans-Serif" font-size="10.00">+ SignalData()</text>
<text text-anchor="start" x="736.662" y="-52" font-family="Helvetica,sans-Serif" font-size="10.00">+ abs()</text>
<text text-anchor="start" x="736.662" y="-42" font-family="Helvetica,sans-Serif" font-size="10.00">+ abs()</text>
<text text-anchor="start" x="736.662" y="-32" font-family="Helvetica,sans-Serif" font-size="10.00">+ add()</text>
<text text-anchor="start" x="736.662" y="-22" font-family="Helvetica,sans-Serif" font-size="10.00">+ add()</text>
<text text-anchor="start" x="736.662" y="-12" font-family="Helvetica,sans-Serif" font-size="10.00">and 49 more...</text>
</a>
</g>
</g>
<!-- Node6&#45;&gt;Node12 -->
<g id="edge11" class="edge"><title>Node6&#45;&gt;Node12</title>
<path fill="none" stroke="orange" d="M406.711,-182.671C407.14,-182.443 407.569,-182.22 408,-182 434.227,-168.612 641.141,-145.541 669,-136 689.046,-129.135 709.782,-119.442 728.539,-109.556"/>
<polygon fill="orange" stroke="orange" points="404.662,-179.818 397.874,-187.954 408.253,-185.827 404.662,-179.818"/>
<text text-anchor="middle" x="619.312" y="-156" font-family="Helvetica,sans-Serif" font-size="10.00"> &lt; ComplexF32, float32_t &gt;</text>
</g>
<!-- Node16&#45;&gt;Node12 -->
<g id="edge16" class="edge"><title>Node16&#45;&gt;Node12</title>
<path fill="none" stroke="midnightblue" d="M841.373,-173.476C835.144,-159.134 828.64,-144.158 822.566,-130.172"/>
<polygon fill="none" stroke="midnightblue" points="838.225,-175.015 845.419,-182.793 844.646,-172.227 838.225,-175.015"/>
</g>
</g>
</svg>
