<?xml version="1.0" encoding="UTF-8" standalone="no"?>
<!DOCTYPE svg PUBLIC "-//W3C//DTD SVG 1.1//EN"
 "http://www.w3.org/Graphics/SVG/1.1/DTD/svg11.dtd">
<!-- Generated by graphviz version 2.36.0 (20140111.2315)
 -->
<!-- Title: hal::Spi Pages: 1 -->
<svg width="201pt" height="1226pt"
 viewBox="0.00 0.00 200.55 1226.00" xmlns="http://www.w3.org/2000/svg" xmlns:xlink="http://www.w3.org/1999/xlink">
<g id="graph0" class="graph" transform="scale(1 1) rotate(0) translate(4 1222)">
<title>hal::Spi</title>
<!-- Node1 -->
<g id="node1" class="node"><title>Node1</title>
<polygon fill="#bfbfbf" stroke="black" points="40.686,-1 40.686,-85 105.314,-85 105.314,-1 40.686,-1"/>
<text text-anchor="middle" x="73" y="-73" font-family="Helvetica,sans-Serif" font-size="10.00">hal::Spi</text>
<polyline fill="none" stroke="black" points="40.686,-67 105.314,-67 "/>
<text text-anchor="middle" x="73" y="-55" font-family="Helvetica,sans-Serif" font-size="10.00"> </text>
<polyline fill="none" stroke="black" points="40.686,-49 105.314,-49 "/>
<text text-anchor="start" x="48.686" y="-37" font-family="Helvetica,sans-Serif" font-size="10.00">+ Spi()</text>
<text text-anchor="start" x="48.686" y="-27" font-family="Helvetica,sans-Serif" font-size="10.00">+ init()</text>
<text text-anchor="start" x="48.686" y="-17" font-family="Helvetica,sans-Serif" font-size="10.00">+ set_attr()</text>
<text text-anchor="start" x="48.686" y="-7" font-family="Helvetica,sans-Serif" font-size="10.00">+ swap()</text>
</g>
<!-- Node2 -->
<g id="node2" class="node"><title>Node2</title>
<g id="a_node2"><a xlink:href="classhal_1_1_periph.html" target="_top" xlink:title="{hal::Periph\&lt; spi_info\l_t, spi_attr_t, &#39;s&#39;\&gt;\n||+ Periph()\l+ get_info()\l+ get_version()\l+ init()\l+ port()\l+ set_action()\l+ set_action()\l+ set_attr()\l+ set_attr()\l# get_channel()\l# set_channel()\l# set_channel()\l}">
<polygon fill="none" stroke="black" points="19.5532,-125 19.5532,-299 126.447,-299 126.447,-125 19.5532,-125"/>
<text text-anchor="start" x="27.5532" y="-287" font-family="Helvetica,sans-Serif" font-size="10.00">hal::Periph&lt; spi_info</text>
<text text-anchor="middle" x="73" y="-277" font-family="Helvetica,sans-Serif" font-size="10.00">_t, spi_attr_t, &#39;s&#39;&gt;</text>
<polyline fill="none" stroke="black" points="19.5532,-271 126.447,-271 "/>
<text text-anchor="middle" x="73" y="-259" font-family="Helvetica,sans-Serif" font-size="10.00"> </text>
<polyline fill="none" stroke="black" points="19.5532,-253 126.447,-253 "/>
<text text-anchor="start" x="27.5532" y="-241" font-family="Helvetica,sans-Serif" font-size="10.00">+ Periph()</text>
<text text-anchor="start" x="27.5532" y="-231" font-family="Helvetica,sans-Serif" font-size="10.00">+ get_info()</text>
<text text-anchor="start" x="27.5532" y="-221" font-family="Helvetica,sans-Serif" font-size="10.00">+ get_version()</text>
<text text-anchor="start" x="27.5532" y="-211" font-family="Helvetica,sans-Serif" font-size="10.00">+ init()</text>
<text text-anchor="start" x="27.5532" y="-201" font-family="Helvetica,sans-Serif" font-size="10.00">+ port()</text>
<text text-anchor="start" x="27.5532" y="-191" font-family="Helvetica,sans-Serif" font-size="10.00">+ set_action()</text>
<text text-anchor="start" x="27.5532" y="-181" font-family="Helvetica,sans-Serif" font-size="10.00">+ set_action()</text>
<text text-anchor="start" x="27.5532" y="-171" font-family="Helvetica,sans-Serif" font-size="10.00">+ set_attr()</text>
<text text-anchor="start" x="27.5532" y="-161" font-family="Helvetica,sans-Serif" font-size="10.00">+ set_attr()</text>
<text text-anchor="start" x="27.5532" y="-151" font-family="Helvetica,sans-Serif" font-size="10.00"># get_channel()</text>
<text text-anchor="start" x="27.5532" y="-141" font-family="Helvetica,sans-Serif" font-size="10.00"># set_channel()</text>
<text text-anchor="start" x="27.5532" y="-131" font-family="Helvetica,sans-Serif" font-size="10.00"># set_channel()</text>
</a>
</g>
</g>
<!-- Node2&#45;&gt;Node1 -->
<g id="edge1" class="edge"><title>Node2&#45;&gt;Node1</title>
<path fill="none" stroke="midnightblue" d="M73,-114.341C73,-104.183 73,-94.2909 73,-85.2876"/>
<polygon fill="none" stroke="midnightblue" points="69.5001,-114.565 73,-124.565 76.5001,-114.565 69.5001,-114.565"/>
</g>
<!-- Node3 -->
<g id="node3" class="node"><title>Node3</title>
<g id="a_node3"><a xlink:href="classhal_1_1_periph_object.html" target="_top" xlink:title="Periph Object Class. ">
<polygon fill="none" stroke="black" points="10.6455,-571 10.6455,-735 103.354,-735 103.354,-571 10.6455,-571"/>
<text text-anchor="middle" x="57" y="-723" font-family="Helvetica,sans-Serif" font-size="10.00">hal::PeriphObject</text>
<polyline fill="none" stroke="black" points="10.6455,-717 103.354,-717 "/>
<text text-anchor="start" x="18.6455" y="-705" font-family="Helvetica,sans-Serif" font-size="10.00"># m_periph_port</text>
<polyline fill="none" stroke="black" points="10.6455,-699 103.354,-699 "/>
<text text-anchor="start" x="18.6455" y="-687" font-family="Helvetica,sans-Serif" font-size="10.00">+ close()</text>
<text text-anchor="start" x="18.6455" y="-677" font-family="Helvetica,sans-Serif" font-size="10.00">+ fileno()</text>
<text text-anchor="start" x="18.6455" y="-667" font-family="Helvetica,sans-Serif" font-size="10.00">+ ioctl()</text>
<text text-anchor="start" x="18.6455" y="-657" font-family="Helvetica,sans-Serif" font-size="10.00">+ open()</text>
<text text-anchor="start" x="18.6455" y="-647" font-family="Helvetica,sans-Serif" font-size="10.00">+ read()</text>
<text text-anchor="start" x="18.6455" y="-637" font-family="Helvetica,sans-Serif" font-size="10.00">+ read()</text>
<text text-anchor="start" x="18.6455" y="-627" font-family="Helvetica,sans-Serif" font-size="10.00">+ seek()</text>
<text text-anchor="start" x="18.6455" y="-617" font-family="Helvetica,sans-Serif" font-size="10.00">+ write()</text>
<text text-anchor="start" x="18.6455" y="-607" font-family="Helvetica,sans-Serif" font-size="10.00">+ write()</text>
<text text-anchor="start" x="18.6455" y="-597" font-family="Helvetica,sans-Serif" font-size="10.00"># lookup_fileno()</text>
<text text-anchor="start" x="18.6455" y="-587" font-family="Helvetica,sans-Serif" font-size="10.00"># open()</text>
<text text-anchor="start" x="18.6455" y="-577" font-family="Helvetica,sans-Serif" font-size="10.00"># update_fileno()</text>
</a>
</g>
</g>
<!-- Node3&#45;&gt;Node2 -->
<g id="edge2" class="edge"><title>Node3&#45;&gt;Node2</title>
<path fill="none" stroke="midnightblue" d="M58.2368,-560.609C59.2573,-502.092 61.0333,-424.552 64,-356 64.7959,-337.609 65.8837,-317.902 67.0281,-299.176"/>
<polygon fill="none" stroke="midnightblue" points="54.7318,-560.88 58.061,-570.938 61.7308,-560.999 54.7318,-560.88"/>
</g>
<!-- Node7 -->
<g id="node7" class="node"><title>Node7</title>
<g id="a_node7"><a xlink:href="classhal_1_1_periph.html" target="_top" xlink:title="Peripheral Class. ">
<polygon fill="none" stroke="black" points="72.7798,-357 72.7798,-531 175.22,-531 175.22,-357 72.7798,-357"/>
<text text-anchor="start" x="80.7798" y="-519" font-family="Helvetica,sans-Serif" font-size="10.00">hal::Periph&lt; info_t,</text>
<text text-anchor="middle" x="124" y="-509" font-family="Helvetica,sans-Serif" font-size="10.00"> attr_t, ident_char &gt;</text>
<polyline fill="none" stroke="black" points="72.7798,-503 175.22,-503 "/>
<text text-anchor="middle" x="124" y="-491" font-family="Helvetica,sans-Serif" font-size="10.00"> </text>
<polyline fill="none" stroke="black" points="72.7798,-485 175.22,-485 "/>
<text text-anchor="start" x="80.7798" y="-473" font-family="Helvetica,sans-Serif" font-size="10.00">+ Periph()</text>
<text text-anchor="start" x="80.7798" y="-463" font-family="Helvetica,sans-Serif" font-size="10.00">+ get_info()</text>
<text text-anchor="start" x="80.7798" y="-453" font-family="Helvetica,sans-Serif" font-size="10.00">+ get_version()</text>
<text text-anchor="start" x="80.7798" y="-443" font-family="Helvetica,sans-Serif" font-size="10.00">+ init()</text>
<text text-anchor="start" x="80.7798" y="-433" font-family="Helvetica,sans-Serif" font-size="10.00">+ port()</text>
<text text-anchor="start" x="80.7798" y="-423" font-family="Helvetica,sans-Serif" font-size="10.00">+ set_action()</text>
<text text-anchor="start" x="80.7798" y="-413" font-family="Helvetica,sans-Serif" font-size="10.00">+ set_action()</text>
<text text-anchor="start" x="80.7798" y="-403" font-family="Helvetica,sans-Serif" font-size="10.00">+ set_attr()</text>
<text text-anchor="start" x="80.7798" y="-393" font-family="Helvetica,sans-Serif" font-size="10.00">+ set_attr()</text>
<text text-anchor="start" x="80.7798" y="-383" font-family="Helvetica,sans-Serif" font-size="10.00"># get_channel()</text>
<text text-anchor="start" x="80.7798" y="-373" font-family="Helvetica,sans-Serif" font-size="10.00"># set_channel()</text>
<text text-anchor="start" x="80.7798" y="-363" font-family="Helvetica,sans-Serif" font-size="10.00"># set_channel()</text>
</a>
</g>
</g>
<!-- Node3&#45;&gt;Node7 -->
<g id="edge7" class="edge"><title>Node3&#45;&gt;Node7</title>
<path fill="none" stroke="midnightblue" d="M86.3752,-561.244C89.6162,-551.231 92.9095,-541.056 96.1313,-531.102"/>
<polygon fill="none" stroke="midnightblue" points="83.0375,-560.19 83.2879,-570.782 89.6973,-562.346 83.0375,-560.19"/>
</g>
<!-- Node4 -->
<g id="node4" class="node"><title>Node4</title>
<g id="a_node4"><a xlink:href="classhal_1_1_device.html" target="_top" xlink:title="Device Class. ">
<polygon fill="none" stroke="black" points="24.2661,-775 24.2661,-849 89.7339,-849 89.7339,-775 24.2661,-775"/>
<text text-anchor="middle" x="57" y="-837" font-family="Helvetica,sans-Serif" font-size="10.00">hal::Device</text>
<polyline fill="none" stroke="black" points="24.2661,-831 89.7339,-831 "/>
<text text-anchor="middle" x="57" y="-819" font-family="Helvetica,sans-Serif" font-size="10.00"> </text>
<polyline fill="none" stroke="black" points="24.2661,-813 89.7339,-813 "/>
<text text-anchor="start" x="32.2661" y="-801" font-family="Helvetica,sans-Serif" font-size="10.00">+ Device()</text>
<text text-anchor="start" x="32.2661" y="-791" font-family="Helvetica,sans-Serif" font-size="10.00">+ read()</text>
<text text-anchor="start" x="32.2661" y="-781" font-family="Helvetica,sans-Serif" font-size="10.00">+ write()</text>
</a>
</g>
</g>
<!-- Node4&#45;&gt;Node3 -->
<g id="edge3" class="edge"><title>Node4&#45;&gt;Node3</title>
<path fill="none" stroke="midnightblue" d="M57,-764.793C57,-755.459 57,-745.388 57,-735.256"/>
<polygon fill="none" stroke="midnightblue" points="53.5001,-764.981 57,-774.981 60.5001,-764.981 53.5001,-764.981"/>
</g>
<!-- Node5 -->
<g id="node5" class="node"><title>Node5</title>
<g id="a_node5"><a xlink:href="classsys_1_1_file.html" target="_top" xlink:title="File Class. ">
<polygon fill="none" stroke="black" points="16.7588,-889 16.7588,-1053 97.2412,-1053 97.2412,-889 16.7588,-889"/>
<text text-anchor="middle" x="57" y="-1041" font-family="Helvetica,sans-Serif" font-size="10.00">sys::File</text>
<polyline fill="none" stroke="black" points="16.7588,-1035 97.2412,-1035 "/>
<text text-anchor="start" x="24.7588" y="-1023" font-family="Helvetica,sans-Serif" font-size="10.00"># m_fd</text>
<polyline fill="none" stroke="black" points="16.7588,-1017 97.2412,-1017 "/>
<text text-anchor="start" x="24.7588" y="-1005" font-family="Helvetica,sans-Serif" font-size="10.00">+ File()</text>
<text text-anchor="start" x="24.7588" y="-995" font-family="Helvetica,sans-Serif" font-size="10.00">+ close()</text>
<text text-anchor="start" x="24.7588" y="-985" font-family="Helvetica,sans-Serif" font-size="10.00">+ create()</text>
<text text-anchor="start" x="24.7588" y="-975" font-family="Helvetica,sans-Serif" font-size="10.00">+ fileno()</text>
<text text-anchor="start" x="24.7588" y="-965" font-family="Helvetica,sans-Serif" font-size="10.00">+ flags()</text>
<text text-anchor="start" x="24.7588" y="-955" font-family="Helvetica,sans-Serif" font-size="10.00">+ gets()</text>
<text text-anchor="start" x="24.7588" y="-945" font-family="Helvetica,sans-Serif" font-size="10.00">and 21 more...</text>
<text text-anchor="start" x="24.7588" y="-935" font-family="Helvetica,sans-Serif" font-size="10.00">+ name()</text>
<text text-anchor="start" x="24.7588" y="-925" font-family="Helvetica,sans-Serif" font-size="10.00">+ remove()</text>
<text text-anchor="start" x="24.7588" y="-915" font-family="Helvetica,sans-Serif" font-size="10.00">+ size()</text>
<text text-anchor="start" x="24.7588" y="-905" font-family="Helvetica,sans-Serif" font-size="10.00">+ stat()</text>
<text text-anchor="start" x="24.7588" y="-895" font-family="Helvetica,sans-Serif" font-size="10.00">+ suffix()</text>
</a>
</g>
</g>
<!-- Node5&#45;&gt;Node4 -->
<g id="edge4" class="edge"><title>Node5&#45;&gt;Node4</title>
<path fill="none" stroke="midnightblue" d="M57,-878.674C57,-868.248 57,-858.133 57,-849.09"/>
<polygon fill="none" stroke="midnightblue" points="53.5001,-878.741 57,-888.741 60.5001,-878.741 53.5001,-878.741"/>
</g>
<!-- Node6 -->
<g id="node6" class="node"><title>Node6</title>
<g id="a_node6"><a xlink:href="classapi_1_1_s_object.html" target="_top" xlink:title="SObject Class. ">
<polygon fill="none" stroke="black" points="-0.191895,-1093 -0.191895,-1217 114.192,-1217 114.192,-1093 -0.191895,-1093"/>
<text text-anchor="middle" x="57" y="-1205" font-family="Helvetica,sans-Serif" font-size="10.00">api::SObject</text>
<polyline fill="none" stroke="black" points="-0.191895,-1199 114.192,-1199 "/>
<text text-anchor="middle" x="57" y="-1187" font-family="Helvetica,sans-Serif" font-size="10.00"> </text>
<polyline fill="none" stroke="black" points="-0.191895,-1181 114.192,-1181 "/>
<text text-anchor="start" x="7.80811" y="-1169" font-family="Helvetica,sans-Serif" font-size="10.00">+ SObject()</text>
<text text-anchor="start" x="7.80811" y="-1159" font-family="Helvetica,sans-Serif" font-size="10.00">+ api_version()</text>
<text text-anchor="start" x="7.80811" y="-1149" font-family="Helvetica,sans-Serif" font-size="10.00">+ clear_error()</text>
<text text-anchor="start" x="7.80811" y="-1139" font-family="Helvetica,sans-Serif" font-size="10.00">+ error_number()</text>
<text text-anchor="start" x="7.80811" y="-1129" font-family="Helvetica,sans-Serif" font-size="10.00">+ exit_fatal()</text>
<text text-anchor="start" x="7.80811" y="-1119" font-family="Helvetica,sans-Serif" font-size="10.00"># set_error_number()</text>
<text text-anchor="start" x="7.80811" y="-1109" font-family="Helvetica,sans-Serif" font-size="10.00"># set_error_number_if</text>
<text text-anchor="start" x="7.80811" y="-1099" font-family="Helvetica,sans-Serif" font-size="10.00">_error()</text>
</a>
</g>
</g>
<!-- Node6&#45;&gt;Node5 -->
<g id="edge5" class="edge"><title>Node6&#45;&gt;Node5</title>
<path fill="none" stroke="midnightblue" d="M57,-1082.61C57,-1073 57,-1063.08 57,-1053.32"/>
<polygon fill="none" stroke="midnightblue" points="53.5001,-1082.89 57,-1092.89 60.5001,-1082.89 53.5001,-1082.89"/>
</g>
<!-- Node7&#45;&gt;Node2 -->
<g id="edge6" class="edge"><title>Node7&#45;&gt;Node2</title>
<path fill="none" stroke="orange" d="M102.688,-346.888C99.1666,-331.006 95.5354,-314.63 92.0732,-299.017"/>
<polygon fill="orange" stroke="orange" points="99.2825,-347.697 104.864,-356.702 106.116,-346.182 99.2825,-347.697"/>
<text text-anchor="start" x="100" y="-330" font-family="Helvetica,sans-Serif" font-size="10.00"> &lt; spi_info_t, spi_attr</text>
<text text-anchor="middle" x="146.277" y="-320" font-family="Helvetica,sans-Serif" font-size="10.00">_t, &#39;s&#39;&gt;</text>
</g>
</g>
</svg>
