<?xml version="1.0" encoding="UTF-8" standalone="no"?>
<!DOCTYPE svg PUBLIC "-//W3C//DTD SVG 1.1//EN"
 "http://www.w3.org/Graphics/SVG/1.1/DTD/svg11.dtd">
<!-- Generated by graphviz version 2.36.0 (20140111.2315)
 -->
<!-- Title: ui::ListItemToggle Pages: 1 -->
<svg width="152pt" height="842pt"
 viewBox="0.00 0.00 152.00 842.00" xmlns="http://www.w3.org/2000/svg" xmlns:xlink="http://www.w3.org/1999/xlink">
<g id="graph0" class="graph" transform="scale(1 1) rotate(0) translate(4 838)">
<title>ui::ListItemToggle</title>
<!-- Node1 -->
<g id="node1" class="node"><title>Node1</title>
<polygon fill="#bfbfbf" stroke="black" points="-0.0722656,-1 -0.0722656,-95 144.072,-95 144.072,-1 -0.0722656,-1"/>
<text text-anchor="middle" x="72" y="-83" font-family="Helvetica,sans-Serif" font-size="10.00">ui::ListItemToggle</text>
<polyline fill="none" stroke="black" points="-0.0722656,-77 144.072,-77 "/>
<text text-anchor="middle" x="72" y="-65" font-family="Helvetica,sans-Serif" font-size="10.00"> </text>
<polyline fill="none" stroke="black" points="-0.0722656,-59 144.072,-59 "/>
<text text-anchor="start" x="7.92773" y="-47" font-family="Helvetica,sans-Serif" font-size="10.00">+ ListItemToggle()</text>
<text text-anchor="start" x="7.92773" y="-37" font-family="Helvetica,sans-Serif" font-size="10.00">+ handle_event()</text>
<text text-anchor="start" x="7.92773" y="-27" font-family="Helvetica,sans-Serif" font-size="10.00">+ set_enabled()</text>
<text text-anchor="start" x="7.92773" y="-17" font-family="Helvetica,sans-Serif" font-size="10.00">+ set_toggle_disabled_icon()</text>
<text text-anchor="start" x="7.92773" y="-7" font-family="Helvetica,sans-Serif" font-size="10.00">+ set_toggle_enabled_icon()</text>
</g>
<!-- Node2 -->
<g id="node2" class="node"><title>Node2</title>
<g id="a_node2"><a xlink:href="classui_1_1_list_item.html" target="_top" xlink:title="List Item Class. ">
<polygon fill="none" stroke="black" points="22.4521,-133 22.4521,-247 121.548,-247 121.548,-133 22.4521,-133"/>
<text text-anchor="middle" x="72" y="-235" font-family="Helvetica,sans-Serif" font-size="10.00">ui::ListItem</text>
<polyline fill="none" stroke="black" points="22.4521,-229 121.548,-229 "/>
<text text-anchor="middle" x="72" y="-217" font-family="Helvetica,sans-Serif" font-size="10.00"> </text>
<polyline fill="none" stroke="black" points="22.4521,-211 121.548,-211 "/>
<text text-anchor="start" x="30.4521" y="-199" font-family="Helvetica,sans-Serif" font-size="10.00">+ ListItem()</text>
<text text-anchor="start" x="30.4521" y="-189" font-family="Helvetica,sans-Serif" font-size="10.00">+ draw_to_scale()</text>
<text text-anchor="start" x="30.4521" y="-179" font-family="Helvetica,sans-Serif" font-size="10.00">+ handle_event()</text>
<text text-anchor="start" x="30.4521" y="-169" font-family="Helvetica,sans-Serif" font-size="10.00">+ icon()</text>
<text text-anchor="start" x="30.4521" y="-159" font-family="Helvetica,sans-Serif" font-size="10.00">+ icon_attr()</text>
<text text-anchor="start" x="30.4521" y="-149" font-family="Helvetica,sans-Serif" font-size="10.00">+ icon_attr_const()</text>
<text text-anchor="start" x="30.4521" y="-139" font-family="Helvetica,sans-Serif" font-size="10.00">and 4 more...</text>
</a>
</g>
</g>
<!-- Node2&#45;&gt;Node1 -->
<g id="edge1" class="edge"><title>Node2&#45;&gt;Node1</title>
<path fill="none" stroke="midnightblue" d="M72,-122.823C72,-113.509 72,-104.105 72,-95.2717"/>
<polygon fill="none" stroke="midnightblue" points="68.5001,-122.863 72,-132.863 75.5001,-122.863 68.5001,-122.863"/>
</g>
<!-- Node3 -->
<g id="node3" class="node"><title>Node3</title>
<g id="a_node3"><a xlink:href="classui_1_1_linked_element.html" target="_top" xlink:title="Linked Element. ">
<polygon fill="none" stroke="black" points="23.2847,-285 23.2847,-399 120.715,-399 120.715,-285 23.2847,-285"/>
<text text-anchor="middle" x="72" y="-387" font-family="Helvetica,sans-Serif" font-size="10.00">ui::LinkedElement</text>
<polyline fill="none" stroke="black" points="23.2847,-381 120.715,-381 "/>
<text text-anchor="middle" x="72" y="-369" font-family="Helvetica,sans-Serif" font-size="10.00"> </text>
<polyline fill="none" stroke="black" points="23.2847,-363 120.715,-363 "/>
<text text-anchor="start" x="31.2847" y="-351" font-family="Helvetica,sans-Serif" font-size="10.00">+ LinkedElement()</text>
<text text-anchor="start" x="31.2847" y="-341" font-family="Helvetica,sans-Serif" font-size="10.00">+ LinkedElement()</text>
<text text-anchor="start" x="31.2847" y="-331" font-family="Helvetica,sans-Serif" font-size="10.00">+ child()</text>
<text text-anchor="start" x="31.2847" y="-321" font-family="Helvetica,sans-Serif" font-size="10.00">+ handle_event()</text>
<text text-anchor="start" x="31.2847" y="-311" font-family="Helvetica,sans-Serif" font-size="10.00">+ parent()</text>
<text text-anchor="start" x="31.2847" y="-301" font-family="Helvetica,sans-Serif" font-size="10.00">+ set_child()</text>
<text text-anchor="start" x="31.2847" y="-291" font-family="Helvetica,sans-Serif" font-size="10.00">+ set_parent()</text>
</a>
</g>
</g>
<!-- Node3&#45;&gt;Node2 -->
<g id="edge2" class="edge"><title>Node3&#45;&gt;Node2</title>
<path fill="none" stroke="midnightblue" d="M72,-274.495C72,-265.349 72,-256.032 72,-247.098"/>
<polygon fill="none" stroke="midnightblue" points="68.5001,-274.719 72,-284.719 75.5001,-274.719 68.5001,-274.719"/>
</g>
<!-- Node4 -->
<g id="node4" class="node"><title>Node4</title>
<g id="a_node4"><a xlink:href="classui_1_1_element.html" target="_top" xlink:title="Element Class. ">
<polygon fill="none" stroke="black" points="4.38574,-437 4.38574,-571 139.614,-571 139.614,-437 4.38574,-437"/>
<text text-anchor="middle" x="72" y="-559" font-family="Helvetica,sans-Serif" font-size="10.00">ui::Element</text>
<polyline fill="none" stroke="black" points="4.38574,-553 139.614,-553 "/>
<text text-anchor="start" x="12.3857" y="-541" font-family="Helvetica,sans-Serif" font-size="10.00"># m_animation_attr</text>
<polyline fill="none" stroke="black" points="4.38574,-535 139.614,-535 "/>
<text text-anchor="start" x="12.3857" y="-523" font-family="Helvetica,sans-Serif" font-size="10.00">+ Element()</text>
<text text-anchor="start" x="12.3857" y="-513" font-family="Helvetica,sans-Serif" font-size="10.00">+ animation_attr()</text>
<text text-anchor="start" x="12.3857" y="-503" font-family="Helvetica,sans-Serif" font-size="10.00">+ animation_frame_delay()</text>
<text text-anchor="start" x="12.3857" y="-493" font-family="Helvetica,sans-Serif" font-size="10.00">+ animation_path()</text>
<text text-anchor="start" x="12.3857" y="-483" font-family="Helvetica,sans-Serif" font-size="10.00">+ animation_type()</text>
<text text-anchor="start" x="12.3857" y="-473" font-family="Helvetica,sans-Serif" font-size="10.00">+ handle_event()</text>
<text text-anchor="start" x="12.3857" y="-463" font-family="Helvetica,sans-Serif" font-size="10.00">and 21 more...</text>
<text text-anchor="start" x="12.3857" y="-453" font-family="Helvetica,sans-Serif" font-size="10.00"># adjust_x_center()</text>
<text text-anchor="start" x="12.3857" y="-443" font-family="Helvetica,sans-Serif" font-size="10.00"># draw_scroll()</text>
</a>
</g>
</g>
<!-- Node4&#45;&gt;Node3 -->
<g id="edge3" class="edge"><title>Node4&#45;&gt;Node3</title>
<path fill="none" stroke="midnightblue" d="M72,-426.907C72,-417.558 72,-408.139 72,-399.16"/>
<polygon fill="none" stroke="midnightblue" points="68.5001,-426.998 72,-436.998 75.5001,-426.998 68.5001,-426.998"/>
</g>
<!-- Node5 -->
<g id="node5" class="node"><title>Node5</title>
<g id="a_node5"><a xlink:href="classdraw_1_1_drawing.html" target="_top" xlink:title="Drawing Class. ">
<polygon fill="none" stroke="black" points="12.4473,-609 12.4473,-833 131.553,-833 131.553,-609 12.4473,-609"/>
<text text-anchor="middle" x="72" y="-821" font-family="Helvetica,sans-Serif" font-size="10.00">draw::Drawing</text>
<polyline fill="none" stroke="black" points="12.4473,-815 131.553,-815 "/>
<text text-anchor="middle" x="72" y="-803" font-family="Helvetica,sans-Serif" font-size="10.00"> </text>
<polyline fill="none" stroke="black" points="12.4473,-797 131.553,-797 "/>
<text text-anchor="start" x="20.4473" y="-785" font-family="Helvetica,sans-Serif" font-size="10.00">+ Drawing()</text>
<text text-anchor="start" x="20.4473" y="-775" font-family="Helvetica,sans-Serif" font-size="10.00">+ dark()</text>
<text text-anchor="start" x="20.4473" y="-765" font-family="Helvetica,sans-Serif" font-size="10.00">+ draw()</text>
<text text-anchor="start" x="20.4473" y="-755" font-family="Helvetica,sans-Serif" font-size="10.00">+ draw()</text>
<text text-anchor="start" x="20.4473" y="-745" font-family="Helvetica,sans-Serif" font-size="10.00">+ draw_scratch()</text>
<text text-anchor="start" x="20.4473" y="-735" font-family="Helvetica,sans-Serif" font-size="10.00">+ draw_to_scale()</text>
<text text-anchor="start" x="20.4473" y="-725" font-family="Helvetica,sans-Serif" font-size="10.00">and 18 more...</text>
<text text-anchor="start" x="20.4473" y="-715" font-family="Helvetica,sans-Serif" font-size="10.00">+ clear()</text>
<text text-anchor="start" x="20.4473" y="-705" font-family="Helvetica,sans-Serif" font-size="10.00">+ draw_checkerboard()</text>
<text text-anchor="start" x="20.4473" y="-695" font-family="Helvetica,sans-Serif" font-size="10.00">+ draw_pattern()</text>
<text text-anchor="start" x="20.4473" y="-685" font-family="Helvetica,sans-Serif" font-size="10.00">+ h()</text>
<text text-anchor="start" x="20.4473" y="-675" font-family="Helvetica,sans-Serif" font-size="10.00">+ height()</text>
<text text-anchor="start" x="20.4473" y="-665" font-family="Helvetica,sans-Serif" font-size="10.00">+ invert()</text>
<text text-anchor="start" x="20.4473" y="-655" font-family="Helvetica,sans-Serif" font-size="10.00">and 4 more...</text>
<text text-anchor="start" x="20.4473" y="-645" font-family="Helvetica,sans-Serif" font-size="10.00"># dim_on_bitmap()</text>
<text text-anchor="start" x="20.4473" y="-635" font-family="Helvetica,sans-Serif" font-size="10.00"># flag()</text>
<text text-anchor="start" x="20.4473" y="-625" font-family="Helvetica,sans-Serif" font-size="10.00"># point_on_bitmap()</text>
<text text-anchor="start" x="20.4473" y="-615" font-family="Helvetica,sans-Serif" font-size="10.00"># set_flag()</text>
</a>
</g>
</g>
<!-- Node5&#45;&gt;Node4 -->
<g id="edge4" class="edge"><title>Node5&#45;&gt;Node4</title>
<path fill="none" stroke="midnightblue" d="M72,-598.544C72,-589.204 72,-580.007 72,-571.241"/>
<polygon fill="none" stroke="midnightblue" points="68.5001,-598.721 72,-608.721 75.5001,-598.721 68.5001,-598.721"/>
</g>
</g>
</svg>
