<?xml version="1.0" encoding="UTF-8" standalone="no"?>
<!DOCTYPE svg PUBLIC "-//W3C//DTD SVG 1.1//EN"
 "http://www.w3.org/Graphics/SVG/1.1/DTD/svg11.dtd">
<!-- Generated by graphviz version 2.36.0 (20140111.2315)
 -->
<!-- Title: calc::Ema_u32 Pages: 1 -->
<svg width="186pt" height="524pt"
 viewBox="0.00 0.00 186.00 524.00" xmlns="http://www.w3.org/2000/svg" xmlns:xlink="http://www.w3.org/1999/xlink">
<g id="graph0" class="graph" transform="scale(1 1) rotate(0) translate(4 520)">
<title>calc::Ema_u32</title>
<!-- Node1 -->
<g id="node1" class="node"><title>Node1</title>
<polygon fill="#bfbfbf" stroke="black" points="13.9263,-1 13.9263,-55 96.0737,-55 96.0737,-1 13.9263,-1"/>
<text text-anchor="middle" x="55" y="-43" font-family="Helvetica,sans-Serif" font-size="10.00">calc::Ema_u32</text>
<polyline fill="none" stroke="black" points="13.9263,-37 96.0737,-37 "/>
<text text-anchor="middle" x="55" y="-25" font-family="Helvetica,sans-Serif" font-size="10.00"> </text>
<polyline fill="none" stroke="black" points="13.9263,-19 96.0737,-19 "/>
<text text-anchor="start" x="21.9263" y="-7" font-family="Helvetica,sans-Serif" font-size="10.00">+ Ema_u32()</text>
</g>
<!-- Node2 -->
<g id="node2" class="node"><title>Node2</title>
<g id="a_node2"><a xlink:href="classcalc_1_1_ema.html" target="_top" xlink:title="{calc::Ema\&lt; u16, u32,\l u64 \&gt;\n||+ Ema()\l+ average()\l+ calc()\l+ set_average()\l+ small_max()\l}">
<polygon fill="none" stroke="black" points="-0.111816,-95 -0.111816,-199 110.112,-199 110.112,-95 -0.111816,-95"/>
<text text-anchor="start" x="7.88818" y="-187" font-family="Helvetica,sans-Serif" font-size="10.00">calc::Ema&lt; u16, u32,</text>
<text text-anchor="middle" x="55" y="-177" font-family="Helvetica,sans-Serif" font-size="10.00"> u64 &gt;</text>
<polyline fill="none" stroke="black" points="-0.111816,-171 110.112,-171 "/>
<text text-anchor="middle" x="55" y="-159" font-family="Helvetica,sans-Serif" font-size="10.00"> </text>
<polyline fill="none" stroke="black" points="-0.111816,-153 110.112,-153 "/>
<text text-anchor="start" x="7.88818" y="-141" font-family="Helvetica,sans-Serif" font-size="10.00">+ Ema()</text>
<text text-anchor="start" x="7.88818" y="-131" font-family="Helvetica,sans-Serif" font-size="10.00">+ average()</text>
<text text-anchor="start" x="7.88818" y="-121" font-family="Helvetica,sans-Serif" font-size="10.00">+ calc()</text>
<text text-anchor="start" x="7.88818" y="-111" font-family="Helvetica,sans-Serif" font-size="10.00">+ set_average()</text>
<text text-anchor="start" x="7.88818" y="-101" font-family="Helvetica,sans-Serif" font-size="10.00">+ small_max()</text>
</a>
</g>
</g>
<!-- Node2&#45;&gt;Node1 -->
<g id="edge1" class="edge"><title>Node2&#45;&gt;Node1</title>
<path fill="none" stroke="midnightblue" d="M55,-84.4073C55,-74.1278 55,-63.9761 55,-55.2263"/>
<polygon fill="none" stroke="midnightblue" points="51.5001,-84.6821 55,-94.6821 58.5001,-84.6821 51.5001,-84.6821"/>
</g>
<!-- Node3 -->
<g id="node3" class="node"><title>Node3</title>
<g id="a_node3"><a xlink:href="classapi_1_1_s_object.html" target="_top" xlink:title="SObject Class. ">
<polygon fill="none" stroke="black" points="8.80811,-391 8.80811,-515 123.192,-515 123.192,-391 8.80811,-391"/>
<text text-anchor="middle" x="66" y="-503" font-family="Helvetica,sans-Serif" font-size="10.00">api::SObject</text>
<polyline fill="none" stroke="black" points="8.80811,-497 123.192,-497 "/>
<text text-anchor="middle" x="66" y="-485" font-family="Helvetica,sans-Serif" font-size="10.00"> </text>
<polyline fill="none" stroke="black" points="8.80811,-479 123.192,-479 "/>
<text text-anchor="start" x="16.8081" y="-467" font-family="Helvetica,sans-Serif" font-size="10.00">+ SObject()</text>
<text text-anchor="start" x="16.8081" y="-457" font-family="Helvetica,sans-Serif" font-size="10.00">+ api_version()</text>
<text text-anchor="start" x="16.8081" y="-447" font-family="Helvetica,sans-Serif" font-size="10.00">+ clear_error()</text>
<text text-anchor="start" x="16.8081" y="-437" font-family="Helvetica,sans-Serif" font-size="10.00">+ error_number()</text>
<text text-anchor="start" x="16.8081" y="-427" font-family="Helvetica,sans-Serif" font-size="10.00">+ exit_fatal()</text>
<text text-anchor="start" x="16.8081" y="-417" font-family="Helvetica,sans-Serif" font-size="10.00"># set_error_number()</text>
<text text-anchor="start" x="16.8081" y="-407" font-family="Helvetica,sans-Serif" font-size="10.00"># set_error_number_if</text>
<text text-anchor="start" x="16.8081" y="-397" font-family="Helvetica,sans-Serif" font-size="10.00">_error()</text>
</a>
</g>
</g>
<!-- Node3&#45;&gt;Node2 -->
<g id="edge2" class="edge"><title>Node3&#45;&gt;Node2</title>
<path fill="none" stroke="midnightblue" d="M59.7404,-380.915C59.0529,-371.205 58.4428,-361.361 58,-352 55.5398,-299.99 54.9158,-240.446 54.8304,-199.169"/>
<polygon fill="none" stroke="midnightblue" points="56.2551,-381.244 60.4811,-390.96 63.2361,-380.73 56.2551,-381.244"/>
</g>
<!-- Node4 -->
<g id="node4" class="node"><title>Node4</title>
<g id="a_node4"><a xlink:href="classcalc_1_1_ema.html" target="_top" xlink:title="Exponential Moving Average template class. ">
<polygon fill="none" stroke="black" points="67.0605,-247 67.0605,-351 178.939,-351 178.939,-247 67.0605,-247"/>
<text text-anchor="start" x="75.0605" y="-339" font-family="Helvetica,sans-Serif" font-size="10.00">calc::Ema&lt; intsmall,</text>
<text text-anchor="middle" x="123" y="-329" font-family="Helvetica,sans-Serif" font-size="10.00"> intmedium, intlarge &gt;</text>
<polyline fill="none" stroke="black" points="67.0605,-323 178.939,-323 "/>
<text text-anchor="middle" x="123" y="-311" font-family="Helvetica,sans-Serif" font-size="10.00"> </text>
<polyline fill="none" stroke="black" points="67.0605,-305 178.939,-305 "/>
<text text-anchor="start" x="75.0605" y="-293" font-family="Helvetica,sans-Serif" font-size="10.00">+ Ema()</text>
<text text-anchor="start" x="75.0605" y="-283" font-family="Helvetica,sans-Serif" font-size="10.00">+ average()</text>
<text text-anchor="start" x="75.0605" y="-273" font-family="Helvetica,sans-Serif" font-size="10.00">+ calc()</text>
<text text-anchor="start" x="75.0605" y="-263" font-family="Helvetica,sans-Serif" font-size="10.00">+ set_average()</text>
<text text-anchor="start" x="75.0605" y="-253" font-family="Helvetica,sans-Serif" font-size="10.00">+ small_max()</text>
</a>
</g>
</g>
<!-- Node3&#45;&gt;Node4 -->
<g id="edge4" class="edge"><title>Node3&#45;&gt;Node4</title>
<path fill="none" stroke="midnightblue" d="M92.5974,-381.074C96.352,-371.061 100.151,-360.931 103.732,-351.382"/>
<polygon fill="none" stroke="midnightblue" points="89.2539,-380.022 89.0198,-390.614 95.8082,-382.48 89.2539,-380.022"/>
</g>
<!-- Node4&#45;&gt;Node2 -->
<g id="edge3" class="edge"><title>Node4&#45;&gt;Node2</title>
<path fill="none" stroke="orange" d="M95.641,-237.649C89.8668,-224.912 83.8267,-211.588 78.2223,-199.226"/>
<polygon fill="orange" stroke="orange" points="92.4718,-239.135 99.7884,-246.798 98.8473,-236.245 92.4718,-239.135"/>
<text text-anchor="middle" x="131.591" y="-220" font-family="Helvetica,sans-Serif" font-size="10.00"> &lt; u16, u32, u64 &gt;</text>
</g>
</g>
</svg>
