<?xml version="1.0" encoding="UTF-8" standalone="no"?>
<!DOCTYPE svg PUBLIC "-//W3C//DTD SVG 1.1//EN"
 "http://www.w3.org/Graphics/SVG/1.1/DTD/svg11.dtd">
<!-- Generated by graphviz version 2.36.0 (20140111.2315)
 -->
<!-- Title: ui::PinButton Pages: 1 -->
<svg width="272pt" height="2094pt"
 viewBox="0.00 0.00 271.68 2094.00" xmlns="http://www.w3.org/2000/svg" xmlns:xlink="http://www.w3.org/1999/xlink">
<g id="graph0" class="graph" transform="scale(1 1) rotate(0) translate(4 2090)">
<title>ui::PinButton</title>
<!-- Node1 -->
<g id="node1" class="node"><title>Node1</title>
<polygon fill="#bfbfbf" stroke="black" points="26.6074,-1 26.6074,-155 137.393,-155 137.393,-1 26.6074,-1"/>
<text text-anchor="middle" x="82" y="-143" font-family="Helvetica,sans-Serif" font-size="10.00">ui::PinButton</text>
<polyline fill="none" stroke="black" points="26.6074,-137 137.393,-137 "/>
<text text-anchor="middle" x="82" y="-125" font-family="Helvetica,sans-Serif" font-size="10.00"> </text>
<polyline fill="none" stroke="black" points="26.6074,-119 137.393,-119 "/>
<text text-anchor="start" x="34.6074" y="-107" font-family="Helvetica,sans-Serif" font-size="10.00">+ PinButton()</text>
<text text-anchor="start" x="34.6074" y="-97" font-family="Helvetica,sans-Serif" font-size="10.00">+ active_value()</text>
<text text-anchor="start" x="34.6074" y="-87" font-family="Helvetica,sans-Serif" font-size="10.00">+ event_id()</text>
<text text-anchor="start" x="34.6074" y="-77" font-family="Helvetica,sans-Serif" font-size="10.00">+ get_actuated()</text>
<text text-anchor="start" x="34.6074" y="-67" font-family="Helvetica,sans-Serif" font-size="10.00">+ get_duration()</text>
<text text-anchor="start" x="34.6074" y="-57" font-family="Helvetica,sans-Serif" font-size="10.00">+ get_held()</text>
<text text-anchor="start" x="34.6074" y="-47" font-family="Helvetica,sans-Serif" font-size="10.00">and 6 more...</text>
<text text-anchor="start" x="34.6074" y="-37" font-family="Helvetica,sans-Serif" font-size="10.00">+ held_duration()</text>
<text text-anchor="start" x="34.6074" y="-27" font-family="Helvetica,sans-Serif" font-size="10.00">+ set_held_duration()</text>
<text text-anchor="start" x="34.6074" y="-17" font-family="Helvetica,sans-Serif" font-size="10.00"># get_is_active()</text>
<text text-anchor="start" x="34.6074" y="-7" font-family="Helvetica,sans-Serif" font-size="10.00"># update()</text>
</g>
<!-- Node2 -->
<g id="node2" class="node"><title>Node2</title>
<g id="a_node2"><a xlink:href="classui_1_1_button.html" target="_top" xlink:title="Button Class. ">
<polygon fill="none" stroke="black" points="-0.168457,-1351 -0.168457,-1485 116.168,-1485 116.168,-1351 -0.168457,-1351"/>
<text text-anchor="middle" x="58" y="-1473" font-family="Helvetica,sans-Serif" font-size="10.00">ui::Button</text>
<polyline fill="none" stroke="black" points="-0.168457,-1467 116.168,-1467 "/>
<text text-anchor="middle" x="58" y="-1455" font-family="Helvetica,sans-Serif" font-size="10.00"> </text>
<polyline fill="none" stroke="black" points="-0.168457,-1449 116.168,-1449 "/>
<text text-anchor="start" x="7.83154" y="-1437" font-family="Helvetica,sans-Serif" font-size="10.00">+ event()</text>
<text text-anchor="start" x="7.83154" y="-1427" font-family="Helvetica,sans-Serif" font-size="10.00">+ event_id()</text>
<text text-anchor="start" x="7.83154" y="-1417" font-family="Helvetica,sans-Serif" font-size="10.00">+ get_actuated()</text>
<text text-anchor="start" x="7.83154" y="-1407" font-family="Helvetica,sans-Serif" font-size="10.00">+ get_duration()</text>
<text text-anchor="start" x="7.83154" y="-1397" font-family="Helvetica,sans-Serif" font-size="10.00">+ get_event()</text>
<text text-anchor="start" x="7.83154" y="-1387" font-family="Helvetica,sans-Serif" font-size="10.00">+ get_held()</text>
<text text-anchor="start" x="7.83154" y="-1377" font-family="Helvetica,sans-Serif" font-size="10.00">and 4 more...</text>
<text text-anchor="start" x="7.83154" y="-1367" font-family="Helvetica,sans-Serif" font-size="10.00">+ max_held_duration()</text>
<text text-anchor="start" x="7.83154" y="-1357" font-family="Helvetica,sans-Serif" font-size="10.00"># update()</text>
</a>
</g>
</g>
<!-- Node2&#45;&gt;Node1 -->
<g id="edge1" class="edge"><title>Node2&#45;&gt;Node1</title>
<path fill="none" stroke="midnightblue" d="M58,-1340.61C58,-1314.42 58,-1284.93 58,-1258 58,-1258 58,-1258 58,-251 58,-219.493 61.9991,-185.048 66.7324,-155.314"/>
<polygon fill="none" stroke="midnightblue" points="54.5001,-1340.86 58,-1350.86 61.5001,-1340.86 54.5001,-1340.86"/>
</g>
<!-- Node3 -->
<g id="node3" class="node"><title>Node3</title>
<g id="a_node3"><a xlink:href="classapi_1_1_ui_work_object.html" target="_top" xlink:title="User Interface Work Object Class. ">
<polygon fill="none" stroke="black" points="9.7998,-1689 9.7998,-1743 106.2,-1743 106.2,-1689 9.7998,-1689"/>
<text text-anchor="middle" x="58" y="-1731" font-family="Helvetica,sans-Serif" font-size="10.00">api::UiWorkObject</text>
<polyline fill="none" stroke="black" points="9.7998,-1725 106.2,-1725 "/>
<text text-anchor="middle" x="58" y="-1713" font-family="Helvetica,sans-Serif" font-size="10.00"> </text>
<polyline fill="none" stroke="black" points="9.7998,-1707 106.2,-1707 "/>
<text text-anchor="middle" x="58" y="-1695" font-family="Helvetica,sans-Serif" font-size="10.00"> </text>
</a>
</g>
</g>
<!-- Node3&#45;&gt;Node2 -->
<g id="edge2" class="edge"><title>Node3&#45;&gt;Node2</title>
<path fill="none" stroke="midnightblue" d="M58,-1678.75C58,-1630.65 58,-1544.85 58,-1485.08"/>
<polygon fill="none" stroke="midnightblue" points="54.5001,-1678.99 58,-1688.99 61.5001,-1678.99 54.5001,-1678.99"/>
</g>
<!-- Node4 -->
<g id="node4" class="node"><title>Node4</title>
<g id="a_node4"><a xlink:href="classapi_1_1_work_object.html" target="_top" xlink:title="WorkObject Class. ">
<polygon fill="none" stroke="black" points="10.4521,-1857 10.4521,-1991 129.548,-1991 129.548,-1857 10.4521,-1857"/>
<text text-anchor="middle" x="70" y="-1979" font-family="Helvetica,sans-Serif" font-size="10.00">api::WorkObject</text>
<polyline fill="none" stroke="black" points="10.4521,-1973 129.548,-1973 "/>
<text text-anchor="middle" x="70" y="-1961" font-family="Helvetica,sans-Serif" font-size="10.00"> </text>
<polyline fill="none" stroke="black" points="10.4521,-1955 129.548,-1955 "/>
<text text-anchor="start" x="18.4521" y="-1943" font-family="Helvetica,sans-Serif" font-size="10.00">+ WorkObject()</text>
<text text-anchor="start" x="18.4521" y="-1933" font-family="Helvetica,sans-Serif" font-size="10.00">+ clear_error_number()</text>
<text text-anchor="start" x="18.4521" y="-1923" font-family="Helvetica,sans-Serif" font-size="10.00">+ error_number()</text>
<text text-anchor="start" x="18.4521" y="-1913" font-family="Helvetica,sans-Serif" font-size="10.00">+ exit_fatal()</text>
<text text-anchor="start" x="18.4521" y="-1903" font-family="Helvetica,sans-Serif" font-size="10.00"># set_error_number()</text>
<text text-anchor="start" x="18.4521" y="-1893" font-family="Helvetica,sans-Serif" font-size="10.00"># set_error_number_if</text>
<text text-anchor="start" x="18.4521" y="-1883" font-family="Helvetica,sans-Serif" font-size="10.00">_error()</text>
<text text-anchor="start" x="18.4521" y="-1873" font-family="Helvetica,sans-Serif" font-size="10.00"># set_error_number_to</text>
<text text-anchor="start" x="18.4521" y="-1863" font-family="Helvetica,sans-Serif" font-size="10.00">_errno()</text>
</a>
</g>
</g>
<!-- Node4&#45;&gt;Node3 -->
<g id="edge3" class="edge"><title>Node4&#45;&gt;Node3</title>
<path fill="none" stroke="midnightblue" d="M65.5627,-1846.83C63.4379,-1810.35 61.0321,-1769.05 59.5159,-1743.02"/>
<polygon fill="none" stroke="midnightblue" points="62.0779,-1847.19 66.1536,-1856.97 69.0661,-1846.78 62.0779,-1847.19"/>
</g>
<!-- Node13 -->
<g id="node13" class="node"><title>Node13</title>
<g id="a_node13"><a xlink:href="classapi_1_1_sys_work_object.html" target="_top" xlink:title="System Work Object Class. ">
<polygon fill="none" stroke="black" points="86.1865,-1763 86.1865,-1817 189.813,-1817 189.813,-1763 86.1865,-1763"/>
<text text-anchor="middle" x="138" y="-1805" font-family="Helvetica,sans-Serif" font-size="10.00">api::SysWorkObject</text>
<polyline fill="none" stroke="black" points="86.1865,-1799 189.813,-1799 "/>
<text text-anchor="middle" x="138" y="-1787" font-family="Helvetica,sans-Serif" font-size="10.00"> </text>
<polyline fill="none" stroke="black" points="86.1865,-1781 189.813,-1781 "/>
<text text-anchor="middle" x="138" y="-1769" font-family="Helvetica,sans-Serif" font-size="10.00"> </text>
</a>
</g>
</g>
<!-- Node4&#45;&gt;Node13 -->
<g id="edge13" class="edge"><title>Node4&#45;&gt;Node13</title>
<path fill="none" stroke="midnightblue" d="M108.915,-1847.46C114.496,-1836.63 119.895,-1826.14 124.496,-1817.21"/>
<polygon fill="none" stroke="midnightblue" points="105.667,-1846.12 104.199,-1856.61 111.89,-1849.33 105.667,-1846.12"/>
</g>
<!-- Node5 -->
<g id="node5" class="node"><title>Node5</title>
<g id="a_node5"><a xlink:href="classapi_1_1_api_object.html" target="_top" xlink:title="API Object Class. ">
<polygon fill="none" stroke="black" points="28.7896,-2031 28.7896,-2085 111.21,-2085 111.21,-2031 28.7896,-2031"/>
<text text-anchor="middle" x="70" y="-2073" font-family="Helvetica,sans-Serif" font-size="10.00">api::ApiObject</text>
<polyline fill="none" stroke="black" points="28.7896,-2067 111.21,-2067 "/>
<text text-anchor="middle" x="70" y="-2055" font-family="Helvetica,sans-Serif" font-size="10.00"> </text>
<polyline fill="none" stroke="black" points="28.7896,-2049 111.21,-2049 "/>
<text text-anchor="start" x="36.7896" y="-2037" font-family="Helvetica,sans-Serif" font-size="10.00">+ api_version()</text>
</a>
</g>
</g>
<!-- Node5&#45;&gt;Node4 -->
<g id="edge4" class="edge"><title>Node5&#45;&gt;Node4</title>
<path fill="none" stroke="midnightblue" d="M70,-2020.66C70,-2011.5 70,-2001.38 70,-1991.24"/>
<polygon fill="none" stroke="midnightblue" points="66.5001,-2020.92 70,-2030.92 73.5001,-2020.92 66.5001,-2020.92"/>
</g>
<!-- Node6 -->
<g id="node6" class="node"><title>Node6</title>
<g id="a_node6"><a xlink:href="classhal_1_1_pin.html" target="_top" xlink:title="Pin class. ">
<polygon fill="none" stroke="black" points="86.8955,-195 86.8955,-309 177.104,-309 177.104,-195 86.8955,-195"/>
<text text-anchor="middle" x="132" y="-297" font-family="Helvetica,sans-Serif" font-size="10.00">hal::Pin</text>
<polyline fill="none" stroke="black" points="86.8955,-291 177.104,-291 "/>
<text text-anchor="middle" x="132" y="-279" font-family="Helvetica,sans-Serif" font-size="10.00"> </text>
<polyline fill="none" stroke="black" points="86.8955,-273 177.104,-273 "/>
<text text-anchor="start" x="94.8955" y="-261" font-family="Helvetica,sans-Serif" font-size="10.00">+ Pin()</text>
<text text-anchor="start" x="94.8955" y="-251" font-family="Helvetica,sans-Serif" font-size="10.00">+ Pin()</text>
<text text-anchor="start" x="94.8955" y="-241" font-family="Helvetica,sans-Serif" font-size="10.00">+ clear()</text>
<text text-anchor="start" x="94.8955" y="-231" font-family="Helvetica,sans-Serif" font-size="10.00">+ get_value()</text>
<text text-anchor="start" x="94.8955" y="-221" font-family="Helvetica,sans-Serif" font-size="10.00">+ init()</text>
<text text-anchor="start" x="94.8955" y="-211" font-family="Helvetica,sans-Serif" font-size="10.00">+ operator bool()</text>
<text text-anchor="start" x="94.8955" y="-201" font-family="Helvetica,sans-Serif" font-size="10.00">and 7 more...</text>
</a>
</g>
</g>
<!-- Node6&#45;&gt;Node1 -->
<g id="edge5" class="edge"><title>Node6&#45;&gt;Node1</title>
<path fill="none" stroke="midnightblue" d="M112.825,-185.039C109.981,-175.255 107.031,-165.105 104.132,-155.134"/>
<polygon fill="none" stroke="midnightblue" points="109.476,-186.055 115.628,-194.681 116.198,-184.101 109.476,-186.055"/>
</g>
<!-- Node7 -->
<g id="node7" class="node"><title>Node7</title>
<g id="a_node7"><a xlink:href="classhal_1_1_pio.html" target="_top" xlink:title="Pin Input/Output Class. ">
<polygon fill="none" stroke="black" points="93.7969,-349 93.7969,-473 176.203,-473 176.203,-349 93.7969,-349"/>
<text text-anchor="middle" x="135" y="-461" font-family="Helvetica,sans-Serif" font-size="10.00">hal::Pio</text>
<polyline fill="none" stroke="black" points="93.7969,-455 176.203,-455 "/>
<text text-anchor="middle" x="135" y="-443" font-family="Helvetica,sans-Serif" font-size="10.00"> </text>
<polyline fill="none" stroke="black" points="93.7969,-437 176.203,-437 "/>
<text text-anchor="start" x="101.797" y="-425" font-family="Helvetica,sans-Serif" font-size="10.00">+ Pio()</text>
<text text-anchor="start" x="101.797" y="-415" font-family="Helvetica,sans-Serif" font-size="10.00">+ assign()</text>
<text text-anchor="start" x="101.797" y="-405" font-family="Helvetica,sans-Serif" font-size="10.00">+ clear_mask()</text>
<text text-anchor="start" x="101.797" y="-395" font-family="Helvetica,sans-Serif" font-size="10.00">+ get_value()</text>
<text text-anchor="start" x="101.797" y="-385" font-family="Helvetica,sans-Serif" font-size="10.00">+ init()</text>
<text text-anchor="start" x="101.797" y="-375" font-family="Helvetica,sans-Serif" font-size="10.00">+ set_attr()</text>
<text text-anchor="start" x="101.797" y="-365" font-family="Helvetica,sans-Serif" font-size="10.00">+ set_mask()</text>
<text text-anchor="start" x="101.797" y="-355" font-family="Helvetica,sans-Serif" font-size="10.00">+ set_value()</text>
</a>
</g>
</g>
<!-- Node7&#45;&gt;Node6 -->
<g id="edge6" class="edge"><title>Node7&#45;&gt;Node6</title>
<path fill="none" stroke="midnightblue" d="M133.636,-338.62C133.447,-328.724 133.255,-318.676 133.072,-309.113"/>
<polygon fill="none" stroke="midnightblue" points="130.141,-338.919 133.832,-348.85 137.14,-338.785 130.141,-338.919"/>
</g>
<!-- Node8 -->
<g id="node8" class="node"><title>Node8</title>
<g id="a_node8"><a xlink:href="classhal_1_1_periph.html" target="_top" xlink:title="{hal::Periph\&lt; pio_info\l_t, pio_attr_t, &#39;p&#39;\&gt;\n||+ Periph()\l+ get_info()\l+ get_version()\l+ init()\l+ port()\l+ set_action()\l+ set_action()\l+ set_attr()\l+ set_attr()\l# get_channel()\l# set_channel()\l# set_channel()\l}">
<polygon fill="none" stroke="black" points="86.2725,-513 86.2725,-687 193.728,-687 193.728,-513 86.2725,-513"/>
<text text-anchor="start" x="94.2725" y="-675" font-family="Helvetica,sans-Serif" font-size="10.00">hal::Periph&lt; pio_info</text>
<text text-anchor="middle" x="140" y="-665" font-family="Helvetica,sans-Serif" font-size="10.00">_t, pio_attr_t, &#39;p&#39;&gt;</text>
<polyline fill="none" stroke="black" points="86.2725,-659 193.728,-659 "/>
<text text-anchor="middle" x="140" y="-647" font-family="Helvetica,sans-Serif" font-size="10.00"> </text>
<polyline fill="none" stroke="black" points="86.2725,-641 193.728,-641 "/>
<text text-anchor="start" x="94.2725" y="-629" font-family="Helvetica,sans-Serif" font-size="10.00">+ Periph()</text>
<text text-anchor="start" x="94.2725" y="-619" font-family="Helvetica,sans-Serif" font-size="10.00">+ get_info()</text>
<text text-anchor="start" x="94.2725" y="-609" font-family="Helvetica,sans-Serif" font-size="10.00">+ get_version()</text>
<text text-anchor="start" x="94.2725" y="-599" font-family="Helvetica,sans-Serif" font-size="10.00">+ init()</text>
<text text-anchor="start" x="94.2725" y="-589" font-family="Helvetica,sans-Serif" font-size="10.00">+ port()</text>
<text text-anchor="start" x="94.2725" y="-579" font-family="Helvetica,sans-Serif" font-size="10.00">+ set_action()</text>
<text text-anchor="start" x="94.2725" y="-569" font-family="Helvetica,sans-Serif" font-size="10.00">+ set_action()</text>
<text text-anchor="start" x="94.2725" y="-559" font-family="Helvetica,sans-Serif" font-size="10.00">+ set_attr()</text>
<text text-anchor="start" x="94.2725" y="-549" font-family="Helvetica,sans-Serif" font-size="10.00">+ set_attr()</text>
<text text-anchor="start" x="94.2725" y="-539" font-family="Helvetica,sans-Serif" font-size="10.00"># get_channel()</text>
<text text-anchor="start" x="94.2725" y="-529" font-family="Helvetica,sans-Serif" font-size="10.00"># set_channel()</text>
<text text-anchor="start" x="94.2725" y="-519" font-family="Helvetica,sans-Serif" font-size="10.00"># set_channel()</text>
</a>
</g>
</g>
<!-- Node8&#45;&gt;Node7 -->
<g id="edge7" class="edge"><title>Node8&#45;&gt;Node7</title>
<path fill="none" stroke="midnightblue" d="M137.428,-502.803C137.158,-492.714 136.889,-482.667 136.635,-473.132"/>
<polygon fill="none" stroke="midnightblue" points="133.931,-502.986 137.698,-512.889 140.929,-502.799 133.931,-502.986"/>
</g>
<!-- Node9 -->
<g id="node9" class="node"><title>Node9</title>
<g id="a_node9"><a xlink:href="classhal_1_1_periph_object.html" target="_top" xlink:title="Periph Object Class. ">
<polygon fill="none" stroke="black" points="91.6455,-959 91.6455,-1123 184.354,-1123 184.354,-959 91.6455,-959"/>
<text text-anchor="middle" x="138" y="-1111" font-family="Helvetica,sans-Serif" font-size="10.00">hal::PeriphObject</text>
<polyline fill="none" stroke="black" points="91.6455,-1105 184.354,-1105 "/>
<text text-anchor="start" x="99.6455" y="-1093" font-family="Helvetica,sans-Serif" font-size="10.00"># m_periph_port</text>
<polyline fill="none" stroke="black" points="91.6455,-1087 184.354,-1087 "/>
<text text-anchor="start" x="99.6455" y="-1075" font-family="Helvetica,sans-Serif" font-size="10.00">+ close()</text>
<text text-anchor="start" x="99.6455" y="-1065" font-family="Helvetica,sans-Serif" font-size="10.00">+ fileno()</text>
<text text-anchor="start" x="99.6455" y="-1055" font-family="Helvetica,sans-Serif" font-size="10.00">+ ioctl()</text>
<text text-anchor="start" x="99.6455" y="-1045" font-family="Helvetica,sans-Serif" font-size="10.00">+ open()</text>
<text text-anchor="start" x="99.6455" y="-1035" font-family="Helvetica,sans-Serif" font-size="10.00">+ read()</text>
<text text-anchor="start" x="99.6455" y="-1025" font-family="Helvetica,sans-Serif" font-size="10.00">+ read()</text>
<text text-anchor="start" x="99.6455" y="-1015" font-family="Helvetica,sans-Serif" font-size="10.00">+ seek()</text>
<text text-anchor="start" x="99.6455" y="-1005" font-family="Helvetica,sans-Serif" font-size="10.00">+ write()</text>
<text text-anchor="start" x="99.6455" y="-995" font-family="Helvetica,sans-Serif" font-size="10.00">+ write()</text>
<text text-anchor="start" x="99.6455" y="-985" font-family="Helvetica,sans-Serif" font-size="10.00"># lookup_fileno()</text>
<text text-anchor="start" x="99.6455" y="-975" font-family="Helvetica,sans-Serif" font-size="10.00"># open()</text>
<text text-anchor="start" x="99.6455" y="-965" font-family="Helvetica,sans-Serif" font-size="10.00"># update_fileno()</text>
</a>
</g>
</g>
<!-- Node9&#45;&gt;Node8 -->
<g id="edge8" class="edge"><title>Node9&#45;&gt;Node8</title>
<path fill="none" stroke="midnightblue" d="M137.67,-948.639C137.541,-890.134 137.52,-812.595 138,-744 138.128,-725.627 138.35,-705.927 138.6,-687.203"/>
<polygon fill="none" stroke="midnightblue" points="134.171,-948.974 137.695,-958.965 141.171,-948.957 134.171,-948.974"/>
</g>
<!-- Node14 -->
<g id="node14" class="node"><title>Node14</title>
<g id="a_node14"><a xlink:href="classhal_1_1_periph.html" target="_top" xlink:title="Peripheral Class. ">
<polygon fill="none" stroke="black" points="146.78,-745 146.78,-919 249.22,-919 249.22,-745 146.78,-745"/>
<text text-anchor="start" x="154.78" y="-907" font-family="Helvetica,sans-Serif" font-size="10.00">hal::Periph&lt; info_t,</text>
<text text-anchor="middle" x="198" y="-897" font-family="Helvetica,sans-Serif" font-size="10.00"> attr_t, ident_char &gt;</text>
<polyline fill="none" stroke="black" points="146.78,-891 249.22,-891 "/>
<text text-anchor="middle" x="198" y="-879" font-family="Helvetica,sans-Serif" font-size="10.00"> </text>
<polyline fill="none" stroke="black" points="146.78,-873 249.22,-873 "/>
<text text-anchor="start" x="154.78" y="-861" font-family="Helvetica,sans-Serif" font-size="10.00">+ Periph()</text>
<text text-anchor="start" x="154.78" y="-851" font-family="Helvetica,sans-Serif" font-size="10.00">+ get_info()</text>
<text text-anchor="start" x="154.78" y="-841" font-family="Helvetica,sans-Serif" font-size="10.00">+ get_version()</text>
<text text-anchor="start" x="154.78" y="-831" font-family="Helvetica,sans-Serif" font-size="10.00">+ init()</text>
<text text-anchor="start" x="154.78" y="-821" font-family="Helvetica,sans-Serif" font-size="10.00">+ port()</text>
<text text-anchor="start" x="154.78" y="-811" font-family="Helvetica,sans-Serif" font-size="10.00">+ set_action()</text>
<text text-anchor="start" x="154.78" y="-801" font-family="Helvetica,sans-Serif" font-size="10.00">+ set_action()</text>
<text text-anchor="start" x="154.78" y="-791" font-family="Helvetica,sans-Serif" font-size="10.00">+ set_attr()</text>
<text text-anchor="start" x="154.78" y="-781" font-family="Helvetica,sans-Serif" font-size="10.00">+ set_attr()</text>
<text text-anchor="start" x="154.78" y="-771" font-family="Helvetica,sans-Serif" font-size="10.00"># get_channel()</text>
<text text-anchor="start" x="154.78" y="-761" font-family="Helvetica,sans-Serif" font-size="10.00"># set_channel()</text>
<text text-anchor="start" x="154.78" y="-751" font-family="Helvetica,sans-Serif" font-size="10.00"># set_channel()</text>
</a>
</g>
</g>
<!-- Node9&#45;&gt;Node14 -->
<g id="edge15" class="edge"><title>Node9&#45;&gt;Node14</title>
<path fill="none" stroke="midnightblue" d="M164.396,-948.934C167.269,-939.021 170.188,-928.953 173.043,-919.102"/>
<polygon fill="none" stroke="midnightblue" points="160.964,-948.203 161.541,-958.782 167.687,-950.152 160.964,-948.203"/>
</g>
<!-- Node10 -->
<g id="node10" class="node"><title>Node10</title>
<g id="a_node10"><a xlink:href="classhal_1_1_device.html" target="_top" xlink:title="Device Class. ">
<polygon fill="none" stroke="black" points="105.266,-1163 105.266,-1237 170.734,-1237 170.734,-1163 105.266,-1163"/>
<text text-anchor="middle" x="138" y="-1225" font-family="Helvetica,sans-Serif" font-size="10.00">hal::Device</text>
<polyline fill="none" stroke="black" points="105.266,-1219 170.734,-1219 "/>
<text text-anchor="middle" x="138" y="-1207" font-family="Helvetica,sans-Serif" font-size="10.00"> </text>
<polyline fill="none" stroke="black" points="105.266,-1201 170.734,-1201 "/>
<text text-anchor="start" x="113.266" y="-1189" font-family="Helvetica,sans-Serif" font-size="10.00">+ Device()</text>
<text text-anchor="start" x="113.266" y="-1179" font-family="Helvetica,sans-Serif" font-size="10.00">+ read()</text>
<text text-anchor="start" x="113.266" y="-1169" font-family="Helvetica,sans-Serif" font-size="10.00">+ write()</text>
</a>
</g>
</g>
<!-- Node10&#45;&gt;Node9 -->
<g id="edge9" class="edge"><title>Node10&#45;&gt;Node9</title>
<path fill="none" stroke="midnightblue" d="M138,-1152.79C138,-1143.46 138,-1133.39 138,-1123.26"/>
<polygon fill="none" stroke="midnightblue" points="134.5,-1152.98 138,-1162.98 141.5,-1152.98 134.5,-1152.98"/>
</g>
<!-- Node11 -->
<g id="node11" class="node"><title>Node11</title>
<g id="a_node11"><a xlink:href="classapi_1_1_hal_work_object.html" target="_top" xlink:title="Hal Object Class. ">
<polygon fill="none" stroke="black" points="87.019,-1277 87.019,-1331 188.981,-1331 188.981,-1277 87.019,-1277"/>
<text text-anchor="middle" x="138" y="-1319" font-family="Helvetica,sans-Serif" font-size="10.00">api::HalWorkObject</text>
<polyline fill="none" stroke="black" points="87.019,-1313 188.981,-1313 "/>
<text text-anchor="middle" x="138" y="-1301" font-family="Helvetica,sans-Serif" font-size="10.00"> </text>
<polyline fill="none" stroke="black" points="87.019,-1295 188.981,-1295 "/>
<text text-anchor="middle" x="138" y="-1283" font-family="Helvetica,sans-Serif" font-size="10.00"> </text>
</a>
</g>
</g>
<!-- Node11&#45;&gt;Node10 -->
<g id="edge10" class="edge"><title>Node11&#45;&gt;Node10</title>
<path fill="none" stroke="midnightblue" d="M138,-1266.95C138,-1257.35 138,-1246.97 138,-1237.35"/>
<polygon fill="none" stroke="midnightblue" points="134.5,-1267 138,-1277 141.5,-1267 134.5,-1267"/>
</g>
<!-- Node12 -->
<g id="node12" class="node"><title>Node12</title>
<g id="a_node12"><a xlink:href="classsys_1_1_file.html" target="_top" xlink:title="File Class. ">
<polygon fill="none" stroke="black" points="97.7588,-1505 97.7588,-1669 178.241,-1669 178.241,-1505 97.7588,-1505"/>
<text text-anchor="middle" x="138" y="-1657" font-family="Helvetica,sans-Serif" font-size="10.00">sys::File</text>
<polyline fill="none" stroke="black" points="97.7588,-1651 178.241,-1651 "/>
<text text-anchor="start" x="105.759" y="-1639" font-family="Helvetica,sans-Serif" font-size="10.00"># m_fd</text>
<polyline fill="none" stroke="black" points="97.7588,-1633 178.241,-1633 "/>
<text text-anchor="start" x="105.759" y="-1621" font-family="Helvetica,sans-Serif" font-size="10.00">+ File()</text>
<text text-anchor="start" x="105.759" y="-1611" font-family="Helvetica,sans-Serif" font-size="10.00">+ close()</text>
<text text-anchor="start" x="105.759" y="-1601" font-family="Helvetica,sans-Serif" font-size="10.00">+ create()</text>
<text text-anchor="start" x="105.759" y="-1591" font-family="Helvetica,sans-Serif" font-size="10.00">+ fileno()</text>
<text text-anchor="start" x="105.759" y="-1581" font-family="Helvetica,sans-Serif" font-size="10.00">+ flags()</text>
<text text-anchor="start" x="105.759" y="-1571" font-family="Helvetica,sans-Serif" font-size="10.00">+ gets()</text>
<text text-anchor="start" x="105.759" y="-1561" font-family="Helvetica,sans-Serif" font-size="10.00">and 21 more...</text>
<text text-anchor="start" x="105.759" y="-1551" font-family="Helvetica,sans-Serif" font-size="10.00">+ name()</text>
<text text-anchor="start" x="105.759" y="-1541" font-family="Helvetica,sans-Serif" font-size="10.00">+ remove()</text>
<text text-anchor="start" x="105.759" y="-1531" font-family="Helvetica,sans-Serif" font-size="10.00">+ size()</text>
<text text-anchor="start" x="105.759" y="-1521" font-family="Helvetica,sans-Serif" font-size="10.00">+ stat()</text>
<text text-anchor="start" x="105.759" y="-1511" font-family="Helvetica,sans-Serif" font-size="10.00">+ suffix()</text>
</a>
</g>
</g>
<!-- Node12&#45;&gt;Node11 -->
<g id="edge11" class="edge"><title>Node12&#45;&gt;Node11</title>
<path fill="none" stroke="midnightblue" d="M138,-1494.6C138,-1437.61 138,-1368.28 138,-1331.27"/>
<polygon fill="none" stroke="midnightblue" points="134.5,-1494.72 138,-1504.72 141.5,-1494.72 134.5,-1494.72"/>
</g>
<!-- Node13&#45;&gt;Node12 -->
<g id="edge12" class="edge"><title>Node13&#45;&gt;Node12</title>
<path fill="none" stroke="midnightblue" d="M138,-1752.6C138,-1729.26 138,-1698.02 138,-1669.03"/>
<polygon fill="none" stroke="midnightblue" points="134.5,-1752.72 138,-1762.72 141.5,-1752.72 134.5,-1752.72"/>
</g>
<!-- Node14&#45;&gt;Node8 -->
<g id="edge14" class="edge"><title>Node14&#45;&gt;Node8</title>
<path fill="none" stroke="orange" d="M173.763,-734.888C169.758,-719.006 165.628,-702.63 161.691,-687.017"/>
<polygon fill="orange" stroke="orange" points="170.399,-735.862 176.238,-744.702 177.186,-734.15 170.399,-735.862"/>
<text text-anchor="start" x="170" y="-718" font-family="Helvetica,sans-Serif" font-size="10.00"> &lt; pio_info_t, pio_attr</text>
<text text-anchor="middle" x="216.838" y="-708" font-family="Helvetica,sans-Serif" font-size="10.00">_t, &#39;p&#39;&gt;</text>
</g>
</g>
</svg>
