<?xml version="1.0" encoding="UTF-8" standalone="no"?>
<!DOCTYPE svg PUBLIC "-//W3C//DTD SVG 1.1//EN"
 "http://www.w3.org/Graphics/SVG/1.1/DTD/svg11.dtd">
<!-- Generated by graphviz version 2.36.0 (20140111.2315)
 -->
<!-- Title: ui::List Pages: 1 -->
<!--zoomable 1328 -->
<svg id="main" version="1.1" xmlns="http://www.w3.org/2000/svg" xmlns:xlink="http://www.w3.org/1999/xlink" xml:space="preserve" onload="init(evt)">
<style type="text/css"><![CDATA[
.edge:hover path { stroke: red; }
.edge:hover polygon { stroke: red; fill: red; }
]]></style>
<script type="text/javascript"><![CDATA[
var edges = document.getElementsByTagName('g');
if (edges && edges.length) {
  for (var i=0;i<edges.length;i++) {
    if (edges[i].id.substr(0,4)=='edge') {
      edges[i].setAttribute('class','edge');
    }
  }
}
]]></script>
        <defs>
                <circle id="rim" cx="0" cy="0" r="7"/>
                <circle id="rim2" cx="0" cy="0" r="3.5"/>
                <g id="zoomPlus">
                        <use xlink:href="#rim" fill="#404040">
                                <set attributeName="fill" to="#808080" begin="zoomplus.mouseover" end="zoomplus.mouseout"/>
                        </use>
                        <path d="M-4,0h8M0,-4v8" fill="none" stroke="white" stroke-width="1.5" pointer-events="none"/>
                </g>
                <g id="zoomMin">
                        <use xlink:href="#rim" fill="#404040">
                                <set attributeName="fill" to="#808080" begin="zoomminus.mouseover" end="zoomminus.mouseout"/>
                        </use>
                        <path d="M-4,0h8" fill="none" stroke="white" stroke-width="1.5" pointer-events="none"/>
                </g>
                <g id="dirArrow">
                        <path fill="none" stroke="white" stroke-width="1.5" d="M0,-3.0v7 M-2.5,-0.5L0,-3.0L2.5,-0.5"/>
                </g>
               <g id="resetDef">
                       <use xlink:href="#rim2" fill="#404040">
                               <set attributeName="fill" to="#808080" begin="reset.mouseover" end="reset.mouseout"/>
                       </use>
               </g>
        </defs>

<script type="text/javascript">
var viewWidth = 312;
var viewHeight = 1328;
var sectionId = 'dynsection-0';
</script>
<script xlink:href="svgpan.js"/>
<svg id="graph" class="graph">
<g id="viewport">
<title>ui::List</title>
<!-- Node1 -->
<g id="node1" class="node"><title>Node1</title>
<polygon fill="#bfbfbf" stroke="black" points="105.387,-163 105.387,-377 262.613,-377 262.613,-163 105.387,-163"/>
<text text-anchor="middle" x="184" y="-365" font-family="Helvetica,sans-Serif" font-size="10.00">ui::List</text>
<polyline fill="none" stroke="black" points="105.387,-359 262.613,-359 "/>
<text text-anchor="start" x="113.387" y="-347" font-family="Helvetica,sans-Serif" font-size="10.00"># m_draw_animation_item</text>
<text text-anchor="start" x="113.387" y="-337" font-family="Helvetica,sans-Serif" font-size="10.00"># m_draw_animation_offset</text>
<text text-anchor="start" x="113.387" y="-327" font-family="Helvetica,sans-Serif" font-size="10.00"># m_scroll_animation</text>
<text text-anchor="start" x="113.387" y="-317" font-family="Helvetica,sans-Serif" font-size="10.00"># m_scroll_timer</text>
<text text-anchor="start" x="113.387" y="-307" font-family="Helvetica,sans-Serif" font-size="10.00"># m_select_top_bottom</text>
<polyline fill="none" stroke="black" points="105.387,-301 262.613,-301 "/>
<text text-anchor="start" x="113.387" y="-289" font-family="Helvetica,sans-Serif" font-size="10.00">+ List()</text>
<text text-anchor="start" x="113.387" y="-279" font-family="Helvetica,sans-Serif" font-size="10.00">+ at()</text>
<text text-anchor="start" x="113.387" y="-269" font-family="Helvetica,sans-Serif" font-size="10.00">+ current()</text>
<text text-anchor="start" x="113.387" y="-259" font-family="Helvetica,sans-Serif" font-size="10.00">+ draw_item_to_scale()</text>
<text text-anchor="start" x="113.387" y="-249" font-family="Helvetica,sans-Serif" font-size="10.00">+ draw_to_scale()</text>
<text text-anchor="start" x="113.387" y="-239" font-family="Helvetica,sans-Serif" font-size="10.00">+ handle_event()</text>
<text text-anchor="start" x="113.387" y="-229" font-family="Helvetica,sans-Serif" font-size="10.00"># animate_scroll()</text>
<text text-anchor="start" x="113.387" y="-219" font-family="Helvetica,sans-Serif" font-size="10.00"># handle_down_button</text>
<text text-anchor="start" x="113.387" y="-209" font-family="Helvetica,sans-Serif" font-size="10.00">_actuation()</text>
<text text-anchor="start" x="113.387" y="-199" font-family="Helvetica,sans-Serif" font-size="10.00"># handle_select_button</text>
<text text-anchor="start" x="113.387" y="-189" font-family="Helvetica,sans-Serif" font-size="10.00">_actuation()</text>
<text text-anchor="start" x="113.387" y="-179" font-family="Helvetica,sans-Serif" font-size="10.00"># handle_up_button_actuation()</text>
<text text-anchor="start" x="113.387" y="-169" font-family="Helvetica,sans-Serif" font-size="10.00"># init()</text>
</g>
<!-- Node11 -->
<g id="node11" class="node"><title>Node11</title>
<g id="a_node11"><a xlink:href="classui_1_1_dir_list.html" target="_top" xlink:title="Directory List Class. ">
<polygon fill="none" stroke="black" points="81.6245,-1 81.6245,-125 182.375,-125 182.375,-1 81.6245,-1"/>
<text text-anchor="middle" x="132" y="-113" font-family="Helvetica,sans-Serif" font-size="10.00">ui::DirList</text>
<polyline fill="none" stroke="black" points="81.6245,-107 182.375,-107 "/>
<text text-anchor="middle" x="132" y="-95" font-family="Helvetica,sans-Serif" font-size="10.00"> </text>
<polyline fill="none" stroke="black" points="81.6245,-89 182.375,-89 "/>
<text text-anchor="start" x="89.6245" y="-77" font-family="Helvetica,sans-Serif" font-size="10.00">+ DirList()</text>
<text text-anchor="start" x="89.6245" y="-67" font-family="Helvetica,sans-Serif" font-size="10.00">+ ~DirList()</text>
<text text-anchor="start" x="89.6245" y="-57" font-family="Helvetica,sans-Serif" font-size="10.00">+ at()</text>
<text text-anchor="start" x="89.6245" y="-47" font-family="Helvetica,sans-Serif" font-size="10.00">+ dir()</text>
<text text-anchor="start" x="89.6245" y="-37" font-family="Helvetica,sans-Serif" font-size="10.00">+ handle_event()</text>
<text text-anchor="start" x="89.6245" y="-27" font-family="Helvetica,sans-Serif" font-size="10.00">+ is_suffix_visible()</text>
<text text-anchor="start" x="89.6245" y="-17" font-family="Helvetica,sans-Serif" font-size="10.00">and 6 more...</text>
<text text-anchor="start" x="89.6245" y="-7" font-family="Helvetica,sans-Serif" font-size="10.00"># set_size()</text>
</a>
</g>
</g>
<!-- Node1&#45;&gt;Node11 -->
<g id="edge11" class="edge"><title>Node1&#45;&gt;Node11</title>
<path fill="none" stroke="midnightblue" d="M154.563,-152.952C152.153,-143.45 149.783,-134.106 147.538,-125.255"/>
<polygon fill="none" stroke="midnightblue" points="151.235,-154.065 157.086,-162.897 158.02,-152.344 151.235,-154.065"/>
</g>
<!-- Node12 -->
<g id="node12" class="node"><title>Node12</title>
<g id="a_node12"><a xlink:href="classui_1_1_menu_list.html" target="_top" xlink:title="Menu List Class. ">
<polygon fill="none" stroke="black" points="200.073,-21 200.073,-105 271.927,-105 271.927,-21 200.073,-21"/>
<text text-anchor="middle" x="236" y="-93" font-family="Helvetica,sans-Serif" font-size="10.00">ui::MenuList</text>
<polyline fill="none" stroke="black" points="200.073,-87 271.927,-87 "/>
<text text-anchor="middle" x="236" y="-75" font-family="Helvetica,sans-Serif" font-size="10.00"> </text>
<polyline fill="none" stroke="black" points="200.073,-69 271.927,-69 "/>
<text text-anchor="start" x="208.073" y="-57" font-family="Helvetica,sans-Serif" font-size="10.00">+ MenuList()</text>
<text text-anchor="start" x="208.073" y="-47" font-family="Helvetica,sans-Serif" font-size="10.00">+ at()</text>
<text text-anchor="start" x="208.073" y="-37" font-family="Helvetica,sans-Serif" font-size="10.00">+ back()</text>
<text text-anchor="start" x="208.073" y="-27" font-family="Helvetica,sans-Serif" font-size="10.00">+ size()</text>
</a>
</g>
</g>
<!-- Node1&#45;&gt;Node12 -->
<g id="edge12" class="edge"><title>Node1&#45;&gt;Node12</title>
<path fill="none" stroke="midnightblue" d="M213.468,-152.829C217.786,-135.806 221.974,-119.294 225.544,-105.219"/>
<polygon fill="none" stroke="midnightblue" points="209.98,-152.344 210.914,-162.897 216.765,-154.065 209.98,-152.344"/>
</g>
<!-- Node2 -->
<g id="node2" class="node"><title>Node2</title>
<g id="a_node2"><a xlink:href="classui_1_1_linked_element.html" target="_top" xlink:title="Linked Element. ">
<polygon fill="none" stroke="black" points="73.2847,-415 73.2847,-529 170.715,-529 170.715,-415 73.2847,-415"/>
<text text-anchor="middle" x="122" y="-517" font-family="Helvetica,sans-Serif" font-size="10.00">ui::LinkedElement</text>
<polyline fill="none" stroke="black" points="73.2847,-511 170.715,-511 "/>
<text text-anchor="middle" x="122" y="-499" font-family="Helvetica,sans-Serif" font-size="10.00"> </text>
<polyline fill="none" stroke="black" points="73.2847,-493 170.715,-493 "/>
<text text-anchor="start" x="81.2847" y="-481" font-family="Helvetica,sans-Serif" font-size="10.00">+ LinkedElement()</text>
<text text-anchor="start" x="81.2847" y="-471" font-family="Helvetica,sans-Serif" font-size="10.00">+ LinkedElement()</text>
<text text-anchor="start" x="81.2847" y="-461" font-family="Helvetica,sans-Serif" font-size="10.00">+ child()</text>
<text text-anchor="start" x="81.2847" y="-451" font-family="Helvetica,sans-Serif" font-size="10.00">+ handle_event()</text>
<text text-anchor="start" x="81.2847" y="-441" font-family="Helvetica,sans-Serif" font-size="10.00">+ parent()</text>
<text text-anchor="start" x="81.2847" y="-431" font-family="Helvetica,sans-Serif" font-size="10.00">+ set_child()</text>
<text text-anchor="start" x="81.2847" y="-421" font-family="Helvetica,sans-Serif" font-size="10.00">+ set_parent()</text>
</a>
</g>
</g>
<!-- Node2&#45;&gt;Node1 -->
<g id="edge1" class="edge"><title>Node2&#45;&gt;Node1</title>
<path fill="none" stroke="midnightblue" d="M142.408,-405.168C145.199,-396.165 148.12,-386.741 151.065,-377.243"/>
<polygon fill="none" stroke="midnightblue" points="139.053,-404.169 139.435,-414.757 145.74,-406.241 139.053,-404.169"/>
</g>
<!-- Node3 -->
<g id="node3" class="node"><title>Node3</title>
<g id="a_node3"><a xlink:href="classui_1_1_element.html" target="_top" xlink:title="Element Class. ">
<polygon fill="none" stroke="black" points="54.3857,-567 54.3857,-701 189.614,-701 189.614,-567 54.3857,-567"/>
<text text-anchor="middle" x="122" y="-689" font-family="Helvetica,sans-Serif" font-size="10.00">ui::Element</text>
<polyline fill="none" stroke="black" points="54.3857,-683 189.614,-683 "/>
<text text-anchor="start" x="62.3857" y="-671" font-family="Helvetica,sans-Serif" font-size="10.00"># m_animation_attr</text>
<polyline fill="none" stroke="black" points="54.3857,-665 189.614,-665 "/>
<text text-anchor="start" x="62.3857" y="-653" font-family="Helvetica,sans-Serif" font-size="10.00">+ Element()</text>
<text text-anchor="start" x="62.3857" y="-643" font-family="Helvetica,sans-Serif" font-size="10.00">+ animation_attr()</text>
<text text-anchor="start" x="62.3857" y="-633" font-family="Helvetica,sans-Serif" font-size="10.00">+ animation_frame_delay()</text>
<text text-anchor="start" x="62.3857" y="-623" font-family="Helvetica,sans-Serif" font-size="10.00">+ animation_path()</text>
<text text-anchor="start" x="62.3857" y="-613" font-family="Helvetica,sans-Serif" font-size="10.00">+ animation_type()</text>
<text text-anchor="start" x="62.3857" y="-603" font-family="Helvetica,sans-Serif" font-size="10.00">+ handle_event()</text>
<text text-anchor="start" x="62.3857" y="-593" font-family="Helvetica,sans-Serif" font-size="10.00">and 21 more...</text>
<text text-anchor="start" x="62.3857" y="-583" font-family="Helvetica,sans-Serif" font-size="10.00"># adjust_x_center()</text>
<text text-anchor="start" x="62.3857" y="-573" font-family="Helvetica,sans-Serif" font-size="10.00"># draw_scroll()</text>
</a>
</g>
</g>
<!-- Node3&#45;&gt;Node2 -->
<g id="edge2" class="edge"><title>Node3&#45;&gt;Node2</title>
<path fill="none" stroke="midnightblue" d="M122,-556.907C122,-547.558 122,-538.139 122,-529.16"/>
<polygon fill="none" stroke="midnightblue" points="118.5,-556.998 122,-566.998 125.5,-556.998 118.5,-556.998"/>
</g>
<!-- Node4 -->
<g id="node4" class="node"><title>Node4</title>
<g id="a_node4"><a xlink:href="classdraw_1_1_drawing.html" target="_top" xlink:title="Drawing Class. ">
<polygon fill="none" stroke="black" points="-0.552734,-739 -0.552734,-963 118.553,-963 118.553,-739 -0.552734,-739"/>
<text text-anchor="middle" x="59" y="-951" font-family="Helvetica,sans-Serif" font-size="10.00">draw::Drawing</text>
<polyline fill="none" stroke="black" points="-0.552734,-945 118.553,-945 "/>
<text text-anchor="middle" x="59" y="-933" font-family="Helvetica,sans-Serif" font-size="10.00"> </text>
<polyline fill="none" stroke="black" points="-0.552734,-927 118.553,-927 "/>
<text text-anchor="start" x="7.44727" y="-915" font-family="Helvetica,sans-Serif" font-size="10.00">+ Drawing()</text>
<text text-anchor="start" x="7.44727" y="-905" font-family="Helvetica,sans-Serif" font-size="10.00">+ dark()</text>
<text text-anchor="start" x="7.44727" y="-895" font-family="Helvetica,sans-Serif" font-size="10.00">+ draw()</text>
<text text-anchor="start" x="7.44727" y="-885" font-family="Helvetica,sans-Serif" font-size="10.00">+ draw()</text>
<text text-anchor="start" x="7.44727" y="-875" font-family="Helvetica,sans-Serif" font-size="10.00">+ draw_scratch()</text>
<text text-anchor="start" x="7.44727" y="-865" font-family="Helvetica,sans-Serif" font-size="10.00">+ draw_to_scale()</text>
<text text-anchor="start" x="7.44727" y="-855" font-family="Helvetica,sans-Serif" font-size="10.00">and 18 more...</text>
<text text-anchor="start" x="7.44727" y="-845" font-family="Helvetica,sans-Serif" font-size="10.00">+ clear()</text>
<text text-anchor="start" x="7.44727" y="-835" font-family="Helvetica,sans-Serif" font-size="10.00">+ draw_checkerboard()</text>
<text text-anchor="start" x="7.44727" y="-825" font-family="Helvetica,sans-Serif" font-size="10.00">+ draw_pattern()</text>
<text text-anchor="start" x="7.44727" y="-815" font-family="Helvetica,sans-Serif" font-size="10.00">+ h()</text>
<text text-anchor="start" x="7.44727" y="-805" font-family="Helvetica,sans-Serif" font-size="10.00">+ height()</text>
<text text-anchor="start" x="7.44727" y="-795" font-family="Helvetica,sans-Serif" font-size="10.00">+ invert()</text>
<text text-anchor="start" x="7.44727" y="-785" font-family="Helvetica,sans-Serif" font-size="10.00">and 4 more...</text>
<text text-anchor="start" x="7.44727" y="-775" font-family="Helvetica,sans-Serif" font-size="10.00"># dim_on_bitmap()</text>
<text text-anchor="start" x="7.44727" y="-765" font-family="Helvetica,sans-Serif" font-size="10.00"># flag()</text>
<text text-anchor="start" x="7.44727" y="-755" font-family="Helvetica,sans-Serif" font-size="10.00"># point_on_bitmap()</text>
<text text-anchor="start" x="7.44727" y="-745" font-family="Helvetica,sans-Serif" font-size="10.00"># set_flag()</text>
</a>
</g>
</g>
<!-- Node4&#45;&gt;Node3 -->
<g id="edge3" class="edge"><title>Node4&#45;&gt;Node3</title>
<path fill="none" stroke="midnightblue" d="M94.5021,-728.842C97.269,-719.399 99.994,-710.1 102.59,-701.241"/>
<polygon fill="none" stroke="midnightblue" points="91.0605,-728.141 91.6072,-738.721 97.7781,-730.109 91.0605,-728.141"/>
</g>
<!-- Node5 -->
<g id="node5" class="node"><title>Node5</title>
<g id="a_node5"><a xlink:href="classapi_1_1_draw_work_object.html" target="_top" xlink:title="State Machine Work Object Class. ">
<polygon fill="none" stroke="black" points="5.854,-1001 5.854,-1055 116.146,-1055 116.146,-1001 5.854,-1001"/>
<text text-anchor="middle" x="61" y="-1043" font-family="Helvetica,sans-Serif" font-size="10.00">api::DrawWorkObject</text>
<polyline fill="none" stroke="black" points="5.854,-1037 116.146,-1037 "/>
<text text-anchor="middle" x="61" y="-1025" font-family="Helvetica,sans-Serif" font-size="10.00"> </text>
<polyline fill="none" stroke="black" points="5.854,-1019 116.146,-1019 "/>
<text text-anchor="middle" x="61" y="-1007" font-family="Helvetica,sans-Serif" font-size="10.00"> </text>
</a>
</g>
</g>
<!-- Node5&#45;&gt;Node4 -->
<g id="edge4" class="edge"><title>Node5&#45;&gt;Node4</title>
<path fill="none" stroke="midnightblue" d="M60.585,-990.684C60.4886,-982.251 60.381,-972.84 60.2686,-963.001"/>
<polygon fill="none" stroke="midnightblue" points="57.0864,-990.841 60.7006,-1000.8 64.086,-990.761 57.0864,-990.841"/>
</g>
<!-- Node6 -->
<g id="node6" class="node"><title>Node6</title>
<g id="a_node6"><a xlink:href="classapi_1_1_work_object.html" target="_top" xlink:title="WorkObject Class. ">
<polygon fill="none" stroke="black" points="62.4521,-1093 62.4521,-1227 181.548,-1227 181.548,-1093 62.4521,-1093"/>
<text text-anchor="middle" x="122" y="-1215" font-family="Helvetica,sans-Serif" font-size="10.00">api::WorkObject</text>
<polyline fill="none" stroke="black" points="62.4521,-1209 181.548,-1209 "/>
<text text-anchor="middle" x="122" y="-1197" font-family="Helvetica,sans-Serif" font-size="10.00"> </text>
<polyline fill="none" stroke="black" points="62.4521,-1191 181.548,-1191 "/>
<text text-anchor="start" x="70.4521" y="-1179" font-family="Helvetica,sans-Serif" font-size="10.00">+ WorkObject()</text>
<text text-anchor="start" x="70.4521" y="-1169" font-family="Helvetica,sans-Serif" font-size="10.00">+ clear_error_number()</text>
<text text-anchor="start" x="70.4521" y="-1159" font-family="Helvetica,sans-Serif" font-size="10.00">+ error_number()</text>
<text text-anchor="start" x="70.4521" y="-1149" font-family="Helvetica,sans-Serif" font-size="10.00">+ exit_fatal()</text>
<text text-anchor="start" x="70.4521" y="-1139" font-family="Helvetica,sans-Serif" font-size="10.00"># set_error_number()</text>
<text text-anchor="start" x="70.4521" y="-1129" font-family="Helvetica,sans-Serif" font-size="10.00"># set_error_number_if</text>
<text text-anchor="start" x="70.4521" y="-1119" font-family="Helvetica,sans-Serif" font-size="10.00">_error()</text>
<text text-anchor="start" x="70.4521" y="-1109" font-family="Helvetica,sans-Serif" font-size="10.00"># set_error_number_to</text>
<text text-anchor="start" x="70.4521" y="-1099" font-family="Helvetica,sans-Serif" font-size="10.00">_errno()</text>
</a>
</g>
</g>
<!-- Node6&#45;&gt;Node5 -->
<g id="edge5" class="edge"><title>Node6&#45;&gt;Node5</title>
<path fill="none" stroke="midnightblue" d="M86.7001,-1083.77C81.882,-1073.5 77.2278,-1063.58 73.2348,-1055.07"/>
<polygon fill="none" stroke="midnightblue" points="83.5474,-1085.29 90.9639,-1092.86 89.8845,-1082.32 83.5474,-1085.29"/>
</g>
<!-- Node9 -->
<g id="node9" class="node"><title>Node9</title>
<g id="a_node9"><a xlink:href="classapi_1_1_ev_work_object.html" target="_top" xlink:title="Event Object Class. ">
<polygon fill="none" stroke="black" points="134.687,-1001 134.687,-1055 233.313,-1055 233.313,-1001 134.687,-1001"/>
<text text-anchor="middle" x="184" y="-1043" font-family="Helvetica,sans-Serif" font-size="10.00">api::EvWorkObject</text>
<polyline fill="none" stroke="black" points="134.687,-1037 233.313,-1037 "/>
<text text-anchor="middle" x="184" y="-1025" font-family="Helvetica,sans-Serif" font-size="10.00"> </text>
<polyline fill="none" stroke="black" points="134.687,-1019 233.313,-1019 "/>
<text text-anchor="middle" x="184" y="-1007" font-family="Helvetica,sans-Serif" font-size="10.00"> </text>
</a>
</g>
</g>
<!-- Node6&#45;&gt;Node9 -->
<g id="edge9" class="edge"><title>Node6&#45;&gt;Node9</title>
<path fill="none" stroke="midnightblue" d="M157.879,-1083.77C162.776,-1073.5 167.506,-1063.58 171.565,-1055.07"/>
<polygon fill="none" stroke="midnightblue" points="154.691,-1082.32 153.545,-1092.86 161.009,-1085.34 154.691,-1082.32"/>
</g>
<!-- Node7 -->
<g id="node7" class="node"><title>Node7</title>
<g id="a_node7"><a xlink:href="classapi_1_1_api_object.html" target="_top" xlink:title="API Object Class. ">
<polygon fill="none" stroke="black" points="80.7896,-1265 80.7896,-1319 163.21,-1319 163.21,-1265 80.7896,-1265"/>
<text text-anchor="middle" x="122" y="-1307" font-family="Helvetica,sans-Serif" font-size="10.00">api::ApiObject</text>
<polyline fill="none" stroke="black" points="80.7896,-1301 163.21,-1301 "/>
<text text-anchor="middle" x="122" y="-1289" font-family="Helvetica,sans-Serif" font-size="10.00"> </text>
<polyline fill="none" stroke="black" points="80.7896,-1283 163.21,-1283 "/>
<text text-anchor="start" x="88.7896" y="-1271" font-family="Helvetica,sans-Serif" font-size="10.00">+ api_version()</text>
</a>
</g>
</g>
<!-- Node7&#45;&gt;Node6 -->
<g id="edge6" class="edge"><title>Node7&#45;&gt;Node6</title>
<path fill="none" stroke="midnightblue" d="M122,-1254.64C122,-1246.02 122,-1236.55 122,-1227.06"/>
<polygon fill="none" stroke="midnightblue" points="118.5,-1254.69 122,-1264.69 125.5,-1254.69 118.5,-1254.69"/>
</g>
<!-- Node8 -->
<g id="node8" class="node"><title>Node8</title>
<g id="a_node8"><a xlink:href="classev_1_1_event_handler.html" target="_top" xlink:title="Event Handler Class. ">
<polygon fill="none" stroke="black" points="136.584,-809 136.584,-893 235.416,-893 235.416,-809 136.584,-809"/>
<text text-anchor="middle" x="186" y="-881" font-family="Helvetica,sans-Serif" font-size="10.00">ev::EventHandler</text>
<polyline fill="none" stroke="black" points="136.584,-875 235.416,-875 "/>
<text text-anchor="middle" x="186" y="-863" font-family="Helvetica,sans-Serif" font-size="10.00"> </text>
<polyline fill="none" stroke="black" points="136.584,-857 235.416,-857 "/>
<text text-anchor="start" x="144.584" y="-845" font-family="Helvetica,sans-Serif" font-size="10.00">+ EventHandler()</text>
<text text-anchor="start" x="144.584" y="-835" font-family="Helvetica,sans-Serif" font-size="10.00">+ event_loop()</text>
<text text-anchor="start" x="144.584" y="-825" font-family="Helvetica,sans-Serif" font-size="10.00">+ handle_event()</text>
<text text-anchor="start" x="144.584" y="-815" font-family="Helvetica,sans-Serif" font-size="10.00"># set_event_loop()</text>
</a>
</g>
</g>
<!-- Node8&#45;&gt;Node3 -->
<g id="edge7" class="edge"><title>Node8&#45;&gt;Node3</title>
<path fill="none" stroke="midnightblue" d="M170.869,-799.171C162.135,-769.827 151.052,-732.595 141.649,-701.008"/>
<polygon fill="none" stroke="midnightblue" points="167.528,-800.214 173.736,-808.8 174.237,-798.217 167.528,-800.214"/>
</g>
<!-- Node9&#45;&gt;Node8 -->
<g id="edge8" class="edge"><title>Node9&#45;&gt;Node8</title>
<path fill="none" stroke="midnightblue" d="M184.417,-990.484C184.742,-962.041 185.194,-922.56 185.531,-893.029"/>
<polygon fill="none" stroke="midnightblue" points="180.914,-990.761 184.299,-1000.8 187.914,-990.841 180.914,-990.761"/>
</g>
<!-- Node10 -->
<g id="node10" class="node"><title>Node10</title>
<g id="a_node10"><a xlink:href="classui_1_1_list_attr.html" target="_top" xlink:title="List Attribute Class. ">
<polygon fill="none" stroke="black" points="188.398,-415 188.398,-529 303.602,-529 303.602,-415 188.398,-415"/>
<text text-anchor="middle" x="246" y="-517" font-family="Helvetica,sans-Serif" font-size="10.00">ui::ListAttr</text>
<polyline fill="none" stroke="black" points="188.398,-511 303.602,-511 "/>
<text text-anchor="middle" x="246" y="-499" font-family="Helvetica,sans-Serif" font-size="10.00"> </text>
<polyline fill="none" stroke="black" points="188.398,-493 303.602,-493 "/>
<text text-anchor="start" x="196.398" y="-481" font-family="Helvetica,sans-Serif" font-size="10.00">+ ListAttr()</text>
<text text-anchor="start" x="196.398" y="-471" font-family="Helvetica,sans-Serif" font-size="10.00">+ calc_display_items()</text>
<text text-anchor="start" x="196.398" y="-461" font-family="Helvetica,sans-Serif" font-size="10.00">+ calc_next_visible()</text>
<text text-anchor="start" x="196.398" y="-451" font-family="Helvetica,sans-Serif" font-size="10.00">+ calc_visible_offset()</text>
<text text-anchor="start" x="196.398" y="-441" font-family="Helvetica,sans-Serif" font-size="10.00">+ dec_selected()</text>
<text text-anchor="start" x="196.398" y="-431" font-family="Helvetica,sans-Serif" font-size="10.00">+ inc_selected()</text>
<text text-anchor="start" x="196.398" y="-421" font-family="Helvetica,sans-Serif" font-size="10.00">and 7 more...</text>
</a>
</g>
</g>
<!-- Node10&#45;&gt;Node1 -->
<g id="edge10" class="edge"><title>Node10&#45;&gt;Node1</title>
<path fill="none" stroke="midnightblue" d="M225.592,-405.168C222.801,-396.165 219.88,-386.741 216.935,-377.243"/>
<polygon fill="none" stroke="midnightblue" points="222.26,-406.241 228.565,-414.757 228.947,-404.169 222.26,-406.241"/>
</g>
</g>
</svg>
        <g id="navigator" transform="translate(0 0)" fill="#404254">
                <rect fill="#f2f5e9" fill-opacity="0.5" stroke="#606060" stroke-width=".5" x="0" y="0" width="60" height="60"/>
                <use id="zoomplus" xlink:href="#zoomPlus" x="17" y="9" onmousedown="handleZoom(evt,'in')"/>
                <use id="zoomminus" xlink:href="#zoomMin" x="42" y="9" onmousedown="handleZoom(evt,'out')"/>
                <use id="reset" xlink:href="#resetDef" x="30" y="36" onmousedown="handleReset()"/>
                <g id="arrowUp" xlink:href="#dirArrow" transform="translate(30 24)" onmousedown="handlePan(0,-1)">
                  <use xlink:href="#rim" fill="#404040">
                        <set attributeName="fill" to="#808080" begin="arrowUp.mouseover" end="arrowUp.mouseout"/>
                  </use>
                  <path fill="none" stroke="white" stroke-width="1.5" d="M0,-3.0v7 M-2.5,-0.5L0,-3.0L2.5,-0.5"/>
                </g>
                <g id="arrowRight" xlink:href="#dirArrow" transform="rotate(90) translate(36 -43)" onmousedown="handlePan(1,0)">
                  <use xlink:href="#rim" fill="#404040">
                        <set attributeName="fill" to="#808080" begin="arrowRight.mouseover" end="arrowRight.mouseout"/>
                  </use>
                  <path fill="none" stroke="white" stroke-width="1.5" d="M0,-3.0v7 M-2.5,-0.5L0,-3.0L2.5,-0.5"/>
                </g>
                <g id="arrowDown" xlink:href="#dirArrow" transform="rotate(180) translate(-30 -48)" onmousedown="handlePan(0,1)">
                  <use xlink:href="#rim" fill="#404040">
                        <set attributeName="fill" to="#808080" begin="arrowDown.mouseover" end="arrowDown.mouseout"/>
                  </use>
                  <path fill="none" stroke="white" stroke-width="1.5" d="M0,-3.0v7 M-2.5,-0.5L0,-3.0L2.5,-0.5"/>
                </g>
                <g id="arrowLeft" xlink:href="#dirArrow" transform="rotate(270) translate(-36 17)" onmousedown="handlePan(-1,0)">
                  <use xlink:href="#rim" fill="#404040">
                        <set attributeName="fill" to="#808080" begin="arrowLeft.mouseover" end="arrowLeft.mouseout"/>
                  </use>
                  <path fill="none" stroke="white" stroke-width="1.5" d="M0,-3.0v7 M-2.5,-0.5L0,-3.0L2.5,-0.5"/>
                </g>
        </g>
        <svg viewBox="0 0 15 15" width="100%" height="30px" preserveAspectRatio="xMaxYMin meet">
         <g id="arrow_out" transform="scale(0.3 0.3)">
          <a xlink:href="classui_1_1_list__inherit__graph_org.svg" target="_base">
           <rect id="button" ry="5" rx="5" y="6" x="6" height="38" width="38"
                fill="#f2f5e9" fill-opacity="0.5" stroke="#606060" stroke-width="1.0"/>
           <path id="arrow"
             d="M 11.500037,31.436501 C 11.940474,20.09759 22.043105,11.32322 32.158766,21.979434 L 37.068811,17.246167 C 37.068811,17.246167 37.088388,32 37.088388,32 L 22.160133,31.978069 C 22.160133,31.978069 26.997745,27.140456 26.997745,27.140456 C 18.528582,18.264221 13.291696,25.230495 11.500037,31.436501 z"
             style="fill:#404040;"/>
          </a>
         </g>
        </svg>
</svg>
