<?xml version="1.0" encoding="UTF-8" standalone="no"?>
<!DOCTYPE svg PUBLIC "-//W3C//DTD SVG 1.1//EN"
 "http://www.w3.org/Graphics/SVG/1.1/DTD/svg11.dtd">
<!-- Generated by graphviz version 2.36.0 (20140111.2315)
 -->
<!-- Title: draw::TextAttr Pages: 1 -->
<svg width="216pt" height="296pt"
 viewBox="0.00 0.00 216.00 296.00" xmlns="http://www.w3.org/2000/svg" xmlns:xlink="http://www.w3.org/1999/xlink">
<g id="graph0" class="graph" transform="scale(1 1) rotate(0) translate(4 292)">
<title>draw::TextAttr</title>
<!-- Node1 -->
<g id="node1" class="node"><title>Node1</title>
<polygon fill="#bfbfbf" stroke="black" points="61.2612,-163 61.2612,-287 146.739,-287 146.739,-163 61.2612,-163"/>
<text text-anchor="middle" x="104" y="-275" font-family="Helvetica,sans-Serif" font-size="10.00">draw::TextAttr</text>
<polyline fill="none" stroke="black" points="61.2612,-269 146.739,-269 "/>
<text text-anchor="middle" x="104" y="-257" font-family="Helvetica,sans-Serif" font-size="10.00"> </text>
<polyline fill="none" stroke="black" points="61.2612,-251 146.739,-251 "/>
<text text-anchor="start" x="69.2612" y="-239" font-family="Helvetica,sans-Serif" font-size="10.00">+ TextAttr()</text>
<text text-anchor="start" x="69.2612" y="-229" font-family="Helvetica,sans-Serif" font-size="10.00">+ assign()</text>
<text text-anchor="start" x="69.2612" y="-219" font-family="Helvetica,sans-Serif" font-size="10.00">+ font()</text>
<text text-anchor="start" x="69.2612" y="-209" font-family="Helvetica,sans-Serif" font-size="10.00">+ font_bold()</text>
<text text-anchor="start" x="69.2612" y="-199" font-family="Helvetica,sans-Serif" font-size="10.00">+ font_size()</text>
<text text-anchor="start" x="69.2612" y="-189" font-family="Helvetica,sans-Serif" font-size="10.00">+ set_font()</text>
<text text-anchor="start" x="69.2612" y="-179" font-family="Helvetica,sans-Serif" font-size="10.00">and 4 more...</text>
<text text-anchor="start" x="69.2612" y="-169" font-family="Helvetica,sans-Serif" font-size="10.00"># resolve_font()</text>
</g>
<!-- Node2 -->
<g id="node2" class="node"><title>Node2</title>
<g id="a_node2"><a xlink:href="classdraw_1_1_text.html" target="_top" xlink:title="Text Class. ">
<polygon fill="none" stroke="black" points="-0.880371,-31 -0.880371,-95 94.8804,-95 94.8804,-31 -0.880371,-31"/>
<text text-anchor="middle" x="47" y="-83" font-family="Helvetica,sans-Serif" font-size="10.00">draw::Text</text>
<polyline fill="none" stroke="black" points="-0.880371,-77 94.8804,-77 "/>
<text text-anchor="middle" x="47" y="-65" font-family="Helvetica,sans-Serif" font-size="10.00"> </text>
<polyline fill="none" stroke="black" points="-0.880371,-59 94.8804,-59 "/>
<text text-anchor="start" x="7.11963" y="-47" font-family="Helvetica,sans-Serif" font-size="10.00">+ Text()</text>
<text text-anchor="start" x="7.11963" y="-37" font-family="Helvetica,sans-Serif" font-size="10.00">+ draw_to_scale()</text>
</a>
</g>
</g>
<!-- Node1&#45;&gt;Node2 -->
<g id="edge1" class="edge"><title>Node1&#45;&gt;Node2</title>
<path fill="none" stroke="midnightblue" d="M78.7154,-153.026C71.4781,-132.71 63.9606,-111.609 58.062,-95.0512"/>
<polygon fill="none" stroke="midnightblue" points="75.4723,-154.352 82.1253,-162.597 82.0664,-152.003 75.4723,-154.352"/>
</g>
<!-- Node3 -->
<g id="node3" class="node"><title>Node3</title>
<g id="a_node3"><a xlink:href="classdraw_1_1_text_box.html" target="_top" xlink:title="Text Box. ">
<polygon fill="none" stroke="black" points="113.12,-1 113.12,-125 208.88,-125 208.88,-1 113.12,-1"/>
<text text-anchor="middle" x="161" y="-113" font-family="Helvetica,sans-Serif" font-size="10.00">draw::TextBox</text>
<polyline fill="none" stroke="black" points="113.12,-107 208.88,-107 "/>
<text text-anchor="middle" x="161" y="-95" font-family="Helvetica,sans-Serif" font-size="10.00"> </text>
<polyline fill="none" stroke="black" points="113.12,-89 208.88,-89 "/>
<text text-anchor="start" x="121.12" y="-77" font-family="Helvetica,sans-Serif" font-size="10.00">+ TextBox()</text>
<text text-anchor="start" x="121.12" y="-67" font-family="Helvetica,sans-Serif" font-size="10.00">+ count_lines()</text>
<text text-anchor="start" x="121.12" y="-57" font-family="Helvetica,sans-Serif" font-size="10.00">+ dec_scroll()</text>
<text text-anchor="start" x="121.12" y="-47" font-family="Helvetica,sans-Serif" font-size="10.00">+ draw_to_scale()</text>
<text text-anchor="start" x="121.12" y="-37" font-family="Helvetica,sans-Serif" font-size="10.00">+ inc_scroll()</text>
<text text-anchor="start" x="121.12" y="-27" font-family="Helvetica,sans-Serif" font-size="10.00">+ scroll()</text>
<text text-anchor="start" x="121.12" y="-17" font-family="Helvetica,sans-Serif" font-size="10.00">+ scroll_max()</text>
<text text-anchor="start" x="121.12" y="-7" font-family="Helvetica,sans-Serif" font-size="10.00">+ count_lines()</text>
</a>
</g>
</g>
<!-- Node1&#45;&gt;Node3 -->
<g id="edge2" class="edge"><title>Node1&#45;&gt;Node3</title>
<path fill="none" stroke="midnightblue" d="M129.286,-153.022C132.587,-143.755 135.946,-134.326 139.184,-125.238"/>
<polygon fill="none" stroke="midnightblue" points="125.934,-152.003 125.875,-162.597 132.528,-154.352 125.934,-152.003"/>
</g>
</g>
</svg>
