<?xml version="1.0" encoding="UTF-8" standalone="no"?>
<!DOCTYPE svg PUBLIC "-//W3C//DTD SVG 1.1//EN"
 "http://www.w3.org/Graphics/SVG/1.1/DTD/svg11.dtd">
<!-- Generated by graphviz version 2.36.0 (20140111.2315)
 -->
<!-- Title: ui::ProgressTab Pages: 1 -->
<svg width="239pt" height="570pt"
 viewBox="0.00 0.00 239.00 570.00" xmlns="http://www.w3.org/2000/svg" xmlns:xlink="http://www.w3.org/1999/xlink">
<g id="graph0" class="graph" transform="scale(1 1) rotate(0) translate(4 566)">
<title>ui::ProgressTab</title>
<!-- Node1 -->
<g id="node1" class="node"><title>Node1</title>
<polygon fill="#bfbfbf" stroke="black" points="68.292,-103 68.292,-177 155.708,-177 155.708,-103 68.292,-103"/>
<text text-anchor="middle" x="112" y="-165" font-family="Helvetica,sans-Serif" font-size="10.00">ui::ProgressTab</text>
<polyline fill="none" stroke="black" points="68.292,-159 155.708,-159 "/>
<text text-anchor="middle" x="112" y="-147" font-family="Helvetica,sans-Serif" font-size="10.00"> </text>
<polyline fill="none" stroke="black" points="68.292,-141 155.708,-141 "/>
<text text-anchor="start" x="76.292" y="-129" font-family="Helvetica,sans-Serif" font-size="10.00">+ ProgressTab()</text>
<text text-anchor="start" x="76.292" y="-119" font-family="Helvetica,sans-Serif" font-size="10.00">+ draw()</text>
<text text-anchor="start" x="76.292" y="-109" font-family="Helvetica,sans-Serif" font-size="10.00">+ progress()</text>
</g>
<!-- Node4 -->
<g id="node4" class="node"><title>Node4</title>
<g id="a_node4"><a xlink:href="classui_1_1_arc_progress_tab.html" target="_top" xlink:title="Tab Progress Arc. ">
<polygon fill="none" stroke="black" points="-0.93457,-1 -0.93457,-65 100.935,-65 100.935,-1 -0.93457,-1"/>
<text text-anchor="middle" x="50" y="-53" font-family="Helvetica,sans-Serif" font-size="10.00">ui::ArcProgressTab</text>
<polyline fill="none" stroke="black" points="-0.93457,-47 100.935,-47 "/>
<text text-anchor="middle" x="50" y="-35" font-family="Helvetica,sans-Serif" font-size="10.00"> </text>
<polyline fill="none" stroke="black" points="-0.93457,-29 100.935,-29 "/>
<text text-anchor="start" x="7.06543" y="-17" font-family="Helvetica,sans-Serif" font-size="10.00">+ ArcProgressTab()</text>
<text text-anchor="start" x="7.06543" y="-7" font-family="Helvetica,sans-Serif" font-size="10.00">+ progress()</text>
</a>
</g>
</g>
<!-- Node1&#45;&gt;Node4 -->
<g id="edge3" class="edge"><title>Node1&#45;&gt;Node4</title>
<path fill="none" stroke="midnightblue" d="M85.4847,-94.095C79.757,-84.3949 73.8206,-74.3413 68.48,-65.2968"/>
<polygon fill="none" stroke="midnightblue" points="82.5647,-96.0336 90.6631,-102.865 88.5924,-92.4744 82.5647,-96.0336"/>
</g>
<!-- Node5 -->
<g id="node5" class="node"><title>Node5</title>
<g id="a_node5"><a xlink:href="classui_1_1_circle_progress_tab.html" target="_top" xlink:title="Tab Progress Circle. ">
<polygon fill="none" stroke="black" points="118.514,-1 118.514,-65 231.486,-65 231.486,-1 118.514,-1"/>
<text text-anchor="middle" x="175" y="-53" font-family="Helvetica,sans-Serif" font-size="10.00">ui::CircleProgressTab</text>
<polyline fill="none" stroke="black" points="118.514,-47 231.486,-47 "/>
<text text-anchor="middle" x="175" y="-35" font-family="Helvetica,sans-Serif" font-size="10.00"> </text>
<polyline fill="none" stroke="black" points="118.514,-29 231.486,-29 "/>
<text text-anchor="start" x="126.514" y="-17" font-family="Helvetica,sans-Serif" font-size="10.00">+ CircleProgressTab()</text>
<text text-anchor="start" x="126.514" y="-7" font-family="Helvetica,sans-Serif" font-size="10.00">+ progress()</text>
</a>
</g>
</g>
<!-- Node1&#45;&gt;Node5 -->
<g id="edge4" class="edge"><title>Node1&#45;&gt;Node5</title>
<path fill="none" stroke="midnightblue" d="M138.943,-94.095C144.763,-84.3949 150.795,-74.3413 156.222,-65.2968"/>
<polygon fill="none" stroke="midnightblue" points="135.825,-92.4893 133.681,-102.865 141.827,-96.0908 135.825,-92.4893"/>
</g>
<!-- Node2 -->
<g id="node2" class="node"><title>Node2</title>
<g id="a_node2"><a xlink:href="classui_1_1_tab.html" target="_top" xlink:title="Tab Class. ">
<polygon fill="none" stroke="black" points="69.1221,-215 69.1221,-299 154.878,-299 154.878,-215 69.1221,-215"/>
<text text-anchor="middle" x="112" y="-287" font-family="Helvetica,sans-Serif" font-size="10.00">ui::Tab</text>
<polyline fill="none" stroke="black" points="69.1221,-281 154.878,-281 "/>
<text text-anchor="middle" x="112" y="-269" font-family="Helvetica,sans-Serif" font-size="10.00"> </text>
<polyline fill="none" stroke="black" points="69.1221,-263 154.878,-263 "/>
<text text-anchor="start" x="77.1221" y="-251" font-family="Helvetica,sans-Serif" font-size="10.00">+ Tab()</text>
<text text-anchor="start" x="77.1221" y="-241" font-family="Helvetica,sans-Serif" font-size="10.00">+ element()</text>
<text text-anchor="start" x="77.1221" y="-231" font-family="Helvetica,sans-Serif" font-size="10.00">+ set_element()</text>
<text text-anchor="start" x="77.1221" y="-221" font-family="Helvetica,sans-Serif" font-size="10.00">+ calc_square()</text>
</a>
</g>
</g>
<!-- Node2&#45;&gt;Node1 -->
<g id="edge1" class="edge"><title>Node2&#45;&gt;Node1</title>
<path fill="none" stroke="midnightblue" d="M112,-204.572C112,-195.382 112,-185.984 112,-177.329"/>
<polygon fill="none" stroke="midnightblue" points="108.5,-204.807 112,-214.807 115.5,-204.807 108.5,-204.807"/>
</g>
<!-- Node3 -->
<g id="node3" class="node"><title>Node3</title>
<g id="a_node3"><a xlink:href="classdraw_1_1_drawing.html" target="_top" xlink:title="Drawing Class. ">
<polygon fill="none" stroke="black" points="52.4473,-337 52.4473,-561 171.553,-561 171.553,-337 52.4473,-337"/>
<text text-anchor="middle" x="112" y="-549" font-family="Helvetica,sans-Serif" font-size="10.00">draw::Drawing</text>
<polyline fill="none" stroke="black" points="52.4473,-543 171.553,-543 "/>
<text text-anchor="middle" x="112" y="-531" font-family="Helvetica,sans-Serif" font-size="10.00"> </text>
<polyline fill="none" stroke="black" points="52.4473,-525 171.553,-525 "/>
<text text-anchor="start" x="60.4473" y="-513" font-family="Helvetica,sans-Serif" font-size="10.00">+ Drawing()</text>
<text text-anchor="start" x="60.4473" y="-503" font-family="Helvetica,sans-Serif" font-size="10.00">+ dark()</text>
<text text-anchor="start" x="60.4473" y="-493" font-family="Helvetica,sans-Serif" font-size="10.00">+ draw()</text>
<text text-anchor="start" x="60.4473" y="-483" font-family="Helvetica,sans-Serif" font-size="10.00">+ draw()</text>
<text text-anchor="start" x="60.4473" y="-473" font-family="Helvetica,sans-Serif" font-size="10.00">+ draw_scratch()</text>
<text text-anchor="start" x="60.4473" y="-463" font-family="Helvetica,sans-Serif" font-size="10.00">+ draw_to_scale()</text>
<text text-anchor="start" x="60.4473" y="-453" font-family="Helvetica,sans-Serif" font-size="10.00">and 18 more...</text>
<text text-anchor="start" x="60.4473" y="-443" font-family="Helvetica,sans-Serif" font-size="10.00">+ clear()</text>
<text text-anchor="start" x="60.4473" y="-433" font-family="Helvetica,sans-Serif" font-size="10.00">+ draw_checkerboard()</text>
<text text-anchor="start" x="60.4473" y="-423" font-family="Helvetica,sans-Serif" font-size="10.00">+ draw_pattern()</text>
<text text-anchor="start" x="60.4473" y="-413" font-family="Helvetica,sans-Serif" font-size="10.00">+ h()</text>
<text text-anchor="start" x="60.4473" y="-403" font-family="Helvetica,sans-Serif" font-size="10.00">+ height()</text>
<text text-anchor="start" x="60.4473" y="-393" font-family="Helvetica,sans-Serif" font-size="10.00">+ invert()</text>
<text text-anchor="start" x="60.4473" y="-383" font-family="Helvetica,sans-Serif" font-size="10.00">and 4 more...</text>
<text text-anchor="start" x="60.4473" y="-373" font-family="Helvetica,sans-Serif" font-size="10.00"># dim_on_bitmap()</text>
<text text-anchor="start" x="60.4473" y="-363" font-family="Helvetica,sans-Serif" font-size="10.00"># flag()</text>
<text text-anchor="start" x="60.4473" y="-353" font-family="Helvetica,sans-Serif" font-size="10.00"># point_on_bitmap()</text>
<text text-anchor="start" x="60.4473" y="-343" font-family="Helvetica,sans-Serif" font-size="10.00"># set_flag()</text>
</a>
</g>
</g>
<!-- Node3&#45;&gt;Node2 -->
<g id="edge2" class="edge"><title>Node3&#45;&gt;Node2</title>
<path fill="none" stroke="midnightblue" d="M112,-326.731C112,-317.066 112,-307.795 112,-299.363"/>
<polygon fill="none" stroke="midnightblue" points="108.5,-326.926 112,-336.926 115.5,-326.927 108.5,-326.926"/>
</g>
</g>
</svg>
