<?xml version="1.0" encoding="UTF-8" standalone="no"?>
<!DOCTYPE svg PUBLIC "-//W3C//DTD SVG 1.1//EN"
 "http://www.w3.org/Graphics/SVG/1.1/DTD/svg11.dtd">
<!-- Generated by graphviz version 2.36.0 (20140111.2315)
 -->
<!-- Title: hal::Display Pages: 1 -->
<svg width="126pt" height="1068pt"
 viewBox="0.00 0.00 126.00 1068.00" xmlns="http://www.w3.org/2000/svg" xmlns:xlink="http://www.w3.org/1999/xlink">
<g id="graph0" class="graph" transform="scale(1 1) rotate(0) translate(4 1064)">
<title>hal::Display</title>
<!-- Node1 -->
<g id="node1" class="node"><title>Node1</title>
<polygon fill="#bfbfbf" stroke="black" points="25.1553,-153 25.1553,-257 92.8447,-257 92.8447,-153 25.1553,-153"/>
<text text-anchor="middle" x="59" y="-245" font-family="Helvetica,sans-Serif" font-size="10.00">hal::Display</text>
<polyline fill="none" stroke="black" points="25.1553,-239 92.8447,-239 "/>
<text text-anchor="middle" x="59" y="-227" font-family="Helvetica,sans-Serif" font-size="10.00"> </text>
<polyline fill="none" stroke="black" points="25.1553,-221 92.8447,-221 "/>
<text text-anchor="start" x="33.1553" y="-209" font-family="Helvetica,sans-Serif" font-size="10.00">+ Display()</text>
<text text-anchor="start" x="33.1553" y="-199" font-family="Helvetica,sans-Serif" font-size="10.00">+ Display()</text>
<text text-anchor="start" x="33.1553" y="-189" font-family="Helvetica,sans-Serif" font-size="10.00">+ Display()</text>
<text text-anchor="start" x="33.1553" y="-179" font-family="Helvetica,sans-Serif" font-size="10.00">+ disable()</text>
<text text-anchor="start" x="33.1553" y="-169" font-family="Helvetica,sans-Serif" font-size="10.00">+ enable()</text>
<text text-anchor="start" x="33.1553" y="-159" font-family="Helvetica,sans-Serif" font-size="10.00">+ init()</text>
</g>
<!-- Node8 -->
<g id="node8" class="node"><title>Node8</title>
<g id="a_node8"><a xlink:href="classhal_1_1_display_device.html" target="_top" xlink:title="Display Device. ">
<polygon fill="none" stroke="black" points="9.87207,-1 9.87207,-115 108.128,-115 108.128,-1 9.87207,-1"/>
<text text-anchor="middle" x="59" y="-103" font-family="Helvetica,sans-Serif" font-size="10.00">hal::DisplayDevice</text>
<polyline fill="none" stroke="black" points="9.87207,-97 108.128,-97 "/>
<text text-anchor="middle" x="59" y="-85" font-family="Helvetica,sans-Serif" font-size="10.00"> </text>
<polyline fill="none" stroke="black" points="9.87207,-79 108.128,-79 "/>
<text text-anchor="start" x="17.8721" y="-67" font-family="Helvetica,sans-Serif" font-size="10.00">+ DisplayDevice()</text>
<text text-anchor="start" x="17.8721" y="-57" font-family="Helvetica,sans-Serif" font-size="10.00">+ disable()</text>
<text text-anchor="start" x="17.8721" y="-47" font-family="Helvetica,sans-Serif" font-size="10.00">+ enable()</text>
<text text-anchor="start" x="17.8721" y="-37" font-family="Helvetica,sans-Serif" font-size="10.00">+ init()</text>
<text text-anchor="start" x="17.8721" y="-27" font-family="Helvetica,sans-Serif" font-size="10.00">+ is_busy()</text>
<text text-anchor="start" x="17.8721" y="-17" font-family="Helvetica,sans-Serif" font-size="10.00">+ refresh()</text>
<text text-anchor="start" x="17.8721" y="-7" font-family="Helvetica,sans-Serif" font-size="10.00">+ wait()</text>
</a>
</g>
</g>
<!-- Node1&#45;&gt;Node8 -->
<g id="edge7" class="edge"><title>Node1&#45;&gt;Node8</title>
<path fill="none" stroke="midnightblue" d="M59,-142.678C59,-133.523 59,-124.124 59,-115.085"/>
<polygon fill="none" stroke="midnightblue" points="55.5001,-142.878 59,-152.878 62.5001,-142.878 55.5001,-142.878"/>
</g>
<!-- Node2 -->
<g id="node2" class="node"><title>Node2</title>
<g id="a_node2"><a xlink:href="classsgfx_1_1_bitmap.html" target="_top" xlink:title="Bitmap Class. ">
<polygon fill="none" stroke="black" points="6.39795,-295 6.39795,-449 111.602,-449 111.602,-295 6.39795,-295"/>
<text text-anchor="middle" x="59" y="-437" font-family="Helvetica,sans-Serif" font-size="10.00">sgfx::Bitmap</text>
<polyline fill="none" stroke="black" points="6.39795,-431 111.602,-431 "/>
<text text-anchor="middle" x="59" y="-419" font-family="Helvetica,sans-Serif" font-size="10.00"> </text>
<polyline fill="none" stroke="black" points="6.39795,-413 111.602,-413 "/>
<text text-anchor="start" x="14.3979" y="-401" font-family="Helvetica,sans-Serif" font-size="10.00">+ Bitmap()</text>
<text text-anchor="start" x="14.3979" y="-391" font-family="Helvetica,sans-Serif" font-size="10.00">+ Bitmap()</text>
<text text-anchor="start" x="14.3979" y="-381" font-family="Helvetica,sans-Serif" font-size="10.00">+ Bitmap()</text>
<text text-anchor="start" x="14.3979" y="-371" font-family="Helvetica,sans-Serif" font-size="10.00">+ Bitmap()</text>
<text text-anchor="start" x="14.3979" y="-361" font-family="Helvetica,sans-Serif" font-size="10.00">+ Bitmap()</text>
<text text-anchor="start" x="14.3979" y="-351" font-family="Helvetica,sans-Serif" font-size="10.00">+ ~Bitmap()</text>
<text text-anchor="start" x="14.3979" y="-341" font-family="Helvetica,sans-Serif" font-size="10.00">and 72 more...</text>
<text text-anchor="start" x="14.3979" y="-331" font-family="Helvetica,sans-Serif" font-size="10.00">+ bits_per_pixel()</text>
<text text-anchor="start" x="14.3979" y="-321" font-family="Helvetica,sans-Serif" font-size="10.00">+ calc_size()</text>
<text text-anchor="start" x="14.3979" y="-311" font-family="Helvetica,sans-Serif" font-size="10.00">+ calc_word_width()</text>
<text text-anchor="start" x="14.3979" y="-301" font-family="Helvetica,sans-Serif" font-size="10.00">+ load_dim()</text>
</a>
</g>
</g>
<!-- Node2&#45;&gt;Node1 -->
<g id="edge1" class="edge"><title>Node2&#45;&gt;Node1</title>
<path fill="none" stroke="midnightblue" d="M59,-284.666C59,-275.35 59,-266.098 59,-257.389"/>
<polygon fill="none" stroke="midnightblue" points="55.5001,-284.779 59,-294.779 62.5001,-284.779 55.5001,-284.779"/>
</g>
<!-- Node3 -->
<g id="node3" class="node"><title>Node3</title>
<g id="a_node3"><a xlink:href="classapi_1_1_sgfx_data_object.html" target="_top" xlink:title="Sgfx Object Class. ">
<polygon fill="none" stroke="black" points="6.53223,-487 6.53223,-541 111.468,-541 111.468,-487 6.53223,-487"/>
<text text-anchor="middle" x="59" y="-529" font-family="Helvetica,sans-Serif" font-size="10.00">api::SgfxDataObject</text>
<polyline fill="none" stroke="black" points="6.53223,-523 111.468,-523 "/>
<text text-anchor="middle" x="59" y="-511" font-family="Helvetica,sans-Serif" font-size="10.00"> </text>
<polyline fill="none" stroke="black" points="6.53223,-505 111.468,-505 "/>
<text text-anchor="middle" x="59" y="-493" font-family="Helvetica,sans-Serif" font-size="10.00"> </text>
</a>
</g>
</g>
<!-- Node3&#45;&gt;Node2 -->
<g id="edge2" class="edge"><title>Node3&#45;&gt;Node2</title>
<path fill="none" stroke="midnightblue" d="M59,-476.981C59,-468.361 59,-458.833 59,-449.147"/>
<polygon fill="none" stroke="midnightblue" points="55.5001,-476.995 59,-486.995 62.5001,-476.995 55.5001,-476.995"/>
</g>
<!-- Node4 -->
<g id="node4" class="node"><title>Node4</title>
<g id="a_node4"><a xlink:href="classvar_1_1_data.html" target="_top" xlink:title="Data storage class. ">
<polygon fill="none" stroke="black" points="11.4102,-579 11.4102,-703 106.59,-703 106.59,-579 11.4102,-579"/>
<text text-anchor="middle" x="59" y="-691" font-family="Helvetica,sans-Serif" font-size="10.00">var::Data</text>
<polyline fill="none" stroke="black" points="11.4102,-685 106.59,-685 "/>
<text text-anchor="middle" x="59" y="-673" font-family="Helvetica,sans-Serif" font-size="10.00"> </text>
<polyline fill="none" stroke="black" points="11.4102,-667 106.59,-667 "/>
<text text-anchor="start" x="19.4102" y="-655" font-family="Helvetica,sans-Serif" font-size="10.00">+ Data()</text>
<text text-anchor="start" x="19.4102" y="-645" font-family="Helvetica,sans-Serif" font-size="10.00">+ Data()</text>
<text text-anchor="start" x="19.4102" y="-635" font-family="Helvetica,sans-Serif" font-size="10.00">+ Data()</text>
<text text-anchor="start" x="19.4102" y="-625" font-family="Helvetica,sans-Serif" font-size="10.00">+ Data()</text>
<text text-anchor="start" x="19.4102" y="-615" font-family="Helvetica,sans-Serif" font-size="10.00">+ ~Data()</text>
<text text-anchor="start" x="19.4102" y="-605" font-family="Helvetica,sans-Serif" font-size="10.00">+ alloc()</text>
<text text-anchor="start" x="19.4102" y="-595" font-family="Helvetica,sans-Serif" font-size="10.00">and 17 more...</text>
<text text-anchor="start" x="19.4102" y="-585" font-family="Helvetica,sans-Serif" font-size="10.00">+ minimum_size()</text>
</a>
</g>
</g>
<!-- Node4&#45;&gt;Node3 -->
<g id="edge3" class="edge"><title>Node4&#45;&gt;Node3</title>
<path fill="none" stroke="midnightblue" d="M59,-568.731C59,-558.972 59,-549.504 59,-541.304"/>
<polygon fill="none" stroke="midnightblue" points="55.5001,-568.965 59,-578.965 62.5001,-568.965 55.5001,-568.965"/>
</g>
<!-- Node5 -->
<g id="node5" class="node"><title>Node5</title>
<g id="a_node5"><a xlink:href="classapi_1_1_var_work_object.html" target="_top" xlink:title="Format Work Object Class. ">
<polygon fill="none" stroke="black" points="8.10938,-741 8.10938,-795 109.891,-795 109.891,-741 8.10938,-741"/>
<text text-anchor="middle" x="59" y="-783" font-family="Helvetica,sans-Serif" font-size="10.00">api::VarWorkObject</text>
<polyline fill="none" stroke="black" points="8.10938,-777 109.891,-777 "/>
<text text-anchor="middle" x="59" y="-765" font-family="Helvetica,sans-Serif" font-size="10.00"> </text>
<polyline fill="none" stroke="black" points="8.10938,-759 109.891,-759 "/>
<text text-anchor="middle" x="59" y="-747" font-family="Helvetica,sans-Serif" font-size="10.00"> </text>
</a>
</g>
</g>
<!-- Node5&#45;&gt;Node4 -->
<g id="edge4" class="edge"><title>Node5&#45;&gt;Node4</title>
<path fill="none" stroke="midnightblue" d="M59,-730.715C59,-722.071 59,-712.61 59,-703.188"/>
<polygon fill="none" stroke="midnightblue" points="55.5001,-730.796 59,-740.796 62.5001,-730.796 55.5001,-730.796"/>
</g>
<!-- Node6 -->
<g id="node6" class="node"><title>Node6</title>
<g id="a_node6"><a xlink:href="classapi_1_1_work_object.html" target="_top" xlink:title="WorkObject Class. ">
<polygon fill="none" stroke="black" points="-0.547852,-833 -0.547852,-967 118.548,-967 118.548,-833 -0.547852,-833"/>
<text text-anchor="middle" x="59" y="-955" font-family="Helvetica,sans-Serif" font-size="10.00">api::WorkObject</text>
<polyline fill="none" stroke="black" points="-0.547852,-949 118.548,-949 "/>
<text text-anchor="middle" x="59" y="-937" font-family="Helvetica,sans-Serif" font-size="10.00"> </text>
<polyline fill="none" stroke="black" points="-0.547852,-931 118.548,-931 "/>
<text text-anchor="start" x="7.45215" y="-919" font-family="Helvetica,sans-Serif" font-size="10.00">+ WorkObject()</text>
<text text-anchor="start" x="7.45215" y="-909" font-family="Helvetica,sans-Serif" font-size="10.00">+ clear_error_number()</text>
<text text-anchor="start" x="7.45215" y="-899" font-family="Helvetica,sans-Serif" font-size="10.00">+ error_number()</text>
<text text-anchor="start" x="7.45215" y="-889" font-family="Helvetica,sans-Serif" font-size="10.00">+ exit_fatal()</text>
<text text-anchor="start" x="7.45215" y="-879" font-family="Helvetica,sans-Serif" font-size="10.00"># set_error_number()</text>
<text text-anchor="start" x="7.45215" y="-869" font-family="Helvetica,sans-Serif" font-size="10.00"># set_error_number_if</text>
<text text-anchor="start" x="7.45215" y="-859" font-family="Helvetica,sans-Serif" font-size="10.00">_error()</text>
<text text-anchor="start" x="7.45215" y="-849" font-family="Helvetica,sans-Serif" font-size="10.00"># set_error_number_to</text>
<text text-anchor="start" x="7.45215" y="-839" font-family="Helvetica,sans-Serif" font-size="10.00">_errno()</text>
</a>
</g>
</g>
<!-- Node6&#45;&gt;Node5 -->
<g id="edge5" class="edge"><title>Node6&#45;&gt;Node5</title>
<path fill="none" stroke="midnightblue" d="M59,-822.838C59,-812.903 59,-803.326 59,-795.074"/>
<polygon fill="none" stroke="midnightblue" points="55.5001,-822.857 59,-832.857 62.5001,-822.858 55.5001,-822.857"/>
</g>
<!-- Node7 -->
<g id="node7" class="node"><title>Node7</title>
<g id="a_node7"><a xlink:href="classapi_1_1_api_object.html" target="_top" xlink:title="API Object Class. ">
<polygon fill="none" stroke="black" points="17.7896,-1005 17.7896,-1059 100.21,-1059 100.21,-1005 17.7896,-1005"/>
<text text-anchor="middle" x="59" y="-1047" font-family="Helvetica,sans-Serif" font-size="10.00">api::ApiObject</text>
<polyline fill="none" stroke="black" points="17.7896,-1041 100.21,-1041 "/>
<text text-anchor="middle" x="59" y="-1029" font-family="Helvetica,sans-Serif" font-size="10.00"> </text>
<polyline fill="none" stroke="black" points="17.7896,-1023 100.21,-1023 "/>
<text text-anchor="start" x="25.7896" y="-1011" font-family="Helvetica,sans-Serif" font-size="10.00">+ api_version()</text>
</a>
</g>
</g>
<!-- Node7&#45;&gt;Node6 -->
<g id="edge6" class="edge"><title>Node7&#45;&gt;Node6</title>
<path fill="none" stroke="midnightblue" d="M59,-994.644C59,-986.02 59,-976.555 59,-967.059"/>
<polygon fill="none" stroke="midnightblue" points="55.5001,-994.693 59,-1004.69 62.5001,-994.693 55.5001,-994.693"/>
</g>
</g>
</svg>
