<?xml version="1.0" encoding="UTF-8" standalone="no"?>
<!DOCTYPE svg PUBLIC "-//W3C//DTD SVG 1.1//EN"
 "http://www.w3.org/Graphics/SVG/1.1/DTD/svg11.dtd">
<!-- Generated by graphviz version 2.36.0 (20140111.2315)
 -->
<!-- Title: draw::ArcProgress Pages: 1 -->
<!--zoomable 844 -->
<svg id="main" version="1.1" xmlns="http://www.w3.org/2000/svg" xmlns:xlink="http://www.w3.org/1999/xlink" xml:space="preserve" onload="init(evt)">
<style type="text/css"><![CDATA[
.edge:hover path { stroke: red; }
.edge:hover polygon { stroke: red; fill: red; }
]]></style>
<script type="text/javascript"><![CDATA[
var edges = document.getElementsByTagName('g');
if (edges && edges.length) {
  for (var i=0;i<edges.length;i++) {
    if (edges[i].id.substr(0,4)=='edge') {
      edges[i].setAttribute('class','edge');
    }
  }
}
]]></script>
        <defs>
                <circle id="rim" cx="0" cy="0" r="7"/>
                <circle id="rim2" cx="0" cy="0" r="3.5"/>
                <g id="zoomPlus">
                        <use xlink:href="#rim" fill="#404040">
                                <set attributeName="fill" to="#808080" begin="zoomplus.mouseover" end="zoomplus.mouseout"/>
                        </use>
                        <path d="M-4,0h8M0,-4v8" fill="none" stroke="white" stroke-width="1.5" pointer-events="none"/>
                </g>
                <g id="zoomMin">
                        <use xlink:href="#rim" fill="#404040">
                                <set attributeName="fill" to="#808080" begin="zoomminus.mouseover" end="zoomminus.mouseout"/>
                        </use>
                        <path d="M-4,0h8" fill="none" stroke="white" stroke-width="1.5" pointer-events="none"/>
                </g>
                <g id="dirArrow">
                        <path fill="none" stroke="white" stroke-width="1.5" d="M0,-3.0v7 M-2.5,-0.5L0,-3.0L2.5,-0.5"/>
                </g>
               <g id="resetDef">
                       <use xlink:href="#rim2" fill="#404040">
                               <set attributeName="fill" to="#808080" begin="reset.mouseover" end="reset.mouseout"/>
                       </use>
               </g>
        </defs>

<script type="text/javascript">
var viewWidth = 270;
var viewHeight = 844;
var sectionId = 'dynsection-0';
</script>
<script xlink:href="svgpan.js"/>
<svg id="graph" class="graph">
<g id="viewport">
<title>draw::ArcProgress</title>
<!-- Node1 -->
<g id="node1" class="node"><title>Node1</title>
<polygon fill="#bfbfbf" stroke="black" points="84.877,-1 84.877,-85 183.123,-85 183.123,-1 84.877,-1"/>
<text text-anchor="middle" x="134" y="-73" font-family="Helvetica,sans-Serif" font-size="10.00">draw::ArcProgress</text>
<polyline fill="none" stroke="black" points="84.877,-67 183.123,-67 "/>
<text text-anchor="middle" x="134" y="-55" font-family="Helvetica,sans-Serif" font-size="10.00"> </text>
<polyline fill="none" stroke="black" points="84.877,-49 183.123,-49 "/>
<text text-anchor="start" x="92.877" y="-37" font-family="Helvetica,sans-Serif" font-size="10.00">+ ArcProgress()</text>
<text text-anchor="start" x="92.877" y="-27" font-family="Helvetica,sans-Serif" font-size="10.00">+ draw_to_scale()</text>
<text text-anchor="start" x="92.877" y="-17" font-family="Helvetica,sans-Serif" font-size="10.00">+ set_direction()</text>
<text text-anchor="start" x="92.877" y="-7" font-family="Helvetica,sans-Serif" font-size="10.00">+ set_offset()</text>
</g>
<!-- Node2 -->
<g id="node2" class="node"><title>Node2</title>
<g id="a_node2"><a xlink:href="classdraw_1_1_progress.html" target="_top" xlink:title="Progress Class. ">
<polygon fill="none" stroke="black" points="59.5742,-123 59.5742,-207 208.426,-207 208.426,-123 59.5742,-123"/>
<text text-anchor="middle" x="134" y="-195" font-family="Helvetica,sans-Serif" font-size="10.00">draw::Progress</text>
<polyline fill="none" stroke="black" points="59.5742,-189 208.426,-189 "/>
<text text-anchor="start" x="67.5742" y="-177" font-family="Helvetica,sans-Serif" font-size="10.00"># m_scaled_border_thickness</text>
<polyline fill="none" stroke="black" points="59.5742,-171 208.426,-171 "/>
<text text-anchor="start" x="67.5742" y="-159" font-family="Helvetica,sans-Serif" font-size="10.00">+ Progress()</text>
<text text-anchor="start" x="67.5742" y="-149" font-family="Helvetica,sans-Serif" font-size="10.00">+ border_thickness()</text>
<text text-anchor="start" x="67.5742" y="-139" font-family="Helvetica,sans-Serif" font-size="10.00">+ set_border_thickness()</text>
<text text-anchor="start" x="67.5742" y="-129" font-family="Helvetica,sans-Serif" font-size="10.00"># scaled_border_thickness()</text>
</a>
</g>
</g>
<!-- Node2&#45;&gt;Node1 -->
<g id="edge1" class="edge"><title>Node2&#45;&gt;Node1</title>
<path fill="none" stroke="midnightblue" d="M134,-112.598C134,-103.506 134,-94.1447 134,-85.3733"/>
<polygon fill="none" stroke="midnightblue" points="130.5,-112.703 134,-122.703 137.5,-112.703 130.5,-112.703"/>
</g>
<!-- Node3 -->
<g id="node3" class="node"><title>Node3</title>
<g id="a_node3"><a xlink:href="classdraw_1_1_drawing.html" target="_top" xlink:title="Drawing Class. ">
<polygon fill="none" stroke="black" points="6.44727,-245 6.44727,-469 125.553,-469 125.553,-245 6.44727,-245"/>
<text text-anchor="middle" x="66" y="-457" font-family="Helvetica,sans-Serif" font-size="10.00">draw::Drawing</text>
<polyline fill="none" stroke="black" points="6.44727,-451 125.553,-451 "/>
<text text-anchor="middle" x="66" y="-439" font-family="Helvetica,sans-Serif" font-size="10.00"> </text>
<polyline fill="none" stroke="black" points="6.44727,-433 125.553,-433 "/>
<text text-anchor="start" x="14.4473" y="-421" font-family="Helvetica,sans-Serif" font-size="10.00">+ Drawing()</text>
<text text-anchor="start" x="14.4473" y="-411" font-family="Helvetica,sans-Serif" font-size="10.00">+ dark()</text>
<text text-anchor="start" x="14.4473" y="-401" font-family="Helvetica,sans-Serif" font-size="10.00">+ draw()</text>
<text text-anchor="start" x="14.4473" y="-391" font-family="Helvetica,sans-Serif" font-size="10.00">+ draw()</text>
<text text-anchor="start" x="14.4473" y="-381" font-family="Helvetica,sans-Serif" font-size="10.00">+ draw_scratch()</text>
<text text-anchor="start" x="14.4473" y="-371" font-family="Helvetica,sans-Serif" font-size="10.00">+ draw_to_scale()</text>
<text text-anchor="start" x="14.4473" y="-361" font-family="Helvetica,sans-Serif" font-size="10.00">and 18 more...</text>
<text text-anchor="start" x="14.4473" y="-351" font-family="Helvetica,sans-Serif" font-size="10.00">+ clear()</text>
<text text-anchor="start" x="14.4473" y="-341" font-family="Helvetica,sans-Serif" font-size="10.00">+ draw_checkerboard()</text>
<text text-anchor="start" x="14.4473" y="-331" font-family="Helvetica,sans-Serif" font-size="10.00">+ draw_pattern()</text>
<text text-anchor="start" x="14.4473" y="-321" font-family="Helvetica,sans-Serif" font-size="10.00">+ h()</text>
<text text-anchor="start" x="14.4473" y="-311" font-family="Helvetica,sans-Serif" font-size="10.00">+ height()</text>
<text text-anchor="start" x="14.4473" y="-301" font-family="Helvetica,sans-Serif" font-size="10.00">+ invert()</text>
<text text-anchor="start" x="14.4473" y="-291" font-family="Helvetica,sans-Serif" font-size="10.00">and 4 more...</text>
<text text-anchor="start" x="14.4473" y="-281" font-family="Helvetica,sans-Serif" font-size="10.00"># dim_on_bitmap()</text>
<text text-anchor="start" x="14.4473" y="-271" font-family="Helvetica,sans-Serif" font-size="10.00"># flag()</text>
<text text-anchor="start" x="14.4473" y="-261" font-family="Helvetica,sans-Serif" font-size="10.00"># point_on_bitmap()</text>
<text text-anchor="start" x="14.4473" y="-251" font-family="Helvetica,sans-Serif" font-size="10.00"># set_flag()</text>
</a>
</g>
</g>
<!-- Node3&#45;&gt;Node2 -->
<g id="edge2" class="edge"><title>Node3&#45;&gt;Node2</title>
<path fill="none" stroke="midnightblue" d="M109.183,-235.342C112.721,-225.457 116.115,-215.973 119.197,-207.363"/>
<polygon fill="none" stroke="midnightblue" points="105.827,-234.332 105.753,-244.926 112.418,-236.691 105.827,-234.332"/>
</g>
<!-- Node4 -->
<g id="node4" class="node"><title>Node4</title>
<g id="a_node4"><a xlink:href="classapi_1_1_draw_work_object.html" target="_top" xlink:title="State Machine Work Object Class. ">
<polygon fill="none" stroke="black" points="14.854,-507 14.854,-561 125.146,-561 125.146,-507 14.854,-507"/>
<text text-anchor="middle" x="70" y="-549" font-family="Helvetica,sans-Serif" font-size="10.00">api::DrawWorkObject</text>
<polyline fill="none" stroke="black" points="14.854,-543 125.146,-543 "/>
<text text-anchor="middle" x="70" y="-531" font-family="Helvetica,sans-Serif" font-size="10.00"> </text>
<polyline fill="none" stroke="black" points="14.854,-525 125.146,-525 "/>
<text text-anchor="middle" x="70" y="-513" font-family="Helvetica,sans-Serif" font-size="10.00"> </text>
</a>
</g>
</g>
<!-- Node4&#45;&gt;Node3 -->
<g id="edge3" class="edge"><title>Node4&#45;&gt;Node3</title>
<path fill="none" stroke="midnightblue" d="M69.1699,-496.684C68.9772,-488.251 68.7621,-478.84 68.5372,-469.001"/>
<polygon fill="none" stroke="midnightblue" points="65.6735,-496.883 69.4012,-506.801 72.6716,-496.723 65.6735,-496.883"/>
</g>
<!-- Node5 -->
<g id="node5" class="node"><title>Node5</title>
<g id="a_node5"><a xlink:href="classapi_1_1_work_object.html" target="_top" xlink:title="WorkObject Class. ">
<polygon fill="none" stroke="black" points="-0.0859375,-599 -0.0859375,-743 142.086,-743 142.086,-599 -0.0859375,-599"/>
<text text-anchor="middle" x="71" y="-731" font-family="Helvetica,sans-Serif" font-size="10.00">api::WorkObject</text>
<polyline fill="none" stroke="black" points="-0.0859375,-725 142.086,-725 "/>
<text text-anchor="middle" x="71" y="-713" font-family="Helvetica,sans-Serif" font-size="10.00"> </text>
<polyline fill="none" stroke="black" points="-0.0859375,-707 142.086,-707 "/>
<text text-anchor="start" x="7.91406" y="-695" font-family="Helvetica,sans-Serif" font-size="10.00">+ WorkObject()</text>
<text text-anchor="start" x="7.91406" y="-685" font-family="Helvetica,sans-Serif" font-size="10.00">+ clear_error_number()</text>
<text text-anchor="start" x="7.91406" y="-675" font-family="Helvetica,sans-Serif" font-size="10.00">+ error_number()</text>
<text text-anchor="start" x="7.91406" y="-665" font-family="Helvetica,sans-Serif" font-size="10.00">+ exit_fatal()</text>
<text text-anchor="start" x="7.91406" y="-655" font-family="Helvetica,sans-Serif" font-size="10.00"># set_error_number()</text>
<text text-anchor="start" x="7.91406" y="-645" font-family="Helvetica,sans-Serif" font-size="10.00"># set_error_number_if</text>
<text text-anchor="start" x="7.91406" y="-635" font-family="Helvetica,sans-Serif" font-size="10.00">_error()</text>
<text text-anchor="start" x="7.91406" y="-625" font-family="Helvetica,sans-Serif" font-size="10.00"># set_error_number_if_null()</text>
<text text-anchor="start" x="7.91406" y="-615" font-family="Helvetica,sans-Serif" font-size="10.00"># set_error_number_to</text>
<text text-anchor="start" x="7.91406" y="-605" font-family="Helvetica,sans-Serif" font-size="10.00">_errno()</text>
</a>
</g>
</g>
<!-- Node5&#45;&gt;Node4 -->
<g id="edge4" class="edge"><title>Node5&#45;&gt;Node4</title>
<path fill="none" stroke="midnightblue" d="M70.3993,-588.911C70.3258,-578.983 70.2553,-569.464 70.1945,-561.262"/>
<polygon fill="none" stroke="midnightblue" points="66.8996,-588.968 70.4736,-598.942 73.8994,-588.916 66.8996,-588.968"/>
</g>
<!-- Node6 -->
<g id="node6" class="node"><title>Node6</title>
<g id="a_node6"><a xlink:href="classapi_1_1_api_object.html" target="_top" xlink:title="API Object Class. ">
<polygon fill="none" stroke="black" points="93.7896,-781 93.7896,-835 176.21,-835 176.21,-781 93.7896,-781"/>
<text text-anchor="middle" x="135" y="-823" font-family="Helvetica,sans-Serif" font-size="10.00">api::ApiObject</text>
<polyline fill="none" stroke="black" points="93.7896,-817 176.21,-817 "/>
<text text-anchor="middle" x="135" y="-805" font-family="Helvetica,sans-Serif" font-size="10.00"> </text>
<polyline fill="none" stroke="black" points="93.7896,-799 176.21,-799 "/>
<text text-anchor="start" x="101.79" y="-787" font-family="Helvetica,sans-Serif" font-size="10.00">+ api_version()</text>
</a>
</g>
</g>
<!-- Node6&#45;&gt;Node5 -->
<g id="edge5" class="edge"><title>Node6&#45;&gt;Node5</title>
<path fill="none" stroke="midnightblue" d="M118.302,-771.777C114.1,-762.915 109.439,-753.083 104.728,-743.145"/>
<polygon fill="none" stroke="midnightblue" points="115.214,-773.434 122.66,-780.971 121.539,-770.435 115.214,-773.434"/>
</g>
<!-- Node9 -->
<g id="node9" class="node"><title>Node9</title>
<g id="a_node9"><a xlink:href="classapi_1_1_info_object.html" target="_top" xlink:title="API Information Object. ">
<polygon fill="none" stroke="black" points="159.759,-644 159.759,-698 240.241,-698 240.241,-644 159.759,-644"/>
<text text-anchor="middle" x="200" y="-686" font-family="Helvetica,sans-Serif" font-size="10.00">api::InfoObject</text>
<polyline fill="none" stroke="black" points="159.759,-680 240.241,-680 "/>
<text text-anchor="middle" x="200" y="-668" font-family="Helvetica,sans-Serif" font-size="10.00"> </text>
<polyline fill="none" stroke="black" points="159.759,-662 240.241,-662 "/>
<text text-anchor="middle" x="200" y="-650" font-family="Helvetica,sans-Serif" font-size="10.00"> </text>
</a>
</g>
</g>
<!-- Node6&#45;&gt;Node9 -->
<g id="edge9" class="edge"><title>Node6&#45;&gt;Node9</title>
<path fill="none" stroke="midnightblue" d="M151.905,-771.889C162.965,-748.919 177.182,-719.39 187.284,-698.41"/>
<polygon fill="none" stroke="midnightblue" points="148.717,-770.442 147.533,-780.971 155.024,-773.479 148.717,-770.442"/>
</g>
<!-- Node7 -->
<g id="node7" class="node"><title>Node7</title>
<g id="a_node7"><a xlink:href="classdraw_1_1_progress_attr.html" target="_top" xlink:title="Progress Attribute Class. ">
<polygon fill="none" stroke="black" points="143.726,-300 143.726,-414 262.274,-414 262.274,-300 143.726,-300"/>
<text text-anchor="middle" x="203" y="-402" font-family="Helvetica,sans-Serif" font-size="10.00">draw::ProgressAttr</text>
<polyline fill="none" stroke="black" points="143.726,-396 262.274,-396 "/>
<text text-anchor="middle" x="203" y="-384" font-family="Helvetica,sans-Serif" font-size="10.00"> </text>
<polyline fill="none" stroke="black" points="143.726,-378 262.274,-378 "/>
<text text-anchor="start" x="151.726" y="-366" font-family="Helvetica,sans-Serif" font-size="10.00">+ ProgressAttr()</text>
<text text-anchor="start" x="151.726" y="-356" font-family="Helvetica,sans-Serif" font-size="10.00">+ ProgressAttr()</text>
<text text-anchor="start" x="151.726" y="-346" font-family="Helvetica,sans-Serif" font-size="10.00">+ max()</text>
<text text-anchor="start" x="151.726" y="-336" font-family="Helvetica,sans-Serif" font-size="10.00">+ operator progress_t()</text>
<text text-anchor="start" x="151.726" y="-326" font-family="Helvetica,sans-Serif" font-size="10.00">+ pen()</text>
<text text-anchor="start" x="151.726" y="-316" font-family="Helvetica,sans-Serif" font-size="10.00">+ set_attr()</text>
<text text-anchor="start" x="151.726" y="-306" font-family="Helvetica,sans-Serif" font-size="10.00">and 5 more...</text>
</a>
</g>
</g>
<!-- Node7&#45;&gt;Node2 -->
<g id="edge6" class="edge"><title>Node7&#45;&gt;Node2</title>
<path fill="none" stroke="midnightblue" d="M179.09,-290.16C169.055,-262.528 157.696,-231.25 148.89,-207.001"/>
<polygon fill="none" stroke="midnightblue" points="175.874,-291.56 182.578,-299.765 182.454,-289.171 175.874,-291.56"/>
</g>
<!-- Node8 -->
<g id="node8" class="node"><title>Node8</title>
<g id="a_node8"><a xlink:href="classapi_1_1_draw_info_object.html" target="_top" xlink:title="Draw Information Object. ">
<polygon fill="none" stroke="black" points="150.091,-507 150.091,-561 253.909,-561 253.909,-507 150.091,-507"/>
<text text-anchor="middle" x="202" y="-549" font-family="Helvetica,sans-Serif" font-size="10.00">api::DrawInfoObject</text>
<polyline fill="none" stroke="black" points="150.091,-543 253.909,-543 "/>
<text text-anchor="middle" x="202" y="-531" font-family="Helvetica,sans-Serif" font-size="10.00"> </text>
<polyline fill="none" stroke="black" points="150.091,-525 253.909,-525 "/>
<text text-anchor="middle" x="202" y="-513" font-family="Helvetica,sans-Serif" font-size="10.00"> </text>
</a>
</g>
</g>
<!-- Node8&#45;&gt;Node7 -->
<g id="edge7" class="edge"><title>Node8&#45;&gt;Node7</title>
<path fill="none" stroke="midnightblue" d="M202.207,-496.764C202.343,-472.902 202.525,-441.182 202.679,-414.093"/>
<polygon fill="none" stroke="midnightblue" points="198.707,-496.781 202.15,-506.801 205.707,-496.821 198.707,-496.781"/>
</g>
<!-- Node9&#45;&gt;Node8 -->
<g id="edge8" class="edge"><title>Node9&#45;&gt;Node8</title>
<path fill="none" stroke="midnightblue" d="M200.534,-633.967C200.872,-611.133 201.302,-582.111 201.609,-561.41"/>
<polygon fill="none" stroke="midnightblue" points="197.034,-633.92 200.386,-643.971 204.033,-634.024 197.034,-633.92"/>
</g>
</g>
</svg>
        <g id="navigator" transform="translate(0 0)" fill="#404254">
                <rect fill="#f2f5e9" fill-opacity="0.5" stroke="#606060" stroke-width=".5" x="0" y="0" width="60" height="60"/>
                <use id="zoomplus" xlink:href="#zoomPlus" x="17" y="9" onmousedown="handleZoom(evt,'in')"/>
                <use id="zoomminus" xlink:href="#zoomMin" x="42" y="9" onmousedown="handleZoom(evt,'out')"/>
                <use id="reset" xlink:href="#resetDef" x="30" y="36" onmousedown="handleReset()"/>
                <g id="arrowUp" xlink:href="#dirArrow" transform="translate(30 24)" onmousedown="handlePan(0,-1)">
                  <use xlink:href="#rim" fill="#404040">
                        <set attributeName="fill" to="#808080" begin="arrowUp.mouseover" end="arrowUp.mouseout"/>
                  </use>
                  <path fill="none" stroke="white" stroke-width="1.5" d="M0,-3.0v7 M-2.5,-0.5L0,-3.0L2.5,-0.5"/>
                </g>
                <g id="arrowRight" xlink:href="#dirArrow" transform="rotate(90) translate(36 -43)" onmousedown="handlePan(1,0)">
                  <use xlink:href="#rim" fill="#404040">
                        <set attributeName="fill" to="#808080" begin="arrowRight.mouseover" end="arrowRight.mouseout"/>
                  </use>
                  <path fill="none" stroke="white" stroke-width="1.5" d="M0,-3.0v7 M-2.5,-0.5L0,-3.0L2.5,-0.5"/>
                </g>
                <g id="arrowDown" xlink:href="#dirArrow" transform="rotate(180) translate(-30 -48)" onmousedown="handlePan(0,1)">
                  <use xlink:href="#rim" fill="#404040">
                        <set attributeName="fill" to="#808080" begin="arrowDown.mouseover" end="arrowDown.mouseout"/>
                  </use>
                  <path fill="none" stroke="white" stroke-width="1.5" d="M0,-3.0v7 M-2.5,-0.5L0,-3.0L2.5,-0.5"/>
                </g>
                <g id="arrowLeft" xlink:href="#dirArrow" transform="rotate(270) translate(-36 17)" onmousedown="handlePan(-1,0)">
                  <use xlink:href="#rim" fill="#404040">
                        <set attributeName="fill" to="#808080" begin="arrowLeft.mouseover" end="arrowLeft.mouseout"/>
                  </use>
                  <path fill="none" stroke="white" stroke-width="1.5" d="M0,-3.0v7 M-2.5,-0.5L0,-3.0L2.5,-0.5"/>
                </g>
        </g>
        <svg viewBox="0 0 15 15" width="100%" height="30px" preserveAspectRatio="xMaxYMin meet">
         <g id="arrow_out" transform="scale(0.3 0.3)">
          <a xlink:href="classdraw_1_1_arc_progress__inherit__graph_org.svg" target="_base">
           <rect id="button" ry="5" rx="5" y="6" x="6" height="38" width="38"
                fill="#f2f5e9" fill-opacity="0.5" stroke="#606060" stroke-width="1.0"/>
           <path id="arrow"
             d="M 11.500037,31.436501 C 11.940474,20.09759 22.043105,11.32322 32.158766,21.979434 L 37.068811,17.246167 C 37.068811,17.246167 37.088388,32 37.088388,32 L 22.160133,31.978069 C 22.160133,31.978069 26.997745,27.140456 26.997745,27.140456 C 18.528582,18.264221 13.291696,25.230495 11.500037,31.436501 z"
             style="fill:#404040;"/>
          </a>
         </g>
        </svg>
</svg>
