<?xml version="1.0" encoding="UTF-8" standalone="no"?>
<!DOCTYPE svg PUBLIC "-//W3C//DTD SVG 1.1//EN"
 "http://www.w3.org/Graphics/SVG/1.1/DTD/svg11.dtd">
<!-- Generated by graphviz version 2.36.0 (20140111.2315)
 -->
<!-- Title: sgfx::MemoryFont Pages: 1 -->
<!--zoomable 752 -->
<svg id="main" version="1.1" xmlns="http://www.w3.org/2000/svg" xmlns:xlink="http://www.w3.org/1999/xlink" xml:space="preserve" onload="init(evt)">
<style type="text/css"><![CDATA[
.edge:hover path { stroke: red; }
.edge:hover polygon { stroke: red; fill: red; }
]]></style>
<script type="text/javascript"><![CDATA[
var edges = document.getElementsByTagName('g');
if (edges && edges.length) {
  for (var i=0;i<edges.length;i++) {
    if (edges[i].id.substr(0,4)=='edge') {
      edges[i].setAttribute('class','edge');
    }
  }
}
]]></script>
        <defs>
                <circle id="rim" cx="0" cy="0" r="7"/>
                <circle id="rim2" cx="0" cy="0" r="3.5"/>
                <g id="zoomPlus">
                        <use xlink:href="#rim" fill="#404040">
                                <set attributeName="fill" to="#808080" begin="zoomplus.mouseover" end="zoomplus.mouseout"/>
                        </use>
                        <path d="M-4,0h8M0,-4v8" fill="none" stroke="white" stroke-width="1.5" pointer-events="none"/>
                </g>
                <g id="zoomMin">
                        <use xlink:href="#rim" fill="#404040">
                                <set attributeName="fill" to="#808080" begin="zoomminus.mouseover" end="zoomminus.mouseout"/>
                        </use>
                        <path d="M-4,0h8" fill="none" stroke="white" stroke-width="1.5" pointer-events="none"/>
                </g>
                <g id="dirArrow">
                        <path fill="none" stroke="white" stroke-width="1.5" d="M0,-3.0v7 M-2.5,-0.5L0,-3.0L2.5,-0.5"/>
                </g>
               <g id="resetDef">
                       <use xlink:href="#rim2" fill="#404040">
                               <set attributeName="fill" to="#808080" begin="reset.mouseover" end="reset.mouseout"/>
                       </use>
               </g>
        </defs>

<script type="text/javascript">
var viewWidth = 150;
var viewHeight = 752;
var sectionId = 'dynsection-0';
</script>
<script xlink:href="svgpan.js"/>
<svg id="graph" class="graph">
<g id="viewport">
<title>sgfx::MemoryFont</title>
<!-- Node1 -->
<g id="node1" class="node"><title>Node1</title>
<polygon fill="#bfbfbf" stroke="black" points="6.0249,-1 6.0249,-135 135.975,-135 135.975,-1 6.0249,-1"/>
<text text-anchor="middle" x="71" y="-123" font-family="Helvetica,sans-Serif" font-size="10.00">sgfx::MemoryFont</text>
<polyline fill="none" stroke="black" points="6.0249,-117 135.975,-117 "/>
<text text-anchor="middle" x="71" y="-105" font-family="Helvetica,sans-Serif" font-size="10.00"> </text>
<polyline fill="none" stroke="black" points="6.0249,-99 135.975,-99 "/>
<text text-anchor="start" x="14.0249" y="-87" font-family="Helvetica,sans-Serif" font-size="10.00">+ MemoryFont()</text>
<text text-anchor="start" x="14.0249" y="-77" font-family="Helvetica,sans-Serif" font-size="10.00">+ MemoryFont()</text>
<text text-anchor="start" x="14.0249" y="-67" font-family="Helvetica,sans-Serif" font-size="10.00">+ font_memory()</text>
<text text-anchor="start" x="14.0249" y="-57" font-family="Helvetica,sans-Serif" font-size="10.00">+ get_height()</text>
<text text-anchor="start" x="14.0249" y="-47" font-family="Helvetica,sans-Serif" font-size="10.00">+ get_width()</text>
<text text-anchor="start" x="14.0249" y="-37" font-family="Helvetica,sans-Serif" font-size="10.00">+ set_font_memory()</text>
<text text-anchor="start" x="14.0249" y="-27" font-family="Helvetica,sans-Serif" font-size="10.00"># draw_char_on_bitmap()</text>
<text text-anchor="start" x="14.0249" y="-17" font-family="Helvetica,sans-Serif" font-size="10.00"># load_char()</text>
<text text-anchor="start" x="14.0249" y="-7" font-family="Helvetica,sans-Serif" font-size="10.00"># load_kerning()</text>
</g>
<!-- Node2 -->
<g id="node2" class="node"><title>Node2</title>
<g id="a_node2"><a xlink:href="classsgfx_1_1_font.html" target="_top" xlink:title="Font class. ">
<polygon fill="none" stroke="black" points="6.0249,-173 6.0249,-377 135.975,-377 135.975,-173 6.0249,-173"/>
<text text-anchor="middle" x="71" y="-365" font-family="Helvetica,sans-Serif" font-size="10.00">sgfx::Font</text>
<polyline fill="none" stroke="black" points="6.0249,-359 135.975,-359 "/>
<text text-anchor="start" x="14.0249" y="-347" font-family="Helvetica,sans-Serif" font-size="10.00"># m_char</text>
<text text-anchor="start" x="14.0249" y="-337" font-family="Helvetica,sans-Serif" font-size="10.00"># m_hdr</text>
<text text-anchor="start" x="14.0249" y="-327" font-family="Helvetica,sans-Serif" font-size="10.00"># m_letter_spacing</text>
<text text-anchor="start" x="14.0249" y="-317" font-family="Helvetica,sans-Serif" font-size="10.00"># m_offset</text>
<text text-anchor="start" x="14.0249" y="-307" font-family="Helvetica,sans-Serif" font-size="10.00"># m_space_size</text>
<polyline fill="none" stroke="black" points="6.0249,-301 135.975,-301 "/>
<text text-anchor="start" x="14.0249" y="-289" font-family="Helvetica,sans-Serif" font-size="10.00">+ Font()</text>
<text text-anchor="start" x="14.0249" y="-279" font-family="Helvetica,sans-Serif" font-size="10.00">+ bits_per_pixel()</text>
<text text-anchor="start" x="14.0249" y="-269" font-family="Helvetica,sans-Serif" font-size="10.00">+ calc_len()</text>
<text text-anchor="start" x="14.0249" y="-259" font-family="Helvetica,sans-Serif" font-size="10.00">+ character()</text>
<text text-anchor="start" x="14.0249" y="-249" font-family="Helvetica,sans-Serif" font-size="10.00">+ draw_char()</text>
<text text-anchor="start" x="14.0249" y="-239" font-family="Helvetica,sans-Serif" font-size="10.00">+ draw_str()</text>
<text text-anchor="start" x="14.0249" y="-229" font-family="Helvetica,sans-Serif" font-size="10.00">and 11 more...</text>
<text text-anchor="start" x="14.0249" y="-219" font-family="Helvetica,sans-Serif" font-size="10.00">+ charset()</text>
<text text-anchor="start" x="14.0249" y="-209" font-family="Helvetica,sans-Serif" font-size="10.00"># draw_char_on_bitmap()</text>
<text text-anchor="start" x="14.0249" y="-199" font-family="Helvetica,sans-Serif" font-size="10.00"># load_char()</text>
<text text-anchor="start" x="14.0249" y="-189" font-family="Helvetica,sans-Serif" font-size="10.00"># load_kerning()</text>
<text text-anchor="start" x="14.0249" y="-179" font-family="Helvetica,sans-Serif" font-size="10.00"># to_charset()</text>
</a>
</g>
</g>
<!-- Node2&#45;&gt;Node1 -->
<g id="edge1" class="edge"><title>Node2&#45;&gt;Node1</title>
<path fill="none" stroke="midnightblue" d="M71,-162.582C71,-153.279 71,-144.075 71,-135.279"/>
<polygon fill="none" stroke="midnightblue" points="67.5001,-162.701 71,-172.701 74.5001,-162.701 67.5001,-162.701"/>
</g>
<!-- Node3 -->
<g id="node3" class="node"><title>Node3</title>
<g id="a_node3"><a xlink:href="classapi_1_1_sgfx_work_object.html" target="_top" xlink:title="Sgfx Work Object. ">
<polygon fill="none" stroke="black" points="17.5166,-415 17.5166,-469 124.483,-469 124.483,-415 17.5166,-415"/>
<text text-anchor="middle" x="71" y="-457" font-family="Helvetica,sans-Serif" font-size="10.00">api::SgfxWorkObject</text>
<polyline fill="none" stroke="black" points="17.5166,-451 124.483,-451 "/>
<text text-anchor="middle" x="71" y="-439" font-family="Helvetica,sans-Serif" font-size="10.00"> </text>
<polyline fill="none" stroke="black" points="17.5166,-433 124.483,-433 "/>
<text text-anchor="middle" x="71" y="-421" font-family="Helvetica,sans-Serif" font-size="10.00"> </text>
</a>
</g>
</g>
<!-- Node3&#45;&gt;Node2 -->
<g id="edge2" class="edge"><title>Node3&#45;&gt;Node2</title>
<path fill="none" stroke="midnightblue" d="M71,-404.706C71,-396.256 71,-386.851 71,-377.079"/>
<polygon fill="none" stroke="midnightblue" points="67.5001,-404.855 71,-414.855 74.5001,-404.855 67.5001,-404.855"/>
</g>
<!-- Node4 -->
<g id="node4" class="node"><title>Node4</title>
<g id="a_node4"><a xlink:href="classapi_1_1_work_object.html" target="_top" xlink:title="Work Object. ">
<polygon fill="none" stroke="black" points="-0.0859375,-507 -0.0859375,-651 142.086,-651 142.086,-507 -0.0859375,-507"/>
<text text-anchor="middle" x="71" y="-639" font-family="Helvetica,sans-Serif" font-size="10.00">api::WorkObject</text>
<polyline fill="none" stroke="black" points="-0.0859375,-633 142.086,-633 "/>
<text text-anchor="middle" x="71" y="-621" font-family="Helvetica,sans-Serif" font-size="10.00"> </text>
<polyline fill="none" stroke="black" points="-0.0859375,-615 142.086,-615 "/>
<text text-anchor="start" x="7.91406" y="-603" font-family="Helvetica,sans-Serif" font-size="10.00">+ WorkObject()</text>
<text text-anchor="start" x="7.91406" y="-593" font-family="Helvetica,sans-Serif" font-size="10.00">+ clear_error_number()</text>
<text text-anchor="start" x="7.91406" y="-583" font-family="Helvetica,sans-Serif" font-size="10.00">+ error_number()</text>
<text text-anchor="start" x="7.91406" y="-573" font-family="Helvetica,sans-Serif" font-size="10.00">+ exit_fatal()</text>
<text text-anchor="start" x="7.91406" y="-563" font-family="Helvetica,sans-Serif" font-size="10.00"># set_error_number()</text>
<text text-anchor="start" x="7.91406" y="-553" font-family="Helvetica,sans-Serif" font-size="10.00"># set_error_number_if</text>
<text text-anchor="start" x="7.91406" y="-543" font-family="Helvetica,sans-Serif" font-size="10.00">_error()</text>
<text text-anchor="start" x="7.91406" y="-533" font-family="Helvetica,sans-Serif" font-size="10.00"># set_error_number_if_null()</text>
<text text-anchor="start" x="7.91406" y="-523" font-family="Helvetica,sans-Serif" font-size="10.00"># set_error_number_to</text>
<text text-anchor="start" x="7.91406" y="-513" font-family="Helvetica,sans-Serif" font-size="10.00">_errno()</text>
</a>
</g>
</g>
<!-- Node4&#45;&gt;Node3 -->
<g id="edge3" class="edge"><title>Node4&#45;&gt;Node3</title>
<path fill="none" stroke="midnightblue" d="M71,-496.911C71,-486.983 71,-477.464 71,-469.262"/>
<polygon fill="none" stroke="midnightblue" points="67.5001,-496.942 71,-506.942 74.5001,-496.942 67.5001,-496.942"/>
</g>
<!-- Node5 -->
<g id="node5" class="node"><title>Node5</title>
<g id="a_node5"><a xlink:href="classapi_1_1_api_object.html" target="_top" xlink:title="Application Programming Interface Object. ">
<polygon fill="none" stroke="black" points="29.7896,-689 29.7896,-743 112.21,-743 112.21,-689 29.7896,-689"/>
<text text-anchor="middle" x="71" y="-731" font-family="Helvetica,sans-Serif" font-size="10.00">api::ApiObject</text>
<polyline fill="none" stroke="black" points="29.7896,-725 112.21,-725 "/>
<text text-anchor="middle" x="71" y="-713" font-family="Helvetica,sans-Serif" font-size="10.00"> </text>
<polyline fill="none" stroke="black" points="29.7896,-707 112.21,-707 "/>
<text text-anchor="start" x="37.7896" y="-695" font-family="Helvetica,sans-Serif" font-size="10.00">+ api_version()</text>
</a>
</g>
</g>
<!-- Node5&#45;&gt;Node4 -->
<g id="edge4" class="edge"><title>Node5&#45;&gt;Node4</title>
<path fill="none" stroke="midnightblue" d="M71,-678.925C71,-670.287 71,-660.765 71,-651.145"/>
<polygon fill="none" stroke="midnightblue" points="67.5001,-678.971 71,-688.971 74.5001,-678.971 67.5001,-678.971"/>
</g>
</g>
</svg>
        <g id="navigator" transform="translate(0 0)" fill="#404254">
                <rect fill="#f2f5e9" fill-opacity="0.5" stroke="#606060" stroke-width=".5" x="0" y="0" width="60" height="60"/>
                <use id="zoomplus" xlink:href="#zoomPlus" x="17" y="9" onmousedown="handleZoom(evt,'in')"/>
                <use id="zoomminus" xlink:href="#zoomMin" x="42" y="9" onmousedown="handleZoom(evt,'out')"/>
                <use id="reset" xlink:href="#resetDef" x="30" y="36" onmousedown="handleReset()"/>
                <g id="arrowUp" xlink:href="#dirArrow" transform="translate(30 24)" onmousedown="handlePan(0,-1)">
                  <use xlink:href="#rim" fill="#404040">
                        <set attributeName="fill" to="#808080" begin="arrowUp.mouseover" end="arrowUp.mouseout"/>
                  </use>
                  <path fill="none" stroke="white" stroke-width="1.5" d="M0,-3.0v7 M-2.5,-0.5L0,-3.0L2.5,-0.5"/>
                </g>
                <g id="arrowRight" xlink:href="#dirArrow" transform="rotate(90) translate(36 -43)" onmousedown="handlePan(1,0)">
                  <use xlink:href="#rim" fill="#404040">
                        <set attributeName="fill" to="#808080" begin="arrowRight.mouseover" end="arrowRight.mouseout"/>
                  </use>
                  <path fill="none" stroke="white" stroke-width="1.5" d="M0,-3.0v7 M-2.5,-0.5L0,-3.0L2.5,-0.5"/>
                </g>
                <g id="arrowDown" xlink:href="#dirArrow" transform="rotate(180) translate(-30 -48)" onmousedown="handlePan(0,1)">
                  <use xlink:href="#rim" fill="#404040">
                        <set attributeName="fill" to="#808080" begin="arrowDown.mouseover" end="arrowDown.mouseout"/>
                  </use>
                  <path fill="none" stroke="white" stroke-width="1.5" d="M0,-3.0v7 M-2.5,-0.5L0,-3.0L2.5,-0.5"/>
                </g>
                <g id="arrowLeft" xlink:href="#dirArrow" transform="rotate(270) translate(-36 17)" onmousedown="handlePan(-1,0)">
                  <use xlink:href="#rim" fill="#404040">
                        <set attributeName="fill" to="#808080" begin="arrowLeft.mouseover" end="arrowLeft.mouseout"/>
                  </use>
                  <path fill="none" stroke="white" stroke-width="1.5" d="M0,-3.0v7 M-2.5,-0.5L0,-3.0L2.5,-0.5"/>
                </g>
        </g>
        <svg viewBox="0 0 15 15" width="100%" height="30px" preserveAspectRatio="xMaxYMin meet">
         <g id="arrow_out" transform="scale(0.3 0.3)">
          <a xlink:href="classsgfx_1_1_memory_font__inherit__graph_org.svg" target="_base">
           <rect id="button" ry="5" rx="5" y="6" x="6" height="38" width="38"
                fill="#f2f5e9" fill-opacity="0.5" stroke="#606060" stroke-width="1.0"/>
           <path id="arrow"
             d="M 11.500037,31.436501 C 11.940474,20.09759 22.043105,11.32322 32.158766,21.979434 L 37.068811,17.246167 C 37.068811,17.246167 37.088388,32 37.088388,32 L 22.160133,31.978069 C 22.160133,31.978069 26.997745,27.140456 26.997745,27.140456 C 18.528582,18.264221 13.291696,25.230495 11.500037,31.436501 z"
             style="fill:#404040;"/>
          </a>
         </g>
        </svg>
</svg>
