<?xml version="1.0" encoding="UTF-8" standalone="no"?>
<!DOCTYPE svg PUBLIC "-//W3C//DTD SVG 1.1//EN"
 "http://www.w3.org/Graphics/SVG/1.1/DTD/svg11.dtd">
<!-- Generated by graphviz version 2.36.0 (20140111.2315)
 -->
<!-- Title: draw::Icon Pages: 1 -->
<svg width="252pt" height="702pt"
 viewBox="0.00 0.00 252.00 702.00" xmlns="http://www.w3.org/2000/svg" xmlns:xlink="http://www.w3.org/1999/xlink">
<g id="graph0" class="graph" transform="scale(1 1) rotate(0) translate(4 698)">
<title>draw::Icon</title>
<!-- Node1 -->
<g id="node1" class="node"><title>Node1</title>
<polygon fill="#bfbfbf" stroke="black" points="76.1196,-1 76.1196,-75 171.88,-75 171.88,-1 76.1196,-1"/>
<text text-anchor="middle" x="124" y="-63" font-family="Helvetica,sans-Serif" font-size="10.00">draw::Icon</text>
<polyline fill="none" stroke="black" points="76.1196,-57 171.88,-57 "/>
<text text-anchor="middle" x="124" y="-45" font-family="Helvetica,sans-Serif" font-size="10.00"> </text>
<polyline fill="none" stroke="black" points="76.1196,-39 171.88,-39 "/>
<text text-anchor="start" x="84.1196" y="-27" font-family="Helvetica,sans-Serif" font-size="10.00">+ Icon()</text>
<text text-anchor="start" x="84.1196" y="-17" font-family="Helvetica,sans-Serif" font-size="10.00">+ bounds()</text>
<text text-anchor="start" x="84.1196" y="-7" font-family="Helvetica,sans-Serif" font-size="10.00">+ draw_to_scale()</text>
</g>
<!-- Node2 -->
<g id="node2" class="node"><title>Node2</title>
<g id="a_node2"><a xlink:href="classdraw_1_1_drawing.html" target="_top" xlink:title="Drawing Class. ">
<polygon fill="none" stroke="black" points="-0.552734,-113 -0.552734,-337 118.553,-337 118.553,-113 -0.552734,-113"/>
<text text-anchor="middle" x="59" y="-325" font-family="Helvetica,sans-Serif" font-size="10.00">draw::Drawing</text>
<polyline fill="none" stroke="black" points="-0.552734,-319 118.553,-319 "/>
<text text-anchor="middle" x="59" y="-307" font-family="Helvetica,sans-Serif" font-size="10.00"> </text>
<polyline fill="none" stroke="black" points="-0.552734,-301 118.553,-301 "/>
<text text-anchor="start" x="7.44727" y="-289" font-family="Helvetica,sans-Serif" font-size="10.00">+ Drawing()</text>
<text text-anchor="start" x="7.44727" y="-279" font-family="Helvetica,sans-Serif" font-size="10.00">+ dark()</text>
<text text-anchor="start" x="7.44727" y="-269" font-family="Helvetica,sans-Serif" font-size="10.00">+ draw()</text>
<text text-anchor="start" x="7.44727" y="-259" font-family="Helvetica,sans-Serif" font-size="10.00">+ draw()</text>
<text text-anchor="start" x="7.44727" y="-249" font-family="Helvetica,sans-Serif" font-size="10.00">+ draw_scratch()</text>
<text text-anchor="start" x="7.44727" y="-239" font-family="Helvetica,sans-Serif" font-size="10.00">+ draw_to_scale()</text>
<text text-anchor="start" x="7.44727" y="-229" font-family="Helvetica,sans-Serif" font-size="10.00">and 18 more...</text>
<text text-anchor="start" x="7.44727" y="-219" font-family="Helvetica,sans-Serif" font-size="10.00">+ clear()</text>
<text text-anchor="start" x="7.44727" y="-209" font-family="Helvetica,sans-Serif" font-size="10.00">+ draw_checkerboard()</text>
<text text-anchor="start" x="7.44727" y="-199" font-family="Helvetica,sans-Serif" font-size="10.00">+ draw_pattern()</text>
<text text-anchor="start" x="7.44727" y="-189" font-family="Helvetica,sans-Serif" font-size="10.00">+ h()</text>
<text text-anchor="start" x="7.44727" y="-179" font-family="Helvetica,sans-Serif" font-size="10.00">+ height()</text>
<text text-anchor="start" x="7.44727" y="-169" font-family="Helvetica,sans-Serif" font-size="10.00">+ invert()</text>
<text text-anchor="start" x="7.44727" y="-159" font-family="Helvetica,sans-Serif" font-size="10.00">and 4 more...</text>
<text text-anchor="start" x="7.44727" y="-149" font-family="Helvetica,sans-Serif" font-size="10.00"># dim_on_bitmap()</text>
<text text-anchor="start" x="7.44727" y="-139" font-family="Helvetica,sans-Serif" font-size="10.00"># flag()</text>
<text text-anchor="start" x="7.44727" y="-129" font-family="Helvetica,sans-Serif" font-size="10.00"># point_on_bitmap()</text>
<text text-anchor="start" x="7.44727" y="-119" font-family="Helvetica,sans-Serif" font-size="10.00"># set_flag()</text>
</a>
</g>
</g>
<!-- Node2&#45;&gt;Node1 -->
<g id="edge1" class="edge"><title>Node2&#45;&gt;Node1</title>
<path fill="none" stroke="midnightblue" d="M101.438,-103.216C104.944,-93.2372 108.279,-83.7445 111.257,-75.2673"/>
<polygon fill="none" stroke="midnightblue" points="98.0429,-102.32 98.0301,-112.914 104.647,-104.64 98.0429,-102.32"/>
</g>
<!-- Node3 -->
<g id="node3" class="node"><title>Node3</title>
<g id="a_node3"><a xlink:href="classapi_1_1_draw_work_object.html" target="_top" xlink:title="State Machine Work Object Class. ">
<polygon fill="none" stroke="black" points="6.854,-375 6.854,-429 117.146,-429 117.146,-375 6.854,-375"/>
<text text-anchor="middle" x="62" y="-417" font-family="Helvetica,sans-Serif" font-size="10.00">api::DrawWorkObject</text>
<polyline fill="none" stroke="black" points="6.854,-411 117.146,-411 "/>
<text text-anchor="middle" x="62" y="-399" font-family="Helvetica,sans-Serif" font-size="10.00"> </text>
<polyline fill="none" stroke="black" points="6.854,-393 117.146,-393 "/>
<text text-anchor="middle" x="62" y="-381" font-family="Helvetica,sans-Serif" font-size="10.00"> </text>
</a>
</g>
</g>
<!-- Node3&#45;&gt;Node2 -->
<g id="edge2" class="edge"><title>Node3&#45;&gt;Node2</title>
<path fill="none" stroke="midnightblue" d="M61.3774,-364.684C61.2329,-356.251 61.0715,-346.84 60.9029,-337.001"/>
<polygon fill="none" stroke="midnightblue" points="57.8799,-364.862 61.5509,-374.801 64.8789,-364.742 57.8799,-364.862"/>
</g>
<!-- Node4 -->
<g id="node4" class="node"><title>Node4</title>
<g id="a_node4"><a xlink:href="classapi_1_1_work_object.html" target="_top" xlink:title="WorkObject Class. ">
<polygon fill="none" stroke="black" points="6.45215,-467 6.45215,-601 125.548,-601 125.548,-467 6.45215,-467"/>
<text text-anchor="middle" x="66" y="-589" font-family="Helvetica,sans-Serif" font-size="10.00">api::WorkObject</text>
<polyline fill="none" stroke="black" points="6.45215,-583 125.548,-583 "/>
<text text-anchor="middle" x="66" y="-571" font-family="Helvetica,sans-Serif" font-size="10.00"> </text>
<polyline fill="none" stroke="black" points="6.45215,-565 125.548,-565 "/>
<text text-anchor="start" x="14.4521" y="-553" font-family="Helvetica,sans-Serif" font-size="10.00">+ WorkObject()</text>
<text text-anchor="start" x="14.4521" y="-543" font-family="Helvetica,sans-Serif" font-size="10.00">+ clear_error_number()</text>
<text text-anchor="start" x="14.4521" y="-533" font-family="Helvetica,sans-Serif" font-size="10.00">+ error_number()</text>
<text text-anchor="start" x="14.4521" y="-523" font-family="Helvetica,sans-Serif" font-size="10.00">+ exit_fatal()</text>
<text text-anchor="start" x="14.4521" y="-513" font-family="Helvetica,sans-Serif" font-size="10.00"># set_error_number()</text>
<text text-anchor="start" x="14.4521" y="-503" font-family="Helvetica,sans-Serif" font-size="10.00"># set_error_number_if</text>
<text text-anchor="start" x="14.4521" y="-493" font-family="Helvetica,sans-Serif" font-size="10.00">_error()</text>
<text text-anchor="start" x="14.4521" y="-483" font-family="Helvetica,sans-Serif" font-size="10.00"># set_error_number_to</text>
<text text-anchor="start" x="14.4521" y="-473" font-family="Helvetica,sans-Serif" font-size="10.00">_errno()</text>
</a>
</g>
</g>
<!-- Node4&#45;&gt;Node3 -->
<g id="edge3" class="edge"><title>Node4&#45;&gt;Node3</title>
<path fill="none" stroke="midnightblue" d="M63.6566,-456.838C63.3509,-446.903 63.0562,-437.326 62.8023,-429.074"/>
<polygon fill="none" stroke="midnightblue" points="60.1589,-456.97 63.9648,-466.857 67.1555,-456.755 60.1589,-456.97"/>
</g>
<!-- Node5 -->
<g id="node5" class="node"><title>Node5</title>
<g id="a_node5"><a xlink:href="classapi_1_1_api_object.html" target="_top" xlink:title="API Object Class. ">
<polygon fill="none" stroke="black" points="84.7896,-639 84.7896,-693 167.21,-693 167.21,-639 84.7896,-639"/>
<text text-anchor="middle" x="126" y="-681" font-family="Helvetica,sans-Serif" font-size="10.00">api::ApiObject</text>
<polyline fill="none" stroke="black" points="84.7896,-675 167.21,-675 "/>
<text text-anchor="middle" x="126" y="-663" font-family="Helvetica,sans-Serif" font-size="10.00"> </text>
<polyline fill="none" stroke="black" points="84.7896,-657 167.21,-657 "/>
<text text-anchor="start" x="92.7896" y="-645" font-family="Helvetica,sans-Serif" font-size="10.00">+ api_version()</text>
</a>
</g>
</g>
<!-- Node5&#45;&gt;Node4 -->
<g id="edge4" class="edge"><title>Node5&#45;&gt;Node4</title>
<path fill="none" stroke="midnightblue" d="M109.613,-629.495C105.528,-620.644 101.016,-610.868 96.4889,-601.059"/>
<polygon fill="none" stroke="midnightblue" points="106.49,-631.08 113.858,-638.693 112.845,-628.146 106.49,-631.08"/>
</g>
<!-- Node8 -->
<g id="node8" class="node"><title>Node8</title>
<g id="a_node8"><a xlink:href="classapi_1_1_info_object.html" target="_top" xlink:title="API Information Object. ">
<polygon fill="none" stroke="black" points="145.759,-507 145.759,-561 226.241,-561 226.241,-507 145.759,-507"/>
<text text-anchor="middle" x="186" y="-549" font-family="Helvetica,sans-Serif" font-size="10.00">api::InfoObject</text>
<polyline fill="none" stroke="black" points="145.759,-543 226.241,-543 "/>
<text text-anchor="middle" x="186" y="-531" font-family="Helvetica,sans-Serif" font-size="10.00"> </text>
<polyline fill="none" stroke="black" points="145.759,-525 226.241,-525 "/>
<text text-anchor="middle" x="186" y="-513" font-family="Helvetica,sans-Serif" font-size="10.00"> </text>
</a>
</g>
</g>
<!-- Node5&#45;&gt;Node8 -->
<g id="edge8" class="edge"><title>Node5&#45;&gt;Node8</title>
<path fill="none" stroke="midnightblue" d="M142.373,-629.525C152.323,-607.966 164.813,-580.905 173.876,-561.268"/>
<polygon fill="none" stroke="midnightblue" points="139.155,-628.146 138.142,-638.693 145.51,-631.08 139.155,-628.146"/>
</g>
<!-- Node6 -->
<g id="node6" class="node"><title>Node6</title>
<g id="a_node6"><a xlink:href="classdraw_1_1_icon_attr.html" target="_top" xlink:title="Icon Attributes Class. ">
<polygon fill="none" stroke="black" points="136.841,-163 136.841,-287 243.159,-287 243.159,-163 136.841,-163"/>
<text text-anchor="middle" x="190" y="-275" font-family="Helvetica,sans-Serif" font-size="10.00">draw::IconAttr</text>
<polyline fill="none" stroke="black" points="136.841,-269 243.159,-269 "/>
<text text-anchor="middle" x="190" y="-257" font-family="Helvetica,sans-Serif" font-size="10.00"> </text>
<polyline fill="none" stroke="black" points="136.841,-251 243.159,-251 "/>
<text text-anchor="start" x="144.841" y="-239" font-family="Helvetica,sans-Serif" font-size="10.00">+ IconAttr()</text>
<text text-anchor="start" x="144.841" y="-229" font-family="Helvetica,sans-Serif" font-size="10.00">+ IconAttr()</text>
<text text-anchor="start" x="144.841" y="-219" font-family="Helvetica,sans-Serif" font-size="10.00">+ icon()</text>
<text text-anchor="start" x="144.841" y="-209" font-family="Helvetica,sans-Serif" font-size="10.00">+ pen()</text>
<text text-anchor="start" x="144.841" y="-199" font-family="Helvetica,sans-Serif" font-size="10.00">+ pen_const()</text>
<text text-anchor="start" x="144.841" y="-189" font-family="Helvetica,sans-Serif" font-size="10.00">+ rotation()</text>
<text text-anchor="start" x="144.841" y="-179" font-family="Helvetica,sans-Serif" font-size="10.00">and 4 more...</text>
<text text-anchor="start" x="144.841" y="-169" font-family="Helvetica,sans-Serif" font-size="10.00">+ get_system_icon()</text>
</a>
</g>
</g>
<!-- Node6&#45;&gt;Node1 -->
<g id="edge5" class="edge"><title>Node6&#45;&gt;Node1</title>
<path fill="none" stroke="midnightblue" d="M164.752,-153.229C155.248,-126.588 144.834,-97.3987 136.913,-75.195"/>
<polygon fill="none" stroke="midnightblue" points="161.55,-154.669 168.206,-162.911 168.143,-152.317 161.55,-154.669"/>
</g>
<!-- Node7 -->
<g id="node7" class="node"><title>Node7</title>
<g id="a_node7"><a xlink:href="classapi_1_1_draw_info_object.html" target="_top" xlink:title="Draw Information Object. ">
<polygon fill="none" stroke="black" points="136.091,-375 136.091,-429 239.909,-429 239.909,-375 136.091,-375"/>
<text text-anchor="middle" x="188" y="-417" font-family="Helvetica,sans-Serif" font-size="10.00">api::DrawInfoObject</text>
<polyline fill="none" stroke="black" points="136.091,-411 239.909,-411 "/>
<text text-anchor="middle" x="188" y="-399" font-family="Helvetica,sans-Serif" font-size="10.00"> </text>
<polyline fill="none" stroke="black" points="136.091,-393 239.909,-393 "/>
<text text-anchor="middle" x="188" y="-381" font-family="Helvetica,sans-Serif" font-size="10.00"> </text>
</a>
</g>
</g>
<!-- Node7&#45;&gt;Node6 -->
<g id="edge6" class="edge"><title>Node7&#45;&gt;Node6</title>
<path fill="none" stroke="midnightblue" d="M188.414,-364.736C188.67,-342.376 189.004,-313.123 189.3,-287.247"/>
<polygon fill="none" stroke="midnightblue" points="184.914,-364.761 188.299,-374.801 191.914,-364.841 184.914,-364.761"/>
</g>
<!-- Node8&#45;&gt;Node7 -->
<g id="edge7" class="edge"><title>Node8&#45;&gt;Node7</title>
<path fill="none" stroke="midnightblue" d="M186.559,-496.652C186.889,-475.24 187.298,-448.641 187.596,-429.268"/>
<polygon fill="none" stroke="midnightblue" points="183.059,-496.64 186.405,-506.693 190.058,-496.748 183.059,-496.64"/>
</g>
</g>
</svg>
