<?xml version="1.0" encoding="UTF-8" standalone="no"?>
<!DOCTYPE svg PUBLIC "-//W3C//DTD SVG 1.1//EN"
 "http://www.w3.org/Graphics/SVG/1.1/DTD/svg11.dtd">
<!-- Generated by graphviz version 2.36.0 (20140111.2315)
 -->
<!-- Title: ui::Menu Pages: 1 -->
<!--zoomable 1056 -->
<svg id="main" version="1.1" xmlns="http://www.w3.org/2000/svg" xmlns:xlink="http://www.w3.org/1999/xlink" xml:space="preserve" onload="init(evt)">
<style type="text/css"><![CDATA[
.edge:hover path { stroke: red; }
.edge:hover polygon { stroke: red; fill: red; }
]]></style>
<script type="text/javascript"><![CDATA[
var edges = document.getElementsByTagName('g');
if (edges && edges.length) {
  for (var i=0;i<edges.length;i++) {
    if (edges[i].id.substr(0,4)=='edge') {
      edges[i].setAttribute('class','edge');
    }
  }
}
]]></script>
        <defs>
                <circle id="rim" cx="0" cy="0" r="7"/>
                <circle id="rim2" cx="0" cy="0" r="3.5"/>
                <g id="zoomPlus">
                        <use xlink:href="#rim" fill="#404040">
                                <set attributeName="fill" to="#808080" begin="zoomplus.mouseover" end="zoomplus.mouseout"/>
                        </use>
                        <path d="M-4,0h8M0,-4v8" fill="none" stroke="white" stroke-width="1.5" pointer-events="none"/>
                </g>
                <g id="zoomMin">
                        <use xlink:href="#rim" fill="#404040">
                                <set attributeName="fill" to="#808080" begin="zoomminus.mouseover" end="zoomminus.mouseout"/>
                        </use>
                        <path d="M-4,0h8" fill="none" stroke="white" stroke-width="1.5" pointer-events="none"/>
                </g>
                <g id="dirArrow">
                        <path fill="none" stroke="white" stroke-width="1.5" d="M0,-3.0v7 M-2.5,-0.5L0,-3.0L2.5,-0.5"/>
                </g>
               <g id="resetDef">
                       <use xlink:href="#rim2" fill="#404040">
                               <set attributeName="fill" to="#808080" begin="reset.mouseover" end="reset.mouseout"/>
                       </use>
               </g>
        </defs>

<script type="text/javascript">
var viewWidth = 244;
var viewHeight = 1056;
var sectionId = 'dynsection-0';
</script>
<script xlink:href="svgpan.js"/>
<svg id="graph" class="graph">
<g id="viewport">
<title>ui::Menu</title>
<!-- Node1 -->
<g id="node1" class="node"><title>Node1</title>
<polygon fill="#bfbfbf" stroke="black" points="76.334,-1 76.334,-95 167.666,-95 167.666,-1 76.334,-1"/>
<text text-anchor="middle" x="122" y="-83" font-family="Helvetica,sans-Serif" font-size="10.00">ui::Menu</text>
<polyline fill="none" stroke="black" points="76.334,-77 167.666,-77 "/>
<text text-anchor="middle" x="122" y="-65" font-family="Helvetica,sans-Serif" font-size="10.00"> </text>
<polyline fill="none" stroke="black" points="76.334,-59 167.666,-59 "/>
<text text-anchor="start" x="84.334" y="-47" font-family="Helvetica,sans-Serif" font-size="10.00">+ Menu()</text>
<text text-anchor="start" x="84.334" y="-37" font-family="Helvetica,sans-Serif" font-size="10.00">+ current()</text>
<text text-anchor="start" x="84.334" y="-27" font-family="Helvetica,sans-Serif" font-size="10.00">+ draw()</text>
<text text-anchor="start" x="84.334" y="-17" font-family="Helvetica,sans-Serif" font-size="10.00">+ handle_event()</text>
<text text-anchor="start" x="84.334" y="-7" font-family="Helvetica,sans-Serif" font-size="10.00">+ set_current()</text>
</g>
<!-- Node2 -->
<g id="node2" class="node"><title>Node2</title>
<g id="a_node2"><a xlink:href="classui_1_1_linked_element.html" target="_top" xlink:title="Linked Element. ">
<polygon fill="none" stroke="black" points="73.2847,-133 73.2847,-247 170.715,-247 170.715,-133 73.2847,-133"/>
<text text-anchor="middle" x="122" y="-235" font-family="Helvetica,sans-Serif" font-size="10.00">ui::LinkedElement</text>
<polyline fill="none" stroke="black" points="73.2847,-229 170.715,-229 "/>
<text text-anchor="middle" x="122" y="-217" font-family="Helvetica,sans-Serif" font-size="10.00"> </text>
<polyline fill="none" stroke="black" points="73.2847,-211 170.715,-211 "/>
<text text-anchor="start" x="81.2847" y="-199" font-family="Helvetica,sans-Serif" font-size="10.00">+ LinkedElement()</text>
<text text-anchor="start" x="81.2847" y="-189" font-family="Helvetica,sans-Serif" font-size="10.00">+ LinkedElement()</text>
<text text-anchor="start" x="81.2847" y="-179" font-family="Helvetica,sans-Serif" font-size="10.00">+ child()</text>
<text text-anchor="start" x="81.2847" y="-169" font-family="Helvetica,sans-Serif" font-size="10.00">+ handle_event()</text>
<text text-anchor="start" x="81.2847" y="-159" font-family="Helvetica,sans-Serif" font-size="10.00">+ parent()</text>
<text text-anchor="start" x="81.2847" y="-149" font-family="Helvetica,sans-Serif" font-size="10.00">+ set_child()</text>
<text text-anchor="start" x="81.2847" y="-139" font-family="Helvetica,sans-Serif" font-size="10.00">+ set_parent()</text>
</a>
</g>
</g>
<!-- Node2&#45;&gt;Node1 -->
<g id="edge1" class="edge"><title>Node2&#45;&gt;Node1</title>
<path fill="none" stroke="midnightblue" d="M122,-122.823C122,-113.509 122,-104.105 122,-95.2717"/>
<polygon fill="none" stroke="midnightblue" points="118.5,-122.863 122,-132.863 125.5,-122.863 118.5,-122.863"/>
</g>
<!-- Node3 -->
<g id="node3" class="node"><title>Node3</title>
<g id="a_node3"><a xlink:href="classui_1_1_element.html" target="_top" xlink:title="Element Class. ">
<polygon fill="none" stroke="black" points="54.3857,-285 54.3857,-419 189.614,-419 189.614,-285 54.3857,-285"/>
<text text-anchor="middle" x="122" y="-407" font-family="Helvetica,sans-Serif" font-size="10.00">ui::Element</text>
<polyline fill="none" stroke="black" points="54.3857,-401 189.614,-401 "/>
<text text-anchor="start" x="62.3857" y="-389" font-family="Helvetica,sans-Serif" font-size="10.00"># m_animation_attr</text>
<polyline fill="none" stroke="black" points="54.3857,-383 189.614,-383 "/>
<text text-anchor="start" x="62.3857" y="-371" font-family="Helvetica,sans-Serif" font-size="10.00">+ Element()</text>
<text text-anchor="start" x="62.3857" y="-361" font-family="Helvetica,sans-Serif" font-size="10.00">+ animation_attr()</text>
<text text-anchor="start" x="62.3857" y="-351" font-family="Helvetica,sans-Serif" font-size="10.00">+ animation_frame_delay()</text>
<text text-anchor="start" x="62.3857" y="-341" font-family="Helvetica,sans-Serif" font-size="10.00">+ animation_path()</text>
<text text-anchor="start" x="62.3857" y="-331" font-family="Helvetica,sans-Serif" font-size="10.00">+ animation_type()</text>
<text text-anchor="start" x="62.3857" y="-321" font-family="Helvetica,sans-Serif" font-size="10.00">+ handle_event()</text>
<text text-anchor="start" x="62.3857" y="-311" font-family="Helvetica,sans-Serif" font-size="10.00">and 21 more...</text>
<text text-anchor="start" x="62.3857" y="-301" font-family="Helvetica,sans-Serif" font-size="10.00"># adjust_x_center()</text>
<text text-anchor="start" x="62.3857" y="-291" font-family="Helvetica,sans-Serif" font-size="10.00"># draw_scroll()</text>
</a>
</g>
</g>
<!-- Node3&#45;&gt;Node2 -->
<g id="edge2" class="edge"><title>Node3&#45;&gt;Node2</title>
<path fill="none" stroke="midnightblue" d="M122,-274.907C122,-265.558 122,-256.139 122,-247.16"/>
<polygon fill="none" stroke="midnightblue" points="118.5,-274.998 122,-284.998 125.5,-274.998 118.5,-274.998"/>
</g>
<!-- Node4 -->
<g id="node4" class="node"><title>Node4</title>
<g id="a_node4"><a xlink:href="classdraw_1_1_drawing.html" target="_top" xlink:title="Drawing Class. ">
<polygon fill="none" stroke="black" points="-0.552734,-457 -0.552734,-681 118.553,-681 118.553,-457 -0.552734,-457"/>
<text text-anchor="middle" x="59" y="-669" font-family="Helvetica,sans-Serif" font-size="10.00">draw::Drawing</text>
<polyline fill="none" stroke="black" points="-0.552734,-663 118.553,-663 "/>
<text text-anchor="middle" x="59" y="-651" font-family="Helvetica,sans-Serif" font-size="10.00"> </text>
<polyline fill="none" stroke="black" points="-0.552734,-645 118.553,-645 "/>
<text text-anchor="start" x="7.44727" y="-633" font-family="Helvetica,sans-Serif" font-size="10.00">+ Drawing()</text>
<text text-anchor="start" x="7.44727" y="-623" font-family="Helvetica,sans-Serif" font-size="10.00">+ dark()</text>
<text text-anchor="start" x="7.44727" y="-613" font-family="Helvetica,sans-Serif" font-size="10.00">+ draw()</text>
<text text-anchor="start" x="7.44727" y="-603" font-family="Helvetica,sans-Serif" font-size="10.00">+ draw()</text>
<text text-anchor="start" x="7.44727" y="-593" font-family="Helvetica,sans-Serif" font-size="10.00">+ draw_scratch()</text>
<text text-anchor="start" x="7.44727" y="-583" font-family="Helvetica,sans-Serif" font-size="10.00">+ draw_to_scale()</text>
<text text-anchor="start" x="7.44727" y="-573" font-family="Helvetica,sans-Serif" font-size="10.00">and 18 more...</text>
<text text-anchor="start" x="7.44727" y="-563" font-family="Helvetica,sans-Serif" font-size="10.00">+ clear()</text>
<text text-anchor="start" x="7.44727" y="-553" font-family="Helvetica,sans-Serif" font-size="10.00">+ draw_checkerboard()</text>
<text text-anchor="start" x="7.44727" y="-543" font-family="Helvetica,sans-Serif" font-size="10.00">+ draw_pattern()</text>
<text text-anchor="start" x="7.44727" y="-533" font-family="Helvetica,sans-Serif" font-size="10.00">+ h()</text>
<text text-anchor="start" x="7.44727" y="-523" font-family="Helvetica,sans-Serif" font-size="10.00">+ height()</text>
<text text-anchor="start" x="7.44727" y="-513" font-family="Helvetica,sans-Serif" font-size="10.00">+ invert()</text>
<text text-anchor="start" x="7.44727" y="-503" font-family="Helvetica,sans-Serif" font-size="10.00">and 4 more...</text>
<text text-anchor="start" x="7.44727" y="-493" font-family="Helvetica,sans-Serif" font-size="10.00"># dim_on_bitmap()</text>
<text text-anchor="start" x="7.44727" y="-483" font-family="Helvetica,sans-Serif" font-size="10.00"># flag()</text>
<text text-anchor="start" x="7.44727" y="-473" font-family="Helvetica,sans-Serif" font-size="10.00"># point_on_bitmap()</text>
<text text-anchor="start" x="7.44727" y="-463" font-family="Helvetica,sans-Serif" font-size="10.00"># set_flag()</text>
</a>
</g>
</g>
<!-- Node4&#45;&gt;Node3 -->
<g id="edge3" class="edge"><title>Node4&#45;&gt;Node3</title>
<path fill="none" stroke="midnightblue" d="M94.5021,-446.842C97.269,-437.399 99.994,-428.1 102.59,-419.241"/>
<polygon fill="none" stroke="midnightblue" points="91.0605,-446.141 91.6072,-456.721 97.7781,-448.109 91.0605,-446.141"/>
</g>
<!-- Node5 -->
<g id="node5" class="node"><title>Node5</title>
<g id="a_node5"><a xlink:href="classapi_1_1_draw_work_object.html" target="_top" xlink:title="Draw Work Object. ">
<polygon fill="none" stroke="black" points="4.854,-719 4.854,-773 115.146,-773 115.146,-719 4.854,-719"/>
<text text-anchor="middle" x="60" y="-761" font-family="Helvetica,sans-Serif" font-size="10.00">api::DrawWorkObject</text>
<polyline fill="none" stroke="black" points="4.854,-755 115.146,-755 "/>
<text text-anchor="middle" x="60" y="-743" font-family="Helvetica,sans-Serif" font-size="10.00"> </text>
<polyline fill="none" stroke="black" points="4.854,-737 115.146,-737 "/>
<text text-anchor="middle" x="60" y="-725" font-family="Helvetica,sans-Serif" font-size="10.00"> </text>
</a>
</g>
</g>
<!-- Node5&#45;&gt;Node4 -->
<g id="edge4" class="edge"><title>Node5&#45;&gt;Node4</title>
<path fill="none" stroke="midnightblue" d="M59.7925,-708.684C59.7443,-700.251 59.6905,-690.84 59.6343,-681.001"/>
<polygon fill="none" stroke="midnightblue" points="56.2931,-708.821 59.8503,-718.801 63.293,-708.781 56.2931,-708.821"/>
</g>
<!-- Node6 -->
<g id="node6" class="node"><title>Node6</title>
<g id="a_node6"><a xlink:href="classapi_1_1_work_object.html" target="_top" xlink:title="Work Object. ">
<polygon fill="none" stroke="black" points="49.9141,-811 49.9141,-955 192.086,-955 192.086,-811 49.9141,-811"/>
<text text-anchor="middle" x="121" y="-943" font-family="Helvetica,sans-Serif" font-size="10.00">api::WorkObject</text>
<polyline fill="none" stroke="black" points="49.9141,-937 192.086,-937 "/>
<text text-anchor="middle" x="121" y="-925" font-family="Helvetica,sans-Serif" font-size="10.00"> </text>
<polyline fill="none" stroke="black" points="49.9141,-919 192.086,-919 "/>
<text text-anchor="start" x="57.9141" y="-907" font-family="Helvetica,sans-Serif" font-size="10.00">+ WorkObject()</text>
<text text-anchor="start" x="57.9141" y="-897" font-family="Helvetica,sans-Serif" font-size="10.00">+ clear_error_number()</text>
<text text-anchor="start" x="57.9141" y="-887" font-family="Helvetica,sans-Serif" font-size="10.00">+ error_number()</text>
<text text-anchor="start" x="57.9141" y="-877" font-family="Helvetica,sans-Serif" font-size="10.00">+ exit_fatal()</text>
<text text-anchor="start" x="57.9141" y="-867" font-family="Helvetica,sans-Serif" font-size="10.00"># set_error_number()</text>
<text text-anchor="start" x="57.9141" y="-857" font-family="Helvetica,sans-Serif" font-size="10.00"># set_error_number_if</text>
<text text-anchor="start" x="57.9141" y="-847" font-family="Helvetica,sans-Serif" font-size="10.00">_error()</text>
<text text-anchor="start" x="57.9141" y="-837" font-family="Helvetica,sans-Serif" font-size="10.00"># set_error_number_if_null()</text>
<text text-anchor="start" x="57.9141" y="-827" font-family="Helvetica,sans-Serif" font-size="10.00"># set_error_number_to</text>
<text text-anchor="start" x="57.9141" y="-817" font-family="Helvetica,sans-Serif" font-size="10.00">_errno()</text>
</a>
</g>
</g>
<!-- Node6&#45;&gt;Node5 -->
<g id="edge5" class="edge"><title>Node6&#45;&gt;Node5</title>
<path fill="none" stroke="midnightblue" d="M84.6404,-801.532C80.0532,-791.38 75.6498,-781.635 71.8666,-773.262"/>
<polygon fill="none" stroke="midnightblue" points="81.585,-803.27 88.8923,-810.942 87.964,-800.388 81.585,-803.27"/>
</g>
<!-- Node9 -->
<g id="node9" class="node"><title>Node9</title>
<g id="a_node9"><a xlink:href="classapi_1_1_ev_work_object.html" target="_top" xlink:title="Event Object Class. ">
<polygon fill="none" stroke="black" points="134.687,-719 134.687,-773 233.313,-773 233.313,-719 134.687,-719"/>
<text text-anchor="middle" x="184" y="-761" font-family="Helvetica,sans-Serif" font-size="10.00">api::EvWorkObject</text>
<polyline fill="none" stroke="black" points="134.687,-755 233.313,-755 "/>
<text text-anchor="middle" x="184" y="-743" font-family="Helvetica,sans-Serif" font-size="10.00"> </text>
<polyline fill="none" stroke="black" points="134.687,-737 233.313,-737 "/>
<text text-anchor="middle" x="184" y="-725" font-family="Helvetica,sans-Serif" font-size="10.00"> </text>
</a>
</g>
</g>
<!-- Node6&#45;&gt;Node9 -->
<g id="edge9" class="edge"><title>Node6&#45;&gt;Node9</title>
<path fill="none" stroke="midnightblue" d="M158.407,-801.843C163.196,-791.579 167.797,-781.72 171.744,-773.262"/>
<polygon fill="none" stroke="midnightblue" points="155.218,-800.4 154.16,-810.942 161.561,-803.36 155.218,-800.4"/>
</g>
<!-- Node7 -->
<g id="node7" class="node"><title>Node7</title>
<g id="a_node7"><a xlink:href="classapi_1_1_api_object.html" target="_top" xlink:title="Application Programming Interface Object. ">
<polygon fill="none" stroke="black" points="79.7896,-993 79.7896,-1047 162.21,-1047 162.21,-993 79.7896,-993"/>
<text text-anchor="middle" x="121" y="-1035" font-family="Helvetica,sans-Serif" font-size="10.00">api::ApiObject</text>
<polyline fill="none" stroke="black" points="79.7896,-1029 162.21,-1029 "/>
<text text-anchor="middle" x="121" y="-1017" font-family="Helvetica,sans-Serif" font-size="10.00"> </text>
<polyline fill="none" stroke="black" points="79.7896,-1011 162.21,-1011 "/>
<text text-anchor="start" x="87.7896" y="-999" font-family="Helvetica,sans-Serif" font-size="10.00">+ api_version()</text>
</a>
</g>
</g>
<!-- Node7&#45;&gt;Node6 -->
<g id="edge6" class="edge"><title>Node7&#45;&gt;Node6</title>
<path fill="none" stroke="midnightblue" d="M121,-982.925C121,-974.287 121,-964.765 121,-955.145"/>
<polygon fill="none" stroke="midnightblue" points="117.5,-982.971 121,-992.971 124.5,-982.971 117.5,-982.971"/>
</g>
<!-- Node8 -->
<g id="node8" class="node"><title>Node8</title>
<g id="a_node8"><a xlink:href="classev_1_1_event_handler.html" target="_top" xlink:title="Event Handler Class. ">
<polygon fill="none" stroke="black" points="136.584,-527 136.584,-611 235.416,-611 235.416,-527 136.584,-527"/>
<text text-anchor="middle" x="186" y="-599" font-family="Helvetica,sans-Serif" font-size="10.00">ev::EventHandler</text>
<polyline fill="none" stroke="black" points="136.584,-593 235.416,-593 "/>
<text text-anchor="middle" x="186" y="-581" font-family="Helvetica,sans-Serif" font-size="10.00"> </text>
<polyline fill="none" stroke="black" points="136.584,-575 235.416,-575 "/>
<text text-anchor="start" x="144.584" y="-563" font-family="Helvetica,sans-Serif" font-size="10.00">+ EventHandler()</text>
<text text-anchor="start" x="144.584" y="-553" font-family="Helvetica,sans-Serif" font-size="10.00">+ event_loop()</text>
<text text-anchor="start" x="144.584" y="-543" font-family="Helvetica,sans-Serif" font-size="10.00">+ handle_event()</text>
<text text-anchor="start" x="144.584" y="-533" font-family="Helvetica,sans-Serif" font-size="10.00"># set_event_loop()</text>
</a>
</g>
</g>
<!-- Node8&#45;&gt;Node3 -->
<g id="edge7" class="edge"><title>Node8&#45;&gt;Node3</title>
<path fill="none" stroke="midnightblue" d="M170.869,-517.171C162.135,-487.827 151.052,-450.595 141.649,-419.008"/>
<polygon fill="none" stroke="midnightblue" points="167.528,-518.214 173.736,-526.8 174.237,-516.217 167.528,-518.214"/>
</g>
<!-- Node9&#45;&gt;Node8 -->
<g id="edge8" class="edge"><title>Node9&#45;&gt;Node8</title>
<path fill="none" stroke="midnightblue" d="M184.417,-708.484C184.742,-680.041 185.194,-640.56 185.531,-611.029"/>
<polygon fill="none" stroke="midnightblue" points="180.914,-708.761 184.299,-718.801 187.914,-708.841 180.914,-708.761"/>
</g>
</g>
</svg>
        <g id="navigator" transform="translate(0 0)" fill="#404254">
                <rect fill="#f2f5e9" fill-opacity="0.5" stroke="#606060" stroke-width=".5" x="0" y="0" width="60" height="60"/>
                <use id="zoomplus" xlink:href="#zoomPlus" x="17" y="9" onmousedown="handleZoom(evt,'in')"/>
                <use id="zoomminus" xlink:href="#zoomMin" x="42" y="9" onmousedown="handleZoom(evt,'out')"/>
                <use id="reset" xlink:href="#resetDef" x="30" y="36" onmousedown="handleReset()"/>
                <g id="arrowUp" xlink:href="#dirArrow" transform="translate(30 24)" onmousedown="handlePan(0,-1)">
                  <use xlink:href="#rim" fill="#404040">
                        <set attributeName="fill" to="#808080" begin="arrowUp.mouseover" end="arrowUp.mouseout"/>
                  </use>
                  <path fill="none" stroke="white" stroke-width="1.5" d="M0,-3.0v7 M-2.5,-0.5L0,-3.0L2.5,-0.5"/>
                </g>
                <g id="arrowRight" xlink:href="#dirArrow" transform="rotate(90) translate(36 -43)" onmousedown="handlePan(1,0)">
                  <use xlink:href="#rim" fill="#404040">
                        <set attributeName="fill" to="#808080" begin="arrowRight.mouseover" end="arrowRight.mouseout"/>
                  </use>
                  <path fill="none" stroke="white" stroke-width="1.5" d="M0,-3.0v7 M-2.5,-0.5L0,-3.0L2.5,-0.5"/>
                </g>
                <g id="arrowDown" xlink:href="#dirArrow" transform="rotate(180) translate(-30 -48)" onmousedown="handlePan(0,1)">
                  <use xlink:href="#rim" fill="#404040">
                        <set attributeName="fill" to="#808080" begin="arrowDown.mouseover" end="arrowDown.mouseout"/>
                  </use>
                  <path fill="none" stroke="white" stroke-width="1.5" d="M0,-3.0v7 M-2.5,-0.5L0,-3.0L2.5,-0.5"/>
                </g>
                <g id="arrowLeft" xlink:href="#dirArrow" transform="rotate(270) translate(-36 17)" onmousedown="handlePan(-1,0)">
                  <use xlink:href="#rim" fill="#404040">
                        <set attributeName="fill" to="#808080" begin="arrowLeft.mouseover" end="arrowLeft.mouseout"/>
                  </use>
                  <path fill="none" stroke="white" stroke-width="1.5" d="M0,-3.0v7 M-2.5,-0.5L0,-3.0L2.5,-0.5"/>
                </g>
        </g>
        <svg viewBox="0 0 15 15" width="100%" height="30px" preserveAspectRatio="xMaxYMin meet">
         <g id="arrow_out" transform="scale(0.3 0.3)">
          <a xlink:href="classui_1_1_menu__inherit__graph_org.svg" target="_base">
           <rect id="button" ry="5" rx="5" y="6" x="6" height="38" width="38"
                fill="#f2f5e9" fill-opacity="0.5" stroke="#606060" stroke-width="1.0"/>
           <path id="arrow"
             d="M 11.500037,31.436501 C 11.940474,20.09759 22.043105,11.32322 32.158766,21.979434 L 37.068811,17.246167 C 37.068811,17.246167 37.088388,32 37.088388,32 L 22.160133,31.978069 C 22.160133,31.978069 26.997745,27.140456 26.997745,27.140456 C 18.528582,18.264221 13.291696,25.230495 11.500037,31.436501 z"
             style="fill:#404040;"/>
          </a>
         </g>
        </svg>
</svg>
