<?xml version="1.0" encoding="UTF-8" standalone="no"?>
<!DOCTYPE svg PUBLIC "-//W3C//DTD SVG 1.1//EN"
 "http://www.w3.org/Graphics/SVG/1.1/DTD/svg11.dtd">
<!-- Generated by graphviz version 2.36.0 (20140111.2315)
 -->
<!-- Title: draw::BarProgress Pages: 1 -->
<svg width="263pt" height="468pt"
 viewBox="0.00 0.00 263.00 468.00" xmlns="http://www.w3.org/2000/svg" xmlns:xlink="http://www.w3.org/1999/xlink">
<g id="graph0" class="graph" transform="scale(1 1) rotate(0) translate(4 464)">
<title>draw::BarProgress</title>
<!-- Node1 -->
<g id="node1" class="node"><title>Node1</title>
<polygon fill="#bfbfbf" stroke="black" points="77.5962,-1 77.5962,-75 176.404,-75 176.404,-1 77.5962,-1"/>
<text text-anchor="middle" x="127" y="-63" font-family="Helvetica,sans-Serif" font-size="10.00">draw::BarProgress</text>
<polyline fill="none" stroke="black" points="77.5962,-57 176.404,-57 "/>
<text text-anchor="middle" x="127" y="-45" font-family="Helvetica,sans-Serif" font-size="10.00"> </text>
<polyline fill="none" stroke="black" points="77.5962,-39 176.404,-39 "/>
<text text-anchor="start" x="85.5962" y="-27" font-family="Helvetica,sans-Serif" font-size="10.00">+ BarProgress()</text>
<text text-anchor="start" x="85.5962" y="-17" font-family="Helvetica,sans-Serif" font-size="10.00">+ draw()</text>
<text text-anchor="start" x="85.5962" y="-7" font-family="Helvetica,sans-Serif" font-size="10.00">+ draw_to_scale()</text>
</g>
<!-- Node2 -->
<g id="node2" class="node"><title>Node2</title>
<g id="a_node2"><a xlink:href="classdraw_1_1_progress.html" target="_top" xlink:title="Progress Class. ">
<polygon fill="none" stroke="black" points="52.5742,-113 52.5742,-197 201.426,-197 201.426,-113 52.5742,-113"/>
<text text-anchor="middle" x="127" y="-185" font-family="Helvetica,sans-Serif" font-size="10.00">draw::Progress</text>
<polyline fill="none" stroke="black" points="52.5742,-179 201.426,-179 "/>
<text text-anchor="start" x="60.5742" y="-167" font-family="Helvetica,sans-Serif" font-size="10.00"># m_scaled_border_thickness</text>
<polyline fill="none" stroke="black" points="52.5742,-161 201.426,-161 "/>
<text text-anchor="start" x="60.5742" y="-149" font-family="Helvetica,sans-Serif" font-size="10.00">+ Progress()</text>
<text text-anchor="start" x="60.5742" y="-139" font-family="Helvetica,sans-Serif" font-size="10.00">+ border_thickness()</text>
<text text-anchor="start" x="60.5742" y="-129" font-family="Helvetica,sans-Serif" font-size="10.00">+ set_border_thickness()</text>
<text text-anchor="start" x="60.5742" y="-119" font-family="Helvetica,sans-Serif" font-size="10.00"># scaled_border_thickness()</text>
</a>
</g>
</g>
<!-- Node2&#45;&gt;Node1 -->
<g id="edge1" class="edge"><title>Node2&#45;&gt;Node1</title>
<path fill="none" stroke="midnightblue" d="M127,-102.572C127,-93.3822 127,-83.9836 127,-75.3287"/>
<polygon fill="none" stroke="midnightblue" points="123.5,-102.807 127,-112.807 130.5,-102.807 123.5,-102.807"/>
</g>
<!-- Node3 -->
<g id="node3" class="node"><title>Node3</title>
<g id="a_node3"><a xlink:href="classdraw_1_1_drawing.html" target="_top" xlink:title="Drawing Class. ">
<polygon fill="none" stroke="black" points="-0.552734,-235 -0.552734,-459 118.553,-459 118.553,-235 -0.552734,-235"/>
<text text-anchor="middle" x="59" y="-447" font-family="Helvetica,sans-Serif" font-size="10.00">draw::Drawing</text>
<polyline fill="none" stroke="black" points="-0.552734,-441 118.553,-441 "/>
<text text-anchor="middle" x="59" y="-429" font-family="Helvetica,sans-Serif" font-size="10.00"> </text>
<polyline fill="none" stroke="black" points="-0.552734,-423 118.553,-423 "/>
<text text-anchor="start" x="7.44727" y="-411" font-family="Helvetica,sans-Serif" font-size="10.00">+ Drawing()</text>
<text text-anchor="start" x="7.44727" y="-401" font-family="Helvetica,sans-Serif" font-size="10.00">+ dark()</text>
<text text-anchor="start" x="7.44727" y="-391" font-family="Helvetica,sans-Serif" font-size="10.00">+ draw()</text>
<text text-anchor="start" x="7.44727" y="-381" font-family="Helvetica,sans-Serif" font-size="10.00">+ draw()</text>
<text text-anchor="start" x="7.44727" y="-371" font-family="Helvetica,sans-Serif" font-size="10.00">+ draw_scratch()</text>
<text text-anchor="start" x="7.44727" y="-361" font-family="Helvetica,sans-Serif" font-size="10.00">+ draw_to_scale()</text>
<text text-anchor="start" x="7.44727" y="-351" font-family="Helvetica,sans-Serif" font-size="10.00">and 18 more...</text>
<text text-anchor="start" x="7.44727" y="-341" font-family="Helvetica,sans-Serif" font-size="10.00">+ clear()</text>
<text text-anchor="start" x="7.44727" y="-331" font-family="Helvetica,sans-Serif" font-size="10.00">+ draw_checkerboard()</text>
<text text-anchor="start" x="7.44727" y="-321" font-family="Helvetica,sans-Serif" font-size="10.00">+ draw_pattern()</text>
<text text-anchor="start" x="7.44727" y="-311" font-family="Helvetica,sans-Serif" font-size="10.00">+ h()</text>
<text text-anchor="start" x="7.44727" y="-301" font-family="Helvetica,sans-Serif" font-size="10.00">+ height()</text>
<text text-anchor="start" x="7.44727" y="-291" font-family="Helvetica,sans-Serif" font-size="10.00">+ invert()</text>
<text text-anchor="start" x="7.44727" y="-281" font-family="Helvetica,sans-Serif" font-size="10.00">and 4 more...</text>
<text text-anchor="start" x="7.44727" y="-271" font-family="Helvetica,sans-Serif" font-size="10.00"># dim_on_bitmap()</text>
<text text-anchor="start" x="7.44727" y="-261" font-family="Helvetica,sans-Serif" font-size="10.00"># flag()</text>
<text text-anchor="start" x="7.44727" y="-251" font-family="Helvetica,sans-Serif" font-size="10.00"># point_on_bitmap()</text>
<text text-anchor="start" x="7.44727" y="-241" font-family="Helvetica,sans-Serif" font-size="10.00"># set_flag()</text>
</a>
</g>
</g>
<!-- Node3&#45;&gt;Node2 -->
<g id="edge2" class="edge"><title>Node3&#45;&gt;Node2</title>
<path fill="none" stroke="midnightblue" d="M102.183,-225.342C105.721,-215.457 109.115,-205.973 112.197,-197.363"/>
<polygon fill="none" stroke="midnightblue" points="98.827,-224.332 98.7526,-234.926 105.418,-226.691 98.827,-224.332"/>
</g>
<!-- Node4 -->
<g id="node4" class="node"><title>Node4</title>
<g id="a_node4"><a xlink:href="classdraw_1_1_progress_attr.html" target="_top" xlink:title="Progress Attribute Class. ">
<polygon fill="none" stroke="black" points="136.726,-290 136.726,-404 255.274,-404 255.274,-290 136.726,-290"/>
<text text-anchor="middle" x="196" y="-392" font-family="Helvetica,sans-Serif" font-size="10.00">draw::ProgressAttr</text>
<polyline fill="none" stroke="black" points="136.726,-386 255.274,-386 "/>
<text text-anchor="middle" x="196" y="-374" font-family="Helvetica,sans-Serif" font-size="10.00"> </text>
<polyline fill="none" stroke="black" points="136.726,-368 255.274,-368 "/>
<text text-anchor="start" x="144.726" y="-356" font-family="Helvetica,sans-Serif" font-size="10.00">+ ProgressAttr()</text>
<text text-anchor="start" x="144.726" y="-346" font-family="Helvetica,sans-Serif" font-size="10.00">+ ProgressAttr()</text>
<text text-anchor="start" x="144.726" y="-336" font-family="Helvetica,sans-Serif" font-size="10.00">+ max()</text>
<text text-anchor="start" x="144.726" y="-326" font-family="Helvetica,sans-Serif" font-size="10.00">+ operator progress_t()</text>
<text text-anchor="start" x="144.726" y="-316" font-family="Helvetica,sans-Serif" font-size="10.00">+ pen()</text>
<text text-anchor="start" x="144.726" y="-306" font-family="Helvetica,sans-Serif" font-size="10.00">+ set_attr()</text>
<text text-anchor="start" x="144.726" y="-296" font-family="Helvetica,sans-Serif" font-size="10.00">and 5 more...</text>
</a>
</g>
</g>
<!-- Node4&#45;&gt;Node2 -->
<g id="edge3" class="edge"><title>Node4&#45;&gt;Node2</title>
<path fill="none" stroke="midnightblue" d="M172.09,-280.16C162.055,-252.528 150.696,-221.25 141.89,-197.001"/>
<polygon fill="none" stroke="midnightblue" points="168.874,-281.56 175.578,-289.765 175.454,-279.171 168.874,-281.56"/>
</g>
</g>
</svg>
