<?xml version="1.0" encoding="UTF-8" standalone="no"?>
<!DOCTYPE svg PUBLIC "-//W3C//DTD SVG 1.1//EN"
 "http://www.w3.org/Graphics/SVG/1.1/DTD/svg11.dtd">
<!-- Generated by graphviz version 2.36.0 (20140111.2315)
 -->
<!-- Title: hal::CFifoInfo Pages: 1 -->
<svg width="116pt" height="410pt"
 viewBox="0.00 0.00 116.00 410.00" xmlns="http://www.w3.org/2000/svg" xmlns:xlink="http://www.w3.org/1999/xlink">
<g id="graph0" class="graph" transform="scale(1 1) rotate(0) translate(4 406)">
<title>hal::CFifoInfo</title>
<!-- Node1 -->
<g id="node1" class="node"><title>Node1</title>
<polygon fill="#bfbfbf" stroke="black" points="-0.831055,-1 -0.831055,-125 108.831,-125 108.831,-1 -0.831055,-1"/>
<text text-anchor="middle" x="54" y="-113" font-family="Helvetica,sans-Serif" font-size="10.00">hal::CFifoInfo</text>
<polyline fill="none" stroke="black" points="-0.831055,-107 108.831,-107 "/>
<text text-anchor="middle" x="54" y="-95" font-family="Helvetica,sans-Serif" font-size="10.00"> </text>
<polyline fill="none" stroke="black" points="-0.831055,-89 108.831,-89 "/>
<text text-anchor="start" x="7.16895" y="-77" font-family="Helvetica,sans-Serif" font-size="10.00">+ CFifoInfo()</text>
<text text-anchor="start" x="7.16895" y="-67" font-family="Helvetica,sans-Serif" font-size="10.00">+ CFifoInfo()</text>
<text text-anchor="start" x="7.16895" y="-57" font-family="Helvetica,sans-Serif" font-size="10.00">+ count()</text>
<text text-anchor="start" x="7.16895" y="-47" font-family="Helvetica,sans-Serif" font-size="10.00">+ o_flags()</text>
<text text-anchor="start" x="7.16895" y="-37" font-family="Helvetica,sans-Serif" font-size="10.00">+ o_ready()</text>
<text text-anchor="start" x="7.16895" y="-27" font-family="Helvetica,sans-Serif" font-size="10.00">+ operator const cfifo</text>
<text text-anchor="start" x="7.16895" y="-17" font-family="Helvetica,sans-Serif" font-size="10.00">_info_t &amp;()</text>
<text text-anchor="start" x="7.16895" y="-7" font-family="Helvetica,sans-Serif" font-size="10.00">+ size()</text>
</g>
<!-- Node2 -->
<g id="node2" class="node"><title>Node2</title>
<g id="a_node2"><a xlink:href="classapi_1_1_hal_info_object.html" target="_top" xlink:title="Hal Info Object. ">
<polygon fill="none" stroke="black" points="6.25635,-163 6.25635,-217 101.744,-217 101.744,-163 6.25635,-163"/>
<text text-anchor="middle" x="54" y="-205" font-family="Helvetica,sans-Serif" font-size="10.00">api::HalInfoObject</text>
<polyline fill="none" stroke="black" points="6.25635,-199 101.744,-199 "/>
<text text-anchor="middle" x="54" y="-187" font-family="Helvetica,sans-Serif" font-size="10.00"> </text>
<polyline fill="none" stroke="black" points="6.25635,-181 101.744,-181 "/>
<text text-anchor="middle" x="54" y="-169" font-family="Helvetica,sans-Serif" font-size="10.00"> </text>
</a>
</g>
</g>
<!-- Node2&#45;&gt;Node1 -->
<g id="edge1" class="edge"><title>Node2&#45;&gt;Node1</title>
<path fill="none" stroke="midnightblue" d="M54,-152.715C54,-144.071 54,-134.61 54,-125.188"/>
<polygon fill="none" stroke="midnightblue" points="50.5001,-152.796 54,-162.796 57.5001,-152.796 50.5001,-152.796"/>
</g>
<!-- Node3 -->
<g id="node3" class="node"><title>Node3</title>
<g id="a_node3"><a xlink:href="classapi_1_1_info_object.html" target="_top" xlink:title="Information Object. ">
<polygon fill="none" stroke="black" points="13.7588,-255 13.7588,-309 94.2412,-309 94.2412,-255 13.7588,-255"/>
<text text-anchor="middle" x="54" y="-297" font-family="Helvetica,sans-Serif" font-size="10.00">api::InfoObject</text>
<polyline fill="none" stroke="black" points="13.7588,-291 94.2412,-291 "/>
<text text-anchor="middle" x="54" y="-279" font-family="Helvetica,sans-Serif" font-size="10.00"> </text>
<polyline fill="none" stroke="black" points="13.7588,-273 94.2412,-273 "/>
<text text-anchor="middle" x="54" y="-261" font-family="Helvetica,sans-Serif" font-size="10.00"> </text>
</a>
</g>
</g>
<!-- Node3&#45;&gt;Node2 -->
<g id="edge2" class="edge"><title>Node3&#45;&gt;Node2</title>
<path fill="none" stroke="midnightblue" d="M54,-244.865C54,-235.644 54,-225.907 54,-217.285"/>
<polygon fill="none" stroke="midnightblue" points="50.5001,-244.968 54,-254.968 57.5001,-244.968 50.5001,-244.968"/>
</g>
<!-- Node4 -->
<g id="node4" class="node"><title>Node4</title>
<g id="a_node4"><a xlink:href="classapi_1_1_api_object.html" target="_top" xlink:title="Application Programming Interface Object. ">
<polygon fill="none" stroke="black" points="12.7896,-347 12.7896,-401 95.2104,-401 95.2104,-347 12.7896,-347"/>
<text text-anchor="middle" x="54" y="-389" font-family="Helvetica,sans-Serif" font-size="10.00">api::ApiObject</text>
<polyline fill="none" stroke="black" points="12.7896,-383 95.2104,-383 "/>
<text text-anchor="middle" x="54" y="-371" font-family="Helvetica,sans-Serif" font-size="10.00"> </text>
<polyline fill="none" stroke="black" points="12.7896,-365 95.2104,-365 "/>
<text text-anchor="start" x="20.7896" y="-353" font-family="Helvetica,sans-Serif" font-size="10.00">+ api_version()</text>
</a>
</g>
</g>
<!-- Node4&#45;&gt;Node3 -->
<g id="edge3" class="edge"><title>Node4&#45;&gt;Node3</title>
<path fill="none" stroke="midnightblue" d="M54,-336.865C54,-327.644 54,-317.907 54,-309.285"/>
<polygon fill="none" stroke="midnightblue" points="50.5001,-336.968 54,-346.968 57.5001,-336.968 50.5001,-336.968"/>
</g>
</g>
</svg>
