<?xml version="1.0" encoding="UTF-8" standalone="no"?>
<!DOCTYPE svg PUBLIC "-//W3C//DTD SVG 1.1//EN"
 "http://www.w3.org/Graphics/SVG/1.1/DTD/svg11.dtd">
<!-- Generated by graphviz version 2.36.0 (20140111.2315)
 -->
<!-- Title: var::Queue&lt; T &gt; Pages: 1 -->
<svg width="150pt" height="658pt"
 viewBox="0.00 0.00 150.00 658.00" xmlns="http://www.w3.org/2000/svg" xmlns:xlink="http://www.w3.org/1999/xlink">
<g id="graph0" class="graph" transform="scale(1 1) rotate(0) translate(4 654)">
<title>var::Queue&lt; T &gt;</title>
<!-- Node1 -->
<g id="node1" class="node"><title>Node1</title>
<polygon fill="#bfbfbf" stroke="black" points="26.7671,-163 26.7671,-277 115.233,-277 115.233,-163 26.7671,-163"/>
<text text-anchor="middle" x="71" y="-265" font-family="Helvetica,sans-Serif" font-size="10.00">var::Queue&lt; T &gt;</text>
<polyline fill="none" stroke="black" points="26.7671,-259 115.233,-259 "/>
<text text-anchor="middle" x="71" y="-247" font-family="Helvetica,sans-Serif" font-size="10.00"> </text>
<polyline fill="none" stroke="black" points="26.7671,-241 115.233,-241 "/>
<text text-anchor="start" x="34.7671" y="-229" font-family="Helvetica,sans-Serif" font-size="10.00">+ Queue()</text>
<text text-anchor="start" x="34.7671" y="-219" font-family="Helvetica,sans-Serif" font-size="10.00">+ back()</text>
<text text-anchor="start" x="34.7671" y="-209" font-family="Helvetica,sans-Serif" font-size="10.00">+ back()</text>
<text text-anchor="start" x="34.7671" y="-199" font-family="Helvetica,sans-Serif" font-size="10.00">+ clear()</text>
<text text-anchor="start" x="34.7671" y="-189" font-family="Helvetica,sans-Serif" font-size="10.00">+ count()</text>
<text text-anchor="start" x="34.7671" y="-179" font-family="Helvetica,sans-Serif" font-size="10.00">+ front()</text>
<text text-anchor="start" x="34.7671" y="-169" font-family="Helvetica,sans-Serif" font-size="10.00">and 4 more...</text>
</g>
<!-- Node5 -->
<g id="node5" class="node"><title>Node5</title>
<g id="a_node5"><a xlink:href="classvar_1_1_queue.html" target="_top" xlink:title="{var::Queue\&lt; Test * \&gt;\n||+ Queue()\l+ back()\l+ back()\l+ clear()\l+ count()\l+ front()\land 4 more...\l}">
<polygon fill="none" stroke="black" points="17.2285,-1 17.2285,-115 124.771,-115 124.771,-1 17.2285,-1"/>
<text text-anchor="middle" x="71" y="-103" font-family="Helvetica,sans-Serif" font-size="10.00">var::Queue&lt; Test * &gt;</text>
<polyline fill="none" stroke="black" points="17.2285,-97 124.771,-97 "/>
<text text-anchor="middle" x="71" y="-85" font-family="Helvetica,sans-Serif" font-size="10.00"> </text>
<polyline fill="none" stroke="black" points="17.2285,-79 124.771,-79 "/>
<text text-anchor="start" x="25.2285" y="-67" font-family="Helvetica,sans-Serif" font-size="10.00">+ Queue()</text>
<text text-anchor="start" x="25.2285" y="-57" font-family="Helvetica,sans-Serif" font-size="10.00">+ back()</text>
<text text-anchor="start" x="25.2285" y="-47" font-family="Helvetica,sans-Serif" font-size="10.00">+ back()</text>
<text text-anchor="start" x="25.2285" y="-37" font-family="Helvetica,sans-Serif" font-size="10.00">+ clear()</text>
<text text-anchor="start" x="25.2285" y="-27" font-family="Helvetica,sans-Serif" font-size="10.00">+ count()</text>
<text text-anchor="start" x="25.2285" y="-17" font-family="Helvetica,sans-Serif" font-size="10.00">+ front()</text>
<text text-anchor="start" x="25.2285" y="-7" font-family="Helvetica,sans-Serif" font-size="10.00">and 4 more...</text>
</a>
</g>
</g>
<!-- Node1&#45;&gt;Node5 -->
<g id="edge4" class="edge"><title>Node1&#45;&gt;Node5</title>
<path fill="none" stroke="orange" d="M71,-152.337C71,-139.977 71,-127.179 71,-115.17"/>
<polygon fill="orange" stroke="orange" points="67.5001,-152.59 71,-162.59 74.5001,-152.59 67.5001,-152.59"/>
<text text-anchor="middle" x="93.4243" y="-136" font-family="Helvetica,sans-Serif" font-size="10.00"> &lt; Test * &gt;</text>
</g>
<!-- Node2 -->
<g id="node2" class="node"><title>Node2</title>
<g id="a_node2"><a xlink:href="classapi_1_1_var_work_object.html" target="_top" xlink:title="Var Work Object. ">
<polygon fill="none" stroke="black" points="20.1094,-317 20.1094,-371 121.891,-371 121.891,-317 20.1094,-317"/>
<text text-anchor="middle" x="71" y="-359" font-family="Helvetica,sans-Serif" font-size="10.00">api::VarWorkObject</text>
<polyline fill="none" stroke="black" points="20.1094,-353 121.891,-353 "/>
<text text-anchor="middle" x="71" y="-341" font-family="Helvetica,sans-Serif" font-size="10.00"> </text>
<polyline fill="none" stroke="black" points="20.1094,-335 121.891,-335 "/>
<text text-anchor="middle" x="71" y="-323" font-family="Helvetica,sans-Serif" font-size="10.00"> </text>
</a>
</g>
</g>
<!-- Node2&#45;&gt;Node1 -->
<g id="edge1" class="edge"><title>Node2&#45;&gt;Node1</title>
<path fill="none" stroke="midnightblue" d="M71,-306.783C71,-297.487 71,-287.265 71,-277.217"/>
<polygon fill="none" stroke="midnightblue" points="67.5001,-306.828 71,-316.828 74.5001,-306.828 67.5001,-306.828"/>
</g>
<!-- Node3 -->
<g id="node3" class="node"><title>Node3</title>
<g id="a_node3"><a xlink:href="classapi_1_1_work_object.html" target="_top" xlink:title="Work Object. ">
<polygon fill="none" stroke="black" points="-0.0859375,-411 -0.0859375,-555 142.086,-555 142.086,-411 -0.0859375,-411"/>
<text text-anchor="middle" x="71" y="-543" font-family="Helvetica,sans-Serif" font-size="10.00">api::WorkObject</text>
<polyline fill="none" stroke="black" points="-0.0859375,-537 142.086,-537 "/>
<text text-anchor="middle" x="71" y="-525" font-family="Helvetica,sans-Serif" font-size="10.00"> </text>
<polyline fill="none" stroke="black" points="-0.0859375,-519 142.086,-519 "/>
<text text-anchor="start" x="7.91406" y="-507" font-family="Helvetica,sans-Serif" font-size="10.00">+ WorkObject()</text>
<text text-anchor="start" x="7.91406" y="-497" font-family="Helvetica,sans-Serif" font-size="10.00">+ clear_error_number()</text>
<text text-anchor="start" x="7.91406" y="-487" font-family="Helvetica,sans-Serif" font-size="10.00">+ error_number()</text>
<text text-anchor="start" x="7.91406" y="-477" font-family="Helvetica,sans-Serif" font-size="10.00">+ exit_fatal()</text>
<text text-anchor="start" x="7.91406" y="-467" font-family="Helvetica,sans-Serif" font-size="10.00"># set_error_number()</text>
<text text-anchor="start" x="7.91406" y="-457" font-family="Helvetica,sans-Serif" font-size="10.00"># set_error_number_if</text>
<text text-anchor="start" x="7.91406" y="-447" font-family="Helvetica,sans-Serif" font-size="10.00">_error()</text>
<text text-anchor="start" x="7.91406" y="-437" font-family="Helvetica,sans-Serif" font-size="10.00"># set_error_number_if_null()</text>
<text text-anchor="start" x="7.91406" y="-427" font-family="Helvetica,sans-Serif" font-size="10.00"># set_error_number_to</text>
<text text-anchor="start" x="7.91406" y="-417" font-family="Helvetica,sans-Serif" font-size="10.00">_errno()</text>
</a>
</g>
</g>
<!-- Node3&#45;&gt;Node2 -->
<g id="edge2" class="edge"><title>Node3&#45;&gt;Node2</title>
<path fill="none" stroke="midnightblue" d="M71,-400.456C71,-389.882 71,-379.739 71,-371.085"/>
<polygon fill="none" stroke="midnightblue" points="67.5001,-400.691 71,-410.691 74.5001,-400.691 67.5001,-400.691"/>
</g>
<!-- Node4 -->
<g id="node4" class="node"><title>Node4</title>
<g id="a_node4"><a xlink:href="classapi_1_1_api_object.html" target="_top" xlink:title="Application Programming Interface Object. ">
<polygon fill="none" stroke="black" points="29.7896,-595 29.7896,-649 112.21,-649 112.21,-595 29.7896,-595"/>
<text text-anchor="middle" x="71" y="-637" font-family="Helvetica,sans-Serif" font-size="10.00">api::ApiObject</text>
<polyline fill="none" stroke="black" points="29.7896,-631 112.21,-631 "/>
<text text-anchor="middle" x="71" y="-619" font-family="Helvetica,sans-Serif" font-size="10.00"> </text>
<polyline fill="none" stroke="black" points="29.7896,-613 112.21,-613 "/>
<text text-anchor="start" x="37.7896" y="-601" font-family="Helvetica,sans-Serif" font-size="10.00">+ api_version()</text>
</a>
</g>
</g>
<!-- Node4&#45;&gt;Node3 -->
<g id="edge3" class="edge"><title>Node4&#45;&gt;Node3</title>
<path fill="none" stroke="midnightblue" d="M71,-584.646C71,-575.468 71,-565.293 71,-555.043"/>
<polygon fill="none" stroke="midnightblue" points="67.5001,-584.909 71,-594.909 74.5001,-584.909 67.5001,-584.909"/>
</g>
</g>
</svg>
