<?xml version="1.0" encoding="UTF-8" standalone="no"?>
<!DOCTYPE svg PUBLIC "-//W3C//DTD SVG 1.1//EN"
 "http://www.w3.org/Graphics/SVG/1.1/DTD/svg11.dtd">
<!-- Generated by graphviz version 2.36.0 (20140111.2315)
 -->
<!-- Title: calc::Lookup&lt; data_type &gt; Pages: 1 -->
<svg width="126pt" height="440pt"
 viewBox="0.00 0.00 126.00 440.00" xmlns="http://www.w3.org/2000/svg" xmlns:xlink="http://www.w3.org/1999/xlink">
<g id="graph0" class="graph" transform="scale(1 1) rotate(0) translate(4 436)">
<title>calc::Lookup&lt; data_type &gt;</title>
<!-- Node1 -->
<g id="node1" class="node"><title>Node1</title>
<polygon fill="#bfbfbf" stroke="black" points="8.88574,-1 8.88574,-75 109.114,-75 109.114,-1 8.88574,-1"/>
<text text-anchor="start" x="16.8857" y="-63" font-family="Helvetica,sans-Serif" font-size="10.00">calc::Lookup&lt; data</text>
<text text-anchor="middle" x="59" y="-53" font-family="Helvetica,sans-Serif" font-size="10.00">_type &gt;</text>
<polyline fill="none" stroke="black" points="8.88574,-47 109.114,-47 "/>
<text text-anchor="middle" x="59" y="-35" font-family="Helvetica,sans-Serif" font-size="10.00"> </text>
<polyline fill="none" stroke="black" points="8.88574,-29 109.114,-29 "/>
<text text-anchor="start" x="16.8857" y="-17" font-family="Helvetica,sans-Serif" font-size="10.00">+ Lookup()</text>
<text text-anchor="start" x="16.8857" y="-7" font-family="Helvetica,sans-Serif" font-size="10.00">+ calc_value()</text>
</g>
<!-- Node2 -->
<g id="node2" class="node"><title>Node2</title>
<g id="a_node2"><a xlink:href="classapi_1_1_calc_work_object.html" target="_top" xlink:title="Format Work Object Class. ">
<polygon fill="none" stroke="black" points="5.51904,-113 5.51904,-167 112.481,-167 112.481,-113 5.51904,-113"/>
<text text-anchor="middle" x="59" y="-155" font-family="Helvetica,sans-Serif" font-size="10.00">api::CalcWorkObject</text>
<polyline fill="none" stroke="black" points="5.51904,-149 112.481,-149 "/>
<text text-anchor="middle" x="59" y="-137" font-family="Helvetica,sans-Serif" font-size="10.00"> </text>
<polyline fill="none" stroke="black" points="5.51904,-131 112.481,-131 "/>
<text text-anchor="middle" x="59" y="-119" font-family="Helvetica,sans-Serif" font-size="10.00"> </text>
</a>
</g>
</g>
<!-- Node2&#45;&gt;Node1 -->
<g id="edge1" class="edge"><title>Node2&#45;&gt;Node1</title>
<path fill="none" stroke="midnightblue" d="M59,-102.767C59,-93.7395 59,-84.063 59,-75.0449"/>
<polygon fill="none" stroke="midnightblue" points="55.5001,-102.987 59,-112.987 62.5001,-102.987 55.5001,-102.987"/>
</g>
<!-- Node3 -->
<g id="node3" class="node"><title>Node3</title>
<g id="a_node3"><a xlink:href="classapi_1_1_work_object.html" target="_top" xlink:title="WorkObject Class. ">
<polygon fill="none" stroke="black" points="-0.547852,-205 -0.547852,-339 118.548,-339 118.548,-205 -0.547852,-205"/>
<text text-anchor="middle" x="59" y="-327" font-family="Helvetica,sans-Serif" font-size="10.00">api::WorkObject</text>
<polyline fill="none" stroke="black" points="-0.547852,-321 118.548,-321 "/>
<text text-anchor="middle" x="59" y="-309" font-family="Helvetica,sans-Serif" font-size="10.00"> </text>
<polyline fill="none" stroke="black" points="-0.547852,-303 118.548,-303 "/>
<text text-anchor="start" x="7.45215" y="-291" font-family="Helvetica,sans-Serif" font-size="10.00">+ WorkObject()</text>
<text text-anchor="start" x="7.45215" y="-281" font-family="Helvetica,sans-Serif" font-size="10.00">+ clear_error_number()</text>
<text text-anchor="start" x="7.45215" y="-271" font-family="Helvetica,sans-Serif" font-size="10.00">+ error_number()</text>
<text text-anchor="start" x="7.45215" y="-261" font-family="Helvetica,sans-Serif" font-size="10.00">+ exit_fatal()</text>
<text text-anchor="start" x="7.45215" y="-251" font-family="Helvetica,sans-Serif" font-size="10.00"># set_error_number()</text>
<text text-anchor="start" x="7.45215" y="-241" font-family="Helvetica,sans-Serif" font-size="10.00"># set_error_number_if</text>
<text text-anchor="start" x="7.45215" y="-231" font-family="Helvetica,sans-Serif" font-size="10.00">_error()</text>
<text text-anchor="start" x="7.45215" y="-221" font-family="Helvetica,sans-Serif" font-size="10.00"># set_error_number_to</text>
<text text-anchor="start" x="7.45215" y="-211" font-family="Helvetica,sans-Serif" font-size="10.00">_errno()</text>
</a>
</g>
</g>
<!-- Node3&#45;&gt;Node2 -->
<g id="edge2" class="edge"><title>Node3&#45;&gt;Node2</title>
<path fill="none" stroke="midnightblue" d="M59,-194.838C59,-184.903 59,-175.326 59,-167.074"/>
<polygon fill="none" stroke="midnightblue" points="55.5001,-194.857 59,-204.857 62.5001,-194.858 55.5001,-194.857"/>
</g>
<!-- Node4 -->
<g id="node4" class="node"><title>Node4</title>
<g id="a_node4"><a xlink:href="classapi_1_1_api_object.html" target="_top" xlink:title="API Object Class. ">
<polygon fill="none" stroke="black" points="17.7896,-377 17.7896,-431 100.21,-431 100.21,-377 17.7896,-377"/>
<text text-anchor="middle" x="59" y="-419" font-family="Helvetica,sans-Serif" font-size="10.00">api::ApiObject</text>
<polyline fill="none" stroke="black" points="17.7896,-413 100.21,-413 "/>
<text text-anchor="middle" x="59" y="-401" font-family="Helvetica,sans-Serif" font-size="10.00"> </text>
<polyline fill="none" stroke="black" points="17.7896,-395 100.21,-395 "/>
<text text-anchor="start" x="25.7896" y="-383" font-family="Helvetica,sans-Serif" font-size="10.00">+ api_version()</text>
</a>
</g>
</g>
<!-- Node4&#45;&gt;Node3 -->
<g id="edge3" class="edge"><title>Node4&#45;&gt;Node3</title>
<path fill="none" stroke="midnightblue" d="M59,-366.644C59,-358.02 59,-348.555 59,-339.059"/>
<polygon fill="none" stroke="midnightblue" points="55.5001,-366.693 59,-376.693 62.5001,-366.693 55.5001,-366.693"/>
</g>
</g>
</svg>
