<?xml version="1.0" encoding="UTF-8" standalone="no"?>
<!DOCTYPE svg PUBLIC "-//W3C//DTD SVG 1.1//EN"
 "http://www.w3.org/Graphics/SVG/1.1/DTD/svg11.dtd">
<!-- Generated by graphviz version 2.36.0 (20140111.2315)
 -->
<!-- Title: sgfx::SvgMemoryFont Pages: 1 -->
<svg width="150pt" height="844pt"
 viewBox="0.00 0.00 150.00 844.00" xmlns="http://www.w3.org/2000/svg" xmlns:xlink="http://www.w3.org/1999/xlink">
<g id="graph0" class="graph" transform="scale(1 1) rotate(0) translate(4 840)">
<title>sgfx::SvgMemoryFont</title>
<!-- Node1 -->
<g id="node1" class="node"><title>Node1</title>
<polygon fill="#bfbfbf" stroke="black" points="6.0249,-1 6.0249,-95 135.975,-95 135.975,-1 6.0249,-1"/>
<text text-anchor="middle" x="71" y="-83" font-family="Helvetica,sans-Serif" font-size="10.00">sgfx::SvgMemoryFont</text>
<polyline fill="none" stroke="black" points="6.0249,-77 135.975,-77 "/>
<text text-anchor="middle" x="71" y="-65" font-family="Helvetica,sans-Serif" font-size="10.00"> </text>
<polyline fill="none" stroke="black" points="6.0249,-59 135.975,-59 "/>
<text text-anchor="start" x="14.0249" y="-47" font-family="Helvetica,sans-Serif" font-size="10.00">+ SvgMemoryFont()</text>
<text text-anchor="start" x="14.0249" y="-37" font-family="Helvetica,sans-Serif" font-size="10.00">+ ~SvgMemoryFont()</text>
<text text-anchor="start" x="14.0249" y="-27" font-family="Helvetica,sans-Serif" font-size="10.00"># draw_char_on_bitmap()</text>
<text text-anchor="start" x="14.0249" y="-17" font-family="Helvetica,sans-Serif" font-size="10.00"># load_char()</text>
<text text-anchor="start" x="14.0249" y="-7" font-family="Helvetica,sans-Serif" font-size="10.00"># load_kerning()</text>
</g>
<!-- Node2 -->
<g id="node2" class="node"><title>Node2</title>
<g id="a_node2"><a xlink:href="classsgfx_1_1_svg_font.html" target="_top" xlink:title="Stratify Vector Graphics Font. ">
<polygon fill="none" stroke="black" points="32.0063,-133 32.0063,-227 109.994,-227 109.994,-133 32.0063,-133"/>
<text text-anchor="middle" x="71" y="-215" font-family="Helvetica,sans-Serif" font-size="10.00">sgfx::SvgFont</text>
<polyline fill="none" stroke="black" points="32.0063,-209 109.994,-209 "/>
<text text-anchor="middle" x="71" y="-197" font-family="Helvetica,sans-Serif" font-size="10.00"> </text>
<polyline fill="none" stroke="black" points="32.0063,-191 109.994,-191 "/>
<text text-anchor="start" x="40.0063" y="-179" font-family="Helvetica,sans-Serif" font-size="10.00">+ SvgFont()</text>
<text text-anchor="start" x="40.0063" y="-169" font-family="Helvetica,sans-Serif" font-size="10.00">+ ~SvgFont()</text>
<text text-anchor="start" x="40.0063" y="-159" font-family="Helvetica,sans-Serif" font-size="10.00">+ get_height()</text>
<text text-anchor="start" x="40.0063" y="-149" font-family="Helvetica,sans-Serif" font-size="10.00">+ get_width()</text>
<text text-anchor="start" x="40.0063" y="-139" font-family="Helvetica,sans-Serif" font-size="10.00">+ set_height()</text>
</a>
</g>
</g>
<!-- Node2&#45;&gt;Node1 -->
<g id="edge1" class="edge"><title>Node2&#45;&gt;Node1</title>
<path fill="none" stroke="midnightblue" d="M71,-122.564C71,-113.375 71,-103.953 71,-95.0504"/>
<polygon fill="none" stroke="midnightblue" points="67.5001,-122.801 71,-132.801 74.5001,-122.801 67.5001,-122.801"/>
</g>
<!-- Node3 -->
<g id="node3" class="node"><title>Node3</title>
<g id="a_node3"><a xlink:href="classsgfx_1_1_font.html" target="_top" xlink:title="Font class. ">
<polygon fill="none" stroke="black" points="6.0249,-265 6.0249,-469 135.975,-469 135.975,-265 6.0249,-265"/>
<text text-anchor="middle" x="71" y="-457" font-family="Helvetica,sans-Serif" font-size="10.00">sgfx::Font</text>
<polyline fill="none" stroke="black" points="6.0249,-451 135.975,-451 "/>
<text text-anchor="start" x="14.0249" y="-439" font-family="Helvetica,sans-Serif" font-size="10.00"># m_char</text>
<text text-anchor="start" x="14.0249" y="-429" font-family="Helvetica,sans-Serif" font-size="10.00"># m_hdr</text>
<text text-anchor="start" x="14.0249" y="-419" font-family="Helvetica,sans-Serif" font-size="10.00"># m_letter_spacing</text>
<text text-anchor="start" x="14.0249" y="-409" font-family="Helvetica,sans-Serif" font-size="10.00"># m_offset</text>
<text text-anchor="start" x="14.0249" y="-399" font-family="Helvetica,sans-Serif" font-size="10.00"># m_space_size</text>
<polyline fill="none" stroke="black" points="6.0249,-393 135.975,-393 "/>
<text text-anchor="start" x="14.0249" y="-381" font-family="Helvetica,sans-Serif" font-size="10.00">+ Font()</text>
<text text-anchor="start" x="14.0249" y="-371" font-family="Helvetica,sans-Serif" font-size="10.00">+ bits_per_pixel()</text>
<text text-anchor="start" x="14.0249" y="-361" font-family="Helvetica,sans-Serif" font-size="10.00">+ calc_len()</text>
<text text-anchor="start" x="14.0249" y="-351" font-family="Helvetica,sans-Serif" font-size="10.00">+ character()</text>
<text text-anchor="start" x="14.0249" y="-341" font-family="Helvetica,sans-Serif" font-size="10.00">+ draw_char()</text>
<text text-anchor="start" x="14.0249" y="-331" font-family="Helvetica,sans-Serif" font-size="10.00">+ draw_str()</text>
<text text-anchor="start" x="14.0249" y="-321" font-family="Helvetica,sans-Serif" font-size="10.00">and 11 more...</text>
<text text-anchor="start" x="14.0249" y="-311" font-family="Helvetica,sans-Serif" font-size="10.00">+ charset()</text>
<text text-anchor="start" x="14.0249" y="-301" font-family="Helvetica,sans-Serif" font-size="10.00"># draw_char_on_bitmap()</text>
<text text-anchor="start" x="14.0249" y="-291" font-family="Helvetica,sans-Serif" font-size="10.00"># load_char()</text>
<text text-anchor="start" x="14.0249" y="-281" font-family="Helvetica,sans-Serif" font-size="10.00"># load_kerning()</text>
<text text-anchor="start" x="14.0249" y="-271" font-family="Helvetica,sans-Serif" font-size="10.00"># to_charset()</text>
</a>
</g>
</g>
<!-- Node3&#45;&gt;Node2 -->
<g id="edge2" class="edge"><title>Node3&#45;&gt;Node2</title>
<path fill="none" stroke="midnightblue" d="M71,-254.727C71,-245.104 71,-235.763 71,-227.147"/>
<polygon fill="none" stroke="midnightblue" points="67.5001,-254.839 71,-264.839 74.5001,-254.839 67.5001,-254.839"/>
</g>
<!-- Node4 -->
<g id="node4" class="node"><title>Node4</title>
<g id="a_node4"><a xlink:href="classapi_1_1_sgfx_work_object.html" target="_top" xlink:title="Sgfx Object Class. ">
<polygon fill="none" stroke="black" points="17.5166,-507 17.5166,-561 124.483,-561 124.483,-507 17.5166,-507"/>
<text text-anchor="middle" x="71" y="-549" font-family="Helvetica,sans-Serif" font-size="10.00">api::SgfxWorkObject</text>
<polyline fill="none" stroke="black" points="17.5166,-543 124.483,-543 "/>
<text text-anchor="middle" x="71" y="-531" font-family="Helvetica,sans-Serif" font-size="10.00"> </text>
<polyline fill="none" stroke="black" points="17.5166,-525 124.483,-525 "/>
<text text-anchor="middle" x="71" y="-513" font-family="Helvetica,sans-Serif" font-size="10.00"> </text>
</a>
</g>
</g>
<!-- Node4&#45;&gt;Node3 -->
<g id="edge3" class="edge"><title>Node4&#45;&gt;Node3</title>
<path fill="none" stroke="midnightblue" d="M71,-496.706C71,-488.256 71,-478.851 71,-469.079"/>
<polygon fill="none" stroke="midnightblue" points="67.5001,-496.855 71,-506.855 74.5001,-496.855 67.5001,-496.855"/>
</g>
<!-- Node5 -->
<g id="node5" class="node"><title>Node5</title>
<g id="a_node5"><a xlink:href="classapi_1_1_work_object.html" target="_top" xlink:title="WorkObject Class. ">
<polygon fill="none" stroke="black" points="-0.0859375,-599 -0.0859375,-743 142.086,-743 142.086,-599 -0.0859375,-599"/>
<text text-anchor="middle" x="71" y="-731" font-family="Helvetica,sans-Serif" font-size="10.00">api::WorkObject</text>
<polyline fill="none" stroke="black" points="-0.0859375,-725 142.086,-725 "/>
<text text-anchor="middle" x="71" y="-713" font-family="Helvetica,sans-Serif" font-size="10.00"> </text>
<polyline fill="none" stroke="black" points="-0.0859375,-707 142.086,-707 "/>
<text text-anchor="start" x="7.91406" y="-695" font-family="Helvetica,sans-Serif" font-size="10.00">+ WorkObject()</text>
<text text-anchor="start" x="7.91406" y="-685" font-family="Helvetica,sans-Serif" font-size="10.00">+ clear_error_number()</text>
<text text-anchor="start" x="7.91406" y="-675" font-family="Helvetica,sans-Serif" font-size="10.00">+ error_number()</text>
<text text-anchor="start" x="7.91406" y="-665" font-family="Helvetica,sans-Serif" font-size="10.00">+ exit_fatal()</text>
<text text-anchor="start" x="7.91406" y="-655" font-family="Helvetica,sans-Serif" font-size="10.00"># set_error_number()</text>
<text text-anchor="start" x="7.91406" y="-645" font-family="Helvetica,sans-Serif" font-size="10.00"># set_error_number_if</text>
<text text-anchor="start" x="7.91406" y="-635" font-family="Helvetica,sans-Serif" font-size="10.00">_error()</text>
<text text-anchor="start" x="7.91406" y="-625" font-family="Helvetica,sans-Serif" font-size="10.00"># set_error_number_if_null()</text>
<text text-anchor="start" x="7.91406" y="-615" font-family="Helvetica,sans-Serif" font-size="10.00"># set_error_number_to</text>
<text text-anchor="start" x="7.91406" y="-605" font-family="Helvetica,sans-Serif" font-size="10.00">_errno()</text>
</a>
</g>
</g>
<!-- Node5&#45;&gt;Node4 -->
<g id="edge4" class="edge"><title>Node5&#45;&gt;Node4</title>
<path fill="none" stroke="midnightblue" d="M71,-588.911C71,-578.983 71,-569.464 71,-561.262"/>
<polygon fill="none" stroke="midnightblue" points="67.5001,-588.942 71,-598.942 74.5001,-588.942 67.5001,-588.942"/>
</g>
<!-- Node6 -->
<g id="node6" class="node"><title>Node6</title>
<g id="a_node6"><a xlink:href="classapi_1_1_api_object.html" target="_top" xlink:title="API Object Class. ">
<polygon fill="none" stroke="black" points="29.7896,-781 29.7896,-835 112.21,-835 112.21,-781 29.7896,-781"/>
<text text-anchor="middle" x="71" y="-823" font-family="Helvetica,sans-Serif" font-size="10.00">api::ApiObject</text>
<polyline fill="none" stroke="black" points="29.7896,-817 112.21,-817 "/>
<text text-anchor="middle" x="71" y="-805" font-family="Helvetica,sans-Serif" font-size="10.00"> </text>
<polyline fill="none" stroke="black" points="29.7896,-799 112.21,-799 "/>
<text text-anchor="start" x="37.7896" y="-787" font-family="Helvetica,sans-Serif" font-size="10.00">+ api_version()</text>
</a>
</g>
</g>
<!-- Node6&#45;&gt;Node5 -->
<g id="edge5" class="edge"><title>Node6&#45;&gt;Node5</title>
<path fill="none" stroke="midnightblue" d="M71,-770.925C71,-762.287 71,-752.765 71,-743.145"/>
<polygon fill="none" stroke="midnightblue" points="67.5001,-770.971 71,-780.971 74.5001,-770.971 67.5001,-770.971"/>
</g>
</g>
</svg>
