<?xml version="1.0" encoding="UTF-8" standalone="no"?>
<!DOCTYPE svg PUBLIC "-//W3C//DTD SVG 1.1//EN"
 "http://www.w3.org/Graphics/SVG/1.1/DTD/svg11.dtd">
<!-- Generated by graphviz version 2.36.0 (20140111.2315)
 -->
<!-- Title: draw::Graph Pages: 1 -->
<svg width="201pt" height="468pt"
 viewBox="0.00 0.00 201.00 468.00" xmlns="http://www.w3.org/2000/svg" xmlns:xlink="http://www.w3.org/1999/xlink">
<g id="graph0" class="graph" transform="scale(1 1) rotate(0) translate(4 464)">
<title>draw::Graph</title>
<!-- Node1 -->
<g id="node1" class="node"><title>Node1</title>
<polygon fill="#bfbfbf" stroke="black" points="43.5273,-93 43.5273,-197 148.473,-197 148.473,-93 43.5273,-93"/>
<text text-anchor="middle" x="96" y="-185" font-family="Helvetica,sans-Serif" font-size="10.00">draw::Graph</text>
<polyline fill="none" stroke="black" points="43.5273,-179 148.473,-179 "/>
<text text-anchor="middle" x="96" y="-167" font-family="Helvetica,sans-Serif" font-size="10.00"> </text>
<polyline fill="none" stroke="black" points="43.5273,-161 148.473,-161 "/>
<text text-anchor="start" x="51.5273" y="-149" font-family="Helvetica,sans-Serif" font-size="10.00">+ Graph()</text>
<text text-anchor="start" x="51.5273" y="-139" font-family="Helvetica,sans-Serif" font-size="10.00">+ x_axis()</text>
<text text-anchor="start" x="51.5273" y="-129" font-family="Helvetica,sans-Serif" font-size="10.00">+ x_data()</text>
<text text-anchor="start" x="51.5273" y="-119" font-family="Helvetica,sans-Serif" font-size="10.00">+ y_axis()</text>
<text text-anchor="start" x="51.5273" y="-109" font-family="Helvetica,sans-Serif" font-size="10.00">+ y_data()</text>
<text text-anchor="start" x="51.5273" y="-99" font-family="Helvetica,sans-Serif" font-size="10.00"># point_on_bitmap()</text>
</g>
<!-- Node3 -->
<g id="node3" class="node"><title>Node3</title>
<g id="a_node3"><a xlink:href="classdraw_1_1_bar_graph.html" target="_top" xlink:title="Bar Graph Element. ">
<polygon fill="none" stroke="black" points="-0.292969,-1 -0.292969,-55 86.293,-55 86.293,-1 -0.292969,-1"/>
<text text-anchor="middle" x="43" y="-43" font-family="Helvetica,sans-Serif" font-size="10.00">draw::BarGraph</text>
<polyline fill="none" stroke="black" points="-0.292969,-37 86.293,-37 "/>
<text text-anchor="middle" x="43" y="-25" font-family="Helvetica,sans-Serif" font-size="10.00"> </text>
<polyline fill="none" stroke="black" points="-0.292969,-19 86.293,-19 "/>
<text text-anchor="start" x="7.70703" y="-7" font-family="Helvetica,sans-Serif" font-size="10.00">+ BarGraph()</text>
</a>
</g>
</g>
<!-- Node1&#45;&gt;Node3 -->
<g id="edge2" class="edge"><title>Node1&#45;&gt;Node3</title>
<path fill="none" stroke="midnightblue" d="M68.1895,-83.6565C63.5546,-73.5997 58.9733,-63.6591 55.0146,-55.0695"/>
<polygon fill="none" stroke="midnightblue" points="65.0805,-85.2727 72.4448,-92.8896 71.4378,-82.3427 65.0805,-85.2727"/>
</g>
<!-- Node4 -->
<g id="node4" class="node"><title>Node4</title>
<g id="a_node4"><a xlink:href="classdraw_1_1_graph_line.html" target="_top" xlink:title="Line Graph Element. ">
<polygon fill="none" stroke="black" points="104.035,-1 104.035,-55 193.965,-55 193.965,-1 104.035,-1"/>
<text text-anchor="middle" x="149" y="-43" font-family="Helvetica,sans-Serif" font-size="10.00">draw::GraphLine</text>
<polyline fill="none" stroke="black" points="104.035,-37 193.965,-37 "/>
<text text-anchor="middle" x="149" y="-25" font-family="Helvetica,sans-Serif" font-size="10.00"> </text>
<polyline fill="none" stroke="black" points="104.035,-19 193.965,-19 "/>
<text text-anchor="start" x="112.035" y="-7" font-family="Helvetica,sans-Serif" font-size="10.00">+ GraphLine()</text>
</a>
</g>
</g>
<!-- Node1&#45;&gt;Node4 -->
<g id="edge3" class="edge"><title>Node1&#45;&gt;Node4</title>
<path fill="none" stroke="midnightblue" d="M123.81,-83.6565C128.445,-73.5997 133.027,-63.6591 136.985,-55.0695"/>
<polygon fill="none" stroke="midnightblue" points="120.562,-82.3427 119.555,-92.8896 126.92,-85.2727 120.562,-82.3427"/>
</g>
<!-- Node2 -->
<g id="node2" class="node"><title>Node2</title>
<g id="a_node2"><a xlink:href="classdraw_1_1_drawing.html" target="_top" xlink:title="Drawing Class. ">
<polygon fill="none" stroke="black" points="36.4473,-235 36.4473,-459 155.553,-459 155.553,-235 36.4473,-235"/>
<text text-anchor="middle" x="96" y="-447" font-family="Helvetica,sans-Serif" font-size="10.00">draw::Drawing</text>
<polyline fill="none" stroke="black" points="36.4473,-441 155.553,-441 "/>
<text text-anchor="middle" x="96" y="-429" font-family="Helvetica,sans-Serif" font-size="10.00"> </text>
<polyline fill="none" stroke="black" points="36.4473,-423 155.553,-423 "/>
<text text-anchor="start" x="44.4473" y="-411" font-family="Helvetica,sans-Serif" font-size="10.00">+ Drawing()</text>
<text text-anchor="start" x="44.4473" y="-401" font-family="Helvetica,sans-Serif" font-size="10.00">+ dark()</text>
<text text-anchor="start" x="44.4473" y="-391" font-family="Helvetica,sans-Serif" font-size="10.00">+ draw()</text>
<text text-anchor="start" x="44.4473" y="-381" font-family="Helvetica,sans-Serif" font-size="10.00">+ draw()</text>
<text text-anchor="start" x="44.4473" y="-371" font-family="Helvetica,sans-Serif" font-size="10.00">+ draw_scratch()</text>
<text text-anchor="start" x="44.4473" y="-361" font-family="Helvetica,sans-Serif" font-size="10.00">+ draw_to_scale()</text>
<text text-anchor="start" x="44.4473" y="-351" font-family="Helvetica,sans-Serif" font-size="10.00">and 18 more...</text>
<text text-anchor="start" x="44.4473" y="-341" font-family="Helvetica,sans-Serif" font-size="10.00">+ clear()</text>
<text text-anchor="start" x="44.4473" y="-331" font-family="Helvetica,sans-Serif" font-size="10.00">+ draw_checkerboard()</text>
<text text-anchor="start" x="44.4473" y="-321" font-family="Helvetica,sans-Serif" font-size="10.00">+ draw_pattern()</text>
<text text-anchor="start" x="44.4473" y="-311" font-family="Helvetica,sans-Serif" font-size="10.00">+ h()</text>
<text text-anchor="start" x="44.4473" y="-301" font-family="Helvetica,sans-Serif" font-size="10.00">+ height()</text>
<text text-anchor="start" x="44.4473" y="-291" font-family="Helvetica,sans-Serif" font-size="10.00">+ invert()</text>
<text text-anchor="start" x="44.4473" y="-281" font-family="Helvetica,sans-Serif" font-size="10.00">and 4 more...</text>
<text text-anchor="start" x="44.4473" y="-271" font-family="Helvetica,sans-Serif" font-size="10.00"># dim_on_bitmap()</text>
<text text-anchor="start" x="44.4473" y="-261" font-family="Helvetica,sans-Serif" font-size="10.00"># flag()</text>
<text text-anchor="start" x="44.4473" y="-251" font-family="Helvetica,sans-Serif" font-size="10.00"># point_on_bitmap()</text>
<text text-anchor="start" x="44.4473" y="-241" font-family="Helvetica,sans-Serif" font-size="10.00"># set_flag()</text>
</a>
</g>
</g>
<!-- Node2&#45;&gt;Node1 -->
<g id="edge1" class="edge"><title>Node2&#45;&gt;Node1</title>
<path fill="none" stroke="midnightblue" d="M96,-224.802C96,-215.204 96,-205.879 96,-197.203"/>
<polygon fill="none" stroke="midnightblue" points="92.5001,-224.888 96,-234.888 99.5001,-224.888 92.5001,-224.888"/>
</g>
</g>
</svg>
