<?xml version="1.0" encoding="UTF-8" standalone="no"?>
<!DOCTYPE svg PUBLIC "-//W3C//DTD SVG 1.1//EN"
 "http://www.w3.org/Graphics/SVG/1.1/DTD/svg11.dtd">
<!-- Generated by graphviz version 2.36.0 (20140111.2315)
 -->
<!-- Title: sys::Sem Pages: 1 -->
<svg width="122pt" height="296pt"
 viewBox="0.00 0.00 122.00 296.00" xmlns="http://www.w3.org/2000/svg" xmlns:xlink="http://www.w3.org/1999/xlink">
<g id="graph0" class="graph" transform="scale(1 1) rotate(0) translate(4 292)">
<title>sys::Sem</title>
<!-- Node1 -->
<g id="node1" class="node"><title>Node1</title>
<polygon fill="#bfbfbf" stroke="black" points="19.5396,-1 19.5396,-125 94.4604,-125 94.4604,-1 19.5396,-1"/>
<text text-anchor="middle" x="57" y="-113" font-family="Helvetica,sans-Serif" font-size="10.00">sys::Sem</text>
<polyline fill="none" stroke="black" points="19.5396,-107 94.4604,-107 "/>
<text text-anchor="middle" x="57" y="-95" font-family="Helvetica,sans-Serif" font-size="10.00"> </text>
<polyline fill="none" stroke="black" points="19.5396,-89 94.4604,-89 "/>
<text text-anchor="start" x="27.5396" y="-77" font-family="Helvetica,sans-Serif" font-size="10.00">+ Sem()</text>
<text text-anchor="start" x="27.5396" y="-67" font-family="Helvetica,sans-Serif" font-size="10.00">+ close()</text>
<text text-anchor="start" x="27.5396" y="-57" font-family="Helvetica,sans-Serif" font-size="10.00">+ create()</text>
<text text-anchor="start" x="27.5396" y="-47" font-family="Helvetica,sans-Serif" font-size="10.00">+ destroy()</text>
<text text-anchor="start" x="27.5396" y="-37" font-family="Helvetica,sans-Serif" font-size="10.00">+ get_value()</text>
<text text-anchor="start" x="27.5396" y="-27" font-family="Helvetica,sans-Serif" font-size="10.00">+ init()</text>
<text text-anchor="start" x="27.5396" y="-17" font-family="Helvetica,sans-Serif" font-size="10.00">and 6 more...</text>
<text text-anchor="start" x="27.5396" y="-7" font-family="Helvetica,sans-Serif" font-size="10.00">+ unlink()</text>
</g>
<!-- Node2 -->
<g id="node2" class="node"><title>Node2</title>
<g id="a_node2"><a xlink:href="classapi_1_1_s_object.html" target="_top" xlink:title="SObject Class. ">
<polygon fill="none" stroke="black" points="-0.191895,-163 -0.191895,-287 114.192,-287 114.192,-163 -0.191895,-163"/>
<text text-anchor="middle" x="57" y="-275" font-family="Helvetica,sans-Serif" font-size="10.00">api::SObject</text>
<polyline fill="none" stroke="black" points="-0.191895,-269 114.192,-269 "/>
<text text-anchor="middle" x="57" y="-257" font-family="Helvetica,sans-Serif" font-size="10.00"> </text>
<polyline fill="none" stroke="black" points="-0.191895,-251 114.192,-251 "/>
<text text-anchor="start" x="7.80811" y="-239" font-family="Helvetica,sans-Serif" font-size="10.00">+ SObject()</text>
<text text-anchor="start" x="7.80811" y="-229" font-family="Helvetica,sans-Serif" font-size="10.00">+ api_version()</text>
<text text-anchor="start" x="7.80811" y="-219" font-family="Helvetica,sans-Serif" font-size="10.00">+ clear_error()</text>
<text text-anchor="start" x="7.80811" y="-209" font-family="Helvetica,sans-Serif" font-size="10.00">+ error_number()</text>
<text text-anchor="start" x="7.80811" y="-199" font-family="Helvetica,sans-Serif" font-size="10.00">+ exit_fatal()</text>
<text text-anchor="start" x="7.80811" y="-189" font-family="Helvetica,sans-Serif" font-size="10.00"># set_error_number()</text>
<text text-anchor="start" x="7.80811" y="-179" font-family="Helvetica,sans-Serif" font-size="10.00"># set_error_number_if</text>
<text text-anchor="start" x="7.80811" y="-169" font-family="Helvetica,sans-Serif" font-size="10.00">_error()</text>
</a>
</g>
</g>
<!-- Node2&#45;&gt;Node1 -->
<g id="edge1" class="edge"><title>Node2&#45;&gt;Node1</title>
<path fill="none" stroke="midnightblue" d="M57,-152.436C57,-143.358 57,-134.134 57,-125.238"/>
<polygon fill="none" stroke="midnightblue" points="53.5001,-152.597 57,-162.597 60.5001,-152.597 53.5001,-152.597"/>
</g>
</g>
</svg>
