<?xml version="1.0" encoding="UTF-8" standalone="no"?>
<!DOCTYPE svg PUBLIC "-//W3C//DTD SVG 1.1//EN"
 "http://www.w3.org/Graphics/SVG/1.1/DTD/svg11.dtd">
<!-- Generated by graphviz version 2.36.0 (20140111.2315)
 -->
<!-- Title: hal::FifoInfo Pages: 1 -->
<svg width="102pt" height="390pt"
 viewBox="0.00 0.00 102.00 390.00" xmlns="http://www.w3.org/2000/svg" xmlns:xlink="http://www.w3.org/1999/xlink">
<g id="graph0" class="graph" transform="scale(1 1) rotate(0) translate(4 386)">
<title>hal::FifoInfo</title>
<!-- Node1 -->
<g id="node1" class="node"><title>Node1</title>
<polygon fill="#bfbfbf" stroke="black" points="6.35107,-1 6.35107,-105 87.6489,-105 87.6489,-1 6.35107,-1"/>
<text text-anchor="middle" x="47" y="-93" font-family="Helvetica,sans-Serif" font-size="10.00">hal::FifoInfo</text>
<polyline fill="none" stroke="black" points="6.35107,-87 87.6489,-87 "/>
<text text-anchor="middle" x="47" y="-75" font-family="Helvetica,sans-Serif" font-size="10.00"> </text>
<polyline fill="none" stroke="black" points="6.35107,-69 87.6489,-69 "/>
<text text-anchor="start" x="14.3511" y="-57" font-family="Helvetica,sans-Serif" font-size="10.00">+ FifoInfo()</text>
<text text-anchor="start" x="14.3511" y="-47" font-family="Helvetica,sans-Serif" font-size="10.00">+ FifoInfo()</text>
<text text-anchor="start" x="14.3511" y="-37" font-family="Helvetica,sans-Serif" font-size="10.00">+ is_overflow()</text>
<text text-anchor="start" x="14.3511" y="-27" font-family="Helvetica,sans-Serif" font-size="10.00">+ overflow()</text>
<text text-anchor="start" x="14.3511" y="-17" font-family="Helvetica,sans-Serif" font-size="10.00">+ size()</text>
<text text-anchor="start" x="14.3511" y="-7" font-family="Helvetica,sans-Serif" font-size="10.00">+ used()</text>
</g>
<!-- Node2 -->
<g id="node2" class="node"><title>Node2</title>
<g id="a_node2"><a xlink:href="classapi_1_1_hal_info_object.html" target="_top" xlink:title="Hal Info Object. ">
<polygon fill="none" stroke="black" points="-0.743652,-143 -0.743652,-197 94.7437,-197 94.7437,-143 -0.743652,-143"/>
<text text-anchor="middle" x="47" y="-185" font-family="Helvetica,sans-Serif" font-size="10.00">api::HalInfoObject</text>
<polyline fill="none" stroke="black" points="-0.743652,-179 94.7437,-179 "/>
<text text-anchor="middle" x="47" y="-167" font-family="Helvetica,sans-Serif" font-size="10.00"> </text>
<polyline fill="none" stroke="black" points="-0.743652,-161 94.7437,-161 "/>
<text text-anchor="middle" x="47" y="-149" font-family="Helvetica,sans-Serif" font-size="10.00"> </text>
</a>
</g>
</g>
<!-- Node2&#45;&gt;Node1 -->
<g id="edge1" class="edge"><title>Node2&#45;&gt;Node1</title>
<path fill="none" stroke="midnightblue" d="M47,-132.747C47,-124.06 47,-114.621 47,-105.393"/>
<polygon fill="none" stroke="midnightblue" points="43.5001,-132.905 47,-142.905 50.5001,-132.905 43.5001,-132.905"/>
</g>
<!-- Node3 -->
<g id="node3" class="node"><title>Node3</title>
<g id="a_node3"><a xlink:href="classapi_1_1_info_object.html" target="_top" xlink:title="API Information Object. ">
<polygon fill="none" stroke="black" points="6.75879,-235 6.75879,-289 87.2412,-289 87.2412,-235 6.75879,-235"/>
<text text-anchor="middle" x="47" y="-277" font-family="Helvetica,sans-Serif" font-size="10.00">api::InfoObject</text>
<polyline fill="none" stroke="black" points="6.75879,-271 87.2412,-271 "/>
<text text-anchor="middle" x="47" y="-259" font-family="Helvetica,sans-Serif" font-size="10.00"> </text>
<polyline fill="none" stroke="black" points="6.75879,-253 87.2412,-253 "/>
<text text-anchor="middle" x="47" y="-241" font-family="Helvetica,sans-Serif" font-size="10.00"> </text>
</a>
</g>
</g>
<!-- Node3&#45;&gt;Node2 -->
<g id="edge2" class="edge"><title>Node3&#45;&gt;Node2</title>
<path fill="none" stroke="midnightblue" d="M47,-224.865C47,-215.644 47,-205.907 47,-197.285"/>
<polygon fill="none" stroke="midnightblue" points="43.5001,-224.968 47,-234.968 50.5001,-224.968 43.5001,-224.968"/>
</g>
<!-- Node4 -->
<g id="node4" class="node"><title>Node4</title>
<g id="a_node4"><a xlink:href="classapi_1_1_api_object.html" target="_top" xlink:title="API Object Class. ">
<polygon fill="none" stroke="black" points="5.78955,-327 5.78955,-381 88.2104,-381 88.2104,-327 5.78955,-327"/>
<text text-anchor="middle" x="47" y="-369" font-family="Helvetica,sans-Serif" font-size="10.00">api::ApiObject</text>
<polyline fill="none" stroke="black" points="5.78955,-363 88.2104,-363 "/>
<text text-anchor="middle" x="47" y="-351" font-family="Helvetica,sans-Serif" font-size="10.00"> </text>
<polyline fill="none" stroke="black" points="5.78955,-345 88.2104,-345 "/>
<text text-anchor="start" x="13.7896" y="-333" font-family="Helvetica,sans-Serif" font-size="10.00">+ api_version()</text>
</a>
</g>
</g>
<!-- Node4&#45;&gt;Node3 -->
<g id="edge3" class="edge"><title>Node4&#45;&gt;Node3</title>
<path fill="none" stroke="midnightblue" d="M47,-316.865C47,-307.644 47,-297.907 47,-289.285"/>
<polygon fill="none" stroke="midnightblue" points="43.5001,-316.968 47,-326.968 50.5001,-316.968 43.5001,-316.968"/>
</g>
</g>
</svg>
