<?xml version="1.0" encoding="UTF-8" standalone="no"?>
<!DOCTYPE svg PUBLIC "-//W3C//DTD SVG 1.1//EN"
 "http://www.w3.org/Graphics/SVG/1.1/DTD/svg11.dtd">
<!-- Generated by graphviz version 2.36.0 (20140111.2315)
 -->
<!-- Title: hal::Led Pages: 1 -->
<svg width="126pt" height="886pt"
 viewBox="0.00 0.00 126.00 886.00" xmlns="http://www.w3.org/2000/svg" xmlns:xlink="http://www.w3.org/1999/xlink">
<g id="graph0" class="graph" transform="scale(1 1) rotate(0) translate(4 882)">
<title>hal::Led</title>
<!-- Node1 -->
<g id="node1" class="node"><title>Node1</title>
<polygon fill="#bfbfbf" stroke="black" points="25.5679,-1 25.5679,-115 92.4321,-115 92.4321,-1 25.5679,-1"/>
<text text-anchor="middle" x="59" y="-103" font-family="Helvetica,sans-Serif" font-size="10.00">hal::Led</text>
<polyline fill="none" stroke="black" points="25.5679,-97 92.4321,-97 "/>
<text text-anchor="middle" x="59" y="-85" font-family="Helvetica,sans-Serif" font-size="10.00"> </text>
<polyline fill="none" stroke="black" points="25.5679,-79 92.4321,-79 "/>
<text text-anchor="start" x="33.5679" y="-67" font-family="Helvetica,sans-Serif" font-size="10.00">+ Led()</text>
<text text-anchor="start" x="33.5679" y="-57" font-family="Helvetica,sans-Serif" font-size="10.00">+ disable()</text>
<text text-anchor="start" x="33.5679" y="-47" font-family="Helvetica,sans-Serif" font-size="10.00">+ enable()</text>
<text text-anchor="start" x="33.5679" y="-37" font-family="Helvetica,sans-Serif" font-size="10.00">+ enable()</text>
<text text-anchor="start" x="33.5679" y="-27" font-family="Helvetica,sans-Serif" font-size="10.00">+ enable()</text>
<text text-anchor="start" x="33.5679" y="-17" font-family="Helvetica,sans-Serif" font-size="10.00">+ flash()</text>
<text text-anchor="start" x="33.5679" y="-7" font-family="Helvetica,sans-Serif" font-size="10.00">+ get_info()</text>
</g>
<!-- Node2 -->
<g id="node2" class="node"><title>Node2</title>
<g id="a_node2"><a xlink:href="classhal_1_1_device.html" target="_top" xlink:title="Device Class. ">
<polygon fill="none" stroke="black" points="26.2661,-153 26.2661,-227 91.7339,-227 91.7339,-153 26.2661,-153"/>
<text text-anchor="middle" x="59" y="-215" font-family="Helvetica,sans-Serif" font-size="10.00">hal::Device</text>
<polyline fill="none" stroke="black" points="26.2661,-209 91.7339,-209 "/>
<text text-anchor="middle" x="59" y="-197" font-family="Helvetica,sans-Serif" font-size="10.00"> </text>
<polyline fill="none" stroke="black" points="26.2661,-191 91.7339,-191 "/>
<text text-anchor="start" x="34.2661" y="-179" font-family="Helvetica,sans-Serif" font-size="10.00">+ Device()</text>
<text text-anchor="start" x="34.2661" y="-169" font-family="Helvetica,sans-Serif" font-size="10.00">+ read()</text>
<text text-anchor="start" x="34.2661" y="-159" font-family="Helvetica,sans-Serif" font-size="10.00">+ write()</text>
</a>
</g>
</g>
<!-- Node2&#45;&gt;Node1 -->
<g id="edge1" class="edge"><title>Node2&#45;&gt;Node1</title>
<path fill="none" stroke="midnightblue" d="M59,-142.708C59,-133.887 59,-124.564 59,-115.467"/>
<polygon fill="none" stroke="midnightblue" points="55.5001,-142.788 59,-152.788 62.5001,-142.788 55.5001,-142.788"/>
</g>
<!-- Node3 -->
<g id="node3" class="node"><title>Node3</title>
<g id="a_node3"><a xlink:href="classapi_1_1_hal_work_object.html" target="_top" xlink:title="Hal Object Class. ">
<polygon fill="none" stroke="black" points="8.01904,-265 8.01904,-319 109.981,-319 109.981,-265 8.01904,-265"/>
<text text-anchor="middle" x="59" y="-307" font-family="Helvetica,sans-Serif" font-size="10.00">api::HalWorkObject</text>
<polyline fill="none" stroke="black" points="8.01904,-301 109.981,-301 "/>
<text text-anchor="middle" x="59" y="-289" font-family="Helvetica,sans-Serif" font-size="10.00"> </text>
<polyline fill="none" stroke="black" points="8.01904,-283 109.981,-283 "/>
<text text-anchor="middle" x="59" y="-271" font-family="Helvetica,sans-Serif" font-size="10.00"> </text>
</a>
</g>
</g>
<!-- Node3&#45;&gt;Node2 -->
<g id="edge2" class="edge"><title>Node3&#45;&gt;Node2</title>
<path fill="none" stroke="midnightblue" d="M59,-254.767C59,-245.739 59,-236.063 59,-227.045"/>
<polygon fill="none" stroke="midnightblue" points="55.5001,-254.987 59,-264.987 62.5001,-254.987 55.5001,-254.987"/>
</g>
<!-- Node4 -->
<g id="node4" class="node"><title>Node4</title>
<g id="a_node4"><a xlink:href="classsys_1_1_file.html" target="_top" xlink:title="File Class. ">
<polygon fill="none" stroke="black" points="18.7588,-357 18.7588,-521 99.2412,-521 99.2412,-357 18.7588,-357"/>
<text text-anchor="middle" x="59" y="-509" font-family="Helvetica,sans-Serif" font-size="10.00">sys::File</text>
<polyline fill="none" stroke="black" points="18.7588,-503 99.2412,-503 "/>
<text text-anchor="start" x="26.7588" y="-491" font-family="Helvetica,sans-Serif" font-size="10.00"># m_fd</text>
<polyline fill="none" stroke="black" points="18.7588,-485 99.2412,-485 "/>
<text text-anchor="start" x="26.7588" y="-473" font-family="Helvetica,sans-Serif" font-size="10.00">+ File()</text>
<text text-anchor="start" x="26.7588" y="-463" font-family="Helvetica,sans-Serif" font-size="10.00">+ close()</text>
<text text-anchor="start" x="26.7588" y="-453" font-family="Helvetica,sans-Serif" font-size="10.00">+ create()</text>
<text text-anchor="start" x="26.7588" y="-443" font-family="Helvetica,sans-Serif" font-size="10.00">+ fileno()</text>
<text text-anchor="start" x="26.7588" y="-433" font-family="Helvetica,sans-Serif" font-size="10.00">+ flags()</text>
<text text-anchor="start" x="26.7588" y="-423" font-family="Helvetica,sans-Serif" font-size="10.00">+ gets()</text>
<text text-anchor="start" x="26.7588" y="-413" font-family="Helvetica,sans-Serif" font-size="10.00">and 21 more...</text>
<text text-anchor="start" x="26.7588" y="-403" font-family="Helvetica,sans-Serif" font-size="10.00">+ name()</text>
<text text-anchor="start" x="26.7588" y="-393" font-family="Helvetica,sans-Serif" font-size="10.00">+ remove()</text>
<text text-anchor="start" x="26.7588" y="-383" font-family="Helvetica,sans-Serif" font-size="10.00">+ size()</text>
<text text-anchor="start" x="26.7588" y="-373" font-family="Helvetica,sans-Serif" font-size="10.00">+ stat()</text>
<text text-anchor="start" x="26.7588" y="-363" font-family="Helvetica,sans-Serif" font-size="10.00">+ suffix()</text>
</a>
</g>
</g>
<!-- Node4&#45;&gt;Node3 -->
<g id="edge3" class="edge"><title>Node4&#45;&gt;Node3</title>
<path fill="none" stroke="midnightblue" d="M59,-346.541C59,-336.622 59,-327.213 59,-319.129"/>
<polygon fill="none" stroke="midnightblue" points="55.5001,-346.599 59,-356.599 62.5001,-346.599 55.5001,-346.599"/>
</g>
<!-- Node5 -->
<g id="node5" class="node"><title>Node5</title>
<g id="a_node5"><a xlink:href="classapi_1_1_sys_work_object.html" target="_top" xlink:title="System Work Object Class. ">
<polygon fill="none" stroke="black" points="7.18652,-559 7.18652,-613 110.813,-613 110.813,-559 7.18652,-559"/>
<text text-anchor="middle" x="59" y="-601" font-family="Helvetica,sans-Serif" font-size="10.00">api::SysWorkObject</text>
<polyline fill="none" stroke="black" points="7.18652,-595 110.813,-595 "/>
<text text-anchor="middle" x="59" y="-583" font-family="Helvetica,sans-Serif" font-size="10.00"> </text>
<polyline fill="none" stroke="black" points="7.18652,-577 110.813,-577 "/>
<text text-anchor="middle" x="59" y="-565" font-family="Helvetica,sans-Serif" font-size="10.00"> </text>
</a>
</g>
</g>
<!-- Node5&#45;&gt;Node4 -->
<g id="edge4" class="edge"><title>Node5&#45;&gt;Node4</title>
<path fill="none" stroke="midnightblue" d="M59,-548.498C59,-539.997 59,-530.612 59,-521.024"/>
<polygon fill="none" stroke="midnightblue" points="55.5001,-548.742 59,-558.742 62.5001,-548.742 55.5001,-548.742"/>
</g>
<!-- Node6 -->
<g id="node6" class="node"><title>Node6</title>
<g id="a_node6"><a xlink:href="classapi_1_1_work_object.html" target="_top" xlink:title="WorkObject Class. ">
<polygon fill="none" stroke="black" points="-0.547852,-651 -0.547852,-785 118.548,-785 118.548,-651 -0.547852,-651"/>
<text text-anchor="middle" x="59" y="-773" font-family="Helvetica,sans-Serif" font-size="10.00">api::WorkObject</text>
<polyline fill="none" stroke="black" points="-0.547852,-767 118.548,-767 "/>
<text text-anchor="middle" x="59" y="-755" font-family="Helvetica,sans-Serif" font-size="10.00"> </text>
<polyline fill="none" stroke="black" points="-0.547852,-749 118.548,-749 "/>
<text text-anchor="start" x="7.45215" y="-737" font-family="Helvetica,sans-Serif" font-size="10.00">+ WorkObject()</text>
<text text-anchor="start" x="7.45215" y="-727" font-family="Helvetica,sans-Serif" font-size="10.00">+ clear_error_number()</text>
<text text-anchor="start" x="7.45215" y="-717" font-family="Helvetica,sans-Serif" font-size="10.00">+ error_number()</text>
<text text-anchor="start" x="7.45215" y="-707" font-family="Helvetica,sans-Serif" font-size="10.00">+ exit_fatal()</text>
<text text-anchor="start" x="7.45215" y="-697" font-family="Helvetica,sans-Serif" font-size="10.00"># set_error_number()</text>
<text text-anchor="start" x="7.45215" y="-687" font-family="Helvetica,sans-Serif" font-size="10.00"># set_error_number_if</text>
<text text-anchor="start" x="7.45215" y="-677" font-family="Helvetica,sans-Serif" font-size="10.00">_error()</text>
<text text-anchor="start" x="7.45215" y="-667" font-family="Helvetica,sans-Serif" font-size="10.00"># set_error_number_to</text>
<text text-anchor="start" x="7.45215" y="-657" font-family="Helvetica,sans-Serif" font-size="10.00">_errno()</text>
</a>
</g>
</g>
<!-- Node6&#45;&gt;Node5 -->
<g id="edge5" class="edge"><title>Node6&#45;&gt;Node5</title>
<path fill="none" stroke="midnightblue" d="M59,-640.838C59,-630.903 59,-621.326 59,-613.074"/>
<polygon fill="none" stroke="midnightblue" points="55.5001,-640.857 59,-650.857 62.5001,-640.858 55.5001,-640.857"/>
</g>
<!-- Node7 -->
<g id="node7" class="node"><title>Node7</title>
<g id="a_node7"><a xlink:href="classapi_1_1_api_object.html" target="_top" xlink:title="API Object Class. ">
<polygon fill="none" stroke="black" points="17.7896,-823 17.7896,-877 100.21,-877 100.21,-823 17.7896,-823"/>
<text text-anchor="middle" x="59" y="-865" font-family="Helvetica,sans-Serif" font-size="10.00">api::ApiObject</text>
<polyline fill="none" stroke="black" points="17.7896,-859 100.21,-859 "/>
<text text-anchor="middle" x="59" y="-847" font-family="Helvetica,sans-Serif" font-size="10.00"> </text>
<polyline fill="none" stroke="black" points="17.7896,-841 100.21,-841 "/>
<text text-anchor="start" x="25.7896" y="-829" font-family="Helvetica,sans-Serif" font-size="10.00">+ api_version()</text>
</a>
</g>
</g>
<!-- Node7&#45;&gt;Node6 -->
<g id="edge6" class="edge"><title>Node7&#45;&gt;Node6</title>
<path fill="none" stroke="midnightblue" d="M59,-812.644C59,-804.02 59,-794.555 59,-785.059"/>
<polygon fill="none" stroke="midnightblue" points="55.5001,-812.693 59,-822.693 62.5001,-812.693 55.5001,-812.693"/>
</g>
</g>
</svg>
