<?xml version="1.0" encoding="UTF-8" standalone="no"?>
<!DOCTYPE svg PUBLIC "-//W3C//DTD SVG 1.1//EN"
 "http://www.w3.org/Graphics/SVG/1.1/DTD/svg11.dtd">
<!-- Generated by graphviz version 2.36.0 (20140111.2315)
 -->
<!-- Title: sys::Appfs Pages: 1 -->
<svg width="90pt" height="236pt"
 viewBox="0.00 0.00 90.00 236.00" xmlns="http://www.w3.org/2000/svg" xmlns:xlink="http://www.w3.org/1999/xlink">
<g id="graph0" class="graph" transform="scale(1 1) rotate(0) translate(4 232)">
<title>sys::Appfs</title>
<!-- Node1 -->
<g id="node1" class="node"><title>Node1</title>
<polygon fill="#bfbfbf" stroke="black" points="-0.48877,-113 -0.48877,-227 82.4888,-227 82.4888,-113 -0.48877,-113"/>
<text text-anchor="middle" x="41" y="-215" font-family="Helvetica,sans-Serif" font-size="10.00">sys::Appfs</text>
<polyline fill="none" stroke="black" points="-0.48877,-209 82.4888,-209 "/>
<text text-anchor="middle" x="41" y="-197" font-family="Helvetica,sans-Serif" font-size="10.00"> </text>
<polyline fill="none" stroke="black" points="-0.48877,-191 82.4888,-191 "/>
<text text-anchor="start" x="7.51123" y="-179" font-family="Helvetica,sans-Serif" font-size="10.00">+ cleanup()</text>
<text text-anchor="start" x="7.51123" y="-169" font-family="Helvetica,sans-Serif" font-size="10.00">+ create()</text>
<text text-anchor="start" x="7.51123" y="-159" font-family="Helvetica,sans-Serif" font-size="10.00">+ get_id()</text>
<text text-anchor="start" x="7.51123" y="-149" font-family="Helvetica,sans-Serif" font-size="10.00">+ get_id()</text>
<text text-anchor="start" x="7.51123" y="-139" font-family="Helvetica,sans-Serif" font-size="10.00">+ get_info()</text>
<text text-anchor="start" x="7.51123" y="-129" font-family="Helvetica,sans-Serif" font-size="10.00">+ get_version()</text>
<text text-anchor="start" x="7.51123" y="-119" font-family="Helvetica,sans-Serif" font-size="10.00">+ page_size()</text>
</g>
<!-- Node2 -->
<g id="node2" class="node"><title>Node2</title>
<g id="a_node2"><a xlink:href="classcalc_1_1_rle_appfs.html" target="_top" xlink:title="Class for reading/writing compressed file data using Appfs. ">
<polygon fill="none" stroke="black" points="1.04199,-1 1.04199,-75 80.958,-75 80.958,-1 1.04199,-1"/>
<text text-anchor="middle" x="41" y="-63" font-family="Helvetica,sans-Serif" font-size="10.00">calc::RleAppfs</text>
<polyline fill="none" stroke="black" points="1.04199,-57 80.958,-57 "/>
<text text-anchor="middle" x="41" y="-45" font-family="Helvetica,sans-Serif" font-size="10.00"> </text>
<polyline fill="none" stroke="black" points="1.04199,-39 80.958,-39 "/>
<text text-anchor="start" x="9.04199" y="-27" font-family="Helvetica,sans-Serif" font-size="10.00">+ RleAppfs()</text>
<text text-anchor="start" x="9.04199" y="-17" font-family="Helvetica,sans-Serif" font-size="10.00">+ read()</text>
<text text-anchor="start" x="9.04199" y="-7" font-family="Helvetica,sans-Serif" font-size="10.00">+ write()</text>
</a>
</g>
</g>
<!-- Node1&#45;&gt;Node2 -->
<g id="edge1" class="edge"><title>Node1&#45;&gt;Node2</title>
<path fill="none" stroke="midnightblue" d="M41,-102.506C41,-93.0589 41,-83.6537 41,-75.0895"/>
<polygon fill="none" stroke="midnightblue" points="37.5001,-102.736 41,-112.736 44.5001,-102.736 37.5001,-102.736"/>
</g>
</g>
</svg>
