<?xml version="1.0" encoding="UTF-8" standalone="no"?>
<!DOCTYPE svg PUBLIC "-//W3C//DTD SVG 1.1//EN"
 "http://www.w3.org/Graphics/SVG/1.1/DTD/svg11.dtd">
<!-- Generated by graphviz version 2.36.0 (20140111.2315)
 -->
<!-- Title: ui::EventLoop Pages: 1 -->
<svg width="288pt" height="944pt"
 viewBox="0.00 0.00 288.00 944.00" xmlns="http://www.w3.org/2000/svg" xmlns:xlink="http://www.w3.org/1999/xlink">
<g id="graph0" class="graph" transform="scale(1 1) rotate(0) translate(4 940)">
<title>ui::EventLoop</title>
<!-- Node1 -->
<g id="node1" class="node"><title>Node1</title>
<polygon fill="#bfbfbf" stroke="black" points="81.7798,-1 81.7798,-165 204.22,-165 204.22,-1 81.7798,-1"/>
<text text-anchor="middle" x="143" y="-153" font-family="Helvetica,sans-Serif" font-size="10.00">ui::EventLoop</text>
<polyline fill="none" stroke="black" points="81.7798,-147 204.22,-147 "/>
<text text-anchor="middle" x="143" y="-135" font-family="Helvetica,sans-Serif" font-size="10.00"> </text>
<polyline fill="none" stroke="black" points="81.7798,-129 204.22,-129 "/>
<text text-anchor="start" x="89.7798" y="-117" font-family="Helvetica,sans-Serif" font-size="10.00">+ EventLoop()</text>
<text text-anchor="start" x="89.7798" y="-107" font-family="Helvetica,sans-Serif" font-size="10.00">+ catch_null_handler()</text>
<text text-anchor="start" x="89.7798" y="-97" font-family="Helvetica,sans-Serif" font-size="10.00">+ current_element()</text>
<text text-anchor="start" x="89.7798" y="-87" font-family="Helvetica,sans-Serif" font-size="10.00">+ drawing_attr()</text>
<text text-anchor="start" x="89.7798" y="-77" font-family="Helvetica,sans-Serif" font-size="10.00">+ loop()</text>
<text text-anchor="start" x="89.7798" y="-67" font-family="Helvetica,sans-Serif" font-size="10.00">+ set_current_element()</text>
<text text-anchor="start" x="89.7798" y="-57" font-family="Helvetica,sans-Serif" font-size="10.00">+ set_drawing_attr()</text>
<text text-anchor="start" x="89.7798" y="-47" font-family="Helvetica,sans-Serif" font-size="10.00">+ start()</text>
<text text-anchor="start" x="89.7798" y="-37" font-family="Helvetica,sans-Serif" font-size="10.00">+ handle_event()</text>
<text text-anchor="start" x="89.7798" y="-27" font-family="Helvetica,sans-Serif" font-size="10.00">+ handle_transition()</text>
<text text-anchor="start" x="89.7798" y="-17" font-family="Helvetica,sans-Serif" font-size="10.00">+ start()</text>
<text text-anchor="start" x="89.7798" y="-7" font-family="Helvetica,sans-Serif" font-size="10.00"># handle_event()</text>
</g>
<!-- Node2 -->
<g id="node2" class="node"><title>Node2</title>
<g id="a_node2"><a xlink:href="classev_1_1_event_loop.html" target="_top" xlink:title="Event Loop Class. ">
<polygon fill="none" stroke="black" points="67.876,-203 67.876,-407 218.124,-407 218.124,-203 67.876,-203"/>
<text text-anchor="middle" x="143" y="-395" font-family="Helvetica,sans-Serif" font-size="10.00">ev::EventLoop</text>
<polyline fill="none" stroke="black" points="67.876,-389 218.124,-389 "/>
<text text-anchor="middle" x="143" y="-377" font-family="Helvetica,sans-Serif" font-size="10.00"> </text>
<polyline fill="none" stroke="black" points="67.876,-371 218.124,-371 "/>
<text text-anchor="start" x="75.876" y="-359" font-family="Helvetica,sans-Serif" font-size="10.00">+ EventLoop()</text>
<text text-anchor="start" x="75.876" y="-349" font-family="Helvetica,sans-Serif" font-size="10.00">+ catch_null_handler()</text>
<text text-anchor="start" x="75.876" y="-339" font-family="Helvetica,sans-Serif" font-size="10.00">+ current_event_handler()</text>
<text text-anchor="start" x="75.876" y="-329" font-family="Helvetica,sans-Serif" font-size="10.00">+ execute()</text>
<text text-anchor="start" x="75.876" y="-319" font-family="Helvetica,sans-Serif" font-size="10.00">+ loop()</text>
<text text-anchor="start" x="75.876" y="-309" font-family="Helvetica,sans-Serif" font-size="10.00">+ process_events()</text>
<text text-anchor="start" x="75.876" y="-299" font-family="Helvetica,sans-Serif" font-size="10.00">+ set_current_event_handler()</text>
<text text-anchor="start" x="75.876" y="-289" font-family="Helvetica,sans-Serif" font-size="10.00">+ start()</text>
<text text-anchor="start" x="75.876" y="-279" font-family="Helvetica,sans-Serif" font-size="10.00">+ handle_event()</text>
<text text-anchor="start" x="75.876" y="-269" font-family="Helvetica,sans-Serif" font-size="10.00">+ handle_transition()</text>
<text text-anchor="start" x="75.876" y="-259" font-family="Helvetica,sans-Serif" font-size="10.00">+ start()</text>
<text text-anchor="start" x="75.876" y="-249" font-family="Helvetica,sans-Serif" font-size="10.00"># check_loop_for_hibernate()</text>
<text text-anchor="start" x="75.876" y="-239" font-family="Helvetica,sans-Serif" font-size="10.00"># check_loop_for_update()</text>
<text text-anchor="start" x="75.876" y="-229" font-family="Helvetica,sans-Serif" font-size="10.00"># handle_event()</text>
<text text-anchor="start" x="75.876" y="-219" font-family="Helvetica,sans-Serif" font-size="10.00"># loop_timer()</text>
<text text-anchor="start" x="75.876" y="-209" font-family="Helvetica,sans-Serif" font-size="10.00"># update_timer()</text>
</a>
</g>
</g>
<!-- Node2&#45;&gt;Node1 -->
<g id="edge1" class="edge"><title>Node2&#45;&gt;Node1</title>
<path fill="none" stroke="midnightblue" d="M143,-192.608C143,-183.307 143,-174.02 143,-165.012"/>
<polygon fill="none" stroke="midnightblue" points="139.5,-192.693 143,-202.693 146.5,-192.693 139.5,-192.693"/>
</g>
<!-- Node3 -->
<g id="node3" class="node"><title>Node3</title>
<g id="a_node3"><a xlink:href="classev_1_1_event_loop_attr.html" target="_top" xlink:title="Event Loop Attributes. ">
<polygon fill="none" stroke="black" points="-0.180664,-445 -0.180664,-569 146.181,-569 146.181,-445 -0.180664,-445"/>
<text text-anchor="middle" x="73" y="-557" font-family="Helvetica,sans-Serif" font-size="10.00">ev::EventLoopAttr</text>
<polyline fill="none" stroke="black" points="-0.180664,-551 146.181,-551 "/>
<text text-anchor="start" x="7.81934" y="-539" font-family="Helvetica,sans-Serif" font-size="10.00"># m_attr</text>
<polyline fill="none" stroke="black" points="-0.180664,-533 146.181,-533 "/>
<text text-anchor="start" x="7.81934" y="-521" font-family="Helvetica,sans-Serif" font-size="10.00">+ EventLoopAttr()</text>
<text text-anchor="start" x="7.81934" y="-511" font-family="Helvetica,sans-Serif" font-size="10.00">+ hibernation_threshold()</text>
<text text-anchor="start" x="7.81934" y="-501" font-family="Helvetica,sans-Serif" font-size="10.00">+ operator event_loop</text>
<text text-anchor="start" x="7.81934" y="-491" font-family="Helvetica,sans-Serif" font-size="10.00">_attr_t()</text>
<text text-anchor="start" x="7.81934" y="-481" font-family="Helvetica,sans-Serif" font-size="10.00">+ period()</text>
<text text-anchor="start" x="7.81934" y="-471" font-family="Helvetica,sans-Serif" font-size="10.00">+ refresh_wait_resolution()</text>
<text text-anchor="start" x="7.81934" y="-461" font-family="Helvetica,sans-Serif" font-size="10.00">+ set_hibernation_threshold()</text>
<text text-anchor="start" x="7.81934" y="-451" font-family="Helvetica,sans-Serif" font-size="10.00">and 5 more...</text>
</a>
</g>
</g>
<!-- Node3&#45;&gt;Node2 -->
<g id="edge2" class="edge"><title>Node3&#45;&gt;Node2</title>
<path fill="none" stroke="midnightblue" d="M97.7742,-435.216C100.949,-426.144 104.248,-416.721 107.551,-407.282"/>
<polygon fill="none" stroke="midnightblue" points="94.3827,-434.312 94.3827,-444.907 100.99,-436.624 94.3827,-434.312"/>
</g>
<!-- Node4 -->
<g id="node4" class="node"><title>Node4</title>
<g id="a_node4"><a xlink:href="classapi_1_1_ev_info_object.html" target="_top" xlink:title="Event Informatin Object. ">
<polygon fill="none" stroke="black" points="31.9238,-607 31.9238,-661 124.076,-661 124.076,-607 31.9238,-607"/>
<text text-anchor="middle" x="78" y="-649" font-family="Helvetica,sans-Serif" font-size="10.00">api::EvInfoObject</text>
<polyline fill="none" stroke="black" points="31.9238,-643 124.076,-643 "/>
<text text-anchor="middle" x="78" y="-631" font-family="Helvetica,sans-Serif" font-size="10.00"> </text>
<polyline fill="none" stroke="black" points="31.9238,-625 124.076,-625 "/>
<text text-anchor="middle" x="78" y="-613" font-family="Helvetica,sans-Serif" font-size="10.00"> </text>
</a>
</g>
</g>
<!-- Node4&#45;&gt;Node3 -->
<g id="edge3" class="edge"><title>Node4&#45;&gt;Node3</title>
<path fill="none" stroke="midnightblue" d="M76.5486,-596.715C76.2028,-588.071 75.8244,-578.61 75.4475,-569.188"/>
<polygon fill="none" stroke="midnightblue" points="73.0549,-596.944 76.9518,-606.796 80.0493,-596.664 73.0549,-596.944"/>
</g>
<!-- Node5 -->
<g id="node5" class="node"><title>Node5</title>
<g id="a_node5"><a xlink:href="classapi_1_1_info_object.html" target="_top" xlink:title="API Information Object. ">
<polygon fill="none" stroke="black" points="38.7588,-744 38.7588,-798 119.241,-798 119.241,-744 38.7588,-744"/>
<text text-anchor="middle" x="79" y="-786" font-family="Helvetica,sans-Serif" font-size="10.00">api::InfoObject</text>
<polyline fill="none" stroke="black" points="38.7588,-780 119.241,-780 "/>
<text text-anchor="middle" x="79" y="-768" font-family="Helvetica,sans-Serif" font-size="10.00"> </text>
<polyline fill="none" stroke="black" points="38.7588,-762 119.241,-762 "/>
<text text-anchor="middle" x="79" y="-750" font-family="Helvetica,sans-Serif" font-size="10.00"> </text>
</a>
</g>
</g>
<!-- Node5&#45;&gt;Node4 -->
<g id="edge4" class="edge"><title>Node5&#45;&gt;Node4</title>
<path fill="none" stroke="midnightblue" d="M78.7331,-733.967C78.564,-711.133 78.349,-682.111 78.1956,-661.41"/>
<polygon fill="none" stroke="midnightblue" points="75.2331,-733.997 78.8072,-743.971 82.2329,-733.945 75.2331,-733.997"/>
</g>
<!-- Node6 -->
<g id="node6" class="node"><title>Node6</title>
<g id="a_node6"><a xlink:href="classapi_1_1_api_object.html" target="_top" xlink:title="API Object Class. ">
<polygon fill="none" stroke="black" points="102.79,-881 102.79,-935 185.21,-935 185.21,-881 102.79,-881"/>
<text text-anchor="middle" x="144" y="-923" font-family="Helvetica,sans-Serif" font-size="10.00">api::ApiObject</text>
<polyline fill="none" stroke="black" points="102.79,-917 185.21,-917 "/>
<text text-anchor="middle" x="144" y="-905" font-family="Helvetica,sans-Serif" font-size="10.00"> </text>
<polyline fill="none" stroke="black" points="102.79,-899 185.21,-899 "/>
<text text-anchor="start" x="110.79" y="-887" font-family="Helvetica,sans-Serif" font-size="10.00">+ api_version()</text>
</a>
</g>
</g>
<!-- Node6&#45;&gt;Node5 -->
<g id="edge5" class="edge"><title>Node6&#45;&gt;Node5</title>
<path fill="none" stroke="midnightblue" d="M127.095,-871.889C116.035,-848.919 101.818,-819.39 91.716,-798.41"/>
<polygon fill="none" stroke="midnightblue" points="123.976,-873.479 131.467,-880.971 130.283,-870.442 123.976,-873.479"/>
</g>
<!-- Node8 -->
<g id="node8" class="node"><title>Node8</title>
<g id="a_node8"><a xlink:href="classapi_1_1_work_object.html" target="_top" xlink:title="WorkObject Class. ">
<polygon fill="none" stroke="black" points="137.914,-699 137.914,-843 280.086,-843 280.086,-699 137.914,-699"/>
<text text-anchor="middle" x="209" y="-831" font-family="Helvetica,sans-Serif" font-size="10.00">api::WorkObject</text>
<polyline fill="none" stroke="black" points="137.914,-825 280.086,-825 "/>
<text text-anchor="middle" x="209" y="-813" font-family="Helvetica,sans-Serif" font-size="10.00"> </text>
<polyline fill="none" stroke="black" points="137.914,-807 280.086,-807 "/>
<text text-anchor="start" x="145.914" y="-795" font-family="Helvetica,sans-Serif" font-size="10.00">+ WorkObject()</text>
<text text-anchor="start" x="145.914" y="-785" font-family="Helvetica,sans-Serif" font-size="10.00">+ clear_error_number()</text>
<text text-anchor="start" x="145.914" y="-775" font-family="Helvetica,sans-Serif" font-size="10.00">+ error_number()</text>
<text text-anchor="start" x="145.914" y="-765" font-family="Helvetica,sans-Serif" font-size="10.00">+ exit_fatal()</text>
<text text-anchor="start" x="145.914" y="-755" font-family="Helvetica,sans-Serif" font-size="10.00"># set_error_number()</text>
<text text-anchor="start" x="145.914" y="-745" font-family="Helvetica,sans-Serif" font-size="10.00"># set_error_number_if</text>
<text text-anchor="start" x="145.914" y="-735" font-family="Helvetica,sans-Serif" font-size="10.00">_error()</text>
<text text-anchor="start" x="145.914" y="-725" font-family="Helvetica,sans-Serif" font-size="10.00"># set_error_number_if_null()</text>
<text text-anchor="start" x="145.914" y="-715" font-family="Helvetica,sans-Serif" font-size="10.00"># set_error_number_to</text>
<text text-anchor="start" x="145.914" y="-705" font-family="Helvetica,sans-Serif" font-size="10.00">_errno()</text>
</a>
</g>
</g>
<!-- Node6&#45;&gt;Node8 -->
<g id="edge8" class="edge"><title>Node6&#45;&gt;Node8</title>
<path fill="none" stroke="midnightblue" d="M160.959,-871.777C165.226,-862.915 169.96,-853.083 174.745,-843.145"/>
<polygon fill="none" stroke="midnightblue" points="157.717,-870.442 156.533,-880.971 164.024,-873.479 157.717,-870.442"/>
</g>
<!-- Node7 -->
<g id="node7" class="node"><title>Node7</title>
<g id="a_node7"><a xlink:href="classapi_1_1_ev_work_object.html" target="_top" xlink:title="Event Object Class. ">
<polygon fill="none" stroke="black" points="163.687,-480 163.687,-534 262.313,-534 262.313,-480 163.687,-480"/>
<text text-anchor="middle" x="213" y="-522" font-family="Helvetica,sans-Serif" font-size="10.00">api::EvWorkObject</text>
<polyline fill="none" stroke="black" points="163.687,-516 262.313,-516 "/>
<text text-anchor="middle" x="213" y="-504" font-family="Helvetica,sans-Serif" font-size="10.00"> </text>
<polyline fill="none" stroke="black" points="163.687,-498 262.313,-498 "/>
<text text-anchor="middle" x="213" y="-486" font-family="Helvetica,sans-Serif" font-size="10.00"> </text>
</a>
</g>
</g>
<!-- Node7&#45;&gt;Node2 -->
<g id="edge6" class="edge"><title>Node7&#45;&gt;Node2</title>
<path fill="none" stroke="midnightblue" d="M200.391,-469.973C194.178,-452.224 186.344,-429.84 178.477,-407.364"/>
<polygon fill="none" stroke="midnightblue" points="197.242,-471.571 203.849,-479.853 203.849,-469.259 197.242,-471.571"/>
</g>
<!-- Node8&#45;&gt;Node7 -->
<g id="edge7" class="edge"><title>Node8&#45;&gt;Node7</title>
<path fill="none" stroke="midnightblue" d="M210.242,-688.663C211.052,-635.591 212.057,-569.756 212.603,-534.03"/>
<polygon fill="none" stroke="midnightblue" points="206.741,-688.701 210.088,-698.753 213.74,-688.808 206.741,-688.701"/>
</g>
</g>
</svg>
