<?xml version="1.0" encoding="UTF-8" standalone="no"?>
<!DOCTYPE svg PUBLIC "-//W3C//DTD SVG 1.1//EN"
 "http://www.w3.org/Graphics/SVG/1.1/DTD/svg11.dtd">
<!-- Generated by graphviz version 2.36.0 (20140111.2315)
 -->
<!-- Title: hal::I2SPinAssignment Pages: 1 -->
<!--zoomable 722 -->
<svg id="main" version="1.1" xmlns="http://www.w3.org/2000/svg" xmlns:xlink="http://www.w3.org/1999/xlink" xml:space="preserve" onload="init(evt)">
<style type="text/css"><![CDATA[
.edge:hover path { stroke: red; }
.edge:hover polygon { stroke: red; fill: red; }
]]></style>
<script type="text/javascript"><![CDATA[
var edges = document.getElementsByTagName('g');
if (edges && edges.length) {
  for (var i=0;i<edges.length;i++) {
    if (edges[i].id.substr(0,4)=='edge') {
      edges[i].setAttribute('class','edge');
    }
  }
}
]]></script>
        <defs>
                <circle id="rim" cx="0" cy="0" r="7"/>
                <circle id="rim2" cx="0" cy="0" r="3.5"/>
                <g id="zoomPlus">
                        <use xlink:href="#rim" fill="#404040">
                                <set attributeName="fill" to="#808080" begin="zoomplus.mouseover" end="zoomplus.mouseout"/>
                        </use>
                        <path d="M-4,0h8M0,-4v8" fill="none" stroke="white" stroke-width="1.5" pointer-events="none"/>
                </g>
                <g id="zoomMin">
                        <use xlink:href="#rim" fill="#404040">
                                <set attributeName="fill" to="#808080" begin="zoomminus.mouseover" end="zoomminus.mouseout"/>
                        </use>
                        <path d="M-4,0h8" fill="none" stroke="white" stroke-width="1.5" pointer-events="none"/>
                </g>
                <g id="dirArrow">
                        <path fill="none" stroke="white" stroke-width="1.5" d="M0,-3.0v7 M-2.5,-0.5L0,-3.0L2.5,-0.5"/>
                </g>
               <g id="resetDef">
                       <use xlink:href="#rim2" fill="#404040">
                               <set attributeName="fill" to="#808080" begin="reset.mouseover" end="reset.mouseout"/>
                       </use>
               </g>
        </defs>

<script type="text/javascript">
var viewWidth = 221;
var viewHeight = 722;
var sectionId = 'dynsection-0';
</script>
<script xlink:href="svgpan.js"/>
<svg id="graph" class="graph">
<g id="viewport">
<title>hal::I2SPinAssignment</title>
<!-- Node1 -->
<g id="node1" class="node"><title>Node1</title>
<polygon fill="#bfbfbf" stroke="black" points="7.69482,-1 7.69482,-55 124.305,-55 124.305,-1 7.69482,-1"/>
<text text-anchor="middle" x="66" y="-43" font-family="Helvetica,sans-Serif" font-size="10.00">hal::I2SPinAssignment</text>
<polyline fill="none" stroke="black" points="7.69482,-37 124.305,-37 "/>
<text text-anchor="middle" x="66" y="-25" font-family="Helvetica,sans-Serif" font-size="10.00"> </text>
<polyline fill="none" stroke="black" points="7.69482,-19 124.305,-19 "/>
<text text-anchor="middle" x="66" y="-7" font-family="Helvetica,sans-Serif" font-size="10.00"> </text>
</g>
<!-- Node2 -->
<g id="node2" class="node"><title>Node2</title>
<g id="a_node2"><a xlink:href="classhal_1_1_pin_assignment.html" target="_top" xlink:title="{hal::PinAssignment\l\&lt; i2s_pin_assignment_t \&gt;\n||+ PinAssignment()\l+ assign()\l+ clear()\l+ copy()\l+ count()\l+ operator const i2s\l_pin_assignment_t *()\l+ operator&#45;\&gt;()\l+ size()\l}">
<polygon fill="none" stroke="black" points="1.01758,-95 1.01758,-239 130.982,-239 130.982,-95 1.01758,-95"/>
<text text-anchor="start" x="9.01758" y="-227" font-family="Helvetica,sans-Serif" font-size="10.00">hal::PinAssignment</text>
<text text-anchor="middle" x="66" y="-217" font-family="Helvetica,sans-Serif" font-size="10.00">&lt; i2s_pin_assignment_t &gt;</text>
<polyline fill="none" stroke="black" points="1.01758,-211 130.982,-211 "/>
<text text-anchor="middle" x="66" y="-199" font-family="Helvetica,sans-Serif" font-size="10.00"> </text>
<polyline fill="none" stroke="black" points="1.01758,-193 130.982,-193 "/>
<text text-anchor="start" x="9.01758" y="-181" font-family="Helvetica,sans-Serif" font-size="10.00">+ PinAssignment()</text>
<text text-anchor="start" x="9.01758" y="-171" font-family="Helvetica,sans-Serif" font-size="10.00">+ assign()</text>
<text text-anchor="start" x="9.01758" y="-161" font-family="Helvetica,sans-Serif" font-size="10.00">+ clear()</text>
<text text-anchor="start" x="9.01758" y="-151" font-family="Helvetica,sans-Serif" font-size="10.00">+ copy()</text>
<text text-anchor="start" x="9.01758" y="-141" font-family="Helvetica,sans-Serif" font-size="10.00">+ count()</text>
<text text-anchor="start" x="9.01758" y="-131" font-family="Helvetica,sans-Serif" font-size="10.00">+ operator const i2s</text>
<text text-anchor="start" x="9.01758" y="-121" font-family="Helvetica,sans-Serif" font-size="10.00">_pin_assignment_t *()</text>
<text text-anchor="start" x="9.01758" y="-111" font-family="Helvetica,sans-Serif" font-size="10.00">+ operator&#45;&gt;()</text>
<text text-anchor="start" x="9.01758" y="-101" font-family="Helvetica,sans-Serif" font-size="10.00">+ size()</text>
</a>
</g>
</g>
<!-- Node2&#45;&gt;Node1 -->
<g id="edge1" class="edge"><title>Node2&#45;&gt;Node1</title>
<path fill="none" stroke="midnightblue" d="M66,-84.4559C66,-73.882 66,-63.7388 66,-55.0848"/>
<polygon fill="none" stroke="midnightblue" points="62.5001,-84.6911 66,-94.6911 69.5001,-84.6912 62.5001,-84.6911"/>
</g>
<!-- Node3 -->
<g id="node3" class="node"><title>Node3</title>
<g id="a_node3"><a xlink:href="classapi_1_1_hal_info_object.html" target="_top" xlink:title="Hal Info Object. ">
<polygon fill="none" stroke="black" points="-0.743652,-471 -0.743652,-525 94.7437,-525 94.7437,-471 -0.743652,-471"/>
<text text-anchor="middle" x="47" y="-513" font-family="Helvetica,sans-Serif" font-size="10.00">api::HalInfoObject</text>
<polyline fill="none" stroke="black" points="-0.743652,-507 94.7437,-507 "/>
<text text-anchor="middle" x="47" y="-495" font-family="Helvetica,sans-Serif" font-size="10.00"> </text>
<polyline fill="none" stroke="black" points="-0.743652,-489 94.7437,-489 "/>
<text text-anchor="middle" x="47" y="-477" font-family="Helvetica,sans-Serif" font-size="10.00"> </text>
</a>
</g>
</g>
<!-- Node3&#45;&gt;Node2 -->
<g id="edge2" class="edge"><title>Node3&#45;&gt;Node2</title>
<path fill="none" stroke="midnightblue" d="M47.4486,-460.958C48.1449,-418.921 49.8673,-347.356 54,-286 55.0241,-270.797 56.4588,-254.523 57.9811,-239.068"/>
<polygon fill="none" stroke="midnightblue" points="43.9486,-460.931 47.2928,-470.985 50.9478,-461.04 43.9486,-460.931"/>
</g>
<!-- Node6 -->
<g id="node6" class="node"><title>Node6</title>
<g id="a_node6"><a xlink:href="classhal_1_1_pin_assignment.html" target="_top" xlink:title="Pin Assignment Class. ">
<polygon fill="none" stroke="black" points="63.1284,-287 63.1284,-431 190.872,-431 190.872,-287 63.1284,-287"/>
<text text-anchor="start" x="71.1284" y="-419" font-family="Helvetica,sans-Serif" font-size="10.00">hal::PinAssignment</text>
<text text-anchor="middle" x="127" y="-409" font-family="Helvetica,sans-Serif" font-size="10.00">&lt; pin_assignment_type &gt;</text>
<polyline fill="none" stroke="black" points="63.1284,-403 190.872,-403 "/>
<text text-anchor="middle" x="127" y="-391" font-family="Helvetica,sans-Serif" font-size="10.00"> </text>
<polyline fill="none" stroke="black" points="63.1284,-385 190.872,-385 "/>
<text text-anchor="start" x="71.1284" y="-373" font-family="Helvetica,sans-Serif" font-size="10.00">+ PinAssignment()</text>
<text text-anchor="start" x="71.1284" y="-363" font-family="Helvetica,sans-Serif" font-size="10.00">+ assign()</text>
<text text-anchor="start" x="71.1284" y="-353" font-family="Helvetica,sans-Serif" font-size="10.00">+ clear()</text>
<text text-anchor="start" x="71.1284" y="-343" font-family="Helvetica,sans-Serif" font-size="10.00">+ copy()</text>
<text text-anchor="start" x="71.1284" y="-333" font-family="Helvetica,sans-Serif" font-size="10.00">+ count()</text>
<text text-anchor="start" x="71.1284" y="-323" font-family="Helvetica,sans-Serif" font-size="10.00">+ operator const pin</text>
<text text-anchor="start" x="71.1284" y="-313" font-family="Helvetica,sans-Serif" font-size="10.00">_assignment_type *()</text>
<text text-anchor="start" x="71.1284" y="-303" font-family="Helvetica,sans-Serif" font-size="10.00">+ operator&#45;&gt;()</text>
<text text-anchor="start" x="71.1284" y="-293" font-family="Helvetica,sans-Serif" font-size="10.00">+ size()</text>
</a>
</g>
</g>
<!-- Node3&#45;&gt;Node6 -->
<g id="edge6" class="edge"><title>Node3&#45;&gt;Node6</title>
<path fill="none" stroke="midnightblue" d="M67.3597,-462.134C72.9425,-452.573 79.2042,-441.85 85.5153,-431.043"/>
<polygon fill="none" stroke="midnightblue" points="64.2559,-460.508 62.2357,-470.909 70.3008,-464.038 64.2559,-460.508"/>
</g>
<!-- Node4 -->
<g id="node4" class="node"><title>Node4</title>
<g id="a_node4"><a xlink:href="classapi_1_1_info_object.html" target="_top" xlink:title="Information Object. ">
<polygon fill="none" stroke="black" points="6.75879,-565 6.75879,-619 87.2412,-619 87.2412,-565 6.75879,-565"/>
<text text-anchor="middle" x="47" y="-607" font-family="Helvetica,sans-Serif" font-size="10.00">api::InfoObject</text>
<polyline fill="none" stroke="black" points="6.75879,-601 87.2412,-601 "/>
<text text-anchor="middle" x="47" y="-589" font-family="Helvetica,sans-Serif" font-size="10.00"> </text>
<polyline fill="none" stroke="black" points="6.75879,-583 87.2412,-583 "/>
<text text-anchor="middle" x="47" y="-571" font-family="Helvetica,sans-Serif" font-size="10.00"> </text>
</a>
</g>
</g>
<!-- Node4&#45;&gt;Node3 -->
<g id="edge3" class="edge"><title>Node4&#45;&gt;Node3</title>
<path fill="none" stroke="midnightblue" d="M47,-554.872C47,-544.964 47,-534.415 47,-525.183"/>
<polygon fill="none" stroke="midnightblue" points="43.5001,-554.883 47,-564.883 50.5001,-554.883 43.5001,-554.883"/>
</g>
<!-- Node5 -->
<g id="node5" class="node"><title>Node5</title>
<g id="a_node5"><a xlink:href="classapi_1_1_api_object.html" target="_top" xlink:title="Application Programming Interface Object. ">
<polygon fill="none" stroke="black" points="5.78955,-659 5.78955,-713 88.2104,-713 88.2104,-659 5.78955,-659"/>
<text text-anchor="middle" x="47" y="-701" font-family="Helvetica,sans-Serif" font-size="10.00">api::ApiObject</text>
<polyline fill="none" stroke="black" points="5.78955,-695 88.2104,-695 "/>
<text text-anchor="middle" x="47" y="-683" font-family="Helvetica,sans-Serif" font-size="10.00"> </text>
<polyline fill="none" stroke="black" points="5.78955,-677 88.2104,-677 "/>
<text text-anchor="start" x="13.7896" y="-665" font-family="Helvetica,sans-Serif" font-size="10.00">+ api_version()</text>
</a>
</g>
</g>
<!-- Node5&#45;&gt;Node4 -->
<g id="edge4" class="edge"><title>Node5&#45;&gt;Node4</title>
<path fill="none" stroke="midnightblue" d="M47,-648.872C47,-638.964 47,-628.415 47,-619.183"/>
<polygon fill="none" stroke="midnightblue" points="43.5001,-648.883 47,-658.883 50.5001,-648.883 43.5001,-648.883"/>
</g>
<!-- Node6&#45;&gt;Node2 -->
<g id="edge5" class="edge"><title>Node6&#45;&gt;Node2</title>
<path fill="none" stroke="orange" d="M101.115,-277.376C97.0478,-264.706 92.8681,-251.688 88.8748,-239.249"/>
<polygon fill="orange" stroke="orange" points="97.8097,-278.529 104.199,-286.981 104.475,-276.39 97.8097,-278.529"/>
<text text-anchor="middle" x="154.372" y="-260" font-family="Helvetica,sans-Serif" font-size="10.00"> &lt; i2s_pin_assignment_t &gt;</text>
</g>
</g>
</svg>
        <g id="navigator" transform="translate(0 0)" fill="#404254">
                <rect fill="#f2f5e9" fill-opacity="0.5" stroke="#606060" stroke-width=".5" x="0" y="0" width="60" height="60"/>
                <use id="zoomplus" xlink:href="#zoomPlus" x="17" y="9" onmousedown="handleZoom(evt,'in')"/>
                <use id="zoomminus" xlink:href="#zoomMin" x="42" y="9" onmousedown="handleZoom(evt,'out')"/>
                <use id="reset" xlink:href="#resetDef" x="30" y="36" onmousedown="handleReset()"/>
                <g id="arrowUp" xlink:href="#dirArrow" transform="translate(30 24)" onmousedown="handlePan(0,-1)">
                  <use xlink:href="#rim" fill="#404040">
                        <set attributeName="fill" to="#808080" begin="arrowUp.mouseover" end="arrowUp.mouseout"/>
                  </use>
                  <path fill="none" stroke="white" stroke-width="1.5" d="M0,-3.0v7 M-2.5,-0.5L0,-3.0L2.5,-0.5"/>
                </g>
                <g id="arrowRight" xlink:href="#dirArrow" transform="rotate(90) translate(36 -43)" onmousedown="handlePan(1,0)">
                  <use xlink:href="#rim" fill="#404040">
                        <set attributeName="fill" to="#808080" begin="arrowRight.mouseover" end="arrowRight.mouseout"/>
                  </use>
                  <path fill="none" stroke="white" stroke-width="1.5" d="M0,-3.0v7 M-2.5,-0.5L0,-3.0L2.5,-0.5"/>
                </g>
                <g id="arrowDown" xlink:href="#dirArrow" transform="rotate(180) translate(-30 -48)" onmousedown="handlePan(0,1)">
                  <use xlink:href="#rim" fill="#404040">
                        <set attributeName="fill" to="#808080" begin="arrowDown.mouseover" end="arrowDown.mouseout"/>
                  </use>
                  <path fill="none" stroke="white" stroke-width="1.5" d="M0,-3.0v7 M-2.5,-0.5L0,-3.0L2.5,-0.5"/>
                </g>
                <g id="arrowLeft" xlink:href="#dirArrow" transform="rotate(270) translate(-36 17)" onmousedown="handlePan(-1,0)">
                  <use xlink:href="#rim" fill="#404040">
                        <set attributeName="fill" to="#808080" begin="arrowLeft.mouseover" end="arrowLeft.mouseout"/>
                  </use>
                  <path fill="none" stroke="white" stroke-width="1.5" d="M0,-3.0v7 M-2.5,-0.5L0,-3.0L2.5,-0.5"/>
                </g>
        </g>
        <svg viewBox="0 0 15 15" width="100%" height="30px" preserveAspectRatio="xMaxYMin meet">
         <g id="arrow_out" transform="scale(0.3 0.3)">
          <a xlink:href="classhal_1_1_i2_s_pin_assignment__inherit__graph_org.svg" target="_base">
           <rect id="button" ry="5" rx="5" y="6" x="6" height="38" width="38"
                fill="#f2f5e9" fill-opacity="0.5" stroke="#606060" stroke-width="1.0"/>
           <path id="arrow"
             d="M 11.500037,31.436501 C 11.940474,20.09759 22.043105,11.32322 32.158766,21.979434 L 37.068811,17.246167 C 37.068811,17.246167 37.088388,32 37.088388,32 L 22.160133,31.978069 C 22.160133,31.978069 26.997745,27.140456 26.997745,27.140456 C 18.528582,18.264221 13.291696,25.230495 11.500037,31.436501 z"
             style="fill:#404040;"/>
          </a>
         </g>
        </svg>
</svg>
