<?xml version="1.0" encoding="UTF-8" standalone="no"?>
<!DOCTYPE svg PUBLIC "-//W3C//DTD SVG 1.1//EN"
 "http://www.w3.org/Graphics/SVG/1.1/DTD/svg11.dtd">
<!-- Generated by graphviz version 2.36.0 (20140111.2315)
 -->
<!-- Title: api::DspInfoObject Pages: 1 -->
<!--zoomable 662 -->
<svg id="main" version="1.1" xmlns="http://www.w3.org/2000/svg" xmlns:xlink="http://www.w3.org/1999/xlink" xml:space="preserve" onload="init(evt)">
<style type="text/css"><![CDATA[
.edge:hover path { stroke: red; }
.edge:hover polygon { stroke: red; fill: red; }
]]></style>
<script type="text/javascript"><![CDATA[
var edges = document.getElementsByTagName('g');
if (edges && edges.length) {
  for (var i=0;i<edges.length;i++) {
    if (edges[i].id.substr(0,4)=='edge') {
      edges[i].setAttribute('class','edge');
    }
  }
}
]]></script>
        <defs>
                <circle id="rim" cx="0" cy="0" r="7"/>
                <circle id="rim2" cx="0" cy="0" r="3.5"/>
                <g id="zoomPlus">
                        <use xlink:href="#rim" fill="#404040">
                                <set attributeName="fill" to="#808080" begin="zoomplus.mouseover" end="zoomplus.mouseout"/>
                        </use>
                        <path d="M-4,0h8M0,-4v8" fill="none" stroke="white" stroke-width="1.5" pointer-events="none"/>
                </g>
                <g id="zoomMin">
                        <use xlink:href="#rim" fill="#404040">
                                <set attributeName="fill" to="#808080" begin="zoomminus.mouseover" end="zoomminus.mouseout"/>
                        </use>
                        <path d="M-4,0h8" fill="none" stroke="white" stroke-width="1.5" pointer-events="none"/>
                </g>
                <g id="dirArrow">
                        <path fill="none" stroke="white" stroke-width="1.5" d="M0,-3.0v7 M-2.5,-0.5L0,-3.0L2.5,-0.5"/>
                </g>
               <g id="resetDef">
                       <use xlink:href="#rim2" fill="#404040">
                               <set attributeName="fill" to="#808080" begin="reset.mouseover" end="reset.mouseout"/>
                       </use>
               </g>
        </defs>

<script type="text/javascript">
var viewWidth = 414;
var viewHeight = 662;
var sectionId = 'dynsection-0';
</script>
<script xlink:href="svgpan.js"/>
<svg id="graph" class="graph">
<g id="viewport">
<title>api::DspInfoObject</title>
<!-- Node1 -->
<g id="node1" class="node"><title>Node1</title>
<polygon fill="#bfbfbf" stroke="black" points="80.8672,-411 80.8672,-465 179.133,-465 179.133,-411 80.8672,-411"/>
<text text-anchor="middle" x="130" y="-453" font-family="Helvetica,sans-Serif" font-size="10.00">api::DspInfoObject</text>
<polyline fill="none" stroke="black" points="80.8672,-447 179.133,-447 "/>
<text text-anchor="middle" x="130" y="-435" font-family="Helvetica,sans-Serif" font-size="10.00"> </text>
<polyline fill="none" stroke="black" points="80.8672,-429 179.133,-429 "/>
<text text-anchor="middle" x="130" y="-417" font-family="Helvetica,sans-Serif" font-size="10.00"> </text>
</g>
<!-- Node4 -->
<g id="node4" class="node"><title>Node4</title>
<g id="a_node4"><a xlink:href="classdsp_1_1_complex.html" target="_top" xlink:title="{dsp::Complex\&lt; float32_t \&gt;\n||+ imaginary()\l+ imaginary()\l+ operator!=()\l+ operator+()\l+ operator+=()\l+ operator&#45;()\land 4 more...\l}">
<polygon fill="none" stroke="black" points="-0.369141,-95 -0.369141,-209 132.369,-209 132.369,-95 -0.369141,-95"/>
<text text-anchor="middle" x="66" y="-197" font-family="Helvetica,sans-Serif" font-size="10.00">dsp::Complex&lt; float32_t &gt;</text>
<polyline fill="none" stroke="black" points="-0.369141,-191 132.369,-191 "/>
<text text-anchor="middle" x="66" y="-179" font-family="Helvetica,sans-Serif" font-size="10.00"> </text>
<polyline fill="none" stroke="black" points="-0.369141,-173 132.369,-173 "/>
<text text-anchor="start" x="7.63086" y="-161" font-family="Helvetica,sans-Serif" font-size="10.00">+ imaginary()</text>
<text text-anchor="start" x="7.63086" y="-151" font-family="Helvetica,sans-Serif" font-size="10.00">+ imaginary()</text>
<text text-anchor="start" x="7.63086" y="-141" font-family="Helvetica,sans-Serif" font-size="10.00">+ operator!=()</text>
<text text-anchor="start" x="7.63086" y="-131" font-family="Helvetica,sans-Serif" font-size="10.00">+ operator+()</text>
<text text-anchor="start" x="7.63086" y="-121" font-family="Helvetica,sans-Serif" font-size="10.00">+ operator+=()</text>
<text text-anchor="start" x="7.63086" y="-111" font-family="Helvetica,sans-Serif" font-size="10.00">+ operator&#45;()</text>
<text text-anchor="start" x="7.63086" y="-101" font-family="Helvetica,sans-Serif" font-size="10.00">and 4 more...</text>
</a>
</g>
</g>
<!-- Node1&#45;&gt;Node4 -->
<g id="edge3" class="edge"><title>Node1&#45;&gt;Node4</title>
<path fill="none" stroke="midnightblue" d="M95.9036,-402.669C93.6284,-399.239 91.6073,-395.664 90,-392 64.2869,-333.379 60.7807,-259.13 62.0951,-209.07"/>
<polygon fill="none" stroke="midnightblue" points="93.2188,-404.924 101.991,-410.865 98.8384,-400.751 93.2188,-404.924"/>
</g>
<!-- Node6 -->
<g id="node6" class="node"><title>Node6</title>
<g id="a_node6"><a xlink:href="classdsp_1_1_complex.html" target="_top" xlink:title="{dsp::Complex\&lt; q15_t \&gt;\n||+ imaginary()\l+ imaginary()\l+ operator!=()\l+ operator+()\l+ operator+=()\l+ operator&#45;()\land 4 more...\l}">
<polygon fill="none" stroke="black" points="287.301,-95 287.301,-209 406.699,-209 406.699,-95 287.301,-95"/>
<text text-anchor="middle" x="347" y="-197" font-family="Helvetica,sans-Serif" font-size="10.00">dsp::Complex&lt; q15_t &gt;</text>
<polyline fill="none" stroke="black" points="287.301,-191 406.699,-191 "/>
<text text-anchor="middle" x="347" y="-179" font-family="Helvetica,sans-Serif" font-size="10.00"> </text>
<polyline fill="none" stroke="black" points="287.301,-173 406.699,-173 "/>
<text text-anchor="start" x="295.301" y="-161" font-family="Helvetica,sans-Serif" font-size="10.00">+ imaginary()</text>
<text text-anchor="start" x="295.301" y="-151" font-family="Helvetica,sans-Serif" font-size="10.00">+ imaginary()</text>
<text text-anchor="start" x="295.301" y="-141" font-family="Helvetica,sans-Serif" font-size="10.00">+ operator!=()</text>
<text text-anchor="start" x="295.301" y="-131" font-family="Helvetica,sans-Serif" font-size="10.00">+ operator+()</text>
<text text-anchor="start" x="295.301" y="-121" font-family="Helvetica,sans-Serif" font-size="10.00">+ operator+=()</text>
<text text-anchor="start" x="295.301" y="-111" font-family="Helvetica,sans-Serif" font-size="10.00">+ operator&#45;()</text>
<text text-anchor="start" x="295.301" y="-101" font-family="Helvetica,sans-Serif" font-size="10.00">and 4 more...</text>
</a>
</g>
</g>
<!-- Node1&#45;&gt;Node6 -->
<g id="edge5" class="edge"><title>Node1&#45;&gt;Node6</title>
<path fill="none" stroke="midnightblue" d="M188.782,-416.853C212.798,-406.379 239.462,-391.599 259,-372 303.262,-327.601 326.05,-258.047 337.222,-209.266"/>
<polygon fill="none" stroke="midnightblue" points="187.248,-413.701 179.381,-420.798 189.956,-420.156 187.248,-413.701"/>
</g>
<!-- Node8 -->
<g id="node8" class="node"><title>Node8</title>
<g id="a_node8"><a xlink:href="classdsp_1_1_complex.html" target="_top" xlink:title="{dsp::Complex\&lt; q31_t \&gt;\n||+ imaginary()\l+ imaginary()\l+ operator!=()\l+ operator+()\l+ operator+=()\l+ operator&#45;()\land 4 more...\l}">
<polygon fill="none" stroke="black" points="150.301,-95 150.301,-209 269.699,-209 269.699,-95 150.301,-95"/>
<text text-anchor="middle" x="210" y="-197" font-family="Helvetica,sans-Serif" font-size="10.00">dsp::Complex&lt; q31_t &gt;</text>
<polyline fill="none" stroke="black" points="150.301,-191 269.699,-191 "/>
<text text-anchor="middle" x="210" y="-179" font-family="Helvetica,sans-Serif" font-size="10.00"> </text>
<polyline fill="none" stroke="black" points="150.301,-173 269.699,-173 "/>
<text text-anchor="start" x="158.301" y="-161" font-family="Helvetica,sans-Serif" font-size="10.00">+ imaginary()</text>
<text text-anchor="start" x="158.301" y="-151" font-family="Helvetica,sans-Serif" font-size="10.00">+ imaginary()</text>
<text text-anchor="start" x="158.301" y="-141" font-family="Helvetica,sans-Serif" font-size="10.00">+ operator!=()</text>
<text text-anchor="start" x="158.301" y="-131" font-family="Helvetica,sans-Serif" font-size="10.00">+ operator+()</text>
<text text-anchor="start" x="158.301" y="-121" font-family="Helvetica,sans-Serif" font-size="10.00">+ operator+=()</text>
<text text-anchor="start" x="158.301" y="-111" font-family="Helvetica,sans-Serif" font-size="10.00">+ operator&#45;()</text>
<text text-anchor="start" x="158.301" y="-101" font-family="Helvetica,sans-Serif" font-size="10.00">and 4 more...</text>
</a>
</g>
</g>
<!-- Node1&#45;&gt;Node8 -->
<g id="edge7" class="edge"><title>Node1&#45;&gt;Node8</title>
<path fill="none" stroke="midnightblue" d="M120.073,-401.038C110.138,-357.848 99.6383,-284.201 125,-228 126.761,-224.098 137.142,-214.187 150.08,-202.8"/>
<polygon fill="none" stroke="midnightblue" points="116.684,-401.914 122.433,-410.813 123.488,-400.271 116.684,-401.914"/>
</g>
<!-- Node10 -->
<g id="node10" class="node"><title>Node10</title>
<g id="a_node10"><a xlink:href="classdsp_1_1_complex.html" target="_top" xlink:title="Complex Class. ">
<polygon fill="none" stroke="black" points="149.935,-257 149.935,-371 250.065,-371 250.065,-257 149.935,-257"/>
<text text-anchor="middle" x="200" y="-359" font-family="Helvetica,sans-Serif" font-size="10.00">dsp::Complex&lt; T &gt;</text>
<polyline fill="none" stroke="black" points="149.935,-353 250.065,-353 "/>
<text text-anchor="middle" x="200" y="-341" font-family="Helvetica,sans-Serif" font-size="10.00"> </text>
<polyline fill="none" stroke="black" points="149.935,-335 250.065,-335 "/>
<text text-anchor="start" x="157.935" y="-323" font-family="Helvetica,sans-Serif" font-size="10.00">+ imaginary()</text>
<text text-anchor="start" x="157.935" y="-313" font-family="Helvetica,sans-Serif" font-size="10.00">+ imaginary()</text>
<text text-anchor="start" x="157.935" y="-303" font-family="Helvetica,sans-Serif" font-size="10.00">+ operator!=()</text>
<text text-anchor="start" x="157.935" y="-293" font-family="Helvetica,sans-Serif" font-size="10.00">+ operator+()</text>
<text text-anchor="start" x="157.935" y="-283" font-family="Helvetica,sans-Serif" font-size="10.00">+ operator+=()</text>
<text text-anchor="start" x="157.935" y="-273" font-family="Helvetica,sans-Serif" font-size="10.00">+ operator&#45;()</text>
<text text-anchor="start" x="157.935" y="-263" font-family="Helvetica,sans-Serif" font-size="10.00">and 4 more...</text>
</a>
</g>
</g>
<!-- Node1&#45;&gt;Node10 -->
<g id="edge9" class="edge"><title>Node1&#45;&gt;Node10</title>
<path fill="none" stroke="midnightblue" d="M150.095,-401.978C155.609,-392.366 161.731,-381.697 167.744,-371.217"/>
<polygon fill="none" stroke="midnightblue" points="146.958,-400.412 145.017,-410.828 153.029,-403.896 146.958,-400.412"/>
</g>
<!-- Node2 -->
<g id="node2" class="node"><title>Node2</title>
<g id="a_node2"><a xlink:href="classapi_1_1_info_object.html" target="_top" xlink:title="Information Object. ">
<polygon fill="none" stroke="black" points="89.7588,-505 89.7588,-559 170.241,-559 170.241,-505 89.7588,-505"/>
<text text-anchor="middle" x="130" y="-547" font-family="Helvetica,sans-Serif" font-size="10.00">api::InfoObject</text>
<polyline fill="none" stroke="black" points="89.7588,-541 170.241,-541 "/>
<text text-anchor="middle" x="130" y="-529" font-family="Helvetica,sans-Serif" font-size="10.00"> </text>
<polyline fill="none" stroke="black" points="89.7588,-523 170.241,-523 "/>
<text text-anchor="middle" x="130" y="-511" font-family="Helvetica,sans-Serif" font-size="10.00"> </text>
</a>
</g>
</g>
<!-- Node2&#45;&gt;Node1 -->
<g id="edge1" class="edge"><title>Node2&#45;&gt;Node1</title>
<path fill="none" stroke="midnightblue" d="M130,-494.872C130,-484.964 130,-474.415 130,-465.183"/>
<polygon fill="none" stroke="midnightblue" points="126.5,-494.883 130,-504.883 133.5,-494.883 126.5,-494.883"/>
</g>
<!-- Node3 -->
<g id="node3" class="node"><title>Node3</title>
<g id="a_node3"><a xlink:href="classapi_1_1_api_object.html" target="_top" xlink:title="Application Programming Interface Object. ">
<polygon fill="none" stroke="black" points="88.7896,-599 88.7896,-653 171.21,-653 171.21,-599 88.7896,-599"/>
<text text-anchor="middle" x="130" y="-641" font-family="Helvetica,sans-Serif" font-size="10.00">api::ApiObject</text>
<polyline fill="none" stroke="black" points="88.7896,-635 171.21,-635 "/>
<text text-anchor="middle" x="130" y="-623" font-family="Helvetica,sans-Serif" font-size="10.00"> </text>
<polyline fill="none" stroke="black" points="88.7896,-617 171.21,-617 "/>
<text text-anchor="start" x="96.7896" y="-605" font-family="Helvetica,sans-Serif" font-size="10.00">+ api_version()</text>
</a>
</g>
</g>
<!-- Node3&#45;&gt;Node2 -->
<g id="edge2" class="edge"><title>Node3&#45;&gt;Node2</title>
<path fill="none" stroke="midnightblue" d="M130,-588.872C130,-578.964 130,-568.415 130,-559.183"/>
<polygon fill="none" stroke="midnightblue" points="126.5,-588.883 130,-598.883 133.5,-588.883 126.5,-588.883"/>
</g>
<!-- Node5 -->
<g id="node5" class="node"><title>Node5</title>
<g id="a_node5"><a xlink:href="classdsp_1_1_complex_f32.html" target="_top" xlink:title="Complex F32 Value. ">
<polygon fill="none" stroke="black" points="18.8154,-1 18.8154,-55 113.185,-55 113.185,-1 18.8154,-1"/>
<text text-anchor="middle" x="66" y="-43" font-family="Helvetica,sans-Serif" font-size="10.00">dsp::ComplexF32</text>
<polyline fill="none" stroke="black" points="18.8154,-37 113.185,-37 "/>
<text text-anchor="middle" x="66" y="-25" font-family="Helvetica,sans-Serif" font-size="10.00"> </text>
<polyline fill="none" stroke="black" points="18.8154,-19 113.185,-19 "/>
<text text-anchor="start" x="26.8154" y="-7" font-family="Helvetica,sans-Serif" font-size="10.00">+ ComplexF32()</text>
</a>
</g>
</g>
<!-- Node4&#45;&gt;Node5 -->
<g id="edge4" class="edge"><title>Node4&#45;&gt;Node5</title>
<path fill="none" stroke="midnightblue" d="M66,-84.8753C66,-74.3387 66,-64.0075 66,-55.151"/>
<polygon fill="none" stroke="midnightblue" points="62.5001,-84.9989 66,-94.9989 69.5001,-84.999 62.5001,-84.9989"/>
</g>
<!-- Node7 -->
<g id="node7" class="node"><title>Node7</title>
<g id="a_node7"><a xlink:href="classdsp_1_1_complex_q15.html" target="_top" xlink:title="Complex Q15 Value. ">
<polygon fill="none" stroke="black" points="298.98,-1 298.98,-55 395.02,-55 395.02,-1 298.98,-1"/>
<text text-anchor="middle" x="347" y="-43" font-family="Helvetica,sans-Serif" font-size="10.00">dsp::ComplexQ15</text>
<polyline fill="none" stroke="black" points="298.98,-37 395.02,-37 "/>
<text text-anchor="middle" x="347" y="-25" font-family="Helvetica,sans-Serif" font-size="10.00"> </text>
<polyline fill="none" stroke="black" points="298.98,-19 395.02,-19 "/>
<text text-anchor="start" x="306.98" y="-7" font-family="Helvetica,sans-Serif" font-size="10.00">+ ComplexQ15()</text>
</a>
</g>
</g>
<!-- Node6&#45;&gt;Node7 -->
<g id="edge6" class="edge"><title>Node6&#45;&gt;Node7</title>
<path fill="none" stroke="midnightblue" d="M347,-84.8753C347,-74.3387 347,-64.0075 347,-55.151"/>
<polygon fill="none" stroke="midnightblue" points="343.5,-84.9989 347,-94.9989 350.5,-84.999 343.5,-84.9989"/>
</g>
<!-- Node9 -->
<g id="node9" class="node"><title>Node9</title>
<g id="a_node9"><a xlink:href="classdsp_1_1_complex_q31.html" target="_top" xlink:title="Complex Q31 Value. ">
<polygon fill="none" stroke="black" points="161.98,-1 161.98,-55 258.02,-55 258.02,-1 161.98,-1"/>
<text text-anchor="middle" x="210" y="-43" font-family="Helvetica,sans-Serif" font-size="10.00">dsp::ComplexQ31</text>
<polyline fill="none" stroke="black" points="161.98,-37 258.02,-37 "/>
<text text-anchor="middle" x="210" y="-25" font-family="Helvetica,sans-Serif" font-size="10.00"> </text>
<polyline fill="none" stroke="black" points="161.98,-19 258.02,-19 "/>
<text text-anchor="start" x="169.98" y="-7" font-family="Helvetica,sans-Serif" font-size="10.00">+ ComplexQ31()</text>
</a>
</g>
</g>
<!-- Node8&#45;&gt;Node9 -->
<g id="edge8" class="edge"><title>Node8&#45;&gt;Node9</title>
<path fill="none" stroke="midnightblue" d="M210,-84.8753C210,-74.3387 210,-64.0075 210,-55.151"/>
<polygon fill="none" stroke="midnightblue" points="206.5,-84.9989 210,-94.9989 213.5,-84.999 206.5,-84.9989"/>
</g>
<!-- Node10&#45;&gt;Node4 -->
<g id="edge11" class="edge"><title>Node10&#45;&gt;Node4</title>
<path fill="none" stroke="orange" d="M146.029,-248.557C135.106,-235.515 123.704,-221.9 113.042,-209.17"/>
<polygon fill="orange" stroke="orange" points="143.653,-251.171 152.757,-256.59 149.019,-246.676 143.653,-251.171"/>
<text text-anchor="middle" x="166.189" y="-230" font-family="Helvetica,sans-Serif" font-size="10.00"> &lt; float32_t &gt;</text>
</g>
<!-- Node10&#45;&gt;Node6 -->
<g id="edge12" class="edge"><title>Node10&#45;&gt;Node6</title>
<path fill="none" stroke="orange" d="M257.13,-250.817C269.79,-237.039 283.131,-222.517 295.548,-209.002"/>
<polygon fill="orange" stroke="orange" points="254.366,-248.653 250.178,-258.385 259.521,-253.389 254.366,-248.653"/>
<text text-anchor="middle" x="299.52" y="-230" font-family="Helvetica,sans-Serif" font-size="10.00"> &lt; q15_t &gt;</text>
</g>
<!-- Node10&#45;&gt;Node8 -->
<g id="edge10" class="edge"><title>Node10&#45;&gt;Node8</title>
<path fill="none" stroke="orange" d="M204.166,-246.337C204.939,-233.977 205.739,-221.179 206.489,-209.17"/>
<polygon fill="orange" stroke="orange" points="200.656,-246.391 203.526,-256.59 207.643,-246.828 200.656,-246.391"/>
<text text-anchor="middle" x="227.52" y="-230" font-family="Helvetica,sans-Serif" font-size="10.00"> &lt; q31_t &gt;</text>
</g>
</g>
</svg>
        <g id="navigator" transform="translate(0 0)" fill="#404254">
                <rect fill="#f2f5e9" fill-opacity="0.5" stroke="#606060" stroke-width=".5" x="0" y="0" width="60" height="60"/>
                <use id="zoomplus" xlink:href="#zoomPlus" x="17" y="9" onmousedown="handleZoom(evt,'in')"/>
                <use id="zoomminus" xlink:href="#zoomMin" x="42" y="9" onmousedown="handleZoom(evt,'out')"/>
                <use id="reset" xlink:href="#resetDef" x="30" y="36" onmousedown="handleReset()"/>
                <g id="arrowUp" xlink:href="#dirArrow" transform="translate(30 24)" onmousedown="handlePan(0,-1)">
                  <use xlink:href="#rim" fill="#404040">
                        <set attributeName="fill" to="#808080" begin="arrowUp.mouseover" end="arrowUp.mouseout"/>
                  </use>
                  <path fill="none" stroke="white" stroke-width="1.5" d="M0,-3.0v7 M-2.5,-0.5L0,-3.0L2.5,-0.5"/>
                </g>
                <g id="arrowRight" xlink:href="#dirArrow" transform="rotate(90) translate(36 -43)" onmousedown="handlePan(1,0)">
                  <use xlink:href="#rim" fill="#404040">
                        <set attributeName="fill" to="#808080" begin="arrowRight.mouseover" end="arrowRight.mouseout"/>
                  </use>
                  <path fill="none" stroke="white" stroke-width="1.5" d="M0,-3.0v7 M-2.5,-0.5L0,-3.0L2.5,-0.5"/>
                </g>
                <g id="arrowDown" xlink:href="#dirArrow" transform="rotate(180) translate(-30 -48)" onmousedown="handlePan(0,1)">
                  <use xlink:href="#rim" fill="#404040">
                        <set attributeName="fill" to="#808080" begin="arrowDown.mouseover" end="arrowDown.mouseout"/>
                  </use>
                  <path fill="none" stroke="white" stroke-width="1.5" d="M0,-3.0v7 M-2.5,-0.5L0,-3.0L2.5,-0.5"/>
                </g>
                <g id="arrowLeft" xlink:href="#dirArrow" transform="rotate(270) translate(-36 17)" onmousedown="handlePan(-1,0)">
                  <use xlink:href="#rim" fill="#404040">
                        <set attributeName="fill" to="#808080" begin="arrowLeft.mouseover" end="arrowLeft.mouseout"/>
                  </use>
                  <path fill="none" stroke="white" stroke-width="1.5" d="M0,-3.0v7 M-2.5,-0.5L0,-3.0L2.5,-0.5"/>
                </g>
        </g>
        <svg viewBox="0 0 15 15" width="100%" height="30px" preserveAspectRatio="xMaxYMin meet">
         <g id="arrow_out" transform="scale(0.3 0.3)">
          <a xlink:href="classapi_1_1_dsp_info_object__inherit__graph_org.svg" target="_base">
           <rect id="button" ry="5" rx="5" y="6" x="6" height="38" width="38"
                fill="#f2f5e9" fill-opacity="0.5" stroke="#606060" stroke-width="1.0"/>
           <path id="arrow"
             d="M 11.500037,31.436501 C 11.940474,20.09759 22.043105,11.32322 32.158766,21.979434 L 37.068811,17.246167 C 37.068811,17.246167 37.088388,32 37.088388,32 L 22.160133,31.978069 C 22.160133,31.978069 26.997745,27.140456 26.997745,27.140456 C 18.528582,18.264221 13.291696,25.230495 11.500037,31.436501 z"
             style="fill:#404040;"/>
          </a>
         </g>
        </svg>
</svg>
