<?xml version="1.0" encoding="UTF-8" standalone="no"?>
<!DOCTYPE svg PUBLIC "-//W3C//DTD SVG 1.1//EN"
 "http://www.w3.org/Graphics/SVG/1.1/DTD/svg11.dtd">
<!-- Generated by graphviz version 2.36.0 (20140111.2315)
 -->
<!-- Title: var::NameString Pages: 1 -->
<svg width="126pt" height="734pt"
 viewBox="0.00 0.00 126.00 734.00" xmlns="http://www.w3.org/2000/svg" xmlns:xlink="http://www.w3.org/1999/xlink">
<g id="graph0" class="graph" transform="scale(1 1) rotate(0) translate(4 730)">
<title>var::NameString</title>
<!-- Node1 -->
<g id="node1" class="node"><title>Node1</title>
<polygon fill="#bfbfbf" stroke="black" points="14.877,-1 14.877,-55 103.123,-55 103.123,-1 14.877,-1"/>
<text text-anchor="middle" x="59" y="-43" font-family="Helvetica,sans-Serif" font-size="10.00">var::NameString</text>
<polyline fill="none" stroke="black" points="14.877,-37 103.123,-37 "/>
<text text-anchor="middle" x="59" y="-25" font-family="Helvetica,sans-Serif" font-size="10.00"> </text>
<polyline fill="none" stroke="black" points="14.877,-19 103.123,-19 "/>
<text text-anchor="start" x="22.877" y="-7" font-family="Helvetica,sans-Serif" font-size="10.00">+ NameString()</text>
</g>
<!-- Node2 -->
<g id="node2" class="node"><title>Node2</title>
<g id="a_node2"><a xlink:href="classvar_1_1_string.html" target="_top" xlink:title="String class. ">
<polygon fill="none" stroke="black" points="18.7588,-93 18.7588,-207 99.2412,-207 99.2412,-93 18.7588,-93"/>
<text text-anchor="middle" x="59" y="-195" font-family="Helvetica,sans-Serif" font-size="10.00">var::String</text>
<polyline fill="none" stroke="black" points="18.7588,-189 99.2412,-189 "/>
<text text-anchor="middle" x="59" y="-177" font-family="Helvetica,sans-Serif" font-size="10.00"> </text>
<polyline fill="none" stroke="black" points="18.7588,-171 99.2412,-171 "/>
<text text-anchor="start" x="26.7588" y="-159" font-family="Helvetica,sans-Serif" font-size="10.00">+ String()</text>
<text text-anchor="start" x="26.7588" y="-149" font-family="Helvetica,sans-Serif" font-size="10.00">+ String()</text>
<text text-anchor="start" x="26.7588" y="-139" font-family="Helvetica,sans-Serif" font-size="10.00">+ String()</text>
<text text-anchor="start" x="26.7588" y="-129" font-family="Helvetica,sans-Serif" font-size="10.00">+ String()</text>
<text text-anchor="start" x="26.7588" y="-119" font-family="Helvetica,sans-Serif" font-size="10.00">+ String()</text>
<text text-anchor="start" x="26.7588" y="-109" font-family="Helvetica,sans-Serif" font-size="10.00">+ String()</text>
<text text-anchor="start" x="26.7588" y="-99" font-family="Helvetica,sans-Serif" font-size="10.00">and 52 more...</text>
</a>
</g>
</g>
<!-- Node2&#45;&gt;Node1 -->
<g id="edge1" class="edge"><title>Node2&#45;&gt;Node1</title>
<path fill="none" stroke="midnightblue" d="M59,-82.6683C59,-72.92 59,-63.3972 59,-55.1446"/>
<polygon fill="none" stroke="midnightblue" points="55.5001,-82.8648 59,-92.8648 62.5001,-82.8648 55.5001,-82.8648"/>
</g>
<!-- Node3 -->
<g id="node3" class="node"><title>Node3</title>
<g id="a_node3"><a xlink:href="classvar_1_1_data.html" target="_top" xlink:title="Data storage class. ">
<polygon fill="none" stroke="black" points="11.4102,-245 11.4102,-369 106.59,-369 106.59,-245 11.4102,-245"/>
<text text-anchor="middle" x="59" y="-357" font-family="Helvetica,sans-Serif" font-size="10.00">var::Data</text>
<polyline fill="none" stroke="black" points="11.4102,-351 106.59,-351 "/>
<text text-anchor="middle" x="59" y="-339" font-family="Helvetica,sans-Serif" font-size="10.00"> </text>
<polyline fill="none" stroke="black" points="11.4102,-333 106.59,-333 "/>
<text text-anchor="start" x="19.4102" y="-321" font-family="Helvetica,sans-Serif" font-size="10.00">+ Data()</text>
<text text-anchor="start" x="19.4102" y="-311" font-family="Helvetica,sans-Serif" font-size="10.00">+ Data()</text>
<text text-anchor="start" x="19.4102" y="-301" font-family="Helvetica,sans-Serif" font-size="10.00">+ Data()</text>
<text text-anchor="start" x="19.4102" y="-291" font-family="Helvetica,sans-Serif" font-size="10.00">+ Data()</text>
<text text-anchor="start" x="19.4102" y="-281" font-family="Helvetica,sans-Serif" font-size="10.00">+ ~Data()</text>
<text text-anchor="start" x="19.4102" y="-271" font-family="Helvetica,sans-Serif" font-size="10.00">+ alloc()</text>
<text text-anchor="start" x="19.4102" y="-261" font-family="Helvetica,sans-Serif" font-size="10.00">and 17 more...</text>
<text text-anchor="start" x="19.4102" y="-251" font-family="Helvetica,sans-Serif" font-size="10.00">+ minimum_size()</text>
</a>
</g>
</g>
<!-- Node3&#45;&gt;Node2 -->
<g id="edge2" class="edge"><title>Node3&#45;&gt;Node2</title>
<path fill="none" stroke="midnightblue" d="M59,-234.503C59,-225.37 59,-216.126 59,-207.28"/>
<polygon fill="none" stroke="midnightblue" points="55.5001,-234.74 59,-244.74 62.5001,-234.74 55.5001,-234.74"/>
</g>
<!-- Node4 -->
<g id="node4" class="node"><title>Node4</title>
<g id="a_node4"><a xlink:href="classapi_1_1_var_work_object.html" target="_top" xlink:title="Format Work Object Class. ">
<polygon fill="none" stroke="black" points="8.10938,-407 8.10938,-461 109.891,-461 109.891,-407 8.10938,-407"/>
<text text-anchor="middle" x="59" y="-449" font-family="Helvetica,sans-Serif" font-size="10.00">api::VarWorkObject</text>
<polyline fill="none" stroke="black" points="8.10938,-443 109.891,-443 "/>
<text text-anchor="middle" x="59" y="-431" font-family="Helvetica,sans-Serif" font-size="10.00"> </text>
<polyline fill="none" stroke="black" points="8.10938,-425 109.891,-425 "/>
<text text-anchor="middle" x="59" y="-413" font-family="Helvetica,sans-Serif" font-size="10.00"> </text>
</a>
</g>
</g>
<!-- Node4&#45;&gt;Node3 -->
<g id="edge3" class="edge"><title>Node4&#45;&gt;Node3</title>
<path fill="none" stroke="midnightblue" d="M59,-396.715C59,-388.071 59,-378.61 59,-369.188"/>
<polygon fill="none" stroke="midnightblue" points="55.5001,-396.796 59,-406.796 62.5001,-396.796 55.5001,-396.796"/>
</g>
<!-- Node5 -->
<g id="node5" class="node"><title>Node5</title>
<g id="a_node5"><a xlink:href="classapi_1_1_work_object.html" target="_top" xlink:title="WorkObject Class. ">
<polygon fill="none" stroke="black" points="-0.547852,-499 -0.547852,-633 118.548,-633 118.548,-499 -0.547852,-499"/>
<text text-anchor="middle" x="59" y="-621" font-family="Helvetica,sans-Serif" font-size="10.00">api::WorkObject</text>
<polyline fill="none" stroke="black" points="-0.547852,-615 118.548,-615 "/>
<text text-anchor="middle" x="59" y="-603" font-family="Helvetica,sans-Serif" font-size="10.00"> </text>
<polyline fill="none" stroke="black" points="-0.547852,-597 118.548,-597 "/>
<text text-anchor="start" x="7.45215" y="-585" font-family="Helvetica,sans-Serif" font-size="10.00">+ WorkObject()</text>
<text text-anchor="start" x="7.45215" y="-575" font-family="Helvetica,sans-Serif" font-size="10.00">+ clear_error_number()</text>
<text text-anchor="start" x="7.45215" y="-565" font-family="Helvetica,sans-Serif" font-size="10.00">+ error_number()</text>
<text text-anchor="start" x="7.45215" y="-555" font-family="Helvetica,sans-Serif" font-size="10.00">+ exit_fatal()</text>
<text text-anchor="start" x="7.45215" y="-545" font-family="Helvetica,sans-Serif" font-size="10.00"># set_error_number()</text>
<text text-anchor="start" x="7.45215" y="-535" font-family="Helvetica,sans-Serif" font-size="10.00"># set_error_number_if</text>
<text text-anchor="start" x="7.45215" y="-525" font-family="Helvetica,sans-Serif" font-size="10.00">_error()</text>
<text text-anchor="start" x="7.45215" y="-515" font-family="Helvetica,sans-Serif" font-size="10.00"># set_error_number_to</text>
<text text-anchor="start" x="7.45215" y="-505" font-family="Helvetica,sans-Serif" font-size="10.00">_errno()</text>
</a>
</g>
</g>
<!-- Node5&#45;&gt;Node4 -->
<g id="edge4" class="edge"><title>Node5&#45;&gt;Node4</title>
<path fill="none" stroke="midnightblue" d="M59,-488.838C59,-478.903 59,-469.326 59,-461.074"/>
<polygon fill="none" stroke="midnightblue" points="55.5001,-488.857 59,-498.857 62.5001,-488.858 55.5001,-488.857"/>
</g>
<!-- Node6 -->
<g id="node6" class="node"><title>Node6</title>
<g id="a_node6"><a xlink:href="classapi_1_1_api_object.html" target="_top" xlink:title="API Object Class. ">
<polygon fill="none" stroke="black" points="17.7896,-671 17.7896,-725 100.21,-725 100.21,-671 17.7896,-671"/>
<text text-anchor="middle" x="59" y="-713" font-family="Helvetica,sans-Serif" font-size="10.00">api::ApiObject</text>
<polyline fill="none" stroke="black" points="17.7896,-707 100.21,-707 "/>
<text text-anchor="middle" x="59" y="-695" font-family="Helvetica,sans-Serif" font-size="10.00"> </text>
<polyline fill="none" stroke="black" points="17.7896,-689 100.21,-689 "/>
<text text-anchor="start" x="25.7896" y="-677" font-family="Helvetica,sans-Serif" font-size="10.00">+ api_version()</text>
</a>
</g>
</g>
<!-- Node6&#45;&gt;Node5 -->
<g id="edge5" class="edge"><title>Node6&#45;&gt;Node5</title>
<path fill="none" stroke="midnightblue" d="M59,-660.644C59,-652.02 59,-642.555 59,-633.059"/>
<polygon fill="none" stroke="midnightblue" points="55.5001,-660.693 59,-670.693 62.5001,-660.693 55.5001,-660.693"/>
</g>
</g>
</svg>
