<?xml version="1.0" encoding="UTF-8" standalone="no"?>
<!DOCTYPE svg PUBLIC "-//W3C//DTD SVG 1.1//EN"
 "http://www.w3.org/Graphics/SVG/1.1/DTD/svg11.dtd">
<!-- Generated by graphviz version 2.36.0 (20140111.2315)
 -->
<!-- Title: dsp::SignalF32 Pages: 1 -->
<svg width="270pt" height="996pt"
 viewBox="0.00 0.00 270.00 996.00" xmlns="http://www.w3.org/2000/svg" xmlns:xlink="http://www.w3.org/1999/xlink">
<g id="graph0" class="graph" transform="scale(1 1) rotate(0) translate(4 992)">
<title>dsp::SignalF32</title>
<!-- Node1 -->
<g id="node1" class="node"><title>Node1</title>
<polygon fill="#bfbfbf" stroke="black" points="84.6455,-1 84.6455,-115 167.354,-115 167.354,-1 84.6455,-1"/>
<text text-anchor="middle" x="126" y="-103" font-family="Helvetica,sans-Serif" font-size="10.00">dsp::SignalF32</text>
<polyline fill="none" stroke="black" points="84.6455,-97 167.354,-97 "/>
<text text-anchor="middle" x="126" y="-85" font-family="Helvetica,sans-Serif" font-size="10.00"> </text>
<polyline fill="none" stroke="black" points="84.6455,-79 167.354,-79 "/>
<text text-anchor="start" x="92.6455" y="-67" font-family="Helvetica,sans-Serif" font-size="10.00">+ SignalF32()</text>
<text text-anchor="start" x="92.6455" y="-57" font-family="Helvetica,sans-Serif" font-size="10.00">+ SignalF32()</text>
<text text-anchor="start" x="92.6455" y="-47" font-family="Helvetica,sans-Serif" font-size="10.00">+ SignalF32()</text>
<text text-anchor="start" x="92.6455" y="-37" font-family="Helvetica,sans-Serif" font-size="10.00">+ abs()</text>
<text text-anchor="start" x="92.6455" y="-27" font-family="Helvetica,sans-Serif" font-size="10.00">+ abs()</text>
<text text-anchor="start" x="92.6455" y="-17" font-family="Helvetica,sans-Serif" font-size="10.00">+ add()</text>
<text text-anchor="start" x="92.6455" y="-7" font-family="Helvetica,sans-Serif" font-size="10.00">and 31 more...</text>
</g>
<!-- Node2 -->
<g id="node2" class="node"><title>Node2</title>
<g id="a_node2"><a xlink:href="classdsp_1_1_signal_data.html" target="_top" xlink:title="Signal Data Template. ">
<polygon fill="none" stroke="black" points="84.9238,-153 84.9238,-267 167.076,-267 167.076,-153 84.9238,-153"/>
<text text-anchor="middle" x="126" y="-255" font-family="Helvetica,sans-Serif" font-size="10.00">SignalDataF32</text>
<polyline fill="none" stroke="black" points="84.9238,-249 167.076,-249 "/>
<text text-anchor="middle" x="126" y="-237" font-family="Helvetica,sans-Serif" font-size="10.00"> </text>
<polyline fill="none" stroke="black" points="84.9238,-231 167.076,-231 "/>
<text text-anchor="start" x="92.9238" y="-219" font-family="Helvetica,sans-Serif" font-size="10.00">+ SignalData()</text>
<text text-anchor="start" x="92.9238" y="-209" font-family="Helvetica,sans-Serif" font-size="10.00">+ SignalData()</text>
<text text-anchor="start" x="92.9238" y="-199" font-family="Helvetica,sans-Serif" font-size="10.00">+ abs()</text>
<text text-anchor="start" x="92.9238" y="-189" font-family="Helvetica,sans-Serif" font-size="10.00">+ abs()</text>
<text text-anchor="start" x="92.9238" y="-179" font-family="Helvetica,sans-Serif" font-size="10.00">+ add()</text>
<text text-anchor="start" x="92.9238" y="-169" font-family="Helvetica,sans-Serif" font-size="10.00">+ add()</text>
<text text-anchor="start" x="92.9238" y="-159" font-family="Helvetica,sans-Serif" font-size="10.00">and 49 more...</text>
</a>
</g>
</g>
<!-- Node2&#45;&gt;Node1 -->
<g id="edge1" class="edge"><title>Node2&#45;&gt;Node1</title>
<path fill="none" stroke="midnightblue" d="M126,-142.495C126,-133.349 126,-124.032 126,-115.098"/>
<polygon fill="none" stroke="midnightblue" points="122.5,-142.719 126,-152.719 129.5,-142.719 122.5,-142.719"/>
</g>
<!-- Node3 -->
<g id="node3" class="node"><title>Node3</title>
<g id="a_node3"><a xlink:href="classvar_1_1_vector.html" target="_top" xlink:title="Vector Class. ">
<polygon fill="none" stroke="black" points="38.6021,-305 38.6021,-429 125.398,-429 125.398,-305 38.6021,-305"/>
<text text-anchor="middle" x="82" y="-417" font-family="Helvetica,sans-Serif" font-size="10.00">var::Vector&lt; T &gt;</text>
<polyline fill="none" stroke="black" points="38.6021,-411 125.398,-411 "/>
<text text-anchor="middle" x="82" y="-399" font-family="Helvetica,sans-Serif" font-size="10.00"> </text>
<polyline fill="none" stroke="black" points="38.6021,-393 125.398,-393 "/>
<text text-anchor="start" x="46.6021" y="-381" font-family="Helvetica,sans-Serif" font-size="10.00">+ Vector()</text>
<text text-anchor="start" x="46.6021" y="-371" font-family="Helvetica,sans-Serif" font-size="10.00">+ Vector()</text>
<text text-anchor="start" x="46.6021" y="-361" font-family="Helvetica,sans-Serif" font-size="10.00">+ at()</text>
<text text-anchor="start" x="46.6021" y="-351" font-family="Helvetica,sans-Serif" font-size="10.00">+ at()</text>
<text text-anchor="start" x="46.6021" y="-341" font-family="Helvetica,sans-Serif" font-size="10.00">+ capacity()</text>
<text text-anchor="start" x="46.6021" y="-331" font-family="Helvetica,sans-Serif" font-size="10.00">+ clear()</text>
<text text-anchor="start" x="46.6021" y="-321" font-family="Helvetica,sans-Serif" font-size="10.00">and 13 more...</text>
<text text-anchor="start" x="46.6021" y="-311" font-family="Helvetica,sans-Serif" font-size="10.00"># compare()</text>
</a>
</g>
</g>
<!-- Node3&#45;&gt;Node2 -->
<g id="edge2" class="edge"><title>Node3&#45;&gt;Node2</title>
<path fill="none" stroke="midnightblue" d="M102.129,-295.092C104.775,-285.768 107.459,-276.316 110.024,-267.28"/>
<polygon fill="none" stroke="midnightblue" points="98.7539,-294.164 99.39,-304.74 105.488,-296.076 98.7539,-294.164"/>
</g>
<!-- Node4 -->
<g id="node4" class="node"><title>Node4</title>
<g id="a_node4"><a xlink:href="classvar_1_1_data.html" target="_top" xlink:title="Data storage class. ">
<polygon fill="none" stroke="black" points="-0.589844,-472 -0.589844,-616 94.5898,-616 94.5898,-472 -0.589844,-472"/>
<text text-anchor="middle" x="47" y="-604" font-family="Helvetica,sans-Serif" font-size="10.00">var::Data</text>
<polyline fill="none" stroke="black" points="-0.589844,-598 94.5898,-598 "/>
<text text-anchor="middle" x="47" y="-586" font-family="Helvetica,sans-Serif" font-size="10.00"> </text>
<polyline fill="none" stroke="black" points="-0.589844,-580 94.5898,-580 "/>
<text text-anchor="start" x="7.41016" y="-568" font-family="Helvetica,sans-Serif" font-size="10.00">+ Data()</text>
<text text-anchor="start" x="7.41016" y="-558" font-family="Helvetica,sans-Serif" font-size="10.00">+ Data()</text>
<text text-anchor="start" x="7.41016" y="-548" font-family="Helvetica,sans-Serif" font-size="10.00">+ Data()</text>
<text text-anchor="start" x="7.41016" y="-538" font-family="Helvetica,sans-Serif" font-size="10.00">+ Data()</text>
<text text-anchor="start" x="7.41016" y="-528" font-family="Helvetica,sans-Serif" font-size="10.00">+ ~Data()</text>
<text text-anchor="start" x="7.41016" y="-518" font-family="Helvetica,sans-Serif" font-size="10.00">+ alloc()</text>
<text text-anchor="start" x="7.41016" y="-508" font-family="Helvetica,sans-Serif" font-size="10.00">and 22 more...</text>
<text text-anchor="start" x="7.41016" y="-498" font-family="Helvetica,sans-Serif" font-size="10.00">+ block_size()</text>
<text text-anchor="start" x="7.41016" y="-488" font-family="Helvetica,sans-Serif" font-size="10.00">+ minimum_size()</text>
<text text-anchor="start" x="7.41016" y="-478" font-family="Helvetica,sans-Serif" font-size="10.00"># copy()</text>
</a>
</g>
</g>
<!-- Node4&#45;&gt;Node3 -->
<g id="edge3" class="edge"><title>Node4&#45;&gt;Node3</title>
<path fill="none" stroke="midnightblue" d="M63.2475,-461.763C65.4504,-450.748 67.68,-439.6 69.7956,-429.022"/>
<polygon fill="none" stroke="midnightblue" points="59.765,-461.329 61.2358,-471.821 66.6291,-462.701 59.765,-461.329"/>
</g>
<!-- Node5 -->
<g id="node5" class="node"><title>Node5</title>
<g id="a_node5"><a xlink:href="classapi_1_1_var_work_object.html" target="_top" xlink:title="Var Work Object. ">
<polygon fill="none" stroke="black" points="11.1094,-659 11.1094,-713 112.891,-713 112.891,-659 11.1094,-659"/>
<text text-anchor="middle" x="62" y="-701" font-family="Helvetica,sans-Serif" font-size="10.00">api::VarWorkObject</text>
<polyline fill="none" stroke="black" points="11.1094,-695 112.891,-695 "/>
<text text-anchor="middle" x="62" y="-683" font-family="Helvetica,sans-Serif" font-size="10.00"> </text>
<polyline fill="none" stroke="black" points="11.1094,-677 112.891,-677 "/>
<text text-anchor="middle" x="62" y="-665" font-family="Helvetica,sans-Serif" font-size="10.00"> </text>
</a>
</g>
</g>
<!-- Node5&#45;&gt;Node4 -->
<g id="edge4" class="edge"><title>Node5&#45;&gt;Node4</title>
<path fill="none" stroke="midnightblue" d="M58.1388,-648.963C57.0557,-638.853 55.8389,-627.497 54.618,-616.101"/>
<polygon fill="none" stroke="midnightblue" points="54.6683,-649.425 59.2138,-658.995 61.6284,-648.679 54.6683,-649.425"/>
</g>
<!-- Node6 -->
<g id="node6" class="node"><title>Node6</title>
<g id="a_node6"><a xlink:href="classapi_1_1_work_object.html" target="_top" xlink:title="Work Object. ">
<polygon fill="none" stroke="black" points="29.9141,-751 29.9141,-895 172.086,-895 172.086,-751 29.9141,-751"/>
<text text-anchor="middle" x="101" y="-883" font-family="Helvetica,sans-Serif" font-size="10.00">api::WorkObject</text>
<polyline fill="none" stroke="black" points="29.9141,-877 172.086,-877 "/>
<text text-anchor="middle" x="101" y="-865" font-family="Helvetica,sans-Serif" font-size="10.00"> </text>
<polyline fill="none" stroke="black" points="29.9141,-859 172.086,-859 "/>
<text text-anchor="start" x="37.9141" y="-847" font-family="Helvetica,sans-Serif" font-size="10.00">+ WorkObject()</text>
<text text-anchor="start" x="37.9141" y="-837" font-family="Helvetica,sans-Serif" font-size="10.00">+ clear_error_number()</text>
<text text-anchor="start" x="37.9141" y="-827" font-family="Helvetica,sans-Serif" font-size="10.00">+ error_number()</text>
<text text-anchor="start" x="37.9141" y="-817" font-family="Helvetica,sans-Serif" font-size="10.00">+ exit_fatal()</text>
<text text-anchor="start" x="37.9141" y="-807" font-family="Helvetica,sans-Serif" font-size="10.00"># set_error_number()</text>
<text text-anchor="start" x="37.9141" y="-797" font-family="Helvetica,sans-Serif" font-size="10.00"># set_error_number_if</text>
<text text-anchor="start" x="37.9141" y="-787" font-family="Helvetica,sans-Serif" font-size="10.00">_error()</text>
<text text-anchor="start" x="37.9141" y="-777" font-family="Helvetica,sans-Serif" font-size="10.00"># set_error_number_if_null()</text>
<text text-anchor="start" x="37.9141" y="-767" font-family="Helvetica,sans-Serif" font-size="10.00"># set_error_number_to</text>
<text text-anchor="start" x="37.9141" y="-757" font-family="Helvetica,sans-Serif" font-size="10.00">_errno()</text>
</a>
</g>
</g>
<!-- Node6&#45;&gt;Node5 -->
<g id="edge5" class="edge"><title>Node6&#45;&gt;Node5</title>
<path fill="none" stroke="midnightblue" d="M77.664,-741.221C74.7635,-731.181 71.9809,-721.549 69.5868,-713.262"/>
<polygon fill="none" stroke="midnightblue" points="74.3341,-742.306 80.4721,-750.942 81.0591,-740.363 74.3341,-742.306"/>
</g>
<!-- Node8 -->
<g id="node8" class="node"><title>Node8</title>
<g id="a_node8"><a xlink:href="classapi_1_1_dsp_work_object.html" target="_top" xlink:title="DSP Work Object. ">
<polygon fill="none" stroke="black" points="113.018,-467 113.018,-621 262.982,-621 262.982,-467 113.018,-467"/>
<text text-anchor="middle" x="188" y="-609" font-family="Helvetica,sans-Serif" font-size="10.00">api::DspWorkObject</text>
<polyline fill="none" stroke="black" points="113.018,-603 262.982,-603 "/>
<text text-anchor="start" x="121.018" y="-591" font-family="Helvetica,sans-Serif" font-size="10.00"># m_arm_dsp_api_f32</text>
<text text-anchor="start" x="121.018" y="-581" font-family="Helvetica,sans-Serif" font-size="10.00"># m_arm_dsp_api_q15</text>
<text text-anchor="start" x="121.018" y="-571" font-family="Helvetica,sans-Serif" font-size="10.00"># m_arm_dsp_api_q31</text>
<text text-anchor="start" x="121.018" y="-561" font-family="Helvetica,sans-Serif" font-size="10.00"># m_arm_dsp_api_q7</text>
<text text-anchor="start" x="121.018" y="-551" font-family="Helvetica,sans-Serif" font-size="10.00"># m_arm_dsp_conversion_api</text>
<polyline fill="none" stroke="black" points="113.018,-545 262.982,-545 "/>
<text text-anchor="start" x="121.018" y="-533" font-family="Helvetica,sans-Serif" font-size="10.00">+ arm_dsp_api_f32()</text>
<text text-anchor="start" x="121.018" y="-523" font-family="Helvetica,sans-Serif" font-size="10.00">+ arm_dsp_api_q15()</text>
<text text-anchor="start" x="121.018" y="-513" font-family="Helvetica,sans-Serif" font-size="10.00">+ arm_dsp_api_q31()</text>
<text text-anchor="start" x="121.018" y="-503" font-family="Helvetica,sans-Serif" font-size="10.00">+ arm_dsp_api_q7()</text>
<text text-anchor="start" x="121.018" y="-493" font-family="Helvetica,sans-Serif" font-size="10.00">+ arm_dsp_conversion_api()</text>
<text text-anchor="start" x="121.018" y="-483" font-family="Helvetica,sans-Serif" font-size="10.00">+ request_arm_dsp_api()</text>
<text text-anchor="start" x="121.018" y="-473" font-family="Helvetica,sans-Serif" font-size="10.00">and 5 more...</text>
</a>
</g>
</g>
<!-- Node6&#45;&gt;Node8 -->
<g id="edge8" class="edge"><title>Node6&#45;&gt;Node8</title>
<path fill="none" stroke="midnightblue" d="M126.523,-740.737C138.36,-703.05 152.351,-658.502 163.994,-621.433"/>
<polygon fill="none" stroke="midnightblue" points="123.062,-740.076 123.405,-750.666 129.74,-742.174 123.062,-740.076"/>
</g>
<!-- Node7 -->
<g id="node7" class="node"><title>Node7</title>
<g id="a_node7"><a xlink:href="classapi_1_1_api_object.html" target="_top" xlink:title="Application Programming Interface Object. ">
<polygon fill="none" stroke="black" points="59.7896,-933 59.7896,-987 142.21,-987 142.21,-933 59.7896,-933"/>
<text text-anchor="middle" x="101" y="-975" font-family="Helvetica,sans-Serif" font-size="10.00">api::ApiObject</text>
<polyline fill="none" stroke="black" points="59.7896,-969 142.21,-969 "/>
<text text-anchor="middle" x="101" y="-957" font-family="Helvetica,sans-Serif" font-size="10.00"> </text>
<polyline fill="none" stroke="black" points="59.7896,-951 142.21,-951 "/>
<text text-anchor="start" x="67.7896" y="-939" font-family="Helvetica,sans-Serif" font-size="10.00">+ api_version()</text>
</a>
</g>
</g>
<!-- Node7&#45;&gt;Node6 -->
<g id="edge6" class="edge"><title>Node7&#45;&gt;Node6</title>
<path fill="none" stroke="midnightblue" d="M101,-922.925C101,-914.287 101,-904.765 101,-895.145"/>
<polygon fill="none" stroke="midnightblue" points="97.5001,-922.971 101,-932.971 104.5,-922.971 97.5001,-922.971"/>
</g>
<!-- Node8&#45;&gt;Node2 -->
<g id="edge7" class="edge"><title>Node8&#45;&gt;Node2</title>
<path fill="none" stroke="midnightblue" d="M171.874,-456.646C160.709,-396.86 146.17,-319.008 136.483,-267.134"/>
<polygon fill="none" stroke="midnightblue" points="168.5,-457.645 173.776,-466.832 175.381,-456.36 168.5,-457.645"/>
</g>
</g>
</svg>
