<?xml version="1.0" encoding="UTF-8" standalone="no"?>
<!DOCTYPE svg PUBLIC "-//W3C//DTD SVG 1.1//EN"
 "http://www.w3.org/Graphics/SVG/1.1/DTD/svg11.dtd">
<!-- Generated by graphviz version 2.36.0 (20140111.2315)
 -->
<!-- Title: sm::SimpleStateMachine&lt; container_class, return_type, args &gt; Pages: 1 -->
<svg width="150pt" height="530pt"
 viewBox="0.00 0.00 150.00 530.00" xmlns="http://www.w3.org/2000/svg" xmlns:xlink="http://www.w3.org/1999/xlink">
<g id="graph0" class="graph" transform="scale(1 1) rotate(0) translate(4 526)">
<title>sm::SimpleStateMachine&lt; container_class, return_type, args &gt;</title>
<!-- Node1 -->
<g id="node1" class="node"><title>Node1</title>
<polygon fill="#bfbfbf" stroke="black" points="7.69971,-1 7.69971,-155 134.3,-155 134.3,-1 7.69971,-1"/>
<text text-anchor="start" x="15.6997" y="-143" font-family="Helvetica,sans-Serif" font-size="10.00">sm::SimpleStateMachine</text>
<text text-anchor="start" x="15.6997" y="-133" font-family="Helvetica,sans-Serif" font-size="10.00">&lt; container_class, return</text>
<text text-anchor="middle" x="71" y="-123" font-family="Helvetica,sans-Serif" font-size="10.00">_type, args &gt;</text>
<polyline fill="none" stroke="black" points="7.69971,-117 134.3,-117 "/>
<text text-anchor="middle" x="71" y="-105" font-family="Helvetica,sans-Serif" font-size="10.00"> </text>
<polyline fill="none" stroke="black" points="7.69971,-99 134.3,-99 "/>
<text text-anchor="start" x="15.6997" y="-87" font-family="Helvetica,sans-Serif" font-size="10.00">+ SimpleStateMachine()</text>
<text text-anchor="start" x="15.6997" y="-77" font-family="Helvetica,sans-Serif" font-size="10.00">+ count()</text>
<text text-anchor="start" x="15.6997" y="-67" font-family="Helvetica,sans-Serif" font-size="10.00">+ error()</text>
<text text-anchor="start" x="15.6997" y="-57" font-family="Helvetica,sans-Serif" font-size="10.00">+ is_state_valid()</text>
<text text-anchor="start" x="15.6997" y="-47" font-family="Helvetica,sans-Serif" font-size="10.00">+ resize()</text>
<text text-anchor="start" x="15.6997" y="-37" font-family="Helvetica,sans-Serif" font-size="10.00">+ set_state()</text>
<text text-anchor="start" x="15.6997" y="-27" font-family="Helvetica,sans-Serif" font-size="10.00">+ set_state_method()</text>
<text text-anchor="start" x="15.6997" y="-17" font-family="Helvetica,sans-Serif" font-size="10.00">+ state()</text>
<text text-anchor="start" x="15.6997" y="-7" font-family="Helvetica,sans-Serif" font-size="10.00">+ update()</text>
</g>
<!-- Node2 -->
<g id="node2" class="node"><title>Node2</title>
<g id="a_node2"><a xlink:href="classapi_1_1_sm_work_object.html" target="_top" xlink:title="State Machine Work Object Class. ">
<polygon fill="none" stroke="black" points="20.0215,-193 20.0215,-247 121.979,-247 121.979,-193 20.0215,-193"/>
<text text-anchor="middle" x="71" y="-235" font-family="Helvetica,sans-Serif" font-size="10.00">api::SmWorkObject</text>
<polyline fill="none" stroke="black" points="20.0215,-229 121.979,-229 "/>
<text text-anchor="middle" x="71" y="-217" font-family="Helvetica,sans-Serif" font-size="10.00"> </text>
<polyline fill="none" stroke="black" points="20.0215,-211 121.979,-211 "/>
<text text-anchor="middle" x="71" y="-199" font-family="Helvetica,sans-Serif" font-size="10.00"> </text>
</a>
</g>
</g>
<!-- Node2&#45;&gt;Node1 -->
<g id="edge1" class="edge"><title>Node2&#45;&gt;Node1</title>
<path fill="none" stroke="midnightblue" d="M71,-182.981C71,-174.361 71,-164.833 71,-155.147"/>
<polygon fill="none" stroke="midnightblue" points="67.5001,-182.995 71,-192.995 74.5001,-182.995 67.5001,-182.995"/>
</g>
<!-- Node3 -->
<g id="node3" class="node"><title>Node3</title>
<g id="a_node3"><a xlink:href="classapi_1_1_work_object.html" target="_top" xlink:title="WorkObject Class. ">
<polygon fill="none" stroke="black" points="-0.0859375,-285 -0.0859375,-429 142.086,-429 142.086,-285 -0.0859375,-285"/>
<text text-anchor="middle" x="71" y="-417" font-family="Helvetica,sans-Serif" font-size="10.00">api::WorkObject</text>
<polyline fill="none" stroke="black" points="-0.0859375,-411 142.086,-411 "/>
<text text-anchor="middle" x="71" y="-399" font-family="Helvetica,sans-Serif" font-size="10.00"> </text>
<polyline fill="none" stroke="black" points="-0.0859375,-393 142.086,-393 "/>
<text text-anchor="start" x="7.91406" y="-381" font-family="Helvetica,sans-Serif" font-size="10.00">+ WorkObject()</text>
<text text-anchor="start" x="7.91406" y="-371" font-family="Helvetica,sans-Serif" font-size="10.00">+ clear_error_number()</text>
<text text-anchor="start" x="7.91406" y="-361" font-family="Helvetica,sans-Serif" font-size="10.00">+ error_number()</text>
<text text-anchor="start" x="7.91406" y="-351" font-family="Helvetica,sans-Serif" font-size="10.00">+ exit_fatal()</text>
<text text-anchor="start" x="7.91406" y="-341" font-family="Helvetica,sans-Serif" font-size="10.00"># set_error_number()</text>
<text text-anchor="start" x="7.91406" y="-331" font-family="Helvetica,sans-Serif" font-size="10.00"># set_error_number_if</text>
<text text-anchor="start" x="7.91406" y="-321" font-family="Helvetica,sans-Serif" font-size="10.00">_error()</text>
<text text-anchor="start" x="7.91406" y="-311" font-family="Helvetica,sans-Serif" font-size="10.00"># set_error_number_if_null()</text>
<text text-anchor="start" x="7.91406" y="-301" font-family="Helvetica,sans-Serif" font-size="10.00"># set_error_number_to</text>
<text text-anchor="start" x="7.91406" y="-291" font-family="Helvetica,sans-Serif" font-size="10.00">_errno()</text>
</a>
</g>
</g>
<!-- Node3&#45;&gt;Node2 -->
<g id="edge2" class="edge"><title>Node3&#45;&gt;Node2</title>
<path fill="none" stroke="midnightblue" d="M71,-274.911C71,-264.983 71,-255.464 71,-247.262"/>
<polygon fill="none" stroke="midnightblue" points="67.5001,-274.942 71,-284.942 74.5001,-274.942 67.5001,-274.942"/>
</g>
<!-- Node4 -->
<g id="node4" class="node"><title>Node4</title>
<g id="a_node4"><a xlink:href="classapi_1_1_api_object.html" target="_top" xlink:title="API Object Class. ">
<polygon fill="none" stroke="black" points="29.7896,-467 29.7896,-521 112.21,-521 112.21,-467 29.7896,-467"/>
<text text-anchor="middle" x="71" y="-509" font-family="Helvetica,sans-Serif" font-size="10.00">api::ApiObject</text>
<polyline fill="none" stroke="black" points="29.7896,-503 112.21,-503 "/>
<text text-anchor="middle" x="71" y="-491" font-family="Helvetica,sans-Serif" font-size="10.00"> </text>
<polyline fill="none" stroke="black" points="29.7896,-485 112.21,-485 "/>
<text text-anchor="start" x="37.7896" y="-473" font-family="Helvetica,sans-Serif" font-size="10.00">+ api_version()</text>
</a>
</g>
</g>
<!-- Node4&#45;&gt;Node3 -->
<g id="edge3" class="edge"><title>Node4&#45;&gt;Node3</title>
<path fill="none" stroke="midnightblue" d="M71,-456.925C71,-448.287 71,-438.765 71,-429.145"/>
<polygon fill="none" stroke="midnightblue" points="67.5001,-456.971 71,-466.971 74.5001,-456.971 67.5001,-456.971"/>
</g>
</g>
</svg>
