<?xml version="1.0" encoding="UTF-8" standalone="no"?>
<!DOCTYPE svg PUBLIC "-//W3C//DTD SVG 1.1//EN"
 "http://www.w3.org/Graphics/SVG/1.1/DTD/svg11.dtd">
<!-- Generated by graphviz version 2.36.0 (20140111.2315)
 -->
<!-- Title: dsp::ComplexQ31 Pages: 1 -->
<svg width="173pt" height="662pt"
 viewBox="0.00 0.00 173.00 662.00" xmlns="http://www.w3.org/2000/svg" xmlns:xlink="http://www.w3.org/1999/xlink">
<g id="graph0" class="graph" transform="scale(1 1) rotate(0) translate(4 658)">
<title>dsp::ComplexQ31</title>
<!-- Node1 -->
<g id="node1" class="node"><title>Node1</title>
<polygon fill="#bfbfbf" stroke="black" points="15.9805,-1 15.9805,-55 112.02,-55 112.02,-1 15.9805,-1"/>
<text text-anchor="middle" x="64" y="-43" font-family="Helvetica,sans-Serif" font-size="10.00">dsp::ComplexQ31</text>
<polyline fill="none" stroke="black" points="15.9805,-37 112.02,-37 "/>
<text text-anchor="middle" x="64" y="-25" font-family="Helvetica,sans-Serif" font-size="10.00"> </text>
<polyline fill="none" stroke="black" points="15.9805,-19 112.02,-19 "/>
<text text-anchor="start" x="23.9805" y="-7" font-family="Helvetica,sans-Serif" font-size="10.00">+ ComplexQ31()</text>
</g>
<!-- Node2 -->
<g id="node2" class="node"><title>Node2</title>
<g id="a_node2"><a xlink:href="classdsp_1_1_complex.html" target="_top" xlink:title="{dsp::Complex\&lt; q31_t \&gt;\n||+ imaginary()\l+ imaginary()\l+ operator!=()\l+ operator+()\l+ operator+=()\l+ operator&#45;()\land 4 more...\l}">
<polygon fill="none" stroke="black" points="4.30078,-95 4.30078,-209 123.699,-209 123.699,-95 4.30078,-95"/>
<text text-anchor="middle" x="64" y="-197" font-family="Helvetica,sans-Serif" font-size="10.00">dsp::Complex&lt; q31_t &gt;</text>
<polyline fill="none" stroke="black" points="4.30078,-191 123.699,-191 "/>
<text text-anchor="middle" x="64" y="-179" font-family="Helvetica,sans-Serif" font-size="10.00"> </text>
<polyline fill="none" stroke="black" points="4.30078,-173 123.699,-173 "/>
<text text-anchor="start" x="12.3008" y="-161" font-family="Helvetica,sans-Serif" font-size="10.00">+ imaginary()</text>
<text text-anchor="start" x="12.3008" y="-151" font-family="Helvetica,sans-Serif" font-size="10.00">+ imaginary()</text>
<text text-anchor="start" x="12.3008" y="-141" font-family="Helvetica,sans-Serif" font-size="10.00">+ operator!=()</text>
<text text-anchor="start" x="12.3008" y="-131" font-family="Helvetica,sans-Serif" font-size="10.00">+ operator+()</text>
<text text-anchor="start" x="12.3008" y="-121" font-family="Helvetica,sans-Serif" font-size="10.00">+ operator+=()</text>
<text text-anchor="start" x="12.3008" y="-111" font-family="Helvetica,sans-Serif" font-size="10.00">+ operator&#45;()</text>
<text text-anchor="start" x="12.3008" y="-101" font-family="Helvetica,sans-Serif" font-size="10.00">and 4 more...</text>
</a>
</g>
</g>
<!-- Node2&#45;&gt;Node1 -->
<g id="edge1" class="edge"><title>Node2&#45;&gt;Node1</title>
<path fill="none" stroke="midnightblue" d="M64,-84.8753C64,-74.3387 64,-64.0075 64,-55.151"/>
<polygon fill="none" stroke="midnightblue" points="60.5001,-84.9989 64,-94.9989 67.5001,-84.999 60.5001,-84.9989"/>
</g>
<!-- Node3 -->
<g id="node3" class="node"><title>Node3</title>
<g id="a_node3"><a xlink:href="classapi_1_1_dsp_info_object.html" target="_top" xlink:title="DSP Information Object. ">
<polygon fill="none" stroke="black" points="-0.132812,-411 -0.132812,-465 98.1328,-465 98.1328,-411 -0.132812,-411"/>
<text text-anchor="middle" x="49" y="-453" font-family="Helvetica,sans-Serif" font-size="10.00">api::DspInfoObject</text>
<polyline fill="none" stroke="black" points="-0.132812,-447 98.1328,-447 "/>
<text text-anchor="middle" x="49" y="-435" font-family="Helvetica,sans-Serif" font-size="10.00"> </text>
<polyline fill="none" stroke="black" points="-0.132812,-429 98.1328,-429 "/>
<text text-anchor="middle" x="49" y="-417" font-family="Helvetica,sans-Serif" font-size="10.00"> </text>
</a>
</g>
</g>
<!-- Node3&#45;&gt;Node2 -->
<g id="edge2" class="edge"><title>Node3&#45;&gt;Node2</title>
<path fill="none" stroke="midnightblue" d="M49.9881,-400.738C51.0817,-364.182 53.084,-306.147 56,-256 56.885,-240.78 58.0643,-224.312 59.2448,-209.103"/>
<polygon fill="none" stroke="midnightblue" points="46.4846,-400.809 49.6908,-410.908 53.4816,-401.014 46.4846,-400.809"/>
</g>
<!-- Node6 -->
<g id="node6" class="node"><title>Node6</title>
<g id="a_node6"><a xlink:href="classdsp_1_1_complex.html" target="_top" xlink:title="Complex Class. ">
<polygon fill="none" stroke="black" points="64.9346,-257 64.9346,-371 165.065,-371 165.065,-257 64.9346,-257"/>
<text text-anchor="middle" x="115" y="-359" font-family="Helvetica,sans-Serif" font-size="10.00">dsp::Complex&lt; T &gt;</text>
<polyline fill="none" stroke="black" points="64.9346,-353 165.065,-353 "/>
<text text-anchor="middle" x="115" y="-341" font-family="Helvetica,sans-Serif" font-size="10.00"> </text>
<polyline fill="none" stroke="black" points="64.9346,-335 165.065,-335 "/>
<text text-anchor="start" x="72.9346" y="-323" font-family="Helvetica,sans-Serif" font-size="10.00">+ imaginary()</text>
<text text-anchor="start" x="72.9346" y="-313" font-family="Helvetica,sans-Serif" font-size="10.00">+ imaginary()</text>
<text text-anchor="start" x="72.9346" y="-303" font-family="Helvetica,sans-Serif" font-size="10.00">+ operator!=()</text>
<text text-anchor="start" x="72.9346" y="-293" font-family="Helvetica,sans-Serif" font-size="10.00">+ operator+()</text>
<text text-anchor="start" x="72.9346" y="-283" font-family="Helvetica,sans-Serif" font-size="10.00">+ operator+=()</text>
<text text-anchor="start" x="72.9346" y="-273" font-family="Helvetica,sans-Serif" font-size="10.00">+ operator&#45;()</text>
<text text-anchor="start" x="72.9346" y="-263" font-family="Helvetica,sans-Serif" font-size="10.00">and 4 more...</text>
</a>
</g>
</g>
<!-- Node3&#45;&gt;Node6 -->
<g id="edge6" class="edge"><title>Node3&#45;&gt;Node6</title>
<path fill="none" stroke="midnightblue" d="M67.9464,-401.978C73.146,-392.366 78.9181,-381.697 84.5876,-371.217"/>
<polygon fill="none" stroke="midnightblue" points="64.8385,-400.367 63.1587,-410.828 70.9953,-403.698 64.8385,-400.367"/>
</g>
<!-- Node4 -->
<g id="node4" class="node"><title>Node4</title>
<g id="a_node4"><a xlink:href="classapi_1_1_info_object.html" target="_top" xlink:title="Information Object. ">
<polygon fill="none" stroke="black" points="8.75879,-505 8.75879,-559 89.2412,-559 89.2412,-505 8.75879,-505"/>
<text text-anchor="middle" x="49" y="-547" font-family="Helvetica,sans-Serif" font-size="10.00">api::InfoObject</text>
<polyline fill="none" stroke="black" points="8.75879,-541 89.2412,-541 "/>
<text text-anchor="middle" x="49" y="-529" font-family="Helvetica,sans-Serif" font-size="10.00"> </text>
<polyline fill="none" stroke="black" points="8.75879,-523 89.2412,-523 "/>
<text text-anchor="middle" x="49" y="-511" font-family="Helvetica,sans-Serif" font-size="10.00"> </text>
</a>
</g>
</g>
<!-- Node4&#45;&gt;Node3 -->
<g id="edge3" class="edge"><title>Node4&#45;&gt;Node3</title>
<path fill="none" stroke="midnightblue" d="M49,-494.872C49,-484.964 49,-474.415 49,-465.183"/>
<polygon fill="none" stroke="midnightblue" points="45.5001,-494.883 49,-504.883 52.5001,-494.883 45.5001,-494.883"/>
</g>
<!-- Node5 -->
<g id="node5" class="node"><title>Node5</title>
<g id="a_node5"><a xlink:href="classapi_1_1_api_object.html" target="_top" xlink:title="Application Programming Interface Object. ">
<polygon fill="none" stroke="black" points="7.78955,-599 7.78955,-653 90.2104,-653 90.2104,-599 7.78955,-599"/>
<text text-anchor="middle" x="49" y="-641" font-family="Helvetica,sans-Serif" font-size="10.00">api::ApiObject</text>
<polyline fill="none" stroke="black" points="7.78955,-635 90.2104,-635 "/>
<text text-anchor="middle" x="49" y="-623" font-family="Helvetica,sans-Serif" font-size="10.00"> </text>
<polyline fill="none" stroke="black" points="7.78955,-617 90.2104,-617 "/>
<text text-anchor="start" x="15.7896" y="-605" font-family="Helvetica,sans-Serif" font-size="10.00">+ api_version()</text>
</a>
</g>
</g>
<!-- Node5&#45;&gt;Node4 -->
<g id="edge4" class="edge"><title>Node5&#45;&gt;Node4</title>
<path fill="none" stroke="midnightblue" d="M49,-588.872C49,-578.964 49,-568.415 49,-559.183"/>
<polygon fill="none" stroke="midnightblue" points="45.5001,-588.883 49,-598.883 52.5001,-588.883 45.5001,-588.883"/>
</g>
<!-- Node6&#45;&gt;Node2 -->
<g id="edge5" class="edge"><title>Node6&#45;&gt;Node2</title>
<path fill="none" stroke="orange" d="M93.8693,-246.708C89.8929,-234.233 85.7704,-221.299 81.9042,-209.17"/>
<polygon fill="orange" stroke="orange" points="90.6476,-248.125 97.0193,-256.59 97.317,-245.999 90.6476,-248.125"/>
<text text-anchor="middle" x="113.52" y="-230" font-family="Helvetica,sans-Serif" font-size="10.00"> &lt; q31_t &gt;</text>
</g>
</g>
</svg>
