<?xml version="1.0" encoding="UTF-8" standalone="no"?>
<!DOCTYPE svg PUBLIC "-//W3C//DTD SVG 1.1//EN"
 "http://www.w3.org/Graphics/SVG/1.1/DTD/svg11.dtd">
<!-- Generated by graphviz version 2.36.0 (20140111.2315)
 -->
<!-- Title: ev::Event Pages: 1 -->
<svg width="100pt" height="400pt"
 viewBox="0.00 0.00 100.00 400.00" xmlns="http://www.w3.org/2000/svg" xmlns:xlink="http://www.w3.org/1999/xlink">
<g id="graph0" class="graph" transform="scale(1 1) rotate(0) translate(4 396)">
<title>ev::Event</title>
<!-- Node1 -->
<g id="node1" class="node"><title>Node1</title>
<polygon fill="#bfbfbf" stroke="black" points="6.45459,-1 6.45459,-115 85.5454,-115 85.5454,-1 6.45459,-1"/>
<text text-anchor="middle" x="46" y="-103" font-family="Helvetica,sans-Serif" font-size="10.00">ev::Event</text>
<polyline fill="none" stroke="black" points="6.45459,-97 85.5454,-97 "/>
<text text-anchor="middle" x="46" y="-85" font-family="Helvetica,sans-Serif" font-size="10.00"> </text>
<polyline fill="none" stroke="black" points="6.45459,-79 85.5454,-79 "/>
<text text-anchor="start" x="14.4546" y="-67" font-family="Helvetica,sans-Serif" font-size="10.00">+ Event()</text>
<text text-anchor="start" x="14.4546" y="-57" font-family="Helvetica,sans-Serif" font-size="10.00">+ Event()</text>
<text text-anchor="start" x="14.4546" y="-47" font-family="Helvetica,sans-Serif" font-size="10.00">+ Event()</text>
<text text-anchor="start" x="14.4546" y="-37" font-family="Helvetica,sans-Serif" font-size="10.00">+ Event()</text>
<text text-anchor="start" x="14.4546" y="-27" font-family="Helvetica,sans-Serif" font-size="10.00">+ application()</text>
<text text-anchor="start" x="14.4546" y="-17" font-family="Helvetica,sans-Serif" font-size="10.00">+ button()</text>
<text text-anchor="start" x="14.4546" y="-7" font-family="Helvetica,sans-Serif" font-size="10.00">and 8 more...</text>
</g>
<!-- Node2 -->
<g id="node2" class="node"><title>Node2</title>
<g id="a_node2"><a xlink:href="classapi_1_1_ev_info_object.html" target="_top" xlink:title="Event Information Object. ">
<polygon fill="none" stroke="black" points="-0.0761719,-153 -0.0761719,-207 92.0762,-207 92.0762,-153 -0.0761719,-153"/>
<text text-anchor="middle" x="46" y="-195" font-family="Helvetica,sans-Serif" font-size="10.00">api::EvInfoObject</text>
<polyline fill="none" stroke="black" points="-0.0761719,-189 92.0762,-189 "/>
<text text-anchor="middle" x="46" y="-177" font-family="Helvetica,sans-Serif" font-size="10.00"> </text>
<polyline fill="none" stroke="black" points="-0.0761719,-171 92.0762,-171 "/>
<text text-anchor="middle" x="46" y="-159" font-family="Helvetica,sans-Serif" font-size="10.00"> </text>
</a>
</g>
</g>
<!-- Node2&#45;&gt;Node1 -->
<g id="edge1" class="edge"><title>Node2&#45;&gt;Node1</title>
<path fill="none" stroke="midnightblue" d="M46,-142.754C46,-134.008 46,-124.458 46,-115.039"/>
<polygon fill="none" stroke="midnightblue" points="42.5001,-142.962 46,-152.962 49.5001,-142.962 42.5001,-142.962"/>
</g>
<!-- Node3 -->
<g id="node3" class="node"><title>Node3</title>
<g id="a_node3"><a xlink:href="classapi_1_1_info_object.html" target="_top" xlink:title="Information Object. ">
<polygon fill="none" stroke="black" points="5.75879,-245 5.75879,-299 86.2412,-299 86.2412,-245 5.75879,-245"/>
<text text-anchor="middle" x="46" y="-287" font-family="Helvetica,sans-Serif" font-size="10.00">api::InfoObject</text>
<polyline fill="none" stroke="black" points="5.75879,-281 86.2412,-281 "/>
<text text-anchor="middle" x="46" y="-269" font-family="Helvetica,sans-Serif" font-size="10.00"> </text>
<polyline fill="none" stroke="black" points="5.75879,-263 86.2412,-263 "/>
<text text-anchor="middle" x="46" y="-251" font-family="Helvetica,sans-Serif" font-size="10.00"> </text>
</a>
</g>
</g>
<!-- Node3&#45;&gt;Node2 -->
<g id="edge2" class="edge"><title>Node3&#45;&gt;Node2</title>
<path fill="none" stroke="midnightblue" d="M46,-234.865C46,-225.644 46,-215.907 46,-207.285"/>
<polygon fill="none" stroke="midnightblue" points="42.5001,-234.968 46,-244.968 49.5001,-234.968 42.5001,-234.968"/>
</g>
<!-- Node4 -->
<g id="node4" class="node"><title>Node4</title>
<g id="a_node4"><a xlink:href="classapi_1_1_api_object.html" target="_top" xlink:title="Application Programming Interface Object. ">
<polygon fill="none" stroke="black" points="4.78955,-337 4.78955,-391 87.2104,-391 87.2104,-337 4.78955,-337"/>
<text text-anchor="middle" x="46" y="-379" font-family="Helvetica,sans-Serif" font-size="10.00">api::ApiObject</text>
<polyline fill="none" stroke="black" points="4.78955,-373 87.2104,-373 "/>
<text text-anchor="middle" x="46" y="-361" font-family="Helvetica,sans-Serif" font-size="10.00"> </text>
<polyline fill="none" stroke="black" points="4.78955,-355 87.2104,-355 "/>
<text text-anchor="start" x="12.7896" y="-343" font-family="Helvetica,sans-Serif" font-size="10.00">+ api_version()</text>
</a>
</g>
</g>
<!-- Node4&#45;&gt;Node3 -->
<g id="edge3" class="edge"><title>Node4&#45;&gt;Node3</title>
<path fill="none" stroke="midnightblue" d="M46,-326.865C46,-317.644 46,-307.907 46,-299.285"/>
<polygon fill="none" stroke="midnightblue" points="42.5001,-326.968 46,-336.968 49.5001,-326.968 42.5001,-326.968"/>
</g>
</g>
</svg>
