<?xml version="1.0" encoding="UTF-8" standalone="no"?>
<!DOCTYPE svg PUBLIC "-//W3C//DTD SVG 1.1//EN"
 "http://www.w3.org/Graphics/SVG/1.1/DTD/svg11.dtd">
<!-- Generated by graphviz version 2.36.0 (20140111.2315)
 -->
<!-- Title: hal::Switchboard Pages: 1 -->
<svg width="170pt" height="896pt"
 viewBox="0.00 0.00 170.00 896.00" xmlns="http://www.w3.org/2000/svg" xmlns:xlink="http://www.w3.org/1999/xlink">
<g id="graph0" class="graph" transform="scale(1 1) rotate(0) translate(4 892)">
<title>hal::Switchboard</title>
<!-- Node1 -->
<g id="node1" class="node"><title>Node1</title>
<polygon fill="#bfbfbf" stroke="black" points="-0.515625,-1 -0.515625,-125 162.516,-125 162.516,-1 -0.515625,-1"/>
<text text-anchor="middle" x="81" y="-113" font-family="Helvetica,sans-Serif" font-size="10.00">hal::Switchboard</text>
<polyline fill="none" stroke="black" points="-0.515625,-107 162.516,-107 "/>
<text text-anchor="middle" x="81" y="-95" font-family="Helvetica,sans-Serif" font-size="10.00"> </text>
<polyline fill="none" stroke="black" points="-0.515625,-89 162.516,-89 "/>
<text text-anchor="start" x="7.48438" y="-77" font-family="Helvetica,sans-Serif" font-size="10.00">+ Switchboard()</text>
<text text-anchor="start" x="7.48438" y="-67" font-family="Helvetica,sans-Serif" font-size="10.00">+ create_fixed_size_connection()</text>
<text text-anchor="start" x="7.48438" y="-57" font-family="Helvetica,sans-Serif" font-size="10.00">+ create_persistent_connection()</text>
<text text-anchor="start" x="7.48438" y="-47" font-family="Helvetica,sans-Serif" font-size="10.00">+ destroy_connection()</text>
<text text-anchor="start" x="7.48438" y="-37" font-family="Helvetica,sans-Serif" font-size="10.00">+ destroy_connection()</text>
<text text-anchor="start" x="7.48438" y="-27" font-family="Helvetica,sans-Serif" font-size="10.00">+ get_active_connection</text>
<text text-anchor="start" x="7.48438" y="-17" font-family="Helvetica,sans-Serif" font-size="10.00">_count()</text>
<text text-anchor="start" x="7.48438" y="-7" font-family="Helvetica,sans-Serif" font-size="10.00">and 8 more...</text>
</g>
<!-- Node2 -->
<g id="node2" class="node"><title>Node2</title>
<g id="a_node2"><a xlink:href="classhal_1_1_device.html" target="_top" xlink:title="Device Class. ">
<polygon fill="none" stroke="black" points="48.2661,-163 48.2661,-237 113.734,-237 113.734,-163 48.2661,-163"/>
<text text-anchor="middle" x="81" y="-225" font-family="Helvetica,sans-Serif" font-size="10.00">hal::Device</text>
<polyline fill="none" stroke="black" points="48.2661,-219 113.734,-219 "/>
<text text-anchor="middle" x="81" y="-207" font-family="Helvetica,sans-Serif" font-size="10.00"> </text>
<polyline fill="none" stroke="black" points="48.2661,-201 113.734,-201 "/>
<text text-anchor="start" x="56.2661" y="-189" font-family="Helvetica,sans-Serif" font-size="10.00">+ Device()</text>
<text text-anchor="start" x="56.2661" y="-179" font-family="Helvetica,sans-Serif" font-size="10.00">+ read()</text>
<text text-anchor="start" x="56.2661" y="-169" font-family="Helvetica,sans-Serif" font-size="10.00">+ write()</text>
</a>
</g>
</g>
<!-- Node2&#45;&gt;Node1 -->
<g id="edge1" class="edge"><title>Node2&#45;&gt;Node1</title>
<path fill="none" stroke="midnightblue" d="M81,-152.667C81,-143.767 81,-134.32 81,-125.037"/>
<polygon fill="none" stroke="midnightblue" points="77.5001,-152.822 81,-162.822 84.5001,-152.823 77.5001,-152.822"/>
</g>
<!-- Node3 -->
<g id="node3" class="node"><title>Node3</title>
<g id="a_node3"><a xlink:href="classapi_1_1_hal_work_object.html" target="_top" xlink:title="Hal Object Class. ">
<polygon fill="none" stroke="black" points="30.019,-275 30.019,-329 131.981,-329 131.981,-275 30.019,-275"/>
<text text-anchor="middle" x="81" y="-317" font-family="Helvetica,sans-Serif" font-size="10.00">api::HalWorkObject</text>
<polyline fill="none" stroke="black" points="30.019,-311 131.981,-311 "/>
<text text-anchor="middle" x="81" y="-299" font-family="Helvetica,sans-Serif" font-size="10.00"> </text>
<polyline fill="none" stroke="black" points="30.019,-293 131.981,-293 "/>
<text text-anchor="middle" x="81" y="-281" font-family="Helvetica,sans-Serif" font-size="10.00"> </text>
</a>
</g>
</g>
<!-- Node3&#45;&gt;Node2 -->
<g id="edge2" class="edge"><title>Node3&#45;&gt;Node2</title>
<path fill="none" stroke="midnightblue" d="M81,-264.767C81,-255.739 81,-246.063 81,-237.045"/>
<polygon fill="none" stroke="midnightblue" points="77.5001,-264.987 81,-274.987 84.5001,-264.987 77.5001,-264.987"/>
</g>
<!-- Node4 -->
<g id="node4" class="node"><title>Node4</title>
<g id="a_node4"><a xlink:href="classsys_1_1_file.html" target="_top" xlink:title="File Class. ">
<polygon fill="none" stroke="black" points="40.7588,-367 40.7588,-531 121.241,-531 121.241,-367 40.7588,-367"/>
<text text-anchor="middle" x="81" y="-519" font-family="Helvetica,sans-Serif" font-size="10.00">sys::File</text>
<polyline fill="none" stroke="black" points="40.7588,-513 121.241,-513 "/>
<text text-anchor="start" x="48.7588" y="-501" font-family="Helvetica,sans-Serif" font-size="10.00"># m_fd</text>
<polyline fill="none" stroke="black" points="40.7588,-495 121.241,-495 "/>
<text text-anchor="start" x="48.7588" y="-483" font-family="Helvetica,sans-Serif" font-size="10.00">+ File()</text>
<text text-anchor="start" x="48.7588" y="-473" font-family="Helvetica,sans-Serif" font-size="10.00">+ close()</text>
<text text-anchor="start" x="48.7588" y="-463" font-family="Helvetica,sans-Serif" font-size="10.00">+ create()</text>
<text text-anchor="start" x="48.7588" y="-453" font-family="Helvetica,sans-Serif" font-size="10.00">+ fileno()</text>
<text text-anchor="start" x="48.7588" y="-443" font-family="Helvetica,sans-Serif" font-size="10.00">+ flags()</text>
<text text-anchor="start" x="48.7588" y="-433" font-family="Helvetica,sans-Serif" font-size="10.00">+ gets()</text>
<text text-anchor="start" x="48.7588" y="-423" font-family="Helvetica,sans-Serif" font-size="10.00">and 21 more...</text>
<text text-anchor="start" x="48.7588" y="-413" font-family="Helvetica,sans-Serif" font-size="10.00">+ name()</text>
<text text-anchor="start" x="48.7588" y="-403" font-family="Helvetica,sans-Serif" font-size="10.00">+ remove()</text>
<text text-anchor="start" x="48.7588" y="-393" font-family="Helvetica,sans-Serif" font-size="10.00">+ size()</text>
<text text-anchor="start" x="48.7588" y="-383" font-family="Helvetica,sans-Serif" font-size="10.00">+ stat()</text>
<text text-anchor="start" x="48.7588" y="-373" font-family="Helvetica,sans-Serif" font-size="10.00">+ suffix()</text>
</a>
</g>
</g>
<!-- Node4&#45;&gt;Node3 -->
<g id="edge3" class="edge"><title>Node4&#45;&gt;Node3</title>
<path fill="none" stroke="midnightblue" d="M81,-356.541C81,-346.622 81,-337.213 81,-329.129"/>
<polygon fill="none" stroke="midnightblue" points="77.5001,-356.599 81,-366.599 84.5001,-356.599 77.5001,-356.599"/>
</g>
<!-- Node5 -->
<g id="node5" class="node"><title>Node5</title>
<g id="a_node5"><a xlink:href="classapi_1_1_sys_work_object.html" target="_top" xlink:title="System Work Object Class. ">
<polygon fill="none" stroke="black" points="29.1865,-569 29.1865,-623 132.813,-623 132.813,-569 29.1865,-569"/>
<text text-anchor="middle" x="81" y="-611" font-family="Helvetica,sans-Serif" font-size="10.00">api::SysWorkObject</text>
<polyline fill="none" stroke="black" points="29.1865,-605 132.813,-605 "/>
<text text-anchor="middle" x="81" y="-593" font-family="Helvetica,sans-Serif" font-size="10.00"> </text>
<polyline fill="none" stroke="black" points="29.1865,-587 132.813,-587 "/>
<text text-anchor="middle" x="81" y="-575" font-family="Helvetica,sans-Serif" font-size="10.00"> </text>
</a>
</g>
</g>
<!-- Node5&#45;&gt;Node4 -->
<g id="edge4" class="edge"><title>Node5&#45;&gt;Node4</title>
<path fill="none" stroke="midnightblue" d="M81,-558.498C81,-549.997 81,-540.612 81,-531.024"/>
<polygon fill="none" stroke="midnightblue" points="77.5001,-558.742 81,-568.742 84.5001,-558.742 77.5001,-558.742"/>
</g>
<!-- Node6 -->
<g id="node6" class="node"><title>Node6</title>
<g id="a_node6"><a xlink:href="classapi_1_1_work_object.html" target="_top" xlink:title="WorkObject Class. ">
<polygon fill="none" stroke="black" points="21.4521,-661 21.4521,-795 140.548,-795 140.548,-661 21.4521,-661"/>
<text text-anchor="middle" x="81" y="-783" font-family="Helvetica,sans-Serif" font-size="10.00">api::WorkObject</text>
<polyline fill="none" stroke="black" points="21.4521,-777 140.548,-777 "/>
<text text-anchor="middle" x="81" y="-765" font-family="Helvetica,sans-Serif" font-size="10.00"> </text>
<polyline fill="none" stroke="black" points="21.4521,-759 140.548,-759 "/>
<text text-anchor="start" x="29.4521" y="-747" font-family="Helvetica,sans-Serif" font-size="10.00">+ WorkObject()</text>
<text text-anchor="start" x="29.4521" y="-737" font-family="Helvetica,sans-Serif" font-size="10.00">+ clear_error_number()</text>
<text text-anchor="start" x="29.4521" y="-727" font-family="Helvetica,sans-Serif" font-size="10.00">+ error_number()</text>
<text text-anchor="start" x="29.4521" y="-717" font-family="Helvetica,sans-Serif" font-size="10.00">+ exit_fatal()</text>
<text text-anchor="start" x="29.4521" y="-707" font-family="Helvetica,sans-Serif" font-size="10.00"># set_error_number()</text>
<text text-anchor="start" x="29.4521" y="-697" font-family="Helvetica,sans-Serif" font-size="10.00"># set_error_number_if</text>
<text text-anchor="start" x="29.4521" y="-687" font-family="Helvetica,sans-Serif" font-size="10.00">_error()</text>
<text text-anchor="start" x="29.4521" y="-677" font-family="Helvetica,sans-Serif" font-size="10.00"># set_error_number_to</text>
<text text-anchor="start" x="29.4521" y="-667" font-family="Helvetica,sans-Serif" font-size="10.00">_errno()</text>
</a>
</g>
</g>
<!-- Node6&#45;&gt;Node5 -->
<g id="edge5" class="edge"><title>Node6&#45;&gt;Node5</title>
<path fill="none" stroke="midnightblue" d="M81,-650.838C81,-640.903 81,-631.326 81,-623.074"/>
<polygon fill="none" stroke="midnightblue" points="77.5001,-650.857 81,-660.857 84.5001,-650.858 77.5001,-650.857"/>
</g>
<!-- Node7 -->
<g id="node7" class="node"><title>Node7</title>
<g id="a_node7"><a xlink:href="classapi_1_1_api_object.html" target="_top" xlink:title="API Object Class. ">
<polygon fill="none" stroke="black" points="39.7896,-833 39.7896,-887 122.21,-887 122.21,-833 39.7896,-833"/>
<text text-anchor="middle" x="81" y="-875" font-family="Helvetica,sans-Serif" font-size="10.00">api::ApiObject</text>
<polyline fill="none" stroke="black" points="39.7896,-869 122.21,-869 "/>
<text text-anchor="middle" x="81" y="-857" font-family="Helvetica,sans-Serif" font-size="10.00"> </text>
<polyline fill="none" stroke="black" points="39.7896,-851 122.21,-851 "/>
<text text-anchor="start" x="47.7896" y="-839" font-family="Helvetica,sans-Serif" font-size="10.00">+ api_version()</text>
</a>
</g>
</g>
<!-- Node7&#45;&gt;Node6 -->
<g id="edge6" class="edge"><title>Node7&#45;&gt;Node6</title>
<path fill="none" stroke="midnightblue" d="M81,-822.644C81,-814.02 81,-804.555 81,-795.059"/>
<polygon fill="none" stroke="midnightblue" points="77.5001,-822.693 81,-832.693 84.5001,-822.693 77.5001,-822.693"/>
</g>
</g>
</svg>
