<?xml version="1.0" encoding="UTF-8" standalone="no"?>
<!DOCTYPE svg PUBLIC "-//W3C//DTD SVG 1.1//EN"
 "http://www.w3.org/Graphics/SVG/1.1/DTD/svg11.dtd">
<!-- Generated by graphviz version 2.36.0 (20140111.2315)
 -->
<!-- Title: hal::FFifo Pages: 1 -->
<svg width="150pt" height="946pt"
 viewBox="0.00 0.00 150.00 946.00" xmlns="http://www.w3.org/2000/svg" xmlns:xlink="http://www.w3.org/1999/xlink">
<g id="graph0" class="graph" transform="scale(1 1) rotate(0) translate(4 942)">
<title>hal::FFifo</title>
<!-- Node1 -->
<g id="node1" class="node"><title>Node1</title>
<polygon fill="#bfbfbf" stroke="black" points="37.5679,-1 37.5679,-105 104.432,-105 104.432,-1 37.5679,-1"/>
<text text-anchor="middle" x="71" y="-93" font-family="Helvetica,sans-Serif" font-size="10.00">hal::FFifo</text>
<polyline fill="none" stroke="black" points="37.5679,-87 104.432,-87 "/>
<text text-anchor="middle" x="71" y="-75" font-family="Helvetica,sans-Serif" font-size="10.00"> </text>
<polyline fill="none" stroke="black" points="37.5679,-69 104.432,-69 "/>
<text text-anchor="start" x="45.5679" y="-57" font-family="Helvetica,sans-Serif" font-size="10.00">+ FFifo()</text>
<text text-anchor="start" x="45.5679" y="-47" font-family="Helvetica,sans-Serif" font-size="10.00">+ flush()</text>
<text text-anchor="start" x="45.5679" y="-37" font-family="Helvetica,sans-Serif" font-size="10.00">+ get_info()</text>
<text text-anchor="start" x="45.5679" y="-27" font-family="Helvetica,sans-Serif" font-size="10.00">+ get_info()</text>
<text text-anchor="start" x="45.5679" y="-17" font-family="Helvetica,sans-Serif" font-size="10.00">+ init()</text>
<text text-anchor="start" x="45.5679" y="-7" font-family="Helvetica,sans-Serif" font-size="10.00">+ set_attr()</text>
</g>
<!-- Node2 -->
<g id="node2" class="node"><title>Node2</title>
<g id="a_node2"><a xlink:href="classhal_1_1_device.html" target="_top" xlink:title="Device Class. ">
<polygon fill="none" stroke="black" points="16.7231,-143 16.7231,-227 125.277,-227 125.277,-143 16.7231,-143"/>
<text text-anchor="middle" x="71" y="-215" font-family="Helvetica,sans-Serif" font-size="10.00">hal::Device</text>
<polyline fill="none" stroke="black" points="16.7231,-209 125.277,-209 "/>
<text text-anchor="middle" x="71" y="-197" font-family="Helvetica,sans-Serif" font-size="10.00"> </text>
<polyline fill="none" stroke="black" points="16.7231,-191 125.277,-191 "/>
<text text-anchor="start" x="24.7231" y="-179" font-family="Helvetica,sans-Serif" font-size="10.00">+ Device()</text>
<text text-anchor="start" x="24.7231" y="-169" font-family="Helvetica,sans-Serif" font-size="10.00">+ read()</text>
<text text-anchor="start" x="24.7231" y="-159" font-family="Helvetica,sans-Serif" font-size="10.00">+ set_signal_action()</text>
<text text-anchor="start" x="24.7231" y="-149" font-family="Helvetica,sans-Serif" font-size="10.00">+ write()</text>
</a>
</g>
</g>
<!-- Node2&#45;&gt;Node1 -->
<g id="edge1" class="edge"><title>Node2&#45;&gt;Node1</title>
<path fill="none" stroke="midnightblue" d="M71,-132.865C71,-123.831 71,-114.421 71,-105.379"/>
<polygon fill="none" stroke="midnightblue" points="67.5001,-132.867 71,-142.867 74.5001,-132.867 67.5001,-132.867"/>
</g>
<!-- Node3 -->
<g id="node3" class="node"><title>Node3</title>
<g id="a_node3"><a xlink:href="classapi_1_1_hal_work_object.html" target="_top" xlink:title="Hal Work Object. ">
<polygon fill="none" stroke="black" points="20.019,-265 20.019,-319 121.981,-319 121.981,-265 20.019,-265"/>
<text text-anchor="middle" x="71" y="-307" font-family="Helvetica,sans-Serif" font-size="10.00">api::HalWorkObject</text>
<polyline fill="none" stroke="black" points="20.019,-301 121.981,-301 "/>
<text text-anchor="middle" x="71" y="-289" font-family="Helvetica,sans-Serif" font-size="10.00"> </text>
<polyline fill="none" stroke="black" points="20.019,-283 121.981,-283 "/>
<text text-anchor="middle" x="71" y="-271" font-family="Helvetica,sans-Serif" font-size="10.00"> </text>
</a>
</g>
</g>
<!-- Node3&#45;&gt;Node2 -->
<g id="edge2" class="edge"><title>Node3&#45;&gt;Node2</title>
<path fill="none" stroke="midnightblue" d="M71,-254.503C71,-245.755 71,-236.351 71,-227.399"/>
<polygon fill="none" stroke="midnightblue" points="67.5001,-254.775 71,-264.775 74.5001,-254.775 67.5001,-254.775"/>
</g>
<!-- Node4 -->
<g id="node4" class="node"><title>Node4</title>
<g id="a_node4"><a xlink:href="classsys_1_1_file.html" target="_top" xlink:title="File Class. ">
<polygon fill="none" stroke="black" points="30.7588,-357 30.7588,-571 111.241,-571 111.241,-357 30.7588,-357"/>
<text text-anchor="middle" x="71" y="-559" font-family="Helvetica,sans-Serif" font-size="10.00">sys::File</text>
<polyline fill="none" stroke="black" points="30.7588,-553 111.241,-553 "/>
<text text-anchor="start" x="38.7588" y="-541" font-family="Helvetica,sans-Serif" font-size="10.00"># m_fd</text>
<polyline fill="none" stroke="black" points="30.7588,-535 111.241,-535 "/>
<text text-anchor="start" x="38.7588" y="-523" font-family="Helvetica,sans-Serif" font-size="10.00">+ File()</text>
<text text-anchor="start" x="38.7588" y="-513" font-family="Helvetica,sans-Serif" font-size="10.00">+ close()</text>
<text text-anchor="start" x="38.7588" y="-503" font-family="Helvetica,sans-Serif" font-size="10.00">+ create()</text>
<text text-anchor="start" x="38.7588" y="-493" font-family="Helvetica,sans-Serif" font-size="10.00">+ fileno()</text>
<text text-anchor="start" x="38.7588" y="-483" font-family="Helvetica,sans-Serif" font-size="10.00">+ flags()</text>
<text text-anchor="start" x="38.7588" y="-473" font-family="Helvetica,sans-Serif" font-size="10.00">+ gets()</text>
<text text-anchor="start" x="38.7588" y="-463" font-family="Helvetica,sans-Serif" font-size="10.00">and 22 more...</text>
<text text-anchor="start" x="38.7588" y="-453" font-family="Helvetica,sans-Serif" font-size="10.00">+ access()</text>
<text text-anchor="start" x="38.7588" y="-443" font-family="Helvetica,sans-Serif" font-size="10.00">+ copy()</text>
<text text-anchor="start" x="38.7588" y="-433" font-family="Helvetica,sans-Serif" font-size="10.00">+ exists()</text>
<text text-anchor="start" x="38.7588" y="-423" font-family="Helvetica,sans-Serif" font-size="10.00">+ name()</text>
<text text-anchor="start" x="38.7588" y="-413" font-family="Helvetica,sans-Serif" font-size="10.00">+ remove()</text>
<text text-anchor="start" x="38.7588" y="-403" font-family="Helvetica,sans-Serif" font-size="10.00">+ rename()</text>
<text text-anchor="start" x="38.7588" y="-393" font-family="Helvetica,sans-Serif" font-size="10.00">+ size()</text>
<text text-anchor="start" x="38.7588" y="-383" font-family="Helvetica,sans-Serif" font-size="10.00">+ stat()</text>
<text text-anchor="start" x="38.7588" y="-373" font-family="Helvetica,sans-Serif" font-size="10.00">+ suffix()</text>
<text text-anchor="start" x="38.7588" y="-363" font-family="Helvetica,sans-Serif" font-size="10.00"># copy()</text>
</a>
</g>
</g>
<!-- Node4&#45;&gt;Node3 -->
<g id="edge3" class="edge"><title>Node4&#45;&gt;Node3</title>
<path fill="none" stroke="midnightblue" d="M71,-346.591C71,-336.596 71,-327.275 71,-319.302"/>
<polygon fill="none" stroke="midnightblue" points="67.5001,-346.785 71,-356.785 74.5001,-346.785 67.5001,-346.785"/>
</g>
<!-- Node5 -->
<g id="node5" class="node"><title>Node5</title>
<g id="a_node5"><a xlink:href="classapi_1_1_sys_work_object.html" target="_top" xlink:title="System Work Object. ">
<polygon fill="none" stroke="black" points="19.1865,-609 19.1865,-663 122.813,-663 122.813,-609 19.1865,-609"/>
<text text-anchor="middle" x="71" y="-651" font-family="Helvetica,sans-Serif" font-size="10.00">api::SysWorkObject</text>
<polyline fill="none" stroke="black" points="19.1865,-645 122.813,-645 "/>
<text text-anchor="middle" x="71" y="-633" font-family="Helvetica,sans-Serif" font-size="10.00"> </text>
<polyline fill="none" stroke="black" points="19.1865,-627 122.813,-627 "/>
<text text-anchor="middle" x="71" y="-615" font-family="Helvetica,sans-Serif" font-size="10.00"> </text>
</a>
</g>
</g>
<!-- Node5&#45;&gt;Node4 -->
<g id="edge4" class="edge"><title>Node5&#45;&gt;Node4</title>
<path fill="none" stroke="midnightblue" d="M71,-598.761C71,-590.391 71,-581.069 71,-571.349"/>
<polygon fill="none" stroke="midnightblue" points="67.5001,-598.81 71,-608.81 74.5001,-598.81 67.5001,-598.81"/>
</g>
<!-- Node6 -->
<g id="node6" class="node"><title>Node6</title>
<g id="a_node6"><a xlink:href="classapi_1_1_work_object.html" target="_top" xlink:title="Work Object. ">
<polygon fill="none" stroke="black" points="-0.0859375,-701 -0.0859375,-845 142.086,-845 142.086,-701 -0.0859375,-701"/>
<text text-anchor="middle" x="71" y="-833" font-family="Helvetica,sans-Serif" font-size="10.00">api::WorkObject</text>
<polyline fill="none" stroke="black" points="-0.0859375,-827 142.086,-827 "/>
<text text-anchor="middle" x="71" y="-815" font-family="Helvetica,sans-Serif" font-size="10.00"> </text>
<polyline fill="none" stroke="black" points="-0.0859375,-809 142.086,-809 "/>
<text text-anchor="start" x="7.91406" y="-797" font-family="Helvetica,sans-Serif" font-size="10.00">+ WorkObject()</text>
<text text-anchor="start" x="7.91406" y="-787" font-family="Helvetica,sans-Serif" font-size="10.00">+ clear_error_number()</text>
<text text-anchor="start" x="7.91406" y="-777" font-family="Helvetica,sans-Serif" font-size="10.00">+ error_number()</text>
<text text-anchor="start" x="7.91406" y="-767" font-family="Helvetica,sans-Serif" font-size="10.00">+ exit_fatal()</text>
<text text-anchor="start" x="7.91406" y="-757" font-family="Helvetica,sans-Serif" font-size="10.00"># set_error_number()</text>
<text text-anchor="start" x="7.91406" y="-747" font-family="Helvetica,sans-Serif" font-size="10.00"># set_error_number_if</text>
<text text-anchor="start" x="7.91406" y="-737" font-family="Helvetica,sans-Serif" font-size="10.00">_error()</text>
<text text-anchor="start" x="7.91406" y="-727" font-family="Helvetica,sans-Serif" font-size="10.00"># set_error_number_if_null()</text>
<text text-anchor="start" x="7.91406" y="-717" font-family="Helvetica,sans-Serif" font-size="10.00"># set_error_number_to</text>
<text text-anchor="start" x="7.91406" y="-707" font-family="Helvetica,sans-Serif" font-size="10.00">_errno()</text>
</a>
</g>
</g>
<!-- Node6&#45;&gt;Node5 -->
<g id="edge5" class="edge"><title>Node6&#45;&gt;Node5</title>
<path fill="none" stroke="midnightblue" d="M71,-690.911C71,-680.983 71,-671.464 71,-663.262"/>
<polygon fill="none" stroke="midnightblue" points="67.5001,-690.942 71,-700.942 74.5001,-690.942 67.5001,-690.942"/>
</g>
<!-- Node7 -->
<g id="node7" class="node"><title>Node7</title>
<g id="a_node7"><a xlink:href="classapi_1_1_api_object.html" target="_top" xlink:title="Application Programming Interface Object. ">
<polygon fill="none" stroke="black" points="29.7896,-883 29.7896,-937 112.21,-937 112.21,-883 29.7896,-883"/>
<text text-anchor="middle" x="71" y="-925" font-family="Helvetica,sans-Serif" font-size="10.00">api::ApiObject</text>
<polyline fill="none" stroke="black" points="29.7896,-919 112.21,-919 "/>
<text text-anchor="middle" x="71" y="-907" font-family="Helvetica,sans-Serif" font-size="10.00"> </text>
<polyline fill="none" stroke="black" points="29.7896,-901 112.21,-901 "/>
<text text-anchor="start" x="37.7896" y="-889" font-family="Helvetica,sans-Serif" font-size="10.00">+ api_version()</text>
</a>
</g>
</g>
<!-- Node7&#45;&gt;Node6 -->
<g id="edge6" class="edge"><title>Node7&#45;&gt;Node6</title>
<path fill="none" stroke="midnightblue" d="M71,-872.925C71,-864.287 71,-854.765 71,-845.145"/>
<polygon fill="none" stroke="midnightblue" points="67.5001,-872.971 71,-882.971 74.5001,-872.971 67.5001,-872.971"/>
</g>
</g>
</svg>
