<?xml version="1.0" encoding="UTF-8" standalone="no"?>
<!DOCTYPE svg PUBLIC "-//W3C//DTD SVG 1.1//EN"
 "http://www.w3.org/Graphics/SVG/1.1/DTD/svg11.dtd">
<!-- Generated by graphviz version 2.36.0 (20140111.2315)
 -->
<!-- Title: ui::LinkedElement Pages: 1 -->
<!--zoomable 972 -->
<svg id="main" version="1.1" xmlns="http://www.w3.org/2000/svg" xmlns:xlink="http://www.w3.org/1999/xlink" xml:space="preserve" onload="init(evt)">
<style type="text/css"><![CDATA[
.edge:hover path { stroke: red; }
.edge:hover polygon { stroke: red; fill: red; }
]]></style>
<script type="text/javascript"><![CDATA[
var edges = document.getElementsByTagName('g');
if (edges && edges.length) {
  for (var i=0;i<edges.length;i++) {
    if (edges[i].id.substr(0,4)=='edge') {
      edges[i].setAttribute('class','edge');
    }
  }
}
]]></script>
        <defs>
                <circle id="rim" cx="0" cy="0" r="7"/>
                <circle id="rim2" cx="0" cy="0" r="3.5"/>
                <g id="zoomPlus">
                        <use xlink:href="#rim" fill="#404040">
                                <set attributeName="fill" to="#808080" begin="zoomplus.mouseover" end="zoomplus.mouseout"/>
                        </use>
                        <path d="M-4,0h8M0,-4v8" fill="none" stroke="white" stroke-width="1.5" pointer-events="none"/>
                </g>
                <g id="zoomMin">
                        <use xlink:href="#rim" fill="#404040">
                                <set attributeName="fill" to="#808080" begin="zoomminus.mouseover" end="zoomminus.mouseout"/>
                        </use>
                        <path d="M-4,0h8" fill="none" stroke="white" stroke-width="1.5" pointer-events="none"/>
                </g>
                <g id="dirArrow">
                        <path fill="none" stroke="white" stroke-width="1.5" d="M0,-3.0v7 M-2.5,-0.5L0,-3.0L2.5,-0.5"/>
                </g>
               <g id="resetDef">
                       <use xlink:href="#rim2" fill="#404040">
                               <set attributeName="fill" to="#808080" begin="reset.mouseover" end="reset.mouseout"/>
                       </use>
               </g>
        </defs>

<script type="text/javascript">
var viewWidth = 693;
var viewHeight = 972;
var sectionId = 'dynsection-0';
</script>
<script xlink:href="svgpan.js"/>
<svg id="graph" class="graph">
<g id="viewport">
<title>ui::LinkedElement</title>
<!-- Node1 -->
<g id="node1" class="node"><title>Node1</title>
<polygon fill="#bfbfbf" stroke="black" points="317.285,-415 317.285,-529 414.715,-529 414.715,-415 317.285,-415"/>
<text text-anchor="middle" x="366" y="-517" font-family="Helvetica,sans-Serif" font-size="10.00">ui::LinkedElement</text>
<polyline fill="none" stroke="black" points="317.285,-511 414.715,-511 "/>
<text text-anchor="middle" x="366" y="-499" font-family="Helvetica,sans-Serif" font-size="10.00"> </text>
<polyline fill="none" stroke="black" points="317.285,-493 414.715,-493 "/>
<text text-anchor="start" x="325.285" y="-481" font-family="Helvetica,sans-Serif" font-size="10.00">+ LinkedElement()</text>
<text text-anchor="start" x="325.285" y="-471" font-family="Helvetica,sans-Serif" font-size="10.00">+ LinkedElement()</text>
<text text-anchor="start" x="325.285" y="-461" font-family="Helvetica,sans-Serif" font-size="10.00">+ child()</text>
<text text-anchor="start" x="325.285" y="-451" font-family="Helvetica,sans-Serif" font-size="10.00">+ handle_event()</text>
<text text-anchor="start" x="325.285" y="-441" font-family="Helvetica,sans-Serif" font-size="10.00">+ parent()</text>
<text text-anchor="start" x="325.285" y="-431" font-family="Helvetica,sans-Serif" font-size="10.00">+ set_child()</text>
<text text-anchor="start" x="325.285" y="-421" font-family="Helvetica,sans-Serif" font-size="10.00">+ set_parent()</text>
</g>
<!-- Node4 -->
<g id="node4" class="node"><title>Node4</title>
<g id="a_node4"><a xlink:href="classui_1_1_list.html" target="_top" xlink:title="List Class. ">
<polygon fill="none" stroke="black" points="75.3872,-163 75.3872,-377 232.613,-377 232.613,-163 75.3872,-163"/>
<text text-anchor="middle" x="154" y="-365" font-family="Helvetica,sans-Serif" font-size="10.00">ui::List</text>
<polyline fill="none" stroke="black" points="75.3872,-359 232.613,-359 "/>
<text text-anchor="start" x="83.3872" y="-347" font-family="Helvetica,sans-Serif" font-size="10.00"># m_draw_animation_item</text>
<text text-anchor="start" x="83.3872" y="-337" font-family="Helvetica,sans-Serif" font-size="10.00"># m_draw_animation_offset</text>
<text text-anchor="start" x="83.3872" y="-327" font-family="Helvetica,sans-Serif" font-size="10.00"># m_scroll_animation</text>
<text text-anchor="start" x="83.3872" y="-317" font-family="Helvetica,sans-Serif" font-size="10.00"># m_scroll_timer</text>
<text text-anchor="start" x="83.3872" y="-307" font-family="Helvetica,sans-Serif" font-size="10.00"># m_select_top_bottom</text>
<polyline fill="none" stroke="black" points="75.3872,-301 232.613,-301 "/>
<text text-anchor="start" x="83.3872" y="-289" font-family="Helvetica,sans-Serif" font-size="10.00">+ List()</text>
<text text-anchor="start" x="83.3872" y="-279" font-family="Helvetica,sans-Serif" font-size="10.00">+ at()</text>
<text text-anchor="start" x="83.3872" y="-269" font-family="Helvetica,sans-Serif" font-size="10.00">+ current()</text>
<text text-anchor="start" x="83.3872" y="-259" font-family="Helvetica,sans-Serif" font-size="10.00">+ draw_item_to_scale()</text>
<text text-anchor="start" x="83.3872" y="-249" font-family="Helvetica,sans-Serif" font-size="10.00">+ draw_to_scale()</text>
<text text-anchor="start" x="83.3872" y="-239" font-family="Helvetica,sans-Serif" font-size="10.00">+ handle_event()</text>
<text text-anchor="start" x="83.3872" y="-229" font-family="Helvetica,sans-Serif" font-size="10.00"># animate_scroll()</text>
<text text-anchor="start" x="83.3872" y="-219" font-family="Helvetica,sans-Serif" font-size="10.00"># handle_down_button</text>
<text text-anchor="start" x="83.3872" y="-209" font-family="Helvetica,sans-Serif" font-size="10.00">_actuation()</text>
<text text-anchor="start" x="83.3872" y="-199" font-family="Helvetica,sans-Serif" font-size="10.00"># handle_select_button</text>
<text text-anchor="start" x="83.3872" y="-189" font-family="Helvetica,sans-Serif" font-size="10.00">_actuation()</text>
<text text-anchor="start" x="83.3872" y="-179" font-family="Helvetica,sans-Serif" font-size="10.00"># handle_up_button_actuation()</text>
<text text-anchor="start" x="83.3872" y="-169" font-family="Helvetica,sans-Serif" font-size="10.00"># init()</text>
</a>
</g>
</g>
<!-- Node1&#45;&gt;Node4 -->
<g id="edge3" class="edge"><title>Node1&#45;&gt;Node4</title>
<path fill="none" stroke="midnightblue" d="M309.625,-417.816C286.13,-395.651 258.436,-369.525 232.972,-345.501"/>
<polygon fill="none" stroke="midnightblue" points="307.421,-420.548 317.097,-424.865 312.225,-415.457 307.421,-420.548"/>
</g>
<!-- Node7 -->
<g id="node7" class="node"><title>Node7</title>
<g id="a_node7"><a xlink:href="classui_1_1_list_item.html" target="_top" xlink:title="List Item Class. ">
<polygon fill="none" stroke="black" points="316.452,-213 316.452,-327 415.548,-327 415.548,-213 316.452,-213"/>
<text text-anchor="middle" x="366" y="-315" font-family="Helvetica,sans-Serif" font-size="10.00">ui::ListItem</text>
<polyline fill="none" stroke="black" points="316.452,-309 415.548,-309 "/>
<text text-anchor="middle" x="366" y="-297" font-family="Helvetica,sans-Serif" font-size="10.00"> </text>
<polyline fill="none" stroke="black" points="316.452,-291 415.548,-291 "/>
<text text-anchor="start" x="324.452" y="-279" font-family="Helvetica,sans-Serif" font-size="10.00">+ ListItem()</text>
<text text-anchor="start" x="324.452" y="-269" font-family="Helvetica,sans-Serif" font-size="10.00">+ draw_to_scale()</text>
<text text-anchor="start" x="324.452" y="-259" font-family="Helvetica,sans-Serif" font-size="10.00">+ handle_event()</text>
<text text-anchor="start" x="324.452" y="-249" font-family="Helvetica,sans-Serif" font-size="10.00">+ icon()</text>
<text text-anchor="start" x="324.452" y="-239" font-family="Helvetica,sans-Serif" font-size="10.00">+ icon_attr()</text>
<text text-anchor="start" x="324.452" y="-229" font-family="Helvetica,sans-Serif" font-size="10.00">+ icon_attr_const()</text>
<text text-anchor="start" x="324.452" y="-219" font-family="Helvetica,sans-Serif" font-size="10.00">and 4 more...</text>
</a>
</g>
</g>
<!-- Node1&#45;&gt;Node7 -->
<g id="edge6" class="edge"><title>Node1&#45;&gt;Node7</title>
<path fill="none" stroke="midnightblue" d="M366,-404.589C366,-379.502 366,-351.225 366,-327.167"/>
<polygon fill="none" stroke="midnightblue" points="362.5,-404.757 366,-414.757 369.5,-404.757 362.5,-404.757"/>
</g>
<!-- Node12 -->
<g id="node12" class="node"><title>Node12</title>
<g id="a_node12"><a xlink:href="classui_1_1_menu.html" target="_top" xlink:title="Menu Class. ">
<polygon fill="none" stroke="black" points="433.334,-223 433.334,-317 524.666,-317 524.666,-223 433.334,-223"/>
<text text-anchor="middle" x="479" y="-305" font-family="Helvetica,sans-Serif" font-size="10.00">ui::Menu</text>
<polyline fill="none" stroke="black" points="433.334,-299 524.666,-299 "/>
<text text-anchor="middle" x="479" y="-287" font-family="Helvetica,sans-Serif" font-size="10.00"> </text>
<polyline fill="none" stroke="black" points="433.334,-281 524.666,-281 "/>
<text text-anchor="start" x="441.334" y="-269" font-family="Helvetica,sans-Serif" font-size="10.00">+ Menu()</text>
<text text-anchor="start" x="441.334" y="-259" font-family="Helvetica,sans-Serif" font-size="10.00">+ current()</text>
<text text-anchor="start" x="441.334" y="-249" font-family="Helvetica,sans-Serif" font-size="10.00">+ draw()</text>
<text text-anchor="start" x="441.334" y="-239" font-family="Helvetica,sans-Serif" font-size="10.00">+ handle_event()</text>
<text text-anchor="start" x="441.334" y="-229" font-family="Helvetica,sans-Serif" font-size="10.00">+ set_current()</text>
</a>
</g>
</g>
<!-- Node1&#45;&gt;Node12 -->
<g id="edge11" class="edge"><title>Node1&#45;&gt;Node12</title>
<path fill="none" stroke="midnightblue" d="M407.291,-406.317C413.029,-396.893 418.751,-387.249 424,-378 435.186,-358.291 446.77,-336.068 456.405,-317.002"/>
<polygon fill="none" stroke="midnightblue" points="404.276,-404.539 402.03,-414.894 410.242,-408.2 404.276,-404.539"/>
</g>
<!-- Node2 -->
<g id="node2" class="node"><title>Node2</title>
<g id="a_node2"><a xlink:href="classui_1_1_element.html" target="_top" xlink:title="Element Class. ">
<polygon fill="none" stroke="black" points="298.386,-567 298.386,-701 433.614,-701 433.614,-567 298.386,-567"/>
<text text-anchor="middle" x="366" y="-689" font-family="Helvetica,sans-Serif" font-size="10.00">ui::Element</text>
<polyline fill="none" stroke="black" points="298.386,-683 433.614,-683 "/>
<text text-anchor="start" x="306.386" y="-671" font-family="Helvetica,sans-Serif" font-size="10.00"># m_animation_attr</text>
<polyline fill="none" stroke="black" points="298.386,-665 433.614,-665 "/>
<text text-anchor="start" x="306.386" y="-653" font-family="Helvetica,sans-Serif" font-size="10.00">+ Element()</text>
<text text-anchor="start" x="306.386" y="-643" font-family="Helvetica,sans-Serif" font-size="10.00">+ animation_attr()</text>
<text text-anchor="start" x="306.386" y="-633" font-family="Helvetica,sans-Serif" font-size="10.00">+ animation_frame_delay()</text>
<text text-anchor="start" x="306.386" y="-623" font-family="Helvetica,sans-Serif" font-size="10.00">+ animation_path()</text>
<text text-anchor="start" x="306.386" y="-613" font-family="Helvetica,sans-Serif" font-size="10.00">+ animation_type()</text>
<text text-anchor="start" x="306.386" y="-603" font-family="Helvetica,sans-Serif" font-size="10.00">+ handle_event()</text>
<text text-anchor="start" x="306.386" y="-593" font-family="Helvetica,sans-Serif" font-size="10.00">and 21 more...</text>
<text text-anchor="start" x="306.386" y="-583" font-family="Helvetica,sans-Serif" font-size="10.00"># adjust_x_center()</text>
<text text-anchor="start" x="306.386" y="-573" font-family="Helvetica,sans-Serif" font-size="10.00"># draw_scroll()</text>
</a>
</g>
</g>
<!-- Node2&#45;&gt;Node1 -->
<g id="edge1" class="edge"><title>Node2&#45;&gt;Node1</title>
<path fill="none" stroke="midnightblue" d="M366,-556.907C366,-547.558 366,-538.139 366,-529.16"/>
<polygon fill="none" stroke="midnightblue" points="362.5,-556.998 366,-566.998 369.5,-556.998 362.5,-556.998"/>
</g>
<!-- Node3 -->
<g id="node3" class="node"><title>Node3</title>
<g id="a_node3"><a xlink:href="classdraw_1_1_drawing.html" target="_top" xlink:title="Drawing Class. ">
<polygon fill="none" stroke="black" points="306.447,-739 306.447,-963 425.553,-963 425.553,-739 306.447,-739"/>
<text text-anchor="middle" x="366" y="-951" font-family="Helvetica,sans-Serif" font-size="10.00">draw::Drawing</text>
<polyline fill="none" stroke="black" points="306.447,-945 425.553,-945 "/>
<text text-anchor="middle" x="366" y="-933" font-family="Helvetica,sans-Serif" font-size="10.00"> </text>
<polyline fill="none" stroke="black" points="306.447,-927 425.553,-927 "/>
<text text-anchor="start" x="314.447" y="-915" font-family="Helvetica,sans-Serif" font-size="10.00">+ Drawing()</text>
<text text-anchor="start" x="314.447" y="-905" font-family="Helvetica,sans-Serif" font-size="10.00">+ dark()</text>
<text text-anchor="start" x="314.447" y="-895" font-family="Helvetica,sans-Serif" font-size="10.00">+ draw()</text>
<text text-anchor="start" x="314.447" y="-885" font-family="Helvetica,sans-Serif" font-size="10.00">+ draw()</text>
<text text-anchor="start" x="314.447" y="-875" font-family="Helvetica,sans-Serif" font-size="10.00">+ draw_scratch()</text>
<text text-anchor="start" x="314.447" y="-865" font-family="Helvetica,sans-Serif" font-size="10.00">+ draw_to_scale()</text>
<text text-anchor="start" x="314.447" y="-855" font-family="Helvetica,sans-Serif" font-size="10.00">and 18 more...</text>
<text text-anchor="start" x="314.447" y="-845" font-family="Helvetica,sans-Serif" font-size="10.00">+ clear()</text>
<text text-anchor="start" x="314.447" y="-835" font-family="Helvetica,sans-Serif" font-size="10.00">+ draw_checkerboard()</text>
<text text-anchor="start" x="314.447" y="-825" font-family="Helvetica,sans-Serif" font-size="10.00">+ draw_pattern()</text>
<text text-anchor="start" x="314.447" y="-815" font-family="Helvetica,sans-Serif" font-size="10.00">+ h()</text>
<text text-anchor="start" x="314.447" y="-805" font-family="Helvetica,sans-Serif" font-size="10.00">+ height()</text>
<text text-anchor="start" x="314.447" y="-795" font-family="Helvetica,sans-Serif" font-size="10.00">+ invert()</text>
<text text-anchor="start" x="314.447" y="-785" font-family="Helvetica,sans-Serif" font-size="10.00">and 4 more...</text>
<text text-anchor="start" x="314.447" y="-775" font-family="Helvetica,sans-Serif" font-size="10.00"># dim_on_bitmap()</text>
<text text-anchor="start" x="314.447" y="-765" font-family="Helvetica,sans-Serif" font-size="10.00"># flag()</text>
<text text-anchor="start" x="314.447" y="-755" font-family="Helvetica,sans-Serif" font-size="10.00"># point_on_bitmap()</text>
<text text-anchor="start" x="314.447" y="-745" font-family="Helvetica,sans-Serif" font-size="10.00"># set_flag()</text>
</a>
</g>
</g>
<!-- Node3&#45;&gt;Node2 -->
<g id="edge2" class="edge"><title>Node3&#45;&gt;Node2</title>
<path fill="none" stroke="midnightblue" d="M366,-728.544C366,-719.204 366,-710.007 366,-701.241"/>
<polygon fill="none" stroke="midnightblue" points="362.5,-728.721 366,-738.721 369.5,-728.721 362.5,-728.721"/>
</g>
<!-- Node5 -->
<g id="node5" class="node"><title>Node5</title>
<g id="a_node5"><a xlink:href="classui_1_1_list_dir.html" target="_top" xlink:title="Directory List Class. ">
<polygon fill="none" stroke="black" points="-0.375488,-1 -0.375488,-125 100.375,-125 100.375,-1 -0.375488,-1"/>
<text text-anchor="middle" x="50" y="-113" font-family="Helvetica,sans-Serif" font-size="10.00">ui::ListDir</text>
<polyline fill="none" stroke="black" points="-0.375488,-107 100.375,-107 "/>
<text text-anchor="middle" x="50" y="-95" font-family="Helvetica,sans-Serif" font-size="10.00"> </text>
<polyline fill="none" stroke="black" points="-0.375488,-89 100.375,-89 "/>
<text text-anchor="start" x="7.62451" y="-77" font-family="Helvetica,sans-Serif" font-size="10.00">+ ListDir()</text>
<text text-anchor="start" x="7.62451" y="-67" font-family="Helvetica,sans-Serif" font-size="10.00">+ ~ListDir()</text>
<text text-anchor="start" x="7.62451" y="-57" font-family="Helvetica,sans-Serif" font-size="10.00">+ at()</text>
<text text-anchor="start" x="7.62451" y="-47" font-family="Helvetica,sans-Serif" font-size="10.00">+ dir()</text>
<text text-anchor="start" x="7.62451" y="-37" font-family="Helvetica,sans-Serif" font-size="10.00">+ handle_event()</text>
<text text-anchor="start" x="7.62451" y="-27" font-family="Helvetica,sans-Serif" font-size="10.00">+ is_suffix_visible()</text>
<text text-anchor="start" x="7.62451" y="-17" font-family="Helvetica,sans-Serif" font-size="10.00">and 6 more...</text>
<text text-anchor="start" x="7.62451" y="-7" font-family="Helvetica,sans-Serif" font-size="10.00"># set_size()</text>
</a>
</g>
</g>
<!-- Node4&#45;&gt;Node5 -->
<g id="edge4" class="edge"><title>Node4&#45;&gt;Node5</title>
<path fill="none" stroke="midnightblue" d="M95.5838,-153.853C90.606,-144.041 85.708,-134.386 81.0758,-125.255"/>
<polygon fill="none" stroke="midnightblue" points="92.5266,-155.563 100.172,-162.897 98.7692,-152.396 92.5266,-155.563"/>
</g>
<!-- Node6 -->
<g id="node6" class="node"><title>Node6</title>
<g id="a_node6"><a xlink:href="classui_1_1_menu_list.html" target="_top" xlink:title="Menu List Class. ">
<polygon fill="none" stroke="black" points="118.073,-21 118.073,-105 189.927,-105 189.927,-21 118.073,-21"/>
<text text-anchor="middle" x="154" y="-93" font-family="Helvetica,sans-Serif" font-size="10.00">ui::MenuList</text>
<polyline fill="none" stroke="black" points="118.073,-87 189.927,-87 "/>
<text text-anchor="middle" x="154" y="-75" font-family="Helvetica,sans-Serif" font-size="10.00"> </text>
<polyline fill="none" stroke="black" points="118.073,-69 189.927,-69 "/>
<text text-anchor="start" x="126.073" y="-57" font-family="Helvetica,sans-Serif" font-size="10.00">+ MenuList()</text>
<text text-anchor="start" x="126.073" y="-47" font-family="Helvetica,sans-Serif" font-size="10.00">+ at()</text>
<text text-anchor="start" x="126.073" y="-37" font-family="Helvetica,sans-Serif" font-size="10.00">+ back()</text>
<text text-anchor="start" x="126.073" y="-27" font-family="Helvetica,sans-Serif" font-size="10.00">+ size()</text>
</a>
</g>
</g>
<!-- Node4&#45;&gt;Node6 -->
<g id="edge5" class="edge"><title>Node4&#45;&gt;Node6</title>
<path fill="none" stroke="midnightblue" d="M154,-152.829C154,-135.806 154,-119.294 154,-105.219"/>
<polygon fill="none" stroke="midnightblue" points="150.5,-152.897 154,-162.897 157.5,-152.897 150.5,-152.897"/>
</g>
<!-- Node8 -->
<g id="node8" class="node"><title>Node8</title>
<g id="a_node8"><a xlink:href="classui_1_1_info_list_item.html" target="_top" xlink:title="List Item Info Class. ">
<polygon fill="none" stroke="black" points="208.12,-6 208.12,-120 303.88,-120 303.88,-6 208.12,-6"/>
<text text-anchor="middle" x="256" y="-108" font-family="Helvetica,sans-Serif" font-size="10.00">ui::InfoListItem</text>
<polyline fill="none" stroke="black" points="208.12,-102 303.88,-102 "/>
<text text-anchor="middle" x="256" y="-90" font-family="Helvetica,sans-Serif" font-size="10.00"> </text>
<polyline fill="none" stroke="black" points="208.12,-84 303.88,-84 "/>
<text text-anchor="start" x="216.12" y="-72" font-family="Helvetica,sans-Serif" font-size="10.00">+ InfoListItem()</text>
<text text-anchor="start" x="216.12" y="-62" font-family="Helvetica,sans-Serif" font-size="10.00">+ InfoListItem()</text>
<text text-anchor="start" x="216.12" y="-52" font-family="Helvetica,sans-Serif" font-size="10.00">+ draw_to_scale()</text>
<text text-anchor="start" x="216.12" y="-42" font-family="Helvetica,sans-Serif" font-size="10.00">+ handle_event()</text>
<text text-anchor="start" x="216.12" y="-32" font-family="Helvetica,sans-Serif" font-size="10.00">+ label()</text>
<text text-anchor="start" x="216.12" y="-22" font-family="Helvetica,sans-Serif" font-size="10.00">+ set()</text>
<text text-anchor="start" x="216.12" y="-12" font-family="Helvetica,sans-Serif" font-size="10.00">+ value()</text>
</a>
</g>
</g>
<!-- Node7&#45;&gt;Node8 -->
<g id="edge7" class="edge"><title>Node7&#45;&gt;Node8</title>
<path fill="none" stroke="midnightblue" d="M331.136,-204.026C316.701,-177.125 300.12,-146.224 286.213,-120.305"/>
<polygon fill="none" stroke="midnightblue" points="328.13,-205.826 335.942,-212.983 334.298,-202.516 328.13,-205.826"/>
</g>
<!-- Node9 -->
<g id="node9" class="node"><title>Node9</title>
<g id="a_node9"><a xlink:href="classui_1_1_list_item_back.html" target="_top" xlink:title="List Item Back Entry. ">
<polygon fill="none" stroke="black" points="321.74,-36 321.74,-90 410.26,-90 410.26,-36 321.74,-36"/>
<text text-anchor="middle" x="366" y="-78" font-family="Helvetica,sans-Serif" font-size="10.00">ui::ListItemBack</text>
<polyline fill="none" stroke="black" points="321.74,-72 410.26,-72 "/>
<text text-anchor="middle" x="366" y="-60" font-family="Helvetica,sans-Serif" font-size="10.00"> </text>
<polyline fill="none" stroke="black" points="321.74,-54 410.26,-54 "/>
<text text-anchor="start" x="329.74" y="-42" font-family="Helvetica,sans-Serif" font-size="10.00">+ ListItemBack()</text>
</a>
</g>
</g>
<!-- Node7&#45;&gt;Node9 -->
<g id="edge8" class="edge"><title>Node7&#45;&gt;Node9</title>
<path fill="none" stroke="midnightblue" d="M366,-202.898C366,-164.51 366,-118.296 366,-90.0414"/>
<polygon fill="none" stroke="midnightblue" points="362.5,-202.983 366,-212.983 369.5,-202.983 362.5,-202.983"/>
</g>
<!-- Node10 -->
<g id="node10" class="node"><title>Node10</title>
<g id="a_node10"><a xlink:href="classui_1_1_list_item_check.html" target="_top" xlink:title="List Item Check (for use in a checklist) ">
<polygon fill="none" stroke="black" points="428.684,-21 428.684,-105 523.316,-105 523.316,-21 428.684,-21"/>
<text text-anchor="middle" x="476" y="-93" font-family="Helvetica,sans-Serif" font-size="10.00">ui::ListItemCheck</text>
<polyline fill="none" stroke="black" points="428.684,-87 523.316,-87 "/>
<text text-anchor="middle" x="476" y="-75" font-family="Helvetica,sans-Serif" font-size="10.00"> </text>
<polyline fill="none" stroke="black" points="428.684,-69 523.316,-69 "/>
<text text-anchor="start" x="436.684" y="-57" font-family="Helvetica,sans-Serif" font-size="10.00">+ ListItemCheck()</text>
<text text-anchor="start" x="436.684" y="-47" font-family="Helvetica,sans-Serif" font-size="10.00">+ ListItemCheck()</text>
<text text-anchor="start" x="436.684" y="-37" font-family="Helvetica,sans-Serif" font-size="10.00">+ handle_event()</text>
<text text-anchor="start" x="436.684" y="-27" font-family="Helvetica,sans-Serif" font-size="10.00">+ set_enabled()</text>
</a>
</g>
</g>
<!-- Node7&#45;&gt;Node10 -->
<g id="edge9" class="edge"><title>Node7&#45;&gt;Node10</title>
<path fill="none" stroke="midnightblue" d="M400.861,-204.032C418.205,-171.708 438.65,-133.607 453.831,-105.315"/>
<polygon fill="none" stroke="midnightblue" points="397.702,-202.516 396.058,-212.983 403.87,-205.826 397.702,-202.516"/>
</g>
<!-- Node11 -->
<g id="node11" class="node"><title>Node11</title>
<g id="a_node11"><a xlink:href="classui_1_1_list_item_toggle.html" target="_top" xlink:title="Toggle Item. ">
<polygon fill="none" stroke="black" points="540.928,-16 540.928,-110 685.072,-110 685.072,-16 540.928,-16"/>
<text text-anchor="middle" x="613" y="-98" font-family="Helvetica,sans-Serif" font-size="10.00">ui::ListItemToggle</text>
<polyline fill="none" stroke="black" points="540.928,-92 685.072,-92 "/>
<text text-anchor="middle" x="613" y="-80" font-family="Helvetica,sans-Serif" font-size="10.00"> </text>
<polyline fill="none" stroke="black" points="540.928,-74 685.072,-74 "/>
<text text-anchor="start" x="548.928" y="-62" font-family="Helvetica,sans-Serif" font-size="10.00">+ ListItemToggle()</text>
<text text-anchor="start" x="548.928" y="-52" font-family="Helvetica,sans-Serif" font-size="10.00">+ handle_event()</text>
<text text-anchor="start" x="548.928" y="-42" font-family="Helvetica,sans-Serif" font-size="10.00">+ set_enabled()</text>
<text text-anchor="start" x="548.928" y="-32" font-family="Helvetica,sans-Serif" font-size="10.00">+ set_toggle_disabled_icon()</text>
<text text-anchor="start" x="548.928" y="-22" font-family="Helvetica,sans-Serif" font-size="10.00">+ set_toggle_enabled_icon()</text>
</a>
</g>
</g>
<!-- Node7&#45;&gt;Node11 -->
<g id="edge10" class="edge"><title>Node7&#45;&gt;Node11</title>
<path fill="none" stroke="midnightblue" d="M391.328,-203.755C399.805,-188.391 410.602,-173.237 424,-162 462.766,-129.486 487.298,-149.702 532,-126 540.605,-121.437 549.252,-115.973 557.525,-110.206"/>
<polygon fill="none" stroke="midnightblue" points="388.132,-202.314 386.602,-212.797 394.336,-205.556 388.132,-202.314"/>
</g>
</g>
</svg>
        <g id="navigator" transform="translate(0 0)" fill="#404254">
                <rect fill="#f2f5e9" fill-opacity="0.5" stroke="#606060" stroke-width=".5" x="0" y="0" width="60" height="60"/>
                <use id="zoomplus" xlink:href="#zoomPlus" x="17" y="9" onmousedown="handleZoom(evt,'in')"/>
                <use id="zoomminus" xlink:href="#zoomMin" x="42" y="9" onmousedown="handleZoom(evt,'out')"/>
                <use id="reset" xlink:href="#resetDef" x="30" y="36" onmousedown="handleReset()"/>
                <g id="arrowUp" xlink:href="#dirArrow" transform="translate(30 24)" onmousedown="handlePan(0,-1)">
                  <use xlink:href="#rim" fill="#404040">
                        <set attributeName="fill" to="#808080" begin="arrowUp.mouseover" end="arrowUp.mouseout"/>
                  </use>
                  <path fill="none" stroke="white" stroke-width="1.5" d="M0,-3.0v7 M-2.5,-0.5L0,-3.0L2.5,-0.5"/>
                </g>
                <g id="arrowRight" xlink:href="#dirArrow" transform="rotate(90) translate(36 -43)" onmousedown="handlePan(1,0)">
                  <use xlink:href="#rim" fill="#404040">
                        <set attributeName="fill" to="#808080" begin="arrowRight.mouseover" end="arrowRight.mouseout"/>
                  </use>
                  <path fill="none" stroke="white" stroke-width="1.5" d="M0,-3.0v7 M-2.5,-0.5L0,-3.0L2.5,-0.5"/>
                </g>
                <g id="arrowDown" xlink:href="#dirArrow" transform="rotate(180) translate(-30 -48)" onmousedown="handlePan(0,1)">
                  <use xlink:href="#rim" fill="#404040">
                        <set attributeName="fill" to="#808080" begin="arrowDown.mouseover" end="arrowDown.mouseout"/>
                  </use>
                  <path fill="none" stroke="white" stroke-width="1.5" d="M0,-3.0v7 M-2.5,-0.5L0,-3.0L2.5,-0.5"/>
                </g>
                <g id="arrowLeft" xlink:href="#dirArrow" transform="rotate(270) translate(-36 17)" onmousedown="handlePan(-1,0)">
                  <use xlink:href="#rim" fill="#404040">
                        <set attributeName="fill" to="#808080" begin="arrowLeft.mouseover" end="arrowLeft.mouseout"/>
                  </use>
                  <path fill="none" stroke="white" stroke-width="1.5" d="M0,-3.0v7 M-2.5,-0.5L0,-3.0L2.5,-0.5"/>
                </g>
        </g>
        <svg viewBox="0 0 15 15" width="100%" height="30px" preserveAspectRatio="xMaxYMin meet">
         <g id="arrow_out" transform="scale(0.3 0.3)">
          <a xlink:href="classui_1_1_linked_element__inherit__graph_org.svg" target="_base">
           <rect id="button" ry="5" rx="5" y="6" x="6" height="38" width="38"
                fill="#f2f5e9" fill-opacity="0.5" stroke="#606060" stroke-width="1.0"/>
           <path id="arrow"
             d="M 11.500037,31.436501 C 11.940474,20.09759 22.043105,11.32322 32.158766,21.979434 L 37.068811,17.246167 C 37.068811,17.246167 37.088388,32 37.088388,32 L 22.160133,31.978069 C 22.160133,31.978069 26.997745,27.140456 26.997745,27.140456 C 18.528582,18.264221 13.291696,25.230495 11.500037,31.436501 z"
             style="fill:#404040;"/>
          </a>
         </g>
        </svg>
</svg>
