<?xml version="1.0" encoding="UTF-8" standalone="no"?>
<!DOCTYPE svg PUBLIC "-//W3C//DTD SVG 1.1//EN"
 "http://www.w3.org/Graphics/SVG/1.1/DTD/svg11.dtd">
<!-- Generated by graphviz version 2.36.0 (20140111.2315)
 -->
<!-- Title: hal::PinAssignment&lt; pin_assignment_type &gt; Pages: 1 -->
<!--zoomable 722 -->
<svg id="main" version="1.1" xmlns="http://www.w3.org/2000/svg" xmlns:xlink="http://www.w3.org/1999/xlink" xml:space="preserve" onload="init(evt)">
<style type="text/css"><![CDATA[
.edge:hover path { stroke: red; }
.edge:hover polygon { stroke: red; fill: red; }
]]></style>
<script type="text/javascript"><![CDATA[
var edges = document.getElementsByTagName('g');
if (edges && edges.length) {
  for (var i=0;i<edges.length;i++) {
    if (edges[i].id.substr(0,4)=='edge') {
      edges[i].setAttribute('class','edge');
    }
  }
}
]]></script>
        <defs>
                <circle id="rim" cx="0" cy="0" r="7"/>
                <circle id="rim2" cx="0" cy="0" r="3.5"/>
                <g id="zoomPlus">
                        <use xlink:href="#rim" fill="#404040">
                                <set attributeName="fill" to="#808080" begin="zoomplus.mouseover" end="zoomplus.mouseout"/>
                        </use>
                        <path d="M-4,0h8M0,-4v8" fill="none" stroke="white" stroke-width="1.5" pointer-events="none"/>
                </g>
                <g id="zoomMin">
                        <use xlink:href="#rim" fill="#404040">
                                <set attributeName="fill" to="#808080" begin="zoomminus.mouseover" end="zoomminus.mouseout"/>
                        </use>
                        <path d="M-4,0h8" fill="none" stroke="white" stroke-width="1.5" pointer-events="none"/>
                </g>
                <g id="dirArrow">
                        <path fill="none" stroke="white" stroke-width="1.5" d="M0,-3.0v7 M-2.5,-0.5L0,-3.0L2.5,-0.5"/>
                </g>
               <g id="resetDef">
                       <use xlink:href="#rim2" fill="#404040">
                               <set attributeName="fill" to="#808080" begin="reset.mouseover" end="reset.mouseout"/>
                       </use>
               </g>
        </defs>

<script type="text/javascript">
var viewWidth = 1497;
var viewHeight = 722;
var sectionId = 'dynsection-0';
</script>
<script xlink:href="svgpan.js"/>
<svg id="graph" class="graph">
<g id="viewport">
<title>hal::PinAssignment&lt; pin_assignment_type &gt;</title>
<!-- Node1 -->
<g id="node1" class="node"><title>Node1</title>
<polygon fill="#bfbfbf" stroke="black" points="678.128,-287 678.128,-431 805.872,-431 805.872,-287 678.128,-287"/>
<text text-anchor="start" x="686.128" y="-419" font-family="Helvetica,sans-Serif" font-size="10.00">hal::PinAssignment</text>
<text text-anchor="middle" x="742" y="-409" font-family="Helvetica,sans-Serif" font-size="10.00">&lt; pin_assignment_type &gt;</text>
<polyline fill="none" stroke="black" points="678.128,-403 805.872,-403 "/>
<text text-anchor="middle" x="742" y="-391" font-family="Helvetica,sans-Serif" font-size="10.00"> </text>
<polyline fill="none" stroke="black" points="678.128,-385 805.872,-385 "/>
<text text-anchor="start" x="686.128" y="-373" font-family="Helvetica,sans-Serif" font-size="10.00">+ PinAssignment()</text>
<text text-anchor="start" x="686.128" y="-363" font-family="Helvetica,sans-Serif" font-size="10.00">+ assign()</text>
<text text-anchor="start" x="686.128" y="-353" font-family="Helvetica,sans-Serif" font-size="10.00">+ clear()</text>
<text text-anchor="start" x="686.128" y="-343" font-family="Helvetica,sans-Serif" font-size="10.00">+ copy()</text>
<text text-anchor="start" x="686.128" y="-333" font-family="Helvetica,sans-Serif" font-size="10.00">+ count()</text>
<text text-anchor="start" x="686.128" y="-323" font-family="Helvetica,sans-Serif" font-size="10.00">+ operator const pin</text>
<text text-anchor="start" x="686.128" y="-313" font-family="Helvetica,sans-Serif" font-size="10.00">_assignment_type *()</text>
<text text-anchor="start" x="686.128" y="-303" font-family="Helvetica,sans-Serif" font-size="10.00">+ operator&#45;&gt;()</text>
<text text-anchor="start" x="686.128" y="-293" font-family="Helvetica,sans-Serif" font-size="10.00">+ size()</text>
</g>
<!-- Node5 -->
<g id="node5" class="node"><title>Node5</title>
<g id="a_node5"><a xlink:href="classhal_1_1_pin_assignment.html" target="_top" xlink:title="{hal::PinAssignment\l\&lt; i2s_pin_assignment_t \&gt;\n||+ PinAssignment()\l+ assign()\l+ clear()\l+ copy()\l+ count()\l+ operator const i2s\l_pin_assignment_t *()\l+ operator&#45;\&gt;()\l+ size()\l}">
<polygon fill="none" stroke="black" points="-0.982422,-95 -0.982422,-239 128.982,-239 128.982,-95 -0.982422,-95"/>
<text text-anchor="start" x="7.01758" y="-227" font-family="Helvetica,sans-Serif" font-size="10.00">hal::PinAssignment</text>
<text text-anchor="middle" x="64" y="-217" font-family="Helvetica,sans-Serif" font-size="10.00">&lt; i2s_pin_assignment_t &gt;</text>
<polyline fill="none" stroke="black" points="-0.982422,-211 128.982,-211 "/>
<text text-anchor="middle" x="64" y="-199" font-family="Helvetica,sans-Serif" font-size="10.00"> </text>
<polyline fill="none" stroke="black" points="-0.982422,-193 128.982,-193 "/>
<text text-anchor="start" x="7.01758" y="-181" font-family="Helvetica,sans-Serif" font-size="10.00">+ PinAssignment()</text>
<text text-anchor="start" x="7.01758" y="-171" font-family="Helvetica,sans-Serif" font-size="10.00">+ assign()</text>
<text text-anchor="start" x="7.01758" y="-161" font-family="Helvetica,sans-Serif" font-size="10.00">+ clear()</text>
<text text-anchor="start" x="7.01758" y="-151" font-family="Helvetica,sans-Serif" font-size="10.00">+ copy()</text>
<text text-anchor="start" x="7.01758" y="-141" font-family="Helvetica,sans-Serif" font-size="10.00">+ count()</text>
<text text-anchor="start" x="7.01758" y="-131" font-family="Helvetica,sans-Serif" font-size="10.00">+ operator const i2s</text>
<text text-anchor="start" x="7.01758" y="-121" font-family="Helvetica,sans-Serif" font-size="10.00">_pin_assignment_t *()</text>
<text text-anchor="start" x="7.01758" y="-111" font-family="Helvetica,sans-Serif" font-size="10.00">+ operator&#45;&gt;()</text>
<text text-anchor="start" x="7.01758" y="-101" font-family="Helvetica,sans-Serif" font-size="10.00">+ size()</text>
</a>
</g>
</g>
<!-- Node1&#45;&gt;Node5 -->
<g id="edge4" class="edge"><title>Node1&#45;&gt;Node5</title>
<path fill="none" stroke="orange" d="M668.054,-353.075C529.974,-342.853 238.969,-316.176 151.257,-268 137.827,-260.624 125.486,-250.332 114.575,-239.137"/>
<polygon fill="orange" stroke="orange" points="667.899,-356.573 678.128,-353.812 668.41,-349.592 667.899,-356.573"/>
<text text-anchor="middle" x="210.372" y="-260" font-family="Helvetica,sans-Serif" font-size="10.00"> &lt; i2s_pin_assignment_t &gt;</text>
</g>
<!-- Node7 -->
<g id="node7" class="node"><title>Node7</title>
<g id="a_node7"><a xlink:href="classhal_1_1_pin_assignment.html" target="_top" xlink:title="{hal::PinAssignment\l\&lt; usb_pin_assignment_t \&gt;\n||+ PinAssignment()\l+ assign()\l+ clear()\l+ copy()\l+ count()\l+ operator const usb\l_pin_assignment_t *()\l+ operator&#45;\&gt;()\l+ size()\l}">
<polygon fill="none" stroke="black" points="147.348,-95 147.348,-239 280.652,-239 280.652,-95 147.348,-95"/>
<text text-anchor="start" x="155.348" y="-227" font-family="Helvetica,sans-Serif" font-size="10.00">hal::PinAssignment</text>
<text text-anchor="middle" x="214" y="-217" font-family="Helvetica,sans-Serif" font-size="10.00">&lt; usb_pin_assignment_t &gt;</text>
<polyline fill="none" stroke="black" points="147.348,-211 280.652,-211 "/>
<text text-anchor="middle" x="214" y="-199" font-family="Helvetica,sans-Serif" font-size="10.00"> </text>
<polyline fill="none" stroke="black" points="147.348,-193 280.652,-193 "/>
<text text-anchor="start" x="155.348" y="-181" font-family="Helvetica,sans-Serif" font-size="10.00">+ PinAssignment()</text>
<text text-anchor="start" x="155.348" y="-171" font-family="Helvetica,sans-Serif" font-size="10.00">+ assign()</text>
<text text-anchor="start" x="155.348" y="-161" font-family="Helvetica,sans-Serif" font-size="10.00">+ clear()</text>
<text text-anchor="start" x="155.348" y="-151" font-family="Helvetica,sans-Serif" font-size="10.00">+ copy()</text>
<text text-anchor="start" x="155.348" y="-141" font-family="Helvetica,sans-Serif" font-size="10.00">+ count()</text>
<text text-anchor="start" x="155.348" y="-131" font-family="Helvetica,sans-Serif" font-size="10.00">+ operator const usb</text>
<text text-anchor="start" x="155.348" y="-121" font-family="Helvetica,sans-Serif" font-size="10.00">_pin_assignment_t *()</text>
<text text-anchor="start" x="155.348" y="-111" font-family="Helvetica,sans-Serif" font-size="10.00">+ operator&#45;&gt;()</text>
<text text-anchor="start" x="155.348" y="-101" font-family="Helvetica,sans-Serif" font-size="10.00">+ size()</text>
</a>
</g>
</g>
<!-- Node1&#45;&gt;Node7 -->
<g id="edge6" class="edge"><title>Node1&#45;&gt;Node7</title>
<path fill="none" stroke="orange" d="M667.815,-350.136C555.103,-337.077 347.23,-308.309 284.917,-268 273.212,-260.428 262.854,-250.185 253.92,-239.132"/>
<polygon fill="orange" stroke="orange" points="667.752,-353.651 678.085,-351.313 668.549,-346.697 667.752,-353.651"/>
<text text-anchor="middle" x="345.042" y="-260" font-family="Helvetica,sans-Serif" font-size="10.00"> &lt; usb_pin_assignment_t &gt;</text>
</g>
<!-- Node9 -->
<g id="node9" class="node"><title>Node9</title>
<g id="a_node9"><a xlink:href="classhal_1_1_pin_assignment.html" target="_top" xlink:title="{hal::PinAssignment\l\&lt; eint_pin_assignment_t \&gt;\n||+ PinAssignment()\l+ assign()\l+ clear()\l+ copy()\l+ count()\l+ operator const eint\l_pin_assignment_t *()\l+ operator&#45;\&gt;()\l+ size()\l}">
<polygon fill="none" stroke="black" points="298.348,-95 298.348,-239 431.652,-239 431.652,-95 298.348,-95"/>
<text text-anchor="start" x="306.348" y="-227" font-family="Helvetica,sans-Serif" font-size="10.00">hal::PinAssignment</text>
<text text-anchor="middle" x="365" y="-217" font-family="Helvetica,sans-Serif" font-size="10.00">&lt; eint_pin_assignment_t &gt;</text>
<polyline fill="none" stroke="black" points="298.348,-211 431.652,-211 "/>
<text text-anchor="middle" x="365" y="-199" font-family="Helvetica,sans-Serif" font-size="10.00"> </text>
<polyline fill="none" stroke="black" points="298.348,-193 431.652,-193 "/>
<text text-anchor="start" x="306.348" y="-181" font-family="Helvetica,sans-Serif" font-size="10.00">+ PinAssignment()</text>
<text text-anchor="start" x="306.348" y="-171" font-family="Helvetica,sans-Serif" font-size="10.00">+ assign()</text>
<text text-anchor="start" x="306.348" y="-161" font-family="Helvetica,sans-Serif" font-size="10.00">+ clear()</text>
<text text-anchor="start" x="306.348" y="-151" font-family="Helvetica,sans-Serif" font-size="10.00">+ copy()</text>
<text text-anchor="start" x="306.348" y="-141" font-family="Helvetica,sans-Serif" font-size="10.00">+ count()</text>
<text text-anchor="start" x="306.348" y="-131" font-family="Helvetica,sans-Serif" font-size="10.00">+ operator const eint</text>
<text text-anchor="start" x="306.348" y="-121" font-family="Helvetica,sans-Serif" font-size="10.00">_pin_assignment_t *()</text>
<text text-anchor="start" x="306.348" y="-111" font-family="Helvetica,sans-Serif" font-size="10.00">+ operator&#45;&gt;()</text>
<text text-anchor="start" x="306.348" y="-101" font-family="Helvetica,sans-Serif" font-size="10.00">+ size()</text>
</a>
</g>
</g>
<!-- Node1&#45;&gt;Node9 -->
<g id="edge8" class="edge"><title>Node1&#45;&gt;Node9</title>
<path fill="none" stroke="orange" d="M667.778,-354.203C596.406,-347.001 489.012,-326.421 416.917,-268 407.19,-260.118 399.082,-249.927 392.391,-239.074"/>
<polygon fill="orange" stroke="orange" points="667.754,-357.716 678.039,-355.172 668.412,-350.747 667.754,-357.716"/>
<text text-anchor="middle" x="477.042" y="-260" font-family="Helvetica,sans-Serif" font-size="10.00"> &lt; eint_pin_assignment_t &gt;</text>
</g>
<!-- Node11 -->
<g id="node11" class="node"><title>Node11</title>
<g id="a_node11"><a xlink:href="classhal_1_1_pin_assignment.html" target="_top" xlink:title="{hal::PinAssignment\l\&lt; adc_pin_assignment_t \&gt;\n||+ PinAssignment()\l+ assign()\l+ clear()\l+ copy()\l+ count()\l+ operator const adc\l_pin_assignment_t *()\l+ operator&#45;\&gt;()\l+ size()\l}">
<polygon fill="none" stroke="black" points="449.348,-95 449.348,-239 582.652,-239 582.652,-95 449.348,-95"/>
<text text-anchor="start" x="457.348" y="-227" font-family="Helvetica,sans-Serif" font-size="10.00">hal::PinAssignment</text>
<text text-anchor="middle" x="516" y="-217" font-family="Helvetica,sans-Serif" font-size="10.00">&lt; adc_pin_assignment_t &gt;</text>
<polyline fill="none" stroke="black" points="449.348,-211 582.652,-211 "/>
<text text-anchor="middle" x="516" y="-199" font-family="Helvetica,sans-Serif" font-size="10.00"> </text>
<polyline fill="none" stroke="black" points="449.348,-193 582.652,-193 "/>
<text text-anchor="start" x="457.348" y="-181" font-family="Helvetica,sans-Serif" font-size="10.00">+ PinAssignment()</text>
<text text-anchor="start" x="457.348" y="-171" font-family="Helvetica,sans-Serif" font-size="10.00">+ assign()</text>
<text text-anchor="start" x="457.348" y="-161" font-family="Helvetica,sans-Serif" font-size="10.00">+ clear()</text>
<text text-anchor="start" x="457.348" y="-151" font-family="Helvetica,sans-Serif" font-size="10.00">+ copy()</text>
<text text-anchor="start" x="457.348" y="-141" font-family="Helvetica,sans-Serif" font-size="10.00">+ count()</text>
<text text-anchor="start" x="457.348" y="-131" font-family="Helvetica,sans-Serif" font-size="10.00">+ operator const adc</text>
<text text-anchor="start" x="457.348" y="-121" font-family="Helvetica,sans-Serif" font-size="10.00">_pin_assignment_t *()</text>
<text text-anchor="start" x="457.348" y="-111" font-family="Helvetica,sans-Serif" font-size="10.00">+ operator&#45;&gt;()</text>
<text text-anchor="start" x="457.348" y="-101" font-family="Helvetica,sans-Serif" font-size="10.00">+ size()</text>
</a>
</g>
</g>
<!-- Node1&#45;&gt;Node11 -->
<g id="edge10" class="edge"><title>Node1&#45;&gt;Node11</title>
<path fill="none" stroke="orange" d="M668.259,-340.009C627.308,-326.496 578.423,-303.98 546.917,-268 539.614,-259.66 534.037,-249.617 529.776,-239.156"/>
<polygon fill="orange" stroke="orange" points="667.352,-343.393 677.942,-343.087 669.473,-336.722 667.352,-343.393"/>
<text text-anchor="middle" x="607.042" y="-260" font-family="Helvetica,sans-Serif" font-size="10.00"> &lt; adc_pin_assignment_t &gt;</text>
</g>
<!-- Node13 -->
<g id="node13" class="node"><title>Node13</title>
<g id="a_node13"><a xlink:href="classhal_1_1_pin_assignment.html" target="_top" xlink:title="{hal::PinAssignment\l\&lt; uart_pin_assignment_t \&gt;\n||+ PinAssignment()\l+ assign()\l+ clear()\l+ copy()\l+ count()\l+ operator const uart\l_pin_assignment_t *()\l+ operator&#45;\&gt;()\l+ size()\l}">
<polygon fill="none" stroke="black" points="600.793,-95 600.793,-239 735.207,-239 735.207,-95 600.793,-95"/>
<text text-anchor="start" x="608.793" y="-227" font-family="Helvetica,sans-Serif" font-size="10.00">hal::PinAssignment</text>
<text text-anchor="middle" x="668" y="-217" font-family="Helvetica,sans-Serif" font-size="10.00">&lt; uart_pin_assignment_t &gt;</text>
<polyline fill="none" stroke="black" points="600.793,-211 735.207,-211 "/>
<text text-anchor="middle" x="668" y="-199" font-family="Helvetica,sans-Serif" font-size="10.00"> </text>
<polyline fill="none" stroke="black" points="600.793,-193 735.207,-193 "/>
<text text-anchor="start" x="608.793" y="-181" font-family="Helvetica,sans-Serif" font-size="10.00">+ PinAssignment()</text>
<text text-anchor="start" x="608.793" y="-171" font-family="Helvetica,sans-Serif" font-size="10.00">+ assign()</text>
<text text-anchor="start" x="608.793" y="-161" font-family="Helvetica,sans-Serif" font-size="10.00">+ clear()</text>
<text text-anchor="start" x="608.793" y="-151" font-family="Helvetica,sans-Serif" font-size="10.00">+ copy()</text>
<text text-anchor="start" x="608.793" y="-141" font-family="Helvetica,sans-Serif" font-size="10.00">+ count()</text>
<text text-anchor="start" x="608.793" y="-131" font-family="Helvetica,sans-Serif" font-size="10.00">+ operator const uart</text>
<text text-anchor="start" x="608.793" y="-121" font-family="Helvetica,sans-Serif" font-size="10.00">_pin_assignment_t *()</text>
<text text-anchor="start" x="608.793" y="-111" font-family="Helvetica,sans-Serif" font-size="10.00">+ operator&#45;&gt;()</text>
<text text-anchor="start" x="608.793" y="-101" font-family="Helvetica,sans-Serif" font-size="10.00">+ size()</text>
</a>
</g>
</g>
<!-- Node1&#45;&gt;Node13 -->
<g id="edge12" class="edge"><title>Node1&#45;&gt;Node13</title>
<path fill="none" stroke="orange" d="M676.902,-277.793C675.391,-274.56 674.017,-271.291 672.809,-268 669.455,-258.862 667.339,-248.937 666.079,-239.007"/>
<polygon fill="orange" stroke="orange" points="673.836,-279.485 681.501,-286.799 680.07,-276.301 673.836,-279.485"/>
<text text-anchor="middle" x="733.596" y="-260" font-family="Helvetica,sans-Serif" font-size="10.00"> &lt; uart_pin_assignment_t &gt;</text>
</g>
<!-- Node15 -->
<g id="node15" class="node"><title>Node15</title>
<g id="a_node15"><a xlink:href="classhal_1_1_pin_assignment.html" target="_top" xlink:title="{hal::PinAssignment\l\&lt; spi_pin_assignment_t \&gt;\n||+ PinAssignment()\l+ assign()\l+ clear()\l+ copy()\l+ count()\l+ operator const spi\l_pin_assignment_t *()\l+ operator&#45;\&gt;()\l+ size()\l}">
<polygon fill="none" stroke="black" points="753.018,-95 753.018,-239 882.982,-239 882.982,-95 753.018,-95"/>
<text text-anchor="start" x="761.018" y="-227" font-family="Helvetica,sans-Serif" font-size="10.00">hal::PinAssignment</text>
<text text-anchor="middle" x="818" y="-217" font-family="Helvetica,sans-Serif" font-size="10.00">&lt; spi_pin_assignment_t &gt;</text>
<polyline fill="none" stroke="black" points="753.018,-211 882.982,-211 "/>
<text text-anchor="middle" x="818" y="-199" font-family="Helvetica,sans-Serif" font-size="10.00"> </text>
<polyline fill="none" stroke="black" points="753.018,-193 882.982,-193 "/>
<text text-anchor="start" x="761.018" y="-181" font-family="Helvetica,sans-Serif" font-size="10.00">+ PinAssignment()</text>
<text text-anchor="start" x="761.018" y="-171" font-family="Helvetica,sans-Serif" font-size="10.00">+ assign()</text>
<text text-anchor="start" x="761.018" y="-161" font-family="Helvetica,sans-Serif" font-size="10.00">+ clear()</text>
<text text-anchor="start" x="761.018" y="-151" font-family="Helvetica,sans-Serif" font-size="10.00">+ copy()</text>
<text text-anchor="start" x="761.018" y="-141" font-family="Helvetica,sans-Serif" font-size="10.00">+ count()</text>
<text text-anchor="start" x="761.018" y="-131" font-family="Helvetica,sans-Serif" font-size="10.00">+ operator const spi</text>
<text text-anchor="start" x="761.018" y="-121" font-family="Helvetica,sans-Serif" font-size="10.00">_pin_assignment_t *()</text>
<text text-anchor="start" x="761.018" y="-111" font-family="Helvetica,sans-Serif" font-size="10.00">+ operator&#45;&gt;()</text>
<text text-anchor="start" x="761.018" y="-101" font-family="Helvetica,sans-Serif" font-size="10.00">+ size()</text>
</a>
</g>
</g>
<!-- Node1&#45;&gt;Node15 -->
<g id="edge14" class="edge"><title>Node1&#45;&gt;Node15</title>
<path fill="none" stroke="orange" d="M789.839,-277.772C791.312,-274.505 792.707,-271.241 794,-268 797.673,-258.797 800.881,-248.884 803.654,-239.002"/>
<polygon fill="orange" stroke="orange" points="786.603,-276.427 785.498,-286.963 792.933,-279.416 786.603,-276.427"/>
<text text-anchor="middle" x="855.372" y="-260" font-family="Helvetica,sans-Serif" font-size="10.00"> &lt; spi_pin_assignment_t &gt;</text>
</g>
<!-- Node17 -->
<g id="node17" class="node"><title>Node17</title>
<g id="a_node17"><a xlink:href="classhal_1_1_pin_assignment.html" target="_top" xlink:title="{hal::PinAssignment\l\&lt; tmr_pin_assignment_t \&gt;\n||+ PinAssignment()\l+ assign()\l+ clear()\l+ copy()\l+ count()\l+ operator const tmr\l_pin_assignment_t *()\l+ operator&#45;\&gt;()\l+ size()\l}">
<polygon fill="none" stroke="black" points="901.19,-95 901.19,-239 1032.81,-239 1032.81,-95 901.19,-95"/>
<text text-anchor="start" x="909.19" y="-227" font-family="Helvetica,sans-Serif" font-size="10.00">hal::PinAssignment</text>
<text text-anchor="middle" x="967" y="-217" font-family="Helvetica,sans-Serif" font-size="10.00">&lt; tmr_pin_assignment_t &gt;</text>
<polyline fill="none" stroke="black" points="901.19,-211 1032.81,-211 "/>
<text text-anchor="middle" x="967" y="-199" font-family="Helvetica,sans-Serif" font-size="10.00"> </text>
<polyline fill="none" stroke="black" points="901.19,-193 1032.81,-193 "/>
<text text-anchor="start" x="909.19" y="-181" font-family="Helvetica,sans-Serif" font-size="10.00">+ PinAssignment()</text>
<text text-anchor="start" x="909.19" y="-171" font-family="Helvetica,sans-Serif" font-size="10.00">+ assign()</text>
<text text-anchor="start" x="909.19" y="-161" font-family="Helvetica,sans-Serif" font-size="10.00">+ clear()</text>
<text text-anchor="start" x="909.19" y="-151" font-family="Helvetica,sans-Serif" font-size="10.00">+ copy()</text>
<text text-anchor="start" x="909.19" y="-141" font-family="Helvetica,sans-Serif" font-size="10.00">+ count()</text>
<text text-anchor="start" x="909.19" y="-131" font-family="Helvetica,sans-Serif" font-size="10.00">+ operator const tmr</text>
<text text-anchor="start" x="909.19" y="-121" font-family="Helvetica,sans-Serif" font-size="10.00">_pin_assignment_t *()</text>
<text text-anchor="start" x="909.19" y="-111" font-family="Helvetica,sans-Serif" font-size="10.00">+ operator&#45;&gt;()</text>
<text text-anchor="start" x="909.19" y="-101" font-family="Helvetica,sans-Serif" font-size="10.00">+ size()</text>
</a>
</g>
</g>
<!-- Node1&#45;&gt;Node17 -->
<g id="edge16" class="edge"><title>Node1&#45;&gt;Node17</title>
<path fill="none" stroke="orange" d="M815.497,-332.526C849.623,-317.832 888.787,-296.536 917,-268 925.325,-259.58 932.521,-249.495 938.654,-239.017"/>
<polygon fill="orange" stroke="orange" points="813.89,-329.404 806.018,-336.495 816.594,-335.86 813.89,-329.404"/>
<text text-anchor="middle" x="985.199" y="-260" font-family="Helvetica,sans-Serif" font-size="10.00"> &lt; tmr_pin_assignment_t &gt;</text>
</g>
<!-- Node19 -->
<g id="node19" class="node"><title>Node19</title>
<g id="a_node19"><a xlink:href="classhal_1_1_pin_assignment.html" target="_top" xlink:title="{hal::PinAssignment\l\&lt; pwm_pin_assignment_t \&gt;\n||+ PinAssignment()\l+ assign()\l+ clear()\l+ copy()\l+ count()\l+ operator const pwm\l_pin_assignment_t *()\l+ operator&#45;\&gt;()\l+ size()\l}">
<polygon fill="none" stroke="black" points="1050.85,-95 1050.85,-239 1189.15,-239 1189.15,-95 1050.85,-95"/>
<text text-anchor="start" x="1058.85" y="-227" font-family="Helvetica,sans-Serif" font-size="10.00">hal::PinAssignment</text>
<text text-anchor="middle" x="1120" y="-217" font-family="Helvetica,sans-Serif" font-size="10.00">&lt; pwm_pin_assignment_t &gt;</text>
<polyline fill="none" stroke="black" points="1050.85,-211 1189.15,-211 "/>
<text text-anchor="middle" x="1120" y="-199" font-family="Helvetica,sans-Serif" font-size="10.00"> </text>
<polyline fill="none" stroke="black" points="1050.85,-193 1189.15,-193 "/>
<text text-anchor="start" x="1058.85" y="-181" font-family="Helvetica,sans-Serif" font-size="10.00">+ PinAssignment()</text>
<text text-anchor="start" x="1058.85" y="-171" font-family="Helvetica,sans-Serif" font-size="10.00">+ assign()</text>
<text text-anchor="start" x="1058.85" y="-161" font-family="Helvetica,sans-Serif" font-size="10.00">+ clear()</text>
<text text-anchor="start" x="1058.85" y="-151" font-family="Helvetica,sans-Serif" font-size="10.00">+ copy()</text>
<text text-anchor="start" x="1058.85" y="-141" font-family="Helvetica,sans-Serif" font-size="10.00">+ count()</text>
<text text-anchor="start" x="1058.85" y="-131" font-family="Helvetica,sans-Serif" font-size="10.00">+ operator const pwm</text>
<text text-anchor="start" x="1058.85" y="-121" font-family="Helvetica,sans-Serif" font-size="10.00">_pin_assignment_t *()</text>
<text text-anchor="start" x="1058.85" y="-111" font-family="Helvetica,sans-Serif" font-size="10.00">+ operator&#45;&gt;()</text>
<text text-anchor="start" x="1058.85" y="-101" font-family="Helvetica,sans-Serif" font-size="10.00">+ size()</text>
</a>
</g>
</g>
<!-- Node1&#45;&gt;Node19 -->
<g id="edge18" class="edge"><title>Node1&#45;&gt;Node19</title>
<path fill="none" stroke="orange" d="M816.075,-349.973C882.002,-339.812 978.484,-317.253 1048,-268 1059.17,-260.085 1069.26,-249.877 1078.1,-239.018"/>
<polygon fill="orange" stroke="orange" points="815.549,-346.512 806.171,-351.441 816.576,-353.436 815.549,-346.512"/>
<text text-anchor="middle" x="1121.54" y="-260" font-family="Helvetica,sans-Serif" font-size="10.00"> &lt; pwm_pin_assignment_t &gt;</text>
</g>
<!-- Node21 -->
<g id="node21" class="node"><title>Node21</title>
<g id="a_node21"><a xlink:href="classhal_1_1_pin_assignment.html" target="_top" xlink:title="{hal::PinAssignment\l\&lt; dac_pin_assignment_t \&gt;\n||+ PinAssignment()\l+ assign()\l+ clear()\l+ copy()\l+ count()\l+ operator const dac\l_pin_assignment_t *()\l+ operator&#45;\&gt;()\l+ size()\l}">
<polygon fill="none" stroke="black" points="1207.35,-95 1207.35,-239 1340.65,-239 1340.65,-95 1207.35,-95"/>
<text text-anchor="start" x="1215.35" y="-227" font-family="Helvetica,sans-Serif" font-size="10.00">hal::PinAssignment</text>
<text text-anchor="middle" x="1274" y="-217" font-family="Helvetica,sans-Serif" font-size="10.00">&lt; dac_pin_assignment_t &gt;</text>
<polyline fill="none" stroke="black" points="1207.35,-211 1340.65,-211 "/>
<text text-anchor="middle" x="1274" y="-199" font-family="Helvetica,sans-Serif" font-size="10.00"> </text>
<polyline fill="none" stroke="black" points="1207.35,-193 1340.65,-193 "/>
<text text-anchor="start" x="1215.35" y="-181" font-family="Helvetica,sans-Serif" font-size="10.00">+ PinAssignment()</text>
<text text-anchor="start" x="1215.35" y="-171" font-family="Helvetica,sans-Serif" font-size="10.00">+ assign()</text>
<text text-anchor="start" x="1215.35" y="-161" font-family="Helvetica,sans-Serif" font-size="10.00">+ clear()</text>
<text text-anchor="start" x="1215.35" y="-151" font-family="Helvetica,sans-Serif" font-size="10.00">+ copy()</text>
<text text-anchor="start" x="1215.35" y="-141" font-family="Helvetica,sans-Serif" font-size="10.00">+ count()</text>
<text text-anchor="start" x="1215.35" y="-131" font-family="Helvetica,sans-Serif" font-size="10.00">+ operator const dac</text>
<text text-anchor="start" x="1215.35" y="-121" font-family="Helvetica,sans-Serif" font-size="10.00">_pin_assignment_t *()</text>
<text text-anchor="start" x="1215.35" y="-111" font-family="Helvetica,sans-Serif" font-size="10.00">+ operator&#45;&gt;()</text>
<text text-anchor="start" x="1215.35" y="-101" font-family="Helvetica,sans-Serif" font-size="10.00">+ size()</text>
</a>
</g>
</g>
<!-- Node1&#45;&gt;Node21 -->
<g id="edge20" class="edge"><title>Node1&#45;&gt;Node21</title>
<path fill="none" stroke="orange" d="M816.205,-357.486C909.186,-353.745 1070.56,-336.78 1188,-268 1200.94,-260.42 1212.89,-250.173 1223.51,-239.119"/>
<polygon fill="orange" stroke="orange" points="815.91,-353.995 806.042,-357.853 816.162,-360.99 815.91,-353.995"/>
<text text-anchor="middle" x="1263.04" y="-260" font-family="Helvetica,sans-Serif" font-size="10.00"> &lt; dac_pin_assignment_t &gt;</text>
</g>
<!-- Node23 -->
<g id="node23" class="node"><title>Node23</title>
<g id="a_node23"><a xlink:href="classhal_1_1_pin_assignment.html" target="_top" xlink:title="{hal::PinAssignment\l\&lt; i2c_pin_assignment_t \&gt;\n||+ PinAssignment()\l+ assign()\l+ clear()\l+ copy()\l+ count()\l+ operator const i2c\l_pin_assignment_t *()\l+ operator&#45;\&gt;()\l+ size()\l}">
<polygon fill="none" stroke="black" points="1359.02,-95 1359.02,-239 1488.98,-239 1488.98,-95 1359.02,-95"/>
<text text-anchor="start" x="1367.02" y="-227" font-family="Helvetica,sans-Serif" font-size="10.00">hal::PinAssignment</text>
<text text-anchor="middle" x="1424" y="-217" font-family="Helvetica,sans-Serif" font-size="10.00">&lt; i2c_pin_assignment_t &gt;</text>
<polyline fill="none" stroke="black" points="1359.02,-211 1488.98,-211 "/>
<text text-anchor="middle" x="1424" y="-199" font-family="Helvetica,sans-Serif" font-size="10.00"> </text>
<polyline fill="none" stroke="black" points="1359.02,-193 1488.98,-193 "/>
<text text-anchor="start" x="1367.02" y="-181" font-family="Helvetica,sans-Serif" font-size="10.00">+ PinAssignment()</text>
<text text-anchor="start" x="1367.02" y="-171" font-family="Helvetica,sans-Serif" font-size="10.00">+ assign()</text>
<text text-anchor="start" x="1367.02" y="-161" font-family="Helvetica,sans-Serif" font-size="10.00">+ clear()</text>
<text text-anchor="start" x="1367.02" y="-151" font-family="Helvetica,sans-Serif" font-size="10.00">+ copy()</text>
<text text-anchor="start" x="1367.02" y="-141" font-family="Helvetica,sans-Serif" font-size="10.00">+ count()</text>
<text text-anchor="start" x="1367.02" y="-131" font-family="Helvetica,sans-Serif" font-size="10.00">+ operator const i2c</text>
<text text-anchor="start" x="1367.02" y="-121" font-family="Helvetica,sans-Serif" font-size="10.00">_pin_assignment_t *()</text>
<text text-anchor="start" x="1367.02" y="-111" font-family="Helvetica,sans-Serif" font-size="10.00">+ operator&#45;&gt;()</text>
<text text-anchor="start" x="1367.02" y="-101" font-family="Helvetica,sans-Serif" font-size="10.00">+ size()</text>
</a>
</g>
</g>
<!-- Node1&#45;&gt;Node23 -->
<g id="edge22" class="edge"><title>Node1&#45;&gt;Node23</title>
<path fill="none" stroke="orange" d="M816.043,-352.499C952.82,-341.381 1239.15,-313.361 1327,-268 1341.29,-260.621 1354.7,-250.327 1366.73,-239.132"/>
<polygon fill="orange" stroke="orange" points="815.748,-349.011 806.061,-353.302 816.309,-355.989 815.748,-349.011"/>
<text text-anchor="middle" x="1402.37" y="-260" font-family="Helvetica,sans-Serif" font-size="10.00"> &lt; i2c_pin_assignment_t &gt;</text>
</g>
<!-- Node2 -->
<g id="node2" class="node"><title>Node2</title>
<g id="a_node2"><a xlink:href="classapi_1_1_hal_info_object.html" target="_top" xlink:title="Hal Info Object. ">
<polygon fill="none" stroke="black" points="694.256,-471 694.256,-525 789.744,-525 789.744,-471 694.256,-471"/>
<text text-anchor="middle" x="742" y="-513" font-family="Helvetica,sans-Serif" font-size="10.00">api::HalInfoObject</text>
<polyline fill="none" stroke="black" points="694.256,-507 789.744,-507 "/>
<text text-anchor="middle" x="742" y="-495" font-family="Helvetica,sans-Serif" font-size="10.00"> </text>
<polyline fill="none" stroke="black" points="694.256,-489 789.744,-489 "/>
<text text-anchor="middle" x="742" y="-477" font-family="Helvetica,sans-Serif" font-size="10.00"> </text>
</a>
</g>
</g>
<!-- Node2&#45;&gt;Node1 -->
<g id="edge1" class="edge"><title>Node2&#45;&gt;Node1</title>
<path fill="none" stroke="midnightblue" d="M742,-460.646C742,-451.468 742,-441.293 742,-431.043"/>
<polygon fill="none" stroke="midnightblue" points="738.5,-460.909 742,-470.909 745.5,-460.909 738.5,-460.909"/>
</g>
<!-- Node3 -->
<g id="node3" class="node"><title>Node3</title>
<g id="a_node3"><a xlink:href="classapi_1_1_info_object.html" target="_top" xlink:title="API Information Object. ">
<polygon fill="none" stroke="black" points="701.759,-565 701.759,-619 782.241,-619 782.241,-565 701.759,-565"/>
<text text-anchor="middle" x="742" y="-607" font-family="Helvetica,sans-Serif" font-size="10.00">api::InfoObject</text>
<polyline fill="none" stroke="black" points="701.759,-601 782.241,-601 "/>
<text text-anchor="middle" x="742" y="-589" font-family="Helvetica,sans-Serif" font-size="10.00"> </text>
<polyline fill="none" stroke="black" points="701.759,-583 782.241,-583 "/>
<text text-anchor="middle" x="742" y="-571" font-family="Helvetica,sans-Serif" font-size="10.00"> </text>
</a>
</g>
</g>
<!-- Node3&#45;&gt;Node2 -->
<g id="edge2" class="edge"><title>Node3&#45;&gt;Node2</title>
<path fill="none" stroke="midnightblue" d="M742,-554.872C742,-544.964 742,-534.415 742,-525.183"/>
<polygon fill="none" stroke="midnightblue" points="738.5,-554.883 742,-564.883 745.5,-554.883 738.5,-554.883"/>
</g>
<!-- Node4 -->
<g id="node4" class="node"><title>Node4</title>
<g id="a_node4"><a xlink:href="classapi_1_1_api_object.html" target="_top" xlink:title="API Object Class. ">
<polygon fill="none" stroke="black" points="700.79,-659 700.79,-713 783.21,-713 783.21,-659 700.79,-659"/>
<text text-anchor="middle" x="742" y="-701" font-family="Helvetica,sans-Serif" font-size="10.00">api::ApiObject</text>
<polyline fill="none" stroke="black" points="700.79,-695 783.21,-695 "/>
<text text-anchor="middle" x="742" y="-683" font-family="Helvetica,sans-Serif" font-size="10.00"> </text>
<polyline fill="none" stroke="black" points="700.79,-677 783.21,-677 "/>
<text text-anchor="start" x="708.79" y="-665" font-family="Helvetica,sans-Serif" font-size="10.00">+ api_version()</text>
</a>
</g>
</g>
<!-- Node4&#45;&gt;Node3 -->
<g id="edge3" class="edge"><title>Node4&#45;&gt;Node3</title>
<path fill="none" stroke="midnightblue" d="M742,-648.872C742,-638.964 742,-628.415 742,-619.183"/>
<polygon fill="none" stroke="midnightblue" points="738.5,-648.883 742,-658.883 745.5,-648.883 738.5,-648.883"/>
</g>
<!-- Node6 -->
<g id="node6" class="node"><title>Node6</title>
<g id="a_node6"><a xlink:href="classhal_1_1_i2_s_pin_assignment.html" target="_top" xlink:title="I2S Pin Assignment. ">
<polygon fill="none" stroke="black" points="5.69482,-1 5.69482,-55 122.305,-55 122.305,-1 5.69482,-1"/>
<text text-anchor="middle" x="64" y="-43" font-family="Helvetica,sans-Serif" font-size="10.00">hal::I2SPinAssignment</text>
<polyline fill="none" stroke="black" points="5.69482,-37 122.305,-37 "/>
<text text-anchor="middle" x="64" y="-25" font-family="Helvetica,sans-Serif" font-size="10.00"> </text>
<polyline fill="none" stroke="black" points="5.69482,-19 122.305,-19 "/>
<text text-anchor="middle" x="64" y="-7" font-family="Helvetica,sans-Serif" font-size="10.00"> </text>
</a>
</g>
</g>
<!-- Node5&#45;&gt;Node6 -->
<g id="edge5" class="edge"><title>Node5&#45;&gt;Node6</title>
<path fill="none" stroke="midnightblue" d="M64,-84.4559C64,-73.882 64,-63.7388 64,-55.0848"/>
<polygon fill="none" stroke="midnightblue" points="60.5001,-84.6911 64,-94.6911 67.5001,-84.6912 60.5001,-84.6911"/>
</g>
<!-- Node8 -->
<g id="node8" class="node"><title>Node8</title>
<g id="a_node8"><a xlink:href="classhal_1_1_usb_pin_assignment.html" target="_top" xlink:title="USB Pin Assignment. ">
<polygon fill="none" stroke="black" points="154.308,-1 154.308,-55 273.692,-55 273.692,-1 154.308,-1"/>
<text text-anchor="middle" x="214" y="-43" font-family="Helvetica,sans-Serif" font-size="10.00">hal::UsbPinAssignment</text>
<polyline fill="none" stroke="black" points="154.308,-37 273.692,-37 "/>
<text text-anchor="middle" x="214" y="-25" font-family="Helvetica,sans-Serif" font-size="10.00"> </text>
<polyline fill="none" stroke="black" points="154.308,-19 273.692,-19 "/>
<text text-anchor="middle" x="214" y="-7" font-family="Helvetica,sans-Serif" font-size="10.00"> </text>
</a>
</g>
</g>
<!-- Node7&#45;&gt;Node8 -->
<g id="edge7" class="edge"><title>Node7&#45;&gt;Node8</title>
<path fill="none" stroke="midnightblue" d="M214,-84.4559C214,-73.882 214,-63.7388 214,-55.0848"/>
<polygon fill="none" stroke="midnightblue" points="210.5,-84.6911 214,-94.6911 217.5,-84.6912 210.5,-84.6911"/>
</g>
<!-- Node10 -->
<g id="node10" class="node"><title>Node10</title>
<g id="a_node10"><a xlink:href="classhal_1_1_eint_pin_assignment.html" target="_top" xlink:title="EINT Pin Assignment. ">
<polygon fill="none" stroke="black" points="305.584,-1 305.584,-55 424.416,-55 424.416,-1 305.584,-1"/>
<text text-anchor="middle" x="365" y="-43" font-family="Helvetica,sans-Serif" font-size="10.00">hal::EintPinAssignment</text>
<polyline fill="none" stroke="black" points="305.584,-37 424.416,-37 "/>
<text text-anchor="middle" x="365" y="-25" font-family="Helvetica,sans-Serif" font-size="10.00"> </text>
<polyline fill="none" stroke="black" points="305.584,-19 424.416,-19 "/>
<text text-anchor="middle" x="365" y="-7" font-family="Helvetica,sans-Serif" font-size="10.00"> </text>
</a>
</g>
</g>
<!-- Node9&#45;&gt;Node10 -->
<g id="edge9" class="edge"><title>Node9&#45;&gt;Node10</title>
<path fill="none" stroke="midnightblue" d="M365,-84.4559C365,-73.882 365,-63.7388 365,-55.0848"/>
<polygon fill="none" stroke="midnightblue" points="361.5,-84.6911 365,-94.6911 368.5,-84.6912 361.5,-84.6911"/>
</g>
<!-- Node12 -->
<g id="node12" class="node"><title>Node12</title>
<g id="a_node12"><a xlink:href="classhal_1_1_adc_pin_assignment.html" target="_top" xlink:title="ADC Pin Assignment. ">
<polygon fill="none" stroke="black" points="456.584,-1 456.584,-55 575.416,-55 575.416,-1 456.584,-1"/>
<text text-anchor="middle" x="516" y="-43" font-family="Helvetica,sans-Serif" font-size="10.00">hal::AdcPinAssignment</text>
<polyline fill="none" stroke="black" points="456.584,-37 575.416,-37 "/>
<text text-anchor="middle" x="516" y="-25" font-family="Helvetica,sans-Serif" font-size="10.00"> </text>
<polyline fill="none" stroke="black" points="456.584,-19 575.416,-19 "/>
<text text-anchor="middle" x="516" y="-7" font-family="Helvetica,sans-Serif" font-size="10.00"> </text>
</a>
</g>
</g>
<!-- Node11&#45;&gt;Node12 -->
<g id="edge11" class="edge"><title>Node11&#45;&gt;Node12</title>
<path fill="none" stroke="midnightblue" d="M516,-84.4559C516,-73.882 516,-63.7388 516,-55.0848"/>
<polygon fill="none" stroke="midnightblue" points="512.5,-84.6911 516,-94.6911 519.5,-84.6912 512.5,-84.6911"/>
</g>
<!-- Node14 -->
<g id="node14" class="node"><title>Node14</title>
<g id="a_node14"><a xlink:href="classhal_1_1_uart_pin_assignment.html" target="_top" xlink:title="UART Pin Assignment. ">
<polygon fill="none" stroke="black" points="607.754,-1 607.754,-55 728.246,-55 728.246,-1 607.754,-1"/>
<text text-anchor="middle" x="668" y="-43" font-family="Helvetica,sans-Serif" font-size="10.00">hal::UartPinAssignment</text>
<polyline fill="none" stroke="black" points="607.754,-37 728.246,-37 "/>
<text text-anchor="middle" x="668" y="-25" font-family="Helvetica,sans-Serif" font-size="10.00"> </text>
<polyline fill="none" stroke="black" points="607.754,-19 728.246,-19 "/>
<text text-anchor="middle" x="668" y="-7" font-family="Helvetica,sans-Serif" font-size="10.00"> </text>
</a>
</g>
</g>
<!-- Node13&#45;&gt;Node14 -->
<g id="edge13" class="edge"><title>Node13&#45;&gt;Node14</title>
<path fill="none" stroke="midnightblue" d="M668,-84.4559C668,-73.882 668,-63.7388 668,-55.0848"/>
<polygon fill="none" stroke="midnightblue" points="664.5,-84.6911 668,-94.6911 671.5,-84.6912 664.5,-84.6911"/>
</g>
<!-- Node16 -->
<g id="node16" class="node"><title>Node16</title>
<g id="a_node16"><a xlink:href="classhal_1_1_spi_pin_assignment.html" target="_top" xlink:title="SPI Pin Assignment. ">
<polygon fill="none" stroke="black" points="759.973,-1 759.973,-55 876.027,-55 876.027,-1 759.973,-1"/>
<text text-anchor="middle" x="818" y="-43" font-family="Helvetica,sans-Serif" font-size="10.00">hal::SpiPinAssignment</text>
<polyline fill="none" stroke="black" points="759.973,-37 876.027,-37 "/>
<text text-anchor="middle" x="818" y="-25" font-family="Helvetica,sans-Serif" font-size="10.00"> </text>
<polyline fill="none" stroke="black" points="759.973,-19 876.027,-19 "/>
<text text-anchor="middle" x="818" y="-7" font-family="Helvetica,sans-Serif" font-size="10.00"> </text>
</a>
</g>
</g>
<!-- Node15&#45;&gt;Node16 -->
<g id="edge15" class="edge"><title>Node15&#45;&gt;Node16</title>
<path fill="none" stroke="midnightblue" d="M818,-84.4559C818,-73.882 818,-63.7388 818,-55.0848"/>
<polygon fill="none" stroke="midnightblue" points="814.5,-84.6911 818,-94.6911 821.5,-84.6912 814.5,-84.6911"/>
</g>
<!-- Node18 -->
<g id="node18" class="node"><title>Node18</title>
<g id="a_node18"><a xlink:href="classhal_1_1_tmr_pin_assignment.html" target="_top" xlink:title="Tmr Pin Assignment. ">
<polygon fill="none" stroke="black" points="907.315,-1 907.315,-55 1026.68,-55 1026.68,-1 907.315,-1"/>
<text text-anchor="middle" x="967" y="-43" font-family="Helvetica,sans-Serif" font-size="10.00">hal::TmrPinAssignment</text>
<polyline fill="none" stroke="black" points="907.315,-37 1026.68,-37 "/>
<text text-anchor="middle" x="967" y="-25" font-family="Helvetica,sans-Serif" font-size="10.00"> </text>
<polyline fill="none" stroke="black" points="907.315,-19 1026.68,-19 "/>
<text text-anchor="middle" x="967" y="-7" font-family="Helvetica,sans-Serif" font-size="10.00"> </text>
</a>
</g>
</g>
<!-- Node17&#45;&gt;Node18 -->
<g id="edge17" class="edge"><title>Node17&#45;&gt;Node18</title>
<path fill="none" stroke="midnightblue" d="M967,-84.4559C967,-73.882 967,-63.7388 967,-55.0848"/>
<polygon fill="none" stroke="midnightblue" points="963.5,-84.6911 967,-94.6911 970.5,-84.6912 963.5,-84.6911"/>
</g>
<!-- Node20 -->
<g id="node20" class="node"><title>Node20</title>
<g id="a_node20"><a xlink:href="classhal_1_1_pwm_pin_assignment.html" target="_top" xlink:title="PWM Pin Assignment. ">
<polygon fill="none" stroke="black" points="1058.09,-1 1058.09,-55 1181.91,-55 1181.91,-1 1058.09,-1"/>
<text text-anchor="middle" x="1120" y="-43" font-family="Helvetica,sans-Serif" font-size="10.00">hal::PwmPinAssignment</text>
<polyline fill="none" stroke="black" points="1058.09,-37 1181.91,-37 "/>
<text text-anchor="middle" x="1120" y="-25" font-family="Helvetica,sans-Serif" font-size="10.00"> </text>
<polyline fill="none" stroke="black" points="1058.09,-19 1181.91,-19 "/>
<text text-anchor="middle" x="1120" y="-7" font-family="Helvetica,sans-Serif" font-size="10.00"> </text>
</a>
</g>
</g>
<!-- Node19&#45;&gt;Node20 -->
<g id="edge19" class="edge"><title>Node19&#45;&gt;Node20</title>
<path fill="none" stroke="midnightblue" d="M1120,-84.4559C1120,-73.882 1120,-63.7388 1120,-55.0848"/>
<polygon fill="none" stroke="midnightblue" points="1116.5,-84.6911 1120,-94.6911 1123.5,-84.6912 1116.5,-84.6911"/>
</g>
<!-- Node22 -->
<g id="node22" class="node"><title>Node22</title>
<g id="a_node22"><a xlink:href="classhal_1_1_dac_pin_assignment.html" target="_top" xlink:title="DAC Pin Assignment. ">
<polygon fill="none" stroke="black" points="1214.31,-1 1214.31,-55 1333.69,-55 1333.69,-1 1214.31,-1"/>
<text text-anchor="middle" x="1274" y="-43" font-family="Helvetica,sans-Serif" font-size="10.00">hal::DacPinAssignment</text>
<polyline fill="none" stroke="black" points="1214.31,-37 1333.69,-37 "/>
<text text-anchor="middle" x="1274" y="-25" font-family="Helvetica,sans-Serif" font-size="10.00"> </text>
<polyline fill="none" stroke="black" points="1214.31,-19 1333.69,-19 "/>
<text text-anchor="middle" x="1274" y="-7" font-family="Helvetica,sans-Serif" font-size="10.00"> </text>
</a>
</g>
</g>
<!-- Node21&#45;&gt;Node22 -->
<g id="edge21" class="edge"><title>Node21&#45;&gt;Node22</title>
<path fill="none" stroke="midnightblue" d="M1274,-84.4559C1274,-73.882 1274,-63.7388 1274,-55.0848"/>
<polygon fill="none" stroke="midnightblue" points="1270.5,-84.6911 1274,-94.6911 1277.5,-84.6912 1270.5,-84.6911"/>
</g>
<!-- Node24 -->
<g id="node24" class="node"><title>Node24</title>
<g id="a_node24"><a xlink:href="classhal_1_1_i2_c_pin_assignment.html" target="_top" xlink:title="I2C Pin Assignment. ">
<polygon fill="none" stroke="black" points="1365.42,-1 1365.42,-55 1482.58,-55 1482.58,-1 1365.42,-1"/>
<text text-anchor="middle" x="1424" y="-43" font-family="Helvetica,sans-Serif" font-size="10.00">hal::I2CPinAssignment</text>
<polyline fill="none" stroke="black" points="1365.42,-37 1482.58,-37 "/>
<text text-anchor="middle" x="1424" y="-25" font-family="Helvetica,sans-Serif" font-size="10.00"> </text>
<polyline fill="none" stroke="black" points="1365.42,-19 1482.58,-19 "/>
<text text-anchor="middle" x="1424" y="-7" font-family="Helvetica,sans-Serif" font-size="10.00"> </text>
</a>
</g>
</g>
<!-- Node23&#45;&gt;Node24 -->
<g id="edge23" class="edge"><title>Node23&#45;&gt;Node24</title>
<path fill="none" stroke="midnightblue" d="M1424,-84.4559C1424,-73.882 1424,-63.7388 1424,-55.0848"/>
<polygon fill="none" stroke="midnightblue" points="1420.5,-84.6911 1424,-94.6911 1427.5,-84.6912 1420.5,-84.6911"/>
</g>
</g>
</svg>
        <g id="navigator" transform="translate(0 0)" fill="#404254">
                <rect fill="#f2f5e9" fill-opacity="0.5" stroke="#606060" stroke-width=".5" x="0" y="0" width="60" height="60"/>
                <use id="zoomplus" xlink:href="#zoomPlus" x="17" y="9" onmousedown="handleZoom(evt,'in')"/>
                <use id="zoomminus" xlink:href="#zoomMin" x="42" y="9" onmousedown="handleZoom(evt,'out')"/>
                <use id="reset" xlink:href="#resetDef" x="30" y="36" onmousedown="handleReset()"/>
                <g id="arrowUp" xlink:href="#dirArrow" transform="translate(30 24)" onmousedown="handlePan(0,-1)">
                  <use xlink:href="#rim" fill="#404040">
                        <set attributeName="fill" to="#808080" begin="arrowUp.mouseover" end="arrowUp.mouseout"/>
                  </use>
                  <path fill="none" stroke="white" stroke-width="1.5" d="M0,-3.0v7 M-2.5,-0.5L0,-3.0L2.5,-0.5"/>
                </g>
                <g id="arrowRight" xlink:href="#dirArrow" transform="rotate(90) translate(36 -43)" onmousedown="handlePan(1,0)">
                  <use xlink:href="#rim" fill="#404040">
                        <set attributeName="fill" to="#808080" begin="arrowRight.mouseover" end="arrowRight.mouseout"/>
                  </use>
                  <path fill="none" stroke="white" stroke-width="1.5" d="M0,-3.0v7 M-2.5,-0.5L0,-3.0L2.5,-0.5"/>
                </g>
                <g id="arrowDown" xlink:href="#dirArrow" transform="rotate(180) translate(-30 -48)" onmousedown="handlePan(0,1)">
                  <use xlink:href="#rim" fill="#404040">
                        <set attributeName="fill" to="#808080" begin="arrowDown.mouseover" end="arrowDown.mouseout"/>
                  </use>
                  <path fill="none" stroke="white" stroke-width="1.5" d="M0,-3.0v7 M-2.5,-0.5L0,-3.0L2.5,-0.5"/>
                </g>
                <g id="arrowLeft" xlink:href="#dirArrow" transform="rotate(270) translate(-36 17)" onmousedown="handlePan(-1,0)">
                  <use xlink:href="#rim" fill="#404040">
                        <set attributeName="fill" to="#808080" begin="arrowLeft.mouseover" end="arrowLeft.mouseout"/>
                  </use>
                  <path fill="none" stroke="white" stroke-width="1.5" d="M0,-3.0v7 M-2.5,-0.5L0,-3.0L2.5,-0.5"/>
                </g>
        </g>
        <svg viewBox="0 0 15 15" width="100%" height="30px" preserveAspectRatio="xMaxYMin meet">
         <g id="arrow_out" transform="scale(0.3 0.3)">
          <a xlink:href="classhal_1_1_pin_assignment__inherit__graph_org.svg" target="_base">
           <rect id="button" ry="5" rx="5" y="6" x="6" height="38" width="38"
                fill="#f2f5e9" fill-opacity="0.5" stroke="#606060" stroke-width="1.0"/>
           <path id="arrow"
             d="M 11.500037,31.436501 C 11.940474,20.09759 22.043105,11.32322 32.158766,21.979434 L 37.068811,17.246167 C 37.068811,17.246167 37.088388,32 37.088388,32 L 22.160133,31.978069 C 22.160133,31.978069 26.997745,27.140456 26.997745,27.140456 C 18.528582,18.264221 13.291696,25.230495 11.500037,31.436501 z"
             style="fill:#404040;"/>
          </a>
         </g>
        </svg>
</svg>
