<?xml version="1.0" encoding="UTF-8" standalone="no"?>
<!DOCTYPE svg PUBLIC "-//W3C//DTD SVG 1.1//EN"
 "http://www.w3.org/Graphics/SVG/1.1/DTD/svg11.dtd">
<!-- Generated by graphviz version 2.36.0 (20140111.2315)
 -->
<!-- Title: draw::BarProgress Pages: 1 -->
<svg width="263pt" height="824pt"
 viewBox="0.00 0.00 263.00 824.00" xmlns="http://www.w3.org/2000/svg" xmlns:xlink="http://www.w3.org/1999/xlink">
<g id="graph0" class="graph" transform="scale(1 1) rotate(0) translate(4 820)">
<title>draw::BarProgress</title>
<!-- Node1 -->
<g id="node1" class="node"><title>Node1</title>
<polygon fill="#bfbfbf" stroke="black" points="77.5962,-1 77.5962,-75 176.404,-75 176.404,-1 77.5962,-1"/>
<text text-anchor="middle" x="127" y="-63" font-family="Helvetica,sans-Serif" font-size="10.00">draw::BarProgress</text>
<polyline fill="none" stroke="black" points="77.5962,-57 176.404,-57 "/>
<text text-anchor="middle" x="127" y="-45" font-family="Helvetica,sans-Serif" font-size="10.00"> </text>
<polyline fill="none" stroke="black" points="77.5962,-39 176.404,-39 "/>
<text text-anchor="start" x="85.5962" y="-27" font-family="Helvetica,sans-Serif" font-size="10.00">+ BarProgress()</text>
<text text-anchor="start" x="85.5962" y="-17" font-family="Helvetica,sans-Serif" font-size="10.00">+ draw()</text>
<text text-anchor="start" x="85.5962" y="-7" font-family="Helvetica,sans-Serif" font-size="10.00">+ draw_to_scale()</text>
</g>
<!-- Node2 -->
<g id="node2" class="node"><title>Node2</title>
<g id="a_node2"><a xlink:href="classdraw_1_1_progress.html" target="_top" xlink:title="Progress Class. ">
<polygon fill="none" stroke="black" points="52.5742,-113 52.5742,-197 201.426,-197 201.426,-113 52.5742,-113"/>
<text text-anchor="middle" x="127" y="-185" font-family="Helvetica,sans-Serif" font-size="10.00">draw::Progress</text>
<polyline fill="none" stroke="black" points="52.5742,-179 201.426,-179 "/>
<text text-anchor="start" x="60.5742" y="-167" font-family="Helvetica,sans-Serif" font-size="10.00"># m_scaled_border_thickness</text>
<polyline fill="none" stroke="black" points="52.5742,-161 201.426,-161 "/>
<text text-anchor="start" x="60.5742" y="-149" font-family="Helvetica,sans-Serif" font-size="10.00">+ Progress()</text>
<text text-anchor="start" x="60.5742" y="-139" font-family="Helvetica,sans-Serif" font-size="10.00">+ border_thickness()</text>
<text text-anchor="start" x="60.5742" y="-129" font-family="Helvetica,sans-Serif" font-size="10.00">+ set_border_thickness()</text>
<text text-anchor="start" x="60.5742" y="-119" font-family="Helvetica,sans-Serif" font-size="10.00"># scaled_border_thickness()</text>
</a>
</g>
</g>
<!-- Node2&#45;&gt;Node1 -->
<g id="edge1" class="edge"><title>Node2&#45;&gt;Node1</title>
<path fill="none" stroke="midnightblue" d="M127,-102.572C127,-93.3822 127,-83.9836 127,-75.3287"/>
<polygon fill="none" stroke="midnightblue" points="123.5,-102.807 127,-112.807 130.5,-102.807 123.5,-102.807"/>
</g>
<!-- Node3 -->
<g id="node3" class="node"><title>Node3</title>
<g id="a_node3"><a xlink:href="classdraw_1_1_drawing.html" target="_top" xlink:title="Drawing Class. ">
<polygon fill="none" stroke="black" points="-0.552734,-235 -0.552734,-459 118.553,-459 118.553,-235 -0.552734,-235"/>
<text text-anchor="middle" x="59" y="-447" font-family="Helvetica,sans-Serif" font-size="10.00">draw::Drawing</text>
<polyline fill="none" stroke="black" points="-0.552734,-441 118.553,-441 "/>
<text text-anchor="middle" x="59" y="-429" font-family="Helvetica,sans-Serif" font-size="10.00"> </text>
<polyline fill="none" stroke="black" points="-0.552734,-423 118.553,-423 "/>
<text text-anchor="start" x="7.44727" y="-411" font-family="Helvetica,sans-Serif" font-size="10.00">+ Drawing()</text>
<text text-anchor="start" x="7.44727" y="-401" font-family="Helvetica,sans-Serif" font-size="10.00">+ dark()</text>
<text text-anchor="start" x="7.44727" y="-391" font-family="Helvetica,sans-Serif" font-size="10.00">+ draw()</text>
<text text-anchor="start" x="7.44727" y="-381" font-family="Helvetica,sans-Serif" font-size="10.00">+ draw()</text>
<text text-anchor="start" x="7.44727" y="-371" font-family="Helvetica,sans-Serif" font-size="10.00">+ draw_scratch()</text>
<text text-anchor="start" x="7.44727" y="-361" font-family="Helvetica,sans-Serif" font-size="10.00">+ draw_to_scale()</text>
<text text-anchor="start" x="7.44727" y="-351" font-family="Helvetica,sans-Serif" font-size="10.00">and 18 more...</text>
<text text-anchor="start" x="7.44727" y="-341" font-family="Helvetica,sans-Serif" font-size="10.00">+ clear()</text>
<text text-anchor="start" x="7.44727" y="-331" font-family="Helvetica,sans-Serif" font-size="10.00">+ draw_checkerboard()</text>
<text text-anchor="start" x="7.44727" y="-321" font-family="Helvetica,sans-Serif" font-size="10.00">+ draw_pattern()</text>
<text text-anchor="start" x="7.44727" y="-311" font-family="Helvetica,sans-Serif" font-size="10.00">+ h()</text>
<text text-anchor="start" x="7.44727" y="-301" font-family="Helvetica,sans-Serif" font-size="10.00">+ height()</text>
<text text-anchor="start" x="7.44727" y="-291" font-family="Helvetica,sans-Serif" font-size="10.00">+ invert()</text>
<text text-anchor="start" x="7.44727" y="-281" font-family="Helvetica,sans-Serif" font-size="10.00">and 4 more...</text>
<text text-anchor="start" x="7.44727" y="-271" font-family="Helvetica,sans-Serif" font-size="10.00"># dim_on_bitmap()</text>
<text text-anchor="start" x="7.44727" y="-261" font-family="Helvetica,sans-Serif" font-size="10.00"># flag()</text>
<text text-anchor="start" x="7.44727" y="-251" font-family="Helvetica,sans-Serif" font-size="10.00"># point_on_bitmap()</text>
<text text-anchor="start" x="7.44727" y="-241" font-family="Helvetica,sans-Serif" font-size="10.00"># set_flag()</text>
</a>
</g>
</g>
<!-- Node3&#45;&gt;Node2 -->
<g id="edge2" class="edge"><title>Node3&#45;&gt;Node2</title>
<path fill="none" stroke="midnightblue" d="M102.183,-225.342C105.721,-215.457 109.115,-205.973 112.197,-197.363"/>
<polygon fill="none" stroke="midnightblue" points="98.827,-224.332 98.7526,-234.926 105.418,-226.691 98.827,-224.332"/>
</g>
<!-- Node4 -->
<g id="node4" class="node"><title>Node4</title>
<g id="a_node4"><a xlink:href="classapi_1_1_draw_work_object.html" target="_top" xlink:title="State Machine Work Object Class. ">
<polygon fill="none" stroke="black" points="9.854,-497 9.854,-551 120.146,-551 120.146,-497 9.854,-497"/>
<text text-anchor="middle" x="65" y="-539" font-family="Helvetica,sans-Serif" font-size="10.00">api::DrawWorkObject</text>
<polyline fill="none" stroke="black" points="9.854,-533 120.146,-533 "/>
<text text-anchor="middle" x="65" y="-521" font-family="Helvetica,sans-Serif" font-size="10.00"> </text>
<polyline fill="none" stroke="black" points="9.854,-515 120.146,-515 "/>
<text text-anchor="middle" x="65" y="-503" font-family="Helvetica,sans-Serif" font-size="10.00"> </text>
</a>
</g>
</g>
<!-- Node4&#45;&gt;Node3 -->
<g id="edge3" class="edge"><title>Node4&#45;&gt;Node3</title>
<path fill="none" stroke="midnightblue" d="M63.7549,-486.684C63.4657,-478.251 63.1431,-468.84 62.8057,-459.001"/>
<polygon fill="none" stroke="midnightblue" points="60.261,-486.927 64.1017,-496.801 67.2569,-486.687 60.261,-486.927"/>
</g>
<!-- Node5 -->
<g id="node5" class="node"><title>Node5</title>
<g id="a_node5"><a xlink:href="classapi_1_1_work_object.html" target="_top" xlink:title="WorkObject Class. ">
<polygon fill="none" stroke="black" points="10.4521,-589 10.4521,-723 129.548,-723 129.548,-589 10.4521,-589"/>
<text text-anchor="middle" x="70" y="-711" font-family="Helvetica,sans-Serif" font-size="10.00">api::WorkObject</text>
<polyline fill="none" stroke="black" points="10.4521,-705 129.548,-705 "/>
<text text-anchor="middle" x="70" y="-693" font-family="Helvetica,sans-Serif" font-size="10.00"> </text>
<polyline fill="none" stroke="black" points="10.4521,-687 129.548,-687 "/>
<text text-anchor="start" x="18.4521" y="-675" font-family="Helvetica,sans-Serif" font-size="10.00">+ WorkObject()</text>
<text text-anchor="start" x="18.4521" y="-665" font-family="Helvetica,sans-Serif" font-size="10.00">+ clear_error_number()</text>
<text text-anchor="start" x="18.4521" y="-655" font-family="Helvetica,sans-Serif" font-size="10.00">+ error_number()</text>
<text text-anchor="start" x="18.4521" y="-645" font-family="Helvetica,sans-Serif" font-size="10.00">+ exit_fatal()</text>
<text text-anchor="start" x="18.4521" y="-635" font-family="Helvetica,sans-Serif" font-size="10.00"># set_error_number()</text>
<text text-anchor="start" x="18.4521" y="-625" font-family="Helvetica,sans-Serif" font-size="10.00"># set_error_number_if</text>
<text text-anchor="start" x="18.4521" y="-615" font-family="Helvetica,sans-Serif" font-size="10.00">_error()</text>
<text text-anchor="start" x="18.4521" y="-605" font-family="Helvetica,sans-Serif" font-size="10.00"># set_error_number_to</text>
<text text-anchor="start" x="18.4521" y="-595" font-family="Helvetica,sans-Serif" font-size="10.00">_errno()</text>
</a>
</g>
</g>
<!-- Node5&#45;&gt;Node4 -->
<g id="edge4" class="edge"><title>Node5&#45;&gt;Node4</title>
<path fill="none" stroke="midnightblue" d="M67.0707,-578.838C66.6886,-568.903 66.3202,-559.326 66.0029,-551.074"/>
<polygon fill="none" stroke="midnightblue" points="63.5742,-578.999 67.4561,-588.857 70.569,-578.73 63.5742,-578.999"/>
</g>
<!-- Node6 -->
<g id="node6" class="node"><title>Node6</title>
<g id="a_node6"><a xlink:href="classapi_1_1_api_object.html" target="_top" xlink:title="API Object Class. ">
<polygon fill="none" stroke="black" points="88.7896,-761 88.7896,-815 171.21,-815 171.21,-761 88.7896,-761"/>
<text text-anchor="middle" x="130" y="-803" font-family="Helvetica,sans-Serif" font-size="10.00">api::ApiObject</text>
<polyline fill="none" stroke="black" points="88.7896,-797 171.21,-797 "/>
<text text-anchor="middle" x="130" y="-785" font-family="Helvetica,sans-Serif" font-size="10.00"> </text>
<polyline fill="none" stroke="black" points="88.7896,-779 171.21,-779 "/>
<text text-anchor="start" x="96.7896" y="-767" font-family="Helvetica,sans-Serif" font-size="10.00">+ api_version()</text>
</a>
</g>
</g>
<!-- Node6&#45;&gt;Node5 -->
<g id="edge5" class="edge"><title>Node6&#45;&gt;Node5</title>
<path fill="none" stroke="midnightblue" d="M113.613,-751.495C109.528,-742.644 105.016,-732.868 100.489,-723.059"/>
<polygon fill="none" stroke="midnightblue" points="110.49,-753.08 117.858,-760.693 116.845,-750.146 110.49,-753.08"/>
</g>
<!-- Node9 -->
<g id="node9" class="node"><title>Node9</title>
<g id="a_node9"><a xlink:href="classapi_1_1_info_object.html" target="_top" xlink:title="API Information Object. ">
<polygon fill="none" stroke="black" points="149.759,-629 149.759,-683 230.241,-683 230.241,-629 149.759,-629"/>
<text text-anchor="middle" x="190" y="-671" font-family="Helvetica,sans-Serif" font-size="10.00">api::InfoObject</text>
<polyline fill="none" stroke="black" points="149.759,-665 230.241,-665 "/>
<text text-anchor="middle" x="190" y="-653" font-family="Helvetica,sans-Serif" font-size="10.00"> </text>
<polyline fill="none" stroke="black" points="149.759,-647 230.241,-647 "/>
<text text-anchor="middle" x="190" y="-635" font-family="Helvetica,sans-Serif" font-size="10.00"> </text>
</a>
</g>
</g>
<!-- Node6&#45;&gt;Node9 -->
<g id="edge9" class="edge"><title>Node6&#45;&gt;Node9</title>
<path fill="none" stroke="midnightblue" d="M146.373,-751.525C156.323,-729.966 168.813,-702.905 177.876,-683.268"/>
<polygon fill="none" stroke="midnightblue" points="143.155,-750.146 142.142,-760.693 149.51,-753.08 143.155,-750.146"/>
</g>
<!-- Node7 -->
<g id="node7" class="node"><title>Node7</title>
<g id="a_node7"><a xlink:href="classdraw_1_1_progress_attr.html" target="_top" xlink:title="Progress Attribute Class. ">
<polygon fill="none" stroke="black" points="136.726,-290 136.726,-404 255.274,-404 255.274,-290 136.726,-290"/>
<text text-anchor="middle" x="196" y="-392" font-family="Helvetica,sans-Serif" font-size="10.00">draw::ProgressAttr</text>
<polyline fill="none" stroke="black" points="136.726,-386 255.274,-386 "/>
<text text-anchor="middle" x="196" y="-374" font-family="Helvetica,sans-Serif" font-size="10.00"> </text>
<polyline fill="none" stroke="black" points="136.726,-368 255.274,-368 "/>
<text text-anchor="start" x="144.726" y="-356" font-family="Helvetica,sans-Serif" font-size="10.00">+ ProgressAttr()</text>
<text text-anchor="start" x="144.726" y="-346" font-family="Helvetica,sans-Serif" font-size="10.00">+ ProgressAttr()</text>
<text text-anchor="start" x="144.726" y="-336" font-family="Helvetica,sans-Serif" font-size="10.00">+ max()</text>
<text text-anchor="start" x="144.726" y="-326" font-family="Helvetica,sans-Serif" font-size="10.00">+ operator progress_t()</text>
<text text-anchor="start" x="144.726" y="-316" font-family="Helvetica,sans-Serif" font-size="10.00">+ pen()</text>
<text text-anchor="start" x="144.726" y="-306" font-family="Helvetica,sans-Serif" font-size="10.00">+ set_attr()</text>
<text text-anchor="start" x="144.726" y="-296" font-family="Helvetica,sans-Serif" font-size="10.00">and 5 more...</text>
</a>
</g>
</g>
<!-- Node7&#45;&gt;Node2 -->
<g id="edge6" class="edge"><title>Node7&#45;&gt;Node2</title>
<path fill="none" stroke="midnightblue" d="M172.09,-280.16C162.055,-252.528 150.696,-221.25 141.89,-197.001"/>
<polygon fill="none" stroke="midnightblue" points="168.874,-281.56 175.578,-289.765 175.454,-279.171 168.874,-281.56"/>
</g>
<!-- Node8 -->
<g id="node8" class="node"><title>Node8</title>
<g id="a_node8"><a xlink:href="classapi_1_1_draw_info_object.html" target="_top" xlink:title="Draw Information Object. ">
<polygon fill="none" stroke="black" points="141.091,-497 141.091,-551 244.909,-551 244.909,-497 141.091,-497"/>
<text text-anchor="middle" x="193" y="-539" font-family="Helvetica,sans-Serif" font-size="10.00">api::DrawInfoObject</text>
<polyline fill="none" stroke="black" points="141.091,-533 244.909,-533 "/>
<text text-anchor="middle" x="193" y="-521" font-family="Helvetica,sans-Serif" font-size="10.00"> </text>
<polyline fill="none" stroke="black" points="141.091,-515 244.909,-515 "/>
<text text-anchor="middle" x="193" y="-503" font-family="Helvetica,sans-Serif" font-size="10.00"> </text>
</a>
</g>
</g>
<!-- Node8&#45;&gt;Node7 -->
<g id="edge7" class="edge"><title>Node8&#45;&gt;Node7</title>
<path fill="none" stroke="midnightblue" d="M193.621,-486.764C194.03,-462.902 194.574,-431.182 195.038,-404.093"/>
<polygon fill="none" stroke="midnightblue" points="190.121,-486.742 193.449,-496.801 197.12,-486.862 190.121,-486.742"/>
</g>
<!-- Node9&#45;&gt;Node8 -->
<g id="edge8" class="edge"><title>Node9&#45;&gt;Node8</title>
<path fill="none" stroke="midnightblue" d="M190.839,-618.652C191.333,-597.24 191.947,-570.641 192.394,-551.268"/>
<polygon fill="none" stroke="midnightblue" points="187.339,-618.614 190.607,-628.693 194.337,-618.776 187.339,-618.614"/>
</g>
</g>
</svg>
