<?xml version="1.0" encoding="UTF-8" standalone="no"?>
<!DOCTYPE svg PUBLIC "-//W3C//DTD SVG 1.1//EN"
 "http://www.w3.org/Graphics/SVG/1.1/DTD/svg11.dtd">
<!-- Generated by graphviz version 2.36.0 (20140111.2315)
 -->
<!-- Title: sm::Object Pages: 1 -->
<!--zoomable 612 -->
<svg id="main" version="1.1" xmlns="http://www.w3.org/2000/svg" xmlns:xlink="http://www.w3.org/1999/xlink" xml:space="preserve" onload="init(evt)">
<style type="text/css"><![CDATA[
.edge:hover path { stroke: red; }
.edge:hover polygon { stroke: red; fill: red; }
]]></style>
<script type="text/javascript"><![CDATA[
var edges = document.getElementsByTagName('g');
if (edges && edges.length) {
  for (var i=0;i<edges.length;i++) {
    if (edges[i].id.substr(0,4)=='edge') {
      edges[i].setAttribute('class','edge');
    }
  }
}
]]></script>
        <defs>
                <circle id="rim" cx="0" cy="0" r="7"/>
                <circle id="rim2" cx="0" cy="0" r="3.5"/>
                <g id="zoomPlus">
                        <use xlink:href="#rim" fill="#404040">
                                <set attributeName="fill" to="#808080" begin="zoomplus.mouseover" end="zoomplus.mouseout"/>
                        </use>
                        <path d="M-4,0h8M0,-4v8" fill="none" stroke="white" stroke-width="1.5" pointer-events="none"/>
                </g>
                <g id="zoomMin">
                        <use xlink:href="#rim" fill="#404040">
                                <set attributeName="fill" to="#808080" begin="zoomminus.mouseover" end="zoomminus.mouseout"/>
                        </use>
                        <path d="M-4,0h8" fill="none" stroke="white" stroke-width="1.5" pointer-events="none"/>
                </g>
                <g id="dirArrow">
                        <path fill="none" stroke="white" stroke-width="1.5" d="M0,-3.0v7 M-2.5,-0.5L0,-3.0L2.5,-0.5"/>
                </g>
               <g id="resetDef">
                       <use xlink:href="#rim2" fill="#404040">
                               <set attributeName="fill" to="#808080" begin="reset.mouseover" end="reset.mouseout"/>
                       </use>
               </g>
        </defs>

<script type="text/javascript">
var viewWidth = 430;
var viewHeight = 612;
var sectionId = 'dynsection-0';
</script>
<script xlink:href="svgpan.js"/>
<svg id="graph" class="graph">
<g id="viewport">
<title>sm::Object</title>
<!-- Node1 -->
<g id="node1" class="node"><title>Node1</title>
<polygon fill="#bfbfbf" stroke="black" points="131.841,-153 131.841,-237 228.159,-237 228.159,-153 131.841,-153"/>
<text text-anchor="middle" x="180" y="-225" font-family="Helvetica,sans-Serif" font-size="10.00">sm::Object</text>
<polyline fill="none" stroke="black" points="131.841,-219 228.159,-219 "/>
<text text-anchor="middle" x="180" y="-207" font-family="Helvetica,sans-Serif" font-size="10.00"> </text>
<polyline fill="none" stroke="black" points="131.841,-201 228.159,-201 "/>
<text text-anchor="start" x="139.841" y="-189" font-family="Helvetica,sans-Serif" font-size="10.00">+ Object()</text>
<text text-anchor="start" x="139.841" y="-179" font-family="Helvetica,sans-Serif" font-size="10.00">+ name()</text>
<text text-anchor="start" x="139.841" y="-169" font-family="Helvetica,sans-Serif" font-size="10.00">+ state_machine()</text>
<text text-anchor="start" x="139.841" y="-159" font-family="Helvetica,sans-Serif" font-size="10.00">+ type()</text>
</g>
<!-- Node5 -->
<g id="node5" class="node"><title>Node5</title>
<g id="a_node5"><a xlink:href="classsm_1_1_action.html" target="_top" xlink:title="State Machine Action. ">
<polygon fill="none" stroke="black" points="-0.151367,-21 -0.151367,-95 66.1514,-95 66.1514,-21 -0.151367,-21"/>
<text text-anchor="middle" x="33" y="-83" font-family="Helvetica,sans-Serif" font-size="10.00">sm::Action</text>
<polyline fill="none" stroke="black" points="-0.151367,-77 66.1514,-77 "/>
<text text-anchor="middle" x="33" y="-65" font-family="Helvetica,sans-Serif" font-size="10.00"> </text>
<polyline fill="none" stroke="black" points="-0.151367,-59 66.1514,-59 "/>
<text text-anchor="start" x="7.84863" y="-47" font-family="Helvetica,sans-Serif" font-size="10.00">+ Action()</text>
<text text-anchor="start" x="7.84863" y="-37" font-family="Helvetica,sans-Serif" font-size="10.00">+ execute()</text>
<text text-anchor="start" x="7.84863" y="-27" font-family="Helvetica,sans-Serif" font-size="10.00">+ type()</text>
</a>
</g>
</g>
<!-- Node1&#45;&gt;Node5 -->
<g id="edge4" class="edge"><title>Node1&#45;&gt;Node5</title>
<path fill="none" stroke="midnightblue" d="M123.146,-156.514C106.785,-144.501 89.4661,-130.522 75,-116 68.7541,-109.73 62.6992,-102.478 57.222,-95.2921"/>
<polygon fill="none" stroke="midnightblue" points="121.437,-159.597 131.595,-162.609 125.533,-153.92 121.437,-159.597"/>
</g>
<!-- Node6 -->
<g id="node6" class="node"><title>Node6</title>
<g id="a_node6"><a xlink:href="classsm_1_1_condition.html" target="_top" xlink:title="State Machine Condition. ">
<polygon fill="none" stroke="black" points="84.4312,-21 84.4312,-95 161.569,-95 161.569,-21 84.4312,-21"/>
<text text-anchor="middle" x="123" y="-83" font-family="Helvetica,sans-Serif" font-size="10.00">sm::Condition</text>
<polyline fill="none" stroke="black" points="84.4312,-77 161.569,-77 "/>
<text text-anchor="middle" x="123" y="-65" font-family="Helvetica,sans-Serif" font-size="10.00"> </text>
<polyline fill="none" stroke="black" points="84.4312,-59 161.569,-59 "/>
<text text-anchor="start" x="92.4312" y="-47" font-family="Helvetica,sans-Serif" font-size="10.00">+ Condition()</text>
<text text-anchor="start" x="92.4312" y="-37" font-family="Helvetica,sans-Serif" font-size="10.00">+ is_true()</text>
<text text-anchor="start" x="92.4312" y="-27" font-family="Helvetica,sans-Serif" font-size="10.00">+ type()</text>
</a>
</g>
</g>
<!-- Node1&#45;&gt;Node6 -->
<g id="edge5" class="edge"><title>Node1&#45;&gt;Node6</title>
<path fill="none" stroke="midnightblue" d="M158.694,-143.538C151.945,-127.555 144.621,-110.208 138.373,-95.4107"/>
<polygon fill="none" stroke="midnightblue" points="155.474,-144.911 162.588,-152.762 161.923,-142.188 155.474,-144.911"/>
</g>
<!-- Node7 -->
<g id="node7" class="node"><title>Node7</title>
<g id="a_node7"><a xlink:href="classsm_1_1_state.html" target="_top" xlink:title="State Machine State. ">
<polygon fill="none" stroke="black" points="179.662,-6 179.662,-110 294.338,-110 294.338,-6 179.662,-6"/>
<text text-anchor="middle" x="237" y="-98" font-family="Helvetica,sans-Serif" font-size="10.00">sm::State</text>
<polyline fill="none" stroke="black" points="179.662,-92 294.338,-92 "/>
<text text-anchor="middle" x="237" y="-80" font-family="Helvetica,sans-Serif" font-size="10.00"> </text>
<polyline fill="none" stroke="black" points="179.662,-74 294.338,-74 "/>
<text text-anchor="start" x="187.662" y="-62" font-family="Helvetica,sans-Serif" font-size="10.00">+ State()</text>
<text text-anchor="start" x="187.662" y="-52" font-family="Helvetica,sans-Serif" font-size="10.00">+ add_action()</text>
<text text-anchor="start" x="187.662" y="-42" font-family="Helvetica,sans-Serif" font-size="10.00">+ add_entry_action()</text>
<text text-anchor="start" x="187.662" y="-32" font-family="Helvetica,sans-Serif" font-size="10.00">+ add_exit_action()</text>
<text text-anchor="start" x="187.662" y="-22" font-family="Helvetica,sans-Serif" font-size="10.00">+ add_exit_condition()</text>
<text text-anchor="start" x="187.662" y="-12" font-family="Helvetica,sans-Serif" font-size="10.00">+ type()</text>
</a>
</g>
</g>
<!-- Node1&#45;&gt;Node7 -->
<g id="edge6" class="edge"><title>Node1&#45;&gt;Node7</title>
<path fill="none" stroke="midnightblue" d="M201.332,-143.478C205.883,-132.697 210.696,-121.299 215.263,-110.483"/>
<polygon fill="none" stroke="midnightblue" points="198.077,-142.188 197.412,-152.762 204.526,-144.911 198.077,-142.188"/>
</g>
<!-- Node8 -->
<g id="node8" class="node"><title>Node8</title>
<g id="a_node8"><a xlink:href="classsm_1_1_state_machine.html" target="_top" xlink:title="State Machine. ">
<polygon fill="none" stroke="black" points="311.881,-1 311.881,-115 422.119,-115 422.119,-1 311.881,-1"/>
<text text-anchor="middle" x="367" y="-103" font-family="Helvetica,sans-Serif" font-size="10.00">sm::StateMachine</text>
<polyline fill="none" stroke="black" points="311.881,-97 422.119,-97 "/>
<text text-anchor="middle" x="367" y="-85" font-family="Helvetica,sans-Serif" font-size="10.00"> </text>
<polyline fill="none" stroke="black" points="311.881,-79 422.119,-79 "/>
<text text-anchor="start" x="319.881" y="-67" font-family="Helvetica,sans-Serif" font-size="10.00">+ StateMachine()</text>
<text text-anchor="start" x="319.881" y="-57" font-family="Helvetica,sans-Serif" font-size="10.00">+ append_action()</text>
<text text-anchor="start" x="319.881" y="-47" font-family="Helvetica,sans-Serif" font-size="10.00">+ append_condition()</text>
<text text-anchor="start" x="319.881" y="-37" font-family="Helvetica,sans-Serif" font-size="10.00">+ append_state()</text>
<text text-anchor="start" x="319.881" y="-27" font-family="Helvetica,sans-Serif" font-size="10.00">+ execute()</text>
<text text-anchor="start" x="319.881" y="-17" font-family="Helvetica,sans-Serif" font-size="10.00">+ execute_action()</text>
<text text-anchor="start" x="319.881" y="-7" font-family="Helvetica,sans-Serif" font-size="10.00">and 4 more...</text>
</a>
</g>
</g>
<!-- Node1&#45;&gt;Node8 -->
<g id="edge7" class="edge"><title>Node1&#45;&gt;Node8</title>
<path fill="none" stroke="midnightblue" d="M236.842,-160.633C258.111,-147.46 282.155,-131.728 303,-116 305.851,-113.849 308.729,-111.601 311.605,-109.292"/>
<polygon fill="none" stroke="midnightblue" points="234.914,-157.71 228.224,-165.925 238.577,-163.674 234.914,-157.71"/>
</g>
<!-- Node2 -->
<g id="node2" class="node"><title>Node2</title>
<g id="a_node2"><a xlink:href="classapi_1_1_sm_work_object.html" target="_top" xlink:title="State Machine Work Object Class. ">
<polygon fill="none" stroke="black" points="129.021,-275 129.021,-329 230.979,-329 230.979,-275 129.021,-275"/>
<text text-anchor="middle" x="180" y="-317" font-family="Helvetica,sans-Serif" font-size="10.00">api::SmWorkObject</text>
<polyline fill="none" stroke="black" points="129.021,-311 230.979,-311 "/>
<text text-anchor="middle" x="180" y="-299" font-family="Helvetica,sans-Serif" font-size="10.00"> </text>
<polyline fill="none" stroke="black" points="129.021,-293 230.979,-293 "/>
<text text-anchor="middle" x="180" y="-281" font-family="Helvetica,sans-Serif" font-size="10.00"> </text>
</a>
</g>
</g>
<!-- Node2&#45;&gt;Node1 -->
<g id="edge1" class="edge"><title>Node2&#45;&gt;Node1</title>
<path fill="none" stroke="midnightblue" d="M180,-264.503C180,-255.755 180,-246.351 180,-237.399"/>
<polygon fill="none" stroke="midnightblue" points="176.5,-264.775 180,-274.775 183.5,-264.775 176.5,-264.775"/>
</g>
<!-- Node3 -->
<g id="node3" class="node"><title>Node3</title>
<g id="a_node3"><a xlink:href="classapi_1_1_work_object.html" target="_top" xlink:title="WorkObject Class. ">
<polygon fill="none" stroke="black" points="108.914,-367 108.914,-511 251.086,-511 251.086,-367 108.914,-367"/>
<text text-anchor="middle" x="180" y="-499" font-family="Helvetica,sans-Serif" font-size="10.00">api::WorkObject</text>
<polyline fill="none" stroke="black" points="108.914,-493 251.086,-493 "/>
<text text-anchor="middle" x="180" y="-481" font-family="Helvetica,sans-Serif" font-size="10.00"> </text>
<polyline fill="none" stroke="black" points="108.914,-475 251.086,-475 "/>
<text text-anchor="start" x="116.914" y="-463" font-family="Helvetica,sans-Serif" font-size="10.00">+ WorkObject()</text>
<text text-anchor="start" x="116.914" y="-453" font-family="Helvetica,sans-Serif" font-size="10.00">+ clear_error_number()</text>
<text text-anchor="start" x="116.914" y="-443" font-family="Helvetica,sans-Serif" font-size="10.00">+ error_number()</text>
<text text-anchor="start" x="116.914" y="-433" font-family="Helvetica,sans-Serif" font-size="10.00">+ exit_fatal()</text>
<text text-anchor="start" x="116.914" y="-423" font-family="Helvetica,sans-Serif" font-size="10.00"># set_error_number()</text>
<text text-anchor="start" x="116.914" y="-413" font-family="Helvetica,sans-Serif" font-size="10.00"># set_error_number_if</text>
<text text-anchor="start" x="116.914" y="-403" font-family="Helvetica,sans-Serif" font-size="10.00">_error()</text>
<text text-anchor="start" x="116.914" y="-393" font-family="Helvetica,sans-Serif" font-size="10.00"># set_error_number_if_null()</text>
<text text-anchor="start" x="116.914" y="-383" font-family="Helvetica,sans-Serif" font-size="10.00"># set_error_number_to</text>
<text text-anchor="start" x="116.914" y="-373" font-family="Helvetica,sans-Serif" font-size="10.00">_errno()</text>
</a>
</g>
</g>
<!-- Node3&#45;&gt;Node2 -->
<g id="edge2" class="edge"><title>Node3&#45;&gt;Node2</title>
<path fill="none" stroke="midnightblue" d="M180,-356.911C180,-346.983 180,-337.464 180,-329.262"/>
<polygon fill="none" stroke="midnightblue" points="176.5,-356.942 180,-366.942 183.5,-356.942 176.5,-356.942"/>
</g>
<!-- Node4 -->
<g id="node4" class="node"><title>Node4</title>
<g id="a_node4"><a xlink:href="classapi_1_1_api_object.html" target="_top" xlink:title="API Object Class. ">
<polygon fill="none" stroke="black" points="138.79,-549 138.79,-603 221.21,-603 221.21,-549 138.79,-549"/>
<text text-anchor="middle" x="180" y="-591" font-family="Helvetica,sans-Serif" font-size="10.00">api::ApiObject</text>
<polyline fill="none" stroke="black" points="138.79,-585 221.21,-585 "/>
<text text-anchor="middle" x="180" y="-573" font-family="Helvetica,sans-Serif" font-size="10.00"> </text>
<polyline fill="none" stroke="black" points="138.79,-567 221.21,-567 "/>
<text text-anchor="start" x="146.79" y="-555" font-family="Helvetica,sans-Serif" font-size="10.00">+ api_version()</text>
</a>
</g>
</g>
<!-- Node4&#45;&gt;Node3 -->
<g id="edge3" class="edge"><title>Node4&#45;&gt;Node3</title>
<path fill="none" stroke="midnightblue" d="M180,-538.925C180,-530.287 180,-520.765 180,-511.145"/>
<polygon fill="none" stroke="midnightblue" points="176.5,-538.971 180,-548.971 183.5,-538.971 176.5,-538.971"/>
</g>
</g>
</svg>
        <g id="navigator" transform="translate(0 0)" fill="#404254">
                <rect fill="#f2f5e9" fill-opacity="0.5" stroke="#606060" stroke-width=".5" x="0" y="0" width="60" height="60"/>
                <use id="zoomplus" xlink:href="#zoomPlus" x="17" y="9" onmousedown="handleZoom(evt,'in')"/>
                <use id="zoomminus" xlink:href="#zoomMin" x="42" y="9" onmousedown="handleZoom(evt,'out')"/>
                <use id="reset" xlink:href="#resetDef" x="30" y="36" onmousedown="handleReset()"/>
                <g id="arrowUp" xlink:href="#dirArrow" transform="translate(30 24)" onmousedown="handlePan(0,-1)">
                  <use xlink:href="#rim" fill="#404040">
                        <set attributeName="fill" to="#808080" begin="arrowUp.mouseover" end="arrowUp.mouseout"/>
                  </use>
                  <path fill="none" stroke="white" stroke-width="1.5" d="M0,-3.0v7 M-2.5,-0.5L0,-3.0L2.5,-0.5"/>
                </g>
                <g id="arrowRight" xlink:href="#dirArrow" transform="rotate(90) translate(36 -43)" onmousedown="handlePan(1,0)">
                  <use xlink:href="#rim" fill="#404040">
                        <set attributeName="fill" to="#808080" begin="arrowRight.mouseover" end="arrowRight.mouseout"/>
                  </use>
                  <path fill="none" stroke="white" stroke-width="1.5" d="M0,-3.0v7 M-2.5,-0.5L0,-3.0L2.5,-0.5"/>
                </g>
                <g id="arrowDown" xlink:href="#dirArrow" transform="rotate(180) translate(-30 -48)" onmousedown="handlePan(0,1)">
                  <use xlink:href="#rim" fill="#404040">
                        <set attributeName="fill" to="#808080" begin="arrowDown.mouseover" end="arrowDown.mouseout"/>
                  </use>
                  <path fill="none" stroke="white" stroke-width="1.5" d="M0,-3.0v7 M-2.5,-0.5L0,-3.0L2.5,-0.5"/>
                </g>
                <g id="arrowLeft" xlink:href="#dirArrow" transform="rotate(270) translate(-36 17)" onmousedown="handlePan(-1,0)">
                  <use xlink:href="#rim" fill="#404040">
                        <set attributeName="fill" to="#808080" begin="arrowLeft.mouseover" end="arrowLeft.mouseout"/>
                  </use>
                  <path fill="none" stroke="white" stroke-width="1.5" d="M0,-3.0v7 M-2.5,-0.5L0,-3.0L2.5,-0.5"/>
                </g>
        </g>
        <svg viewBox="0 0 15 15" width="100%" height="30px" preserveAspectRatio="xMaxYMin meet">
         <g id="arrow_out" transform="scale(0.3 0.3)">
          <a xlink:href="classsm_1_1_object__inherit__graph_org.svg" target="_base">
           <rect id="button" ry="5" rx="5" y="6" x="6" height="38" width="38"
                fill="#f2f5e9" fill-opacity="0.5" stroke="#606060" stroke-width="1.0"/>
           <path id="arrow"
             d="M 11.500037,31.436501 C 11.940474,20.09759 22.043105,11.32322 32.158766,21.979434 L 37.068811,17.246167 C 37.068811,17.246167 37.088388,32 37.088388,32 L 22.160133,31.978069 C 22.160133,31.978069 26.997745,27.140456 26.997745,27.140456 C 18.528582,18.264221 13.291696,25.230495 11.500037,31.436501 z"
             style="fill:#404040;"/>
          </a>
         </g>
        </svg>
</svg>
