<?xml version="1.0" encoding="UTF-8" standalone="no"?>
<!DOCTYPE svg PUBLIC "-//W3C//DTD SVG 1.1//EN"
 "http://www.w3.org/Graphics/SVG/1.1/DTD/svg11.dtd">
<!-- Generated by graphviz version 2.36.0 (20140111.2315)
 -->
<!-- Title: api::VarInfoObject Pages: 1 -->
<svg width="102pt" height="248pt"
 viewBox="0.00 0.00 102.00 248.00" xmlns="http://www.w3.org/2000/svg" xmlns:xlink="http://www.w3.org/1999/xlink">
<g id="graph0" class="graph" transform="scale(1 1) rotate(0) translate(4 244)">
<title>api::VarInfoObject</title>
<!-- Node1 -->
<g id="node1" class="node"><title>Node1</title>
<polygon fill="#bfbfbf" stroke="black" points="-0.65332,-1 -0.65332,-55 94.6533,-55 94.6533,-1 -0.65332,-1"/>
<text text-anchor="middle" x="47" y="-43" font-family="Helvetica,sans-Serif" font-size="10.00">api::VarInfoObject</text>
<polyline fill="none" stroke="black" points="-0.65332,-37 94.6533,-37 "/>
<text text-anchor="middle" x="47" y="-25" font-family="Helvetica,sans-Serif" font-size="10.00"> </text>
<polyline fill="none" stroke="black" points="-0.65332,-19 94.6533,-19 "/>
<text text-anchor="middle" x="47" y="-7" font-family="Helvetica,sans-Serif" font-size="10.00"> </text>
</g>
<!-- Node2 -->
<g id="node2" class="node"><title>Node2</title>
<g id="a_node2"><a xlink:href="classapi_1_1_info_object.html" target="_top" xlink:title="Information Object. ">
<polygon fill="none" stroke="black" points="6.75879,-93 6.75879,-147 87.2412,-147 87.2412,-93 6.75879,-93"/>
<text text-anchor="middle" x="47" y="-135" font-family="Helvetica,sans-Serif" font-size="10.00">api::InfoObject</text>
<polyline fill="none" stroke="black" points="6.75879,-129 87.2412,-129 "/>
<text text-anchor="middle" x="47" y="-117" font-family="Helvetica,sans-Serif" font-size="10.00"> </text>
<polyline fill="none" stroke="black" points="6.75879,-111 87.2412,-111 "/>
<text text-anchor="middle" x="47" y="-99" font-family="Helvetica,sans-Serif" font-size="10.00"> </text>
</a>
</g>
</g>
<!-- Node2&#45;&gt;Node1 -->
<g id="edge1" class="edge"><title>Node2&#45;&gt;Node1</title>
<path fill="none" stroke="midnightblue" d="M47,-82.8649C47,-73.6445 47,-63.9071 47,-55.285"/>
<polygon fill="none" stroke="midnightblue" points="43.5001,-82.9682 47,-92.9683 50.5001,-82.9683 43.5001,-82.9682"/>
</g>
<!-- Node3 -->
<g id="node3" class="node"><title>Node3</title>
<g id="a_node3"><a xlink:href="classapi_1_1_api_object.html" target="_top" xlink:title="Application Programming Interface Object. ">
<polygon fill="none" stroke="black" points="5.78955,-185 5.78955,-239 88.2104,-239 88.2104,-185 5.78955,-185"/>
<text text-anchor="middle" x="47" y="-227" font-family="Helvetica,sans-Serif" font-size="10.00">api::ApiObject</text>
<polyline fill="none" stroke="black" points="5.78955,-221 88.2104,-221 "/>
<text text-anchor="middle" x="47" y="-209" font-family="Helvetica,sans-Serif" font-size="10.00"> </text>
<polyline fill="none" stroke="black" points="5.78955,-203 88.2104,-203 "/>
<text text-anchor="start" x="13.7896" y="-191" font-family="Helvetica,sans-Serif" font-size="10.00">+ api_version()</text>
</a>
</g>
</g>
<!-- Node3&#45;&gt;Node2 -->
<g id="edge2" class="edge"><title>Node3&#45;&gt;Node2</title>
<path fill="none" stroke="midnightblue" d="M47,-174.865C47,-165.644 47,-155.907 47,-147.285"/>
<polygon fill="none" stroke="midnightblue" points="43.5001,-174.968 47,-184.968 50.5001,-174.968 43.5001,-174.968"/>
</g>
</g>
</svg>
