<?xml version="1.0" encoding="UTF-8" standalone="no"?>
<!DOCTYPE svg PUBLIC "-//W3C//DTD SVG 1.1//EN"
 "http://www.w3.org/Graphics/SVG/1.1/DTD/svg11.dtd">
<!-- Generated by graphviz version 2.36.0 (20140111.2315)
 -->
<!-- Title: ui::Menu Pages: 1 -->
<svg width="142pt" height="690pt"
 viewBox="0.00 0.00 142.00 690.00" xmlns="http://www.w3.org/2000/svg" xmlns:xlink="http://www.w3.org/1999/xlink">
<g id="graph0" class="graph" transform="scale(1 1) rotate(0) translate(4 686)">
<title>ui::Menu</title>
<!-- Node1 -->
<g id="node1" class="node"><title>Node1</title>
<polygon fill="#bfbfbf" stroke="black" points="21.334,-1 21.334,-95 112.666,-95 112.666,-1 21.334,-1"/>
<text text-anchor="middle" x="67" y="-83" font-family="Helvetica,sans-Serif" font-size="10.00">ui::Menu</text>
<polyline fill="none" stroke="black" points="21.334,-77 112.666,-77 "/>
<text text-anchor="middle" x="67" y="-65" font-family="Helvetica,sans-Serif" font-size="10.00"> </text>
<polyline fill="none" stroke="black" points="21.334,-59 112.666,-59 "/>
<text text-anchor="start" x="29.334" y="-47" font-family="Helvetica,sans-Serif" font-size="10.00">+ Menu()</text>
<text text-anchor="start" x="29.334" y="-37" font-family="Helvetica,sans-Serif" font-size="10.00">+ current()</text>
<text text-anchor="start" x="29.334" y="-27" font-family="Helvetica,sans-Serif" font-size="10.00">+ draw()</text>
<text text-anchor="start" x="29.334" y="-17" font-family="Helvetica,sans-Serif" font-size="10.00">+ handle_event()</text>
<text text-anchor="start" x="29.334" y="-7" font-family="Helvetica,sans-Serif" font-size="10.00">+ set_current()</text>
</g>
<!-- Node2 -->
<g id="node2" class="node"><title>Node2</title>
<g id="a_node2"><a xlink:href="classui_1_1_linked_element.html" target="_top" xlink:title="Linked Element. ">
<polygon fill="none" stroke="black" points="18.2847,-133 18.2847,-247 115.715,-247 115.715,-133 18.2847,-133"/>
<text text-anchor="middle" x="67" y="-235" font-family="Helvetica,sans-Serif" font-size="10.00">ui::LinkedElement</text>
<polyline fill="none" stroke="black" points="18.2847,-229 115.715,-229 "/>
<text text-anchor="middle" x="67" y="-217" font-family="Helvetica,sans-Serif" font-size="10.00"> </text>
<polyline fill="none" stroke="black" points="18.2847,-211 115.715,-211 "/>
<text text-anchor="start" x="26.2847" y="-199" font-family="Helvetica,sans-Serif" font-size="10.00">+ LinkedElement()</text>
<text text-anchor="start" x="26.2847" y="-189" font-family="Helvetica,sans-Serif" font-size="10.00">+ LinkedElement()</text>
<text text-anchor="start" x="26.2847" y="-179" font-family="Helvetica,sans-Serif" font-size="10.00">+ child()</text>
<text text-anchor="start" x="26.2847" y="-169" font-family="Helvetica,sans-Serif" font-size="10.00">+ handle_event()</text>
<text text-anchor="start" x="26.2847" y="-159" font-family="Helvetica,sans-Serif" font-size="10.00">+ parent()</text>
<text text-anchor="start" x="26.2847" y="-149" font-family="Helvetica,sans-Serif" font-size="10.00">+ set_child()</text>
<text text-anchor="start" x="26.2847" y="-139" font-family="Helvetica,sans-Serif" font-size="10.00">+ set_parent()</text>
</a>
</g>
</g>
<!-- Node2&#45;&gt;Node1 -->
<g id="edge1" class="edge"><title>Node2&#45;&gt;Node1</title>
<path fill="none" stroke="midnightblue" d="M67,-122.823C67,-113.509 67,-104.105 67,-95.2717"/>
<polygon fill="none" stroke="midnightblue" points="63.5001,-122.863 67,-132.863 70.5001,-122.863 63.5001,-122.863"/>
</g>
<!-- Node3 -->
<g id="node3" class="node"><title>Node3</title>
<g id="a_node3"><a xlink:href="classui_1_1_element.html" target="_top" xlink:title="Element Class. ">
<polygon fill="none" stroke="black" points="-0.614258,-285 -0.614258,-419 134.614,-419 134.614,-285 -0.614258,-285"/>
<text text-anchor="middle" x="67" y="-407" font-family="Helvetica,sans-Serif" font-size="10.00">ui::Element</text>
<polyline fill="none" stroke="black" points="-0.614258,-401 134.614,-401 "/>
<text text-anchor="start" x="7.38574" y="-389" font-family="Helvetica,sans-Serif" font-size="10.00"># m_animation_attr</text>
<polyline fill="none" stroke="black" points="-0.614258,-383 134.614,-383 "/>
<text text-anchor="start" x="7.38574" y="-371" font-family="Helvetica,sans-Serif" font-size="10.00">+ Element()</text>
<text text-anchor="start" x="7.38574" y="-361" font-family="Helvetica,sans-Serif" font-size="10.00">+ animation_attr()</text>
<text text-anchor="start" x="7.38574" y="-351" font-family="Helvetica,sans-Serif" font-size="10.00">+ animation_frame_delay()</text>
<text text-anchor="start" x="7.38574" y="-341" font-family="Helvetica,sans-Serif" font-size="10.00">+ animation_path()</text>
<text text-anchor="start" x="7.38574" y="-331" font-family="Helvetica,sans-Serif" font-size="10.00">+ animation_type()</text>
<text text-anchor="start" x="7.38574" y="-321" font-family="Helvetica,sans-Serif" font-size="10.00">+ handle_event()</text>
<text text-anchor="start" x="7.38574" y="-311" font-family="Helvetica,sans-Serif" font-size="10.00">and 21 more...</text>
<text text-anchor="start" x="7.38574" y="-301" font-family="Helvetica,sans-Serif" font-size="10.00"># adjust_x_center()</text>
<text text-anchor="start" x="7.38574" y="-291" font-family="Helvetica,sans-Serif" font-size="10.00"># draw_scroll()</text>
</a>
</g>
</g>
<!-- Node3&#45;&gt;Node2 -->
<g id="edge2" class="edge"><title>Node3&#45;&gt;Node2</title>
<path fill="none" stroke="midnightblue" d="M67,-274.907C67,-265.558 67,-256.139 67,-247.16"/>
<polygon fill="none" stroke="midnightblue" points="63.5001,-274.998 67,-284.998 70.5001,-274.998 63.5001,-274.998"/>
</g>
<!-- Node4 -->
<g id="node4" class="node"><title>Node4</title>
<g id="a_node4"><a xlink:href="classdraw_1_1_drawing.html" target="_top" xlink:title="Drawing Class. ">
<polygon fill="none" stroke="black" points="7.44727,-457 7.44727,-681 126.553,-681 126.553,-457 7.44727,-457"/>
<text text-anchor="middle" x="67" y="-669" font-family="Helvetica,sans-Serif" font-size="10.00">draw::Drawing</text>
<polyline fill="none" stroke="black" points="7.44727,-663 126.553,-663 "/>
<text text-anchor="middle" x="67" y="-651" font-family="Helvetica,sans-Serif" font-size="10.00"> </text>
<polyline fill="none" stroke="black" points="7.44727,-645 126.553,-645 "/>
<text text-anchor="start" x="15.4473" y="-633" font-family="Helvetica,sans-Serif" font-size="10.00">+ Drawing()</text>
<text text-anchor="start" x="15.4473" y="-623" font-family="Helvetica,sans-Serif" font-size="10.00">+ dark()</text>
<text text-anchor="start" x="15.4473" y="-613" font-family="Helvetica,sans-Serif" font-size="10.00">+ draw()</text>
<text text-anchor="start" x="15.4473" y="-603" font-family="Helvetica,sans-Serif" font-size="10.00">+ draw()</text>
<text text-anchor="start" x="15.4473" y="-593" font-family="Helvetica,sans-Serif" font-size="10.00">+ draw_scratch()</text>
<text text-anchor="start" x="15.4473" y="-583" font-family="Helvetica,sans-Serif" font-size="10.00">+ draw_to_scale()</text>
<text text-anchor="start" x="15.4473" y="-573" font-family="Helvetica,sans-Serif" font-size="10.00">and 18 more...</text>
<text text-anchor="start" x="15.4473" y="-563" font-family="Helvetica,sans-Serif" font-size="10.00">+ clear()</text>
<text text-anchor="start" x="15.4473" y="-553" font-family="Helvetica,sans-Serif" font-size="10.00">+ draw_checkerboard()</text>
<text text-anchor="start" x="15.4473" y="-543" font-family="Helvetica,sans-Serif" font-size="10.00">+ draw_pattern()</text>
<text text-anchor="start" x="15.4473" y="-533" font-family="Helvetica,sans-Serif" font-size="10.00">+ h()</text>
<text text-anchor="start" x="15.4473" y="-523" font-family="Helvetica,sans-Serif" font-size="10.00">+ height()</text>
<text text-anchor="start" x="15.4473" y="-513" font-family="Helvetica,sans-Serif" font-size="10.00">+ invert()</text>
<text text-anchor="start" x="15.4473" y="-503" font-family="Helvetica,sans-Serif" font-size="10.00">and 4 more...</text>
<text text-anchor="start" x="15.4473" y="-493" font-family="Helvetica,sans-Serif" font-size="10.00"># dim_on_bitmap()</text>
<text text-anchor="start" x="15.4473" y="-483" font-family="Helvetica,sans-Serif" font-size="10.00"># flag()</text>
<text text-anchor="start" x="15.4473" y="-473" font-family="Helvetica,sans-Serif" font-size="10.00"># point_on_bitmap()</text>
<text text-anchor="start" x="15.4473" y="-463" font-family="Helvetica,sans-Serif" font-size="10.00"># set_flag()</text>
</a>
</g>
</g>
<!-- Node4&#45;&gt;Node3 -->
<g id="edge3" class="edge"><title>Node4&#45;&gt;Node3</title>
<path fill="none" stroke="midnightblue" d="M67,-446.544C67,-437.204 67,-428.007 67,-419.241"/>
<polygon fill="none" stroke="midnightblue" points="63.5001,-446.721 67,-456.721 70.5001,-446.721 63.5001,-446.721"/>
</g>
</g>
</svg>
