<?xml version="1.0" encoding="UTF-8" standalone="no"?>
<!DOCTYPE svg PUBLIC "-//W3C//DTD SVG 1.1//EN"
 "http://www.w3.org/Graphics/SVG/1.1/DTD/svg11.dtd">
<!-- Generated by graphviz version 2.36.0 (20140111.2315)
 -->
<!-- Title: calc::Checksum Pages: 1 -->
<svg width="122pt" height="256pt"
 viewBox="0.00 0.00 122.00 256.00" xmlns="http://www.w3.org/2000/svg" xmlns:xlink="http://www.w3.org/1999/xlink">
<g id="graph0" class="graph" transform="scale(1 1) rotate(0) translate(4 252)">
<title>calc::Checksum</title>
<!-- Node1 -->
<g id="node1" class="node"><title>Node1</title>
<polygon fill="#bfbfbf" stroke="black" points="4.68115,-1 4.68115,-85 109.319,-85 109.319,-1 4.68115,-1"/>
<text text-anchor="middle" x="57" y="-73" font-family="Helvetica,sans-Serif" font-size="10.00">calc::Checksum</text>
<polyline fill="none" stroke="black" points="4.68115,-67 109.319,-67 "/>
<text text-anchor="middle" x="57" y="-55" font-family="Helvetica,sans-Serif" font-size="10.00"> </text>
<polyline fill="none" stroke="black" points="4.68115,-49 109.319,-49 "/>
<text text-anchor="start" x="12.6812" y="-37" font-family="Helvetica,sans-Serif" font-size="10.00">+ calc_zero_sum()</text>
<text text-anchor="start" x="12.6812" y="-27" font-family="Helvetica,sans-Serif" font-size="10.00">+ calc_zero_sum()</text>
<text text-anchor="start" x="12.6812" y="-17" font-family="Helvetica,sans-Serif" font-size="10.00">+ verify_zero_sum()</text>
<text text-anchor="start" x="12.6812" y="-7" font-family="Helvetica,sans-Serif" font-size="10.00">+ verify_zero_sum()</text>
</g>
<!-- Node2 -->
<g id="node2" class="node"><title>Node2</title>
<g id="a_node2"><a xlink:href="classapi_1_1_s_object.html" target="_top" xlink:title="SObject Class. ">
<polygon fill="none" stroke="black" points="-0.191895,-123 -0.191895,-247 114.192,-247 114.192,-123 -0.191895,-123"/>
<text text-anchor="middle" x="57" y="-235" font-family="Helvetica,sans-Serif" font-size="10.00">api::SObject</text>
<polyline fill="none" stroke="black" points="-0.191895,-229 114.192,-229 "/>
<text text-anchor="middle" x="57" y="-217" font-family="Helvetica,sans-Serif" font-size="10.00"> </text>
<polyline fill="none" stroke="black" points="-0.191895,-211 114.192,-211 "/>
<text text-anchor="start" x="7.80811" y="-199" font-family="Helvetica,sans-Serif" font-size="10.00">+ SObject()</text>
<text text-anchor="start" x="7.80811" y="-189" font-family="Helvetica,sans-Serif" font-size="10.00">+ api_version()</text>
<text text-anchor="start" x="7.80811" y="-179" font-family="Helvetica,sans-Serif" font-size="10.00">+ clear_error()</text>
<text text-anchor="start" x="7.80811" y="-169" font-family="Helvetica,sans-Serif" font-size="10.00">+ error_number()</text>
<text text-anchor="start" x="7.80811" y="-159" font-family="Helvetica,sans-Serif" font-size="10.00">+ exit_fatal()</text>
<text text-anchor="start" x="7.80811" y="-149" font-family="Helvetica,sans-Serif" font-size="10.00"># set_error_number()</text>
<text text-anchor="start" x="7.80811" y="-139" font-family="Helvetica,sans-Serif" font-size="10.00"># set_error_number_if</text>
<text text-anchor="start" x="7.80811" y="-129" font-family="Helvetica,sans-Serif" font-size="10.00">_error()</text>
</a>
</g>
</g>
<!-- Node2&#45;&gt;Node1 -->
<g id="edge1" class="edge"><title>Node2&#45;&gt;Node1</title>
<path fill="none" stroke="midnightblue" d="M57,-112.475C57,-103.134 57,-93.8295 57,-85.2268"/>
<polygon fill="none" stroke="midnightblue" points="53.5001,-112.594 57,-122.594 60.5001,-112.594 53.5001,-112.594"/>
</g>
</g>
</svg>
