<?xml version="1.0" encoding="UTF-8" standalone="no"?>
<!DOCTYPE svg PUBLIC "-//W3C//DTD SVG 1.1//EN"
 "http://www.w3.org/Graphics/SVG/1.1/DTD/svg11.dtd">
<!-- Generated by graphviz version 2.36.0 (20140111.2315)
 -->
<!-- Title: draw::IconAttr Pages: 1 -->
<!--zoomable 522 -->
<svg id="main" version="1.1" xmlns="http://www.w3.org/2000/svg" xmlns:xlink="http://www.w3.org/1999/xlink" xml:space="preserve" onload="init(evt)">
<style type="text/css"><![CDATA[
.edge:hover path { stroke: red; }
.edge:hover polygon { stroke: red; fill: red; }
]]></style>
<script type="text/javascript"><![CDATA[
var edges = document.getElementsByTagName('g');
if (edges && edges.length) {
  for (var i=0;i<edges.length;i++) {
    if (edges[i].id.substr(0,4)=='edge') {
      edges[i].setAttribute('class','edge');
    }
  }
}
]]></script>
        <defs>
                <circle id="rim" cx="0" cy="0" r="7"/>
                <circle id="rim2" cx="0" cy="0" r="3.5"/>
                <g id="zoomPlus">
                        <use xlink:href="#rim" fill="#404040">
                                <set attributeName="fill" to="#808080" begin="zoomplus.mouseover" end="zoomplus.mouseout"/>
                        </use>
                        <path d="M-4,0h8M0,-4v8" fill="none" stroke="white" stroke-width="1.5" pointer-events="none"/>
                </g>
                <g id="zoomMin">
                        <use xlink:href="#rim" fill="#404040">
                                <set attributeName="fill" to="#808080" begin="zoomminus.mouseover" end="zoomminus.mouseout"/>
                        </use>
                        <path d="M-4,0h8" fill="none" stroke="white" stroke-width="1.5" pointer-events="none"/>
                </g>
                <g id="dirArrow">
                        <path fill="none" stroke="white" stroke-width="1.5" d="M0,-3.0v7 M-2.5,-0.5L0,-3.0L2.5,-0.5"/>
                </g>
               <g id="resetDef">
                       <use xlink:href="#rim2" fill="#404040">
                               <set attributeName="fill" to="#808080" begin="reset.mouseover" end="reset.mouseout"/>
                       </use>
               </g>
        </defs>

<script type="text/javascript">
var viewWidth = 114;
var viewHeight = 522;
var sectionId = 'dynsection-0';
</script>
<script xlink:href="svgpan.js"/>
<svg id="graph" class="graph">
<g id="viewport">
<title>draw::IconAttr</title>
<!-- Node1 -->
<g id="node1" class="node"><title>Node1</title>
<polygon fill="#bfbfbf" stroke="black" points="-0.158691,-113 -0.158691,-237 106.159,-237 106.159,-113 -0.158691,-113"/>
<text text-anchor="middle" x="53" y="-225" font-family="Helvetica,sans-Serif" font-size="10.00">draw::IconAttr</text>
<polyline fill="none" stroke="black" points="-0.158691,-219 106.159,-219 "/>
<text text-anchor="middle" x="53" y="-207" font-family="Helvetica,sans-Serif" font-size="10.00"> </text>
<polyline fill="none" stroke="black" points="-0.158691,-201 106.159,-201 "/>
<text text-anchor="start" x="7.84131" y="-189" font-family="Helvetica,sans-Serif" font-size="10.00">+ IconAttr()</text>
<text text-anchor="start" x="7.84131" y="-179" font-family="Helvetica,sans-Serif" font-size="10.00">+ IconAttr()</text>
<text text-anchor="start" x="7.84131" y="-169" font-family="Helvetica,sans-Serif" font-size="10.00">+ icon()</text>
<text text-anchor="start" x="7.84131" y="-159" font-family="Helvetica,sans-Serif" font-size="10.00">+ pen()</text>
<text text-anchor="start" x="7.84131" y="-149" font-family="Helvetica,sans-Serif" font-size="10.00">+ pen_const()</text>
<text text-anchor="start" x="7.84131" y="-139" font-family="Helvetica,sans-Serif" font-size="10.00">+ rotation()</text>
<text text-anchor="start" x="7.84131" y="-129" font-family="Helvetica,sans-Serif" font-size="10.00">and 4 more...</text>
<text text-anchor="start" x="7.84131" y="-119" font-family="Helvetica,sans-Serif" font-size="10.00">+ get_system_icon()</text>
</g>
<!-- Node5 -->
<g id="node5" class="node"><title>Node5</title>
<g id="a_node5"><a xlink:href="classdraw_1_1_icon.html" target="_top" xlink:title="Icon Class. ">
<polygon fill="none" stroke="black" points="5.11963,-1 5.11963,-75 100.88,-75 100.88,-1 5.11963,-1"/>
<text text-anchor="middle" x="53" y="-63" font-family="Helvetica,sans-Serif" font-size="10.00">draw::Icon</text>
<polyline fill="none" stroke="black" points="5.11963,-57 100.88,-57 "/>
<text text-anchor="middle" x="53" y="-45" font-family="Helvetica,sans-Serif" font-size="10.00"> </text>
<polyline fill="none" stroke="black" points="5.11963,-39 100.88,-39 "/>
<text text-anchor="start" x="13.1196" y="-27" font-family="Helvetica,sans-Serif" font-size="10.00">+ Icon()</text>
<text text-anchor="start" x="13.1196" y="-17" font-family="Helvetica,sans-Serif" font-size="10.00">+ bounds()</text>
<text text-anchor="start" x="13.1196" y="-7" font-family="Helvetica,sans-Serif" font-size="10.00">+ draw_to_scale()</text>
</a>
</g>
</g>
<!-- Node1&#45;&gt;Node5 -->
<g id="edge4" class="edge"><title>Node1&#45;&gt;Node5</title>
<path fill="none" stroke="midnightblue" d="M53,-102.561C53,-93.1113 53,-83.7651 53,-75.2663"/>
<polygon fill="none" stroke="midnightblue" points="49.5001,-102.82 53,-112.82 56.5001,-102.82 49.5001,-102.82"/>
</g>
<!-- Node2 -->
<g id="node2" class="node"><title>Node2</title>
<g id="a_node2"><a xlink:href="classapi_1_1_draw_info_object.html" target="_top" xlink:title="Draw Information Object. ">
<polygon fill="none" stroke="black" points="1.09131,-275 1.09131,-329 104.909,-329 104.909,-275 1.09131,-275"/>
<text text-anchor="middle" x="53" y="-317" font-family="Helvetica,sans-Serif" font-size="10.00">api::DrawInfoObject</text>
<polyline fill="none" stroke="black" points="1.09131,-311 104.909,-311 "/>
<text text-anchor="middle" x="53" y="-299" font-family="Helvetica,sans-Serif" font-size="10.00"> </text>
<polyline fill="none" stroke="black" points="1.09131,-293 104.909,-293 "/>
<text text-anchor="middle" x="53" y="-281" font-family="Helvetica,sans-Serif" font-size="10.00"> </text>
</a>
</g>
</g>
<!-- Node2&#45;&gt;Node1 -->
<g id="edge1" class="edge"><title>Node2&#45;&gt;Node1</title>
<path fill="none" stroke="midnightblue" d="M53,-264.715C53,-256.071 53,-246.61 53,-237.188"/>
<polygon fill="none" stroke="midnightblue" points="49.5001,-264.796 53,-274.796 56.5001,-264.796 49.5001,-264.796"/>
</g>
<!-- Node3 -->
<g id="node3" class="node"><title>Node3</title>
<g id="a_node3"><a xlink:href="classapi_1_1_info_object.html" target="_top" xlink:title="Information Object. ">
<polygon fill="none" stroke="black" points="12.7588,-367 12.7588,-421 93.2412,-421 93.2412,-367 12.7588,-367"/>
<text text-anchor="middle" x="53" y="-409" font-family="Helvetica,sans-Serif" font-size="10.00">api::InfoObject</text>
<polyline fill="none" stroke="black" points="12.7588,-403 93.2412,-403 "/>
<text text-anchor="middle" x="53" y="-391" font-family="Helvetica,sans-Serif" font-size="10.00"> </text>
<polyline fill="none" stroke="black" points="12.7588,-385 93.2412,-385 "/>
<text text-anchor="middle" x="53" y="-373" font-family="Helvetica,sans-Serif" font-size="10.00"> </text>
</a>
</g>
</g>
<!-- Node3&#45;&gt;Node2 -->
<g id="edge2" class="edge"><title>Node3&#45;&gt;Node2</title>
<path fill="none" stroke="midnightblue" d="M53,-356.865C53,-347.644 53,-337.907 53,-329.285"/>
<polygon fill="none" stroke="midnightblue" points="49.5001,-356.968 53,-366.968 56.5001,-356.968 49.5001,-356.968"/>
</g>
<!-- Node4 -->
<g id="node4" class="node"><title>Node4</title>
<g id="a_node4"><a xlink:href="classapi_1_1_api_object.html" target="_top" xlink:title="Application Programming Interface Object. ">
<polygon fill="none" stroke="black" points="11.7896,-459 11.7896,-513 94.2104,-513 94.2104,-459 11.7896,-459"/>
<text text-anchor="middle" x="53" y="-501" font-family="Helvetica,sans-Serif" font-size="10.00">api::ApiObject</text>
<polyline fill="none" stroke="black" points="11.7896,-495 94.2104,-495 "/>
<text text-anchor="middle" x="53" y="-483" font-family="Helvetica,sans-Serif" font-size="10.00"> </text>
<polyline fill="none" stroke="black" points="11.7896,-477 94.2104,-477 "/>
<text text-anchor="start" x="19.7896" y="-465" font-family="Helvetica,sans-Serif" font-size="10.00">+ api_version()</text>
</a>
</g>
</g>
<!-- Node4&#45;&gt;Node3 -->
<g id="edge3" class="edge"><title>Node4&#45;&gt;Node3</title>
<path fill="none" stroke="midnightblue" d="M53,-448.865C53,-439.644 53,-429.907 53,-421.285"/>
<polygon fill="none" stroke="midnightblue" points="49.5001,-448.968 53,-458.968 56.5001,-448.968 49.5001,-448.968"/>
</g>
</g>
</svg>
        <g id="navigator" transform="translate(0 0)" fill="#404254">
                <rect fill="#f2f5e9" fill-opacity="0.5" stroke="#606060" stroke-width=".5" x="0" y="0" width="60" height="60"/>
                <use id="zoomplus" xlink:href="#zoomPlus" x="17" y="9" onmousedown="handleZoom(evt,'in')"/>
                <use id="zoomminus" xlink:href="#zoomMin" x="42" y="9" onmousedown="handleZoom(evt,'out')"/>
                <use id="reset" xlink:href="#resetDef" x="30" y="36" onmousedown="handleReset()"/>
                <g id="arrowUp" xlink:href="#dirArrow" transform="translate(30 24)" onmousedown="handlePan(0,-1)">
                  <use xlink:href="#rim" fill="#404040">
                        <set attributeName="fill" to="#808080" begin="arrowUp.mouseover" end="arrowUp.mouseout"/>
                  </use>
                  <path fill="none" stroke="white" stroke-width="1.5" d="M0,-3.0v7 M-2.5,-0.5L0,-3.0L2.5,-0.5"/>
                </g>
                <g id="arrowRight" xlink:href="#dirArrow" transform="rotate(90) translate(36 -43)" onmousedown="handlePan(1,0)">
                  <use xlink:href="#rim" fill="#404040">
                        <set attributeName="fill" to="#808080" begin="arrowRight.mouseover" end="arrowRight.mouseout"/>
                  </use>
                  <path fill="none" stroke="white" stroke-width="1.5" d="M0,-3.0v7 M-2.5,-0.5L0,-3.0L2.5,-0.5"/>
                </g>
                <g id="arrowDown" xlink:href="#dirArrow" transform="rotate(180) translate(-30 -48)" onmousedown="handlePan(0,1)">
                  <use xlink:href="#rim" fill="#404040">
                        <set attributeName="fill" to="#808080" begin="arrowDown.mouseover" end="arrowDown.mouseout"/>
                  </use>
                  <path fill="none" stroke="white" stroke-width="1.5" d="M0,-3.0v7 M-2.5,-0.5L0,-3.0L2.5,-0.5"/>
                </g>
                <g id="arrowLeft" xlink:href="#dirArrow" transform="rotate(270) translate(-36 17)" onmousedown="handlePan(-1,0)">
                  <use xlink:href="#rim" fill="#404040">
                        <set attributeName="fill" to="#808080" begin="arrowLeft.mouseover" end="arrowLeft.mouseout"/>
                  </use>
                  <path fill="none" stroke="white" stroke-width="1.5" d="M0,-3.0v7 M-2.5,-0.5L0,-3.0L2.5,-0.5"/>
                </g>
        </g>
        <svg viewBox="0 0 15 15" width="100%" height="30px" preserveAspectRatio="xMaxYMin meet">
         <g id="arrow_out" transform="scale(0.3 0.3)">
          <a xlink:href="classdraw_1_1_icon_attr__inherit__graph_org.svg" target="_base">
           <rect id="button" ry="5" rx="5" y="6" x="6" height="38" width="38"
                fill="#f2f5e9" fill-opacity="0.5" stroke="#606060" stroke-width="1.0"/>
           <path id="arrow"
             d="M 11.500037,31.436501 C 11.940474,20.09759 22.043105,11.32322 32.158766,21.979434 L 37.068811,17.246167 C 37.068811,17.246167 37.088388,32 37.088388,32 L 22.160133,31.978069 C 22.160133,31.978069 26.997745,27.140456 26.997745,27.140456 C 18.528582,18.264221 13.291696,25.230495 11.500037,31.436501 z"
             style="fill:#404040;"/>
          </a>
         </g>
        </svg>
</svg>
