<?xml version="1.0" encoding="UTF-8" standalone="no"?>
<!DOCTYPE svg PUBLIC "-//W3C//DTD SVG 1.1//EN"
 "http://www.w3.org/Graphics/SVG/1.1/DTD/svg11.dtd">
<!-- Generated by graphviz version 2.36.0 (20140111.2315)
 -->
<!-- Title: ui::Tab Pages: 1 -->
<svg width="349pt" height="570pt"
 viewBox="0.00 0.00 349.00 570.00" xmlns="http://www.w3.org/2000/svg" xmlns:xlink="http://www.w3.org/1999/xlink">
<g id="graph0" class="graph" transform="scale(1 1) rotate(0) translate(4 566)">
<title>ui::Tab</title>
<!-- Node1 -->
<g id="node1" class="node"><title>Node1</title>
<polygon fill="#bfbfbf" stroke="black" points="132.122,-215 132.122,-299 217.878,-299 217.878,-215 132.122,-215"/>
<text text-anchor="middle" x="175" y="-287" font-family="Helvetica,sans-Serif" font-size="10.00">ui::Tab</text>
<polyline fill="none" stroke="black" points="132.122,-281 217.878,-281 "/>
<text text-anchor="middle" x="175" y="-269" font-family="Helvetica,sans-Serif" font-size="10.00"> </text>
<polyline fill="none" stroke="black" points="132.122,-263 217.878,-263 "/>
<text text-anchor="start" x="140.122" y="-251" font-family="Helvetica,sans-Serif" font-size="10.00">+ Tab()</text>
<text text-anchor="start" x="140.122" y="-241" font-family="Helvetica,sans-Serif" font-size="10.00">+ element()</text>
<text text-anchor="start" x="140.122" y="-231" font-family="Helvetica,sans-Serif" font-size="10.00">+ set_element()</text>
<text text-anchor="start" x="140.122" y="-221" font-family="Helvetica,sans-Serif" font-size="10.00">+ calc_square()</text>
</g>
<!-- Node3 -->
<g id="node3" class="node"><title>Node3</title>
<g id="a_node3"><a xlink:href="classui_1_1_icon_tab.html" target="_top" xlink:title="Tab Icon Class. ">
<polygon fill="none" stroke="black" points="-0.151367,-103 -0.151367,-177 66.1514,-177 66.1514,-103 -0.151367,-103"/>
<text text-anchor="middle" x="33" y="-165" font-family="Helvetica,sans-Serif" font-size="10.00">ui::IconTab</text>
<polyline fill="none" stroke="black" points="-0.151367,-159 66.1514,-159 "/>
<text text-anchor="middle" x="33" y="-147" font-family="Helvetica,sans-Serif" font-size="10.00"> </text>
<polyline fill="none" stroke="black" points="-0.151367,-141 66.1514,-141 "/>
<text text-anchor="start" x="7.84863" y="-129" font-family="Helvetica,sans-Serif" font-size="10.00">+ IconTab()</text>
<text text-anchor="start" x="7.84863" y="-119" font-family="Helvetica,sans-Serif" font-size="10.00">+ draw()</text>
<text text-anchor="start" x="7.84863" y="-109" font-family="Helvetica,sans-Serif" font-size="10.00">+ icon()</text>
</a>
</g>
</g>
<!-- Node1&#45;&gt;Node3 -->
<g id="edge2" class="edge"><title>Node1&#45;&gt;Node3</title>
<path fill="none" stroke="midnightblue" d="M123.644,-216.888C107.882,-204.631 90.5876,-190.926 75,-178 72.1575,-175.643 69.2334,-173.17 66.3146,-170.668"/>
<polygon fill="none" stroke="midnightblue" points="121.682,-219.795 131.73,-223.153 125.969,-214.262 121.682,-219.795"/>
</g>
<!-- Node4 -->
<g id="node4" class="node"><title>Node4</title>
<g id="a_node4"><a xlink:href="classui_1_1_progress_tab.html" target="_top" xlink:title="Tab Progress Class. ">
<polygon fill="none" stroke="black" points="84.292,-103 84.292,-177 171.708,-177 171.708,-103 84.292,-103"/>
<text text-anchor="middle" x="128" y="-165" font-family="Helvetica,sans-Serif" font-size="10.00">ui::ProgressTab</text>
<polyline fill="none" stroke="black" points="84.292,-159 171.708,-159 "/>
<text text-anchor="middle" x="128" y="-147" font-family="Helvetica,sans-Serif" font-size="10.00"> </text>
<polyline fill="none" stroke="black" points="84.292,-141 171.708,-141 "/>
<text text-anchor="start" x="92.292" y="-129" font-family="Helvetica,sans-Serif" font-size="10.00">+ ProgressTab()</text>
<text text-anchor="start" x="92.292" y="-119" font-family="Helvetica,sans-Serif" font-size="10.00">+ draw()</text>
<text text-anchor="start" x="92.292" y="-109" font-family="Helvetica,sans-Serif" font-size="10.00">+ progress()</text>
</a>
</g>
</g>
<!-- Node1&#45;&gt;Node4 -->
<g id="edge3" class="edge"><title>Node1&#45;&gt;Node4</title>
<path fill="none" stroke="midnightblue" d="M154.345,-205.46C150.474,-195.989 146.499,-186.263 142.847,-177.329"/>
<polygon fill="none" stroke="midnightblue" points="151.142,-206.875 158.165,-214.807 157.621,-204.226 151.142,-206.875"/>
</g>
<!-- Node7 -->
<g id="node7" class="node"><title>Node7</title>
<g id="a_node7"><a xlink:href="classui_1_1_text_tab.html" target="_top" xlink:title="Tab Text Class. ">
<polygon fill="none" stroke="black" points="189.217,-103 189.217,-177 254.783,-177 254.783,-103 189.217,-103"/>
<text text-anchor="middle" x="222" y="-165" font-family="Helvetica,sans-Serif" font-size="10.00">ui::TextTab</text>
<polyline fill="none" stroke="black" points="189.217,-159 254.783,-159 "/>
<text text-anchor="middle" x="222" y="-147" font-family="Helvetica,sans-Serif" font-size="10.00"> </text>
<polyline fill="none" stroke="black" points="189.217,-141 254.783,-141 "/>
<text text-anchor="start" x="197.217" y="-129" font-family="Helvetica,sans-Serif" font-size="10.00">+ TextTab()</text>
<text text-anchor="start" x="197.217" y="-119" font-family="Helvetica,sans-Serif" font-size="10.00">+ draw()</text>
<text text-anchor="start" x="197.217" y="-109" font-family="Helvetica,sans-Serif" font-size="10.00">+ text()</text>
</a>
</g>
</g>
<!-- Node1&#45;&gt;Node7 -->
<g id="edge6" class="edge"><title>Node1&#45;&gt;Node7</title>
<path fill="none" stroke="midnightblue" d="M195.655,-205.46C199.526,-195.989 203.501,-186.263 207.153,-177.329"/>
<polygon fill="none" stroke="midnightblue" points="192.379,-204.226 191.835,-214.807 198.858,-206.875 192.379,-204.226"/>
</g>
<!-- Node8 -->
<g id="node8" class="node"><title>Node8</title>
<g id="a_node8"><a xlink:href="classui_1_1_time_tab.html" target="_top" xlink:title="Tab Time Class. ">
<polygon fill="none" stroke="black" points="272.459,-108 272.459,-172 341.541,-172 341.541,-108 272.459,-108"/>
<text text-anchor="middle" x="307" y="-160" font-family="Helvetica,sans-Serif" font-size="10.00">ui::TimeTab</text>
<polyline fill="none" stroke="black" points="272.459,-154 341.541,-154 "/>
<text text-anchor="middle" x="307" y="-142" font-family="Helvetica,sans-Serif" font-size="10.00"> </text>
<polyline fill="none" stroke="black" points="272.459,-136 341.541,-136 "/>
<text text-anchor="start" x="280.459" y="-124" font-family="Helvetica,sans-Serif" font-size="10.00">+ TimeTab()</text>
<text text-anchor="start" x="280.459" y="-114" font-family="Helvetica,sans-Serif" font-size="10.00">+ draw()</text>
</a>
</g>
</g>
<!-- Node1&#45;&gt;Node8 -->
<g id="edge7" class="edge"><title>Node1&#45;&gt;Node8</title>
<path fill="none" stroke="midnightblue" d="M226.131,-211.454C241.489,-198.074 257.98,-183.707 272.038,-171.459"/>
<polygon fill="none" stroke="midnightblue" points="223.463,-209.137 218.222,-218.345 228.061,-214.415 223.463,-209.137"/>
</g>
<!-- Node2 -->
<g id="node2" class="node"><title>Node2</title>
<g id="a_node2"><a xlink:href="classdraw_1_1_drawing.html" target="_top" xlink:title="Drawing Class. ">
<polygon fill="none" stroke="black" points="115.447,-337 115.447,-561 234.553,-561 234.553,-337 115.447,-337"/>
<text text-anchor="middle" x="175" y="-549" font-family="Helvetica,sans-Serif" font-size="10.00">draw::Drawing</text>
<polyline fill="none" stroke="black" points="115.447,-543 234.553,-543 "/>
<text text-anchor="middle" x="175" y="-531" font-family="Helvetica,sans-Serif" font-size="10.00"> </text>
<polyline fill="none" stroke="black" points="115.447,-525 234.553,-525 "/>
<text text-anchor="start" x="123.447" y="-513" font-family="Helvetica,sans-Serif" font-size="10.00">+ Drawing()</text>
<text text-anchor="start" x="123.447" y="-503" font-family="Helvetica,sans-Serif" font-size="10.00">+ dark()</text>
<text text-anchor="start" x="123.447" y="-493" font-family="Helvetica,sans-Serif" font-size="10.00">+ draw()</text>
<text text-anchor="start" x="123.447" y="-483" font-family="Helvetica,sans-Serif" font-size="10.00">+ draw()</text>
<text text-anchor="start" x="123.447" y="-473" font-family="Helvetica,sans-Serif" font-size="10.00">+ draw_scratch()</text>
<text text-anchor="start" x="123.447" y="-463" font-family="Helvetica,sans-Serif" font-size="10.00">+ draw_to_scale()</text>
<text text-anchor="start" x="123.447" y="-453" font-family="Helvetica,sans-Serif" font-size="10.00">and 18 more...</text>
<text text-anchor="start" x="123.447" y="-443" font-family="Helvetica,sans-Serif" font-size="10.00">+ clear()</text>
<text text-anchor="start" x="123.447" y="-433" font-family="Helvetica,sans-Serif" font-size="10.00">+ draw_checkerboard()</text>
<text text-anchor="start" x="123.447" y="-423" font-family="Helvetica,sans-Serif" font-size="10.00">+ draw_pattern()</text>
<text text-anchor="start" x="123.447" y="-413" font-family="Helvetica,sans-Serif" font-size="10.00">+ h()</text>
<text text-anchor="start" x="123.447" y="-403" font-family="Helvetica,sans-Serif" font-size="10.00">+ height()</text>
<text text-anchor="start" x="123.447" y="-393" font-family="Helvetica,sans-Serif" font-size="10.00">+ invert()</text>
<text text-anchor="start" x="123.447" y="-383" font-family="Helvetica,sans-Serif" font-size="10.00">and 4 more...</text>
<text text-anchor="start" x="123.447" y="-373" font-family="Helvetica,sans-Serif" font-size="10.00"># dim_on_bitmap()</text>
<text text-anchor="start" x="123.447" y="-363" font-family="Helvetica,sans-Serif" font-size="10.00"># flag()</text>
<text text-anchor="start" x="123.447" y="-353" font-family="Helvetica,sans-Serif" font-size="10.00"># point_on_bitmap()</text>
<text text-anchor="start" x="123.447" y="-343" font-family="Helvetica,sans-Serif" font-size="10.00"># set_flag()</text>
</a>
</g>
</g>
<!-- Node2&#45;&gt;Node1 -->
<g id="edge1" class="edge"><title>Node2&#45;&gt;Node1</title>
<path fill="none" stroke="midnightblue" d="M175,-326.731C175,-317.066 175,-307.795 175,-299.363"/>
<polygon fill="none" stroke="midnightblue" points="171.5,-326.926 175,-336.926 178.5,-326.927 171.5,-326.926"/>
</g>
<!-- Node5 -->
<g id="node5" class="node"><title>Node5</title>
<g id="a_node5"><a xlink:href="classui_1_1_arc_progress_tab.html" target="_top" xlink:title="Tab Progress Arc. ">
<polygon fill="none" stroke="black" points="15.0654,-1 15.0654,-65 116.935,-65 116.935,-1 15.0654,-1"/>
<text text-anchor="middle" x="66" y="-53" font-family="Helvetica,sans-Serif" font-size="10.00">ui::ArcProgressTab</text>
<polyline fill="none" stroke="black" points="15.0654,-47 116.935,-47 "/>
<text text-anchor="middle" x="66" y="-35" font-family="Helvetica,sans-Serif" font-size="10.00"> </text>
<polyline fill="none" stroke="black" points="15.0654,-29 116.935,-29 "/>
<text text-anchor="start" x="23.0654" y="-17" font-family="Helvetica,sans-Serif" font-size="10.00">+ ArcProgressTab()</text>
<text text-anchor="start" x="23.0654" y="-7" font-family="Helvetica,sans-Serif" font-size="10.00">+ progress()</text>
</a>
</g>
</g>
<!-- Node4&#45;&gt;Node5 -->
<g id="edge4" class="edge"><title>Node4&#45;&gt;Node5</title>
<path fill="none" stroke="midnightblue" d="M101.485,-94.095C95.757,-84.3949 89.8206,-74.3413 84.48,-65.2968"/>
<polygon fill="none" stroke="midnightblue" points="98.5647,-96.0336 106.663,-102.865 104.592,-92.4744 98.5647,-96.0336"/>
</g>
<!-- Node6 -->
<g id="node6" class="node"><title>Node6</title>
<g id="a_node6"><a xlink:href="classui_1_1_circle_progress_tab.html" target="_top" xlink:title="Tab Progress Circle. ">
<polygon fill="none" stroke="black" points="134.514,-1 134.514,-65 247.486,-65 247.486,-1 134.514,-1"/>
<text text-anchor="middle" x="191" y="-53" font-family="Helvetica,sans-Serif" font-size="10.00">ui::CircleProgressTab</text>
<polyline fill="none" stroke="black" points="134.514,-47 247.486,-47 "/>
<text text-anchor="middle" x="191" y="-35" font-family="Helvetica,sans-Serif" font-size="10.00"> </text>
<polyline fill="none" stroke="black" points="134.514,-29 247.486,-29 "/>
<text text-anchor="start" x="142.514" y="-17" font-family="Helvetica,sans-Serif" font-size="10.00">+ CircleProgressTab()</text>
<text text-anchor="start" x="142.514" y="-7" font-family="Helvetica,sans-Serif" font-size="10.00">+ progress()</text>
</a>
</g>
</g>
<!-- Node4&#45;&gt;Node6 -->
<g id="edge5" class="edge"><title>Node4&#45;&gt;Node6</title>
<path fill="none" stroke="midnightblue" d="M154.943,-94.095C160.763,-84.3949 166.795,-74.3413 172.222,-65.2968"/>
<polygon fill="none" stroke="midnightblue" points="151.825,-92.4893 149.681,-102.865 157.827,-96.0908 151.825,-92.4893"/>
</g>
</g>
</svg>
