<?xml version="1.0" encoding="UTF-8" standalone="no"?>
<!DOCTYPE svg PUBLIC "-//W3C//DTD SVG 1.1//EN"
 "http://www.w3.org/Graphics/SVG/1.1/DTD/svg11.dtd">
<!-- Generated by graphviz version 2.36.0 (20140111.2315)
 -->
<!-- Title: api::VarWorkObject Pages: 1 -->
<!--zoomable 1150 -->
<svg id="main" version="1.1" xmlns="http://www.w3.org/2000/svg" xmlns:xlink="http://www.w3.org/1999/xlink" xml:space="preserve" onload="init(evt)">
<style type="text/css"><![CDATA[
.edge:hover path { stroke: red; }
.edge:hover polygon { stroke: red; fill: red; }
]]></style>
<script type="text/javascript"><![CDATA[
var edges = document.getElementsByTagName('g');
if (edges && edges.length) {
  for (var i=0;i<edges.length;i++) {
    if (edges[i].id.substr(0,4)=='edge') {
      edges[i].setAttribute('class','edge');
    }
  }
}
]]></script>
        <defs>
                <circle id="rim" cx="0" cy="0" r="7"/>
                <circle id="rim2" cx="0" cy="0" r="3.5"/>
                <g id="zoomPlus">
                        <use xlink:href="#rim" fill="#404040">
                                <set attributeName="fill" to="#808080" begin="zoomplus.mouseover" end="zoomplus.mouseout"/>
                        </use>
                        <path d="M-4,0h8M0,-4v8" fill="none" stroke="white" stroke-width="1.5" pointer-events="none"/>
                </g>
                <g id="zoomMin">
                        <use xlink:href="#rim" fill="#404040">
                                <set attributeName="fill" to="#808080" begin="zoomminus.mouseover" end="zoomminus.mouseout"/>
                        </use>
                        <path d="M-4,0h8" fill="none" stroke="white" stroke-width="1.5" pointer-events="none"/>
                </g>
                <g id="dirArrow">
                        <path fill="none" stroke="white" stroke-width="1.5" d="M0,-3.0v7 M-2.5,-0.5L0,-3.0L2.5,-0.5"/>
                </g>
               <g id="resetDef">
                       <use xlink:href="#rim2" fill="#404040">
                               <set attributeName="fill" to="#808080" begin="reset.mouseover" end="reset.mouseout"/>
                       </use>
               </g>
        </defs>

<script type="text/javascript">
var viewWidth = 791;
var viewHeight = 1150;
var sectionId = 'dynsection-0';
</script>
<script xlink:href="svgpan.js"/>
<svg id="graph" class="graph">
<g id="viewport">
<title>api::VarWorkObject</title>
<!-- Node1 -->
<g id="node1" class="node"><title>Node1</title>
<polygon fill="#bfbfbf" stroke="black" points="178.109,-819 178.109,-873 279.891,-873 279.891,-819 178.109,-819"/>
<text text-anchor="middle" x="229" y="-861" font-family="Helvetica,sans-Serif" font-size="10.00">api::VarWorkObject</text>
<polyline fill="none" stroke="black" points="178.109,-855 279.891,-855 "/>
<text text-anchor="middle" x="229" y="-843" font-family="Helvetica,sans-Serif" font-size="10.00"> </text>
<polyline fill="none" stroke="black" points="178.109,-837 279.891,-837 "/>
<text text-anchor="middle" x="229" y="-825" font-family="Helvetica,sans-Serif" font-size="10.00"> </text>
</g>
<!-- Node4 -->
<g id="node4" class="node"><title>Node4</title>
<g id="a_node4"><a xlink:href="classvar_1_1_queue.html" target="_top" xlink:title="{var::Queue\&lt; Test * \&gt;\n||+ Queue()\l+ back()\l+ back()\l+ clear()\l+ count()\l+ front()\land 4 more...\l}">
<polygon fill="none" stroke="black" points="-0.771484,-493 -0.771484,-607 106.771,-607 106.771,-493 -0.771484,-493"/>
<text text-anchor="middle" x="53" y="-595" font-family="Helvetica,sans-Serif" font-size="10.00">var::Queue&lt; Test * &gt;</text>
<polyline fill="none" stroke="black" points="-0.771484,-589 106.771,-589 "/>
<text text-anchor="middle" x="53" y="-577" font-family="Helvetica,sans-Serif" font-size="10.00"> </text>
<polyline fill="none" stroke="black" points="-0.771484,-571 106.771,-571 "/>
<text text-anchor="start" x="7.22852" y="-559" font-family="Helvetica,sans-Serif" font-size="10.00">+ Queue()</text>
<text text-anchor="start" x="7.22852" y="-549" font-family="Helvetica,sans-Serif" font-size="10.00">+ back()</text>
<text text-anchor="start" x="7.22852" y="-539" font-family="Helvetica,sans-Serif" font-size="10.00">+ back()</text>
<text text-anchor="start" x="7.22852" y="-529" font-family="Helvetica,sans-Serif" font-size="10.00">+ clear()</text>
<text text-anchor="start" x="7.22852" y="-519" font-family="Helvetica,sans-Serif" font-size="10.00">+ count()</text>
<text text-anchor="start" x="7.22852" y="-509" font-family="Helvetica,sans-Serif" font-size="10.00">+ front()</text>
<text text-anchor="start" x="7.22852" y="-499" font-family="Helvetica,sans-Serif" font-size="10.00">and 4 more...</text>
</a>
</g>
</g>
<!-- Node1&#45;&gt;Node4 -->
<g id="edge3" class="edge"><title>Node1&#45;&gt;Node4</title>
<path fill="none" stroke="midnightblue" d="M167.925,-837.009C132.153,-828.917 89.5124,-812.656 66,-780 30.1677,-730.233 32.7417,-657.472 40.4814,-607.391"/>
<polygon fill="none" stroke="midnightblue" points="167.305,-840.455 177.811,-839.081 168.741,-833.604 167.305,-840.455"/>
</g>
<!-- Node5 -->
<g id="node5" class="node"><title>Node5</title>
<g id="a_node5"><a xlink:href="classvar_1_1_array.html" target="_top" xlink:title="Array Class. ">
<polygon fill="none" stroke="black" points="180.939,-655 180.939,-779 277.061,-779 277.061,-655 180.939,-655"/>
<text text-anchor="start" x="188.939" y="-767" font-family="Helvetica,sans-Serif" font-size="10.00">var::Array&lt; T, size</text>
<text text-anchor="middle" x="229" y="-757" font-family="Helvetica,sans-Serif" font-size="10.00">_value &gt;</text>
<polyline fill="none" stroke="black" points="180.939,-751 277.061,-751 "/>
<text text-anchor="middle" x="229" y="-739" font-family="Helvetica,sans-Serif" font-size="10.00"> </text>
<polyline fill="none" stroke="black" points="180.939,-733 277.061,-733 "/>
<text text-anchor="start" x="188.939" y="-721" font-family="Helvetica,sans-Serif" font-size="10.00">+ Array()</text>
<text text-anchor="start" x="188.939" y="-711" font-family="Helvetica,sans-Serif" font-size="10.00">+ at()</text>
<text text-anchor="start" x="188.939" y="-701" font-family="Helvetica,sans-Serif" font-size="10.00">+ at()</text>
<text text-anchor="start" x="188.939" y="-691" font-family="Helvetica,sans-Serif" font-size="10.00">+ back()</text>
<text text-anchor="start" x="188.939" y="-681" font-family="Helvetica,sans-Serif" font-size="10.00">+ back()</text>
<text text-anchor="start" x="188.939" y="-671" font-family="Helvetica,sans-Serif" font-size="10.00">+ count()</text>
<text text-anchor="start" x="188.939" y="-661" font-family="Helvetica,sans-Serif" font-size="10.00">and 6 more...</text>
</a>
</g>
</g>
<!-- Node1&#45;&gt;Node5 -->
<g id="edge4" class="edge"><title>Node1&#45;&gt;Node5</title>
<path fill="none" stroke="midnightblue" d="M229,-808.94C229,-799.619 229,-789.321 229,-779.105"/>
<polygon fill="none" stroke="midnightblue" points="225.5,-808.993 229,-818.993 232.5,-808.993 225.5,-808.993"/>
</g>
<!-- Node6 -->
<g id="node6" class="node"><title>Node6</title>
<g id="a_node6"><a xlink:href="classvar_1_1_data.html" target="_top" xlink:title="Data storage class. ">
<polygon fill="none" stroke="black" points="295.41,-655 295.41,-779 390.59,-779 390.59,-655 295.41,-655"/>
<text text-anchor="middle" x="343" y="-767" font-family="Helvetica,sans-Serif" font-size="10.00">var::Data</text>
<polyline fill="none" stroke="black" points="295.41,-761 390.59,-761 "/>
<text text-anchor="middle" x="343" y="-749" font-family="Helvetica,sans-Serif" font-size="10.00"> </text>
<polyline fill="none" stroke="black" points="295.41,-743 390.59,-743 "/>
<text text-anchor="start" x="303.41" y="-731" font-family="Helvetica,sans-Serif" font-size="10.00">+ Data()</text>
<text text-anchor="start" x="303.41" y="-721" font-family="Helvetica,sans-Serif" font-size="10.00">+ Data()</text>
<text text-anchor="start" x="303.41" y="-711" font-family="Helvetica,sans-Serif" font-size="10.00">+ Data()</text>
<text text-anchor="start" x="303.41" y="-701" font-family="Helvetica,sans-Serif" font-size="10.00">+ Data()</text>
<text text-anchor="start" x="303.41" y="-691" font-family="Helvetica,sans-Serif" font-size="10.00">+ ~Data()</text>
<text text-anchor="start" x="303.41" y="-681" font-family="Helvetica,sans-Serif" font-size="10.00">+ alloc()</text>
<text text-anchor="start" x="303.41" y="-671" font-family="Helvetica,sans-Serif" font-size="10.00">and 17 more...</text>
<text text-anchor="start" x="303.41" y="-661" font-family="Helvetica,sans-Serif" font-size="10.00">+ minimum_size()</text>
</a>
</g>
</g>
<!-- Node1&#45;&gt;Node6 -->
<g id="edge5" class="edge"><title>Node1&#45;&gt;Node6</title>
<path fill="none" stroke="midnightblue" d="M259.312,-811.231C270.327,-798.96 283.06,-784.776 295.218,-771.231"/>
<polygon fill="none" stroke="midnightblue" points="256.42,-809.214 252.345,-818.993 261.629,-813.889 256.42,-809.214"/>
</g>
<!-- Node19 -->
<g id="node19" class="node"><title>Node19</title>
<g id="a_node19"><a xlink:href="classvar_1_1_linked_list.html" target="_top" xlink:title="Linked List Class. ">
<polygon fill="none" stroke="black" points="408.926,-660 408.926,-774 491.074,-774 491.074,-660 408.926,-660"/>
<text text-anchor="middle" x="450" y="-762" font-family="Helvetica,sans-Serif" font-size="10.00">var::LinkedList</text>
<polyline fill="none" stroke="black" points="408.926,-756 491.074,-756 "/>
<text text-anchor="middle" x="450" y="-744" font-family="Helvetica,sans-Serif" font-size="10.00"> </text>
<polyline fill="none" stroke="black" points="408.926,-738 491.074,-738 "/>
<text text-anchor="start" x="416.926" y="-726" font-family="Helvetica,sans-Serif" font-size="10.00">+ LinkedList()</text>
<text text-anchor="start" x="416.926" y="-716" font-family="Helvetica,sans-Serif" font-size="10.00">+ LinkedList()</text>
<text text-anchor="start" x="416.926" y="-706" font-family="Helvetica,sans-Serif" font-size="10.00">+ ~LinkedList()</text>
<text text-anchor="start" x="416.926" y="-696" font-family="Helvetica,sans-Serif" font-size="10.00">+ back()</text>
<text text-anchor="start" x="416.926" y="-686" font-family="Helvetica,sans-Serif" font-size="10.00">+ clear()</text>
<text text-anchor="start" x="416.926" y="-676" font-family="Helvetica,sans-Serif" font-size="10.00">+ count()</text>
<text text-anchor="start" x="416.926" y="-666" font-family="Helvetica,sans-Serif" font-size="10.00">and 7 more...</text>
</a>
</g>
</g>
<!-- Node1&#45;&gt;Node19 -->
<g id="edge18" class="edge"><title>Node1&#45;&gt;Node19</title>
<path fill="none" stroke="midnightblue" d="M289.845,-830.079C324.056,-819.729 366.321,-803.519 399,-780 402.394,-777.558 405.692,-774.836 408.872,-771.935"/>
<polygon fill="none" stroke="midnightblue" points="288.578,-826.803 279.966,-832.974 290.546,-833.52 288.578,-826.803"/>
</g>
<!-- Node20 -->
<g id="node20" class="node"><title>Node20</title>
<g id="a_node20"><a xlink:href="classvar_1_1_queue.html" target="_top" xlink:title="Queue Class. ">
<polygon fill="none" stroke="black" points="74.7671,-660 74.7671,-774 163.233,-774 163.233,-660 74.7671,-660"/>
<text text-anchor="middle" x="119" y="-762" font-family="Helvetica,sans-Serif" font-size="10.00">var::Queue&lt; T &gt;</text>
<polyline fill="none" stroke="black" points="74.7671,-756 163.233,-756 "/>
<text text-anchor="middle" x="119" y="-744" font-family="Helvetica,sans-Serif" font-size="10.00"> </text>
<polyline fill="none" stroke="black" points="74.7671,-738 163.233,-738 "/>
<text text-anchor="start" x="82.7671" y="-726" font-family="Helvetica,sans-Serif" font-size="10.00">+ Queue()</text>
<text text-anchor="start" x="82.7671" y="-716" font-family="Helvetica,sans-Serif" font-size="10.00">+ back()</text>
<text text-anchor="start" x="82.7671" y="-706" font-family="Helvetica,sans-Serif" font-size="10.00">+ back()</text>
<text text-anchor="start" x="82.7671" y="-696" font-family="Helvetica,sans-Serif" font-size="10.00">+ clear()</text>
<text text-anchor="start" x="82.7671" y="-686" font-family="Helvetica,sans-Serif" font-size="10.00">+ count()</text>
<text text-anchor="start" x="82.7671" y="-676" font-family="Helvetica,sans-Serif" font-size="10.00">+ front()</text>
<text text-anchor="start" x="82.7671" y="-666" font-family="Helvetica,sans-Serif" font-size="10.00">and 4 more...</text>
</a>
</g>
</g>
<!-- Node1&#45;&gt;Node20 -->
<g id="edge19" class="edge"><title>Node1&#45;&gt;Node20</title>
<path fill="none" stroke="midnightblue" d="M199.089,-811.054C190.332,-801.072 180.76,-790.117 172,-780 169.219,-776.788 166.362,-773.478 163.485,-770.136"/>
<polygon fill="none" stroke="midnightblue" points="196.677,-813.611 205.905,-818.816 201.936,-808.992 196.677,-813.611"/>
</g>
<!-- Node2 -->
<g id="node2" class="node"><title>Node2</title>
<g id="a_node2"><a xlink:href="classapi_1_1_work_object.html" target="_top" xlink:title="WorkObject Class. ">
<polygon fill="none" stroke="black" points="169.452,-913 169.452,-1047 288.548,-1047 288.548,-913 169.452,-913"/>
<text text-anchor="middle" x="229" y="-1035" font-family="Helvetica,sans-Serif" font-size="10.00">api::WorkObject</text>
<polyline fill="none" stroke="black" points="169.452,-1029 288.548,-1029 "/>
<text text-anchor="middle" x="229" y="-1017" font-family="Helvetica,sans-Serif" font-size="10.00"> </text>
<polyline fill="none" stroke="black" points="169.452,-1011 288.548,-1011 "/>
<text text-anchor="start" x="177.452" y="-999" font-family="Helvetica,sans-Serif" font-size="10.00">+ WorkObject()</text>
<text text-anchor="start" x="177.452" y="-989" font-family="Helvetica,sans-Serif" font-size="10.00">+ clear_error_number()</text>
<text text-anchor="start" x="177.452" y="-979" font-family="Helvetica,sans-Serif" font-size="10.00">+ error_number()</text>
<text text-anchor="start" x="177.452" y="-969" font-family="Helvetica,sans-Serif" font-size="10.00">+ exit_fatal()</text>
<text text-anchor="start" x="177.452" y="-959" font-family="Helvetica,sans-Serif" font-size="10.00"># set_error_number()</text>
<text text-anchor="start" x="177.452" y="-949" font-family="Helvetica,sans-Serif" font-size="10.00"># set_error_number_if</text>
<text text-anchor="start" x="177.452" y="-939" font-family="Helvetica,sans-Serif" font-size="10.00">_error()</text>
<text text-anchor="start" x="177.452" y="-929" font-family="Helvetica,sans-Serif" font-size="10.00"># set_error_number_to</text>
<text text-anchor="start" x="177.452" y="-919" font-family="Helvetica,sans-Serif" font-size="10.00">_errno()</text>
</a>
</g>
</g>
<!-- Node2&#45;&gt;Node1 -->
<g id="edge1" class="edge"><title>Node2&#45;&gt;Node1</title>
<path fill="none" stroke="midnightblue" d="M229,-902.484C229,-891.999 229,-881.876 229,-873.213"/>
<polygon fill="none" stroke="midnightblue" points="225.5,-902.613 229,-912.613 232.5,-902.613 225.5,-902.613"/>
</g>
<!-- Node3 -->
<g id="node3" class="node"><title>Node3</title>
<g id="a_node3"><a xlink:href="classapi_1_1_api_object.html" target="_top" xlink:title="API Object Class. ">
<polygon fill="none" stroke="black" points="187.79,-1087 187.79,-1141 270.21,-1141 270.21,-1087 187.79,-1087"/>
<text text-anchor="middle" x="229" y="-1129" font-family="Helvetica,sans-Serif" font-size="10.00">api::ApiObject</text>
<polyline fill="none" stroke="black" points="187.79,-1123 270.21,-1123 "/>
<text text-anchor="middle" x="229" y="-1111" font-family="Helvetica,sans-Serif" font-size="10.00"> </text>
<polyline fill="none" stroke="black" points="187.79,-1105 270.21,-1105 "/>
<text text-anchor="start" x="195.79" y="-1093" font-family="Helvetica,sans-Serif" font-size="10.00">+ api_version()</text>
</a>
</g>
</g>
<!-- Node3&#45;&gt;Node2 -->
<g id="edge2" class="edge"><title>Node3&#45;&gt;Node2</title>
<path fill="none" stroke="midnightblue" d="M229,-1076.66C229,-1067.5 229,-1057.38 229,-1047.24"/>
<polygon fill="none" stroke="midnightblue" points="225.5,-1076.92 229,-1086.92 232.5,-1076.92 225.5,-1076.92"/>
</g>
<!-- Node7 -->
<g id="node7" class="node"><title>Node7</title>
<g id="a_node7"><a xlink:href="classapi_1_1_sgfx_data_object.html" target="_top" xlink:title="Sgfx Object Class. ">
<polygon fill="none" stroke="black" points="127.532,-523 127.532,-577 232.468,-577 232.468,-523 127.532,-523"/>
<text text-anchor="middle" x="180" y="-565" font-family="Helvetica,sans-Serif" font-size="10.00">api::SgfxDataObject</text>
<polyline fill="none" stroke="black" points="127.532,-559 232.468,-559 "/>
<text text-anchor="middle" x="180" y="-547" font-family="Helvetica,sans-Serif" font-size="10.00"> </text>
<polyline fill="none" stroke="black" points="127.532,-541 232.468,-541 "/>
<text text-anchor="middle" x="180" y="-529" font-family="Helvetica,sans-Serif" font-size="10.00"> </text>
</a>
</g>
</g>
<!-- Node6&#45;&gt;Node7 -->
<g id="edge6" class="edge"><title>Node6&#45;&gt;Node7</title>
<path fill="none" stroke="midnightblue" d="M288.305,-656.379C287.533,-655.579 286.765,-654.786 286,-654 260.057,-627.33 229.496,-597.828 207.871,-577.258"/>
<polygon fill="none" stroke="midnightblue" points="285.874,-658.9 295.316,-663.706 290.932,-654.061 285.874,-658.9"/>
</g>
<!-- Node11 -->
<g id="node11" class="node"><title>Node11</title>
<g id="a_node11"><a xlink:href="classvar_1_1_ring.html" target="_top" xlink:title="Ring Buffer class. ">
<polygon fill="none" stroke="black" points="262.615,-493 262.615,-607 383.385,-607 383.385,-493 262.615,-493"/>
<text text-anchor="middle" x="323" y="-595" font-family="Helvetica,sans-Serif" font-size="10.00">var::Ring</text>
<polyline fill="none" stroke="black" points="262.615,-589 383.385,-589 "/>
<text text-anchor="middle" x="323" y="-577" font-family="Helvetica,sans-Serif" font-size="10.00"> </text>
<polyline fill="none" stroke="black" points="262.615,-571 383.385,-571 "/>
<text text-anchor="start" x="270.615" y="-559" font-family="Helvetica,sans-Serif" font-size="10.00">+ Ring()</text>
<text text-anchor="start" x="270.615" y="-549" font-family="Helvetica,sans-Serif" font-size="10.00">+ Ring()</text>
<text text-anchor="start" x="270.615" y="-539" font-family="Helvetica,sans-Serif" font-size="10.00">+ calc_free()</text>
<text text-anchor="start" x="270.615" y="-529" font-family="Helvetica,sans-Serif" font-size="10.00">+ calc_used()</text>
<text text-anchor="start" x="270.615" y="-519" font-family="Helvetica,sans-Serif" font-size="10.00">+ flush()</text>
<text text-anchor="start" x="270.615" y="-509" font-family="Helvetica,sans-Serif" font-size="10.00">+ is_overflow_allowed()</text>
<text text-anchor="start" x="270.615" y="-499" font-family="Helvetica,sans-Serif" font-size="10.00">and 4 more...</text>
</a>
</g>
</g>
<!-- Node6&#45;&gt;Node11 -->
<g id="edge10" class="edge"><title>Node6&#45;&gt;Node11</title>
<path fill="none" stroke="midnightblue" d="M334.343,-644.583C332.821,-632.02 331.256,-619.108 329.793,-607.041"/>
<polygon fill="none" stroke="midnightblue" points="330.875,-645.054 335.553,-654.56 337.824,-644.212 330.875,-645.054"/>
</g>
<!-- Node12 -->
<g id="node12" class="node"><title>Node12</title>
<g id="a_node12"><a xlink:href="classvar_1_1_string.html" target="_top" xlink:title="String class. ">
<polygon fill="none" stroke="black" points="401.759,-493 401.759,-607 482.241,-607 482.241,-493 401.759,-493"/>
<text text-anchor="middle" x="442" y="-595" font-family="Helvetica,sans-Serif" font-size="10.00">var::String</text>
<polyline fill="none" stroke="black" points="401.759,-589 482.241,-589 "/>
<text text-anchor="middle" x="442" y="-577" font-family="Helvetica,sans-Serif" font-size="10.00"> </text>
<polyline fill="none" stroke="black" points="401.759,-571 482.241,-571 "/>
<text text-anchor="start" x="409.759" y="-559" font-family="Helvetica,sans-Serif" font-size="10.00">+ String()</text>
<text text-anchor="start" x="409.759" y="-549" font-family="Helvetica,sans-Serif" font-size="10.00">+ String()</text>
<text text-anchor="start" x="409.759" y="-539" font-family="Helvetica,sans-Serif" font-size="10.00">+ String()</text>
<text text-anchor="start" x="409.759" y="-529" font-family="Helvetica,sans-Serif" font-size="10.00">+ String()</text>
<text text-anchor="start" x="409.759" y="-519" font-family="Helvetica,sans-Serif" font-size="10.00">+ String()</text>
<text text-anchor="start" x="409.759" y="-509" font-family="Helvetica,sans-Serif" font-size="10.00">+ String()</text>
<text text-anchor="start" x="409.759" y="-499" font-family="Helvetica,sans-Serif" font-size="10.00">and 52 more...</text>
</a>
</g>
</g>
<!-- Node6&#45;&gt;Node12 -->
<g id="edge11" class="edge"><title>Node6&#45;&gt;Node12</title>
<path fill="none" stroke="midnightblue" d="M385.179,-645.701C392.927,-632.788 400.92,-619.467 408.375,-607.041"/>
<polygon fill="none" stroke="midnightblue" points="382.008,-644.184 379.864,-654.56 388.01,-647.786 382.008,-644.184"/>
</g>
<!-- Node18 -->
<g id="node18" class="node"><title>Node18</title>
<g id="a_node18"><a xlink:href="classvar_1_1_vector.html" target="_top" xlink:title="Vector Class. ">
<polygon fill="none" stroke="black" points="500.602,-493 500.602,-607 587.398,-607 587.398,-493 500.602,-493"/>
<text text-anchor="middle" x="544" y="-595" font-family="Helvetica,sans-Serif" font-size="10.00">var::Vector&lt; T &gt;</text>
<polyline fill="none" stroke="black" points="500.602,-589 587.398,-589 "/>
<text text-anchor="middle" x="544" y="-577" font-family="Helvetica,sans-Serif" font-size="10.00"> </text>
<polyline fill="none" stroke="black" points="500.602,-571 587.398,-571 "/>
<text text-anchor="start" x="508.602" y="-559" font-family="Helvetica,sans-Serif" font-size="10.00">+ Vector()</text>
<text text-anchor="start" x="508.602" y="-549" font-family="Helvetica,sans-Serif" font-size="10.00">+ at()</text>
<text text-anchor="start" x="508.602" y="-539" font-family="Helvetica,sans-Serif" font-size="10.00">+ at()</text>
<text text-anchor="start" x="508.602" y="-529" font-family="Helvetica,sans-Serif" font-size="10.00">+ capacity()</text>
<text text-anchor="start" x="508.602" y="-519" font-family="Helvetica,sans-Serif" font-size="10.00">+ clear()</text>
<text text-anchor="start" x="508.602" y="-509" font-family="Helvetica,sans-Serif" font-size="10.00">+ count()</text>
<text text-anchor="start" x="508.602" y="-499" font-family="Helvetica,sans-Serif" font-size="10.00">and 8 more...</text>
</a>
</g>
</g>
<!-- Node6&#45;&gt;Node18 -->
<g id="edge17" class="edge"><title>Node6&#45;&gt;Node18</title>
<path fill="none" stroke="midnightblue" d="M398.527,-655.13C399.017,-654.749 399.508,-654.372 400,-654 436.14,-626.657 454.783,-635.241 491,-608 494.24,-605.563 497.448,-602.915 500.588,-600.138"/>
<polygon fill="none" stroke="midnightblue" points="396.138,-652.564 390.674,-661.642 400.606,-657.953 396.138,-652.564"/>
</g>
<!-- Node8 -->
<g id="node8" class="node"><title>Node8</title>
<g id="a_node8"><a xlink:href="classsgfx_1_1_bitmap.html" target="_top" xlink:title="Bitmap Class. ">
<polygon fill="none" stroke="black" points="90.3979,-299 90.3979,-453 195.602,-453 195.602,-299 90.3979,-299"/>
<text text-anchor="middle" x="143" y="-441" font-family="Helvetica,sans-Serif" font-size="10.00">sgfx::Bitmap</text>
<polyline fill="none" stroke="black" points="90.3979,-435 195.602,-435 "/>
<text text-anchor="middle" x="143" y="-423" font-family="Helvetica,sans-Serif" font-size="10.00"> </text>
<polyline fill="none" stroke="black" points="90.3979,-417 195.602,-417 "/>
<text text-anchor="start" x="98.3979" y="-405" font-family="Helvetica,sans-Serif" font-size="10.00">+ Bitmap()</text>
<text text-anchor="start" x="98.3979" y="-395" font-family="Helvetica,sans-Serif" font-size="10.00">+ Bitmap()</text>
<text text-anchor="start" x="98.3979" y="-385" font-family="Helvetica,sans-Serif" font-size="10.00">+ Bitmap()</text>
<text text-anchor="start" x="98.3979" y="-375" font-family="Helvetica,sans-Serif" font-size="10.00">+ Bitmap()</text>
<text text-anchor="start" x="98.3979" y="-365" font-family="Helvetica,sans-Serif" font-size="10.00">+ Bitmap()</text>
<text text-anchor="start" x="98.3979" y="-355" font-family="Helvetica,sans-Serif" font-size="10.00">+ ~Bitmap()</text>
<text text-anchor="start" x="98.3979" y="-345" font-family="Helvetica,sans-Serif" font-size="10.00">and 72 more...</text>
<text text-anchor="start" x="98.3979" y="-335" font-family="Helvetica,sans-Serif" font-size="10.00">+ bits_per_pixel()</text>
<text text-anchor="start" x="98.3979" y="-325" font-family="Helvetica,sans-Serif" font-size="10.00">+ calc_size()</text>
<text text-anchor="start" x="98.3979" y="-315" font-family="Helvetica,sans-Serif" font-size="10.00">+ calc_word_width()</text>
<text text-anchor="start" x="98.3979" y="-305" font-family="Helvetica,sans-Serif" font-size="10.00">+ load_dim()</text>
</a>
</g>
</g>
<!-- Node7&#45;&gt;Node8 -->
<g id="edge7" class="edge"><title>Node7&#45;&gt;Node8</title>
<path fill="none" stroke="midnightblue" d="M172.184,-512.668C168.46,-495.353 163.856,-473.952 159.415,-453.306"/>
<polygon fill="none" stroke="midnightblue" points="168.856,-513.837 174.38,-522.877 175.699,-512.364 168.856,-513.837"/>
</g>
<!-- Node9 -->
<g id="node9" class="node"><title>Node9</title>
<g id="a_node9"><a xlink:href="classhal_1_1_display.html" target="_top" xlink:title="Display Class. ">
<polygon fill="none" stroke="black" points="109.155,-155 109.155,-259 176.845,-259 176.845,-155 109.155,-155"/>
<text text-anchor="middle" x="143" y="-247" font-family="Helvetica,sans-Serif" font-size="10.00">hal::Display</text>
<polyline fill="none" stroke="black" points="109.155,-241 176.845,-241 "/>
<text text-anchor="middle" x="143" y="-229" font-family="Helvetica,sans-Serif" font-size="10.00"> </text>
<polyline fill="none" stroke="black" points="109.155,-223 176.845,-223 "/>
<text text-anchor="start" x="117.155" y="-211" font-family="Helvetica,sans-Serif" font-size="10.00">+ Display()</text>
<text text-anchor="start" x="117.155" y="-201" font-family="Helvetica,sans-Serif" font-size="10.00">+ Display()</text>
<text text-anchor="start" x="117.155" y="-191" font-family="Helvetica,sans-Serif" font-size="10.00">+ Display()</text>
<text text-anchor="start" x="117.155" y="-181" font-family="Helvetica,sans-Serif" font-size="10.00">+ disable()</text>
<text text-anchor="start" x="117.155" y="-171" font-family="Helvetica,sans-Serif" font-size="10.00">+ enable()</text>
<text text-anchor="start" x="117.155" y="-161" font-family="Helvetica,sans-Serif" font-size="10.00">+ init()</text>
</a>
</g>
</g>
<!-- Node8&#45;&gt;Node9 -->
<g id="edge8" class="edge"><title>Node8&#45;&gt;Node9</title>
<path fill="none" stroke="midnightblue" d="M143,-288.74C143,-278.645 143,-268.604 143,-259.208"/>
<polygon fill="none" stroke="midnightblue" points="139.5,-288.83 143,-298.83 146.5,-288.831 139.5,-288.83"/>
</g>
<!-- Node10 -->
<g id="node10" class="node"><title>Node10</title>
<g id="a_node10"><a xlink:href="classhal_1_1_display_device.html" target="_top" xlink:title="Display Device. ">
<polygon fill="none" stroke="black" points="93.8721,-1 93.8721,-115 192.128,-115 192.128,-1 93.8721,-1"/>
<text text-anchor="middle" x="143" y="-103" font-family="Helvetica,sans-Serif" font-size="10.00">hal::DisplayDevice</text>
<polyline fill="none" stroke="black" points="93.8721,-97 192.128,-97 "/>
<text text-anchor="middle" x="143" y="-85" font-family="Helvetica,sans-Serif" font-size="10.00"> </text>
<polyline fill="none" stroke="black" points="93.8721,-79 192.128,-79 "/>
<text text-anchor="start" x="101.872" y="-67" font-family="Helvetica,sans-Serif" font-size="10.00">+ DisplayDevice()</text>
<text text-anchor="start" x="101.872" y="-57" font-family="Helvetica,sans-Serif" font-size="10.00">+ disable()</text>
<text text-anchor="start" x="101.872" y="-47" font-family="Helvetica,sans-Serif" font-size="10.00">+ enable()</text>
<text text-anchor="start" x="101.872" y="-37" font-family="Helvetica,sans-Serif" font-size="10.00">+ init()</text>
<text text-anchor="start" x="101.872" y="-27" font-family="Helvetica,sans-Serif" font-size="10.00">+ is_busy()</text>
<text text-anchor="start" x="101.872" y="-17" font-family="Helvetica,sans-Serif" font-size="10.00">+ refresh()</text>
<text text-anchor="start" x="101.872" y="-7" font-family="Helvetica,sans-Serif" font-size="10.00">+ wait()</text>
</a>
</g>
</g>
<!-- Node9&#45;&gt;Node10 -->
<g id="edge9" class="edge"><title>Node9&#45;&gt;Node10</title>
<path fill="none" stroke="midnightblue" d="M143,-144.886C143,-135.046 143,-124.901 143,-115.185"/>
<polygon fill="none" stroke="midnightblue" points="139.5,-144.999 143,-154.999 146.5,-144.999 139.5,-144.999"/>
</g>
<!-- Node13 -->
<g id="node13" class="node"><title>Node13</title>
<g id="a_node13"><a xlink:href="classsys_1_1_trace.html" target="_top" xlink:title="Trace Class. ">
<polygon fill="none" stroke="black" points="213.176,-314 213.176,-438 312.824,-438 312.824,-314 213.176,-314"/>
<text text-anchor="middle" x="263" y="-426" font-family="Helvetica,sans-Serif" font-size="10.00">sys::Trace</text>
<polyline fill="none" stroke="black" points="213.176,-420 312.824,-420 "/>
<text text-anchor="middle" x="263" y="-408" font-family="Helvetica,sans-Serif" font-size="10.00"> </text>
<polyline fill="none" stroke="black" points="213.176,-402 312.824,-402 "/>
<text text-anchor="start" x="221.176" y="-390" font-family="Helvetica,sans-Serif" font-size="10.00">+ Trace()</text>
<text text-anchor="start" x="221.176" y="-380" font-family="Helvetica,sans-Serif" font-size="10.00">+ operator=()</text>
<text text-anchor="start" x="221.176" y="-370" font-family="Helvetica,sans-Serif" font-size="10.00">+ operator=()</text>
<text text-anchor="start" x="221.176" y="-360" font-family="Helvetica,sans-Serif" font-size="10.00">+ trace_critical()</text>
<text text-anchor="start" x="221.176" y="-350" font-family="Helvetica,sans-Serif" font-size="10.00">+ trace_error()</text>
<text text-anchor="start" x="221.176" y="-340" font-family="Helvetica,sans-Serif" font-size="10.00">+ trace_fatal()</text>
<text text-anchor="start" x="221.176" y="-330" font-family="Helvetica,sans-Serif" font-size="10.00">+ trace_message()</text>
<text text-anchor="start" x="221.176" y="-320" font-family="Helvetica,sans-Serif" font-size="10.00">+ trace_warning()</text>
</a>
</g>
</g>
<!-- Node12&#45;&gt;Node13 -->
<g id="edge12" class="edge"><title>Node12&#45;&gt;Node13</title>
<path fill="none" stroke="midnightblue" d="M394.153,-493.758C393.438,-493.161 392.72,-492.575 392,-492 364.342,-469.906 348.911,-476.998 322,-454 316.367,-449.186 310.927,-443.752 305.781,-438.053"/>
<polygon fill="none" stroke="midnightblue" points="391.913,-496.449 401.708,-500.488 396.569,-491.223 391.913,-496.449"/>
</g>
<!-- Node14 -->
<g id="node14" class="node"><title>Node14</title>
<g id="a_node14"><a xlink:href="classvar_1_1_name_string.html" target="_top" xlink:title="{var::NameString\n||+ NameString()\l}">
<polygon fill="none" stroke="black" points="330.877,-349 330.877,-403 419.123,-403 419.123,-349 330.877,-349"/>
<text text-anchor="middle" x="375" y="-391" font-family="Helvetica,sans-Serif" font-size="10.00">var::NameString</text>
<polyline fill="none" stroke="black" points="330.877,-385 419.123,-385 "/>
<text text-anchor="middle" x="375" y="-373" font-family="Helvetica,sans-Serif" font-size="10.00"> </text>
<polyline fill="none" stroke="black" points="330.877,-367 419.123,-367 "/>
<text text-anchor="start" x="338.877" y="-355" font-family="Helvetica,sans-Serif" font-size="10.00">+ NameString()</text>
</a>
</g>
</g>
<!-- Node12&#45;&gt;Node14 -->
<g id="edge13" class="edge"><title>Node12&#45;&gt;Node14</title>
<path fill="none" stroke="midnightblue" d="M416.42,-483.333C405.528,-455.371 393.451,-424.367 385.162,-403.088"/>
<polygon fill="none" stroke="midnightblue" points="413.171,-484.633 420.062,-492.681 419.693,-482.092 413.171,-484.633"/>
</g>
<!-- Node15 -->
<g id="node15" class="node"><title>Node15</title>
<g id="a_node15"><a xlink:href="classvar_1_1_path_string.html" target="_top" xlink:title="{var::PathString\n||+ PathString()\l+ file_name()\l+ filename()\l+ strip_suffix()\l}">
<polygon fill="none" stroke="black" points="436.929,-334 436.929,-418 519.071,-418 519.071,-334 436.929,-334"/>
<text text-anchor="middle" x="478" y="-406" font-family="Helvetica,sans-Serif" font-size="10.00">var::PathString</text>
<polyline fill="none" stroke="black" points="436.929,-400 519.071,-400 "/>
<text text-anchor="middle" x="478" y="-388" font-family="Helvetica,sans-Serif" font-size="10.00"> </text>
<polyline fill="none" stroke="black" points="436.929,-382 519.071,-382 "/>
<text text-anchor="start" x="444.929" y="-370" font-family="Helvetica,sans-Serif" font-size="10.00">+ PathString()</text>
<text text-anchor="start" x="444.929" y="-360" font-family="Helvetica,sans-Serif" font-size="10.00">+ file_name()</text>
<text text-anchor="start" x="444.929" y="-350" font-family="Helvetica,sans-Serif" font-size="10.00">+ filename()</text>
<text text-anchor="start" x="444.929" y="-340" font-family="Helvetica,sans-Serif" font-size="10.00">+ strip_suffix()</text>
</a>
</g>
</g>
<!-- Node12&#45;&gt;Node15 -->
<g id="edge14" class="edge"><title>Node12&#45;&gt;Node15</title>
<path fill="none" stroke="midnightblue" d="M455.849,-482.831C460.404,-461.071 465.333,-437.52 469.383,-418.171"/>
<polygon fill="none" stroke="midnightblue" points="452.411,-482.176 453.788,-492.681 459.262,-483.61 452.411,-482.176"/>
</g>
<!-- Node16 -->
<g id="node16" class="node"><title>Node16</title>
<g id="a_node16"><a xlink:href="classvar_1_1_static_string.html" target="_top" xlink:title="{var::StaticString\&lt;\l arraysize \&gt;\n||+ StaticString()\l+ StaticString()\l+ StaticString()\l}">
<polygon fill="none" stroke="black" points="536.79,-334 536.79,-418 629.21,-418 629.21,-334 536.79,-334"/>
<text text-anchor="start" x="544.79" y="-406" font-family="Helvetica,sans-Serif" font-size="10.00">var::StaticString&lt;</text>
<text text-anchor="middle" x="583" y="-396" font-family="Helvetica,sans-Serif" font-size="10.00"> arraysize &gt;</text>
<polyline fill="none" stroke="black" points="536.79,-390 629.21,-390 "/>
<text text-anchor="middle" x="583" y="-378" font-family="Helvetica,sans-Serif" font-size="10.00"> </text>
<polyline fill="none" stroke="black" points="536.79,-372 629.21,-372 "/>
<text text-anchor="start" x="544.79" y="-360" font-family="Helvetica,sans-Serif" font-size="10.00">+ StaticString()</text>
<text text-anchor="start" x="544.79" y="-350" font-family="Helvetica,sans-Serif" font-size="10.00">+ StaticString()</text>
<text text-anchor="start" x="544.79" y="-340" font-family="Helvetica,sans-Serif" font-size="10.00">+ StaticString()</text>
</a>
</g>
</g>
<!-- Node12&#45;&gt;Node16 -->
<g id="edge15" class="edge"><title>Node12&#45;&gt;Node16</title>
<path fill="none" stroke="midnightblue" d="M489.362,-494.902C490.247,-493.926 491.127,-492.958 492,-492 507.674,-474.808 513.204,-471.953 528,-454 537.299,-442.717 546.78,-429.973 555.192,-418.147"/>
<polygon fill="none" stroke="midnightblue" points="486.598,-492.742 482.512,-502.517 491.802,-497.424 486.598,-492.742"/>
</g>
<!-- Node17 -->
<g id="node17" class="node"><title>Node17</title>
<g id="a_node17"><a xlink:href="classvar_1_1_token.html" target="_top" xlink:title="Abstract Token Class. ">
<polygon fill="none" stroke="black" points="646.829,-309 646.829,-443 783.171,-443 783.171,-309 646.829,-309"/>
<text text-anchor="middle" x="715" y="-431" font-family="Helvetica,sans-Serif" font-size="10.00">var::Token</text>
<polyline fill="none" stroke="black" points="646.829,-425 783.171,-425 "/>
<text text-anchor="middle" x="715" y="-413" font-family="Helvetica,sans-Serif" font-size="10.00"> </text>
<polyline fill="none" stroke="black" points="646.829,-407 783.171,-407 "/>
<text text-anchor="start" x="654.829" y="-395" font-family="Helvetica,sans-Serif" font-size="10.00">+ Token()</text>
<text text-anchor="start" x="654.829" y="-385" font-family="Helvetica,sans-Serif" font-size="10.00">+ Token()</text>
<text text-anchor="start" x="654.829" y="-375" font-family="Helvetica,sans-Serif" font-size="10.00">+ Token()</text>
<text text-anchor="start" x="654.829" y="-365" font-family="Helvetica,sans-Serif" font-size="10.00">+ at()</text>
<text text-anchor="start" x="654.829" y="-355" font-family="Helvetica,sans-Serif" font-size="10.00">+ count()</text>
<text text-anchor="start" x="654.829" y="-345" font-family="Helvetica,sans-Serif" font-size="10.00">+ is_count_empty_tokens()</text>
<text text-anchor="start" x="654.829" y="-335" font-family="Helvetica,sans-Serif" font-size="10.00">and 5 more...</text>
<text text-anchor="start" x="654.829" y="-325" font-family="Helvetica,sans-Serif" font-size="10.00">+ belongs_to()</text>
<text text-anchor="start" x="654.829" y="-315" font-family="Helvetica,sans-Serif" font-size="10.00">+ belongs_to()</text>
</a>
</g>
</g>
<!-- Node12&#45;&gt;Node17 -->
<g id="edge16" class="edge"><title>Node12&#45;&gt;Node17</title>
<path fill="none" stroke="midnightblue" d="M490.432,-492.993C490.952,-492.655 491.475,-492.324 492,-492 549.068,-456.801 579.812,-487.317 638,-454 643.578,-450.806 649.033,-447.102 654.298,-443.081"/>
<polygon fill="none" stroke="midnightblue" points="488.228,-490.27 482.242,-499.012 492.373,-495.91 488.228,-490.27"/>
</g>
<!-- Node20&#45;&gt;Node4 -->
<g id="edge20" class="edge"><title>Node20&#45;&gt;Node4</title>
<path fill="none" stroke="orange" d="M92.7511,-650.378C87.0162,-636.04 80.9971,-620.993 75.4273,-607.068"/>
<polygon fill="orange" stroke="orange" points="89.5075,-651.693 96.4711,-659.678 96.0068,-649.093 89.5075,-651.693"/>
<text text-anchor="middle" x="108.424" y="-628" font-family="Helvetica,sans-Serif" font-size="10.00"> &lt; Test * &gt;</text>
</g>
</g>
</svg>
        <g id="navigator" transform="translate(0 0)" fill="#404254">
                <rect fill="#f2f5e9" fill-opacity="0.5" stroke="#606060" stroke-width=".5" x="0" y="0" width="60" height="60"/>
                <use id="zoomplus" xlink:href="#zoomPlus" x="17" y="9" onmousedown="handleZoom(evt,'in')"/>
                <use id="zoomminus" xlink:href="#zoomMin" x="42" y="9" onmousedown="handleZoom(evt,'out')"/>
                <use id="reset" xlink:href="#resetDef" x="30" y="36" onmousedown="handleReset()"/>
                <g id="arrowUp" xlink:href="#dirArrow" transform="translate(30 24)" onmousedown="handlePan(0,-1)">
                  <use xlink:href="#rim" fill="#404040">
                        <set attributeName="fill" to="#808080" begin="arrowUp.mouseover" end="arrowUp.mouseout"/>
                  </use>
                  <path fill="none" stroke="white" stroke-width="1.5" d="M0,-3.0v7 M-2.5,-0.5L0,-3.0L2.5,-0.5"/>
                </g>
                <g id="arrowRight" xlink:href="#dirArrow" transform="rotate(90) translate(36 -43)" onmousedown="handlePan(1,0)">
                  <use xlink:href="#rim" fill="#404040">
                        <set attributeName="fill" to="#808080" begin="arrowRight.mouseover" end="arrowRight.mouseout"/>
                  </use>
                  <path fill="none" stroke="white" stroke-width="1.5" d="M0,-3.0v7 M-2.5,-0.5L0,-3.0L2.5,-0.5"/>
                </g>
                <g id="arrowDown" xlink:href="#dirArrow" transform="rotate(180) translate(-30 -48)" onmousedown="handlePan(0,1)">
                  <use xlink:href="#rim" fill="#404040">
                        <set attributeName="fill" to="#808080" begin="arrowDown.mouseover" end="arrowDown.mouseout"/>
                  </use>
                  <path fill="none" stroke="white" stroke-width="1.5" d="M0,-3.0v7 M-2.5,-0.5L0,-3.0L2.5,-0.5"/>
                </g>
                <g id="arrowLeft" xlink:href="#dirArrow" transform="rotate(270) translate(-36 17)" onmousedown="handlePan(-1,0)">
                  <use xlink:href="#rim" fill="#404040">
                        <set attributeName="fill" to="#808080" begin="arrowLeft.mouseover" end="arrowLeft.mouseout"/>
                  </use>
                  <path fill="none" stroke="white" stroke-width="1.5" d="M0,-3.0v7 M-2.5,-0.5L0,-3.0L2.5,-0.5"/>
                </g>
        </g>
        <svg viewBox="0 0 15 15" width="100%" height="30px" preserveAspectRatio="xMaxYMin meet">
         <g id="arrow_out" transform="scale(0.3 0.3)">
          <a xlink:href="classapi_1_1_var_work_object__inherit__graph_org.svg" target="_base">
           <rect id="button" ry="5" rx="5" y="6" x="6" height="38" width="38"
                fill="#f2f5e9" fill-opacity="0.5" stroke="#606060" stroke-width="1.0"/>
           <path id="arrow"
             d="M 11.500037,31.436501 C 11.940474,20.09759 22.043105,11.32322 32.158766,21.979434 L 37.068811,17.246167 C 37.068811,17.246167 37.088388,32 37.088388,32 L 22.160133,31.978069 C 22.160133,31.978069 26.997745,27.140456 26.997745,27.140456 C 18.528582,18.264221 13.291696,25.230495 11.500037,31.436501 z"
             style="fill:#404040;"/>
          </a>
         </g>
        </svg>
</svg>
