<?xml version="1.0" encoding="UTF-8" standalone="no"?>
<!DOCTYPE svg PUBLIC "-//W3C//DTD SVG 1.1//EN"
 "http://www.w3.org/Graphics/SVG/1.1/DTD/svg11.dtd">
<!-- Generated by graphviz version 2.36.0 (20140111.2315)
 -->
<!-- Title: ui::ListItem Pages: 1 -->
<svg width="484pt" height="1218pt"
 viewBox="0.00 0.00 484.00 1218.00" xmlns="http://www.w3.org/2000/svg" xmlns:xlink="http://www.w3.org/1999/xlink">
<g id="graph0" class="graph" transform="scale(1 1) rotate(0) translate(4 1214)">
<title>ui::ListItem</title>
<!-- Node1 -->
<g id="node1" class="node"><title>Node1</title>
<polygon fill="#bfbfbf" stroke="black" points="162.452,-153 162.452,-267 261.548,-267 261.548,-153 162.452,-153"/>
<text text-anchor="middle" x="212" y="-255" font-family="Helvetica,sans-Serif" font-size="10.00">ui::ListItem</text>
<polyline fill="none" stroke="black" points="162.452,-249 261.548,-249 "/>
<text text-anchor="middle" x="212" y="-237" font-family="Helvetica,sans-Serif" font-size="10.00"> </text>
<polyline fill="none" stroke="black" points="162.452,-231 261.548,-231 "/>
<text text-anchor="start" x="170.452" y="-219" font-family="Helvetica,sans-Serif" font-size="10.00">+ ListItem()</text>
<text text-anchor="start" x="170.452" y="-209" font-family="Helvetica,sans-Serif" font-size="10.00">+ draw_to_scale()</text>
<text text-anchor="start" x="170.452" y="-199" font-family="Helvetica,sans-Serif" font-size="10.00">+ handle_event()</text>
<text text-anchor="start" x="170.452" y="-189" font-family="Helvetica,sans-Serif" font-size="10.00">+ icon()</text>
<text text-anchor="start" x="170.452" y="-179" font-family="Helvetica,sans-Serif" font-size="10.00">+ icon_attr()</text>
<text text-anchor="start" x="170.452" y="-169" font-family="Helvetica,sans-Serif" font-size="10.00">+ icon_attr_const()</text>
<text text-anchor="start" x="170.452" y="-159" font-family="Helvetica,sans-Serif" font-size="10.00">and 4 more...</text>
</g>
<!-- Node10 -->
<g id="node10" class="node"><title>Node10</title>
<g id="a_node10"><a xlink:href="classui_1_1_info_list_item.html" target="_top" xlink:title="List Item Info Class. ">
<polygon fill="none" stroke="black" points="-0.880371,-1 -0.880371,-115 94.8804,-115 94.8804,-1 -0.880371,-1"/>
<text text-anchor="middle" x="47" y="-103" font-family="Helvetica,sans-Serif" font-size="10.00">ui::InfoListItem</text>
<polyline fill="none" stroke="black" points="-0.880371,-97 94.8804,-97 "/>
<text text-anchor="middle" x="47" y="-85" font-family="Helvetica,sans-Serif" font-size="10.00"> </text>
<polyline fill="none" stroke="black" points="-0.880371,-79 94.8804,-79 "/>
<text text-anchor="start" x="7.11963" y="-67" font-family="Helvetica,sans-Serif" font-size="10.00">+ InfoListItem()</text>
<text text-anchor="start" x="7.11963" y="-57" font-family="Helvetica,sans-Serif" font-size="10.00">+ InfoListItem()</text>
<text text-anchor="start" x="7.11963" y="-47" font-family="Helvetica,sans-Serif" font-size="10.00">+ draw_to_scale()</text>
<text text-anchor="start" x="7.11963" y="-37" font-family="Helvetica,sans-Serif" font-size="10.00">+ handle_event()</text>
<text text-anchor="start" x="7.11963" y="-27" font-family="Helvetica,sans-Serif" font-size="10.00">+ label()</text>
<text text-anchor="start" x="7.11963" y="-17" font-family="Helvetica,sans-Serif" font-size="10.00">+ set()</text>
<text text-anchor="start" x="7.11963" y="-7" font-family="Helvetica,sans-Serif" font-size="10.00">+ value()</text>
</a>
</g>
</g>
<!-- Node1&#45;&gt;Node10 -->
<g id="edge10" class="edge"><title>Node1&#45;&gt;Node10</title>
<path fill="none" stroke="midnightblue" d="M154.42,-160.799C137.917,-146.614 120.053,-130.9 104,-116 101.025,-113.239 97.9932,-110.372 94.9547,-107.459"/>
<polygon fill="none" stroke="midnightblue" points="152.525,-163.784 162.398,-167.629 157.077,-158.467 152.525,-163.784"/>
</g>
<!-- Node11 -->
<g id="node11" class="node"><title>Node11</title>
<g id="a_node11"><a xlink:href="classui_1_1_list_item_back.html" target="_top" xlink:title="List Item Back Entry. ">
<polygon fill="none" stroke="black" points="112.74,-31 112.74,-85 201.26,-85 201.26,-31 112.74,-31"/>
<text text-anchor="middle" x="157" y="-73" font-family="Helvetica,sans-Serif" font-size="10.00">ui::ListItemBack</text>
<polyline fill="none" stroke="black" points="112.74,-67 201.26,-67 "/>
<text text-anchor="middle" x="157" y="-55" font-family="Helvetica,sans-Serif" font-size="10.00"> </text>
<polyline fill="none" stroke="black" points="112.74,-49 201.26,-49 "/>
<text text-anchor="start" x="120.74" y="-37" font-family="Helvetica,sans-Serif" font-size="10.00">+ ListItemBack()</text>
</a>
</g>
</g>
<!-- Node1&#45;&gt;Node11 -->
<g id="edge11" class="edge"><title>Node1&#45;&gt;Node11</title>
<path fill="none" stroke="midnightblue" d="M187.845,-143.122C180.367,-122.728 172.554,-101.42 166.662,-85.352"/>
<polygon fill="none" stroke="midnightblue" points="184.635,-144.535 191.364,-152.719 191.207,-142.125 184.635,-144.535"/>
</g>
<!-- Node12 -->
<g id="node12" class="node"><title>Node12</title>
<g id="a_node12"><a xlink:href="classui_1_1_list_item_check.html" target="_top" xlink:title="List Item Check (for use in a checklist) ">
<polygon fill="none" stroke="black" points="219.684,-16 219.684,-100 314.316,-100 314.316,-16 219.684,-16"/>
<text text-anchor="middle" x="267" y="-88" font-family="Helvetica,sans-Serif" font-size="10.00">ui::ListItemCheck</text>
<polyline fill="none" stroke="black" points="219.684,-82 314.316,-82 "/>
<text text-anchor="middle" x="267" y="-70" font-family="Helvetica,sans-Serif" font-size="10.00"> </text>
<polyline fill="none" stroke="black" points="219.684,-64 314.316,-64 "/>
<text text-anchor="start" x="227.684" y="-52" font-family="Helvetica,sans-Serif" font-size="10.00">+ ListItemCheck()</text>
<text text-anchor="start" x="227.684" y="-42" font-family="Helvetica,sans-Serif" font-size="10.00">+ ListItemCheck()</text>
<text text-anchor="start" x="227.684" y="-32" font-family="Helvetica,sans-Serif" font-size="10.00">+ handle_event()</text>
<text text-anchor="start" x="227.684" y="-22" font-family="Helvetica,sans-Serif" font-size="10.00">+ set_enabled()</text>
</a>
</g>
</g>
<!-- Node1&#45;&gt;Node12 -->
<g id="edge12" class="edge"><title>Node1&#45;&gt;Node12</title>
<path fill="none" stroke="midnightblue" d="M236.13,-143.192C241.497,-128.554 247.038,-113.443 251.918,-100.132"/>
<polygon fill="none" stroke="midnightblue" points="232.793,-142.125 232.636,-152.719 239.365,-144.535 232.793,-142.125"/>
</g>
<!-- Node13 -->
<g id="node13" class="node"><title>Node13</title>
<g id="a_node13"><a xlink:href="classui_1_1_list_item_toggle.html" target="_top" xlink:title="Toggle Item. ">
<polygon fill="none" stroke="black" points="331.928,-11 331.928,-105 476.072,-105 476.072,-11 331.928,-11"/>
<text text-anchor="middle" x="404" y="-93" font-family="Helvetica,sans-Serif" font-size="10.00">ui::ListItemToggle</text>
<polyline fill="none" stroke="black" points="331.928,-87 476.072,-87 "/>
<text text-anchor="middle" x="404" y="-75" font-family="Helvetica,sans-Serif" font-size="10.00"> </text>
<polyline fill="none" stroke="black" points="331.928,-69 476.072,-69 "/>
<text text-anchor="start" x="339.928" y="-57" font-family="Helvetica,sans-Serif" font-size="10.00">+ ListItemToggle()</text>
<text text-anchor="start" x="339.928" y="-47" font-family="Helvetica,sans-Serif" font-size="10.00">+ handle_event()</text>
<text text-anchor="start" x="339.928" y="-37" font-family="Helvetica,sans-Serif" font-size="10.00">+ set_enabled()</text>
<text text-anchor="start" x="339.928" y="-27" font-family="Helvetica,sans-Serif" font-size="10.00">+ set_toggle_disabled_icon()</text>
<text text-anchor="start" x="339.928" y="-17" font-family="Helvetica,sans-Serif" font-size="10.00">+ set_toggle_enabled_icon()</text>
</a>
</g>
</g>
<!-- Node1&#45;&gt;Node13 -->
<g id="edge13" class="edge"><title>Node1&#45;&gt;Node13</title>
<path fill="none" stroke="midnightblue" d="M269.862,-163.796C293.66,-145.203 321.193,-123.693 345.098,-105.017"/>
<polygon fill="none" stroke="midnightblue" points="267.67,-161.066 261.945,-169.981 271.98,-166.582 267.67,-161.066"/>
</g>
<!-- Node2 -->
<g id="node2" class="node"><title>Node2</title>
<g id="a_node2"><a xlink:href="classui_1_1_linked_element.html" target="_top" xlink:title="Linked Element. ">
<polygon fill="none" stroke="black" points="163.285,-305 163.285,-419 260.715,-419 260.715,-305 163.285,-305"/>
<text text-anchor="middle" x="212" y="-407" font-family="Helvetica,sans-Serif" font-size="10.00">ui::LinkedElement</text>
<polyline fill="none" stroke="black" points="163.285,-401 260.715,-401 "/>
<text text-anchor="middle" x="212" y="-389" font-family="Helvetica,sans-Serif" font-size="10.00"> </text>
<polyline fill="none" stroke="black" points="163.285,-383 260.715,-383 "/>
<text text-anchor="start" x="171.285" y="-371" font-family="Helvetica,sans-Serif" font-size="10.00">+ LinkedElement()</text>
<text text-anchor="start" x="171.285" y="-361" font-family="Helvetica,sans-Serif" font-size="10.00">+ LinkedElement()</text>
<text text-anchor="start" x="171.285" y="-351" font-family="Helvetica,sans-Serif" font-size="10.00">+ child()</text>
<text text-anchor="start" x="171.285" y="-341" font-family="Helvetica,sans-Serif" font-size="10.00">+ handle_event()</text>
<text text-anchor="start" x="171.285" y="-331" font-family="Helvetica,sans-Serif" font-size="10.00">+ parent()</text>
<text text-anchor="start" x="171.285" y="-321" font-family="Helvetica,sans-Serif" font-size="10.00">+ set_child()</text>
<text text-anchor="start" x="171.285" y="-311" font-family="Helvetica,sans-Serif" font-size="10.00">+ set_parent()</text>
</a>
</g>
</g>
<!-- Node2&#45;&gt;Node1 -->
<g id="edge1" class="edge"><title>Node2&#45;&gt;Node1</title>
<path fill="none" stroke="midnightblue" d="M212,-294.495C212,-285.349 212,-276.032 212,-267.098"/>
<polygon fill="none" stroke="midnightblue" points="208.5,-294.719 212,-304.719 215.5,-294.719 208.5,-294.719"/>
</g>
<!-- Node3 -->
<g id="node3" class="node"><title>Node3</title>
<g id="a_node3"><a xlink:href="classui_1_1_element.html" target="_top" xlink:title="Element Class. ">
<polygon fill="none" stroke="black" points="144.386,-457 144.386,-591 279.614,-591 279.614,-457 144.386,-457"/>
<text text-anchor="middle" x="212" y="-579" font-family="Helvetica,sans-Serif" font-size="10.00">ui::Element</text>
<polyline fill="none" stroke="black" points="144.386,-573 279.614,-573 "/>
<text text-anchor="start" x="152.386" y="-561" font-family="Helvetica,sans-Serif" font-size="10.00"># m_animation_attr</text>
<polyline fill="none" stroke="black" points="144.386,-555 279.614,-555 "/>
<text text-anchor="start" x="152.386" y="-543" font-family="Helvetica,sans-Serif" font-size="10.00">+ Element()</text>
<text text-anchor="start" x="152.386" y="-533" font-family="Helvetica,sans-Serif" font-size="10.00">+ animation_attr()</text>
<text text-anchor="start" x="152.386" y="-523" font-family="Helvetica,sans-Serif" font-size="10.00">+ animation_frame_delay()</text>
<text text-anchor="start" x="152.386" y="-513" font-family="Helvetica,sans-Serif" font-size="10.00">+ animation_path()</text>
<text text-anchor="start" x="152.386" y="-503" font-family="Helvetica,sans-Serif" font-size="10.00">+ animation_type()</text>
<text text-anchor="start" x="152.386" y="-493" font-family="Helvetica,sans-Serif" font-size="10.00">+ handle_event()</text>
<text text-anchor="start" x="152.386" y="-483" font-family="Helvetica,sans-Serif" font-size="10.00">and 21 more...</text>
<text text-anchor="start" x="152.386" y="-473" font-family="Helvetica,sans-Serif" font-size="10.00"># adjust_x_center()</text>
<text text-anchor="start" x="152.386" y="-463" font-family="Helvetica,sans-Serif" font-size="10.00"># draw_scroll()</text>
</a>
</g>
</g>
<!-- Node3&#45;&gt;Node2 -->
<g id="edge2" class="edge"><title>Node3&#45;&gt;Node2</title>
<path fill="none" stroke="midnightblue" d="M212,-446.907C212,-437.558 212,-428.139 212,-419.16"/>
<polygon fill="none" stroke="midnightblue" points="208.5,-446.998 212,-456.998 215.5,-446.998 208.5,-446.998"/>
</g>
<!-- Node4 -->
<g id="node4" class="node"><title>Node4</title>
<g id="a_node4"><a xlink:href="classdraw_1_1_drawing.html" target="_top" xlink:title="Drawing Class. ">
<polygon fill="none" stroke="black" points="89.4473,-629 89.4473,-853 208.553,-853 208.553,-629 89.4473,-629"/>
<text text-anchor="middle" x="149" y="-841" font-family="Helvetica,sans-Serif" font-size="10.00">draw::Drawing</text>
<polyline fill="none" stroke="black" points="89.4473,-835 208.553,-835 "/>
<text text-anchor="middle" x="149" y="-823" font-family="Helvetica,sans-Serif" font-size="10.00"> </text>
<polyline fill="none" stroke="black" points="89.4473,-817 208.553,-817 "/>
<text text-anchor="start" x="97.4473" y="-805" font-family="Helvetica,sans-Serif" font-size="10.00">+ Drawing()</text>
<text text-anchor="start" x="97.4473" y="-795" font-family="Helvetica,sans-Serif" font-size="10.00">+ dark()</text>
<text text-anchor="start" x="97.4473" y="-785" font-family="Helvetica,sans-Serif" font-size="10.00">+ draw()</text>
<text text-anchor="start" x="97.4473" y="-775" font-family="Helvetica,sans-Serif" font-size="10.00">+ draw()</text>
<text text-anchor="start" x="97.4473" y="-765" font-family="Helvetica,sans-Serif" font-size="10.00">+ draw_scratch()</text>
<text text-anchor="start" x="97.4473" y="-755" font-family="Helvetica,sans-Serif" font-size="10.00">+ draw_to_scale()</text>
<text text-anchor="start" x="97.4473" y="-745" font-family="Helvetica,sans-Serif" font-size="10.00">and 18 more...</text>
<text text-anchor="start" x="97.4473" y="-735" font-family="Helvetica,sans-Serif" font-size="10.00">+ clear()</text>
<text text-anchor="start" x="97.4473" y="-725" font-family="Helvetica,sans-Serif" font-size="10.00">+ draw_checkerboard()</text>
<text text-anchor="start" x="97.4473" y="-715" font-family="Helvetica,sans-Serif" font-size="10.00">+ draw_pattern()</text>
<text text-anchor="start" x="97.4473" y="-705" font-family="Helvetica,sans-Serif" font-size="10.00">+ h()</text>
<text text-anchor="start" x="97.4473" y="-695" font-family="Helvetica,sans-Serif" font-size="10.00">+ height()</text>
<text text-anchor="start" x="97.4473" y="-685" font-family="Helvetica,sans-Serif" font-size="10.00">+ invert()</text>
<text text-anchor="start" x="97.4473" y="-675" font-family="Helvetica,sans-Serif" font-size="10.00">and 4 more...</text>
<text text-anchor="start" x="97.4473" y="-665" font-family="Helvetica,sans-Serif" font-size="10.00"># dim_on_bitmap()</text>
<text text-anchor="start" x="97.4473" y="-655" font-family="Helvetica,sans-Serif" font-size="10.00"># flag()</text>
<text text-anchor="start" x="97.4473" y="-645" font-family="Helvetica,sans-Serif" font-size="10.00"># point_on_bitmap()</text>
<text text-anchor="start" x="97.4473" y="-635" font-family="Helvetica,sans-Serif" font-size="10.00"># set_flag()</text>
</a>
</g>
</g>
<!-- Node4&#45;&gt;Node3 -->
<g id="edge3" class="edge"><title>Node4&#45;&gt;Node3</title>
<path fill="none" stroke="midnightblue" d="M184.502,-618.842C187.269,-609.399 189.994,-600.1 192.59,-591.241"/>
<polygon fill="none" stroke="midnightblue" points="181.061,-618.141 181.607,-628.721 187.778,-620.109 181.061,-618.141"/>
</g>
<!-- Node5 -->
<g id="node5" class="node"><title>Node5</title>
<g id="a_node5"><a xlink:href="classapi_1_1_draw_work_object.html" target="_top" xlink:title="State Machine Work Object Class. ">
<polygon fill="none" stroke="black" points="94.854,-891 94.854,-945 205.146,-945 205.146,-891 94.854,-891"/>
<text text-anchor="middle" x="150" y="-933" font-family="Helvetica,sans-Serif" font-size="10.00">api::DrawWorkObject</text>
<polyline fill="none" stroke="black" points="94.854,-927 205.146,-927 "/>
<text text-anchor="middle" x="150" y="-915" font-family="Helvetica,sans-Serif" font-size="10.00"> </text>
<polyline fill="none" stroke="black" points="94.854,-909 205.146,-909 "/>
<text text-anchor="middle" x="150" y="-897" font-family="Helvetica,sans-Serif" font-size="10.00"> </text>
</a>
</g>
</g>
<!-- Node5&#45;&gt;Node4 -->
<g id="edge4" class="edge"><title>Node5&#45;&gt;Node4</title>
<path fill="none" stroke="midnightblue" d="M149.792,-880.684C149.744,-872.251 149.691,-862.84 149.634,-853.001"/>
<polygon fill="none" stroke="midnightblue" points="146.293,-880.821 149.85,-890.801 153.293,-880.781 146.293,-880.821"/>
</g>
<!-- Node6 -->
<g id="node6" class="node"><title>Node6</title>
<g id="a_node6"><a xlink:href="classapi_1_1_work_object.html" target="_top" xlink:title="WorkObject Class. ">
<polygon fill="none" stroke="black" points="151.452,-983 151.452,-1117 270.548,-1117 270.548,-983 151.452,-983"/>
<text text-anchor="middle" x="211" y="-1105" font-family="Helvetica,sans-Serif" font-size="10.00">api::WorkObject</text>
<polyline fill="none" stroke="black" points="151.452,-1099 270.548,-1099 "/>
<text text-anchor="middle" x="211" y="-1087" font-family="Helvetica,sans-Serif" font-size="10.00"> </text>
<polyline fill="none" stroke="black" points="151.452,-1081 270.548,-1081 "/>
<text text-anchor="start" x="159.452" y="-1069" font-family="Helvetica,sans-Serif" font-size="10.00">+ WorkObject()</text>
<text text-anchor="start" x="159.452" y="-1059" font-family="Helvetica,sans-Serif" font-size="10.00">+ clear_error_number()</text>
<text text-anchor="start" x="159.452" y="-1049" font-family="Helvetica,sans-Serif" font-size="10.00">+ error_number()</text>
<text text-anchor="start" x="159.452" y="-1039" font-family="Helvetica,sans-Serif" font-size="10.00">+ exit_fatal()</text>
<text text-anchor="start" x="159.452" y="-1029" font-family="Helvetica,sans-Serif" font-size="10.00"># set_error_number()</text>
<text text-anchor="start" x="159.452" y="-1019" font-family="Helvetica,sans-Serif" font-size="10.00"># set_error_number_if</text>
<text text-anchor="start" x="159.452" y="-1009" font-family="Helvetica,sans-Serif" font-size="10.00">_error()</text>
<text text-anchor="start" x="159.452" y="-999" font-family="Helvetica,sans-Serif" font-size="10.00"># set_error_number_to</text>
<text text-anchor="start" x="159.452" y="-989" font-family="Helvetica,sans-Serif" font-size="10.00">_errno()</text>
</a>
</g>
</g>
<!-- Node6&#45;&gt;Node5 -->
<g id="edge5" class="edge"><title>Node6&#45;&gt;Node5</title>
<path fill="none" stroke="midnightblue" d="M175.7,-973.771C170.882,-963.503 166.228,-953.584 162.235,-945.074"/>
<polygon fill="none" stroke="midnightblue" points="172.547,-975.291 179.964,-982.857 178.884,-972.318 172.547,-975.291"/>
</g>
<!-- Node9 -->
<g id="node9" class="node"><title>Node9</title>
<g id="a_node9"><a xlink:href="classapi_1_1_ev_work_object.html" target="_top" xlink:title="Event Object Class. ">
<polygon fill="none" stroke="black" points="224.687,-891 224.687,-945 323.313,-945 323.313,-891 224.687,-891"/>
<text text-anchor="middle" x="274" y="-933" font-family="Helvetica,sans-Serif" font-size="10.00">api::EvWorkObject</text>
<polyline fill="none" stroke="black" points="224.687,-927 323.313,-927 "/>
<text text-anchor="middle" x="274" y="-915" font-family="Helvetica,sans-Serif" font-size="10.00"> </text>
<polyline fill="none" stroke="black" points="224.687,-909 323.313,-909 "/>
<text text-anchor="middle" x="274" y="-897" font-family="Helvetica,sans-Serif" font-size="10.00"> </text>
</a>
</g>
</g>
<!-- Node6&#45;&gt;Node9 -->
<g id="edge9" class="edge"><title>Node6&#45;&gt;Node9</title>
<path fill="none" stroke="midnightblue" d="M247.457,-973.771C252.433,-963.503 257.24,-953.584 261.364,-945.074"/>
<polygon fill="none" stroke="midnightblue" points="244.265,-972.332 243.054,-982.857 250.564,-975.385 244.265,-972.332"/>
</g>
<!-- Node7 -->
<g id="node7" class="node"><title>Node7</title>
<g id="a_node7"><a xlink:href="classapi_1_1_api_object.html" target="_top" xlink:title="API Object Class. ">
<polygon fill="none" stroke="black" points="169.79,-1155 169.79,-1209 252.21,-1209 252.21,-1155 169.79,-1155"/>
<text text-anchor="middle" x="211" y="-1197" font-family="Helvetica,sans-Serif" font-size="10.00">api::ApiObject</text>
<polyline fill="none" stroke="black" points="169.79,-1191 252.21,-1191 "/>
<text text-anchor="middle" x="211" y="-1179" font-family="Helvetica,sans-Serif" font-size="10.00"> </text>
<polyline fill="none" stroke="black" points="169.79,-1173 252.21,-1173 "/>
<text text-anchor="start" x="177.79" y="-1161" font-family="Helvetica,sans-Serif" font-size="10.00">+ api_version()</text>
</a>
</g>
</g>
<!-- Node7&#45;&gt;Node6 -->
<g id="edge6" class="edge"><title>Node7&#45;&gt;Node6</title>
<path fill="none" stroke="midnightblue" d="M211,-1144.64C211,-1136.02 211,-1126.55 211,-1117.06"/>
<polygon fill="none" stroke="midnightblue" points="207.5,-1144.69 211,-1154.69 214.5,-1144.69 207.5,-1144.69"/>
</g>
<!-- Node8 -->
<g id="node8" class="node"><title>Node8</title>
<g id="a_node8"><a xlink:href="classev_1_1_event_handler.html" target="_top" xlink:title="Event Handler Class. ">
<polygon fill="none" stroke="black" points="226.584,-699 226.584,-783 325.416,-783 325.416,-699 226.584,-699"/>
<text text-anchor="middle" x="276" y="-771" font-family="Helvetica,sans-Serif" font-size="10.00">ev::EventHandler</text>
<polyline fill="none" stroke="black" points="226.584,-765 325.416,-765 "/>
<text text-anchor="middle" x="276" y="-753" font-family="Helvetica,sans-Serif" font-size="10.00"> </text>
<polyline fill="none" stroke="black" points="226.584,-747 325.416,-747 "/>
<text text-anchor="start" x="234.584" y="-735" font-family="Helvetica,sans-Serif" font-size="10.00">+ EventHandler()</text>
<text text-anchor="start" x="234.584" y="-725" font-family="Helvetica,sans-Serif" font-size="10.00">+ event_loop()</text>
<text text-anchor="start" x="234.584" y="-715" font-family="Helvetica,sans-Serif" font-size="10.00">+ handle_event()</text>
<text text-anchor="start" x="234.584" y="-705" font-family="Helvetica,sans-Serif" font-size="10.00"># set_event_loop()</text>
</a>
</g>
</g>
<!-- Node8&#45;&gt;Node3 -->
<g id="edge7" class="edge"><title>Node8&#45;&gt;Node3</title>
<path fill="none" stroke="midnightblue" d="M260.869,-689.171C252.135,-659.827 241.052,-622.595 231.649,-591.008"/>
<polygon fill="none" stroke="midnightblue" points="257.528,-690.214 263.736,-698.8 264.237,-688.217 257.528,-690.214"/>
</g>
<!-- Node9&#45;&gt;Node8 -->
<g id="edge8" class="edge"><title>Node9&#45;&gt;Node8</title>
<path fill="none" stroke="midnightblue" d="M274.417,-880.484C274.742,-852.041 275.194,-812.56 275.531,-783.029"/>
<polygon fill="none" stroke="midnightblue" points="270.914,-880.761 274.299,-890.801 277.914,-880.841 270.914,-880.761"/>
</g>
</g>
</svg>
