<?xml version="1.0" encoding="UTF-8" standalone="no"?>
<!DOCTYPE svg PUBLIC "-//W3C//DTD SVG 1.1//EN"
 "http://www.w3.org/Graphics/SVG/1.1/DTD/svg11.dtd">
<!-- Generated by graphviz version 2.36.0 (20140111.2315)
 -->
<!-- Title: var::Queue&lt; T &gt; Pages: 1 -->
<svg width="122pt" height="450pt"
 viewBox="0.00 0.00 122.00 450.00" xmlns="http://www.w3.org/2000/svg" xmlns:xlink="http://www.w3.org/1999/xlink">
<g id="graph0" class="graph" transform="scale(1 1) rotate(0) translate(4 446)">
<title>var::Queue&lt; T &gt;</title>
<!-- Node1 -->
<g id="node1" class="node"><title>Node1</title>
<polygon fill="#bfbfbf" stroke="black" points="12.7671,-163 12.7671,-277 101.233,-277 101.233,-163 12.7671,-163"/>
<text text-anchor="middle" x="57" y="-265" font-family="Helvetica,sans-Serif" font-size="10.00">var::Queue&lt; T &gt;</text>
<polyline fill="none" stroke="black" points="12.7671,-259 101.233,-259 "/>
<text text-anchor="middle" x="57" y="-247" font-family="Helvetica,sans-Serif" font-size="10.00"> </text>
<polyline fill="none" stroke="black" points="12.7671,-241 101.233,-241 "/>
<text text-anchor="start" x="20.7671" y="-229" font-family="Helvetica,sans-Serif" font-size="10.00">+ Queue()</text>
<text text-anchor="start" x="20.7671" y="-219" font-family="Helvetica,sans-Serif" font-size="10.00">+ back()</text>
<text text-anchor="start" x="20.7671" y="-209" font-family="Helvetica,sans-Serif" font-size="10.00">+ back()</text>
<text text-anchor="start" x="20.7671" y="-199" font-family="Helvetica,sans-Serif" font-size="10.00">+ clear()</text>
<text text-anchor="start" x="20.7671" y="-189" font-family="Helvetica,sans-Serif" font-size="10.00">+ count()</text>
<text text-anchor="start" x="20.7671" y="-179" font-family="Helvetica,sans-Serif" font-size="10.00">+ front()</text>
<text text-anchor="start" x="20.7671" y="-169" font-family="Helvetica,sans-Serif" font-size="10.00">and 4 more...</text>
</g>
<!-- Node3 -->
<g id="node3" class="node"><title>Node3</title>
<g id="a_node3"><a xlink:href="classvar_1_1_queue.html" target="_top" xlink:title="{var::Queue\&lt; Test * \&gt;\n||+ Queue()\l+ back()\l+ back()\l+ clear()\l+ count()\l+ front()\land 4 more...\l}">
<polygon fill="none" stroke="black" points="3.22852,-1 3.22852,-115 110.771,-115 110.771,-1 3.22852,-1"/>
<text text-anchor="middle" x="57" y="-103" font-family="Helvetica,sans-Serif" font-size="10.00">var::Queue&lt; Test * &gt;</text>
<polyline fill="none" stroke="black" points="3.22852,-97 110.771,-97 "/>
<text text-anchor="middle" x="57" y="-85" font-family="Helvetica,sans-Serif" font-size="10.00"> </text>
<polyline fill="none" stroke="black" points="3.22852,-79 110.771,-79 "/>
<text text-anchor="start" x="11.2285" y="-67" font-family="Helvetica,sans-Serif" font-size="10.00">+ Queue()</text>
<text text-anchor="start" x="11.2285" y="-57" font-family="Helvetica,sans-Serif" font-size="10.00">+ back()</text>
<text text-anchor="start" x="11.2285" y="-47" font-family="Helvetica,sans-Serif" font-size="10.00">+ back()</text>
<text text-anchor="start" x="11.2285" y="-37" font-family="Helvetica,sans-Serif" font-size="10.00">+ clear()</text>
<text text-anchor="start" x="11.2285" y="-27" font-family="Helvetica,sans-Serif" font-size="10.00">+ count()</text>
<text text-anchor="start" x="11.2285" y="-17" font-family="Helvetica,sans-Serif" font-size="10.00">+ front()</text>
<text text-anchor="start" x="11.2285" y="-7" font-family="Helvetica,sans-Serif" font-size="10.00">and 4 more...</text>
</a>
</g>
</g>
<!-- Node1&#45;&gt;Node3 -->
<g id="edge2" class="edge"><title>Node1&#45;&gt;Node3</title>
<path fill="none" stroke="orange" d="M57,-152.337C57,-139.977 57,-127.179 57,-115.17"/>
<polygon fill="orange" stroke="orange" points="53.5001,-152.59 57,-162.59 60.5001,-152.59 53.5001,-152.59"/>
<text text-anchor="middle" x="79.4243" y="-136" font-family="Helvetica,sans-Serif" font-size="10.00"> &lt; Test * &gt;</text>
</g>
<!-- Node2 -->
<g id="node2" class="node"><title>Node2</title>
<g id="a_node2"><a xlink:href="classapi_1_1_s_object.html" target="_top" xlink:title="SObject Class. ">
<polygon fill="none" stroke="black" points="-0.191895,-317 -0.191895,-441 114.192,-441 114.192,-317 -0.191895,-317"/>
<text text-anchor="middle" x="57" y="-429" font-family="Helvetica,sans-Serif" font-size="10.00">api::SObject</text>
<polyline fill="none" stroke="black" points="-0.191895,-423 114.192,-423 "/>
<text text-anchor="middle" x="57" y="-411" font-family="Helvetica,sans-Serif" font-size="10.00"> </text>
<polyline fill="none" stroke="black" points="-0.191895,-405 114.192,-405 "/>
<text text-anchor="start" x="7.80811" y="-393" font-family="Helvetica,sans-Serif" font-size="10.00">+ SObject()</text>
<text text-anchor="start" x="7.80811" y="-383" font-family="Helvetica,sans-Serif" font-size="10.00">+ api_version()</text>
<text text-anchor="start" x="7.80811" y="-373" font-family="Helvetica,sans-Serif" font-size="10.00">+ clear_error()</text>
<text text-anchor="start" x="7.80811" y="-363" font-family="Helvetica,sans-Serif" font-size="10.00">+ error_number()</text>
<text text-anchor="start" x="7.80811" y="-353" font-family="Helvetica,sans-Serif" font-size="10.00">+ exit_fatal()</text>
<text text-anchor="start" x="7.80811" y="-343" font-family="Helvetica,sans-Serif" font-size="10.00"># set_error_number()</text>
<text text-anchor="start" x="7.80811" y="-333" font-family="Helvetica,sans-Serif" font-size="10.00"># set_error_number_if</text>
<text text-anchor="start" x="7.80811" y="-323" font-family="Helvetica,sans-Serif" font-size="10.00">_error()</text>
</a>
</g>
</g>
<!-- Node2&#45;&gt;Node1 -->
<g id="edge1" class="edge"><title>Node2&#45;&gt;Node1</title>
<path fill="none" stroke="midnightblue" d="M57,-306.62C57,-296.724 57,-286.676 57,-277.113"/>
<polygon fill="none" stroke="midnightblue" points="53.5001,-306.85 57,-316.85 60.5001,-306.85 53.5001,-306.85"/>
</g>
</g>
</svg>
