<?xml version="1.0" encoding="UTF-8" standalone="no"?>
<!DOCTYPE svg PUBLIC "-//W3C//DTD SVG 1.1//EN"
 "http://www.w3.org/Graphics/SVG/1.1/DTD/svg11.dtd">
<!-- Generated by graphviz version 2.36.0 (20140111.2315)
 -->
<!-- Title: sgfx::SvgFont Pages: 1 -->
<!--zoomable 834 -->
<svg id="main" version="1.1" xmlns="http://www.w3.org/2000/svg" xmlns:xlink="http://www.w3.org/1999/xlink" xml:space="preserve" onload="init(evt)">
<style type="text/css"><![CDATA[
.edge:hover path { stroke: red; }
.edge:hover polygon { stroke: red; fill: red; }
]]></style>
<script type="text/javascript"><![CDATA[
var edges = document.getElementsByTagName('g');
if (edges && edges.length) {
  for (var i=0;i<edges.length;i++) {
    if (edges[i].id.substr(0,4)=='edge') {
      edges[i].setAttribute('class','edge');
    }
  }
}
]]></script>
        <defs>
                <circle id="rim" cx="0" cy="0" r="7"/>
                <circle id="rim2" cx="0" cy="0" r="3.5"/>
                <g id="zoomPlus">
                        <use xlink:href="#rim" fill="#404040">
                                <set attributeName="fill" to="#808080" begin="zoomplus.mouseover" end="zoomplus.mouseout"/>
                        </use>
                        <path d="M-4,0h8M0,-4v8" fill="none" stroke="white" stroke-width="1.5" pointer-events="none"/>
                </g>
                <g id="zoomMin">
                        <use xlink:href="#rim" fill="#404040">
                                <set attributeName="fill" to="#808080" begin="zoomminus.mouseover" end="zoomminus.mouseout"/>
                        </use>
                        <path d="M-4,0h8" fill="none" stroke="white" stroke-width="1.5" pointer-events="none"/>
                </g>
                <g id="dirArrow">
                        <path fill="none" stroke="white" stroke-width="1.5" d="M0,-3.0v7 M-2.5,-0.5L0,-3.0L2.5,-0.5"/>
                </g>
               <g id="resetDef">
                       <use xlink:href="#rim2" fill="#404040">
                               <set attributeName="fill" to="#808080" begin="reset.mouseover" end="reset.mouseout"/>
                       </use>
               </g>
        </defs>

<script type="text/javascript">
var viewWidth = 136;
var viewHeight = 834;
var sectionId = 'dynsection-0';
</script>
<script xlink:href="svgpan.js"/>
<svg id="graph" class="graph">
<g id="viewport">
<title>sgfx::SvgFont</title>
<!-- Node1 -->
<g id="node1" class="node"><title>Node1</title>
<polygon fill="#bfbfbf" stroke="black" points="25.0063,-133 25.0063,-227 102.994,-227 102.994,-133 25.0063,-133"/>
<text text-anchor="middle" x="64" y="-215" font-family="Helvetica,sans-Serif" font-size="10.00">sgfx::SvgFont</text>
<polyline fill="none" stroke="black" points="25.0063,-209 102.994,-209 "/>
<text text-anchor="middle" x="64" y="-197" font-family="Helvetica,sans-Serif" font-size="10.00"> </text>
<polyline fill="none" stroke="black" points="25.0063,-191 102.994,-191 "/>
<text text-anchor="start" x="33.0063" y="-179" font-family="Helvetica,sans-Serif" font-size="10.00">+ SvgFont()</text>
<text text-anchor="start" x="33.0063" y="-169" font-family="Helvetica,sans-Serif" font-size="10.00">+ ~SvgFont()</text>
<text text-anchor="start" x="33.0063" y="-159" font-family="Helvetica,sans-Serif" font-size="10.00">+ get_height()</text>
<text text-anchor="start" x="33.0063" y="-149" font-family="Helvetica,sans-Serif" font-size="10.00">+ get_width()</text>
<text text-anchor="start" x="33.0063" y="-139" font-family="Helvetica,sans-Serif" font-size="10.00">+ set_height()</text>
</g>
<!-- Node6 -->
<g id="node6" class="node"><title>Node6</title>
<g id="a_node6"><a xlink:href="classsgfx_1_1_svg_memory_font.html" target="_top" xlink:title="Stratify Vector Graphics Memory Font. ">
<polygon fill="none" stroke="black" points="-0.975098,-1 -0.975098,-95 128.975,-95 128.975,-1 -0.975098,-1"/>
<text text-anchor="middle" x="64" y="-83" font-family="Helvetica,sans-Serif" font-size="10.00">sgfx::SvgMemoryFont</text>
<polyline fill="none" stroke="black" points="-0.975098,-77 128.975,-77 "/>
<text text-anchor="middle" x="64" y="-65" font-family="Helvetica,sans-Serif" font-size="10.00"> </text>
<polyline fill="none" stroke="black" points="-0.975098,-59 128.975,-59 "/>
<text text-anchor="start" x="7.0249" y="-47" font-family="Helvetica,sans-Serif" font-size="10.00">+ SvgMemoryFont()</text>
<text text-anchor="start" x="7.0249" y="-37" font-family="Helvetica,sans-Serif" font-size="10.00">+ ~SvgMemoryFont()</text>
<text text-anchor="start" x="7.0249" y="-27" font-family="Helvetica,sans-Serif" font-size="10.00"># draw_char_on_bitmap()</text>
<text text-anchor="start" x="7.0249" y="-17" font-family="Helvetica,sans-Serif" font-size="10.00"># load_char()</text>
<text text-anchor="start" x="7.0249" y="-7" font-family="Helvetica,sans-Serif" font-size="10.00"># load_kerning()</text>
</a>
</g>
</g>
<!-- Node1&#45;&gt;Node6 -->
<g id="edge5" class="edge"><title>Node1&#45;&gt;Node6</title>
<path fill="none" stroke="midnightblue" d="M64,-122.564C64,-113.375 64,-103.953 64,-95.0504"/>
<polygon fill="none" stroke="midnightblue" points="60.5001,-122.801 64,-132.801 67.5001,-122.801 60.5001,-122.801"/>
</g>
<!-- Node2 -->
<g id="node2" class="node"><title>Node2</title>
<g id="a_node2"><a xlink:href="classsgfx_1_1_font.html" target="_top" xlink:title="Font class. ">
<polygon fill="none" stroke="black" points="-0.975098,-265 -0.975098,-469 128.975,-469 128.975,-265 -0.975098,-265"/>
<text text-anchor="middle" x="64" y="-457" font-family="Helvetica,sans-Serif" font-size="10.00">sgfx::Font</text>
<polyline fill="none" stroke="black" points="-0.975098,-451 128.975,-451 "/>
<text text-anchor="start" x="7.0249" y="-439" font-family="Helvetica,sans-Serif" font-size="10.00"># m_char</text>
<text text-anchor="start" x="7.0249" y="-429" font-family="Helvetica,sans-Serif" font-size="10.00"># m_hdr</text>
<text text-anchor="start" x="7.0249" y="-419" font-family="Helvetica,sans-Serif" font-size="10.00"># m_letter_spacing</text>
<text text-anchor="start" x="7.0249" y="-409" font-family="Helvetica,sans-Serif" font-size="10.00"># m_offset</text>
<text text-anchor="start" x="7.0249" y="-399" font-family="Helvetica,sans-Serif" font-size="10.00"># m_space_size</text>
<polyline fill="none" stroke="black" points="-0.975098,-393 128.975,-393 "/>
<text text-anchor="start" x="7.0249" y="-381" font-family="Helvetica,sans-Serif" font-size="10.00">+ Font()</text>
<text text-anchor="start" x="7.0249" y="-371" font-family="Helvetica,sans-Serif" font-size="10.00">+ bits_per_pixel()</text>
<text text-anchor="start" x="7.0249" y="-361" font-family="Helvetica,sans-Serif" font-size="10.00">+ calc_len()</text>
<text text-anchor="start" x="7.0249" y="-351" font-family="Helvetica,sans-Serif" font-size="10.00">+ character()</text>
<text text-anchor="start" x="7.0249" y="-341" font-family="Helvetica,sans-Serif" font-size="10.00">+ draw_char()</text>
<text text-anchor="start" x="7.0249" y="-331" font-family="Helvetica,sans-Serif" font-size="10.00">+ draw_str()</text>
<text text-anchor="start" x="7.0249" y="-321" font-family="Helvetica,sans-Serif" font-size="10.00">and 11 more...</text>
<text text-anchor="start" x="7.0249" y="-311" font-family="Helvetica,sans-Serif" font-size="10.00">+ charset()</text>
<text text-anchor="start" x="7.0249" y="-301" font-family="Helvetica,sans-Serif" font-size="10.00"># draw_char_on_bitmap()</text>
<text text-anchor="start" x="7.0249" y="-291" font-family="Helvetica,sans-Serif" font-size="10.00"># load_char()</text>
<text text-anchor="start" x="7.0249" y="-281" font-family="Helvetica,sans-Serif" font-size="10.00"># load_kerning()</text>
<text text-anchor="start" x="7.0249" y="-271" font-family="Helvetica,sans-Serif" font-size="10.00"># to_charset()</text>
</a>
</g>
</g>
<!-- Node2&#45;&gt;Node1 -->
<g id="edge1" class="edge"><title>Node2&#45;&gt;Node1</title>
<path fill="none" stroke="midnightblue" d="M64,-254.727C64,-245.104 64,-235.763 64,-227.147"/>
<polygon fill="none" stroke="midnightblue" points="60.5001,-254.839 64,-264.839 67.5001,-254.839 60.5001,-254.839"/>
</g>
<!-- Node3 -->
<g id="node3" class="node"><title>Node3</title>
<g id="a_node3"><a xlink:href="classapi_1_1_sgfx_work_object.html" target="_top" xlink:title="Sgfx Object Class. ">
<polygon fill="none" stroke="black" points="10.5166,-507 10.5166,-561 117.483,-561 117.483,-507 10.5166,-507"/>
<text text-anchor="middle" x="64" y="-549" font-family="Helvetica,sans-Serif" font-size="10.00">api::SgfxWorkObject</text>
<polyline fill="none" stroke="black" points="10.5166,-543 117.483,-543 "/>
<text text-anchor="middle" x="64" y="-531" font-family="Helvetica,sans-Serif" font-size="10.00"> </text>
<polyline fill="none" stroke="black" points="10.5166,-525 117.483,-525 "/>
<text text-anchor="middle" x="64" y="-513" font-family="Helvetica,sans-Serif" font-size="10.00"> </text>
</a>
</g>
</g>
<!-- Node3&#45;&gt;Node2 -->
<g id="edge2" class="edge"><title>Node3&#45;&gt;Node2</title>
<path fill="none" stroke="midnightblue" d="M64,-496.706C64,-488.256 64,-478.851 64,-469.079"/>
<polygon fill="none" stroke="midnightblue" points="60.5001,-496.855 64,-506.855 67.5001,-496.855 60.5001,-496.855"/>
</g>
<!-- Node4 -->
<g id="node4" class="node"><title>Node4</title>
<g id="a_node4"><a xlink:href="classapi_1_1_work_object.html" target="_top" xlink:title="WorkObject Class. ">
<polygon fill="none" stroke="black" points="4.45215,-599 4.45215,-733 123.548,-733 123.548,-599 4.45215,-599"/>
<text text-anchor="middle" x="64" y="-721" font-family="Helvetica,sans-Serif" font-size="10.00">api::WorkObject</text>
<polyline fill="none" stroke="black" points="4.45215,-715 123.548,-715 "/>
<text text-anchor="middle" x="64" y="-703" font-family="Helvetica,sans-Serif" font-size="10.00"> </text>
<polyline fill="none" stroke="black" points="4.45215,-697 123.548,-697 "/>
<text text-anchor="start" x="12.4521" y="-685" font-family="Helvetica,sans-Serif" font-size="10.00">+ WorkObject()</text>
<text text-anchor="start" x="12.4521" y="-675" font-family="Helvetica,sans-Serif" font-size="10.00">+ clear_error_number()</text>
<text text-anchor="start" x="12.4521" y="-665" font-family="Helvetica,sans-Serif" font-size="10.00">+ error_number()</text>
<text text-anchor="start" x="12.4521" y="-655" font-family="Helvetica,sans-Serif" font-size="10.00">+ exit_fatal()</text>
<text text-anchor="start" x="12.4521" y="-645" font-family="Helvetica,sans-Serif" font-size="10.00"># set_error_number()</text>
<text text-anchor="start" x="12.4521" y="-635" font-family="Helvetica,sans-Serif" font-size="10.00"># set_error_number_if</text>
<text text-anchor="start" x="12.4521" y="-625" font-family="Helvetica,sans-Serif" font-size="10.00">_error()</text>
<text text-anchor="start" x="12.4521" y="-615" font-family="Helvetica,sans-Serif" font-size="10.00"># set_error_number_to</text>
<text text-anchor="start" x="12.4521" y="-605" font-family="Helvetica,sans-Serif" font-size="10.00">_errno()</text>
</a>
</g>
</g>
<!-- Node4&#45;&gt;Node3 -->
<g id="edge3" class="edge"><title>Node4&#45;&gt;Node3</title>
<path fill="none" stroke="midnightblue" d="M64,-588.838C64,-578.903 64,-569.326 64,-561.074"/>
<polygon fill="none" stroke="midnightblue" points="60.5001,-588.857 64,-598.857 67.5001,-588.858 60.5001,-588.857"/>
</g>
<!-- Node5 -->
<g id="node5" class="node"><title>Node5</title>
<g id="a_node5"><a xlink:href="classapi_1_1_api_object.html" target="_top" xlink:title="API Object Class. ">
<polygon fill="none" stroke="black" points="22.7896,-771 22.7896,-825 105.21,-825 105.21,-771 22.7896,-771"/>
<text text-anchor="middle" x="64" y="-813" font-family="Helvetica,sans-Serif" font-size="10.00">api::ApiObject</text>
<polyline fill="none" stroke="black" points="22.7896,-807 105.21,-807 "/>
<text text-anchor="middle" x="64" y="-795" font-family="Helvetica,sans-Serif" font-size="10.00"> </text>
<polyline fill="none" stroke="black" points="22.7896,-789 105.21,-789 "/>
<text text-anchor="start" x="30.7896" y="-777" font-family="Helvetica,sans-Serif" font-size="10.00">+ api_version()</text>
</a>
</g>
</g>
<!-- Node5&#45;&gt;Node4 -->
<g id="edge4" class="edge"><title>Node5&#45;&gt;Node4</title>
<path fill="none" stroke="midnightblue" d="M64,-760.644C64,-752.02 64,-742.555 64,-733.059"/>
<polygon fill="none" stroke="midnightblue" points="60.5001,-760.693 64,-770.693 67.5001,-760.693 60.5001,-760.693"/>
</g>
</g>
</svg>
        <g id="navigator" transform="translate(0 0)" fill="#404254">
                <rect fill="#f2f5e9" fill-opacity="0.5" stroke="#606060" stroke-width=".5" x="0" y="0" width="60" height="60"/>
                <use id="zoomplus" xlink:href="#zoomPlus" x="17" y="9" onmousedown="handleZoom(evt,'in')"/>
                <use id="zoomminus" xlink:href="#zoomMin" x="42" y="9" onmousedown="handleZoom(evt,'out')"/>
                <use id="reset" xlink:href="#resetDef" x="30" y="36" onmousedown="handleReset()"/>
                <g id="arrowUp" xlink:href="#dirArrow" transform="translate(30 24)" onmousedown="handlePan(0,-1)">
                  <use xlink:href="#rim" fill="#404040">
                        <set attributeName="fill" to="#808080" begin="arrowUp.mouseover" end="arrowUp.mouseout"/>
                  </use>
                  <path fill="none" stroke="white" stroke-width="1.5" d="M0,-3.0v7 M-2.5,-0.5L0,-3.0L2.5,-0.5"/>
                </g>
                <g id="arrowRight" xlink:href="#dirArrow" transform="rotate(90) translate(36 -43)" onmousedown="handlePan(1,0)">
                  <use xlink:href="#rim" fill="#404040">
                        <set attributeName="fill" to="#808080" begin="arrowRight.mouseover" end="arrowRight.mouseout"/>
                  </use>
                  <path fill="none" stroke="white" stroke-width="1.5" d="M0,-3.0v7 M-2.5,-0.5L0,-3.0L2.5,-0.5"/>
                </g>
                <g id="arrowDown" xlink:href="#dirArrow" transform="rotate(180) translate(-30 -48)" onmousedown="handlePan(0,1)">
                  <use xlink:href="#rim" fill="#404040">
                        <set attributeName="fill" to="#808080" begin="arrowDown.mouseover" end="arrowDown.mouseout"/>
                  </use>
                  <path fill="none" stroke="white" stroke-width="1.5" d="M0,-3.0v7 M-2.5,-0.5L0,-3.0L2.5,-0.5"/>
                </g>
                <g id="arrowLeft" xlink:href="#dirArrow" transform="rotate(270) translate(-36 17)" onmousedown="handlePan(-1,0)">
                  <use xlink:href="#rim" fill="#404040">
                        <set attributeName="fill" to="#808080" begin="arrowLeft.mouseover" end="arrowLeft.mouseout"/>
                  </use>
                  <path fill="none" stroke="white" stroke-width="1.5" d="M0,-3.0v7 M-2.5,-0.5L0,-3.0L2.5,-0.5"/>
                </g>
        </g>
        <svg viewBox="0 0 15 15" width="100%" height="30px" preserveAspectRatio="xMaxYMin meet">
         <g id="arrow_out" transform="scale(0.3 0.3)">
          <a xlink:href="classsgfx_1_1_svg_font__inherit__graph_org.svg" target="_base">
           <rect id="button" ry="5" rx="5" y="6" x="6" height="38" width="38"
                fill="#f2f5e9" fill-opacity="0.5" stroke="#606060" stroke-width="1.0"/>
           <path id="arrow"
             d="M 11.500037,31.436501 C 11.940474,20.09759 22.043105,11.32322 32.158766,21.979434 L 37.068811,17.246167 C 37.068811,17.246167 37.088388,32 37.088388,32 L 22.160133,31.978069 C 22.160133,31.978069 26.997745,27.140456 26.997745,27.140456 C 18.528582,18.264221 13.291696,25.230495 11.500037,31.436501 z"
             style="fill:#404040;"/>
          </a>
         </g>
        </svg>
</svg>
