<?xml version="1.0" encoding="UTF-8" standalone="no"?>
<!DOCTYPE svg PUBLIC "-//W3C//DTD SVG 1.1//EN"
 "http://www.w3.org/Graphics/SVG/1.1/DTD/svg11.dtd">
<!-- Generated by graphviz version 2.36.0 (20140111.2315)
 -->
<!-- Title: hal::UartPinAssignment Pages: 1 -->
<svg width="226pt" height="722pt"
 viewBox="0.00 0.00 226.19 722.00" xmlns="http://www.w3.org/2000/svg" xmlns:xlink="http://www.w3.org/1999/xlink">
<g id="graph0" class="graph" transform="scale(1 1) rotate(0) translate(4 718)">
<title>hal::UartPinAssignment</title>
<!-- Node1 -->
<g id="node1" class="node"><title>Node1</title>
<polygon fill="#bfbfbf" stroke="black" points="6.75391,-1 6.75391,-55 127.246,-55 127.246,-1 6.75391,-1"/>
<text text-anchor="middle" x="67" y="-43" font-family="Helvetica,sans-Serif" font-size="10.00">hal::UartPinAssignment</text>
<polyline fill="none" stroke="black" points="6.75391,-37 127.246,-37 "/>
<text text-anchor="middle" x="67" y="-25" font-family="Helvetica,sans-Serif" font-size="10.00"> </text>
<polyline fill="none" stroke="black" points="6.75391,-19 127.246,-19 "/>
<text text-anchor="middle" x="67" y="-7" font-family="Helvetica,sans-Serif" font-size="10.00"> </text>
</g>
<!-- Node2 -->
<g id="node2" class="node"><title>Node2</title>
<g id="a_node2"><a xlink:href="classhal_1_1_pin_assignment.html" target="_top" xlink:title="{hal::PinAssignment\l\&lt; uart_pin_assignment_t \&gt;\n||+ PinAssignment()\l+ assign()\l+ clear()\l+ copy()\l+ count()\l+ operator const uart\l_pin_assignment_t *()\l+ operator&#45;\&gt;()\l+ size()\l}">
<polygon fill="none" stroke="black" points="-0.206543,-95 -0.206543,-239 134.207,-239 134.207,-95 -0.206543,-95"/>
<text text-anchor="start" x="7.79346" y="-227" font-family="Helvetica,sans-Serif" font-size="10.00">hal::PinAssignment</text>
<text text-anchor="middle" x="67" y="-217" font-family="Helvetica,sans-Serif" font-size="10.00">&lt; uart_pin_assignment_t &gt;</text>
<polyline fill="none" stroke="black" points="-0.206543,-211 134.207,-211 "/>
<text text-anchor="middle" x="67" y="-199" font-family="Helvetica,sans-Serif" font-size="10.00"> </text>
<polyline fill="none" stroke="black" points="-0.206543,-193 134.207,-193 "/>
<text text-anchor="start" x="7.79346" y="-181" font-family="Helvetica,sans-Serif" font-size="10.00">+ PinAssignment()</text>
<text text-anchor="start" x="7.79346" y="-171" font-family="Helvetica,sans-Serif" font-size="10.00">+ assign()</text>
<text text-anchor="start" x="7.79346" y="-161" font-family="Helvetica,sans-Serif" font-size="10.00">+ clear()</text>
<text text-anchor="start" x="7.79346" y="-151" font-family="Helvetica,sans-Serif" font-size="10.00">+ copy()</text>
<text text-anchor="start" x="7.79346" y="-141" font-family="Helvetica,sans-Serif" font-size="10.00">+ count()</text>
<text text-anchor="start" x="7.79346" y="-131" font-family="Helvetica,sans-Serif" font-size="10.00">+ operator const uart</text>
<text text-anchor="start" x="7.79346" y="-121" font-family="Helvetica,sans-Serif" font-size="10.00">_pin_assignment_t *()</text>
<text text-anchor="start" x="7.79346" y="-111" font-family="Helvetica,sans-Serif" font-size="10.00">+ operator&#45;&gt;()</text>
<text text-anchor="start" x="7.79346" y="-101" font-family="Helvetica,sans-Serif" font-size="10.00">+ size()</text>
</a>
</g>
</g>
<!-- Node2&#45;&gt;Node1 -->
<g id="edge1" class="edge"><title>Node2&#45;&gt;Node1</title>
<path fill="none" stroke="midnightblue" d="M67,-84.4559C67,-73.882 67,-63.7388 67,-55.0848"/>
<polygon fill="none" stroke="midnightblue" points="63.5001,-84.6911 67,-94.6911 70.5001,-84.6912 63.5001,-84.6911"/>
</g>
<!-- Node3 -->
<g id="node3" class="node"><title>Node3</title>
<g id="a_node3"><a xlink:href="classapi_1_1_hal_info_object.html" target="_top" xlink:title="Hal Info Object. ">
<polygon fill="none" stroke="black" points="0.256348,-471 0.256348,-525 95.7437,-525 95.7437,-471 0.256348,-471"/>
<text text-anchor="middle" x="48" y="-513" font-family="Helvetica,sans-Serif" font-size="10.00">api::HalInfoObject</text>
<polyline fill="none" stroke="black" points="0.256348,-507 95.7437,-507 "/>
<text text-anchor="middle" x="48" y="-495" font-family="Helvetica,sans-Serif" font-size="10.00"> </text>
<polyline fill="none" stroke="black" points="0.256348,-489 95.7437,-489 "/>
<text text-anchor="middle" x="48" y="-477" font-family="Helvetica,sans-Serif" font-size="10.00"> </text>
</a>
</g>
</g>
<!-- Node3&#45;&gt;Node2 -->
<g id="edge2" class="edge"><title>Node3&#45;&gt;Node2</title>
<path fill="none" stroke="midnightblue" d="M48.4486,-460.958C49.1449,-418.921 50.8673,-347.356 55,-286 56.0241,-270.797 57.4588,-254.523 58.9811,-239.068"/>
<polygon fill="none" stroke="midnightblue" points="44.9486,-460.931 48.2928,-470.985 51.9478,-461.04 44.9486,-460.931"/>
</g>
<!-- Node6 -->
<g id="node6" class="node"><title>Node6</title>
<g id="a_node6"><a xlink:href="classhal_1_1_pin_assignment.html" target="_top" xlink:title="Pin Assignment Class. ">
<polygon fill="none" stroke="black" points="64.1284,-287 64.1284,-431 191.872,-431 191.872,-287 64.1284,-287"/>
<text text-anchor="start" x="72.1284" y="-419" font-family="Helvetica,sans-Serif" font-size="10.00">hal::PinAssignment</text>
<text text-anchor="middle" x="128" y="-409" font-family="Helvetica,sans-Serif" font-size="10.00">&lt; pin_assignment_type &gt;</text>
<polyline fill="none" stroke="black" points="64.1284,-403 191.872,-403 "/>
<text text-anchor="middle" x="128" y="-391" font-family="Helvetica,sans-Serif" font-size="10.00"> </text>
<polyline fill="none" stroke="black" points="64.1284,-385 191.872,-385 "/>
<text text-anchor="start" x="72.1284" y="-373" font-family="Helvetica,sans-Serif" font-size="10.00">+ PinAssignment()</text>
<text text-anchor="start" x="72.1284" y="-363" font-family="Helvetica,sans-Serif" font-size="10.00">+ assign()</text>
<text text-anchor="start" x="72.1284" y="-353" font-family="Helvetica,sans-Serif" font-size="10.00">+ clear()</text>
<text text-anchor="start" x="72.1284" y="-343" font-family="Helvetica,sans-Serif" font-size="10.00">+ copy()</text>
<text text-anchor="start" x="72.1284" y="-333" font-family="Helvetica,sans-Serif" font-size="10.00">+ count()</text>
<text text-anchor="start" x="72.1284" y="-323" font-family="Helvetica,sans-Serif" font-size="10.00">+ operator const pin</text>
<text text-anchor="start" x="72.1284" y="-313" font-family="Helvetica,sans-Serif" font-size="10.00">_assignment_type *()</text>
<text text-anchor="start" x="72.1284" y="-303" font-family="Helvetica,sans-Serif" font-size="10.00">+ operator&#45;&gt;()</text>
<text text-anchor="start" x="72.1284" y="-293" font-family="Helvetica,sans-Serif" font-size="10.00">+ size()</text>
</a>
</g>
</g>
<!-- Node3&#45;&gt;Node6 -->
<g id="edge6" class="edge"><title>Node3&#45;&gt;Node6</title>
<path fill="none" stroke="midnightblue" d="M68.3597,-462.134C73.9425,-452.573 80.2042,-441.85 86.5153,-431.043"/>
<polygon fill="none" stroke="midnightblue" points="65.2559,-460.508 63.2357,-470.909 71.3008,-464.038 65.2559,-460.508"/>
</g>
<!-- Node4 -->
<g id="node4" class="node"><title>Node4</title>
<g id="a_node4"><a xlink:href="classapi_1_1_info_object.html" target="_top" xlink:title="API Information Object. ">
<polygon fill="none" stroke="black" points="7.75879,-565 7.75879,-619 88.2412,-619 88.2412,-565 7.75879,-565"/>
<text text-anchor="middle" x="48" y="-607" font-family="Helvetica,sans-Serif" font-size="10.00">api::InfoObject</text>
<polyline fill="none" stroke="black" points="7.75879,-601 88.2412,-601 "/>
<text text-anchor="middle" x="48" y="-589" font-family="Helvetica,sans-Serif" font-size="10.00"> </text>
<polyline fill="none" stroke="black" points="7.75879,-583 88.2412,-583 "/>
<text text-anchor="middle" x="48" y="-571" font-family="Helvetica,sans-Serif" font-size="10.00"> </text>
</a>
</g>
</g>
<!-- Node4&#45;&gt;Node3 -->
<g id="edge3" class="edge"><title>Node4&#45;&gt;Node3</title>
<path fill="none" stroke="midnightblue" d="M48,-554.872C48,-544.964 48,-534.415 48,-525.183"/>
<polygon fill="none" stroke="midnightblue" points="44.5001,-554.883 48,-564.883 51.5001,-554.883 44.5001,-554.883"/>
</g>
<!-- Node5 -->
<g id="node5" class="node"><title>Node5</title>
<g id="a_node5"><a xlink:href="classapi_1_1_api_object.html" target="_top" xlink:title="API Object Class. ">
<polygon fill="none" stroke="black" points="6.78955,-659 6.78955,-713 89.2104,-713 89.2104,-659 6.78955,-659"/>
<text text-anchor="middle" x="48" y="-701" font-family="Helvetica,sans-Serif" font-size="10.00">api::ApiObject</text>
<polyline fill="none" stroke="black" points="6.78955,-695 89.2104,-695 "/>
<text text-anchor="middle" x="48" y="-683" font-family="Helvetica,sans-Serif" font-size="10.00"> </text>
<polyline fill="none" stroke="black" points="6.78955,-677 89.2104,-677 "/>
<text text-anchor="start" x="14.7896" y="-665" font-family="Helvetica,sans-Serif" font-size="10.00">+ api_version()</text>
</a>
</g>
</g>
<!-- Node5&#45;&gt;Node4 -->
<g id="edge4" class="edge"><title>Node5&#45;&gt;Node4</title>
<path fill="none" stroke="midnightblue" d="M48,-648.872C48,-638.964 48,-628.415 48,-619.183"/>
<polygon fill="none" stroke="midnightblue" points="44.5001,-648.883 48,-658.883 51.5001,-648.883 44.5001,-648.883"/>
</g>
<!-- Node6&#45;&gt;Node2 -->
<g id="edge5" class="edge"><title>Node6&#45;&gt;Node2</title>
<path fill="none" stroke="orange" d="M102.115,-277.376C98.0478,-264.706 93.8681,-251.688 89.8748,-239.249"/>
<polygon fill="orange" stroke="orange" points="98.8097,-278.529 105.199,-286.981 105.475,-276.39 98.8097,-278.529"/>
<text text-anchor="middle" x="157.596" y="-260" font-family="Helvetica,sans-Serif" font-size="10.00"> &lt; uart_pin_assignment_t &gt;</text>
</g>
</g>
</svg>
