<?xml version="1.0" encoding="UTF-8" standalone="no"?>
<!DOCTYPE svg PUBLIC "-//W3C//DTD SVG 1.1//EN"
 "http://www.w3.org/Graphics/SVG/1.1/DTD/svg11.dtd">
<!-- Generated by graphviz version 2.36.0 (20140111.2315)
 -->
<!-- Title: sm::State Pages: 1 -->
<svg width="126pt" height="592pt"
 viewBox="0.00 0.00 126.00 592.00" xmlns="http://www.w3.org/2000/svg" xmlns:xlink="http://www.w3.org/1999/xlink">
<g id="graph0" class="graph" transform="scale(1 1) rotate(0) translate(4 588)">
<title>sm::State</title>
<!-- Node1 -->
<g id="node1" class="node"><title>Node1</title>
<polygon fill="#bfbfbf" stroke="black" points="1.66162,-1 1.66162,-105 116.338,-105 116.338,-1 1.66162,-1"/>
<text text-anchor="middle" x="59" y="-93" font-family="Helvetica,sans-Serif" font-size="10.00">sm::State</text>
<polyline fill="none" stroke="black" points="1.66162,-87 116.338,-87 "/>
<text text-anchor="middle" x="59" y="-75" font-family="Helvetica,sans-Serif" font-size="10.00"> </text>
<polyline fill="none" stroke="black" points="1.66162,-69 116.338,-69 "/>
<text text-anchor="start" x="9.66162" y="-57" font-family="Helvetica,sans-Serif" font-size="10.00">+ State()</text>
<text text-anchor="start" x="9.66162" y="-47" font-family="Helvetica,sans-Serif" font-size="10.00">+ add_action()</text>
<text text-anchor="start" x="9.66162" y="-37" font-family="Helvetica,sans-Serif" font-size="10.00">+ add_entry_action()</text>
<text text-anchor="start" x="9.66162" y="-27" font-family="Helvetica,sans-Serif" font-size="10.00">+ add_exit_action()</text>
<text text-anchor="start" x="9.66162" y="-17" font-family="Helvetica,sans-Serif" font-size="10.00">+ add_exit_condition()</text>
<text text-anchor="start" x="9.66162" y="-7" font-family="Helvetica,sans-Serif" font-size="10.00">+ type()</text>
</g>
<!-- Node2 -->
<g id="node2" class="node"><title>Node2</title>
<g id="a_node2"><a xlink:href="classsm_1_1_object.html" target="_top" xlink:title="State Machine Object. ">
<polygon fill="none" stroke="black" points="10.8413,-143 10.8413,-227 107.159,-227 107.159,-143 10.8413,-143"/>
<text text-anchor="middle" x="59" y="-215" font-family="Helvetica,sans-Serif" font-size="10.00">sm::Object</text>
<polyline fill="none" stroke="black" points="10.8413,-209 107.159,-209 "/>
<text text-anchor="middle" x="59" y="-197" font-family="Helvetica,sans-Serif" font-size="10.00"> </text>
<polyline fill="none" stroke="black" points="10.8413,-191 107.159,-191 "/>
<text text-anchor="start" x="18.8413" y="-179" font-family="Helvetica,sans-Serif" font-size="10.00">+ Object()</text>
<text text-anchor="start" x="18.8413" y="-169" font-family="Helvetica,sans-Serif" font-size="10.00">+ name()</text>
<text text-anchor="start" x="18.8413" y="-159" font-family="Helvetica,sans-Serif" font-size="10.00">+ state_machine()</text>
<text text-anchor="start" x="18.8413" y="-149" font-family="Helvetica,sans-Serif" font-size="10.00">+ type()</text>
</a>
</g>
</g>
<!-- Node2&#45;&gt;Node1 -->
<g id="edge1" class="edge"><title>Node2&#45;&gt;Node1</title>
<path fill="none" stroke="midnightblue" d="M59,-132.865C59,-123.831 59,-114.421 59,-105.379"/>
<polygon fill="none" stroke="midnightblue" points="55.5001,-132.867 59,-142.867 62.5001,-132.867 55.5001,-132.867"/>
</g>
<!-- Node3 -->
<g id="node3" class="node"><title>Node3</title>
<g id="a_node3"><a xlink:href="classapi_1_1_sm_work_object.html" target="_top" xlink:title="State Machine Work Object Class. ">
<polygon fill="none" stroke="black" points="8.02148,-265 8.02148,-319 109.979,-319 109.979,-265 8.02148,-265"/>
<text text-anchor="middle" x="59" y="-307" font-family="Helvetica,sans-Serif" font-size="10.00">api::SmWorkObject</text>
<polyline fill="none" stroke="black" points="8.02148,-301 109.979,-301 "/>
<text text-anchor="middle" x="59" y="-289" font-family="Helvetica,sans-Serif" font-size="10.00"> </text>
<polyline fill="none" stroke="black" points="8.02148,-283 109.979,-283 "/>
<text text-anchor="middle" x="59" y="-271" font-family="Helvetica,sans-Serif" font-size="10.00"> </text>
</a>
</g>
</g>
<!-- Node3&#45;&gt;Node2 -->
<g id="edge2" class="edge"><title>Node3&#45;&gt;Node2</title>
<path fill="none" stroke="midnightblue" d="M59,-254.503C59,-245.755 59,-236.351 59,-227.399"/>
<polygon fill="none" stroke="midnightblue" points="55.5001,-254.775 59,-264.775 62.5001,-254.775 55.5001,-254.775"/>
</g>
<!-- Node4 -->
<g id="node4" class="node"><title>Node4</title>
<g id="a_node4"><a xlink:href="classapi_1_1_work_object.html" target="_top" xlink:title="WorkObject Class. ">
<polygon fill="none" stroke="black" points="-0.547852,-357 -0.547852,-491 118.548,-491 118.548,-357 -0.547852,-357"/>
<text text-anchor="middle" x="59" y="-479" font-family="Helvetica,sans-Serif" font-size="10.00">api::WorkObject</text>
<polyline fill="none" stroke="black" points="-0.547852,-473 118.548,-473 "/>
<text text-anchor="middle" x="59" y="-461" font-family="Helvetica,sans-Serif" font-size="10.00"> </text>
<polyline fill="none" stroke="black" points="-0.547852,-455 118.548,-455 "/>
<text text-anchor="start" x="7.45215" y="-443" font-family="Helvetica,sans-Serif" font-size="10.00">+ WorkObject()</text>
<text text-anchor="start" x="7.45215" y="-433" font-family="Helvetica,sans-Serif" font-size="10.00">+ clear_error_number()</text>
<text text-anchor="start" x="7.45215" y="-423" font-family="Helvetica,sans-Serif" font-size="10.00">+ error_number()</text>
<text text-anchor="start" x="7.45215" y="-413" font-family="Helvetica,sans-Serif" font-size="10.00">+ exit_fatal()</text>
<text text-anchor="start" x="7.45215" y="-403" font-family="Helvetica,sans-Serif" font-size="10.00"># set_error_number()</text>
<text text-anchor="start" x="7.45215" y="-393" font-family="Helvetica,sans-Serif" font-size="10.00"># set_error_number_if</text>
<text text-anchor="start" x="7.45215" y="-383" font-family="Helvetica,sans-Serif" font-size="10.00">_error()</text>
<text text-anchor="start" x="7.45215" y="-373" font-family="Helvetica,sans-Serif" font-size="10.00"># set_error_number_to</text>
<text text-anchor="start" x="7.45215" y="-363" font-family="Helvetica,sans-Serif" font-size="10.00">_errno()</text>
</a>
</g>
</g>
<!-- Node4&#45;&gt;Node3 -->
<g id="edge3" class="edge"><title>Node4&#45;&gt;Node3</title>
<path fill="none" stroke="midnightblue" d="M59,-346.838C59,-336.903 59,-327.326 59,-319.074"/>
<polygon fill="none" stroke="midnightblue" points="55.5001,-346.857 59,-356.857 62.5001,-346.858 55.5001,-346.857"/>
</g>
<!-- Node5 -->
<g id="node5" class="node"><title>Node5</title>
<g id="a_node5"><a xlink:href="classapi_1_1_api_object.html" target="_top" xlink:title="API Object Class. ">
<polygon fill="none" stroke="black" points="17.7896,-529 17.7896,-583 100.21,-583 100.21,-529 17.7896,-529"/>
<text text-anchor="middle" x="59" y="-571" font-family="Helvetica,sans-Serif" font-size="10.00">api::ApiObject</text>
<polyline fill="none" stroke="black" points="17.7896,-565 100.21,-565 "/>
<text text-anchor="middle" x="59" y="-553" font-family="Helvetica,sans-Serif" font-size="10.00"> </text>
<polyline fill="none" stroke="black" points="17.7896,-547 100.21,-547 "/>
<text text-anchor="start" x="25.7896" y="-535" font-family="Helvetica,sans-Serif" font-size="10.00">+ api_version()</text>
</a>
</g>
</g>
<!-- Node5&#45;&gt;Node4 -->
<g id="edge4" class="edge"><title>Node5&#45;&gt;Node4</title>
<path fill="none" stroke="midnightblue" d="M59,-518.644C59,-510.02 59,-500.555 59,-491.059"/>
<polygon fill="none" stroke="midnightblue" points="55.5001,-518.693 59,-528.693 62.5001,-518.693 55.5001,-518.693"/>
</g>
</g>
</svg>
