<?xml version="1.0" encoding="UTF-8" standalone="no"?>
<!DOCTYPE svg PUBLIC "-//W3C//DTD SVG 1.1//EN"
 "http://www.w3.org/Graphics/SVG/1.1/DTD/svg11.dtd">
<!-- Generated by graphviz version 2.36.0 (20140111.2315)
 -->
<!-- Title: sys::Cli Pages: 1 -->
<svg width="136pt" height="286pt"
 viewBox="0.00 0.00 136.00 286.00" xmlns="http://www.w3.org/2000/svg" xmlns:xlink="http://www.w3.org/1999/xlink">
<g id="graph0" class="graph" transform="scale(1 1) rotate(0) translate(4 282)">
<title>sys::Cli</title>
<!-- Node1 -->
<g id="node1" class="node"><title>Node1</title>
<polygon fill="#bfbfbf" stroke="black" points="-0.569824,-1 -0.569824,-115 128.57,-115 128.57,-1 -0.569824,-1"/>
<text text-anchor="middle" x="64" y="-103" font-family="Helvetica,sans-Serif" font-size="10.00">sys::Cli</text>
<polyline fill="none" stroke="black" points="-0.569824,-97 128.57,-97 "/>
<text text-anchor="middle" x="64" y="-85" font-family="Helvetica,sans-Serif" font-size="10.00"> </text>
<polyline fill="none" stroke="black" points="-0.569824,-79 128.57,-79 "/>
<text text-anchor="start" x="7.43018" y="-67" font-family="Helvetica,sans-Serif" font-size="10.00">+ Cli()</text>
<text text-anchor="start" x="7.43018" y="-57" font-family="Helvetica,sans-Serif" font-size="10.00">+ at()</text>
<text text-anchor="start" x="7.43018" y="-47" font-family="Helvetica,sans-Serif" font-size="10.00">+ count()</text>
<text text-anchor="start" x="7.43018" y="-37" font-family="Helvetica,sans-Serif" font-size="10.00">+ get_option_argument()</text>
<text text-anchor="start" x="7.43018" y="-27" font-family="Helvetica,sans-Serif" font-size="10.00">+ get_option_hex_value()</text>
<text text-anchor="start" x="7.43018" y="-17" font-family="Helvetica,sans-Serif" font-size="10.00">+ get_option_pin()</text>
<text text-anchor="start" x="7.43018" y="-7" font-family="Helvetica,sans-Serif" font-size="10.00">and 13 more...</text>
</g>
<!-- Node2 -->
<g id="node2" class="node"><title>Node2</title>
<g id="a_node2"><a xlink:href="classapi_1_1_s_object.html" target="_top" xlink:title="SObject Class. ">
<polygon fill="none" stroke="black" points="6.80811,-153 6.80811,-277 121.192,-277 121.192,-153 6.80811,-153"/>
<text text-anchor="middle" x="64" y="-265" font-family="Helvetica,sans-Serif" font-size="10.00">api::SObject</text>
<polyline fill="none" stroke="black" points="6.80811,-259 121.192,-259 "/>
<text text-anchor="middle" x="64" y="-247" font-family="Helvetica,sans-Serif" font-size="10.00"> </text>
<polyline fill="none" stroke="black" points="6.80811,-241 121.192,-241 "/>
<text text-anchor="start" x="14.8081" y="-229" font-family="Helvetica,sans-Serif" font-size="10.00">+ SObject()</text>
<text text-anchor="start" x="14.8081" y="-219" font-family="Helvetica,sans-Serif" font-size="10.00">+ api_version()</text>
<text text-anchor="start" x="14.8081" y="-209" font-family="Helvetica,sans-Serif" font-size="10.00">+ clear_error()</text>
<text text-anchor="start" x="14.8081" y="-199" font-family="Helvetica,sans-Serif" font-size="10.00">+ error_number()</text>
<text text-anchor="start" x="14.8081" y="-189" font-family="Helvetica,sans-Serif" font-size="10.00">+ exit_fatal()</text>
<text text-anchor="start" x="14.8081" y="-179" font-family="Helvetica,sans-Serif" font-size="10.00"># set_error_number()</text>
<text text-anchor="start" x="14.8081" y="-169" font-family="Helvetica,sans-Serif" font-size="10.00"># set_error_number_if</text>
<text text-anchor="start" x="14.8081" y="-159" font-family="Helvetica,sans-Serif" font-size="10.00">_error()</text>
</a>
</g>
</g>
<!-- Node2&#45;&gt;Node1 -->
<g id="edge1" class="edge"><title>Node2&#45;&gt;Node1</title>
<path fill="none" stroke="midnightblue" d="M64,-142.503C64,-133.37 64,-124.126 64,-115.28"/>
<polygon fill="none" stroke="midnightblue" points="60.5001,-142.74 64,-152.74 67.5001,-142.74 60.5001,-142.74"/>
</g>
</g>
</svg>
