<?xml version="1.0" encoding="UTF-8" standalone="no"?>
<!DOCTYPE svg PUBLIC "-//W3C//DTD SVG 1.1//EN"
 "http://www.w3.org/Graphics/SVG/1.1/DTD/svg11.dtd">
<!-- Generated by graphviz version 2.36.0 (20140111.2315)
 -->
<!-- Title: ev::EventHandler Pages: 1 -->
<svg width="693pt" height="1208pt"
 viewBox="0.00 0.00 693.00 1208.00" xmlns="http://www.w3.org/2000/svg" xmlns:xlink="http://www.w3.org/1999/xlink">
<g id="graph0" class="graph" transform="scale(1 1) rotate(0) translate(4 1204)">
<title>ev::EventHandler</title>
<!-- Node1 -->
<g id="node1" class="node"><title>Node1</title>
<polygon fill="#bfbfbf" stroke="black" points="372.584,-749 372.584,-833 471.416,-833 471.416,-749 372.584,-749"/>
<text text-anchor="middle" x="422" y="-821" font-family="Helvetica,sans-Serif" font-size="10.00">ev::EventHandler</text>
<polyline fill="none" stroke="black" points="372.584,-815 471.416,-815 "/>
<text text-anchor="middle" x="422" y="-803" font-family="Helvetica,sans-Serif" font-size="10.00"> </text>
<polyline fill="none" stroke="black" points="372.584,-797 471.416,-797 "/>
<text text-anchor="start" x="380.584" y="-785" font-family="Helvetica,sans-Serif" font-size="10.00">+ EventHandler()</text>
<text text-anchor="start" x="380.584" y="-775" font-family="Helvetica,sans-Serif" font-size="10.00">+ event_loop()</text>
<text text-anchor="start" x="380.584" y="-765" font-family="Helvetica,sans-Serif" font-size="10.00">+ handle_event()</text>
<text text-anchor="start" x="380.584" y="-755" font-family="Helvetica,sans-Serif" font-size="10.00"># set_event_loop()</text>
</g>
<!-- Node5 -->
<g id="node5" class="node"><title>Node5</title>
<g id="a_node5"><a xlink:href="classui_1_1_element.html" target="_top" xlink:title="Element Class. ">
<polygon fill="none" stroke="black" points="354.386,-577 354.386,-711 489.614,-711 489.614,-577 354.386,-577"/>
<text text-anchor="middle" x="422" y="-699" font-family="Helvetica,sans-Serif" font-size="10.00">ui::Element</text>
<polyline fill="none" stroke="black" points="354.386,-693 489.614,-693 "/>
<text text-anchor="start" x="362.386" y="-681" font-family="Helvetica,sans-Serif" font-size="10.00"># m_animation_attr</text>
<polyline fill="none" stroke="black" points="354.386,-675 489.614,-675 "/>
<text text-anchor="start" x="362.386" y="-663" font-family="Helvetica,sans-Serif" font-size="10.00">+ Element()</text>
<text text-anchor="start" x="362.386" y="-653" font-family="Helvetica,sans-Serif" font-size="10.00">+ animation_attr()</text>
<text text-anchor="start" x="362.386" y="-643" font-family="Helvetica,sans-Serif" font-size="10.00">+ animation_frame_delay()</text>
<text text-anchor="start" x="362.386" y="-633" font-family="Helvetica,sans-Serif" font-size="10.00">+ animation_path()</text>
<text text-anchor="start" x="362.386" y="-623" font-family="Helvetica,sans-Serif" font-size="10.00">+ animation_type()</text>
<text text-anchor="start" x="362.386" y="-613" font-family="Helvetica,sans-Serif" font-size="10.00">+ handle_event()</text>
<text text-anchor="start" x="362.386" y="-603" font-family="Helvetica,sans-Serif" font-size="10.00">and 21 more...</text>
<text text-anchor="start" x="362.386" y="-593" font-family="Helvetica,sans-Serif" font-size="10.00"># adjust_x_center()</text>
<text text-anchor="start" x="362.386" y="-583" font-family="Helvetica,sans-Serif" font-size="10.00"># draw_scroll()</text>
</a>
</g>
</g>
<!-- Node1&#45;&gt;Node5 -->
<g id="edge4" class="edge"><title>Node1&#45;&gt;Node5</title>
<path fill="none" stroke="midnightblue" d="M422,-738.661C422,-729.781 422,-720.436 422,-711.228"/>
<polygon fill="none" stroke="midnightblue" points="418.5,-738.837 422,-748.837 425.5,-738.837 418.5,-738.837"/>
</g>
<!-- Node2 -->
<g id="node2" class="node"><title>Node2</title>
<g id="a_node2"><a xlink:href="classapi_1_1_ev_work_object.html" target="_top" xlink:title="Event Object Class. ">
<polygon fill="none" stroke="black" points="372.687,-871 372.687,-925 471.313,-925 471.313,-871 372.687,-871"/>
<text text-anchor="middle" x="422" y="-913" font-family="Helvetica,sans-Serif" font-size="10.00">api::EvWorkObject</text>
<polyline fill="none" stroke="black" points="372.687,-907 471.313,-907 "/>
<text text-anchor="middle" x="422" y="-895" font-family="Helvetica,sans-Serif" font-size="10.00"> </text>
<polyline fill="none" stroke="black" points="372.687,-889 471.313,-889 "/>
<text text-anchor="middle" x="422" y="-877" font-family="Helvetica,sans-Serif" font-size="10.00"> </text>
</a>
</g>
</g>
<!-- Node2&#45;&gt;Node1 -->
<g id="edge1" class="edge"><title>Node2&#45;&gt;Node1</title>
<path fill="none" stroke="midnightblue" d="M422,-860.503C422,-851.755 422,-842.351 422,-833.399"/>
<polygon fill="none" stroke="midnightblue" points="418.5,-860.775 422,-870.775 425.5,-860.775 418.5,-860.775"/>
</g>
<!-- Node3 -->
<g id="node3" class="node"><title>Node3</title>
<g id="a_node3"><a xlink:href="classapi_1_1_work_object.html" target="_top" xlink:title="WorkObject Class. ">
<polygon fill="none" stroke="black" points="350.914,-963 350.914,-1107 493.086,-1107 493.086,-963 350.914,-963"/>
<text text-anchor="middle" x="422" y="-1095" font-family="Helvetica,sans-Serif" font-size="10.00">api::WorkObject</text>
<polyline fill="none" stroke="black" points="350.914,-1089 493.086,-1089 "/>
<text text-anchor="middle" x="422" y="-1077" font-family="Helvetica,sans-Serif" font-size="10.00"> </text>
<polyline fill="none" stroke="black" points="350.914,-1071 493.086,-1071 "/>
<text text-anchor="start" x="358.914" y="-1059" font-family="Helvetica,sans-Serif" font-size="10.00">+ WorkObject()</text>
<text text-anchor="start" x="358.914" y="-1049" font-family="Helvetica,sans-Serif" font-size="10.00">+ clear_error_number()</text>
<text text-anchor="start" x="358.914" y="-1039" font-family="Helvetica,sans-Serif" font-size="10.00">+ error_number()</text>
<text text-anchor="start" x="358.914" y="-1029" font-family="Helvetica,sans-Serif" font-size="10.00">+ exit_fatal()</text>
<text text-anchor="start" x="358.914" y="-1019" font-family="Helvetica,sans-Serif" font-size="10.00"># set_error_number()</text>
<text text-anchor="start" x="358.914" y="-1009" font-family="Helvetica,sans-Serif" font-size="10.00"># set_error_number_if</text>
<text text-anchor="start" x="358.914" y="-999" font-family="Helvetica,sans-Serif" font-size="10.00">_error()</text>
<text text-anchor="start" x="358.914" y="-989" font-family="Helvetica,sans-Serif" font-size="10.00"># set_error_number_if_null()</text>
<text text-anchor="start" x="358.914" y="-979" font-family="Helvetica,sans-Serif" font-size="10.00"># set_error_number_to</text>
<text text-anchor="start" x="358.914" y="-969" font-family="Helvetica,sans-Serif" font-size="10.00">_errno()</text>
</a>
</g>
</g>
<!-- Node3&#45;&gt;Node2 -->
<g id="edge2" class="edge"><title>Node3&#45;&gt;Node2</title>
<path fill="none" stroke="midnightblue" d="M422,-952.911C422,-942.983 422,-933.464 422,-925.262"/>
<polygon fill="none" stroke="midnightblue" points="418.5,-952.942 422,-962.942 425.5,-952.942 418.5,-952.942"/>
</g>
<!-- Node4 -->
<g id="node4" class="node"><title>Node4</title>
<g id="a_node4"><a xlink:href="classapi_1_1_api_object.html" target="_top" xlink:title="API Object Class. ">
<polygon fill="none" stroke="black" points="380.79,-1145 380.79,-1199 463.21,-1199 463.21,-1145 380.79,-1145"/>
<text text-anchor="middle" x="422" y="-1187" font-family="Helvetica,sans-Serif" font-size="10.00">api::ApiObject</text>
<polyline fill="none" stroke="black" points="380.79,-1181 463.21,-1181 "/>
<text text-anchor="middle" x="422" y="-1169" font-family="Helvetica,sans-Serif" font-size="10.00"> </text>
<polyline fill="none" stroke="black" points="380.79,-1163 463.21,-1163 "/>
<text text-anchor="start" x="388.79" y="-1151" font-family="Helvetica,sans-Serif" font-size="10.00">+ api_version()</text>
</a>
</g>
</g>
<!-- Node4&#45;&gt;Node3 -->
<g id="edge3" class="edge"><title>Node4&#45;&gt;Node3</title>
<path fill="none" stroke="midnightblue" d="M422,-1134.93C422,-1126.29 422,-1116.77 422,-1107.14"/>
<polygon fill="none" stroke="midnightblue" points="418.5,-1134.97 422,-1144.97 425.5,-1134.97 418.5,-1134.97"/>
</g>
<!-- Node6 -->
<g id="node6" class="node"><title>Node6</title>
<g id="a_node6"><a xlink:href="classui_1_1_linked_element.html" target="_top" xlink:title="Linked Element. ">
<polygon fill="none" stroke="black" points="317.285,-420 317.285,-534 414.715,-534 414.715,-420 317.285,-420"/>
<text text-anchor="middle" x="366" y="-522" font-family="Helvetica,sans-Serif" font-size="10.00">ui::LinkedElement</text>
<polyline fill="none" stroke="black" points="317.285,-516 414.715,-516 "/>
<text text-anchor="middle" x="366" y="-504" font-family="Helvetica,sans-Serif" font-size="10.00"> </text>
<polyline fill="none" stroke="black" points="317.285,-498 414.715,-498 "/>
<text text-anchor="start" x="325.285" y="-486" font-family="Helvetica,sans-Serif" font-size="10.00">+ LinkedElement()</text>
<text text-anchor="start" x="325.285" y="-476" font-family="Helvetica,sans-Serif" font-size="10.00">+ LinkedElement()</text>
<text text-anchor="start" x="325.285" y="-466" font-family="Helvetica,sans-Serif" font-size="10.00">+ child()</text>
<text text-anchor="start" x="325.285" y="-456" font-family="Helvetica,sans-Serif" font-size="10.00">+ handle_event()</text>
<text text-anchor="start" x="325.285" y="-446" font-family="Helvetica,sans-Serif" font-size="10.00">+ parent()</text>
<text text-anchor="start" x="325.285" y="-436" font-family="Helvetica,sans-Serif" font-size="10.00">+ set_child()</text>
<text text-anchor="start" x="325.285" y="-426" font-family="Helvetica,sans-Serif" font-size="10.00">+ set_parent()</text>
</a>
</g>
</g>
<!-- Node5&#45;&gt;Node6 -->
<g id="edge5" class="edge"><title>Node5&#45;&gt;Node6</title>
<path fill="none" stroke="midnightblue" d="M396.25,-567.128C392.475,-556.007 388.646,-544.724 385.038,-534.095"/>
<polygon fill="none" stroke="midnightblue" points="393.017,-568.494 399.545,-576.839 399.646,-566.245 393.017,-568.494"/>
</g>
<!-- Node16 -->
<g id="node16" class="node"><title>Node16</title>
<g id="a_node16"><a xlink:href="classui_1_1_tab_bar.html" target="_top" xlink:title="Tab Bar Class. ">
<polygon fill="none" stroke="black" points="432.924,-415 432.924,-539 525.076,-539 525.076,-415 432.924,-415"/>
<text text-anchor="middle" x="479" y="-527" font-family="Helvetica,sans-Serif" font-size="10.00">ui::TabBar</text>
<polyline fill="none" stroke="black" points="432.924,-521 525.076,-521 "/>
<text text-anchor="middle" x="479" y="-509" font-family="Helvetica,sans-Serif" font-size="10.00"> </text>
<polyline fill="none" stroke="black" points="432.924,-503 525.076,-503 "/>
<text text-anchor="start" x="440.924" y="-491" font-family="Helvetica,sans-Serif" font-size="10.00">+ TabBar()</text>
<text text-anchor="start" x="440.924" y="-481" font-family="Helvetica,sans-Serif" font-size="10.00">+ animation()</text>
<text text-anchor="start" x="440.924" y="-471" font-family="Helvetica,sans-Serif" font-size="10.00">+ at()</text>
<text text-anchor="start" x="440.924" y="-461" font-family="Helvetica,sans-Serif" font-size="10.00">+ current()</text>
<text text-anchor="start" x="440.924" y="-451" font-family="Helvetica,sans-Serif" font-size="10.00">+ draw()</text>
<text text-anchor="start" x="440.924" y="-441" font-family="Helvetica,sans-Serif" font-size="10.00">+ handle_event()</text>
<text text-anchor="start" x="440.924" y="-431" font-family="Helvetica,sans-Serif" font-size="10.00">and 4 more...</text>
<text text-anchor="start" x="440.924" y="-421" font-family="Helvetica,sans-Serif" font-size="10.00"># draw_tab_bar()</text>
</a>
</g>
</g>
<!-- Node5&#45;&gt;Node16 -->
<g id="edge15" class="edge"><title>Node5&#45;&gt;Node16</title>
<path fill="none" stroke="midnightblue" d="M448.214,-567.117C451.457,-557.729 454.74,-548.225 457.894,-539.097"/>
<polygon fill="none" stroke="midnightblue" points="444.813,-566.244 444.856,-576.839 451.429,-568.53 444.813,-566.244"/>
</g>
<!-- Node7 -->
<g id="node7" class="node"><title>Node7</title>
<g id="a_node7"><a xlink:href="classui_1_1_list.html" target="_top" xlink:title="List Class. ">
<polygon fill="none" stroke="black" points="75.3872,-163 75.3872,-377 232.613,-377 232.613,-163 75.3872,-163"/>
<text text-anchor="middle" x="154" y="-365" font-family="Helvetica,sans-Serif" font-size="10.00">ui::List</text>
<polyline fill="none" stroke="black" points="75.3872,-359 232.613,-359 "/>
<text text-anchor="start" x="83.3872" y="-347" font-family="Helvetica,sans-Serif" font-size="10.00"># m_draw_animation_item</text>
<text text-anchor="start" x="83.3872" y="-337" font-family="Helvetica,sans-Serif" font-size="10.00"># m_draw_animation_offset</text>
<text text-anchor="start" x="83.3872" y="-327" font-family="Helvetica,sans-Serif" font-size="10.00"># m_scroll_animation</text>
<text text-anchor="start" x="83.3872" y="-317" font-family="Helvetica,sans-Serif" font-size="10.00"># m_scroll_timer</text>
<text text-anchor="start" x="83.3872" y="-307" font-family="Helvetica,sans-Serif" font-size="10.00"># m_select_top_bottom</text>
<polyline fill="none" stroke="black" points="75.3872,-301 232.613,-301 "/>
<text text-anchor="start" x="83.3872" y="-289" font-family="Helvetica,sans-Serif" font-size="10.00">+ List()</text>
<text text-anchor="start" x="83.3872" y="-279" font-family="Helvetica,sans-Serif" font-size="10.00">+ at()</text>
<text text-anchor="start" x="83.3872" y="-269" font-family="Helvetica,sans-Serif" font-size="10.00">+ current()</text>
<text text-anchor="start" x="83.3872" y="-259" font-family="Helvetica,sans-Serif" font-size="10.00">+ draw_item_to_scale()</text>
<text text-anchor="start" x="83.3872" y="-249" font-family="Helvetica,sans-Serif" font-size="10.00">+ draw_to_scale()</text>
<text text-anchor="start" x="83.3872" y="-239" font-family="Helvetica,sans-Serif" font-size="10.00">+ handle_event()</text>
<text text-anchor="start" x="83.3872" y="-229" font-family="Helvetica,sans-Serif" font-size="10.00"># animate_scroll()</text>
<text text-anchor="start" x="83.3872" y="-219" font-family="Helvetica,sans-Serif" font-size="10.00"># handle_down_button</text>
<text text-anchor="start" x="83.3872" y="-209" font-family="Helvetica,sans-Serif" font-size="10.00">_actuation()</text>
<text text-anchor="start" x="83.3872" y="-199" font-family="Helvetica,sans-Serif" font-size="10.00"># handle_select_button</text>
<text text-anchor="start" x="83.3872" y="-189" font-family="Helvetica,sans-Serif" font-size="10.00">_actuation()</text>
<text text-anchor="start" x="83.3872" y="-179" font-family="Helvetica,sans-Serif" font-size="10.00"># handle_up_button_actuation()</text>
<text text-anchor="start" x="83.3872" y="-169" font-family="Helvetica,sans-Serif" font-size="10.00"># init()</text>
</a>
</g>
</g>
<!-- Node6&#45;&gt;Node7 -->
<g id="edge6" class="edge"><title>Node6&#45;&gt;Node7</title>
<path fill="none" stroke="midnightblue" d="M309.625,-421.486C286.13,-398.768 258.436,-371.988 232.972,-347.364"/>
<polygon fill="none" stroke="midnightblue" points="307.475,-424.276 317.097,-428.711 312.341,-419.244 307.475,-424.276"/>
</g>
<!-- Node10 -->
<g id="node10" class="node"><title>Node10</title>
<g id="a_node10"><a xlink:href="classui_1_1_list_item.html" target="_top" xlink:title="List Item Class. ">
<polygon fill="none" stroke="black" points="316.452,-213 316.452,-327 415.548,-327 415.548,-213 316.452,-213"/>
<text text-anchor="middle" x="366" y="-315" font-family="Helvetica,sans-Serif" font-size="10.00">ui::ListItem</text>
<polyline fill="none" stroke="black" points="316.452,-309 415.548,-309 "/>
<text text-anchor="middle" x="366" y="-297" font-family="Helvetica,sans-Serif" font-size="10.00"> </text>
<polyline fill="none" stroke="black" points="316.452,-291 415.548,-291 "/>
<text text-anchor="start" x="324.452" y="-279" font-family="Helvetica,sans-Serif" font-size="10.00">+ ListItem()</text>
<text text-anchor="start" x="324.452" y="-269" font-family="Helvetica,sans-Serif" font-size="10.00">+ draw_to_scale()</text>
<text text-anchor="start" x="324.452" y="-259" font-family="Helvetica,sans-Serif" font-size="10.00">+ handle_event()</text>
<text text-anchor="start" x="324.452" y="-249" font-family="Helvetica,sans-Serif" font-size="10.00">+ icon()</text>
<text text-anchor="start" x="324.452" y="-239" font-family="Helvetica,sans-Serif" font-size="10.00">+ icon_attr()</text>
<text text-anchor="start" x="324.452" y="-229" font-family="Helvetica,sans-Serif" font-size="10.00">+ icon_attr_const()</text>
<text text-anchor="start" x="324.452" y="-219" font-family="Helvetica,sans-Serif" font-size="10.00">and 4 more...</text>
</a>
</g>
</g>
<!-- Node6&#45;&gt;Node10 -->
<g id="edge9" class="edge"><title>Node6&#45;&gt;Node10</title>
<path fill="none" stroke="midnightblue" d="M366,-409.972C366,-383.32 366,-352.886 366,-327.305"/>
<polygon fill="none" stroke="midnightblue" points="362.5,-409.983 366,-419.983 369.5,-409.983 362.5,-409.983"/>
</g>
<!-- Node15 -->
<g id="node15" class="node"><title>Node15</title>
<g id="a_node15"><a xlink:href="classui_1_1_menu.html" target="_top" xlink:title="Menu Class. ">
<polygon fill="none" stroke="black" points="433.334,-223 433.334,-317 524.666,-317 524.666,-223 433.334,-223"/>
<text text-anchor="middle" x="479" y="-305" font-family="Helvetica,sans-Serif" font-size="10.00">ui::Menu</text>
<polyline fill="none" stroke="black" points="433.334,-299 524.666,-299 "/>
<text text-anchor="middle" x="479" y="-287" font-family="Helvetica,sans-Serif" font-size="10.00"> </text>
<polyline fill="none" stroke="black" points="433.334,-281 524.666,-281 "/>
<text text-anchor="start" x="441.334" y="-269" font-family="Helvetica,sans-Serif" font-size="10.00">+ Menu()</text>
<text text-anchor="start" x="441.334" y="-259" font-family="Helvetica,sans-Serif" font-size="10.00">+ current()</text>
<text text-anchor="start" x="441.334" y="-249" font-family="Helvetica,sans-Serif" font-size="10.00">+ draw()</text>
<text text-anchor="start" x="441.334" y="-239" font-family="Helvetica,sans-Serif" font-size="10.00">+ handle_event()</text>
<text text-anchor="start" x="441.334" y="-229" font-family="Helvetica,sans-Serif" font-size="10.00">+ set_current()</text>
</a>
</g>
</g>
<!-- Node6&#45;&gt;Node15 -->
<g id="edge14" class="edge"><title>Node6&#45;&gt;Node15</title>
<path fill="none" stroke="midnightblue" d="M405.129,-411.124C411.546,-400.133 418.042,-388.788 424,-378 434.906,-358.254 446.398,-336.125 456.042,-317.138"/>
<polygon fill="none" stroke="midnightblue" points="402.053,-409.449 400.01,-419.845 408.09,-412.992 402.053,-409.449"/>
</g>
<!-- Node8 -->
<g id="node8" class="node"><title>Node8</title>
<g id="a_node8"><a xlink:href="classui_1_1_dir_list.html" target="_top" xlink:title="Directory List Class. ">
<polygon fill="none" stroke="black" points="-0.375488,-1 -0.375488,-125 100.375,-125 100.375,-1 -0.375488,-1"/>
<text text-anchor="middle" x="50" y="-113" font-family="Helvetica,sans-Serif" font-size="10.00">ui::DirList</text>
<polyline fill="none" stroke="black" points="-0.375488,-107 100.375,-107 "/>
<text text-anchor="middle" x="50" y="-95" font-family="Helvetica,sans-Serif" font-size="10.00"> </text>
<polyline fill="none" stroke="black" points="-0.375488,-89 100.375,-89 "/>
<text text-anchor="start" x="7.62451" y="-77" font-family="Helvetica,sans-Serif" font-size="10.00">+ DirList()</text>
<text text-anchor="start" x="7.62451" y="-67" font-family="Helvetica,sans-Serif" font-size="10.00">+ ~DirList()</text>
<text text-anchor="start" x="7.62451" y="-57" font-family="Helvetica,sans-Serif" font-size="10.00">+ at()</text>
<text text-anchor="start" x="7.62451" y="-47" font-family="Helvetica,sans-Serif" font-size="10.00">+ dir()</text>
<text text-anchor="start" x="7.62451" y="-37" font-family="Helvetica,sans-Serif" font-size="10.00">+ handle_event()</text>
<text text-anchor="start" x="7.62451" y="-27" font-family="Helvetica,sans-Serif" font-size="10.00">+ is_suffix_visible()</text>
<text text-anchor="start" x="7.62451" y="-17" font-family="Helvetica,sans-Serif" font-size="10.00">and 6 more...</text>
<text text-anchor="start" x="7.62451" y="-7" font-family="Helvetica,sans-Serif" font-size="10.00"># set_size()</text>
</a>
</g>
</g>
<!-- Node7&#45;&gt;Node8 -->
<g id="edge7" class="edge"><title>Node7&#45;&gt;Node8</title>
<path fill="none" stroke="midnightblue" d="M95.5838,-153.853C90.606,-144.041 85.708,-134.386 81.0758,-125.255"/>
<polygon fill="none" stroke="midnightblue" points="92.5266,-155.563 100.172,-162.897 98.7692,-152.396 92.5266,-155.563"/>
</g>
<!-- Node9 -->
<g id="node9" class="node"><title>Node9</title>
<g id="a_node9"><a xlink:href="classui_1_1_menu_list.html" target="_top" xlink:title="Menu List Class. ">
<polygon fill="none" stroke="black" points="118.073,-21 118.073,-105 189.927,-105 189.927,-21 118.073,-21"/>
<text text-anchor="middle" x="154" y="-93" font-family="Helvetica,sans-Serif" font-size="10.00">ui::MenuList</text>
<polyline fill="none" stroke="black" points="118.073,-87 189.927,-87 "/>
<text text-anchor="middle" x="154" y="-75" font-family="Helvetica,sans-Serif" font-size="10.00"> </text>
<polyline fill="none" stroke="black" points="118.073,-69 189.927,-69 "/>
<text text-anchor="start" x="126.073" y="-57" font-family="Helvetica,sans-Serif" font-size="10.00">+ MenuList()</text>
<text text-anchor="start" x="126.073" y="-47" font-family="Helvetica,sans-Serif" font-size="10.00">+ at()</text>
<text text-anchor="start" x="126.073" y="-37" font-family="Helvetica,sans-Serif" font-size="10.00">+ back()</text>
<text text-anchor="start" x="126.073" y="-27" font-family="Helvetica,sans-Serif" font-size="10.00">+ size()</text>
</a>
</g>
</g>
<!-- Node7&#45;&gt;Node9 -->
<g id="edge8" class="edge"><title>Node7&#45;&gt;Node9</title>
<path fill="none" stroke="midnightblue" d="M154,-152.829C154,-135.806 154,-119.294 154,-105.219"/>
<polygon fill="none" stroke="midnightblue" points="150.5,-152.897 154,-162.897 157.5,-152.897 150.5,-152.897"/>
</g>
<!-- Node11 -->
<g id="node11" class="node"><title>Node11</title>
<g id="a_node11"><a xlink:href="classui_1_1_info_list_item.html" target="_top" xlink:title="List Item Info Class. ">
<polygon fill="none" stroke="black" points="208.12,-6 208.12,-120 303.88,-120 303.88,-6 208.12,-6"/>
<text text-anchor="middle" x="256" y="-108" font-family="Helvetica,sans-Serif" font-size="10.00">ui::InfoListItem</text>
<polyline fill="none" stroke="black" points="208.12,-102 303.88,-102 "/>
<text text-anchor="middle" x="256" y="-90" font-family="Helvetica,sans-Serif" font-size="10.00"> </text>
<polyline fill="none" stroke="black" points="208.12,-84 303.88,-84 "/>
<text text-anchor="start" x="216.12" y="-72" font-family="Helvetica,sans-Serif" font-size="10.00">+ InfoListItem()</text>
<text text-anchor="start" x="216.12" y="-62" font-family="Helvetica,sans-Serif" font-size="10.00">+ InfoListItem()</text>
<text text-anchor="start" x="216.12" y="-52" font-family="Helvetica,sans-Serif" font-size="10.00">+ draw_to_scale()</text>
<text text-anchor="start" x="216.12" y="-42" font-family="Helvetica,sans-Serif" font-size="10.00">+ handle_event()</text>
<text text-anchor="start" x="216.12" y="-32" font-family="Helvetica,sans-Serif" font-size="10.00">+ label()</text>
<text text-anchor="start" x="216.12" y="-22" font-family="Helvetica,sans-Serif" font-size="10.00">+ set()</text>
<text text-anchor="start" x="216.12" y="-12" font-family="Helvetica,sans-Serif" font-size="10.00">+ value()</text>
</a>
</g>
</g>
<!-- Node10&#45;&gt;Node11 -->
<g id="edge10" class="edge"><title>Node10&#45;&gt;Node11</title>
<path fill="none" stroke="midnightblue" d="M331.136,-204.026C316.701,-177.125 300.12,-146.224 286.213,-120.305"/>
<polygon fill="none" stroke="midnightblue" points="328.13,-205.826 335.942,-212.983 334.298,-202.516 328.13,-205.826"/>
</g>
<!-- Node12 -->
<g id="node12" class="node"><title>Node12</title>
<g id="a_node12"><a xlink:href="classui_1_1_list_item_back.html" target="_top" xlink:title="List Item Back Entry. ">
<polygon fill="none" stroke="black" points="321.74,-36 321.74,-90 410.26,-90 410.26,-36 321.74,-36"/>
<text text-anchor="middle" x="366" y="-78" font-family="Helvetica,sans-Serif" font-size="10.00">ui::ListItemBack</text>
<polyline fill="none" stroke="black" points="321.74,-72 410.26,-72 "/>
<text text-anchor="middle" x="366" y="-60" font-family="Helvetica,sans-Serif" font-size="10.00"> </text>
<polyline fill="none" stroke="black" points="321.74,-54 410.26,-54 "/>
<text text-anchor="start" x="329.74" y="-42" font-family="Helvetica,sans-Serif" font-size="10.00">+ ListItemBack()</text>
</a>
</g>
</g>
<!-- Node10&#45;&gt;Node12 -->
<g id="edge11" class="edge"><title>Node10&#45;&gt;Node12</title>
<path fill="none" stroke="midnightblue" d="M366,-202.898C366,-164.51 366,-118.296 366,-90.0414"/>
<polygon fill="none" stroke="midnightblue" points="362.5,-202.983 366,-212.983 369.5,-202.983 362.5,-202.983"/>
</g>
<!-- Node13 -->
<g id="node13" class="node"><title>Node13</title>
<g id="a_node13"><a xlink:href="classui_1_1_list_item_check.html" target="_top" xlink:title="List Item Check (for use in a checklist) ">
<polygon fill="none" stroke="black" points="428.684,-21 428.684,-105 523.316,-105 523.316,-21 428.684,-21"/>
<text text-anchor="middle" x="476" y="-93" font-family="Helvetica,sans-Serif" font-size="10.00">ui::ListItemCheck</text>
<polyline fill="none" stroke="black" points="428.684,-87 523.316,-87 "/>
<text text-anchor="middle" x="476" y="-75" font-family="Helvetica,sans-Serif" font-size="10.00"> </text>
<polyline fill="none" stroke="black" points="428.684,-69 523.316,-69 "/>
<text text-anchor="start" x="436.684" y="-57" font-family="Helvetica,sans-Serif" font-size="10.00">+ ListItemCheck()</text>
<text text-anchor="start" x="436.684" y="-47" font-family="Helvetica,sans-Serif" font-size="10.00">+ ListItemCheck()</text>
<text text-anchor="start" x="436.684" y="-37" font-family="Helvetica,sans-Serif" font-size="10.00">+ handle_event()</text>
<text text-anchor="start" x="436.684" y="-27" font-family="Helvetica,sans-Serif" font-size="10.00">+ set_enabled()</text>
</a>
</g>
</g>
<!-- Node10&#45;&gt;Node13 -->
<g id="edge12" class="edge"><title>Node10&#45;&gt;Node13</title>
<path fill="none" stroke="midnightblue" d="M400.861,-204.032C418.205,-171.708 438.65,-133.607 453.831,-105.315"/>
<polygon fill="none" stroke="midnightblue" points="397.702,-202.516 396.058,-212.983 403.87,-205.826 397.702,-202.516"/>
</g>
<!-- Node14 -->
<g id="node14" class="node"><title>Node14</title>
<g id="a_node14"><a xlink:href="classui_1_1_list_item_toggle.html" target="_top" xlink:title="Toggle Item. ">
<polygon fill="none" stroke="black" points="540.928,-16 540.928,-110 685.072,-110 685.072,-16 540.928,-16"/>
<text text-anchor="middle" x="613" y="-98" font-family="Helvetica,sans-Serif" font-size="10.00">ui::ListItemToggle</text>
<polyline fill="none" stroke="black" points="540.928,-92 685.072,-92 "/>
<text text-anchor="middle" x="613" y="-80" font-family="Helvetica,sans-Serif" font-size="10.00"> </text>
<polyline fill="none" stroke="black" points="540.928,-74 685.072,-74 "/>
<text text-anchor="start" x="548.928" y="-62" font-family="Helvetica,sans-Serif" font-size="10.00">+ ListItemToggle()</text>
<text text-anchor="start" x="548.928" y="-52" font-family="Helvetica,sans-Serif" font-size="10.00">+ handle_event()</text>
<text text-anchor="start" x="548.928" y="-42" font-family="Helvetica,sans-Serif" font-size="10.00">+ set_enabled()</text>
<text text-anchor="start" x="548.928" y="-32" font-family="Helvetica,sans-Serif" font-size="10.00">+ set_toggle_disabled_icon()</text>
<text text-anchor="start" x="548.928" y="-22" font-family="Helvetica,sans-Serif" font-size="10.00">+ set_toggle_enabled_icon()</text>
</a>
</g>
</g>
<!-- Node10&#45;&gt;Node14 -->
<g id="edge13" class="edge"><title>Node10&#45;&gt;Node14</title>
<path fill="none" stroke="midnightblue" d="M391.328,-203.755C399.805,-188.391 410.602,-173.237 424,-162 462.766,-129.486 487.298,-149.702 532,-126 540.605,-121.437 549.252,-115.973 557.525,-110.206"/>
<polygon fill="none" stroke="midnightblue" points="388.132,-202.314 386.602,-212.797 394.336,-205.556 388.132,-202.314"/>
</g>
</g>
</svg>
