<?xml version="1.0" encoding="UTF-8" standalone="no"?>
<!DOCTYPE svg PUBLIC "-//W3C//DTD SVG 1.1//EN"
 "http://www.w3.org/Graphics/SVG/1.1/DTD/svg11.dtd">
<!-- Generated by graphviz version 2.36.0 (20140111.2315)
 -->
<!-- Title: api::FmtInfoObject Pages: 1 -->
<svg width="104pt" height="248pt"
 viewBox="0.00 0.00 104.00 248.00" xmlns="http://www.w3.org/2000/svg" xmlns:xlink="http://www.w3.org/1999/xlink">
<g id="graph0" class="graph" transform="scale(1 1) rotate(0) translate(4 244)">
<title>api::FmtInfoObject</title>
<!-- Node1 -->
<g id="node1" class="node"><title>Node1</title>
<polygon fill="#bfbfbf" stroke="black" points="-0.849609,-1 -0.849609,-55 96.8496,-55 96.8496,-1 -0.849609,-1"/>
<text text-anchor="middle" x="48" y="-43" font-family="Helvetica,sans-Serif" font-size="10.00">api::FmtInfoObject</text>
<polyline fill="none" stroke="black" points="-0.849609,-37 96.8496,-37 "/>
<text text-anchor="middle" x="48" y="-25" font-family="Helvetica,sans-Serif" font-size="10.00"> </text>
<polyline fill="none" stroke="black" points="-0.849609,-19 96.8496,-19 "/>
<text text-anchor="middle" x="48" y="-7" font-family="Helvetica,sans-Serif" font-size="10.00"> </text>
</g>
<!-- Node2 -->
<g id="node2" class="node"><title>Node2</title>
<g id="a_node2"><a xlink:href="classapi_1_1_info_object.html" target="_top" xlink:title="API Information Object. ">
<polygon fill="none" stroke="black" points="7.75879,-93 7.75879,-147 88.2412,-147 88.2412,-93 7.75879,-93"/>
<text text-anchor="middle" x="48" y="-135" font-family="Helvetica,sans-Serif" font-size="10.00">api::InfoObject</text>
<polyline fill="none" stroke="black" points="7.75879,-129 88.2412,-129 "/>
<text text-anchor="middle" x="48" y="-117" font-family="Helvetica,sans-Serif" font-size="10.00"> </text>
<polyline fill="none" stroke="black" points="7.75879,-111 88.2412,-111 "/>
<text text-anchor="middle" x="48" y="-99" font-family="Helvetica,sans-Serif" font-size="10.00"> </text>
</a>
</g>
</g>
<!-- Node2&#45;&gt;Node1 -->
<g id="edge1" class="edge"><title>Node2&#45;&gt;Node1</title>
<path fill="none" stroke="midnightblue" d="M48,-82.8649C48,-73.6445 48,-63.9071 48,-55.285"/>
<polygon fill="none" stroke="midnightblue" points="44.5001,-82.9682 48,-92.9683 51.5001,-82.9683 44.5001,-82.9682"/>
</g>
<!-- Node3 -->
<g id="node3" class="node"><title>Node3</title>
<g id="a_node3"><a xlink:href="classapi_1_1_api_object.html" target="_top" xlink:title="API Object Class. ">
<polygon fill="none" stroke="black" points="6.78955,-185 6.78955,-239 89.2104,-239 89.2104,-185 6.78955,-185"/>
<text text-anchor="middle" x="48" y="-227" font-family="Helvetica,sans-Serif" font-size="10.00">api::ApiObject</text>
<polyline fill="none" stroke="black" points="6.78955,-221 89.2104,-221 "/>
<text text-anchor="middle" x="48" y="-209" font-family="Helvetica,sans-Serif" font-size="10.00"> </text>
<polyline fill="none" stroke="black" points="6.78955,-203 89.2104,-203 "/>
<text text-anchor="start" x="14.7896" y="-191" font-family="Helvetica,sans-Serif" font-size="10.00">+ api_version()</text>
</a>
</g>
</g>
<!-- Node3&#45;&gt;Node2 -->
<g id="edge2" class="edge"><title>Node3&#45;&gt;Node2</title>
<path fill="none" stroke="midnightblue" d="M48,-174.865C48,-165.644 48,-155.907 48,-147.285"/>
<polygon fill="none" stroke="midnightblue" points="44.5001,-174.968 48,-184.968 51.5001,-174.968 44.5001,-174.968"/>
</g>
</g>
</svg>
