<?xml version="1.0" encoding="UTF-8" standalone="no"?>
<!DOCTYPE svg PUBLIC "-//W3C//DTD SVG 1.1//EN"
 "http://www.w3.org/Graphics/SVG/1.1/DTD/svg11.dtd">
<!-- Generated by graphviz version 2.36.0 (20140111.2315)
 -->
<!-- Title: calc::Rle Pages: 1 -->
<svg width="108pt" height="370pt"
 viewBox="0.00 0.00 108.00 370.00" xmlns="http://www.w3.org/2000/svg" xmlns:xlink="http://www.w3.org/1999/xlink">
<g id="graph0" class="graph" transform="scale(1 1) rotate(0) translate(4 366)">
<title>calc::Rle</title>
<!-- Node1 -->
<g id="node1" class="node"><title>Node1</title>
<polygon fill="#bfbfbf" stroke="black" points="13.7969,-1 13.7969,-85 86.2031,-85 86.2031,-1 13.7969,-1"/>
<text text-anchor="middle" x="50" y="-73" font-family="Helvetica,sans-Serif" font-size="10.00">calc::Rle</text>
<polyline fill="none" stroke="black" points="13.7969,-67 86.2031,-67 "/>
<text text-anchor="middle" x="50" y="-55" font-family="Helvetica,sans-Serif" font-size="10.00"> </text>
<polyline fill="none" stroke="black" points="13.7969,-49 86.2031,-49 "/>
<text text-anchor="start" x="21.7969" y="-37" font-family="Helvetica,sans-Serif" font-size="10.00">+ Rle()</text>
<text text-anchor="start" x="21.7969" y="-27" font-family="Helvetica,sans-Serif" font-size="10.00">+ calc_size()</text>
<text text-anchor="start" x="21.7969" y="-17" font-family="Helvetica,sans-Serif" font-size="10.00">+ decode()</text>
<text text-anchor="start" x="21.7969" y="-7" font-family="Helvetica,sans-Serif" font-size="10.00">+ encode()</text>
</g>
<!-- Node2 -->
<g id="node2" class="node"><title>Node2</title>
<g id="a_node2"><a xlink:href="classapi_1_1_calc_info_object.html" target="_top" xlink:title="Format Infomation Object. ">
<polygon fill="none" stroke="black" points="-0.243652,-123 -0.243652,-177 100.244,-177 100.244,-123 -0.243652,-123"/>
<text text-anchor="middle" x="50" y="-165" font-family="Helvetica,sans-Serif" font-size="10.00">api::CalcInfoObject</text>
<polyline fill="none" stroke="black" points="-0.243652,-159 100.244,-159 "/>
<text text-anchor="middle" x="50" y="-147" font-family="Helvetica,sans-Serif" font-size="10.00"> </text>
<polyline fill="none" stroke="black" points="-0.243652,-141 100.244,-141 "/>
<text text-anchor="middle" x="50" y="-129" font-family="Helvetica,sans-Serif" font-size="10.00"> </text>
</a>
</g>
</g>
<!-- Node2&#45;&gt;Node1 -->
<g id="edge1" class="edge"><title>Node2&#45;&gt;Node1</title>
<path fill="none" stroke="midnightblue" d="M50,-112.503C50,-103.755 50,-94.3512 50,-85.3987"/>
<polygon fill="none" stroke="midnightblue" points="46.5001,-112.775 50,-122.775 53.5001,-112.775 46.5001,-112.775"/>
</g>
<!-- Node3 -->
<g id="node3" class="node"><title>Node3</title>
<g id="a_node3"><a xlink:href="classapi_1_1_info_object.html" target="_top" xlink:title="API Information Object. ">
<polygon fill="none" stroke="black" points="9.75879,-215 9.75879,-269 90.2412,-269 90.2412,-215 9.75879,-215"/>
<text text-anchor="middle" x="50" y="-257" font-family="Helvetica,sans-Serif" font-size="10.00">api::InfoObject</text>
<polyline fill="none" stroke="black" points="9.75879,-251 90.2412,-251 "/>
<text text-anchor="middle" x="50" y="-239" font-family="Helvetica,sans-Serif" font-size="10.00"> </text>
<polyline fill="none" stroke="black" points="9.75879,-233 90.2412,-233 "/>
<text text-anchor="middle" x="50" y="-221" font-family="Helvetica,sans-Serif" font-size="10.00"> </text>
</a>
</g>
</g>
<!-- Node3&#45;&gt;Node2 -->
<g id="edge2" class="edge"><title>Node3&#45;&gt;Node2</title>
<path fill="none" stroke="midnightblue" d="M50,-204.865C50,-195.644 50,-185.907 50,-177.285"/>
<polygon fill="none" stroke="midnightblue" points="46.5001,-204.968 50,-214.968 53.5001,-204.968 46.5001,-204.968"/>
</g>
<!-- Node4 -->
<g id="node4" class="node"><title>Node4</title>
<g id="a_node4"><a xlink:href="classapi_1_1_api_object.html" target="_top" xlink:title="API Object Class. ">
<polygon fill="none" stroke="black" points="8.78955,-307 8.78955,-361 91.2104,-361 91.2104,-307 8.78955,-307"/>
<text text-anchor="middle" x="50" y="-349" font-family="Helvetica,sans-Serif" font-size="10.00">api::ApiObject</text>
<polyline fill="none" stroke="black" points="8.78955,-343 91.2104,-343 "/>
<text text-anchor="middle" x="50" y="-331" font-family="Helvetica,sans-Serif" font-size="10.00"> </text>
<polyline fill="none" stroke="black" points="8.78955,-325 91.2104,-325 "/>
<text text-anchor="start" x="16.7896" y="-313" font-family="Helvetica,sans-Serif" font-size="10.00">+ api_version()</text>
</a>
</g>
</g>
<!-- Node4&#45;&gt;Node3 -->
<g id="edge3" class="edge"><title>Node4&#45;&gt;Node3</title>
<path fill="none" stroke="midnightblue" d="M50,-296.865C50,-287.644 50,-277.907 50,-269.285"/>
<polygon fill="none" stroke="midnightblue" points="46.5001,-296.968 50,-306.968 53.5001,-296.968 46.5001,-296.968"/>
</g>
</g>
</svg>
