<?xml version="1.0" encoding="UTF-8" standalone="no"?>
<!DOCTYPE svg PUBLIC "-//W3C//DTD SVG 1.1//EN"
 "http://www.w3.org/Graphics/SVG/1.1/DTD/svg11.dtd">
<!-- Generated by graphviz version 2.36.0 (20140111.2315)
 -->
<!-- Title: sys::Sched Pages: 1 -->
<svg width="112pt" height="400pt"
 viewBox="0.00 0.00 112.00 400.00" xmlns="http://www.w3.org/2000/svg" xmlns:xlink="http://www.w3.org/1999/xlink">
<g id="graph0" class="graph" transform="scale(1 1) rotate(0) translate(4 396)">
<title>sys::Sched</title>
<!-- Node1 -->
<g id="node1" class="node"><title>Node1</title>
<polygon fill="#bfbfbf" stroke="black" points="-0.599609,-1 -0.599609,-115 104.6,-115 104.6,-1 -0.599609,-1"/>
<text text-anchor="middle" x="52" y="-103" font-family="Helvetica,sans-Serif" font-size="10.00">sys::Sched</text>
<polyline fill="none" stroke="black" points="-0.599609,-97 104.6,-97 "/>
<text text-anchor="middle" x="52" y="-85" font-family="Helvetica,sans-Serif" font-size="10.00"> </text>
<polyline fill="none" stroke="black" points="-0.599609,-79 104.6,-79 "/>
<text text-anchor="start" x="7.40039" y="-67" font-family="Helvetica,sans-Serif" font-size="10.00">+ get_pid()</text>
<text text-anchor="start" x="7.40039" y="-57" font-family="Helvetica,sans-Serif" font-size="10.00">+ get_priority()</text>
<text text-anchor="start" x="7.40039" y="-47" font-family="Helvetica,sans-Serif" font-size="10.00">+ get_priority_max()</text>
<text text-anchor="start" x="7.40039" y="-37" font-family="Helvetica,sans-Serif" font-size="10.00">+ get_priority_min()</text>
<text text-anchor="start" x="7.40039" y="-27" font-family="Helvetica,sans-Serif" font-size="10.00">+ get_rr_interval()</text>
<text text-anchor="start" x="7.40039" y="-17" font-family="Helvetica,sans-Serif" font-size="10.00">+ set_scheduler()</text>
<text text-anchor="start" x="7.40039" y="-7" font-family="Helvetica,sans-Serif" font-size="10.00">+ yield()</text>
</g>
<!-- Node2 -->
<g id="node2" class="node"><title>Node2</title>
<g id="a_node2"><a xlink:href="classapi_1_1_sys_info_object.html" target="_top" xlink:title="System Info Object. ">
<polygon fill="none" stroke="black" points="3.42383,-153 3.42383,-207 100.576,-207 100.576,-153 3.42383,-153"/>
<text text-anchor="middle" x="52" y="-195" font-family="Helvetica,sans-Serif" font-size="10.00">api::SysInfoObject</text>
<polyline fill="none" stroke="black" points="3.42383,-189 100.576,-189 "/>
<text text-anchor="middle" x="52" y="-177" font-family="Helvetica,sans-Serif" font-size="10.00"> </text>
<polyline fill="none" stroke="black" points="3.42383,-171 100.576,-171 "/>
<text text-anchor="middle" x="52" y="-159" font-family="Helvetica,sans-Serif" font-size="10.00"> </text>
</a>
</g>
</g>
<!-- Node2&#45;&gt;Node1 -->
<g id="edge1" class="edge"><title>Node2&#45;&gt;Node1</title>
<path fill="none" stroke="midnightblue" d="M52,-142.754C52,-134.008 52,-124.458 52,-115.039"/>
<polygon fill="none" stroke="midnightblue" points="48.5001,-142.962 52,-152.962 55.5001,-142.962 48.5001,-142.962"/>
</g>
<!-- Node3 -->
<g id="node3" class="node"><title>Node3</title>
<g id="a_node3"><a xlink:href="classapi_1_1_info_object.html" target="_top" xlink:title="API Information Object. ">
<polygon fill="none" stroke="black" points="11.7588,-245 11.7588,-299 92.2412,-299 92.2412,-245 11.7588,-245"/>
<text text-anchor="middle" x="52" y="-287" font-family="Helvetica,sans-Serif" font-size="10.00">api::InfoObject</text>
<polyline fill="none" stroke="black" points="11.7588,-281 92.2412,-281 "/>
<text text-anchor="middle" x="52" y="-269" font-family="Helvetica,sans-Serif" font-size="10.00"> </text>
<polyline fill="none" stroke="black" points="11.7588,-263 92.2412,-263 "/>
<text text-anchor="middle" x="52" y="-251" font-family="Helvetica,sans-Serif" font-size="10.00"> </text>
</a>
</g>
</g>
<!-- Node3&#45;&gt;Node2 -->
<g id="edge2" class="edge"><title>Node3&#45;&gt;Node2</title>
<path fill="none" stroke="midnightblue" d="M52,-234.865C52,-225.644 52,-215.907 52,-207.285"/>
<polygon fill="none" stroke="midnightblue" points="48.5001,-234.968 52,-244.968 55.5001,-234.968 48.5001,-234.968"/>
</g>
<!-- Node4 -->
<g id="node4" class="node"><title>Node4</title>
<g id="a_node4"><a xlink:href="classapi_1_1_api_object.html" target="_top" xlink:title="API Object Class. ">
<polygon fill="none" stroke="black" points="10.7896,-337 10.7896,-391 93.2104,-391 93.2104,-337 10.7896,-337"/>
<text text-anchor="middle" x="52" y="-379" font-family="Helvetica,sans-Serif" font-size="10.00">api::ApiObject</text>
<polyline fill="none" stroke="black" points="10.7896,-373 93.2104,-373 "/>
<text text-anchor="middle" x="52" y="-361" font-family="Helvetica,sans-Serif" font-size="10.00"> </text>
<polyline fill="none" stroke="black" points="10.7896,-355 93.2104,-355 "/>
<text text-anchor="start" x="18.7896" y="-343" font-family="Helvetica,sans-Serif" font-size="10.00">+ api_version()</text>
</a>
</g>
</g>
<!-- Node4&#45;&gt;Node3 -->
<g id="edge3" class="edge"><title>Node4&#45;&gt;Node3</title>
<path fill="none" stroke="midnightblue" d="M52,-326.865C52,-317.644 52,-307.907 52,-299.285"/>
<polygon fill="none" stroke="midnightblue" points="48.5001,-326.968 52,-336.968 55.5001,-326.968 48.5001,-326.968"/>
</g>
</g>
</svg>
