<?xml version="1.0" encoding="UTF-8" standalone="no"?>
<!DOCTYPE svg PUBLIC "-//W3C//DTD SVG 1.1//EN"
 "http://www.w3.org/Graphics/SVG/1.1/DTD/svg11.dtd">
<!-- Generated by graphviz version 2.36.0 (20140111.2315)
 -->
<!-- Title: ui::DeviceButton Pages: 1 -->
<svg width="243pt" height="976pt"
 viewBox="0.00 0.00 243.00 976.00" xmlns="http://www.w3.org/2000/svg" xmlns:xlink="http://www.w3.org/1999/xlink">
<g id="graph0" class="graph" transform="scale(1 1) rotate(0) translate(4 972)">
<title>ui::DeviceButton</title>
<!-- Node1 -->
<g id="node1" class="node"><title>Node1</title>
<polygon fill="#bfbfbf" stroke="black" points="83.6221,-1 83.6221,-125 174.378,-125 174.378,-1 83.6221,-1"/>
<text text-anchor="middle" x="129" y="-113" font-family="Helvetica,sans-Serif" font-size="10.00">ui::DeviceButton</text>
<polyline fill="none" stroke="black" points="83.6221,-107 174.378,-107 "/>
<text text-anchor="middle" x="129" y="-95" font-family="Helvetica,sans-Serif" font-size="10.00"> </text>
<polyline fill="none" stroke="black" points="83.6221,-89 174.378,-89 "/>
<text text-anchor="start" x="91.6221" y="-77" font-family="Helvetica,sans-Serif" font-size="10.00">+ DeviceButton()</text>
<text text-anchor="start" x="91.6221" y="-67" font-family="Helvetica,sans-Serif" font-size="10.00">+ count()</text>
<text text-anchor="start" x="91.6221" y="-57" font-family="Helvetica,sans-Serif" font-size="10.00">+ event_id()</text>
<text text-anchor="start" x="91.6221" y="-47" font-family="Helvetica,sans-Serif" font-size="10.00">+ get_actuated()</text>
<text text-anchor="start" x="91.6221" y="-37" font-family="Helvetica,sans-Serif" font-size="10.00">+ get_duration()</text>
<text text-anchor="start" x="91.6221" y="-27" font-family="Helvetica,sans-Serif" font-size="10.00">+ get_held()</text>
<text text-anchor="start" x="91.6221" y="-17" font-family="Helvetica,sans-Serif" font-size="10.00">and 7 more...</text>
<text text-anchor="start" x="91.6221" y="-7" font-family="Helvetica,sans-Serif" font-size="10.00"># update()</text>
</g>
<!-- Node2 -->
<g id="node2" class="node"><title>Node2</title>
<g id="a_node2"><a xlink:href="classui_1_1_button.html" target="_top" xlink:title="Button Class. ">
<polygon fill="none" stroke="black" points="-0.168457,-275 -0.168457,-409 116.168,-409 116.168,-275 -0.168457,-275"/>
<text text-anchor="middle" x="58" y="-397" font-family="Helvetica,sans-Serif" font-size="10.00">ui::Button</text>
<polyline fill="none" stroke="black" points="-0.168457,-391 116.168,-391 "/>
<text text-anchor="middle" x="58" y="-379" font-family="Helvetica,sans-Serif" font-size="10.00"> </text>
<polyline fill="none" stroke="black" points="-0.168457,-373 116.168,-373 "/>
<text text-anchor="start" x="7.83154" y="-361" font-family="Helvetica,sans-Serif" font-size="10.00">+ event()</text>
<text text-anchor="start" x="7.83154" y="-351" font-family="Helvetica,sans-Serif" font-size="10.00">+ event_id()</text>
<text text-anchor="start" x="7.83154" y="-341" font-family="Helvetica,sans-Serif" font-size="10.00">+ get_actuated()</text>
<text text-anchor="start" x="7.83154" y="-331" font-family="Helvetica,sans-Serif" font-size="10.00">+ get_duration()</text>
<text text-anchor="start" x="7.83154" y="-321" font-family="Helvetica,sans-Serif" font-size="10.00">+ get_event()</text>
<text text-anchor="start" x="7.83154" y="-311" font-family="Helvetica,sans-Serif" font-size="10.00">+ get_held()</text>
<text text-anchor="start" x="7.83154" y="-301" font-family="Helvetica,sans-Serif" font-size="10.00">and 4 more...</text>
<text text-anchor="start" x="7.83154" y="-291" font-family="Helvetica,sans-Serif" font-size="10.00">+ max_held_duration()</text>
<text text-anchor="start" x="7.83154" y="-281" font-family="Helvetica,sans-Serif" font-size="10.00"># update()</text>
</a>
</g>
</g>
<!-- Node2&#45;&gt;Node1 -->
<g id="edge1" class="edge"><title>Node2&#45;&gt;Node1</title>
<path fill="none" stroke="midnightblue" d="M77.5159,-264.86C88.7946,-220.858 102.794,-166.241 113.346,-125.073"/>
<polygon fill="none" stroke="midnightblue" points="74.0989,-264.096 75.0063,-274.652 80.8797,-265.834 74.0989,-264.096"/>
</g>
<!-- Node3 -->
<g id="node3" class="node"><title>Node3</title>
<g id="a_node3"><a xlink:href="classapi_1_1_ui_work_object.html" target="_top" xlink:title="User Interface Work Object Class. ">
<polygon fill="none" stroke="black" points="14.7998,-502 14.7998,-556 111.2,-556 111.2,-502 14.7998,-502"/>
<text text-anchor="middle" x="63" y="-544" font-family="Helvetica,sans-Serif" font-size="10.00">api::UiWorkObject</text>
<polyline fill="none" stroke="black" points="14.7998,-538 111.2,-538 "/>
<text text-anchor="middle" x="63" y="-526" font-family="Helvetica,sans-Serif" font-size="10.00"> </text>
<polyline fill="none" stroke="black" points="14.7998,-520 111.2,-520 "/>
<text text-anchor="middle" x="63" y="-508" font-family="Helvetica,sans-Serif" font-size="10.00"> </text>
</a>
</g>
</g>
<!-- Node3&#45;&gt;Node2 -->
<g id="edge2" class="edge"><title>Node3&#45;&gt;Node2</title>
<path fill="none" stroke="midnightblue" d="M62.0188,-491.696C61.3848,-468.239 60.5411,-437.019 59.7904,-409.243"/>
<polygon fill="none" stroke="midnightblue" points="58.5252,-491.985 62.2942,-501.886 65.5227,-491.795 58.5252,-491.985"/>
</g>
<!-- Node4 -->
<g id="node4" class="node"><title>Node4</title>
<g id="a_node4"><a xlink:href="classapi_1_1_work_object.html" target="_top" xlink:title="WorkObject Class. ">
<polygon fill="none" stroke="black" points="49.4521,-741 49.4521,-875 168.548,-875 168.548,-741 49.4521,-741"/>
<text text-anchor="middle" x="109" y="-863" font-family="Helvetica,sans-Serif" font-size="10.00">api::WorkObject</text>
<polyline fill="none" stroke="black" points="49.4521,-857 168.548,-857 "/>
<text text-anchor="middle" x="109" y="-845" font-family="Helvetica,sans-Serif" font-size="10.00"> </text>
<polyline fill="none" stroke="black" points="49.4521,-839 168.548,-839 "/>
<text text-anchor="start" x="57.4521" y="-827" font-family="Helvetica,sans-Serif" font-size="10.00">+ WorkObject()</text>
<text text-anchor="start" x="57.4521" y="-817" font-family="Helvetica,sans-Serif" font-size="10.00">+ clear_error_number()</text>
<text text-anchor="start" x="57.4521" y="-807" font-family="Helvetica,sans-Serif" font-size="10.00">+ error_number()</text>
<text text-anchor="start" x="57.4521" y="-797" font-family="Helvetica,sans-Serif" font-size="10.00">+ exit_fatal()</text>
<text text-anchor="start" x="57.4521" y="-787" font-family="Helvetica,sans-Serif" font-size="10.00"># set_error_number()</text>
<text text-anchor="start" x="57.4521" y="-777" font-family="Helvetica,sans-Serif" font-size="10.00"># set_error_number_if</text>
<text text-anchor="start" x="57.4521" y="-767" font-family="Helvetica,sans-Serif" font-size="10.00">_error()</text>
<text text-anchor="start" x="57.4521" y="-757" font-family="Helvetica,sans-Serif" font-size="10.00"># set_error_number_to</text>
<text text-anchor="start" x="57.4521" y="-747" font-family="Helvetica,sans-Serif" font-size="10.00">_errno()</text>
</a>
</g>
</g>
<!-- Node4&#45;&gt;Node3 -->
<g id="edge3" class="edge"><title>Node4&#45;&gt;Node3</title>
<path fill="none" stroke="midnightblue" d="M96.3384,-730.755C86.6807,-672.599 73.9523,-595.952 67.3669,-556.297"/>
<polygon fill="none" stroke="midnightblue" points="92.8908,-731.36 97.9819,-740.652 99.7963,-730.213 92.8908,-731.36"/>
</g>
<!-- Node9 -->
<g id="node9" class="node"><title>Node9</title>
<g id="a_node9"><a xlink:href="classapi_1_1_sys_work_object.html" target="_top" xlink:title="System Work Object Class. ">
<polygon fill="none" stroke="black" points="110.187,-649 110.187,-703 213.813,-703 213.813,-649 110.187,-649"/>
<text text-anchor="middle" x="162" y="-691" font-family="Helvetica,sans-Serif" font-size="10.00">api::SysWorkObject</text>
<polyline fill="none" stroke="black" points="110.187,-685 213.813,-685 "/>
<text text-anchor="middle" x="162" y="-673" font-family="Helvetica,sans-Serif" font-size="10.00"> </text>
<polyline fill="none" stroke="black" points="110.187,-667 213.813,-667 "/>
<text text-anchor="middle" x="162" y="-655" font-family="Helvetica,sans-Serif" font-size="10.00"> </text>
</a>
</g>
</g>
<!-- Node4&#45;&gt;Node9 -->
<g id="edge9" class="edge"><title>Node4&#45;&gt;Node9</title>
<path fill="none" stroke="midnightblue" d="M139.797,-731.46C143.938,-721.302 147.935,-711.498 151.37,-703.074"/>
<polygon fill="none" stroke="midnightblue" points="136.5,-730.276 135.966,-740.857 142.982,-732.919 136.5,-730.276"/>
</g>
<!-- Node5 -->
<g id="node5" class="node"><title>Node5</title>
<g id="a_node5"><a xlink:href="classapi_1_1_api_object.html" target="_top" xlink:title="API Object Class. ">
<polygon fill="none" stroke="black" points="67.7896,-913 67.7896,-967 150.21,-967 150.21,-913 67.7896,-913"/>
<text text-anchor="middle" x="109" y="-955" font-family="Helvetica,sans-Serif" font-size="10.00">api::ApiObject</text>
<polyline fill="none" stroke="black" points="67.7896,-949 150.21,-949 "/>
<text text-anchor="middle" x="109" y="-937" font-family="Helvetica,sans-Serif" font-size="10.00"> </text>
<polyline fill="none" stroke="black" points="67.7896,-931 150.21,-931 "/>
<text text-anchor="start" x="75.7896" y="-919" font-family="Helvetica,sans-Serif" font-size="10.00">+ api_version()</text>
</a>
</g>
</g>
<!-- Node5&#45;&gt;Node4 -->
<g id="edge4" class="edge"><title>Node5&#45;&gt;Node4</title>
<path fill="none" stroke="midnightblue" d="M109,-902.644C109,-894.02 109,-884.555 109,-875.059"/>
<polygon fill="none" stroke="midnightblue" points="105.5,-902.693 109,-912.693 112.5,-902.693 105.5,-902.693"/>
</g>
<!-- Node6 -->
<g id="node6" class="node"><title>Node6</title>
<g id="a_node6"><a xlink:href="classhal_1_1_device.html" target="_top" xlink:title="Device Class. ">
<polygon fill="none" stroke="black" points="135.266,-163 135.266,-237 200.734,-237 200.734,-163 135.266,-163"/>
<text text-anchor="middle" x="168" y="-225" font-family="Helvetica,sans-Serif" font-size="10.00">hal::Device</text>
<polyline fill="none" stroke="black" points="135.266,-219 200.734,-219 "/>
<text text-anchor="middle" x="168" y="-207" font-family="Helvetica,sans-Serif" font-size="10.00"> </text>
<polyline fill="none" stroke="black" points="135.266,-201 200.734,-201 "/>
<text text-anchor="start" x="143.266" y="-189" font-family="Helvetica,sans-Serif" font-size="10.00">+ Device()</text>
<text text-anchor="start" x="143.266" y="-179" font-family="Helvetica,sans-Serif" font-size="10.00">+ read()</text>
<text text-anchor="start" x="143.266" y="-169" font-family="Helvetica,sans-Serif" font-size="10.00">+ write()</text>
</a>
</g>
</g>
<!-- Node6&#45;&gt;Node1 -->
<g id="edge5" class="edge"><title>Node6&#45;&gt;Node1</title>
<path fill="none" stroke="midnightblue" d="M154.699,-152.957C152.103,-143.972 149.344,-134.42 146.633,-125.037"/>
<polygon fill="none" stroke="midnightblue" points="151.411,-154.187 157.549,-162.822 158.136,-152.244 151.411,-154.187"/>
</g>
<!-- Node7 -->
<g id="node7" class="node"><title>Node7</title>
<g id="a_node7"><a xlink:href="classapi_1_1_hal_work_object.html" target="_top" xlink:title="Hal Object Class. ">
<polygon fill="none" stroke="black" points="134.019,-315 134.019,-369 235.981,-369 235.981,-315 134.019,-315"/>
<text text-anchor="middle" x="185" y="-357" font-family="Helvetica,sans-Serif" font-size="10.00">api::HalWorkObject</text>
<polyline fill="none" stroke="black" points="134.019,-351 235.981,-351 "/>
<text text-anchor="middle" x="185" y="-339" font-family="Helvetica,sans-Serif" font-size="10.00"> </text>
<polyline fill="none" stroke="black" points="134.019,-333 235.981,-333 "/>
<text text-anchor="middle" x="185" y="-321" font-family="Helvetica,sans-Serif" font-size="10.00"> </text>
</a>
</g>
</g>
<!-- Node7&#45;&gt;Node6 -->
<g id="edge6" class="edge"><title>Node7&#45;&gt;Node6</title>
<path fill="none" stroke="midnightblue" d="M180.622,-304.943C178.093,-284.116 174.921,-258 172.39,-237.157"/>
<polygon fill="none" stroke="midnightblue" points="177.162,-305.49 181.842,-314.995 184.111,-304.646 177.162,-305.49"/>
</g>
<!-- Node8 -->
<g id="node8" class="node"><title>Node8</title>
<g id="a_node8"><a xlink:href="classsys_1_1_file.html" target="_top" xlink:title="File Class. ">
<polygon fill="none" stroke="black" points="138.759,-447 138.759,-611 219.241,-611 219.241,-447 138.759,-447"/>
<text text-anchor="middle" x="179" y="-599" font-family="Helvetica,sans-Serif" font-size="10.00">sys::File</text>
<polyline fill="none" stroke="black" points="138.759,-593 219.241,-593 "/>
<text text-anchor="start" x="146.759" y="-581" font-family="Helvetica,sans-Serif" font-size="10.00"># m_fd</text>
<polyline fill="none" stroke="black" points="138.759,-575 219.241,-575 "/>
<text text-anchor="start" x="146.759" y="-563" font-family="Helvetica,sans-Serif" font-size="10.00">+ File()</text>
<text text-anchor="start" x="146.759" y="-553" font-family="Helvetica,sans-Serif" font-size="10.00">+ close()</text>
<text text-anchor="start" x="146.759" y="-543" font-family="Helvetica,sans-Serif" font-size="10.00">+ create()</text>
<text text-anchor="start" x="146.759" y="-533" font-family="Helvetica,sans-Serif" font-size="10.00">+ fileno()</text>
<text text-anchor="start" x="146.759" y="-523" font-family="Helvetica,sans-Serif" font-size="10.00">+ flags()</text>
<text text-anchor="start" x="146.759" y="-513" font-family="Helvetica,sans-Serif" font-size="10.00">+ gets()</text>
<text text-anchor="start" x="146.759" y="-503" font-family="Helvetica,sans-Serif" font-size="10.00">and 21 more...</text>
<text text-anchor="start" x="146.759" y="-493" font-family="Helvetica,sans-Serif" font-size="10.00">+ name()</text>
<text text-anchor="start" x="146.759" y="-483" font-family="Helvetica,sans-Serif" font-size="10.00">+ remove()</text>
<text text-anchor="start" x="146.759" y="-473" font-family="Helvetica,sans-Serif" font-size="10.00">+ size()</text>
<text text-anchor="start" x="146.759" y="-463" font-family="Helvetica,sans-Serif" font-size="10.00">+ stat()</text>
<text text-anchor="start" x="146.759" y="-453" font-family="Helvetica,sans-Serif" font-size="10.00">+ suffix()</text>
</a>
</g>
</g>
<!-- Node8&#45;&gt;Node7 -->
<g id="edge7" class="edge"><title>Node8&#45;&gt;Node7</title>
<path fill="none" stroke="midnightblue" d="M181.963,-436.656C182.765,-411.916 183.571,-387.067 184.151,-369.187"/>
<polygon fill="none" stroke="midnightblue" points="178.458,-436.748 181.632,-446.856 185.454,-436.975 178.458,-436.748"/>
</g>
<!-- Node9&#45;&gt;Node8 -->
<g id="edge8" class="edge"><title>Node9&#45;&gt;Node8</title>
<path fill="none" stroke="midnightblue" d="M166.246,-638.781C167.252,-630.206 168.364,-620.718 169.501,-611.024"/>
<polygon fill="none" stroke="midnightblue" points="162.767,-638.402 165.079,-648.742 169.719,-639.217 162.767,-638.402"/>
</g>
</g>
</svg>
