<?xml version="1.0" encoding="UTF-8" standalone="no"?>
<!DOCTYPE svg PUBLIC "-//W3C//DTD SVG 1.1//EN"
 "http://www.w3.org/Graphics/SVG/1.1/DTD/svg11.dtd">
<!-- Generated by graphviz version 2.36.0 (20140111.2315)
 -->
<!-- Title: sys::Thread Pages: 1 -->
<svg width="150pt" height="540pt"
 viewBox="0.00 0.00 150.00 540.00" xmlns="http://www.w3.org/2000/svg" xmlns:xlink="http://www.w3.org/1999/xlink">
<g id="graph0" class="graph" transform="scale(1 1) rotate(0) translate(4 536)">
<title>sys::Thread</title>
<!-- Node1 -->
<g id="node1" class="node"><title>Node1</title>
<polygon fill="#bfbfbf" stroke="black" points="19.7773,-1 19.7773,-165 122.223,-165 122.223,-1 19.7773,-1"/>
<text text-anchor="middle" x="71" y="-153" font-family="Helvetica,sans-Serif" font-size="10.00">sys::Thread</text>
<polyline fill="none" stroke="black" points="19.7773,-147 122.223,-147 "/>
<text text-anchor="middle" x="71" y="-135" font-family="Helvetica,sans-Serif" font-size="10.00"> </text>
<polyline fill="none" stroke="black" points="19.7773,-129 122.223,-129 "/>
<text text-anchor="start" x="27.7773" y="-117" font-family="Helvetica,sans-Serif" font-size="10.00">+ Thread()</text>
<text text-anchor="start" x="27.7773" y="-107" font-family="Helvetica,sans-Serif" font-size="10.00">+ ~Thread()</text>
<text text-anchor="start" x="27.7773" y="-97" font-family="Helvetica,sans-Serif" font-size="10.00">+ attr()</text>
<text text-anchor="start" x="27.7773" y="-87" font-family="Helvetica,sans-Serif" font-size="10.00">+ create()</text>
<text text-anchor="start" x="27.7773" y="-77" font-family="Helvetica,sans-Serif" font-size="10.00">+ get_detachstate()</text>
<text text-anchor="start" x="27.7773" y="-67" font-family="Helvetica,sans-Serif" font-size="10.00">+ get_policy()</text>
<text text-anchor="start" x="27.7773" y="-57" font-family="Helvetica,sans-Serif" font-size="10.00">and 12 more...</text>
<text text-anchor="start" x="27.7773" y="-47" font-family="Helvetica,sans-Serif" font-size="10.00">+ get_pid()</text>
<text text-anchor="start" x="27.7773" y="-37" font-family="Helvetica,sans-Serif" font-size="10.00">+ join()</text>
<text text-anchor="start" x="27.7773" y="-27" font-family="Helvetica,sans-Serif" font-size="10.00">+ join()</text>
<text text-anchor="start" x="27.7773" y="-17" font-family="Helvetica,sans-Serif" font-size="10.00">+ self()</text>
<text text-anchor="start" x="27.7773" y="-7" font-family="Helvetica,sans-Serif" font-size="10.00">+ yield()</text>
</g>
<!-- Node2 -->
<g id="node2" class="node"><title>Node2</title>
<g id="a_node2"><a xlink:href="classapi_1_1_sys_work_object.html" target="_top" xlink:title="System Work Object. ">
<polygon fill="none" stroke="black" points="19.1865,-203 19.1865,-257 122.813,-257 122.813,-203 19.1865,-203"/>
<text text-anchor="middle" x="71" y="-245" font-family="Helvetica,sans-Serif" font-size="10.00">api::SysWorkObject</text>
<polyline fill="none" stroke="black" points="19.1865,-239 122.813,-239 "/>
<text text-anchor="middle" x="71" y="-227" font-family="Helvetica,sans-Serif" font-size="10.00"> </text>
<polyline fill="none" stroke="black" points="19.1865,-221 122.813,-221 "/>
<text text-anchor="middle" x="71" y="-209" font-family="Helvetica,sans-Serif" font-size="10.00"> </text>
</a>
</g>
</g>
<!-- Node2&#45;&gt;Node1 -->
<g id="edge1" class="edge"><title>Node2&#45;&gt;Node1</title>
<path fill="none" stroke="midnightblue" d="M71,-192.498C71,-183.997 71,-174.612 71,-165.024"/>
<polygon fill="none" stroke="midnightblue" points="67.5001,-192.742 71,-202.742 74.5001,-192.742 67.5001,-192.742"/>
</g>
<!-- Node3 -->
<g id="node3" class="node"><title>Node3</title>
<g id="a_node3"><a xlink:href="classapi_1_1_work_object.html" target="_top" xlink:title="Work Object. ">
<polygon fill="none" stroke="black" points="-0.0859375,-295 -0.0859375,-439 142.086,-439 142.086,-295 -0.0859375,-295"/>
<text text-anchor="middle" x="71" y="-427" font-family="Helvetica,sans-Serif" font-size="10.00">api::WorkObject</text>
<polyline fill="none" stroke="black" points="-0.0859375,-421 142.086,-421 "/>
<text text-anchor="middle" x="71" y="-409" font-family="Helvetica,sans-Serif" font-size="10.00"> </text>
<polyline fill="none" stroke="black" points="-0.0859375,-403 142.086,-403 "/>
<text text-anchor="start" x="7.91406" y="-391" font-family="Helvetica,sans-Serif" font-size="10.00">+ WorkObject()</text>
<text text-anchor="start" x="7.91406" y="-381" font-family="Helvetica,sans-Serif" font-size="10.00">+ clear_error_number()</text>
<text text-anchor="start" x="7.91406" y="-371" font-family="Helvetica,sans-Serif" font-size="10.00">+ error_number()</text>
<text text-anchor="start" x="7.91406" y="-361" font-family="Helvetica,sans-Serif" font-size="10.00">+ exit_fatal()</text>
<text text-anchor="start" x="7.91406" y="-351" font-family="Helvetica,sans-Serif" font-size="10.00"># set_error_number()</text>
<text text-anchor="start" x="7.91406" y="-341" font-family="Helvetica,sans-Serif" font-size="10.00"># set_error_number_if</text>
<text text-anchor="start" x="7.91406" y="-331" font-family="Helvetica,sans-Serif" font-size="10.00">_error()</text>
<text text-anchor="start" x="7.91406" y="-321" font-family="Helvetica,sans-Serif" font-size="10.00"># set_error_number_if_null()</text>
<text text-anchor="start" x="7.91406" y="-311" font-family="Helvetica,sans-Serif" font-size="10.00"># set_error_number_to</text>
<text text-anchor="start" x="7.91406" y="-301" font-family="Helvetica,sans-Serif" font-size="10.00">_errno()</text>
</a>
</g>
</g>
<!-- Node3&#45;&gt;Node2 -->
<g id="edge2" class="edge"><title>Node3&#45;&gt;Node2</title>
<path fill="none" stroke="midnightblue" d="M71,-284.911C71,-274.983 71,-265.464 71,-257.262"/>
<polygon fill="none" stroke="midnightblue" points="67.5001,-284.942 71,-294.942 74.5001,-284.942 67.5001,-284.942"/>
</g>
<!-- Node4 -->
<g id="node4" class="node"><title>Node4</title>
<g id="a_node4"><a xlink:href="classapi_1_1_api_object.html" target="_top" xlink:title="Application Programming Interface Object. ">
<polygon fill="none" stroke="black" points="29.7896,-477 29.7896,-531 112.21,-531 112.21,-477 29.7896,-477"/>
<text text-anchor="middle" x="71" y="-519" font-family="Helvetica,sans-Serif" font-size="10.00">api::ApiObject</text>
<polyline fill="none" stroke="black" points="29.7896,-513 112.21,-513 "/>
<text text-anchor="middle" x="71" y="-501" font-family="Helvetica,sans-Serif" font-size="10.00"> </text>
<polyline fill="none" stroke="black" points="29.7896,-495 112.21,-495 "/>
<text text-anchor="start" x="37.7896" y="-483" font-family="Helvetica,sans-Serif" font-size="10.00">+ api_version()</text>
</a>
</g>
</g>
<!-- Node4&#45;&gt;Node3 -->
<g id="edge3" class="edge"><title>Node4&#45;&gt;Node3</title>
<path fill="none" stroke="midnightblue" d="M71,-466.925C71,-458.287 71,-448.765 71,-439.145"/>
<polygon fill="none" stroke="midnightblue" points="67.5001,-466.971 71,-476.971 74.5001,-466.971 67.5001,-466.971"/>
</g>
</g>
</svg>
