<?xml version="1.0" encoding="UTF-8" standalone="no"?>
<!DOCTYPE svg PUBLIC "-//W3C//DTD SVG 1.1//EN"
 "http://www.w3.org/Graphics/SVG/1.1/DTD/svg11.dtd">
<!-- Generated by graphviz version 2.36.0 (20140111.2315)
 -->
<!-- Title: sgfx::Pen Pages: 1 -->
<svg width="210pt" height="744pt"
 viewBox="0.00 0.00 210.00 744.00" xmlns="http://www.w3.org/2000/svg" xmlns:xlink="http://www.w3.org/1999/xlink">
<g id="graph0" class="graph" transform="scale(1 1) rotate(0) translate(4 740)">
<title>sgfx::Pen</title>
<!-- Node1 -->
<g id="node1" class="node"><title>Node1</title>
<polygon fill="#bfbfbf" stroke="black" points="34.1274,-1 34.1274,-115 113.873,-115 113.873,-1 34.1274,-1"/>
<text text-anchor="middle" x="74" y="-103" font-family="Helvetica,sans-Serif" font-size="10.00">sgfx::Pen</text>
<polyline fill="none" stroke="black" points="34.1274,-97 113.873,-97 "/>
<text text-anchor="middle" x="74" y="-85" font-family="Helvetica,sans-Serif" font-size="10.00"> </text>
<polyline fill="none" stroke="black" points="34.1274,-79 113.873,-79 "/>
<text text-anchor="start" x="42.1274" y="-67" font-family="Helvetica,sans-Serif" font-size="10.00">+ Pen()</text>
<text text-anchor="start" x="42.1274" y="-57" font-family="Helvetica,sans-Serif" font-size="10.00">+ Pen()</text>
<text text-anchor="start" x="42.1274" y="-47" font-family="Helvetica,sans-Serif" font-size="10.00">+ Pen()</text>
<text text-anchor="start" x="42.1274" y="-37" font-family="Helvetica,sans-Serif" font-size="10.00">+ color()</text>
<text text-anchor="start" x="42.1274" y="-27" font-family="Helvetica,sans-Serif" font-size="10.00">+ is_blend()</text>
<text text-anchor="start" x="42.1274" y="-17" font-family="Helvetica,sans-Serif" font-size="10.00">+ is_erase()</text>
<text text-anchor="start" x="42.1274" y="-7" font-family="Helvetica,sans-Serif" font-size="10.00">and 11 more...</text>
</g>
<!-- Node2 -->
<g id="node2" class="node"><title>Node2</title>
<g id="a_node2"><a xlink:href="classvar_1_1_item.html" target="_top" xlink:title="{var::Item\&lt; sg_pen_t \&gt;\n||+ Item()\l+ Item()\l+ Item()\l+ data_const()\l+ item()\l+ operator const sg_pen_t &amp;()\l+ operator const sg_pen_t *()\l+ size()\l+ value()\l# data()\l# data_void()\l# data_void_const()\l# set()\l# set()\l}">
<polygon fill="none" stroke="black" points="-0.289062,-155 -0.289062,-339 148.289,-339 148.289,-155 -0.289062,-155"/>
<text text-anchor="middle" x="74" y="-327" font-family="Helvetica,sans-Serif" font-size="10.00">var::Item&lt; sg_pen_t &gt;</text>
<polyline fill="none" stroke="black" points="-0.289062,-321 148.289,-321 "/>
<text text-anchor="middle" x="74" y="-309" font-family="Helvetica,sans-Serif" font-size="10.00"> </text>
<polyline fill="none" stroke="black" points="-0.289062,-303 148.289,-303 "/>
<text text-anchor="start" x="7.71094" y="-291" font-family="Helvetica,sans-Serif" font-size="10.00">+ Item()</text>
<text text-anchor="start" x="7.71094" y="-281" font-family="Helvetica,sans-Serif" font-size="10.00">+ Item()</text>
<text text-anchor="start" x="7.71094" y="-271" font-family="Helvetica,sans-Serif" font-size="10.00">+ Item()</text>
<text text-anchor="start" x="7.71094" y="-261" font-family="Helvetica,sans-Serif" font-size="10.00">+ data_const()</text>
<text text-anchor="start" x="7.71094" y="-251" font-family="Helvetica,sans-Serif" font-size="10.00">+ item()</text>
<text text-anchor="start" x="7.71094" y="-241" font-family="Helvetica,sans-Serif" font-size="10.00">+ operator const sg_pen_t &amp;()</text>
<text text-anchor="start" x="7.71094" y="-231" font-family="Helvetica,sans-Serif" font-size="10.00">+ operator const sg_pen_t *()</text>
<text text-anchor="start" x="7.71094" y="-221" font-family="Helvetica,sans-Serif" font-size="10.00">+ size()</text>
<text text-anchor="start" x="7.71094" y="-211" font-family="Helvetica,sans-Serif" font-size="10.00">+ value()</text>
<text text-anchor="start" x="7.71094" y="-201" font-family="Helvetica,sans-Serif" font-size="10.00"># data()</text>
<text text-anchor="start" x="7.71094" y="-191" font-family="Helvetica,sans-Serif" font-size="10.00"># data_void()</text>
<text text-anchor="start" x="7.71094" y="-181" font-family="Helvetica,sans-Serif" font-size="10.00"># data_void_const()</text>
<text text-anchor="start" x="7.71094" y="-171" font-family="Helvetica,sans-Serif" font-size="10.00"># set()</text>
<text text-anchor="start" x="7.71094" y="-161" font-family="Helvetica,sans-Serif" font-size="10.00"># set()</text>
</a>
</g>
</g>
<!-- Node2&#45;&gt;Node1 -->
<g id="edge1" class="edge"><title>Node2&#45;&gt;Node1</title>
<path fill="none" stroke="midnightblue" d="M74,-144.799C74,-134.656 74,-124.634 74,-115.216"/>
<polygon fill="none" stroke="midnightblue" points="70.5001,-144.965 74,-154.965 77.5001,-144.965 70.5001,-144.965"/>
</g>
<!-- Node3 -->
<g id="node3" class="node"><title>Node3</title>
<g id="a_node3"><a xlink:href="classvar_1_1_item_object.html" target="_top" xlink:title="Abstract Item for storing binary data. ">
<polygon fill="none" stroke="black" points="33.084,-631 33.084,-735 136.916,-735 136.916,-631 33.084,-631"/>
<text text-anchor="middle" x="85" y="-723" font-family="Helvetica,sans-Serif" font-size="10.00">var::ItemObject</text>
<polyline fill="none" stroke="black" points="33.084,-717 136.916,-717 "/>
<text text-anchor="middle" x="85" y="-705" font-family="Helvetica,sans-Serif" font-size="10.00"> </text>
<polyline fill="none" stroke="black" points="33.084,-699 136.916,-699 "/>
<text text-anchor="start" x="41.084" y="-687" font-family="Helvetica,sans-Serif" font-size="10.00">+ clear()</text>
<text text-anchor="start" x="41.084" y="-677" font-family="Helvetica,sans-Serif" font-size="10.00">+ load()</text>
<text text-anchor="start" x="41.084" y="-667" font-family="Helvetica,sans-Serif" font-size="10.00">+ save()</text>
<text text-anchor="start" x="41.084" y="-657" font-family="Helvetica,sans-Serif" font-size="10.00">+ size()</text>
<text text-anchor="start" x="41.084" y="-647" font-family="Helvetica,sans-Serif" font-size="10.00"># data_void()</text>
<text text-anchor="start" x="41.084" y="-637" font-family="Helvetica,sans-Serif" font-size="10.00"># data_void_const()</text>
</a>
</g>
</g>
<!-- Node3&#45;&gt;Node2 -->
<g id="edge2" class="edge"><title>Node3&#45;&gt;Node2</title>
<path fill="none" stroke="midnightblue" d="M78.8695,-620.439C78.1125,-610.925 77.4485,-601.205 77,-592 72.8288,-506.397 72.3913,-408.674 72.8123,-339.316"/>
<polygon fill="none" stroke="midnightblue" points="75.4018,-620.973 79.7215,-630.647 82.3775,-620.391 75.4018,-620.973"/>
</g>
<!-- Node4 -->
<g id="node4" class="node"><title>Node4</title>
<g id="a_node4"><a xlink:href="classvar_1_1_item.html" target="_top" xlink:title="Item Class for storing and accessing binary data. ">
<polygon fill="none" stroke="black" points="85.9707,-387 85.9707,-591 202.029,-591 202.029,-387 85.9707,-387"/>
<text text-anchor="middle" x="144" y="-579" font-family="Helvetica,sans-Serif" font-size="10.00">var::Item&lt; data_type &gt;</text>
<polyline fill="none" stroke="black" points="85.9707,-573 202.029,-573 "/>
<text text-anchor="middle" x="144" y="-561" font-family="Helvetica,sans-Serif" font-size="10.00"> </text>
<polyline fill="none" stroke="black" points="85.9707,-555 202.029,-555 "/>
<text text-anchor="start" x="93.9707" y="-543" font-family="Helvetica,sans-Serif" font-size="10.00">+ Item()</text>
<text text-anchor="start" x="93.9707" y="-533" font-family="Helvetica,sans-Serif" font-size="10.00">+ Item()</text>
<text text-anchor="start" x="93.9707" y="-523" font-family="Helvetica,sans-Serif" font-size="10.00">+ Item()</text>
<text text-anchor="start" x="93.9707" y="-513" font-family="Helvetica,sans-Serif" font-size="10.00">+ data_const()</text>
<text text-anchor="start" x="93.9707" y="-503" font-family="Helvetica,sans-Serif" font-size="10.00">+ item()</text>
<text text-anchor="start" x="93.9707" y="-493" font-family="Helvetica,sans-Serif" font-size="10.00">+ operator const data</text>
<text text-anchor="start" x="93.9707" y="-483" font-family="Helvetica,sans-Serif" font-size="10.00">_type &amp;()</text>
<text text-anchor="start" x="93.9707" y="-473" font-family="Helvetica,sans-Serif" font-size="10.00">+ operator const data</text>
<text text-anchor="start" x="93.9707" y="-463" font-family="Helvetica,sans-Serif" font-size="10.00">_type *()</text>
<text text-anchor="start" x="93.9707" y="-453" font-family="Helvetica,sans-Serif" font-size="10.00">+ size()</text>
<text text-anchor="start" x="93.9707" y="-443" font-family="Helvetica,sans-Serif" font-size="10.00">+ value()</text>
<text text-anchor="start" x="93.9707" y="-433" font-family="Helvetica,sans-Serif" font-size="10.00"># data()</text>
<text text-anchor="start" x="93.9707" y="-423" font-family="Helvetica,sans-Serif" font-size="10.00"># data_void()</text>
<text text-anchor="start" x="93.9707" y="-413" font-family="Helvetica,sans-Serif" font-size="10.00"># data_void_const()</text>
<text text-anchor="start" x="93.9707" y="-403" font-family="Helvetica,sans-Serif" font-size="10.00"># set()</text>
<text text-anchor="start" x="93.9707" y="-393" font-family="Helvetica,sans-Serif" font-size="10.00"># set()</text>
</a>
</g>
</g>
<!-- Node3&#45;&gt;Node4 -->
<g id="edge4" class="edge"><title>Node3&#45;&gt;Node4</title>
<path fill="none" stroke="midnightblue" d="M103.736,-621.029C106.681,-611.446 109.791,-601.324 112.925,-591.125"/>
<polygon fill="none" stroke="midnightblue" points="100.325,-620.213 100.733,-630.8 107.016,-622.269 100.325,-620.213"/>
</g>
<!-- Node4&#45;&gt;Node2 -->
<g id="edge3" class="edge"><title>Node4&#45;&gt;Node2</title>
<path fill="none" stroke="orange" d="M111.68,-377.187C107.956,-364.42 104.191,-351.513 100.556,-339.049"/>
<polygon fill="orange" stroke="orange" points="108.357,-378.294 114.517,-386.914 115.077,-376.334 108.357,-378.294"/>
<text text-anchor="middle" x="139.581" y="-360" font-family="Helvetica,sans-Serif" font-size="10.00"> &lt; sg_pen_t &gt;</text>
</g>
</g>
</svg>
