<?xml version="1.0" encoding="UTF-8" standalone="no"?>
<!DOCTYPE svg PUBLIC "-//W3C//DTD SVG 1.1//EN"
 "http://www.w3.org/Graphics/SVG/1.1/DTD/svg11.dtd">
<!-- Generated by graphviz version 2.36.0 (20140111.2315)
 -->
<!-- Title: dsp::ComplexF32 Pages: 1 -->
<svg width="175pt" height="662pt"
 viewBox="0.00 0.00 175.00 662.00" xmlns="http://www.w3.org/2000/svg" xmlns:xlink="http://www.w3.org/1999/xlink">
<g id="graph0" class="graph" transform="scale(1 1) rotate(0) translate(4 658)">
<title>dsp::ComplexF32</title>
<!-- Node1 -->
<g id="node1" class="node"><title>Node1</title>
<polygon fill="#bfbfbf" stroke="black" points="18.8154,-1 18.8154,-55 113.185,-55 113.185,-1 18.8154,-1"/>
<text text-anchor="middle" x="66" y="-43" font-family="Helvetica,sans-Serif" font-size="10.00">dsp::ComplexF32</text>
<polyline fill="none" stroke="black" points="18.8154,-37 113.185,-37 "/>
<text text-anchor="middle" x="66" y="-25" font-family="Helvetica,sans-Serif" font-size="10.00"> </text>
<polyline fill="none" stroke="black" points="18.8154,-19 113.185,-19 "/>
<text text-anchor="start" x="26.8154" y="-7" font-family="Helvetica,sans-Serif" font-size="10.00">+ ComplexF32()</text>
</g>
<!-- Node2 -->
<g id="node2" class="node"><title>Node2</title>
<g id="a_node2"><a xlink:href="classdsp_1_1_complex.html" target="_top" xlink:title="{dsp::Complex\&lt; float32_t \&gt;\n||+ imaginary()\l+ imaginary()\l+ operator!=()\l+ operator+()\l+ operator+=()\l+ operator&#45;()\land 4 more...\l}">
<polygon fill="none" stroke="black" points="-0.369141,-95 -0.369141,-209 132.369,-209 132.369,-95 -0.369141,-95"/>
<text text-anchor="middle" x="66" y="-197" font-family="Helvetica,sans-Serif" font-size="10.00">dsp::Complex&lt; float32_t &gt;</text>
<polyline fill="none" stroke="black" points="-0.369141,-191 132.369,-191 "/>
<text text-anchor="middle" x="66" y="-179" font-family="Helvetica,sans-Serif" font-size="10.00"> </text>
<polyline fill="none" stroke="black" points="-0.369141,-173 132.369,-173 "/>
<text text-anchor="start" x="7.63086" y="-161" font-family="Helvetica,sans-Serif" font-size="10.00">+ imaginary()</text>
<text text-anchor="start" x="7.63086" y="-151" font-family="Helvetica,sans-Serif" font-size="10.00">+ imaginary()</text>
<text text-anchor="start" x="7.63086" y="-141" font-family="Helvetica,sans-Serif" font-size="10.00">+ operator!=()</text>
<text text-anchor="start" x="7.63086" y="-131" font-family="Helvetica,sans-Serif" font-size="10.00">+ operator+()</text>
<text text-anchor="start" x="7.63086" y="-121" font-family="Helvetica,sans-Serif" font-size="10.00">+ operator+=()</text>
<text text-anchor="start" x="7.63086" y="-111" font-family="Helvetica,sans-Serif" font-size="10.00">+ operator&#45;()</text>
<text text-anchor="start" x="7.63086" y="-101" font-family="Helvetica,sans-Serif" font-size="10.00">and 4 more...</text>
</a>
</g>
</g>
<!-- Node2&#45;&gt;Node1 -->
<g id="edge1" class="edge"><title>Node2&#45;&gt;Node1</title>
<path fill="none" stroke="midnightblue" d="M66,-84.8753C66,-74.3387 66,-64.0075 66,-55.151"/>
<polygon fill="none" stroke="midnightblue" points="62.5001,-84.9989 66,-94.9989 69.5001,-84.999 62.5001,-84.9989"/>
</g>
<!-- Node3 -->
<g id="node3" class="node"><title>Node3</title>
<g id="a_node3"><a xlink:href="classapi_1_1_dsp_info_object.html" target="_top" xlink:title="DSP Information Object. ">
<polygon fill="none" stroke="black" points="1.86719,-411 1.86719,-465 100.133,-465 100.133,-411 1.86719,-411"/>
<text text-anchor="middle" x="51" y="-453" font-family="Helvetica,sans-Serif" font-size="10.00">api::DspInfoObject</text>
<polyline fill="none" stroke="black" points="1.86719,-447 100.133,-447 "/>
<text text-anchor="middle" x="51" y="-435" font-family="Helvetica,sans-Serif" font-size="10.00"> </text>
<polyline fill="none" stroke="black" points="1.86719,-429 100.133,-429 "/>
<text text-anchor="middle" x="51" y="-417" font-family="Helvetica,sans-Serif" font-size="10.00"> </text>
</a>
</g>
</g>
<!-- Node3&#45;&gt;Node2 -->
<g id="edge2" class="edge"><title>Node3&#45;&gt;Node2</title>
<path fill="none" stroke="midnightblue" d="M51.9881,-400.738C53.0817,-364.182 55.084,-306.147 58,-256 58.885,-240.78 60.0643,-224.312 61.2448,-209.103"/>
<polygon fill="none" stroke="midnightblue" points="48.4846,-400.809 51.6908,-410.908 55.4816,-401.014 48.4846,-400.809"/>
</g>
<!-- Node6 -->
<g id="node6" class="node"><title>Node6</title>
<g id="a_node6"><a xlink:href="classdsp_1_1_complex.html" target="_top" xlink:title="Complex Class. ">
<polygon fill="none" stroke="black" points="66.9346,-257 66.9346,-371 167.065,-371 167.065,-257 66.9346,-257"/>
<text text-anchor="middle" x="117" y="-359" font-family="Helvetica,sans-Serif" font-size="10.00">dsp::Complex&lt; T &gt;</text>
<polyline fill="none" stroke="black" points="66.9346,-353 167.065,-353 "/>
<text text-anchor="middle" x="117" y="-341" font-family="Helvetica,sans-Serif" font-size="10.00"> </text>
<polyline fill="none" stroke="black" points="66.9346,-335 167.065,-335 "/>
<text text-anchor="start" x="74.9346" y="-323" font-family="Helvetica,sans-Serif" font-size="10.00">+ imaginary()</text>
<text text-anchor="start" x="74.9346" y="-313" font-family="Helvetica,sans-Serif" font-size="10.00">+ imaginary()</text>
<text text-anchor="start" x="74.9346" y="-303" font-family="Helvetica,sans-Serif" font-size="10.00">+ operator!=()</text>
<text text-anchor="start" x="74.9346" y="-293" font-family="Helvetica,sans-Serif" font-size="10.00">+ operator+()</text>
<text text-anchor="start" x="74.9346" y="-283" font-family="Helvetica,sans-Serif" font-size="10.00">+ operator+=()</text>
<text text-anchor="start" x="74.9346" y="-273" font-family="Helvetica,sans-Serif" font-size="10.00">+ operator&#45;()</text>
<text text-anchor="start" x="74.9346" y="-263" font-family="Helvetica,sans-Serif" font-size="10.00">and 4 more...</text>
</a>
</g>
</g>
<!-- Node3&#45;&gt;Node6 -->
<g id="edge6" class="edge"><title>Node3&#45;&gt;Node6</title>
<path fill="none" stroke="midnightblue" d="M69.9464,-401.978C75.146,-392.366 80.9181,-381.697 86.5876,-371.217"/>
<polygon fill="none" stroke="midnightblue" points="66.8385,-400.367 65.1587,-410.828 72.9953,-403.698 66.8385,-400.367"/>
</g>
<!-- Node4 -->
<g id="node4" class="node"><title>Node4</title>
<g id="a_node4"><a xlink:href="classapi_1_1_info_object.html" target="_top" xlink:title="Information Object. ">
<polygon fill="none" stroke="black" points="10.7588,-505 10.7588,-559 91.2412,-559 91.2412,-505 10.7588,-505"/>
<text text-anchor="middle" x="51" y="-547" font-family="Helvetica,sans-Serif" font-size="10.00">api::InfoObject</text>
<polyline fill="none" stroke="black" points="10.7588,-541 91.2412,-541 "/>
<text text-anchor="middle" x="51" y="-529" font-family="Helvetica,sans-Serif" font-size="10.00"> </text>
<polyline fill="none" stroke="black" points="10.7588,-523 91.2412,-523 "/>
<text text-anchor="middle" x="51" y="-511" font-family="Helvetica,sans-Serif" font-size="10.00"> </text>
</a>
</g>
</g>
<!-- Node4&#45;&gt;Node3 -->
<g id="edge3" class="edge"><title>Node4&#45;&gt;Node3</title>
<path fill="none" stroke="midnightblue" d="M51,-494.872C51,-484.964 51,-474.415 51,-465.183"/>
<polygon fill="none" stroke="midnightblue" points="47.5001,-494.883 51,-504.883 54.5001,-494.883 47.5001,-494.883"/>
</g>
<!-- Node5 -->
<g id="node5" class="node"><title>Node5</title>
<g id="a_node5"><a xlink:href="classapi_1_1_api_object.html" target="_top" xlink:title="Application Programming Interface Object. ">
<polygon fill="none" stroke="black" points="9.78955,-599 9.78955,-653 92.2104,-653 92.2104,-599 9.78955,-599"/>
<text text-anchor="middle" x="51" y="-641" font-family="Helvetica,sans-Serif" font-size="10.00">api::ApiObject</text>
<polyline fill="none" stroke="black" points="9.78955,-635 92.2104,-635 "/>
<text text-anchor="middle" x="51" y="-623" font-family="Helvetica,sans-Serif" font-size="10.00"> </text>
<polyline fill="none" stroke="black" points="9.78955,-617 92.2104,-617 "/>
<text text-anchor="start" x="17.7896" y="-605" font-family="Helvetica,sans-Serif" font-size="10.00">+ api_version()</text>
</a>
</g>
</g>
<!-- Node5&#45;&gt;Node4 -->
<g id="edge4" class="edge"><title>Node5&#45;&gt;Node4</title>
<path fill="none" stroke="midnightblue" d="M51,-588.872C51,-578.964 51,-568.415 51,-559.183"/>
<polygon fill="none" stroke="midnightblue" points="47.5001,-588.883 51,-598.883 54.5001,-588.883 47.5001,-588.883"/>
</g>
<!-- Node6&#45;&gt;Node2 -->
<g id="edge5" class="edge"><title>Node6&#45;&gt;Node2</title>
<path fill="none" stroke="orange" d="M95.8693,-246.708C91.8929,-234.233 87.7704,-221.299 83.9042,-209.17"/>
<polygon fill="orange" stroke="orange" points="92.6476,-248.125 99.0193,-256.59 99.317,-245.999 92.6476,-248.125"/>
<text text-anchor="middle" x="122.189" y="-230" font-family="Helvetica,sans-Serif" font-size="10.00"> &lt; float32_t &gt;</text>
</g>
</g>
</svg>
