<?xml version="1.0" encoding="UTF-8" standalone="no"?>
<!DOCTYPE svg PUBLIC "-//W3C//DTD SVG 1.1//EN"
 "http://www.w3.org/Graphics/SVG/1.1/DTD/svg11.dtd">
<!-- Generated by graphviz version 2.36.0 (20140111.2315)
 -->
<!-- Title: hal::Pio Pages: 1 -->
<svg width="216pt" height="1886pt"
 viewBox="0.00 0.00 215.68 1886.00" xmlns="http://www.w3.org/2000/svg" xmlns:xlink="http://www.w3.org/1999/xlink">
<g id="graph0" class="graph" transform="scale(1 1) rotate(0) translate(4 1882)">
<title>hal::Pio</title>
<!-- Node1 -->
<g id="node1" class="node"><title>Node1</title>
<polygon fill="#bfbfbf" stroke="black" points="45.7969,-349 45.7969,-473 128.203,-473 128.203,-349 45.7969,-349"/>
<text text-anchor="middle" x="87" y="-461" font-family="Helvetica,sans-Serif" font-size="10.00">hal::Pio</text>
<polyline fill="none" stroke="black" points="45.7969,-455 128.203,-455 "/>
<text text-anchor="middle" x="87" y="-443" font-family="Helvetica,sans-Serif" font-size="10.00"> </text>
<polyline fill="none" stroke="black" points="45.7969,-437 128.203,-437 "/>
<text text-anchor="start" x="53.7969" y="-425" font-family="Helvetica,sans-Serif" font-size="10.00">+ Pio()</text>
<text text-anchor="start" x="53.7969" y="-415" font-family="Helvetica,sans-Serif" font-size="10.00">+ assign()</text>
<text text-anchor="start" x="53.7969" y="-405" font-family="Helvetica,sans-Serif" font-size="10.00">+ clear_mask()</text>
<text text-anchor="start" x="53.7969" y="-395" font-family="Helvetica,sans-Serif" font-size="10.00">+ get_value()</text>
<text text-anchor="start" x="53.7969" y="-385" font-family="Helvetica,sans-Serif" font-size="10.00">+ init()</text>
<text text-anchor="start" x="53.7969" y="-375" font-family="Helvetica,sans-Serif" font-size="10.00">+ set_attr()</text>
<text text-anchor="start" x="53.7969" y="-365" font-family="Helvetica,sans-Serif" font-size="10.00">+ set_mask()</text>
<text text-anchor="start" x="53.7969" y="-355" font-family="Helvetica,sans-Serif" font-size="10.00">+ set_value()</text>
</g>
<!-- Node11 -->
<g id="node11" class="node"><title>Node11</title>
<g id="a_node11"><a xlink:href="classhal_1_1_pin.html" target="_top" xlink:title="Pin class. ">
<polygon fill="none" stroke="black" points="41.8955,-195 41.8955,-309 132.104,-309 132.104,-195 41.8955,-195"/>
<text text-anchor="middle" x="87" y="-297" font-family="Helvetica,sans-Serif" font-size="10.00">hal::Pin</text>
<polyline fill="none" stroke="black" points="41.8955,-291 132.104,-291 "/>
<text text-anchor="middle" x="87" y="-279" font-family="Helvetica,sans-Serif" font-size="10.00"> </text>
<polyline fill="none" stroke="black" points="41.8955,-273 132.104,-273 "/>
<text text-anchor="start" x="49.8955" y="-261" font-family="Helvetica,sans-Serif" font-size="10.00">+ Pin()</text>
<text text-anchor="start" x="49.8955" y="-251" font-family="Helvetica,sans-Serif" font-size="10.00">+ Pin()</text>
<text text-anchor="start" x="49.8955" y="-241" font-family="Helvetica,sans-Serif" font-size="10.00">+ clear()</text>
<text text-anchor="start" x="49.8955" y="-231" font-family="Helvetica,sans-Serif" font-size="10.00">+ get_value()</text>
<text text-anchor="start" x="49.8955" y="-221" font-family="Helvetica,sans-Serif" font-size="10.00">+ init()</text>
<text text-anchor="start" x="49.8955" y="-211" font-family="Helvetica,sans-Serif" font-size="10.00">+ operator bool()</text>
<text text-anchor="start" x="49.8955" y="-201" font-family="Helvetica,sans-Serif" font-size="10.00">and 7 more...</text>
</a>
</g>
</g>
<!-- Node1&#45;&gt;Node11 -->
<g id="edge11" class="edge"><title>Node1&#45;&gt;Node11</title>
<path fill="none" stroke="midnightblue" d="M87,-338.62C87,-328.724 87,-318.676 87,-309.113"/>
<polygon fill="none" stroke="midnightblue" points="83.5001,-338.85 87,-348.85 90.5001,-338.85 83.5001,-338.85"/>
</g>
<!-- Node2 -->
<g id="node2" class="node"><title>Node2</title>
<g id="a_node2"><a xlink:href="classhal_1_1_periph.html" target="_top" xlink:title="{hal::Periph\&lt; pio_info\l_t, pio_attr_t, &#39;p&#39;\&gt;\n||+ Periph()\l+ get_info()\l+ get_version()\l+ init()\l+ port()\l+ set_action()\land 4 more...\l# get_channel()\l# set_channel()\l# set_channel()\l}">
<polygon fill="none" stroke="black" points="33.2725,-513 33.2725,-667 140.728,-667 140.728,-513 33.2725,-513"/>
<text text-anchor="start" x="41.2725" y="-655" font-family="Helvetica,sans-Serif" font-size="10.00">hal::Periph&lt; pio_info</text>
<text text-anchor="middle" x="87" y="-645" font-family="Helvetica,sans-Serif" font-size="10.00">_t, pio_attr_t, &#39;p&#39;&gt;</text>
<polyline fill="none" stroke="black" points="33.2725,-639 140.728,-639 "/>
<text text-anchor="middle" x="87" y="-627" font-family="Helvetica,sans-Serif" font-size="10.00"> </text>
<polyline fill="none" stroke="black" points="33.2725,-621 140.728,-621 "/>
<text text-anchor="start" x="41.2725" y="-609" font-family="Helvetica,sans-Serif" font-size="10.00">+ Periph()</text>
<text text-anchor="start" x="41.2725" y="-599" font-family="Helvetica,sans-Serif" font-size="10.00">+ get_info()</text>
<text text-anchor="start" x="41.2725" y="-589" font-family="Helvetica,sans-Serif" font-size="10.00">+ get_version()</text>
<text text-anchor="start" x="41.2725" y="-579" font-family="Helvetica,sans-Serif" font-size="10.00">+ init()</text>
<text text-anchor="start" x="41.2725" y="-569" font-family="Helvetica,sans-Serif" font-size="10.00">+ port()</text>
<text text-anchor="start" x="41.2725" y="-559" font-family="Helvetica,sans-Serif" font-size="10.00">+ set_action()</text>
<text text-anchor="start" x="41.2725" y="-549" font-family="Helvetica,sans-Serif" font-size="10.00">and 4 more...</text>
<text text-anchor="start" x="41.2725" y="-539" font-family="Helvetica,sans-Serif" font-size="10.00"># get_channel()</text>
<text text-anchor="start" x="41.2725" y="-529" font-family="Helvetica,sans-Serif" font-size="10.00"># set_channel()</text>
<text text-anchor="start" x="41.2725" y="-519" font-family="Helvetica,sans-Serif" font-size="10.00"># set_channel()</text>
</a>
</g>
</g>
<!-- Node2&#45;&gt;Node1 -->
<g id="edge1" class="edge"><title>Node2&#45;&gt;Node1</title>
<path fill="none" stroke="midnightblue" d="M87,-502.878C87,-492.814 87,-482.709 87,-473.084"/>
<polygon fill="none" stroke="midnightblue" points="83.5001,-502.909 87,-512.909 90.5001,-502.909 83.5001,-502.909"/>
</g>
<!-- Node3 -->
<g id="node3" class="node"><title>Node3</title>
<g id="a_node3"><a xlink:href="classhal_1_1_periph_object.html" target="_top" xlink:title="Periph Object Class. ">
<polygon fill="none" stroke="black" points="24.6455,-919 24.6455,-1083 117.354,-1083 117.354,-919 24.6455,-919"/>
<text text-anchor="middle" x="71" y="-1071" font-family="Helvetica,sans-Serif" font-size="10.00">hal::PeriphObject</text>
<polyline fill="none" stroke="black" points="24.6455,-1065 117.354,-1065 "/>
<text text-anchor="start" x="32.6455" y="-1053" font-family="Helvetica,sans-Serif" font-size="10.00"># m_periph_port</text>
<polyline fill="none" stroke="black" points="24.6455,-1047 117.354,-1047 "/>
<text text-anchor="start" x="32.6455" y="-1035" font-family="Helvetica,sans-Serif" font-size="10.00">+ close()</text>
<text text-anchor="start" x="32.6455" y="-1025" font-family="Helvetica,sans-Serif" font-size="10.00">+ fileno()</text>
<text text-anchor="start" x="32.6455" y="-1015" font-family="Helvetica,sans-Serif" font-size="10.00">+ ioctl()</text>
<text text-anchor="start" x="32.6455" y="-1005" font-family="Helvetica,sans-Serif" font-size="10.00">+ open()</text>
<text text-anchor="start" x="32.6455" y="-995" font-family="Helvetica,sans-Serif" font-size="10.00">+ read()</text>
<text text-anchor="start" x="32.6455" y="-985" font-family="Helvetica,sans-Serif" font-size="10.00">+ read()</text>
<text text-anchor="start" x="32.6455" y="-975" font-family="Helvetica,sans-Serif" font-size="10.00">+ seek()</text>
<text text-anchor="start" x="32.6455" y="-965" font-family="Helvetica,sans-Serif" font-size="10.00">+ write()</text>
<text text-anchor="start" x="32.6455" y="-955" font-family="Helvetica,sans-Serif" font-size="10.00">+ write()</text>
<text text-anchor="start" x="32.6455" y="-945" font-family="Helvetica,sans-Serif" font-size="10.00"># lookup_fileno()</text>
<text text-anchor="start" x="32.6455" y="-935" font-family="Helvetica,sans-Serif" font-size="10.00"># open()</text>
<text text-anchor="start" x="32.6455" y="-925" font-family="Helvetica,sans-Serif" font-size="10.00"># update_fileno()</text>
</a>
</g>
</g>
<!-- Node3&#45;&gt;Node2 -->
<g id="edge2" class="edge"><title>Node3&#45;&gt;Node2</title>
<path fill="none" stroke="midnightblue" d="M72.3514,-908.556C73.3876,-854.794 75.14,-785.512 78,-724 78.8545,-705.621 80.0463,-685.831 81.2834,-667.278"/>
<polygon fill="none" stroke="midnightblue" points="68.8485,-908.687 72.1599,-918.751 75.8472,-908.819 68.8485,-908.687"/>
</g>
<!-- Node10 -->
<g id="node10" class="node"><title>Node10</title>
<g id="a_node10"><a xlink:href="classhal_1_1_periph.html" target="_top" xlink:title="Peripheral Class. ">
<polygon fill="none" stroke="black" points="86.7798,-725 86.7798,-879 189.22,-879 189.22,-725 86.7798,-725"/>
<text text-anchor="start" x="94.7798" y="-867" font-family="Helvetica,sans-Serif" font-size="10.00">hal::Periph&lt; info_t,</text>
<text text-anchor="middle" x="138" y="-857" font-family="Helvetica,sans-Serif" font-size="10.00"> attr_t, ident_char &gt;</text>
<polyline fill="none" stroke="black" points="86.7798,-851 189.22,-851 "/>
<text text-anchor="middle" x="138" y="-839" font-family="Helvetica,sans-Serif" font-size="10.00"> </text>
<polyline fill="none" stroke="black" points="86.7798,-833 189.22,-833 "/>
<text text-anchor="start" x="94.7798" y="-821" font-family="Helvetica,sans-Serif" font-size="10.00">+ Periph()</text>
<text text-anchor="start" x="94.7798" y="-811" font-family="Helvetica,sans-Serif" font-size="10.00">+ get_info()</text>
<text text-anchor="start" x="94.7798" y="-801" font-family="Helvetica,sans-Serif" font-size="10.00">+ get_version()</text>
<text text-anchor="start" x="94.7798" y="-791" font-family="Helvetica,sans-Serif" font-size="10.00">+ init()</text>
<text text-anchor="start" x="94.7798" y="-781" font-family="Helvetica,sans-Serif" font-size="10.00">+ port()</text>
<text text-anchor="start" x="94.7798" y="-771" font-family="Helvetica,sans-Serif" font-size="10.00">+ set_action()</text>
<text text-anchor="start" x="94.7798" y="-761" font-family="Helvetica,sans-Serif" font-size="10.00">and 4 more...</text>
<text text-anchor="start" x="94.7798" y="-751" font-family="Helvetica,sans-Serif" font-size="10.00"># get_channel()</text>
<text text-anchor="start" x="94.7798" y="-741" font-family="Helvetica,sans-Serif" font-size="10.00"># set_channel()</text>
<text text-anchor="start" x="94.7798" y="-731" font-family="Helvetica,sans-Serif" font-size="10.00"># set_channel()</text>
</a>
</g>
</g>
<!-- Node3&#45;&gt;Node10 -->
<g id="edge10" class="edge"><title>Node3&#45;&gt;Node10</title>
<path fill="none" stroke="midnightblue" d="M101.906,-909.126C105.332,-899.055 108.793,-888.876 112.147,-879.016"/>
<polygon fill="none" stroke="midnightblue" points="98.5446,-908.141 98.6383,-918.735 105.172,-910.395 98.5446,-908.141"/>
</g>
<!-- Node4 -->
<g id="node4" class="node"><title>Node4</title>
<g id="a_node4"><a xlink:href="classhal_1_1_device.html" target="_top" xlink:title="Device Class. ">
<polygon fill="none" stroke="black" points="16.7231,-1123 16.7231,-1207 125.277,-1207 125.277,-1123 16.7231,-1123"/>
<text text-anchor="middle" x="71" y="-1195" font-family="Helvetica,sans-Serif" font-size="10.00">hal::Device</text>
<polyline fill="none" stroke="black" points="16.7231,-1189 125.277,-1189 "/>
<text text-anchor="middle" x="71" y="-1177" font-family="Helvetica,sans-Serif" font-size="10.00"> </text>
<polyline fill="none" stroke="black" points="16.7231,-1171 125.277,-1171 "/>
<text text-anchor="start" x="24.7231" y="-1159" font-family="Helvetica,sans-Serif" font-size="10.00">+ Device()</text>
<text text-anchor="start" x="24.7231" y="-1149" font-family="Helvetica,sans-Serif" font-size="10.00">+ read()</text>
<text text-anchor="start" x="24.7231" y="-1139" font-family="Helvetica,sans-Serif" font-size="10.00">+ set_signal_action()</text>
<text text-anchor="start" x="24.7231" y="-1129" font-family="Helvetica,sans-Serif" font-size="10.00">+ write()</text>
</a>
</g>
</g>
<!-- Node4&#45;&gt;Node3 -->
<g id="edge3" class="edge"><title>Node4&#45;&gt;Node3</title>
<path fill="none" stroke="midnightblue" d="M71,-1112.46C71,-1103.14 71,-1093.21 71,-1083.28"/>
<polygon fill="none" stroke="midnightblue" points="67.5001,-1112.7 71,-1122.7 74.5001,-1112.7 67.5001,-1112.7"/>
</g>
<!-- Node5 -->
<g id="node5" class="node"><title>Node5</title>
<g id="a_node5"><a xlink:href="classapi_1_1_hal_work_object.html" target="_top" xlink:title="Hal Object Class. ">
<polygon fill="none" stroke="black" points="20.019,-1247 20.019,-1301 121.981,-1301 121.981,-1247 20.019,-1247"/>
<text text-anchor="middle" x="71" y="-1289" font-family="Helvetica,sans-Serif" font-size="10.00">api::HalWorkObject</text>
<polyline fill="none" stroke="black" points="20.019,-1283 121.981,-1283 "/>
<text text-anchor="middle" x="71" y="-1271" font-family="Helvetica,sans-Serif" font-size="10.00"> </text>
<polyline fill="none" stroke="black" points="20.019,-1265 121.981,-1265 "/>
<text text-anchor="middle" x="71" y="-1253" font-family="Helvetica,sans-Serif" font-size="10.00"> </text>
</a>
</g>
</g>
<!-- Node5&#45;&gt;Node4 -->
<g id="edge4" class="edge"><title>Node5&#45;&gt;Node4</title>
<path fill="none" stroke="midnightblue" d="M71,-1236.6C71,-1227.19 71,-1216.98 71,-1207.33"/>
<polygon fill="none" stroke="midnightblue" points="67.5001,-1236.82 71,-1246.82 74.5001,-1236.82 67.5001,-1236.82"/>
</g>
<!-- Node6 -->
<g id="node6" class="node"><title>Node6</title>
<g id="a_node6"><a xlink:href="classsys_1_1_file.html" target="_top" xlink:title="File Class. ">
<polygon fill="none" stroke="black" points="30.7588,-1341 30.7588,-1505 111.241,-1505 111.241,-1341 30.7588,-1341"/>
<text text-anchor="middle" x="71" y="-1493" font-family="Helvetica,sans-Serif" font-size="10.00">sys::File</text>
<polyline fill="none" stroke="black" points="30.7588,-1487 111.241,-1487 "/>
<text text-anchor="start" x="38.7588" y="-1475" font-family="Helvetica,sans-Serif" font-size="10.00"># m_fd</text>
<polyline fill="none" stroke="black" points="30.7588,-1469 111.241,-1469 "/>
<text text-anchor="start" x="38.7588" y="-1457" font-family="Helvetica,sans-Serif" font-size="10.00">+ File()</text>
<text text-anchor="start" x="38.7588" y="-1447" font-family="Helvetica,sans-Serif" font-size="10.00">+ close()</text>
<text text-anchor="start" x="38.7588" y="-1437" font-family="Helvetica,sans-Serif" font-size="10.00">+ create()</text>
<text text-anchor="start" x="38.7588" y="-1427" font-family="Helvetica,sans-Serif" font-size="10.00">+ fileno()</text>
<text text-anchor="start" x="38.7588" y="-1417" font-family="Helvetica,sans-Serif" font-size="10.00">+ flags()</text>
<text text-anchor="start" x="38.7588" y="-1407" font-family="Helvetica,sans-Serif" font-size="10.00">+ gets()</text>
<text text-anchor="start" x="38.7588" y="-1397" font-family="Helvetica,sans-Serif" font-size="10.00">and 21 more...</text>
<text text-anchor="start" x="38.7588" y="-1387" font-family="Helvetica,sans-Serif" font-size="10.00">+ name()</text>
<text text-anchor="start" x="38.7588" y="-1377" font-family="Helvetica,sans-Serif" font-size="10.00">+ remove()</text>
<text text-anchor="start" x="38.7588" y="-1367" font-family="Helvetica,sans-Serif" font-size="10.00">+ size()</text>
<text text-anchor="start" x="38.7588" y="-1357" font-family="Helvetica,sans-Serif" font-size="10.00">+ stat()</text>
<text text-anchor="start" x="38.7588" y="-1347" font-family="Helvetica,sans-Serif" font-size="10.00">+ suffix()</text>
</a>
</g>
</g>
<!-- Node6&#45;&gt;Node5 -->
<g id="edge5" class="edge"><title>Node6&#45;&gt;Node5</title>
<path fill="none" stroke="midnightblue" d="M71,-1330.44C71,-1319.82 71,-1309.73 71,-1301.14"/>
<polygon fill="none" stroke="midnightblue" points="67.5001,-1330.76 71,-1340.76 74.5001,-1330.76 67.5001,-1330.76"/>
</g>
<!-- Node7 -->
<g id="node7" class="node"><title>Node7</title>
<g id="a_node7"><a xlink:href="classapi_1_1_sys_work_object.html" target="_top" xlink:title="System Work Object Class. ">
<polygon fill="none" stroke="black" points="19.1865,-1545 19.1865,-1599 122.813,-1599 122.813,-1545 19.1865,-1545"/>
<text text-anchor="middle" x="71" y="-1587" font-family="Helvetica,sans-Serif" font-size="10.00">api::SysWorkObject</text>
<polyline fill="none" stroke="black" points="19.1865,-1581 122.813,-1581 "/>
<text text-anchor="middle" x="71" y="-1569" font-family="Helvetica,sans-Serif" font-size="10.00"> </text>
<polyline fill="none" stroke="black" points="19.1865,-1563 122.813,-1563 "/>
<text text-anchor="middle" x="71" y="-1551" font-family="Helvetica,sans-Serif" font-size="10.00"> </text>
</a>
</g>
</g>
<!-- Node7&#45;&gt;Node6 -->
<g id="edge6" class="edge"><title>Node7&#45;&gt;Node6</title>
<path fill="none" stroke="midnightblue" d="M71,-1534.61C71,-1525.55 71,-1515.48 71,-1505.21"/>
<polygon fill="none" stroke="midnightblue" points="67.5001,-1534.72 71,-1544.72 74.5001,-1534.72 67.5001,-1534.72"/>
</g>
<!-- Node8 -->
<g id="node8" class="node"><title>Node8</title>
<g id="a_node8"><a xlink:href="classapi_1_1_work_object.html" target="_top" xlink:title="WorkObject Class. ">
<polygon fill="none" stroke="black" points="-0.0859375,-1639 -0.0859375,-1783 142.086,-1783 142.086,-1639 -0.0859375,-1639"/>
<text text-anchor="middle" x="71" y="-1771" font-family="Helvetica,sans-Serif" font-size="10.00">api::WorkObject</text>
<polyline fill="none" stroke="black" points="-0.0859375,-1765 142.086,-1765 "/>
<text text-anchor="middle" x="71" y="-1753" font-family="Helvetica,sans-Serif" font-size="10.00"> </text>
<polyline fill="none" stroke="black" points="-0.0859375,-1747 142.086,-1747 "/>
<text text-anchor="start" x="7.91406" y="-1735" font-family="Helvetica,sans-Serif" font-size="10.00">+ WorkObject()</text>
<text text-anchor="start" x="7.91406" y="-1725" font-family="Helvetica,sans-Serif" font-size="10.00">+ clear_error_number()</text>
<text text-anchor="start" x="7.91406" y="-1715" font-family="Helvetica,sans-Serif" font-size="10.00">+ error_number()</text>
<text text-anchor="start" x="7.91406" y="-1705" font-family="Helvetica,sans-Serif" font-size="10.00">+ exit_fatal()</text>
<text text-anchor="start" x="7.91406" y="-1695" font-family="Helvetica,sans-Serif" font-size="10.00"># set_error_number()</text>
<text text-anchor="start" x="7.91406" y="-1685" font-family="Helvetica,sans-Serif" font-size="10.00"># set_error_number_if</text>
<text text-anchor="start" x="7.91406" y="-1675" font-family="Helvetica,sans-Serif" font-size="10.00">_error()</text>
<text text-anchor="start" x="7.91406" y="-1665" font-family="Helvetica,sans-Serif" font-size="10.00"># set_error_number_if_null()</text>
<text text-anchor="start" x="7.91406" y="-1655" font-family="Helvetica,sans-Serif" font-size="10.00"># set_error_number_to</text>
<text text-anchor="start" x="7.91406" y="-1645" font-family="Helvetica,sans-Serif" font-size="10.00">_errno()</text>
</a>
</g>
</g>
<!-- Node8&#45;&gt;Node7 -->
<g id="edge7" class="edge"><title>Node8&#45;&gt;Node7</title>
<path fill="none" stroke="midnightblue" d="M71,-1628.46C71,-1617.88 71,-1607.74 71,-1599.08"/>
<polygon fill="none" stroke="midnightblue" points="67.5001,-1628.69 71,-1638.69 74.5001,-1628.69 67.5001,-1628.69"/>
</g>
<!-- Node9 -->
<g id="node9" class="node"><title>Node9</title>
<g id="a_node9"><a xlink:href="classapi_1_1_api_object.html" target="_top" xlink:title="API Object Class. ">
<polygon fill="none" stroke="black" points="29.7896,-1823 29.7896,-1877 112.21,-1877 112.21,-1823 29.7896,-1823"/>
<text text-anchor="middle" x="71" y="-1865" font-family="Helvetica,sans-Serif" font-size="10.00">api::ApiObject</text>
<polyline fill="none" stroke="black" points="29.7896,-1859 112.21,-1859 "/>
<text text-anchor="middle" x="71" y="-1847" font-family="Helvetica,sans-Serif" font-size="10.00"> </text>
<polyline fill="none" stroke="black" points="29.7896,-1841 112.21,-1841 "/>
<text text-anchor="start" x="37.7896" y="-1829" font-family="Helvetica,sans-Serif" font-size="10.00">+ api_version()</text>
</a>
</g>
</g>
<!-- Node9&#45;&gt;Node8 -->
<g id="edge8" class="edge"><title>Node9&#45;&gt;Node8</title>
<path fill="none" stroke="midnightblue" d="M71,-1812.65C71,-1803.47 71,-1793.29 71,-1783.04"/>
<polygon fill="none" stroke="midnightblue" points="67.5001,-1812.91 71,-1822.91 74.5001,-1812.91 67.5001,-1812.91"/>
</g>
<!-- Node10&#45;&gt;Node2 -->
<g id="edge9" class="edge"><title>Node10&#45;&gt;Node2</title>
<path fill="none" stroke="orange" d="M117.138,-715.1C113.285,-699.231 109.285,-682.761 105.507,-667.205"/>
<polygon fill="orange" stroke="orange" points="113.755,-715.997 119.516,-724.888 120.557,-714.345 113.755,-715.997"/>
<text text-anchor="start" x="114" y="-698" font-family="Helvetica,sans-Serif" font-size="10.00"> &lt; pio_info_t, pio_attr</text>
<text text-anchor="middle" x="160.838" y="-688" font-family="Helvetica,sans-Serif" font-size="10.00">_t, &#39;p&#39;&gt;</text>
</g>
<!-- Node12 -->
<g id="node12" class="node"><title>Node12</title>
<g id="a_node12"><a xlink:href="classui_1_1_pin_button.html" target="_top" xlink:title="Pin Button Class. ">
<polygon fill="none" stroke="black" points="31.6074,-1 31.6074,-155 142.393,-155 142.393,-1 31.6074,-1"/>
<text text-anchor="middle" x="87" y="-143" font-family="Helvetica,sans-Serif" font-size="10.00">ui::PinButton</text>
<polyline fill="none" stroke="black" points="31.6074,-137 142.393,-137 "/>
<text text-anchor="middle" x="87" y="-125" font-family="Helvetica,sans-Serif" font-size="10.00"> </text>
<polyline fill="none" stroke="black" points="31.6074,-119 142.393,-119 "/>
<text text-anchor="start" x="39.6074" y="-107" font-family="Helvetica,sans-Serif" font-size="10.00">+ PinButton()</text>
<text text-anchor="start" x="39.6074" y="-97" font-family="Helvetica,sans-Serif" font-size="10.00">+ active_value()</text>
<text text-anchor="start" x="39.6074" y="-87" font-family="Helvetica,sans-Serif" font-size="10.00">+ event_id()</text>
<text text-anchor="start" x="39.6074" y="-77" font-family="Helvetica,sans-Serif" font-size="10.00">+ get_actuated()</text>
<text text-anchor="start" x="39.6074" y="-67" font-family="Helvetica,sans-Serif" font-size="10.00">+ get_duration()</text>
<text text-anchor="start" x="39.6074" y="-57" font-family="Helvetica,sans-Serif" font-size="10.00">+ get_held()</text>
<text text-anchor="start" x="39.6074" y="-47" font-family="Helvetica,sans-Serif" font-size="10.00">and 6 more...</text>
<text text-anchor="start" x="39.6074" y="-37" font-family="Helvetica,sans-Serif" font-size="10.00">+ held_duration()</text>
<text text-anchor="start" x="39.6074" y="-27" font-family="Helvetica,sans-Serif" font-size="10.00">+ set_held_duration()</text>
<text text-anchor="start" x="39.6074" y="-17" font-family="Helvetica,sans-Serif" font-size="10.00"># get_is_active()</text>
<text text-anchor="start" x="39.6074" y="-7" font-family="Helvetica,sans-Serif" font-size="10.00"># update()</text>
</a>
</g>
</g>
<!-- Node11&#45;&gt;Node12 -->
<g id="edge12" class="edge"><title>Node11&#45;&gt;Node12</title>
<path fill="none" stroke="midnightblue" d="M87,-184.427C87,-174.833 87,-164.897 87,-155.134"/>
<polygon fill="none" stroke="midnightblue" points="83.5001,-184.681 87,-194.681 90.5001,-184.681 83.5001,-184.681"/>
</g>
</g>
</svg>
