<?xml version="1.0" encoding="UTF-8" standalone="no"?>
<!DOCTYPE svg PUBLIC "-//W3C//DTD SVG 1.1//EN"
 "http://www.w3.org/Graphics/SVG/1.1/DTD/svg11.dtd">
<!-- Generated by graphviz version 2.36.0 (20140111.2315)
 -->
<!-- Title: hal::Fifo Pages: 1 -->
<svg width="150pt" height="906pt"
 viewBox="0.00 0.00 150.00 906.00" xmlns="http://www.w3.org/2000/svg" xmlns:xlink="http://www.w3.org/1999/xlink">
<g id="graph0" class="graph" transform="scale(1 1) rotate(0) translate(4 902)">
<title>hal::Fifo</title>
<!-- Node1 -->
<g id="node1" class="node"><title>Node1</title>
<polygon fill="#bfbfbf" stroke="black" points="23.6812,-1 23.6812,-115 118.319,-115 118.319,-1 23.6812,-1"/>
<text text-anchor="middle" x="71" y="-103" font-family="Helvetica,sans-Serif" font-size="10.00">hal::Fifo</text>
<polyline fill="none" stroke="black" points="23.6812,-97 118.319,-97 "/>
<text text-anchor="middle" x="71" y="-85" font-family="Helvetica,sans-Serif" font-size="10.00"> </text>
<polyline fill="none" stroke="black" points="23.6812,-79 118.319,-79 "/>
<text text-anchor="start" x="31.6812" y="-67" font-family="Helvetica,sans-Serif" font-size="10.00">+ Fifo()</text>
<text text-anchor="start" x="31.6812" y="-57" font-family="Helvetica,sans-Serif" font-size="10.00">+ exit()</text>
<text text-anchor="start" x="31.6812" y="-47" font-family="Helvetica,sans-Serif" font-size="10.00">+ flush()</text>
<text text-anchor="start" x="31.6812" y="-37" font-family="Helvetica,sans-Serif" font-size="10.00">+ get_info()</text>
<text text-anchor="start" x="31.6812" y="-27" font-family="Helvetica,sans-Serif" font-size="10.00">+ get_info()</text>
<text text-anchor="start" x="31.6812" y="-17" font-family="Helvetica,sans-Serif" font-size="10.00">+ init()</text>
<text text-anchor="start" x="31.6812" y="-7" font-family="Helvetica,sans-Serif" font-size="10.00">+ set_writeblock()</text>
</g>
<!-- Node2 -->
<g id="node2" class="node"><title>Node2</title>
<g id="a_node2"><a xlink:href="classhal_1_1_device.html" target="_top" xlink:title="Device Class. ">
<polygon fill="none" stroke="black" points="16.7231,-153 16.7231,-237 125.277,-237 125.277,-153 16.7231,-153"/>
<text text-anchor="middle" x="71" y="-225" font-family="Helvetica,sans-Serif" font-size="10.00">hal::Device</text>
<polyline fill="none" stroke="black" points="16.7231,-219 125.277,-219 "/>
<text text-anchor="middle" x="71" y="-207" font-family="Helvetica,sans-Serif" font-size="10.00"> </text>
<polyline fill="none" stroke="black" points="16.7231,-201 125.277,-201 "/>
<text text-anchor="start" x="24.7231" y="-189" font-family="Helvetica,sans-Serif" font-size="10.00">+ Device()</text>
<text text-anchor="start" x="24.7231" y="-179" font-family="Helvetica,sans-Serif" font-size="10.00">+ read()</text>
<text text-anchor="start" x="24.7231" y="-169" font-family="Helvetica,sans-Serif" font-size="10.00">+ set_signal_action()</text>
<text text-anchor="start" x="24.7231" y="-159" font-family="Helvetica,sans-Serif" font-size="10.00">+ write()</text>
</a>
</g>
</g>
<!-- Node2&#45;&gt;Node1 -->
<g id="edge1" class="edge"><title>Node2&#45;&gt;Node1</title>
<path fill="none" stroke="midnightblue" d="M71,-142.557C71,-133.676 71,-124.401 71,-115.397"/>
<polygon fill="none" stroke="midnightblue" points="67.5001,-142.762 71,-152.762 74.5001,-142.762 67.5001,-142.762"/>
</g>
<!-- Node3 -->
<g id="node3" class="node"><title>Node3</title>
<g id="a_node3"><a xlink:href="classapi_1_1_hal_work_object.html" target="_top" xlink:title="Hal Work Object. ">
<polygon fill="none" stroke="black" points="20.019,-275 20.019,-329 121.981,-329 121.981,-275 20.019,-275"/>
<text text-anchor="middle" x="71" y="-317" font-family="Helvetica,sans-Serif" font-size="10.00">api::HalWorkObject</text>
<polyline fill="none" stroke="black" points="20.019,-311 121.981,-311 "/>
<text text-anchor="middle" x="71" y="-299" font-family="Helvetica,sans-Serif" font-size="10.00"> </text>
<polyline fill="none" stroke="black" points="20.019,-293 121.981,-293 "/>
<text text-anchor="middle" x="71" y="-281" font-family="Helvetica,sans-Serif" font-size="10.00"> </text>
</a>
</g>
</g>
<!-- Node3&#45;&gt;Node2 -->
<g id="edge2" class="edge"><title>Node3&#45;&gt;Node2</title>
<path fill="none" stroke="midnightblue" d="M71,-264.503C71,-255.755 71,-246.351 71,-237.399"/>
<polygon fill="none" stroke="midnightblue" points="67.5001,-264.775 71,-274.775 74.5001,-264.775 67.5001,-264.775"/>
</g>
<!-- Node4 -->
<g id="node4" class="node"><title>Node4</title>
<g id="a_node4"><a xlink:href="classsys_1_1_file.html" target="_top" xlink:title="File Class. ">
<polygon fill="none" stroke="black" points="30.7588,-367 30.7588,-531 111.241,-531 111.241,-367 30.7588,-367"/>
<text text-anchor="middle" x="71" y="-519" font-family="Helvetica,sans-Serif" font-size="10.00">sys::File</text>
<polyline fill="none" stroke="black" points="30.7588,-513 111.241,-513 "/>
<text text-anchor="start" x="38.7588" y="-501" font-family="Helvetica,sans-Serif" font-size="10.00"># m_fd</text>
<polyline fill="none" stroke="black" points="30.7588,-495 111.241,-495 "/>
<text text-anchor="start" x="38.7588" y="-483" font-family="Helvetica,sans-Serif" font-size="10.00">+ File()</text>
<text text-anchor="start" x="38.7588" y="-473" font-family="Helvetica,sans-Serif" font-size="10.00">+ close()</text>
<text text-anchor="start" x="38.7588" y="-463" font-family="Helvetica,sans-Serif" font-size="10.00">+ create()</text>
<text text-anchor="start" x="38.7588" y="-453" font-family="Helvetica,sans-Serif" font-size="10.00">+ fileno()</text>
<text text-anchor="start" x="38.7588" y="-443" font-family="Helvetica,sans-Serif" font-size="10.00">+ flags()</text>
<text text-anchor="start" x="38.7588" y="-433" font-family="Helvetica,sans-Serif" font-size="10.00">+ gets()</text>
<text text-anchor="start" x="38.7588" y="-423" font-family="Helvetica,sans-Serif" font-size="10.00">and 22 more...</text>
<text text-anchor="start" x="38.7588" y="-413" font-family="Helvetica,sans-Serif" font-size="10.00">+ name()</text>
<text text-anchor="start" x="38.7588" y="-403" font-family="Helvetica,sans-Serif" font-size="10.00">+ remove()</text>
<text text-anchor="start" x="38.7588" y="-393" font-family="Helvetica,sans-Serif" font-size="10.00">+ size()</text>
<text text-anchor="start" x="38.7588" y="-383" font-family="Helvetica,sans-Serif" font-size="10.00">+ stat()</text>
<text text-anchor="start" x="38.7588" y="-373" font-family="Helvetica,sans-Serif" font-size="10.00">+ suffix()</text>
</a>
</g>
</g>
<!-- Node4&#45;&gt;Node3 -->
<g id="edge3" class="edge"><title>Node4&#45;&gt;Node3</title>
<path fill="none" stroke="midnightblue" d="M71,-356.541C71,-346.622 71,-337.213 71,-329.129"/>
<polygon fill="none" stroke="midnightblue" points="67.5001,-356.599 71,-366.599 74.5001,-356.599 67.5001,-356.599"/>
</g>
<!-- Node5 -->
<g id="node5" class="node"><title>Node5</title>
<g id="a_node5"><a xlink:href="classapi_1_1_sys_work_object.html" target="_top" xlink:title="System Work Object. ">
<polygon fill="none" stroke="black" points="19.1865,-569 19.1865,-623 122.813,-623 122.813,-569 19.1865,-569"/>
<text text-anchor="middle" x="71" y="-611" font-family="Helvetica,sans-Serif" font-size="10.00">api::SysWorkObject</text>
<polyline fill="none" stroke="black" points="19.1865,-605 122.813,-605 "/>
<text text-anchor="middle" x="71" y="-593" font-family="Helvetica,sans-Serif" font-size="10.00"> </text>
<polyline fill="none" stroke="black" points="19.1865,-587 122.813,-587 "/>
<text text-anchor="middle" x="71" y="-575" font-family="Helvetica,sans-Serif" font-size="10.00"> </text>
</a>
</g>
</g>
<!-- Node5&#45;&gt;Node4 -->
<g id="edge4" class="edge"><title>Node5&#45;&gt;Node4</title>
<path fill="none" stroke="midnightblue" d="M71,-558.498C71,-549.997 71,-540.612 71,-531.024"/>
<polygon fill="none" stroke="midnightblue" points="67.5001,-558.742 71,-568.742 74.5001,-558.742 67.5001,-558.742"/>
</g>
<!-- Node6 -->
<g id="node6" class="node"><title>Node6</title>
<g id="a_node6"><a xlink:href="classapi_1_1_work_object.html" target="_top" xlink:title="Work Object. ">
<polygon fill="none" stroke="black" points="-0.0859375,-661 -0.0859375,-805 142.086,-805 142.086,-661 -0.0859375,-661"/>
<text text-anchor="middle" x="71" y="-793" font-family="Helvetica,sans-Serif" font-size="10.00">api::WorkObject</text>
<polyline fill="none" stroke="black" points="-0.0859375,-787 142.086,-787 "/>
<text text-anchor="middle" x="71" y="-775" font-family="Helvetica,sans-Serif" font-size="10.00"> </text>
<polyline fill="none" stroke="black" points="-0.0859375,-769 142.086,-769 "/>
<text text-anchor="start" x="7.91406" y="-757" font-family="Helvetica,sans-Serif" font-size="10.00">+ WorkObject()</text>
<text text-anchor="start" x="7.91406" y="-747" font-family="Helvetica,sans-Serif" font-size="10.00">+ clear_error_number()</text>
<text text-anchor="start" x="7.91406" y="-737" font-family="Helvetica,sans-Serif" font-size="10.00">+ error_number()</text>
<text text-anchor="start" x="7.91406" y="-727" font-family="Helvetica,sans-Serif" font-size="10.00">+ exit_fatal()</text>
<text text-anchor="start" x="7.91406" y="-717" font-family="Helvetica,sans-Serif" font-size="10.00"># set_error_number()</text>
<text text-anchor="start" x="7.91406" y="-707" font-family="Helvetica,sans-Serif" font-size="10.00"># set_error_number_if</text>
<text text-anchor="start" x="7.91406" y="-697" font-family="Helvetica,sans-Serif" font-size="10.00">_error()</text>
<text text-anchor="start" x="7.91406" y="-687" font-family="Helvetica,sans-Serif" font-size="10.00"># set_error_number_if_null()</text>
<text text-anchor="start" x="7.91406" y="-677" font-family="Helvetica,sans-Serif" font-size="10.00"># set_error_number_to</text>
<text text-anchor="start" x="7.91406" y="-667" font-family="Helvetica,sans-Serif" font-size="10.00">_errno()</text>
</a>
</g>
</g>
<!-- Node6&#45;&gt;Node5 -->
<g id="edge5" class="edge"><title>Node6&#45;&gt;Node5</title>
<path fill="none" stroke="midnightblue" d="M71,-650.911C71,-640.983 71,-631.464 71,-623.262"/>
<polygon fill="none" stroke="midnightblue" points="67.5001,-650.942 71,-660.942 74.5001,-650.942 67.5001,-650.942"/>
</g>
<!-- Node7 -->
<g id="node7" class="node"><title>Node7</title>
<g id="a_node7"><a xlink:href="classapi_1_1_api_object.html" target="_top" xlink:title="Application Programming Interface Object. ">
<polygon fill="none" stroke="black" points="29.7896,-843 29.7896,-897 112.21,-897 112.21,-843 29.7896,-843"/>
<text text-anchor="middle" x="71" y="-885" font-family="Helvetica,sans-Serif" font-size="10.00">api::ApiObject</text>
<polyline fill="none" stroke="black" points="29.7896,-879 112.21,-879 "/>
<text text-anchor="middle" x="71" y="-867" font-family="Helvetica,sans-Serif" font-size="10.00"> </text>
<polyline fill="none" stroke="black" points="29.7896,-861 112.21,-861 "/>
<text text-anchor="start" x="37.7896" y="-849" font-family="Helvetica,sans-Serif" font-size="10.00">+ api_version()</text>
</a>
</g>
</g>
<!-- Node7&#45;&gt;Node6 -->
<g id="edge6" class="edge"><title>Node7&#45;&gt;Node6</title>
<path fill="none" stroke="midnightblue" d="M71,-832.925C71,-824.287 71,-814.765 71,-805.145"/>
<polygon fill="none" stroke="midnightblue" points="67.5001,-832.971 71,-842.971 74.5001,-832.971 67.5001,-832.971"/>
</g>
</g>
</svg>
