<?xml version="1.0" encoding="UTF-8" standalone="no"?>
<!DOCTYPE svg PUBLIC "-//W3C//DTD SVG 1.1//EN"
 "http://www.w3.org/Graphics/SVG/1.1/DTD/svg11.dtd">
<!-- Generated by graphviz version 2.36.0 (20140111.2315)
 -->
<!-- Title: calc::RleFile Pages: 1 -->
<svg width="195pt" height="438pt"
 viewBox="0.00 0.00 195.00 438.00" xmlns="http://www.w3.org/2000/svg" xmlns:xlink="http://www.w3.org/1999/xlink">
<g id="graph0" class="graph" transform="scale(1 1) rotate(0) translate(4 434)">
<title>calc::RleFile</title>
<!-- Node1 -->
<g id="node1" class="node"><title>Node1</title>
<polygon fill="#bfbfbf" stroke="black" points="47.771,-1 47.771,-65 118.229,-65 118.229,-1 47.771,-1"/>
<text text-anchor="middle" x="83" y="-53" font-family="Helvetica,sans-Serif" font-size="10.00">calc::RleFile</text>
<polyline fill="none" stroke="black" points="47.771,-47 118.229,-47 "/>
<text text-anchor="middle" x="83" y="-35" font-family="Helvetica,sans-Serif" font-size="10.00"> </text>
<polyline fill="none" stroke="black" points="47.771,-29 118.229,-29 "/>
<text text-anchor="start" x="55.771" y="-17" font-family="Helvetica,sans-Serif" font-size="10.00">+ read()</text>
<text text-anchor="start" x="55.771" y="-7" font-family="Helvetica,sans-Serif" font-size="10.00">+ write()</text>
</g>
<!-- Node2 -->
<g id="node2" class="node"><title>Node2</title>
<g id="a_node2"><a xlink:href="classcalc_1_1_rle.html" target="_top" xlink:title="Run Length Encoding Class. ">
<polygon fill="none" stroke="black" points="-0.203125,-143 -0.203125,-227 72.2031,-227 72.2031,-143 -0.203125,-143"/>
<text text-anchor="middle" x="36" y="-215" font-family="Helvetica,sans-Serif" font-size="10.00">calc::Rle</text>
<polyline fill="none" stroke="black" points="-0.203125,-209 72.2031,-209 "/>
<text text-anchor="middle" x="36" y="-197" font-family="Helvetica,sans-Serif" font-size="10.00"> </text>
<polyline fill="none" stroke="black" points="-0.203125,-191 72.2031,-191 "/>
<text text-anchor="start" x="7.79688" y="-179" font-family="Helvetica,sans-Serif" font-size="10.00">+ Rle()</text>
<text text-anchor="start" x="7.79688" y="-169" font-family="Helvetica,sans-Serif" font-size="10.00">+ calc_size()</text>
<text text-anchor="start" x="7.79688" y="-159" font-family="Helvetica,sans-Serif" font-size="10.00">+ decode()</text>
<text text-anchor="start" x="7.79688" y="-149" font-family="Helvetica,sans-Serif" font-size="10.00">+ encode()</text>
</a>
</g>
</g>
<!-- Node2&#45;&gt;Node1 -->
<g id="edge1" class="edge"><title>Node2&#45;&gt;Node1</title>
<path fill="none" stroke="midnightblue" d="M52.015,-132.888C59.0489,-110.44 67.0819,-84.8026 73.2058,-65.2581"/>
<polygon fill="none" stroke="midnightblue" points="48.6175,-132.026 48.9674,-142.615 55.2973,-134.119 48.6175,-132.026"/>
</g>
<!-- Node3 -->
<g id="node3" class="node"><title>Node3</title>
<g id="a_node3"><a xlink:href="classsys_1_1_file.html" target="_top" xlink:title="File Class. ">
<polygon fill="none" stroke="black" points="89.7588,-103 89.7588,-267 170.241,-267 170.241,-103 89.7588,-103"/>
<text text-anchor="middle" x="130" y="-255" font-family="Helvetica,sans-Serif" font-size="10.00">sys::File</text>
<polyline fill="none" stroke="black" points="89.7588,-249 170.241,-249 "/>
<text text-anchor="start" x="97.7588" y="-237" font-family="Helvetica,sans-Serif" font-size="10.00"># m_fd</text>
<polyline fill="none" stroke="black" points="89.7588,-231 170.241,-231 "/>
<text text-anchor="start" x="97.7588" y="-219" font-family="Helvetica,sans-Serif" font-size="10.00">+ File()</text>
<text text-anchor="start" x="97.7588" y="-209" font-family="Helvetica,sans-Serif" font-size="10.00">+ close()</text>
<text text-anchor="start" x="97.7588" y="-199" font-family="Helvetica,sans-Serif" font-size="10.00">+ create()</text>
<text text-anchor="start" x="97.7588" y="-189" font-family="Helvetica,sans-Serif" font-size="10.00">+ fileno()</text>
<text text-anchor="start" x="97.7588" y="-179" font-family="Helvetica,sans-Serif" font-size="10.00">+ flags()</text>
<text text-anchor="start" x="97.7588" y="-169" font-family="Helvetica,sans-Serif" font-size="10.00">+ gets()</text>
<text text-anchor="start" x="97.7588" y="-159" font-family="Helvetica,sans-Serif" font-size="10.00">and 21 more...</text>
<text text-anchor="start" x="97.7588" y="-149" font-family="Helvetica,sans-Serif" font-size="10.00">+ name()</text>
<text text-anchor="start" x="97.7588" y="-139" font-family="Helvetica,sans-Serif" font-size="10.00">+ remove()</text>
<text text-anchor="start" x="97.7588" y="-129" font-family="Helvetica,sans-Serif" font-size="10.00">+ size()</text>
<text text-anchor="start" x="97.7588" y="-119" font-family="Helvetica,sans-Serif" font-size="10.00">+ stat()</text>
<text text-anchor="start" x="97.7588" y="-109" font-family="Helvetica,sans-Serif" font-size="10.00">+ suffix()</text>
</a>
</g>
</g>
<!-- Node3&#45;&gt;Node1 -->
<g id="edge2" class="edge"><title>Node3&#45;&gt;Node1</title>
<path fill="none" stroke="midnightblue" d="M101.548,-93.1946C98.4221,-83.2194 95.4189,-73.6349 92.7732,-65.1911"/>
<polygon fill="none" stroke="midnightblue" points="98.2442,-94.3578 104.574,-102.854 104.924,-92.2647 98.2442,-94.3578"/>
</g>
<!-- Node4 -->
<g id="node4" class="node"><title>Node4</title>
<g id="a_node4"><a xlink:href="classapi_1_1_s_object.html" target="_top" xlink:title="SObject Class. ">
<polygon fill="none" stroke="black" points="72.8081,-305 72.8081,-429 187.192,-429 187.192,-305 72.8081,-305"/>
<text text-anchor="middle" x="130" y="-417" font-family="Helvetica,sans-Serif" font-size="10.00">api::SObject</text>
<polyline fill="none" stroke="black" points="72.8081,-411 187.192,-411 "/>
<text text-anchor="middle" x="130" y="-399" font-family="Helvetica,sans-Serif" font-size="10.00"> </text>
<polyline fill="none" stroke="black" points="72.8081,-393 187.192,-393 "/>
<text text-anchor="start" x="80.8081" y="-381" font-family="Helvetica,sans-Serif" font-size="10.00">+ SObject()</text>
<text text-anchor="start" x="80.8081" y="-371" font-family="Helvetica,sans-Serif" font-size="10.00">+ api_version()</text>
<text text-anchor="start" x="80.8081" y="-361" font-family="Helvetica,sans-Serif" font-size="10.00">+ clear_error()</text>
<text text-anchor="start" x="80.8081" y="-351" font-family="Helvetica,sans-Serif" font-size="10.00">+ error_number()</text>
<text text-anchor="start" x="80.8081" y="-341" font-family="Helvetica,sans-Serif" font-size="10.00">+ exit_fatal()</text>
<text text-anchor="start" x="80.8081" y="-331" font-family="Helvetica,sans-Serif" font-size="10.00"># set_error_number()</text>
<text text-anchor="start" x="80.8081" y="-321" font-family="Helvetica,sans-Serif" font-size="10.00"># set_error_number_if</text>
<text text-anchor="start" x="80.8081" y="-311" font-family="Helvetica,sans-Serif" font-size="10.00">_error()</text>
</a>
</g>
</g>
<!-- Node4&#45;&gt;Node3 -->
<g id="edge3" class="edge"><title>Node4&#45;&gt;Node3</title>
<path fill="none" stroke="midnightblue" d="M130,-294.706C130,-285.639 130,-276.307 130,-267.101"/>
<polygon fill="none" stroke="midnightblue" points="126.5,-294.809 130,-304.809 133.5,-294.809 126.5,-294.809"/>
</g>
</g>
</svg>
