<?xml version="1.0" encoding="UTF-8" standalone="no"?>
<!DOCTYPE svg PUBLIC "-//W3C//DTD SVG 1.1//EN"
 "http://www.w3.org/Graphics/SVG/1.1/DTD/svg11.dtd">
<!-- Generated by graphviz version 2.36.0 (20140111.2315)
 -->
<!-- Title: ui::TabBar Pages: 1 -->
<!--zoomable 924 -->
<svg id="main" version="1.1" xmlns="http://www.w3.org/2000/svg" xmlns:xlink="http://www.w3.org/1999/xlink" xml:space="preserve" onload="init(evt)">
<style type="text/css"><![CDATA[
.edge:hover path { stroke: red; }
.edge:hover polygon { stroke: red; fill: red; }
]]></style>
<script type="text/javascript"><![CDATA[
var edges = document.getElementsByTagName('g');
if (edges && edges.length) {
  for (var i=0;i<edges.length;i++) {
    if (edges[i].id.substr(0,4)=='edge') {
      edges[i].setAttribute('class','edge');
    }
  }
}
]]></script>
        <defs>
                <circle id="rim" cx="0" cy="0" r="7"/>
                <circle id="rim2" cx="0" cy="0" r="3.5"/>
                <g id="zoomPlus">
                        <use xlink:href="#rim" fill="#404040">
                                <set attributeName="fill" to="#808080" begin="zoomplus.mouseover" end="zoomplus.mouseout"/>
                        </use>
                        <path d="M-4,0h8M0,-4v8" fill="none" stroke="white" stroke-width="1.5" pointer-events="none"/>
                </g>
                <g id="zoomMin">
                        <use xlink:href="#rim" fill="#404040">
                                <set attributeName="fill" to="#808080" begin="zoomminus.mouseover" end="zoomminus.mouseout"/>
                        </use>
                        <path d="M-4,0h8" fill="none" stroke="white" stroke-width="1.5" pointer-events="none"/>
                </g>
                <g id="dirArrow">
                        <path fill="none" stroke="white" stroke-width="1.5" d="M0,-3.0v7 M-2.5,-0.5L0,-3.0L2.5,-0.5"/>
                </g>
               <g id="resetDef">
                       <use xlink:href="#rim2" fill="#404040">
                               <set attributeName="fill" to="#808080" begin="reset.mouseover" end="reset.mouseout"/>
                       </use>
               </g>
        </defs>

<script type="text/javascript">
var viewWidth = 330;
var viewHeight = 924;
var sectionId = 'dynsection-0';
</script>
<script xlink:href="svgpan.js"/>
<svg id="graph" class="graph">
<g id="viewport">
<title>ui::TabBar</title>
<!-- Node1 -->
<g id="node1" class="node"><title>Node1</title>
<polygon fill="#bfbfbf" stroke="black" points="146.924,-1 146.924,-125 239.076,-125 239.076,-1 146.924,-1"/>
<text text-anchor="middle" x="193" y="-113" font-family="Helvetica,sans-Serif" font-size="10.00">ui::TabBar</text>
<polyline fill="none" stroke="black" points="146.924,-107 239.076,-107 "/>
<text text-anchor="middle" x="193" y="-95" font-family="Helvetica,sans-Serif" font-size="10.00"> </text>
<polyline fill="none" stroke="black" points="146.924,-89 239.076,-89 "/>
<text text-anchor="start" x="154.924" y="-77" font-family="Helvetica,sans-Serif" font-size="10.00">+ TabBar()</text>
<text text-anchor="start" x="154.924" y="-67" font-family="Helvetica,sans-Serif" font-size="10.00">+ animation()</text>
<text text-anchor="start" x="154.924" y="-57" font-family="Helvetica,sans-Serif" font-size="10.00">+ at()</text>
<text text-anchor="start" x="154.924" y="-47" font-family="Helvetica,sans-Serif" font-size="10.00">+ current()</text>
<text text-anchor="start" x="154.924" y="-37" font-family="Helvetica,sans-Serif" font-size="10.00">+ draw()</text>
<text text-anchor="start" x="154.924" y="-27" font-family="Helvetica,sans-Serif" font-size="10.00">+ handle_event()</text>
<text text-anchor="start" x="154.924" y="-17" font-family="Helvetica,sans-Serif" font-size="10.00">and 4 more...</text>
<text text-anchor="start" x="154.924" y="-7" font-family="Helvetica,sans-Serif" font-size="10.00"># draw_tab_bar()</text>
</g>
<!-- Node2 -->
<g id="node2" class="node"><title>Node2</title>
<g id="a_node2"><a xlink:href="classui_1_1_element.html" target="_top" xlink:title="Element Class. ">
<polygon fill="none" stroke="black" points="54.3857,-163 54.3857,-297 189.614,-297 189.614,-163 54.3857,-163"/>
<text text-anchor="middle" x="122" y="-285" font-family="Helvetica,sans-Serif" font-size="10.00">ui::Element</text>
<polyline fill="none" stroke="black" points="54.3857,-279 189.614,-279 "/>
<text text-anchor="start" x="62.3857" y="-267" font-family="Helvetica,sans-Serif" font-size="10.00"># m_animation_attr</text>
<polyline fill="none" stroke="black" points="54.3857,-261 189.614,-261 "/>
<text text-anchor="start" x="62.3857" y="-249" font-family="Helvetica,sans-Serif" font-size="10.00">+ Element()</text>
<text text-anchor="start" x="62.3857" y="-239" font-family="Helvetica,sans-Serif" font-size="10.00">+ animation_attr()</text>
<text text-anchor="start" x="62.3857" y="-229" font-family="Helvetica,sans-Serif" font-size="10.00">+ animation_frame_delay()</text>
<text text-anchor="start" x="62.3857" y="-219" font-family="Helvetica,sans-Serif" font-size="10.00">+ animation_path()</text>
<text text-anchor="start" x="62.3857" y="-209" font-family="Helvetica,sans-Serif" font-size="10.00">+ animation_type()</text>
<text text-anchor="start" x="62.3857" y="-199" font-family="Helvetica,sans-Serif" font-size="10.00">+ handle_event()</text>
<text text-anchor="start" x="62.3857" y="-189" font-family="Helvetica,sans-Serif" font-size="10.00">and 21 more...</text>
<text text-anchor="start" x="62.3857" y="-179" font-family="Helvetica,sans-Serif" font-size="10.00"># adjust_x_center()</text>
<text text-anchor="start" x="62.3857" y="-169" font-family="Helvetica,sans-Serif" font-size="10.00"># draw_scroll()</text>
</a>
</g>
</g>
<!-- Node2&#45;&gt;Node1 -->
<g id="edge1" class="edge"><title>Node2&#45;&gt;Node1</title>
<path fill="none" stroke="midnightblue" d="M154.525,-153.414C158.606,-143.929 162.74,-134.321 166.71,-125.097"/>
<polygon fill="none" stroke="midnightblue" points="151.207,-152.27 150.469,-162.839 157.637,-155.037 151.207,-152.27"/>
</g>
<!-- Node3 -->
<g id="node3" class="node"><title>Node3</title>
<g id="a_node3"><a xlink:href="classdraw_1_1_drawing.html" target="_top" xlink:title="Drawing Class. ">
<polygon fill="none" stroke="black" points="-0.552734,-335 -0.552734,-559 118.553,-559 118.553,-335 -0.552734,-335"/>
<text text-anchor="middle" x="59" y="-547" font-family="Helvetica,sans-Serif" font-size="10.00">draw::Drawing</text>
<polyline fill="none" stroke="black" points="-0.552734,-541 118.553,-541 "/>
<text text-anchor="middle" x="59" y="-529" font-family="Helvetica,sans-Serif" font-size="10.00"> </text>
<polyline fill="none" stroke="black" points="-0.552734,-523 118.553,-523 "/>
<text text-anchor="start" x="7.44727" y="-511" font-family="Helvetica,sans-Serif" font-size="10.00">+ Drawing()</text>
<text text-anchor="start" x="7.44727" y="-501" font-family="Helvetica,sans-Serif" font-size="10.00">+ dark()</text>
<text text-anchor="start" x="7.44727" y="-491" font-family="Helvetica,sans-Serif" font-size="10.00">+ draw()</text>
<text text-anchor="start" x="7.44727" y="-481" font-family="Helvetica,sans-Serif" font-size="10.00">+ draw()</text>
<text text-anchor="start" x="7.44727" y="-471" font-family="Helvetica,sans-Serif" font-size="10.00">+ draw_scratch()</text>
<text text-anchor="start" x="7.44727" y="-461" font-family="Helvetica,sans-Serif" font-size="10.00">+ draw_to_scale()</text>
<text text-anchor="start" x="7.44727" y="-451" font-family="Helvetica,sans-Serif" font-size="10.00">and 18 more...</text>
<text text-anchor="start" x="7.44727" y="-441" font-family="Helvetica,sans-Serif" font-size="10.00">+ clear()</text>
<text text-anchor="start" x="7.44727" y="-431" font-family="Helvetica,sans-Serif" font-size="10.00">+ draw_checkerboard()</text>
<text text-anchor="start" x="7.44727" y="-421" font-family="Helvetica,sans-Serif" font-size="10.00">+ draw_pattern()</text>
<text text-anchor="start" x="7.44727" y="-411" font-family="Helvetica,sans-Serif" font-size="10.00">+ h()</text>
<text text-anchor="start" x="7.44727" y="-401" font-family="Helvetica,sans-Serif" font-size="10.00">+ height()</text>
<text text-anchor="start" x="7.44727" y="-391" font-family="Helvetica,sans-Serif" font-size="10.00">+ invert()</text>
<text text-anchor="start" x="7.44727" y="-381" font-family="Helvetica,sans-Serif" font-size="10.00">and 4 more...</text>
<text text-anchor="start" x="7.44727" y="-371" font-family="Helvetica,sans-Serif" font-size="10.00"># dim_on_bitmap()</text>
<text text-anchor="start" x="7.44727" y="-361" font-family="Helvetica,sans-Serif" font-size="10.00"># flag()</text>
<text text-anchor="start" x="7.44727" y="-351" font-family="Helvetica,sans-Serif" font-size="10.00"># point_on_bitmap()</text>
<text text-anchor="start" x="7.44727" y="-341" font-family="Helvetica,sans-Serif" font-size="10.00"># set_flag()</text>
</a>
</g>
</g>
<!-- Node3&#45;&gt;Node2 -->
<g id="edge2" class="edge"><title>Node3&#45;&gt;Node2</title>
<path fill="none" stroke="midnightblue" d="M94.5021,-324.842C97.269,-315.399 99.994,-306.1 102.59,-297.241"/>
<polygon fill="none" stroke="midnightblue" points="91.0605,-324.141 91.6072,-334.721 97.7781,-326.109 91.0605,-324.141"/>
</g>
<!-- Node4 -->
<g id="node4" class="node"><title>Node4</title>
<g id="a_node4"><a xlink:href="classapi_1_1_draw_work_object.html" target="_top" xlink:title="State Machine Work Object Class. ">
<polygon fill="none" stroke="black" points="5.854,-597 5.854,-651 116.146,-651 116.146,-597 5.854,-597"/>
<text text-anchor="middle" x="61" y="-639" font-family="Helvetica,sans-Serif" font-size="10.00">api::DrawWorkObject</text>
<polyline fill="none" stroke="black" points="5.854,-633 116.146,-633 "/>
<text text-anchor="middle" x="61" y="-621" font-family="Helvetica,sans-Serif" font-size="10.00"> </text>
<polyline fill="none" stroke="black" points="5.854,-615 116.146,-615 "/>
<text text-anchor="middle" x="61" y="-603" font-family="Helvetica,sans-Serif" font-size="10.00"> </text>
</a>
</g>
</g>
<!-- Node4&#45;&gt;Node3 -->
<g id="edge3" class="edge"><title>Node4&#45;&gt;Node3</title>
<path fill="none" stroke="midnightblue" d="M60.585,-586.684C60.4886,-578.251 60.381,-568.84 60.2686,-559.001"/>
<polygon fill="none" stroke="midnightblue" points="57.0864,-586.841 60.7006,-596.801 64.086,-586.761 57.0864,-586.841"/>
</g>
<!-- Node5 -->
<g id="node5" class="node"><title>Node5</title>
<g id="a_node5"><a xlink:href="classapi_1_1_work_object.html" target="_top" xlink:title="WorkObject Class. ">
<polygon fill="none" stroke="black" points="62.4521,-689 62.4521,-823 181.548,-823 181.548,-689 62.4521,-689"/>
<text text-anchor="middle" x="122" y="-811" font-family="Helvetica,sans-Serif" font-size="10.00">api::WorkObject</text>
<polyline fill="none" stroke="black" points="62.4521,-805 181.548,-805 "/>
<text text-anchor="middle" x="122" y="-793" font-family="Helvetica,sans-Serif" font-size="10.00"> </text>
<polyline fill="none" stroke="black" points="62.4521,-787 181.548,-787 "/>
<text text-anchor="start" x="70.4521" y="-775" font-family="Helvetica,sans-Serif" font-size="10.00">+ WorkObject()</text>
<text text-anchor="start" x="70.4521" y="-765" font-family="Helvetica,sans-Serif" font-size="10.00">+ clear_error_number()</text>
<text text-anchor="start" x="70.4521" y="-755" font-family="Helvetica,sans-Serif" font-size="10.00">+ error_number()</text>
<text text-anchor="start" x="70.4521" y="-745" font-family="Helvetica,sans-Serif" font-size="10.00">+ exit_fatal()</text>
<text text-anchor="start" x="70.4521" y="-735" font-family="Helvetica,sans-Serif" font-size="10.00"># set_error_number()</text>
<text text-anchor="start" x="70.4521" y="-725" font-family="Helvetica,sans-Serif" font-size="10.00"># set_error_number_if</text>
<text text-anchor="start" x="70.4521" y="-715" font-family="Helvetica,sans-Serif" font-size="10.00">_error()</text>
<text text-anchor="start" x="70.4521" y="-705" font-family="Helvetica,sans-Serif" font-size="10.00"># set_error_number_to</text>
<text text-anchor="start" x="70.4521" y="-695" font-family="Helvetica,sans-Serif" font-size="10.00">_errno()</text>
</a>
</g>
</g>
<!-- Node5&#45;&gt;Node4 -->
<g id="edge4" class="edge"><title>Node5&#45;&gt;Node4</title>
<path fill="none" stroke="midnightblue" d="M86.7001,-679.771C81.882,-669.503 77.2278,-659.584 73.2348,-651.074"/>
<polygon fill="none" stroke="midnightblue" points="83.5474,-681.291 90.9639,-688.857 89.8845,-678.318 83.5474,-681.291"/>
</g>
<!-- Node8 -->
<g id="node8" class="node"><title>Node8</title>
<g id="a_node8"><a xlink:href="classapi_1_1_ev_work_object.html" target="_top" xlink:title="Event Object Class. ">
<polygon fill="none" stroke="black" points="134.687,-597 134.687,-651 233.313,-651 233.313,-597 134.687,-597"/>
<text text-anchor="middle" x="184" y="-639" font-family="Helvetica,sans-Serif" font-size="10.00">api::EvWorkObject</text>
<polyline fill="none" stroke="black" points="134.687,-633 233.313,-633 "/>
<text text-anchor="middle" x="184" y="-621" font-family="Helvetica,sans-Serif" font-size="10.00"> </text>
<polyline fill="none" stroke="black" points="134.687,-615 233.313,-615 "/>
<text text-anchor="middle" x="184" y="-603" font-family="Helvetica,sans-Serif" font-size="10.00"> </text>
</a>
</g>
</g>
<!-- Node5&#45;&gt;Node8 -->
<g id="edge8" class="edge"><title>Node5&#45;&gt;Node8</title>
<path fill="none" stroke="midnightblue" d="M157.879,-679.771C162.776,-669.503 167.506,-659.584 171.565,-651.074"/>
<polygon fill="none" stroke="midnightblue" points="154.691,-678.325 153.545,-688.857 161.009,-681.338 154.691,-678.325"/>
</g>
<!-- Node6 -->
<g id="node6" class="node"><title>Node6</title>
<g id="a_node6"><a xlink:href="classapi_1_1_api_object.html" target="_top" xlink:title="API Object Class. ">
<polygon fill="none" stroke="black" points="80.7896,-861 80.7896,-915 163.21,-915 163.21,-861 80.7896,-861"/>
<text text-anchor="middle" x="122" y="-903" font-family="Helvetica,sans-Serif" font-size="10.00">api::ApiObject</text>
<polyline fill="none" stroke="black" points="80.7896,-897 163.21,-897 "/>
<text text-anchor="middle" x="122" y="-885" font-family="Helvetica,sans-Serif" font-size="10.00"> </text>
<polyline fill="none" stroke="black" points="80.7896,-879 163.21,-879 "/>
<text text-anchor="start" x="88.7896" y="-867" font-family="Helvetica,sans-Serif" font-size="10.00">+ api_version()</text>
</a>
</g>
</g>
<!-- Node6&#45;&gt;Node5 -->
<g id="edge5" class="edge"><title>Node6&#45;&gt;Node5</title>
<path fill="none" stroke="midnightblue" d="M122,-850.644C122,-842.02 122,-832.555 122,-823.059"/>
<polygon fill="none" stroke="midnightblue" points="118.5,-850.693 122,-860.693 125.5,-850.693 118.5,-850.693"/>
</g>
<!-- Node7 -->
<g id="node7" class="node"><title>Node7</title>
<g id="a_node7"><a xlink:href="classev_1_1_event_handler.html" target="_top" xlink:title="Event Handler Class. ">
<polygon fill="none" stroke="black" points="136.584,-405 136.584,-489 235.416,-489 235.416,-405 136.584,-405"/>
<text text-anchor="middle" x="186" y="-477" font-family="Helvetica,sans-Serif" font-size="10.00">ev::EventHandler</text>
<polyline fill="none" stroke="black" points="136.584,-471 235.416,-471 "/>
<text text-anchor="middle" x="186" y="-459" font-family="Helvetica,sans-Serif" font-size="10.00"> </text>
<polyline fill="none" stroke="black" points="136.584,-453 235.416,-453 "/>
<text text-anchor="start" x="144.584" y="-441" font-family="Helvetica,sans-Serif" font-size="10.00">+ EventHandler()</text>
<text text-anchor="start" x="144.584" y="-431" font-family="Helvetica,sans-Serif" font-size="10.00">+ event_loop()</text>
<text text-anchor="start" x="144.584" y="-421" font-family="Helvetica,sans-Serif" font-size="10.00">+ handle_event()</text>
<text text-anchor="start" x="144.584" y="-411" font-family="Helvetica,sans-Serif" font-size="10.00"># set_event_loop()</text>
</a>
</g>
</g>
<!-- Node7&#45;&gt;Node2 -->
<g id="edge6" class="edge"><title>Node7&#45;&gt;Node2</title>
<path fill="none" stroke="midnightblue" d="M170.869,-395.171C162.135,-365.827 151.052,-328.595 141.649,-297.008"/>
<polygon fill="none" stroke="midnightblue" points="167.528,-396.214 173.736,-404.8 174.237,-394.217 167.528,-396.214"/>
</g>
<!-- Node8&#45;&gt;Node7 -->
<g id="edge7" class="edge"><title>Node8&#45;&gt;Node7</title>
<path fill="none" stroke="midnightblue" d="M184.417,-586.484C184.742,-558.041 185.194,-518.56 185.531,-489.029"/>
<polygon fill="none" stroke="midnightblue" points="180.914,-586.761 184.299,-596.801 187.914,-586.841 180.914,-586.761"/>
</g>
<!-- Node9 -->
<g id="node9" class="node"><title>Node9</title>
<g id="a_node9"><a xlink:href="classui_1_1_list_attr.html" target="_top" xlink:title="List Attribute Class. ">
<polygon fill="none" stroke="black" points="207.398,-173 207.398,-287 322.602,-287 322.602,-173 207.398,-173"/>
<text text-anchor="middle" x="265" y="-275" font-family="Helvetica,sans-Serif" font-size="10.00">ui::ListAttr</text>
<polyline fill="none" stroke="black" points="207.398,-269 322.602,-269 "/>
<text text-anchor="middle" x="265" y="-257" font-family="Helvetica,sans-Serif" font-size="10.00"> </text>
<polyline fill="none" stroke="black" points="207.398,-251 322.602,-251 "/>
<text text-anchor="start" x="215.398" y="-239" font-family="Helvetica,sans-Serif" font-size="10.00">+ ListAttr()</text>
<text text-anchor="start" x="215.398" y="-229" font-family="Helvetica,sans-Serif" font-size="10.00">+ calc_display_items()</text>
<text text-anchor="start" x="215.398" y="-219" font-family="Helvetica,sans-Serif" font-size="10.00">+ calc_next_visible()</text>
<text text-anchor="start" x="215.398" y="-209" font-family="Helvetica,sans-Serif" font-size="10.00">+ calc_visible_offset()</text>
<text text-anchor="start" x="215.398" y="-199" font-family="Helvetica,sans-Serif" font-size="10.00">+ dec_selected()</text>
<text text-anchor="start" x="215.398" y="-189" font-family="Helvetica,sans-Serif" font-size="10.00">+ inc_selected()</text>
<text text-anchor="start" x="215.398" y="-179" font-family="Helvetica,sans-Serif" font-size="10.00">and 7 more...</text>
</a>
</g>
</g>
<!-- Node9&#45;&gt;Node1 -->
<g id="edge9" class="edge"><title>Node9&#45;&gt;Node1</title>
<path fill="none" stroke="midnightblue" d="M236.288,-163.202C230.81,-150.647 225.096,-137.553 219.684,-125.151"/>
<polygon fill="none" stroke="midnightblue" points="233.216,-164.912 240.423,-172.678 239.631,-162.113 233.216,-164.912"/>
</g>
</g>
</svg>
        <g id="navigator" transform="translate(0 0)" fill="#404254">
                <rect fill="#f2f5e9" fill-opacity="0.5" stroke="#606060" stroke-width=".5" x="0" y="0" width="60" height="60"/>
                <use id="zoomplus" xlink:href="#zoomPlus" x="17" y="9" onmousedown="handleZoom(evt,'in')"/>
                <use id="zoomminus" xlink:href="#zoomMin" x="42" y="9" onmousedown="handleZoom(evt,'out')"/>
                <use id="reset" xlink:href="#resetDef" x="30" y="36" onmousedown="handleReset()"/>
                <g id="arrowUp" xlink:href="#dirArrow" transform="translate(30 24)" onmousedown="handlePan(0,-1)">
                  <use xlink:href="#rim" fill="#404040">
                        <set attributeName="fill" to="#808080" begin="arrowUp.mouseover" end="arrowUp.mouseout"/>
                  </use>
                  <path fill="none" stroke="white" stroke-width="1.5" d="M0,-3.0v7 M-2.5,-0.5L0,-3.0L2.5,-0.5"/>
                </g>
                <g id="arrowRight" xlink:href="#dirArrow" transform="rotate(90) translate(36 -43)" onmousedown="handlePan(1,0)">
                  <use xlink:href="#rim" fill="#404040">
                        <set attributeName="fill" to="#808080" begin="arrowRight.mouseover" end="arrowRight.mouseout"/>
                  </use>
                  <path fill="none" stroke="white" stroke-width="1.5" d="M0,-3.0v7 M-2.5,-0.5L0,-3.0L2.5,-0.5"/>
                </g>
                <g id="arrowDown" xlink:href="#dirArrow" transform="rotate(180) translate(-30 -48)" onmousedown="handlePan(0,1)">
                  <use xlink:href="#rim" fill="#404040">
                        <set attributeName="fill" to="#808080" begin="arrowDown.mouseover" end="arrowDown.mouseout"/>
                  </use>
                  <path fill="none" stroke="white" stroke-width="1.5" d="M0,-3.0v7 M-2.5,-0.5L0,-3.0L2.5,-0.5"/>
                </g>
                <g id="arrowLeft" xlink:href="#dirArrow" transform="rotate(270) translate(-36 17)" onmousedown="handlePan(-1,0)">
                  <use xlink:href="#rim" fill="#404040">
                        <set attributeName="fill" to="#808080" begin="arrowLeft.mouseover" end="arrowLeft.mouseout"/>
                  </use>
                  <path fill="none" stroke="white" stroke-width="1.5" d="M0,-3.0v7 M-2.5,-0.5L0,-3.0L2.5,-0.5"/>
                </g>
        </g>
        <svg viewBox="0 0 15 15" width="100%" height="30px" preserveAspectRatio="xMaxYMin meet">
         <g id="arrow_out" transform="scale(0.3 0.3)">
          <a xlink:href="classui_1_1_tab_bar__inherit__graph_org.svg" target="_base">
           <rect id="button" ry="5" rx="5" y="6" x="6" height="38" width="38"
                fill="#f2f5e9" fill-opacity="0.5" stroke="#606060" stroke-width="1.0"/>
           <path id="arrow"
             d="M 11.500037,31.436501 C 11.940474,20.09759 22.043105,11.32322 32.158766,21.979434 L 37.068811,17.246167 C 37.068811,17.246167 37.088388,32 37.088388,32 L 22.160133,31.978069 C 22.160133,31.978069 26.997745,27.140456 26.997745,27.140456 C 18.528582,18.264221 13.291696,25.230495 11.500037,31.436501 z"
             style="fill:#404040;"/>
          </a>
         </g>
        </svg>
</svg>
