<?xml version="1.0" encoding="UTF-8" standalone="no"?>
<!DOCTYPE svg PUBLIC "-//W3C//DTD SVG 1.1//EN"
 "http://www.w3.org/Graphics/SVG/1.1/DTD/svg11.dtd">
<!-- Generated by graphviz version 2.36.0 (20140111.2315)
 -->
<!-- Title: fmt::Son Pages: 1 -->
<svg width="130pt" height="490pt"
 viewBox="0.00 0.00 130.00 490.00" xmlns="http://www.w3.org/2000/svg" xmlns:xlink="http://www.w3.org/1999/xlink">
<g id="graph0" class="graph" transform="scale(1 1) rotate(0) translate(4 486)">
<title>fmt::Son</title>
<!-- Node1 -->
<g id="node1" class="node"><title>Node1</title>
<polygon fill="#bfbfbf" stroke="black" points="-0.781738,-1 -0.781738,-125 122.782,-125 122.782,-1 -0.781738,-1"/>
<text text-anchor="middle" x="61" y="-113" font-family="Helvetica,sans-Serif" font-size="10.00">fmt::Son</text>
<polyline fill="none" stroke="black" points="-0.781738,-107 122.782,-107 "/>
<text text-anchor="middle" x="61" y="-95" font-family="Helvetica,sans-Serif" font-size="10.00"> </text>
<polyline fill="none" stroke="black" points="-0.781738,-89 122.782,-89 "/>
<text text-anchor="start" x="7.21826" y="-77" font-family="Helvetica,sans-Serif" font-size="10.00">+ Son()</text>
<text text-anchor="start" x="7.21826" y="-67" font-family="Helvetica,sans-Serif" font-size="10.00">+ ~Son()</text>
<text text-anchor="start" x="7.21826" y="-57" font-family="Helvetica,sans-Serif" font-size="10.00">+ close()</text>
<text text-anchor="start" x="7.21826" y="-47" font-family="Helvetica,sans-Serif" font-size="10.00">+ close_array()</text>
<text text-anchor="start" x="7.21826" y="-37" font-family="Helvetica,sans-Serif" font-size="10.00">+ close_data()</text>
<text text-anchor="start" x="7.21826" y="-27" font-family="Helvetica,sans-Serif" font-size="10.00">+ close_object()</text>
<text text-anchor="start" x="7.21826" y="-17" font-family="Helvetica,sans-Serif" font-size="10.00">and 52 more...</text>
<text text-anchor="start" x="7.21826" y="-7" font-family="Helvetica,sans-Serif" font-size="10.00">+ get_type_description()</text>
</g>
<!-- Node2 -->
<g id="node2" class="node"><title>Node2</title>
<g id="a_node2"><a xlink:href="classapi_1_1_fmt_work_object.html" target="_top" xlink:title="Format Work Object Class. ">
<polygon fill="none" stroke="black" points="8.91309,-163 8.91309,-217 113.087,-217 113.087,-163 8.91309,-163"/>
<text text-anchor="middle" x="61" y="-205" font-family="Helvetica,sans-Serif" font-size="10.00">api::FmtWorkObject</text>
<polyline fill="none" stroke="black" points="8.91309,-199 113.087,-199 "/>
<text text-anchor="middle" x="61" y="-187" font-family="Helvetica,sans-Serif" font-size="10.00"> </text>
<polyline fill="none" stroke="black" points="8.91309,-181 113.087,-181 "/>
<text text-anchor="middle" x="61" y="-169" font-family="Helvetica,sans-Serif" font-size="10.00"> </text>
</a>
</g>
</g>
<!-- Node2&#45;&gt;Node1 -->
<g id="edge1" class="edge"><title>Node2&#45;&gt;Node1</title>
<path fill="none" stroke="midnightblue" d="M61,-152.715C61,-144.071 61,-134.61 61,-125.188"/>
<polygon fill="none" stroke="midnightblue" points="57.5001,-152.796 61,-162.796 64.5001,-152.796 57.5001,-152.796"/>
</g>
<!-- Node3 -->
<g id="node3" class="node"><title>Node3</title>
<g id="a_node3"><a xlink:href="classapi_1_1_work_object.html" target="_top" xlink:title="WorkObject Class. ">
<polygon fill="none" stroke="black" points="1.45215,-255 1.45215,-389 120.548,-389 120.548,-255 1.45215,-255"/>
<text text-anchor="middle" x="61" y="-377" font-family="Helvetica,sans-Serif" font-size="10.00">api::WorkObject</text>
<polyline fill="none" stroke="black" points="1.45215,-371 120.548,-371 "/>
<text text-anchor="middle" x="61" y="-359" font-family="Helvetica,sans-Serif" font-size="10.00"> </text>
<polyline fill="none" stroke="black" points="1.45215,-353 120.548,-353 "/>
<text text-anchor="start" x="9.45215" y="-341" font-family="Helvetica,sans-Serif" font-size="10.00">+ WorkObject()</text>
<text text-anchor="start" x="9.45215" y="-331" font-family="Helvetica,sans-Serif" font-size="10.00">+ clear_error_number()</text>
<text text-anchor="start" x="9.45215" y="-321" font-family="Helvetica,sans-Serif" font-size="10.00">+ error_number()</text>
<text text-anchor="start" x="9.45215" y="-311" font-family="Helvetica,sans-Serif" font-size="10.00">+ exit_fatal()</text>
<text text-anchor="start" x="9.45215" y="-301" font-family="Helvetica,sans-Serif" font-size="10.00"># set_error_number()</text>
<text text-anchor="start" x="9.45215" y="-291" font-family="Helvetica,sans-Serif" font-size="10.00"># set_error_number_if</text>
<text text-anchor="start" x="9.45215" y="-281" font-family="Helvetica,sans-Serif" font-size="10.00">_error()</text>
<text text-anchor="start" x="9.45215" y="-271" font-family="Helvetica,sans-Serif" font-size="10.00"># set_error_number_to</text>
<text text-anchor="start" x="9.45215" y="-261" font-family="Helvetica,sans-Serif" font-size="10.00">_errno()</text>
</a>
</g>
</g>
<!-- Node3&#45;&gt;Node2 -->
<g id="edge2" class="edge"><title>Node3&#45;&gt;Node2</title>
<path fill="none" stroke="midnightblue" d="M61,-244.838C61,-234.903 61,-225.326 61,-217.074"/>
<polygon fill="none" stroke="midnightblue" points="57.5001,-244.857 61,-254.857 64.5001,-244.858 57.5001,-244.857"/>
</g>
<!-- Node4 -->
<g id="node4" class="node"><title>Node4</title>
<g id="a_node4"><a xlink:href="classapi_1_1_api_object.html" target="_top" xlink:title="API Object Class. ">
<polygon fill="none" stroke="black" points="19.7896,-427 19.7896,-481 102.21,-481 102.21,-427 19.7896,-427"/>
<text text-anchor="middle" x="61" y="-469" font-family="Helvetica,sans-Serif" font-size="10.00">api::ApiObject</text>
<polyline fill="none" stroke="black" points="19.7896,-463 102.21,-463 "/>
<text text-anchor="middle" x="61" y="-451" font-family="Helvetica,sans-Serif" font-size="10.00"> </text>
<polyline fill="none" stroke="black" points="19.7896,-445 102.21,-445 "/>
<text text-anchor="start" x="27.7896" y="-433" font-family="Helvetica,sans-Serif" font-size="10.00">+ api_version()</text>
</a>
</g>
</g>
<!-- Node4&#45;&gt;Node3 -->
<g id="edge3" class="edge"><title>Node4&#45;&gt;Node3</title>
<path fill="none" stroke="midnightblue" d="M61,-416.644C61,-408.02 61,-398.555 61,-389.059"/>
<polygon fill="none" stroke="midnightblue" points="57.5001,-416.693 61,-426.693 64.5001,-416.693 57.5001,-416.693"/>
</g>
</g>
</svg>
