<?xml version="1.0" encoding="UTF-8" standalone="no"?>
<!DOCTYPE svg PUBLIC "-//W3C//DTD SVG 1.1//EN"
 "http://www.w3.org/Graphics/SVG/1.1/DTD/svg11.dtd">
<!-- Generated by graphviz version 2.36.0 (20140111.2315)
 -->
<!-- Title: sys::Thread Pages: 1 -->
<svg width="126pt" height="510pt"
 viewBox="0.00 0.00 126.00 510.00" xmlns="http://www.w3.org/2000/svg" xmlns:xlink="http://www.w3.org/1999/xlink">
<g id="graph0" class="graph" transform="scale(1 1) rotate(0) translate(4 506)">
<title>sys::Thread</title>
<!-- Node1 -->
<g id="node1" class="node"><title>Node1</title>
<polygon fill="#bfbfbf" stroke="black" points="7.77734,-1 7.77734,-145 110.223,-145 110.223,-1 7.77734,-1"/>
<text text-anchor="middle" x="59" y="-133" font-family="Helvetica,sans-Serif" font-size="10.00">sys::Thread</text>
<polyline fill="none" stroke="black" points="7.77734,-127 110.223,-127 "/>
<text text-anchor="middle" x="59" y="-115" font-family="Helvetica,sans-Serif" font-size="10.00"> </text>
<polyline fill="none" stroke="black" points="7.77734,-109 110.223,-109 "/>
<text text-anchor="start" x="15.7773" y="-97" font-family="Helvetica,sans-Serif" font-size="10.00">+ Thread()</text>
<text text-anchor="start" x="15.7773" y="-87" font-family="Helvetica,sans-Serif" font-size="10.00">+ ~Thread()</text>
<text text-anchor="start" x="15.7773" y="-77" font-family="Helvetica,sans-Serif" font-size="10.00">+ attr()</text>
<text text-anchor="start" x="15.7773" y="-67" font-family="Helvetica,sans-Serif" font-size="10.00">+ create()</text>
<text text-anchor="start" x="15.7773" y="-57" font-family="Helvetica,sans-Serif" font-size="10.00">+ get_detachstate()</text>
<text text-anchor="start" x="15.7773" y="-47" font-family="Helvetica,sans-Serif" font-size="10.00">+ get_policy()</text>
<text text-anchor="start" x="15.7773" y="-37" font-family="Helvetica,sans-Serif" font-size="10.00">and 11 more...</text>
<text text-anchor="start" x="15.7773" y="-27" font-family="Helvetica,sans-Serif" font-size="10.00">+ join()</text>
<text text-anchor="start" x="15.7773" y="-17" font-family="Helvetica,sans-Serif" font-size="10.00">+ set_scheduler()</text>
<text text-anchor="start" x="15.7773" y="-7" font-family="Helvetica,sans-Serif" font-size="10.00">+ yield()</text>
</g>
<!-- Node2 -->
<g id="node2" class="node"><title>Node2</title>
<g id="a_node2"><a xlink:href="classapi_1_1_sys_work_object.html" target="_top" xlink:title="System Work Object Class. ">
<polygon fill="none" stroke="black" points="7.18652,-183 7.18652,-237 110.813,-237 110.813,-183 7.18652,-183"/>
<text text-anchor="middle" x="59" y="-225" font-family="Helvetica,sans-Serif" font-size="10.00">api::SysWorkObject</text>
<polyline fill="none" stroke="black" points="7.18652,-219 110.813,-219 "/>
<text text-anchor="middle" x="59" y="-207" font-family="Helvetica,sans-Serif" font-size="10.00"> </text>
<polyline fill="none" stroke="black" points="7.18652,-201 110.813,-201 "/>
<text text-anchor="middle" x="59" y="-189" font-family="Helvetica,sans-Serif" font-size="10.00"> </text>
</a>
</g>
</g>
<!-- Node2&#45;&gt;Node1 -->
<g id="edge1" class="edge"><title>Node2&#45;&gt;Node1</title>
<path fill="none" stroke="midnightblue" d="M59,-172.925C59,-164.287 59,-154.765 59,-145.145"/>
<polygon fill="none" stroke="midnightblue" points="55.5001,-172.971 59,-182.971 62.5001,-172.971 55.5001,-172.971"/>
</g>
<!-- Node3 -->
<g id="node3" class="node"><title>Node3</title>
<g id="a_node3"><a xlink:href="classapi_1_1_work_object.html" target="_top" xlink:title="WorkObject Class. ">
<polygon fill="none" stroke="black" points="-0.547852,-275 -0.547852,-409 118.548,-409 118.548,-275 -0.547852,-275"/>
<text text-anchor="middle" x="59" y="-397" font-family="Helvetica,sans-Serif" font-size="10.00">api::WorkObject</text>
<polyline fill="none" stroke="black" points="-0.547852,-391 118.548,-391 "/>
<text text-anchor="middle" x="59" y="-379" font-family="Helvetica,sans-Serif" font-size="10.00"> </text>
<polyline fill="none" stroke="black" points="-0.547852,-373 118.548,-373 "/>
<text text-anchor="start" x="7.45215" y="-361" font-family="Helvetica,sans-Serif" font-size="10.00">+ WorkObject()</text>
<text text-anchor="start" x="7.45215" y="-351" font-family="Helvetica,sans-Serif" font-size="10.00">+ clear_error_number()</text>
<text text-anchor="start" x="7.45215" y="-341" font-family="Helvetica,sans-Serif" font-size="10.00">+ error_number()</text>
<text text-anchor="start" x="7.45215" y="-331" font-family="Helvetica,sans-Serif" font-size="10.00">+ exit_fatal()</text>
<text text-anchor="start" x="7.45215" y="-321" font-family="Helvetica,sans-Serif" font-size="10.00"># set_error_number()</text>
<text text-anchor="start" x="7.45215" y="-311" font-family="Helvetica,sans-Serif" font-size="10.00"># set_error_number_if</text>
<text text-anchor="start" x="7.45215" y="-301" font-family="Helvetica,sans-Serif" font-size="10.00">_error()</text>
<text text-anchor="start" x="7.45215" y="-291" font-family="Helvetica,sans-Serif" font-size="10.00"># set_error_number_to</text>
<text text-anchor="start" x="7.45215" y="-281" font-family="Helvetica,sans-Serif" font-size="10.00">_errno()</text>
</a>
</g>
</g>
<!-- Node3&#45;&gt;Node2 -->
<g id="edge2" class="edge"><title>Node3&#45;&gt;Node2</title>
<path fill="none" stroke="midnightblue" d="M59,-264.838C59,-254.903 59,-245.326 59,-237.074"/>
<polygon fill="none" stroke="midnightblue" points="55.5001,-264.857 59,-274.857 62.5001,-264.858 55.5001,-264.857"/>
</g>
<!-- Node4 -->
<g id="node4" class="node"><title>Node4</title>
<g id="a_node4"><a xlink:href="classapi_1_1_api_object.html" target="_top" xlink:title="API Object Class. ">
<polygon fill="none" stroke="black" points="17.7896,-447 17.7896,-501 100.21,-501 100.21,-447 17.7896,-447"/>
<text text-anchor="middle" x="59" y="-489" font-family="Helvetica,sans-Serif" font-size="10.00">api::ApiObject</text>
<polyline fill="none" stroke="black" points="17.7896,-483 100.21,-483 "/>
<text text-anchor="middle" x="59" y="-471" font-family="Helvetica,sans-Serif" font-size="10.00"> </text>
<polyline fill="none" stroke="black" points="17.7896,-465 100.21,-465 "/>
<text text-anchor="start" x="25.7896" y="-453" font-family="Helvetica,sans-Serif" font-size="10.00">+ api_version()</text>
</a>
</g>
</g>
<!-- Node4&#45;&gt;Node3 -->
<g id="edge3" class="edge"><title>Node4&#45;&gt;Node3</title>
<path fill="none" stroke="midnightblue" d="M59,-436.644C59,-428.02 59,-418.555 59,-409.059"/>
<polygon fill="none" stroke="midnightblue" points="55.5001,-436.693 59,-446.693 62.5001,-436.693 55.5001,-436.693"/>
</g>
</g>
</svg>
