<?xml version="1.0" encoding="UTF-8" standalone="no"?>
<!DOCTYPE svg PUBLIC "-//W3C//DTD SVG 1.1//EN"
 "http://www.w3.org/Graphics/SVG/1.1/DTD/svg11.dtd">
<!-- Generated by graphviz version 2.36.0 (20140111.2315)
 -->
<!-- Title: sgfx::Font Pages: 1 -->
<!--zoomable 884 -->
<svg id="main" version="1.1" xmlns="http://www.w3.org/2000/svg" xmlns:xlink="http://www.w3.org/1999/xlink" xml:space="preserve" onload="init(evt)">
<style type="text/css"><![CDATA[
.edge:hover path { stroke: red; }
.edge:hover polygon { stroke: red; fill: red; }
]]></style>
<script type="text/javascript"><![CDATA[
var edges = document.getElementsByTagName('g');
if (edges && edges.length) {
  for (var i=0;i<edges.length;i++) {
    if (edges[i].id.substr(0,4)=='edge') {
      edges[i].setAttribute('class','edge');
    }
  }
}
]]></script>
        <defs>
                <circle id="rim" cx="0" cy="0" r="7"/>
                <circle id="rim2" cx="0" cy="0" r="3.5"/>
                <g id="zoomPlus">
                        <use xlink:href="#rim" fill="#404040">
                                <set attributeName="fill" to="#808080" begin="zoomplus.mouseover" end="zoomplus.mouseout"/>
                        </use>
                        <path d="M-4,0h8M0,-4v8" fill="none" stroke="white" stroke-width="1.5" pointer-events="none"/>
                </g>
                <g id="zoomMin">
                        <use xlink:href="#rim" fill="#404040">
                                <set attributeName="fill" to="#808080" begin="zoomminus.mouseover" end="zoomminus.mouseout"/>
                        </use>
                        <path d="M-4,0h8" fill="none" stroke="white" stroke-width="1.5" pointer-events="none"/>
                </g>
                <g id="dirArrow">
                        <path fill="none" stroke="white" stroke-width="1.5" d="M0,-3.0v7 M-2.5,-0.5L0,-3.0L2.5,-0.5"/>
                </g>
               <g id="resetDef">
                       <use xlink:href="#rim2" fill="#404040">
                               <set attributeName="fill" to="#808080" begin="reset.mouseover" end="reset.mouseout"/>
                       </use>
               </g>
        </defs>

<script type="text/javascript">
var viewWidth = 407;
var viewHeight = 884;
var sectionId = 'dynsection-0';
</script>
<script xlink:href="svgpan.js"/>
<svg id="graph" class="graph">
<g id="viewport">
<title>sgfx::Font</title>
<!-- Node1 -->
<g id="node1" class="node"><title>Node1</title>
<polygon fill="#bfbfbf" stroke="black" points="147.025,-305 147.025,-509 276.975,-509 276.975,-305 147.025,-305"/>
<text text-anchor="middle" x="212" y="-497" font-family="Helvetica,sans-Serif" font-size="10.00">sgfx::Font</text>
<polyline fill="none" stroke="black" points="147.025,-491 276.975,-491 "/>
<text text-anchor="start" x="155.025" y="-479" font-family="Helvetica,sans-Serif" font-size="10.00"># m_char</text>
<text text-anchor="start" x="155.025" y="-469" font-family="Helvetica,sans-Serif" font-size="10.00"># m_hdr</text>
<text text-anchor="start" x="155.025" y="-459" font-family="Helvetica,sans-Serif" font-size="10.00"># m_letter_spacing</text>
<text text-anchor="start" x="155.025" y="-449" font-family="Helvetica,sans-Serif" font-size="10.00"># m_offset</text>
<text text-anchor="start" x="155.025" y="-439" font-family="Helvetica,sans-Serif" font-size="10.00"># m_space_size</text>
<polyline fill="none" stroke="black" points="147.025,-433 276.975,-433 "/>
<text text-anchor="start" x="155.025" y="-421" font-family="Helvetica,sans-Serif" font-size="10.00">+ Font()</text>
<text text-anchor="start" x="155.025" y="-411" font-family="Helvetica,sans-Serif" font-size="10.00">+ bits_per_pixel()</text>
<text text-anchor="start" x="155.025" y="-401" font-family="Helvetica,sans-Serif" font-size="10.00">+ calc_len()</text>
<text text-anchor="start" x="155.025" y="-391" font-family="Helvetica,sans-Serif" font-size="10.00">+ character()</text>
<text text-anchor="start" x="155.025" y="-381" font-family="Helvetica,sans-Serif" font-size="10.00">+ draw_char()</text>
<text text-anchor="start" x="155.025" y="-371" font-family="Helvetica,sans-Serif" font-size="10.00">+ draw_str()</text>
<text text-anchor="start" x="155.025" y="-361" font-family="Helvetica,sans-Serif" font-size="10.00">and 11 more...</text>
<text text-anchor="start" x="155.025" y="-351" font-family="Helvetica,sans-Serif" font-size="10.00">+ charset()</text>
<text text-anchor="start" x="155.025" y="-341" font-family="Helvetica,sans-Serif" font-size="10.00"># draw_char_on_bitmap()</text>
<text text-anchor="start" x="155.025" y="-331" font-family="Helvetica,sans-Serif" font-size="10.00"># load_char()</text>
<text text-anchor="start" x="155.025" y="-321" font-family="Helvetica,sans-Serif" font-size="10.00"># load_kerning()</text>
<text text-anchor="start" x="155.025" y="-311" font-family="Helvetica,sans-Serif" font-size="10.00"># to_charset()</text>
</g>
<!-- Node5 -->
<g id="node5" class="node"><title>Node5</title>
<g id="a_node5"><a xlink:href="classsgfx_1_1_file_font.html" target="_top" xlink:title="File Font Class. ">
<polygon fill="none" stroke="black" points="-0.975098,-133 -0.975098,-267 128.975,-267 128.975,-133 -0.975098,-133"/>
<text text-anchor="middle" x="64" y="-255" font-family="Helvetica,sans-Serif" font-size="10.00">sgfx::FileFont</text>
<polyline fill="none" stroke="black" points="-0.975098,-249 128.975,-249 "/>
<text text-anchor="middle" x="64" y="-237" font-family="Helvetica,sans-Serif" font-size="10.00"> </text>
<polyline fill="none" stroke="black" points="-0.975098,-231 128.975,-231 "/>
<text text-anchor="start" x="7.0249" y="-219" font-family="Helvetica,sans-Serif" font-size="10.00">+ FileFont()</text>
<text text-anchor="start" x="7.0249" y="-209" font-family="Helvetica,sans-Serif" font-size="10.00">+ FileFont()</text>
<text text-anchor="start" x="7.0249" y="-199" font-family="Helvetica,sans-Serif" font-size="10.00">+ ~FileFont()</text>
<text text-anchor="start" x="7.0249" y="-189" font-family="Helvetica,sans-Serif" font-size="10.00">+ get_height()</text>
<text text-anchor="start" x="7.0249" y="-179" font-family="Helvetica,sans-Serif" font-size="10.00">+ get_width()</text>
<text text-anchor="start" x="7.0249" y="-169" font-family="Helvetica,sans-Serif" font-size="10.00">+ set_file()</text>
<text text-anchor="start" x="7.0249" y="-159" font-family="Helvetica,sans-Serif" font-size="10.00"># draw_char_on_bitmap()</text>
<text text-anchor="start" x="7.0249" y="-149" font-family="Helvetica,sans-Serif" font-size="10.00"># load_char()</text>
<text text-anchor="start" x="7.0249" y="-139" font-family="Helvetica,sans-Serif" font-size="10.00"># load_kerning()</text>
</a>
</g>
</g>
<!-- Node1&#45;&gt;Node5 -->
<g id="edge4" class="edge"><title>Node1&#45;&gt;Node5</title>
<path fill="none" stroke="midnightblue" d="M140.771,-307.338C130.952,-293.738 121.068,-280.047 111.812,-267.226"/>
<polygon fill="none" stroke="midnightblue" points="138.178,-309.727 146.87,-315.786 143.854,-305.629 138.178,-309.727"/>
</g>
<!-- Node6 -->
<g id="node6" class="node"><title>Node6</title>
<g id="a_node6"><a xlink:href="classsgfx_1_1_memory_font.html" target="_top" xlink:title="Monochrome Bitmap Font class (stored in flash memory) ">
<polygon fill="none" stroke="black" points="147.025,-133 147.025,-267 276.975,-267 276.975,-133 147.025,-133"/>
<text text-anchor="middle" x="212" y="-255" font-family="Helvetica,sans-Serif" font-size="10.00">sgfx::MemoryFont</text>
<polyline fill="none" stroke="black" points="147.025,-249 276.975,-249 "/>
<text text-anchor="middle" x="212" y="-237" font-family="Helvetica,sans-Serif" font-size="10.00"> </text>
<polyline fill="none" stroke="black" points="147.025,-231 276.975,-231 "/>
<text text-anchor="start" x="155.025" y="-219" font-family="Helvetica,sans-Serif" font-size="10.00">+ MemoryFont()</text>
<text text-anchor="start" x="155.025" y="-209" font-family="Helvetica,sans-Serif" font-size="10.00">+ MemoryFont()</text>
<text text-anchor="start" x="155.025" y="-199" font-family="Helvetica,sans-Serif" font-size="10.00">+ font_memory()</text>
<text text-anchor="start" x="155.025" y="-189" font-family="Helvetica,sans-Serif" font-size="10.00">+ get_height()</text>
<text text-anchor="start" x="155.025" y="-179" font-family="Helvetica,sans-Serif" font-size="10.00">+ get_width()</text>
<text text-anchor="start" x="155.025" y="-169" font-family="Helvetica,sans-Serif" font-size="10.00">+ set_font_memory()</text>
<text text-anchor="start" x="155.025" y="-159" font-family="Helvetica,sans-Serif" font-size="10.00"># draw_char_on_bitmap()</text>
<text text-anchor="start" x="155.025" y="-149" font-family="Helvetica,sans-Serif" font-size="10.00"># load_char()</text>
<text text-anchor="start" x="155.025" y="-139" font-family="Helvetica,sans-Serif" font-size="10.00"># load_kerning()</text>
</a>
</g>
</g>
<!-- Node1&#45;&gt;Node6 -->
<g id="edge5" class="edge"><title>Node1&#45;&gt;Node6</title>
<path fill="none" stroke="midnightblue" d="M212,-294.582C212,-285.279 212,-276.075 212,-267.279"/>
<polygon fill="none" stroke="midnightblue" points="208.5,-294.701 212,-304.701 215.5,-294.701 208.5,-294.701"/>
</g>
<!-- Node7 -->
<g id="node7" class="node"><title>Node7</title>
<g id="a_node7"><a xlink:href="classsgfx_1_1_svg_font.html" target="_top" xlink:title="Stratify Vector Graphics Font. ">
<polygon fill="none" stroke="black" points="295.006,-153 295.006,-247 372.994,-247 372.994,-153 295.006,-153"/>
<text text-anchor="middle" x="334" y="-235" font-family="Helvetica,sans-Serif" font-size="10.00">sgfx::SvgFont</text>
<polyline fill="none" stroke="black" points="295.006,-229 372.994,-229 "/>
<text text-anchor="middle" x="334" y="-217" font-family="Helvetica,sans-Serif" font-size="10.00"> </text>
<polyline fill="none" stroke="black" points="295.006,-211 372.994,-211 "/>
<text text-anchor="start" x="303.006" y="-199" font-family="Helvetica,sans-Serif" font-size="10.00">+ SvgFont()</text>
<text text-anchor="start" x="303.006" y="-189" font-family="Helvetica,sans-Serif" font-size="10.00">+ ~SvgFont()</text>
<text text-anchor="start" x="303.006" y="-179" font-family="Helvetica,sans-Serif" font-size="10.00">+ get_height()</text>
<text text-anchor="start" x="303.006" y="-169" font-family="Helvetica,sans-Serif" font-size="10.00">+ get_width()</text>
<text text-anchor="start" x="303.006" y="-159" font-family="Helvetica,sans-Serif" font-size="10.00">+ set_height()</text>
</a>
</g>
</g>
<!-- Node1&#45;&gt;Node7 -->
<g id="edge6" class="edge"><title>Node1&#45;&gt;Node7</title>
<path fill="none" stroke="midnightblue" d="M277.628,-295.723C287.827,-278.586 297.852,-261.741 306.554,-247.118"/>
<polygon fill="none" stroke="midnightblue" points="274.392,-294.318 272.285,-304.701 280.407,-297.898 274.392,-294.318"/>
</g>
<!-- Node2 -->
<g id="node2" class="node"><title>Node2</title>
<g id="a_node2"><a xlink:href="classapi_1_1_sgfx_work_object.html" target="_top" xlink:title="Sgfx Work Object. ">
<polygon fill="none" stroke="black" points="158.517,-547 158.517,-601 265.483,-601 265.483,-547 158.517,-547"/>
<text text-anchor="middle" x="212" y="-589" font-family="Helvetica,sans-Serif" font-size="10.00">api::SgfxWorkObject</text>
<polyline fill="none" stroke="black" points="158.517,-583 265.483,-583 "/>
<text text-anchor="middle" x="212" y="-571" font-family="Helvetica,sans-Serif" font-size="10.00"> </text>
<polyline fill="none" stroke="black" points="158.517,-565 265.483,-565 "/>
<text text-anchor="middle" x="212" y="-553" font-family="Helvetica,sans-Serif" font-size="10.00"> </text>
</a>
</g>
</g>
<!-- Node2&#45;&gt;Node1 -->
<g id="edge1" class="edge"><title>Node2&#45;&gt;Node1</title>
<path fill="none" stroke="midnightblue" d="M212,-536.706C212,-528.256 212,-518.851 212,-509.079"/>
<polygon fill="none" stroke="midnightblue" points="208.5,-536.855 212,-546.855 215.5,-536.855 208.5,-536.855"/>
</g>
<!-- Node3 -->
<g id="node3" class="node"><title>Node3</title>
<g id="a_node3"><a xlink:href="classapi_1_1_work_object.html" target="_top" xlink:title="Work Object. ">
<polygon fill="none" stroke="black" points="140.914,-639 140.914,-783 283.086,-783 283.086,-639 140.914,-639"/>
<text text-anchor="middle" x="212" y="-771" font-family="Helvetica,sans-Serif" font-size="10.00">api::WorkObject</text>
<polyline fill="none" stroke="black" points="140.914,-765 283.086,-765 "/>
<text text-anchor="middle" x="212" y="-753" font-family="Helvetica,sans-Serif" font-size="10.00"> </text>
<polyline fill="none" stroke="black" points="140.914,-747 283.086,-747 "/>
<text text-anchor="start" x="148.914" y="-735" font-family="Helvetica,sans-Serif" font-size="10.00">+ WorkObject()</text>
<text text-anchor="start" x="148.914" y="-725" font-family="Helvetica,sans-Serif" font-size="10.00">+ clear_error_number()</text>
<text text-anchor="start" x="148.914" y="-715" font-family="Helvetica,sans-Serif" font-size="10.00">+ error_number()</text>
<text text-anchor="start" x="148.914" y="-705" font-family="Helvetica,sans-Serif" font-size="10.00">+ exit_fatal()</text>
<text text-anchor="start" x="148.914" y="-695" font-family="Helvetica,sans-Serif" font-size="10.00"># set_error_number()</text>
<text text-anchor="start" x="148.914" y="-685" font-family="Helvetica,sans-Serif" font-size="10.00"># set_error_number_if</text>
<text text-anchor="start" x="148.914" y="-675" font-family="Helvetica,sans-Serif" font-size="10.00">_error()</text>
<text text-anchor="start" x="148.914" y="-665" font-family="Helvetica,sans-Serif" font-size="10.00"># set_error_number_if_null()</text>
<text text-anchor="start" x="148.914" y="-655" font-family="Helvetica,sans-Serif" font-size="10.00"># set_error_number_to</text>
<text text-anchor="start" x="148.914" y="-645" font-family="Helvetica,sans-Serif" font-size="10.00">_errno()</text>
</a>
</g>
</g>
<!-- Node3&#45;&gt;Node2 -->
<g id="edge2" class="edge"><title>Node3&#45;&gt;Node2</title>
<path fill="none" stroke="midnightblue" d="M212,-628.911C212,-618.983 212,-609.464 212,-601.262"/>
<polygon fill="none" stroke="midnightblue" points="208.5,-628.942 212,-638.942 215.5,-628.942 208.5,-628.942"/>
</g>
<!-- Node4 -->
<g id="node4" class="node"><title>Node4</title>
<g id="a_node4"><a xlink:href="classapi_1_1_api_object.html" target="_top" xlink:title="Application Programming Interface Object. ">
<polygon fill="none" stroke="black" points="170.79,-821 170.79,-875 253.21,-875 253.21,-821 170.79,-821"/>
<text text-anchor="middle" x="212" y="-863" font-family="Helvetica,sans-Serif" font-size="10.00">api::ApiObject</text>
<polyline fill="none" stroke="black" points="170.79,-857 253.21,-857 "/>
<text text-anchor="middle" x="212" y="-845" font-family="Helvetica,sans-Serif" font-size="10.00"> </text>
<polyline fill="none" stroke="black" points="170.79,-839 253.21,-839 "/>
<text text-anchor="start" x="178.79" y="-827" font-family="Helvetica,sans-Serif" font-size="10.00">+ api_version()</text>
</a>
</g>
</g>
<!-- Node4&#45;&gt;Node3 -->
<g id="edge3" class="edge"><title>Node4&#45;&gt;Node3</title>
<path fill="none" stroke="midnightblue" d="M212,-810.925C212,-802.287 212,-792.765 212,-783.145"/>
<polygon fill="none" stroke="midnightblue" points="208.5,-810.971 212,-820.971 215.5,-810.971 208.5,-810.971"/>
</g>
<!-- Node8 -->
<g id="node8" class="node"><title>Node8</title>
<g id="a_node8"><a xlink:href="classsgfx_1_1_svg_memory_font.html" target="_top" xlink:title="Stratify Vector Graphics Memory Font. ">
<polygon fill="none" stroke="black" points="269.025,-1 269.025,-95 398.975,-95 398.975,-1 269.025,-1"/>
<text text-anchor="middle" x="334" y="-83" font-family="Helvetica,sans-Serif" font-size="10.00">sgfx::SvgMemoryFont</text>
<polyline fill="none" stroke="black" points="269.025,-77 398.975,-77 "/>
<text text-anchor="middle" x="334" y="-65" font-family="Helvetica,sans-Serif" font-size="10.00"> </text>
<polyline fill="none" stroke="black" points="269.025,-59 398.975,-59 "/>
<text text-anchor="start" x="277.025" y="-47" font-family="Helvetica,sans-Serif" font-size="10.00">+ SvgMemoryFont()</text>
<text text-anchor="start" x="277.025" y="-37" font-family="Helvetica,sans-Serif" font-size="10.00">+ ~SvgMemoryFont()</text>
<text text-anchor="start" x="277.025" y="-27" font-family="Helvetica,sans-Serif" font-size="10.00"># draw_char_on_bitmap()</text>
<text text-anchor="start" x="277.025" y="-17" font-family="Helvetica,sans-Serif" font-size="10.00"># load_char()</text>
<text text-anchor="start" x="277.025" y="-7" font-family="Helvetica,sans-Serif" font-size="10.00"># load_kerning()</text>
</a>
</g>
</g>
<!-- Node7&#45;&gt;Node8 -->
<g id="edge7" class="edge"><title>Node7&#45;&gt;Node8</title>
<path fill="none" stroke="midnightblue" d="M334,-142.657C334,-126.963 334,-110.105 334,-95.0763"/>
<polygon fill="none" stroke="midnightblue" points="330.5,-142.771 334,-152.771 337.5,-142.771 330.5,-142.771"/>
</g>
</g>
</svg>
        <g id="navigator" transform="translate(0 0)" fill="#404254">
                <rect fill="#f2f5e9" fill-opacity="0.5" stroke="#606060" stroke-width=".5" x="0" y="0" width="60" height="60"/>
                <use id="zoomplus" xlink:href="#zoomPlus" x="17" y="9" onmousedown="handleZoom(evt,'in')"/>
                <use id="zoomminus" xlink:href="#zoomMin" x="42" y="9" onmousedown="handleZoom(evt,'out')"/>
                <use id="reset" xlink:href="#resetDef" x="30" y="36" onmousedown="handleReset()"/>
                <g id="arrowUp" xlink:href="#dirArrow" transform="translate(30 24)" onmousedown="handlePan(0,-1)">
                  <use xlink:href="#rim" fill="#404040">
                        <set attributeName="fill" to="#808080" begin="arrowUp.mouseover" end="arrowUp.mouseout"/>
                  </use>
                  <path fill="none" stroke="white" stroke-width="1.5" d="M0,-3.0v7 M-2.5,-0.5L0,-3.0L2.5,-0.5"/>
                </g>
                <g id="arrowRight" xlink:href="#dirArrow" transform="rotate(90) translate(36 -43)" onmousedown="handlePan(1,0)">
                  <use xlink:href="#rim" fill="#404040">
                        <set attributeName="fill" to="#808080" begin="arrowRight.mouseover" end="arrowRight.mouseout"/>
                  </use>
                  <path fill="none" stroke="white" stroke-width="1.5" d="M0,-3.0v7 M-2.5,-0.5L0,-3.0L2.5,-0.5"/>
                </g>
                <g id="arrowDown" xlink:href="#dirArrow" transform="rotate(180) translate(-30 -48)" onmousedown="handlePan(0,1)">
                  <use xlink:href="#rim" fill="#404040">
                        <set attributeName="fill" to="#808080" begin="arrowDown.mouseover" end="arrowDown.mouseout"/>
                  </use>
                  <path fill="none" stroke="white" stroke-width="1.5" d="M0,-3.0v7 M-2.5,-0.5L0,-3.0L2.5,-0.5"/>
                </g>
                <g id="arrowLeft" xlink:href="#dirArrow" transform="rotate(270) translate(-36 17)" onmousedown="handlePan(-1,0)">
                  <use xlink:href="#rim" fill="#404040">
                        <set attributeName="fill" to="#808080" begin="arrowLeft.mouseover" end="arrowLeft.mouseout"/>
                  </use>
                  <path fill="none" stroke="white" stroke-width="1.5" d="M0,-3.0v7 M-2.5,-0.5L0,-3.0L2.5,-0.5"/>
                </g>
        </g>
        <svg viewBox="0 0 15 15" width="100%" height="30px" preserveAspectRatio="xMaxYMin meet">
         <g id="arrow_out" transform="scale(0.3 0.3)">
          <a xlink:href="classsgfx_1_1_font__inherit__graph_org.svg" target="_base">
           <rect id="button" ry="5" rx="5" y="6" x="6" height="38" width="38"
                fill="#f2f5e9" fill-opacity="0.5" stroke="#606060" stroke-width="1.0"/>
           <path id="arrow"
             d="M 11.500037,31.436501 C 11.940474,20.09759 22.043105,11.32322 32.158766,21.979434 L 37.068811,17.246167 C 37.068811,17.246167 37.088388,32 37.088388,32 L 22.160133,31.978069 C 22.160133,31.978069 26.997745,27.140456 26.997745,27.140456 C 18.528582,18.264221 13.291696,25.230495 11.500037,31.436501 z"
             style="fill:#404040;"/>
          </a>
         </g>
        </svg>
</svg>
