<?xml version="1.0" encoding="UTF-8" standalone="no"?>
<!DOCTYPE svg PUBLIC "-//W3C//DTD SVG 1.1//EN"
 "http://www.w3.org/Graphics/SVG/1.1/DTD/svg11.dtd">
<!-- Generated by graphviz version 2.36.0 (20140111.2315)
 -->
<!-- Title: chrono::Timer Pages: 1 -->
<svg width="150pt" height="570pt"
 viewBox="0.00 0.00 150.00 570.00" xmlns="http://www.w3.org/2000/svg" xmlns:xlink="http://www.w3.org/1999/xlink">
<g id="graph0" class="graph" transform="scale(1 1) rotate(0) translate(4 566)">
<title>chrono::Timer</title>
<!-- Node1 -->
<g id="node1" class="node"><title>Node1</title>
<polygon fill="#bfbfbf" stroke="black" points="30.7588,-1 30.7588,-145 111.241,-145 111.241,-1 30.7588,-1"/>
<text text-anchor="middle" x="71" y="-133" font-family="Helvetica,sans-Serif" font-size="10.00">chrono::Timer</text>
<polyline fill="none" stroke="black" points="30.7588,-127 111.241,-127 "/>
<text text-anchor="middle" x="71" y="-115" font-family="Helvetica,sans-Serif" font-size="10.00"> </text>
<polyline fill="none" stroke="black" points="30.7588,-109 111.241,-109 "/>
<text text-anchor="start" x="38.7588" y="-97" font-family="Helvetica,sans-Serif" font-size="10.00">+ Timer()</text>
<text text-anchor="start" x="38.7588" y="-87" font-family="Helvetica,sans-Serif" font-size="10.00">+ calc_msec()</text>
<text text-anchor="start" x="38.7588" y="-77" font-family="Helvetica,sans-Serif" font-size="10.00">+ calc_sec()</text>
<text text-anchor="start" x="38.7588" y="-67" font-family="Helvetica,sans-Serif" font-size="10.00">+ calc_usec()</text>
<text text-anchor="start" x="38.7588" y="-57" font-family="Helvetica,sans-Serif" font-size="10.00">+ clock_time()</text>
<text text-anchor="start" x="38.7588" y="-47" font-family="Helvetica,sans-Serif" font-size="10.00">+ is_reset()</text>
<text text-anchor="start" x="38.7588" y="-37" font-family="Helvetica,sans-Serif" font-size="10.00">and 14 more...</text>
<text text-anchor="start" x="38.7588" y="-27" font-family="Helvetica,sans-Serif" font-size="10.00">+ wait_msec()</text>
<text text-anchor="start" x="38.7588" y="-17" font-family="Helvetica,sans-Serif" font-size="10.00">+ wait_sec()</text>
<text text-anchor="start" x="38.7588" y="-7" font-family="Helvetica,sans-Serif" font-size="10.00">+ wait_usec()</text>
</g>
<!-- Node2 -->
<g id="node2" class="node"><title>Node2</title>
<g id="a_node2"><a xlink:href="classapi_1_1_chrono_work_object.html" target="_top" xlink:title="Chrono Work Object. ">
<polygon fill="none" stroke="black" points="11.1226,-183 11.1226,-287 130.877,-287 130.877,-183 11.1226,-183"/>
<text text-anchor="middle" x="71" y="-275" font-family="Helvetica,sans-Serif" font-size="10.00">api::ChronoWorkObject</text>
<polyline fill="none" stroke="black" points="11.1226,-269 130.877,-269 "/>
<text text-anchor="middle" x="71" y="-257" font-family="Helvetica,sans-Serif" font-size="10.00"> </text>
<polyline fill="none" stroke="black" points="11.1226,-251 130.877,-251 "/>
<text text-anchor="start" x="19.1226" y="-239" font-family="Helvetica,sans-Serif" font-size="10.00">+ wait()</text>
<text text-anchor="start" x="19.1226" y="-229" font-family="Helvetica,sans-Serif" font-size="10.00">+ wait()</text>
<text text-anchor="start" x="19.1226" y="-219" font-family="Helvetica,sans-Serif" font-size="10.00">+ wait()</text>
<text text-anchor="start" x="19.1226" y="-209" font-family="Helvetica,sans-Serif" font-size="10.00">+ wait_microseconds()</text>
<text text-anchor="start" x="19.1226" y="-199" font-family="Helvetica,sans-Serif" font-size="10.00">+ wait_milliseconds()</text>
<text text-anchor="start" x="19.1226" y="-189" font-family="Helvetica,sans-Serif" font-size="10.00">+ wait_seconds()</text>
</a>
</g>
</g>
<!-- Node2&#45;&gt;Node1 -->
<g id="edge1" class="edge"><title>Node2&#45;&gt;Node1</title>
<path fill="none" stroke="midnightblue" d="M71,-172.909C71,-163.877 71,-154.504 71,-145.288"/>
<polygon fill="none" stroke="midnightblue" points="67.5001,-172.935 71,-182.935 74.5001,-172.935 67.5001,-172.935"/>
</g>
<!-- Node3 -->
<g id="node3" class="node"><title>Node3</title>
<g id="a_node3"><a xlink:href="classapi_1_1_work_object.html" target="_top" xlink:title="Work Object. ">
<polygon fill="none" stroke="black" points="-0.0859375,-325 -0.0859375,-469 142.086,-469 142.086,-325 -0.0859375,-325"/>
<text text-anchor="middle" x="71" y="-457" font-family="Helvetica,sans-Serif" font-size="10.00">api::WorkObject</text>
<polyline fill="none" stroke="black" points="-0.0859375,-451 142.086,-451 "/>
<text text-anchor="middle" x="71" y="-439" font-family="Helvetica,sans-Serif" font-size="10.00"> </text>
<polyline fill="none" stroke="black" points="-0.0859375,-433 142.086,-433 "/>
<text text-anchor="start" x="7.91406" y="-421" font-family="Helvetica,sans-Serif" font-size="10.00">+ WorkObject()</text>
<text text-anchor="start" x="7.91406" y="-411" font-family="Helvetica,sans-Serif" font-size="10.00">+ clear_error_number()</text>
<text text-anchor="start" x="7.91406" y="-401" font-family="Helvetica,sans-Serif" font-size="10.00">+ error_number()</text>
<text text-anchor="start" x="7.91406" y="-391" font-family="Helvetica,sans-Serif" font-size="10.00">+ exit_fatal()</text>
<text text-anchor="start" x="7.91406" y="-381" font-family="Helvetica,sans-Serif" font-size="10.00"># set_error_number()</text>
<text text-anchor="start" x="7.91406" y="-371" font-family="Helvetica,sans-Serif" font-size="10.00"># set_error_number_if</text>
<text text-anchor="start" x="7.91406" y="-361" font-family="Helvetica,sans-Serif" font-size="10.00">_error()</text>
<text text-anchor="start" x="7.91406" y="-351" font-family="Helvetica,sans-Serif" font-size="10.00"># set_error_number_if_null()</text>
<text text-anchor="start" x="7.91406" y="-341" font-family="Helvetica,sans-Serif" font-size="10.00"># set_error_number_to</text>
<text text-anchor="start" x="7.91406" y="-331" font-family="Helvetica,sans-Serif" font-size="10.00">_errno()</text>
</a>
</g>
</g>
<!-- Node3&#45;&gt;Node2 -->
<g id="edge2" class="edge"><title>Node3&#45;&gt;Node2</title>
<path fill="none" stroke="midnightblue" d="M71,-314.741C71,-305.374 71,-296.03 71,-287.223"/>
<polygon fill="none" stroke="midnightblue" points="67.5001,-314.89 71,-324.89 74.5001,-314.89 67.5001,-314.89"/>
</g>
<!-- Node4 -->
<g id="node4" class="node"><title>Node4</title>
<g id="a_node4"><a xlink:href="classapi_1_1_api_object.html" target="_top" xlink:title="Application Programming Interface Object. ">
<polygon fill="none" stroke="black" points="29.7896,-507 29.7896,-561 112.21,-561 112.21,-507 29.7896,-507"/>
<text text-anchor="middle" x="71" y="-549" font-family="Helvetica,sans-Serif" font-size="10.00">api::ApiObject</text>
<polyline fill="none" stroke="black" points="29.7896,-543 112.21,-543 "/>
<text text-anchor="middle" x="71" y="-531" font-family="Helvetica,sans-Serif" font-size="10.00"> </text>
<polyline fill="none" stroke="black" points="29.7896,-525 112.21,-525 "/>
<text text-anchor="start" x="37.7896" y="-513" font-family="Helvetica,sans-Serif" font-size="10.00">+ api_version()</text>
</a>
</g>
</g>
<!-- Node4&#45;&gt;Node3 -->
<g id="edge3" class="edge"><title>Node4&#45;&gt;Node3</title>
<path fill="none" stroke="midnightblue" d="M71,-496.925C71,-488.287 71,-478.765 71,-469.145"/>
<polygon fill="none" stroke="midnightblue" points="67.5001,-496.971 71,-506.971 74.5001,-496.971 67.5001,-496.971"/>
</g>
</g>
</svg>
