<?xml version="1.0" encoding="UTF-8" standalone="no"?>
<!DOCTYPE svg PUBLIC "-//W3C//DTD SVG 1.1//EN"
 "http://www.w3.org/Graphics/SVG/1.1/DTD/svg11.dtd">
<!-- Generated by graphviz version 2.36.0 (20140111.2315)
 -->
<!-- Title: api::CalcWorkObject Pages: 1 -->
<!--zoomable 732 -->
<svg id="main" version="1.1" xmlns="http://www.w3.org/2000/svg" xmlns:xlink="http://www.w3.org/1999/xlink" xml:space="preserve" onload="init(evt)">
<style type="text/css"><![CDATA[
.edge:hover path { stroke: red; }
.edge:hover polygon { stroke: red; fill: red; }
]]></style>
<script type="text/javascript"><![CDATA[
var edges = document.getElementsByTagName('g');
if (edges && edges.length) {
  for (var i=0;i<edges.length;i++) {
    if (edges[i].id.substr(0,4)=='edge') {
      edges[i].setAttribute('class','edge');
    }
  }
}
]]></script>
        <defs>
                <circle id="rim" cx="0" cy="0" r="7"/>
                <circle id="rim2" cx="0" cy="0" r="3.5"/>
                <g id="zoomPlus">
                        <use xlink:href="#rim" fill="#404040">
                                <set attributeName="fill" to="#808080" begin="zoomplus.mouseover" end="zoomplus.mouseout"/>
                        </use>
                        <path d="M-4,0h8M0,-4v8" fill="none" stroke="white" stroke-width="1.5" pointer-events="none"/>
                </g>
                <g id="zoomMin">
                        <use xlink:href="#rim" fill="#404040">
                                <set attributeName="fill" to="#808080" begin="zoomminus.mouseover" end="zoomminus.mouseout"/>
                        </use>
                        <path d="M-4,0h8" fill="none" stroke="white" stroke-width="1.5" pointer-events="none"/>
                </g>
                <g id="dirArrow">
                        <path fill="none" stroke="white" stroke-width="1.5" d="M0,-3.0v7 M-2.5,-0.5L0,-3.0L2.5,-0.5"/>
                </g>
               <g id="resetDef">
                       <use xlink:href="#rim2" fill="#404040">
                               <set attributeName="fill" to="#808080" begin="reset.mouseover" end="reset.mouseout"/>
                       </use>
               </g>
        </defs>

<script type="text/javascript">
var viewWidth = 912;
var viewHeight = 732;
var sectionId = 'dynsection-0';
</script>
<script xlink:href="svgpan.js"/>
<svg id="graph" class="graph">
<g id="viewport">
<title>api::CalcWorkObject</title>
<!-- Node1 -->
<g id="node1" class="node"><title>Node1</title>
<polygon fill="#bfbfbf" stroke="black" points="456.519,-401 456.519,-455 563.481,-455 563.481,-401 456.519,-401"/>
<text text-anchor="middle" x="510" y="-443" font-family="Helvetica,sans-Serif" font-size="10.00">api::CalcWorkObject</text>
<polyline fill="none" stroke="black" points="456.519,-437 563.481,-437 "/>
<text text-anchor="middle" x="510" y="-425" font-family="Helvetica,sans-Serif" font-size="10.00"> </text>
<polyline fill="none" stroke="black" points="456.519,-419 563.481,-419 "/>
<text text-anchor="middle" x="510" y="-407" font-family="Helvetica,sans-Serif" font-size="10.00"> </text>
</g>
<!-- Node4 -->
<g id="node4" class="node"><title>Node4</title>
<g id="a_node4"><a xlink:href="classcalc_1_1_ema.html" target="_top" xlink:title="Exponential Moving Average template class. ">
<polygon fill="none" stroke="black" points="247.061,-252 247.061,-356 358.939,-356 358.939,-252 247.061,-252"/>
<text text-anchor="start" x="255.061" y="-344" font-family="Helvetica,sans-Serif" font-size="10.00">calc::Ema&lt; intsmall,</text>
<text text-anchor="middle" x="303" y="-334" font-family="Helvetica,sans-Serif" font-size="10.00"> intmedium, intlarge &gt;</text>
<polyline fill="none" stroke="black" points="247.061,-328 358.939,-328 "/>
<text text-anchor="middle" x="303" y="-316" font-family="Helvetica,sans-Serif" font-size="10.00"> </text>
<polyline fill="none" stroke="black" points="247.061,-310 358.939,-310 "/>
<text text-anchor="start" x="255.061" y="-298" font-family="Helvetica,sans-Serif" font-size="10.00">+ Ema()</text>
<text text-anchor="start" x="255.061" y="-288" font-family="Helvetica,sans-Serif" font-size="10.00">+ average()</text>
<text text-anchor="start" x="255.061" y="-278" font-family="Helvetica,sans-Serif" font-size="10.00">+ calc()</text>
<text text-anchor="start" x="255.061" y="-268" font-family="Helvetica,sans-Serif" font-size="10.00">+ set_average()</text>
<text text-anchor="start" x="255.061" y="-258" font-family="Helvetica,sans-Serif" font-size="10.00">+ small_max()</text>
</a>
</g>
</g>
<!-- Node1&#45;&gt;Node4 -->
<g id="edge3" class="edge"><title>Node1&#45;&gt;Node4</title>
<path fill="none" stroke="midnightblue" d="M457.215,-395.89C427.274,-378.244 389.814,-356.165 359.311,-338.188"/>
<polygon fill="none" stroke="midnightblue" points="455.455,-398.915 465.847,-400.978 459.009,-392.885 455.455,-398.915"/>
</g>
<!-- Node5 -->
<g id="node5" class="node"><title>Node5</title>
<g id="a_node5"><a xlink:href="classcalc_1_1_ema.html" target="_top" xlink:title="{calc::Ema\&lt; u8, s16,\l s32 \&gt;\n||+ Ema()\l+ average()\l+ calc()\l+ set_average()\l+ small_max()\l}">
<polygon fill="none" stroke="black" points="136.95,-95 136.95,-199 241.05,-199 241.05,-95 136.95,-95"/>
<text text-anchor="start" x="144.95" y="-187" font-family="Helvetica,sans-Serif" font-size="10.00">calc::Ema&lt; u8, s16,</text>
<text text-anchor="middle" x="189" y="-177" font-family="Helvetica,sans-Serif" font-size="10.00"> s32 &gt;</text>
<polyline fill="none" stroke="black" points="136.95,-171 241.05,-171 "/>
<text text-anchor="middle" x="189" y="-159" font-family="Helvetica,sans-Serif" font-size="10.00"> </text>
<polyline fill="none" stroke="black" points="136.95,-153 241.05,-153 "/>
<text text-anchor="start" x="144.95" y="-141" font-family="Helvetica,sans-Serif" font-size="10.00">+ Ema()</text>
<text text-anchor="start" x="144.95" y="-131" font-family="Helvetica,sans-Serif" font-size="10.00">+ average()</text>
<text text-anchor="start" x="144.95" y="-121" font-family="Helvetica,sans-Serif" font-size="10.00">+ calc()</text>
<text text-anchor="start" x="144.95" y="-111" font-family="Helvetica,sans-Serif" font-size="10.00">+ set_average()</text>
<text text-anchor="start" x="144.95" y="-101" font-family="Helvetica,sans-Serif" font-size="10.00">+ small_max()</text>
</a>
</g>
</g>
<!-- Node1&#45;&gt;Node5 -->
<g id="edge17" class="edge"><title>Node1&#45;&gt;Node5</title>
<path fill="none" stroke="midnightblue" d="M446.217,-422.65C388.336,-416.279 302.442,-400.593 238,-362 169.667,-321.077 147.289,-302.457 119,-228 112.249,-210.231 122.262,-193.809 136.642,-180.528"/>
<polygon fill="none" stroke="midnightblue" points="446.022,-426.149 456.33,-423.7 446.745,-419.186 446.022,-426.149"/>
</g>
<!-- Node7 -->
<g id="node7" class="node"><title>Node7</title>
<g id="a_node7"><a xlink:href="classcalc_1_1_ema.html" target="_top" xlink:title="{calc::Ema\&lt; u16, s32,\l s64 \&gt;\n||+ Ema()\l+ average()\l+ calc()\l+ set_average()\l+ small_max()\l}">
<polygon fill="none" stroke="black" points="-0.831055,-95 -0.831055,-199 108.831,-199 108.831,-95 -0.831055,-95"/>
<text text-anchor="start" x="7.16895" y="-187" font-family="Helvetica,sans-Serif" font-size="10.00">calc::Ema&lt; u16, s32,</text>
<text text-anchor="middle" x="54" y="-177" font-family="Helvetica,sans-Serif" font-size="10.00"> s64 &gt;</text>
<polyline fill="none" stroke="black" points="-0.831055,-171 108.831,-171 "/>
<text text-anchor="middle" x="54" y="-159" font-family="Helvetica,sans-Serif" font-size="10.00"> </text>
<polyline fill="none" stroke="black" points="-0.831055,-153 108.831,-153 "/>
<text text-anchor="start" x="7.16895" y="-141" font-family="Helvetica,sans-Serif" font-size="10.00">+ Ema()</text>
<text text-anchor="start" x="7.16895" y="-131" font-family="Helvetica,sans-Serif" font-size="10.00">+ average()</text>
<text text-anchor="start" x="7.16895" y="-121" font-family="Helvetica,sans-Serif" font-size="10.00">+ calc()</text>
<text text-anchor="start" x="7.16895" y="-111" font-family="Helvetica,sans-Serif" font-size="10.00">+ set_average()</text>
<text text-anchor="start" x="7.16895" y="-101" font-family="Helvetica,sans-Serif" font-size="10.00">+ small_max()</text>
</a>
</g>
</g>
<!-- Node1&#45;&gt;Node7 -->
<g id="edge15" class="edge"><title>Node1&#45;&gt;Node7</title>
<path fill="none" stroke="midnightblue" d="M446.236,-424.169C349.109,-418.588 170.359,-402.925 123,-362 76.0376,-321.418 60.794,-248.694 55.9847,-199.41"/>
<polygon fill="none" stroke="midnightblue" points="446.053,-427.665 456.232,-424.725 446.442,-420.675 446.053,-427.665"/>
</g>
<!-- Node9 -->
<g id="node9" class="node"><title>Node9</title>
<g id="a_node9"><a xlink:href="classcalc_1_1_ema.html" target="_top" xlink:title="{calc::Ema\&lt; u8, u16,\l u32 \&gt;\n||+ Ema()\l+ average()\l+ calc()\l+ set_average()\l+ small_max()\l}">
<polygon fill="none" stroke="black" points="441.669,-95 441.669,-199 546.331,-199 546.331,-95 441.669,-95"/>
<text text-anchor="start" x="449.669" y="-187" font-family="Helvetica,sans-Serif" font-size="10.00">calc::Ema&lt; u8, u16,</text>
<text text-anchor="middle" x="494" y="-177" font-family="Helvetica,sans-Serif" font-size="10.00"> u32 &gt;</text>
<polyline fill="none" stroke="black" points="441.669,-171 546.331,-171 "/>
<text text-anchor="middle" x="494" y="-159" font-family="Helvetica,sans-Serif" font-size="10.00"> </text>
<polyline fill="none" stroke="black" points="441.669,-153 546.331,-153 "/>
<text text-anchor="start" x="449.669" y="-141" font-family="Helvetica,sans-Serif" font-size="10.00">+ Ema()</text>
<text text-anchor="start" x="449.669" y="-131" font-family="Helvetica,sans-Serif" font-size="10.00">+ average()</text>
<text text-anchor="start" x="449.669" y="-121" font-family="Helvetica,sans-Serif" font-size="10.00">+ calc()</text>
<text text-anchor="start" x="449.669" y="-111" font-family="Helvetica,sans-Serif" font-size="10.00">+ set_average()</text>
<text text-anchor="start" x="449.669" y="-101" font-family="Helvetica,sans-Serif" font-size="10.00">+ small_max()</text>
</a>
</g>
</g>
<!-- Node1&#45;&gt;Node9 -->
<g id="edge18" class="edge"><title>Node1&#45;&gt;Node9</title>
<path fill="none" stroke="midnightblue" d="M513.297,-390.821C516.425,-349.013 519.62,-278.234 512,-218 511.228,-211.9 510.093,-205.571 508.76,-199.323"/>
<polygon fill="none" stroke="midnightblue" points="509.807,-390.558 512.51,-400.802 516.785,-391.108 509.807,-390.558"/>
</g>
<!-- Node11 -->
<g id="node11" class="node"><title>Node11</title>
<g id="a_node11"><a xlink:href="classcalc_1_1_ema.html" target="_top" xlink:title="{calc::Ema\&lt; u16, u32,\l u64 \&gt;\n||+ Ema()\l+ average()\l+ calc()\l+ set_average()\l+ small_max()\l}">
<polygon fill="none" stroke="black" points="263.888,-95 263.888,-199 374.112,-199 374.112,-95 263.888,-95"/>
<text text-anchor="start" x="271.888" y="-187" font-family="Helvetica,sans-Serif" font-size="10.00">calc::Ema&lt; u16, u32,</text>
<text text-anchor="middle" x="319" y="-177" font-family="Helvetica,sans-Serif" font-size="10.00"> u64 &gt;</text>
<polyline fill="none" stroke="black" points="263.888,-171 374.112,-171 "/>
<text text-anchor="middle" x="319" y="-159" font-family="Helvetica,sans-Serif" font-size="10.00"> </text>
<polyline fill="none" stroke="black" points="263.888,-153 374.112,-153 "/>
<text text-anchor="start" x="271.888" y="-141" font-family="Helvetica,sans-Serif" font-size="10.00">+ Ema()</text>
<text text-anchor="start" x="271.888" y="-131" font-family="Helvetica,sans-Serif" font-size="10.00">+ average()</text>
<text text-anchor="start" x="271.888" y="-121" font-family="Helvetica,sans-Serif" font-size="10.00">+ calc()</text>
<text text-anchor="start" x="271.888" y="-111" font-family="Helvetica,sans-Serif" font-size="10.00">+ set_average()</text>
<text text-anchor="start" x="271.888" y="-101" font-family="Helvetica,sans-Serif" font-size="10.00">+ small_max()</text>
</a>
</g>
</g>
<!-- Node1&#45;&gt;Node11 -->
<g id="edge16" class="edge"><title>Node1&#45;&gt;Node11</title>
<path fill="none" stroke="midnightblue" d="M509.955,-390.358C509.155,-337.612 504.75,-243.784 484,-218 468.93,-199.274 455.29,-208.997 433,-200 413.635,-192.184 392.762,-182.917 374.236,-174.387"/>
<polygon fill="none" stroke="midnightblue" points="506.459,-390.68 510.073,-400.639 513.458,-390.599 506.459,-390.68"/>
</g>
<!-- Node13 -->
<g id="node13" class="node"><title>Node13</title>
<g id="a_node13"><a xlink:href="classcalc_1_1_ema__f.html" target="_top" xlink:title="Exponential Moving Average class (float) ">
<polygon fill="none" stroke="black" points="556.841,-247 556.841,-361 643.159,-361 643.159,-247 556.841,-247"/>
<text text-anchor="middle" x="600" y="-349" font-family="Helvetica,sans-Serif" font-size="10.00">calc::Ema_f</text>
<polyline fill="none" stroke="black" points="556.841,-343 643.159,-343 "/>
<text text-anchor="middle" x="600" y="-331" font-family="Helvetica,sans-Serif" font-size="10.00"> </text>
<polyline fill="none" stroke="black" points="556.841,-325 643.159,-325 "/>
<text text-anchor="start" x="564.841" y="-313" font-family="Helvetica,sans-Serif" font-size="10.00">+ Ema_f()</text>
<text text-anchor="start" x="564.841" y="-303" font-family="Helvetica,sans-Serif" font-size="10.00">+ average()</text>
<text text-anchor="start" x="564.841" y="-293" font-family="Helvetica,sans-Serif" font-size="10.00">+ avg()</text>
<text text-anchor="start" x="564.841" y="-283" font-family="Helvetica,sans-Serif" font-size="10.00">+ calc()</text>
<text text-anchor="start" x="564.841" y="-273" font-family="Helvetica,sans-Serif" font-size="10.00">+ set()</text>
<text text-anchor="start" x="564.841" y="-263" font-family="Helvetica,sans-Serif" font-size="10.00">+ set_average()</text>
<text text-anchor="start" x="564.841" y="-253" font-family="Helvetica,sans-Serif" font-size="10.00">+ small_max()</text>
</a>
</g>
</g>
<!-- Node1&#45;&gt;Node13 -->
<g id="edge12" class="edge"><title>Node1&#45;&gt;Node13</title>
<path fill="none" stroke="midnightblue" d="M535.398,-392.571C542.602,-382.806 550.638,-371.913 558.529,-361.217"/>
<polygon fill="none" stroke="midnightblue" points="532.427,-390.703 529.307,-400.828 538.06,-394.858 532.427,-390.703"/>
</g>
<!-- Node14 -->
<g id="node14" class="node"><title>Node14</title>
<g id="a_node14"><a xlink:href="classcalc_1_1_lookup.html" target="_top" xlink:title="Lookup Table Template Class. ">
<polygon fill="none" stroke="black" points="660.886,-267 660.886,-341 761.114,-341 761.114,-267 660.886,-267"/>
<text text-anchor="start" x="668.886" y="-329" font-family="Helvetica,sans-Serif" font-size="10.00">calc::Lookup&lt; data</text>
<text text-anchor="middle" x="711" y="-319" font-family="Helvetica,sans-Serif" font-size="10.00">_type &gt;</text>
<polyline fill="none" stroke="black" points="660.886,-313 761.114,-313 "/>
<text text-anchor="middle" x="711" y="-301" font-family="Helvetica,sans-Serif" font-size="10.00"> </text>
<polyline fill="none" stroke="black" points="660.886,-295 761.114,-295 "/>
<text text-anchor="start" x="668.886" y="-283" font-family="Helvetica,sans-Serif" font-size="10.00">+ Lookup()</text>
<text text-anchor="start" x="668.886" y="-273" font-family="Helvetica,sans-Serif" font-size="10.00">+ calc_value()</text>
</a>
</g>
</g>
<!-- Node1&#45;&gt;Node14 -->
<g id="edge13" class="edge"><title>Node1&#45;&gt;Node14</title>
<path fill="none" stroke="midnightblue" d="M572.787,-403.689C598.406,-392.822 627.665,-378.603 652,-362 660.824,-355.98 669.541,-348.595 677.458,-341.161"/>
<polygon fill="none" stroke="midnightblue" points="571.418,-400.468 563.529,-407.54 574.107,-406.931 571.418,-400.468"/>
</g>
<!-- Node15 -->
<g id="node15" class="node"><title>Node15</title>
<g id="a_node15"><a xlink:href="classcalc_1_1_pid__f.html" target="_top" xlink:title="PID Control Loop Class (float) ">
<polygon fill="none" stroke="black" points="779.391,-247 779.391,-361 904.609,-361 904.609,-247 779.391,-247"/>
<text text-anchor="middle" x="842" y="-349" font-family="Helvetica,sans-Serif" font-size="10.00">calc::Pid_f</text>
<polyline fill="none" stroke="black" points="779.391,-343 904.609,-343 "/>
<text text-anchor="middle" x="842" y="-331" font-family="Helvetica,sans-Serif" font-size="10.00"> </text>
<polyline fill="none" stroke="black" points="779.391,-325 904.609,-325 "/>
<text text-anchor="start" x="787.391" y="-313" font-family="Helvetica,sans-Serif" font-size="10.00">+ Pid_f()</text>
<text text-anchor="start" x="787.391" y="-303" font-family="Helvetica,sans-Serif" font-size="10.00">+ calc_control_variable()</text>
<text text-anchor="start" x="787.391" y="-293" font-family="Helvetica,sans-Serif" font-size="10.00">+ calc_value()</text>
<text text-anchor="start" x="787.391" y="-283" font-family="Helvetica,sans-Serif" font-size="10.00">+ kd()</text>
<text text-anchor="start" x="787.391" y="-273" font-family="Helvetica,sans-Serif" font-size="10.00">+ ki()</text>
<text text-anchor="start" x="787.391" y="-263" font-family="Helvetica,sans-Serif" font-size="10.00">+ kp()</text>
<text text-anchor="start" x="787.391" y="-253" font-family="Helvetica,sans-Serif" font-size="10.00">and 10 more...</text>
</a>
</g>
</g>
<!-- Node1&#45;&gt;Node15 -->
<g id="edge14" class="edge"><title>Node1&#45;&gt;Node15</title>
<path fill="none" stroke="midnightblue" d="M573.759,-418.783C628.059,-410.012 707.053,-392.976 770,-362 773.004,-360.522 776,-358.902 778.968,-357.175"/>
<polygon fill="none" stroke="midnightblue" points="572.917,-415.373 563.579,-420.378 574,-422.288 572.917,-415.373"/>
</g>
<!-- Node2 -->
<g id="node2" class="node"><title>Node2</title>
<g id="a_node2"><a xlink:href="classapi_1_1_work_object.html" target="_top" xlink:title="WorkObject Class. ">
<polygon fill="none" stroke="black" points="450.452,-495 450.452,-629 569.548,-629 569.548,-495 450.452,-495"/>
<text text-anchor="middle" x="510" y="-617" font-family="Helvetica,sans-Serif" font-size="10.00">api::WorkObject</text>
<polyline fill="none" stroke="black" points="450.452,-611 569.548,-611 "/>
<text text-anchor="middle" x="510" y="-599" font-family="Helvetica,sans-Serif" font-size="10.00"> </text>
<polyline fill="none" stroke="black" points="450.452,-593 569.548,-593 "/>
<text text-anchor="start" x="458.452" y="-581" font-family="Helvetica,sans-Serif" font-size="10.00">+ WorkObject()</text>
<text text-anchor="start" x="458.452" y="-571" font-family="Helvetica,sans-Serif" font-size="10.00">+ clear_error_number()</text>
<text text-anchor="start" x="458.452" y="-561" font-family="Helvetica,sans-Serif" font-size="10.00">+ error_number()</text>
<text text-anchor="start" x="458.452" y="-551" font-family="Helvetica,sans-Serif" font-size="10.00">+ exit_fatal()</text>
<text text-anchor="start" x="458.452" y="-541" font-family="Helvetica,sans-Serif" font-size="10.00"># set_error_number()</text>
<text text-anchor="start" x="458.452" y="-531" font-family="Helvetica,sans-Serif" font-size="10.00"># set_error_number_if</text>
<text text-anchor="start" x="458.452" y="-521" font-family="Helvetica,sans-Serif" font-size="10.00">_error()</text>
<text text-anchor="start" x="458.452" y="-511" font-family="Helvetica,sans-Serif" font-size="10.00"># set_error_number_to</text>
<text text-anchor="start" x="458.452" y="-501" font-family="Helvetica,sans-Serif" font-size="10.00">_errno()</text>
</a>
</g>
</g>
<!-- Node2&#45;&gt;Node1 -->
<g id="edge1" class="edge"><title>Node2&#45;&gt;Node1</title>
<path fill="none" stroke="midnightblue" d="M510,-484.484C510,-473.999 510,-463.876 510,-455.213"/>
<polygon fill="none" stroke="midnightblue" points="506.5,-484.613 510,-494.613 513.5,-484.613 506.5,-484.613"/>
</g>
<!-- Node3 -->
<g id="node3" class="node"><title>Node3</title>
<g id="a_node3"><a xlink:href="classapi_1_1_api_object.html" target="_top" xlink:title="API Object Class. ">
<polygon fill="none" stroke="black" points="468.79,-669 468.79,-723 551.21,-723 551.21,-669 468.79,-669"/>
<text text-anchor="middle" x="510" y="-711" font-family="Helvetica,sans-Serif" font-size="10.00">api::ApiObject</text>
<polyline fill="none" stroke="black" points="468.79,-705 551.21,-705 "/>
<text text-anchor="middle" x="510" y="-693" font-family="Helvetica,sans-Serif" font-size="10.00"> </text>
<polyline fill="none" stroke="black" points="468.79,-687 551.21,-687 "/>
<text text-anchor="start" x="476.79" y="-675" font-family="Helvetica,sans-Serif" font-size="10.00">+ api_version()</text>
</a>
</g>
</g>
<!-- Node3&#45;&gt;Node2 -->
<g id="edge2" class="edge"><title>Node3&#45;&gt;Node2</title>
<path fill="none" stroke="midnightblue" d="M510,-658.665C510,-649.502 510,-639.377 510,-629.243"/>
<polygon fill="none" stroke="midnightblue" points="506.5,-658.921 510,-668.921 513.5,-658.921 506.5,-658.921"/>
</g>
<!-- Node4&#45;&gt;Node5 -->
<g id="edge4" class="edge"><title>Node4&#45;&gt;Node5</title>
<path fill="none" stroke="orange" d="M239.768,-247.051C234.276,-240.902 229.077,-234.504 224.503,-228 218.297,-219.175 212.802,-209.092 208.102,-199.127"/>
<polygon fill="orange" stroke="orange" points="237.492,-249.743 246.858,-254.696 242.625,-244.983 237.492,-249.743"/>
<text text-anchor="middle" x="262.249" y="-220" font-family="Helvetica,sans-Serif" font-size="10.00"> &lt; u8, s16, s32 &gt;</text>
</g>
<!-- Node4&#45;&gt;Node7 -->
<g id="edge6" class="edge"><title>Node4&#45;&gt;Node7</title>
<path fill="none" stroke="orange" d="M237.647,-280.208C205.294,-267.376 166.51,-249.581 134.941,-228 122.871,-219.749 111.016,-209.583 100.26,-199.299"/>
<polygon fill="orange" stroke="orange" points="236.438,-283.493 247.027,-283.862 238.979,-276.971 236.438,-283.493"/>
<text text-anchor="middle" x="175.029" y="-220" font-family="Helvetica,sans-Serif" font-size="10.00"> &lt; u16, s32, s64 &gt;</text>
</g>
<!-- Node4&#45;&gt;Node9 -->
<g id="edge8" class="edge"><title>Node4&#45;&gt;Node9</title>
<path fill="none" stroke="orange" d="M366.786,-251.237C391.081,-231.521 418.465,-209.298 441.586,-190.535"/>
<polygon fill="orange" stroke="orange" points="364.575,-248.523 359.016,-257.542 368.986,-253.959 364.575,-248.523"/>
<text text-anchor="middle" x="442.81" y="-220" font-family="Helvetica,sans-Serif" font-size="10.00"> &lt; u8, u16, u32 &gt;</text>
</g>
<!-- Node4&#45;&gt;Node11 -->
<g id="edge10" class="edge"><title>Node4&#45;&gt;Node11</title>
<path fill="none" stroke="orange" d="M302.102,-241.639C302.422,-233.671 302.963,-225.631 303.818,-218 304.511,-211.821 305.512,-205.385 306.675,-199.029"/>
<polygon fill="orange" stroke="orange" points="298.603,-241.559 301.809,-251.657 305.6,-241.764 298.603,-241.559"/>
<text text-anchor="middle" x="344.591" y="-220" font-family="Helvetica,sans-Serif" font-size="10.00"> &lt; u16, u32, u64 &gt;</text>
</g>
<!-- Node6 -->
<g id="node6" class="node"><title>Node6</title>
<g id="a_node6"><a xlink:href="classcalc_1_1_ema__s16.html" target="_top" xlink:title="Exponential Moving Average class (s16) ">
<polygon fill="none" stroke="black" points="148.207,-1 148.207,-55 229.793,-55 229.793,-1 148.207,-1"/>
<text text-anchor="middle" x="189" y="-43" font-family="Helvetica,sans-Serif" font-size="10.00">calc::Ema_s16</text>
<polyline fill="none" stroke="black" points="148.207,-37 229.793,-37 "/>
<text text-anchor="middle" x="189" y="-25" font-family="Helvetica,sans-Serif" font-size="10.00"> </text>
<polyline fill="none" stroke="black" points="148.207,-19 229.793,-19 "/>
<text text-anchor="start" x="156.207" y="-7" font-family="Helvetica,sans-Serif" font-size="10.00">+ Ema_s16()</text>
</a>
</g>
</g>
<!-- Node5&#45;&gt;Node6 -->
<g id="edge5" class="edge"><title>Node5&#45;&gt;Node6</title>
<path fill="none" stroke="midnightblue" d="M189,-84.4073C189,-74.1278 189,-63.9761 189,-55.2263"/>
<polygon fill="none" stroke="midnightblue" points="185.5,-84.6821 189,-94.6821 192.5,-84.6821 185.5,-84.6821"/>
</g>
<!-- Node8 -->
<g id="node8" class="node"><title>Node8</title>
<g id="a_node8"><a xlink:href="classcalc_1_1_ema__s32.html" target="_top" xlink:title="Exponential Moving Average class (s32) ">
<polygon fill="none" stroke="black" points="13.207,-1 13.207,-55 94.793,-55 94.793,-1 13.207,-1"/>
<text text-anchor="middle" x="54" y="-43" font-family="Helvetica,sans-Serif" font-size="10.00">calc::Ema_s32</text>
<polyline fill="none" stroke="black" points="13.207,-37 94.793,-37 "/>
<text text-anchor="middle" x="54" y="-25" font-family="Helvetica,sans-Serif" font-size="10.00"> </text>
<polyline fill="none" stroke="black" points="13.207,-19 94.793,-19 "/>
<text text-anchor="start" x="21.207" y="-7" font-family="Helvetica,sans-Serif" font-size="10.00">+ Ema_s32()</text>
</a>
</g>
</g>
<!-- Node7&#45;&gt;Node8 -->
<g id="edge7" class="edge"><title>Node7&#45;&gt;Node8</title>
<path fill="none" stroke="midnightblue" d="M54,-84.4073C54,-74.1278 54,-63.9761 54,-55.2263"/>
<polygon fill="none" stroke="midnightblue" points="50.5001,-84.6821 54,-94.6821 57.5001,-84.6821 50.5001,-84.6821"/>
</g>
<!-- Node10 -->
<g id="node10" class="node"><title>Node10</title>
<g id="a_node10"><a xlink:href="classcalc_1_1_ema__u16.html" target="_top" xlink:title="Exponential Moving Average class (u16) ">
<polygon fill="none" stroke="black" points="452.926,-1 452.926,-55 535.074,-55 535.074,-1 452.926,-1"/>
<text text-anchor="middle" x="494" y="-43" font-family="Helvetica,sans-Serif" font-size="10.00">calc::Ema_u16</text>
<polyline fill="none" stroke="black" points="452.926,-37 535.074,-37 "/>
<text text-anchor="middle" x="494" y="-25" font-family="Helvetica,sans-Serif" font-size="10.00"> </text>
<polyline fill="none" stroke="black" points="452.926,-19 535.074,-19 "/>
<text text-anchor="start" x="460.926" y="-7" font-family="Helvetica,sans-Serif" font-size="10.00">+ Ema_u16()</text>
</a>
</g>
</g>
<!-- Node9&#45;&gt;Node10 -->
<g id="edge9" class="edge"><title>Node9&#45;&gt;Node10</title>
<path fill="none" stroke="midnightblue" d="M494,-84.4073C494,-74.1278 494,-63.9761 494,-55.2263"/>
<polygon fill="none" stroke="midnightblue" points="490.5,-84.6821 494,-94.6821 497.5,-84.6821 490.5,-84.6821"/>
</g>
<!-- Node12 -->
<g id="node12" class="node"><title>Node12</title>
<g id="a_node12"><a xlink:href="classcalc_1_1_ema__u32.html" target="_top" xlink:title="Exponential Moving Average class (u32) ">
<polygon fill="none" stroke="black" points="277.926,-1 277.926,-55 360.074,-55 360.074,-1 277.926,-1"/>
<text text-anchor="middle" x="319" y="-43" font-family="Helvetica,sans-Serif" font-size="10.00">calc::Ema_u32</text>
<polyline fill="none" stroke="black" points="277.926,-37 360.074,-37 "/>
<text text-anchor="middle" x="319" y="-25" font-family="Helvetica,sans-Serif" font-size="10.00"> </text>
<polyline fill="none" stroke="black" points="277.926,-19 360.074,-19 "/>
<text text-anchor="start" x="285.926" y="-7" font-family="Helvetica,sans-Serif" font-size="10.00">+ Ema_u32()</text>
</a>
</g>
</g>
<!-- Node11&#45;&gt;Node12 -->
<g id="edge11" class="edge"><title>Node11&#45;&gt;Node12</title>
<path fill="none" stroke="midnightblue" d="M319,-84.4073C319,-74.1278 319,-63.9761 319,-55.2263"/>
<polygon fill="none" stroke="midnightblue" points="315.5,-84.6821 319,-94.6821 322.5,-84.6821 315.5,-84.6821"/>
</g>
</g>
</svg>
        <g id="navigator" transform="translate(0 0)" fill="#404254">
                <rect fill="#f2f5e9" fill-opacity="0.5" stroke="#606060" stroke-width=".5" x="0" y="0" width="60" height="60"/>
                <use id="zoomplus" xlink:href="#zoomPlus" x="17" y="9" onmousedown="handleZoom(evt,'in')"/>
                <use id="zoomminus" xlink:href="#zoomMin" x="42" y="9" onmousedown="handleZoom(evt,'out')"/>
                <use id="reset" xlink:href="#resetDef" x="30" y="36" onmousedown="handleReset()"/>
                <g id="arrowUp" xlink:href="#dirArrow" transform="translate(30 24)" onmousedown="handlePan(0,-1)">
                  <use xlink:href="#rim" fill="#404040">
                        <set attributeName="fill" to="#808080" begin="arrowUp.mouseover" end="arrowUp.mouseout"/>
                  </use>
                  <path fill="none" stroke="white" stroke-width="1.5" d="M0,-3.0v7 M-2.5,-0.5L0,-3.0L2.5,-0.5"/>
                </g>
                <g id="arrowRight" xlink:href="#dirArrow" transform="rotate(90) translate(36 -43)" onmousedown="handlePan(1,0)">
                  <use xlink:href="#rim" fill="#404040">
                        <set attributeName="fill" to="#808080" begin="arrowRight.mouseover" end="arrowRight.mouseout"/>
                  </use>
                  <path fill="none" stroke="white" stroke-width="1.5" d="M0,-3.0v7 M-2.5,-0.5L0,-3.0L2.5,-0.5"/>
                </g>
                <g id="arrowDown" xlink:href="#dirArrow" transform="rotate(180) translate(-30 -48)" onmousedown="handlePan(0,1)">
                  <use xlink:href="#rim" fill="#404040">
                        <set attributeName="fill" to="#808080" begin="arrowDown.mouseover" end="arrowDown.mouseout"/>
                  </use>
                  <path fill="none" stroke="white" stroke-width="1.5" d="M0,-3.0v7 M-2.5,-0.5L0,-3.0L2.5,-0.5"/>
                </g>
                <g id="arrowLeft" xlink:href="#dirArrow" transform="rotate(270) translate(-36 17)" onmousedown="handlePan(-1,0)">
                  <use xlink:href="#rim" fill="#404040">
                        <set attributeName="fill" to="#808080" begin="arrowLeft.mouseover" end="arrowLeft.mouseout"/>
                  </use>
                  <path fill="none" stroke="white" stroke-width="1.5" d="M0,-3.0v7 M-2.5,-0.5L0,-3.0L2.5,-0.5"/>
                </g>
        </g>
        <svg viewBox="0 0 15 15" width="100%" height="30px" preserveAspectRatio="xMaxYMin meet">
         <g id="arrow_out" transform="scale(0.3 0.3)">
          <a xlink:href="classapi_1_1_calc_work_object__inherit__graph_org.svg" target="_base">
           <rect id="button" ry="5" rx="5" y="6" x="6" height="38" width="38"
                fill="#f2f5e9" fill-opacity="0.5" stroke="#606060" stroke-width="1.0"/>
           <path id="arrow"
             d="M 11.500037,31.436501 C 11.940474,20.09759 22.043105,11.32322 32.158766,21.979434 L 37.068811,17.246167 C 37.068811,17.246167 37.088388,32 37.088388,32 L 22.160133,31.978069 C 22.160133,31.978069 26.997745,27.140456 26.997745,27.140456 C 18.528582,18.264221 13.291696,25.230495 11.500037,31.436501 z"
             style="fill:#404040;"/>
          </a>
         </g>
        </svg>
</svg>
