<?xml version="1.0" encoding="UTF-8" standalone="no"?>
<!DOCTYPE svg PUBLIC "-//W3C//DTD SVG 1.1//EN"
 "http://www.w3.org/Graphics/SVG/1.1/DTD/svg11.dtd">
<!-- Generated by graphviz version 2.36.0 (20140111.2315)
 -->
<!-- Title: api::UiInfoObject Pages: 1 -->
<svg width="96pt" height="248pt"
 viewBox="0.00 0.00 96.00 248.00" xmlns="http://www.w3.org/2000/svg" xmlns:xlink="http://www.w3.org/1999/xlink">
<g id="graph0" class="graph" transform="scale(1 1) rotate(0) translate(4 244)">
<title>api::UiInfoObject</title>
<!-- Node1 -->
<g id="node1" class="node"><title>Node1</title>
<polygon fill="#bfbfbf" stroke="black" points="-0.962891,-1 -0.962891,-55 88.9629,-55 88.9629,-1 -0.962891,-1"/>
<text text-anchor="middle" x="44" y="-43" font-family="Helvetica,sans-Serif" font-size="10.00">api::UiInfoObject</text>
<polyline fill="none" stroke="black" points="-0.962891,-37 88.9629,-37 "/>
<text text-anchor="middle" x="44" y="-25" font-family="Helvetica,sans-Serif" font-size="10.00"> </text>
<polyline fill="none" stroke="black" points="-0.962891,-19 88.9629,-19 "/>
<text text-anchor="middle" x="44" y="-7" font-family="Helvetica,sans-Serif" font-size="10.00"> </text>
</g>
<!-- Node2 -->
<g id="node2" class="node"><title>Node2</title>
<g id="a_node2"><a xlink:href="classapi_1_1_info_object.html" target="_top" xlink:title="API Information Object. ">
<polygon fill="none" stroke="black" points="3.75879,-93 3.75879,-147 84.2412,-147 84.2412,-93 3.75879,-93"/>
<text text-anchor="middle" x="44" y="-135" font-family="Helvetica,sans-Serif" font-size="10.00">api::InfoObject</text>
<polyline fill="none" stroke="black" points="3.75879,-129 84.2412,-129 "/>
<text text-anchor="middle" x="44" y="-117" font-family="Helvetica,sans-Serif" font-size="10.00"> </text>
<polyline fill="none" stroke="black" points="3.75879,-111 84.2412,-111 "/>
<text text-anchor="middle" x="44" y="-99" font-family="Helvetica,sans-Serif" font-size="10.00"> </text>
</a>
</g>
</g>
<!-- Node2&#45;&gt;Node1 -->
<g id="edge1" class="edge"><title>Node2&#45;&gt;Node1</title>
<path fill="none" stroke="midnightblue" d="M44,-82.8649C44,-73.6445 44,-63.9071 44,-55.285"/>
<polygon fill="none" stroke="midnightblue" points="40.5001,-82.9682 44,-92.9683 47.5001,-82.9683 40.5001,-82.9682"/>
</g>
<!-- Node3 -->
<g id="node3" class="node"><title>Node3</title>
<g id="a_node3"><a xlink:href="classapi_1_1_api_object.html" target="_top" xlink:title="API Object Class. ">
<polygon fill="none" stroke="black" points="2.78955,-185 2.78955,-239 85.2104,-239 85.2104,-185 2.78955,-185"/>
<text text-anchor="middle" x="44" y="-227" font-family="Helvetica,sans-Serif" font-size="10.00">api::ApiObject</text>
<polyline fill="none" stroke="black" points="2.78955,-221 85.2104,-221 "/>
<text text-anchor="middle" x="44" y="-209" font-family="Helvetica,sans-Serif" font-size="10.00"> </text>
<polyline fill="none" stroke="black" points="2.78955,-203 85.2104,-203 "/>
<text text-anchor="start" x="10.7896" y="-191" font-family="Helvetica,sans-Serif" font-size="10.00">+ api_version()</text>
</a>
</g>
</g>
<!-- Node3&#45;&gt;Node2 -->
<g id="edge2" class="edge"><title>Node3&#45;&gt;Node2</title>
<path fill="none" stroke="midnightblue" d="M44,-174.865C44,-165.644 44,-155.907 44,-147.285"/>
<polygon fill="none" stroke="midnightblue" points="40.5001,-174.968 44,-184.968 47.5001,-174.968 40.5001,-174.968"/>
</g>
</g>
</svg>
