<?xml version="1.0" encoding="UTF-8" standalone="no"?>
<!DOCTYPE svg PUBLIC "-//W3C//DTD SVG 1.1//EN"
 "http://www.w3.org/Graphics/SVG/1.1/DTD/svg11.dtd">
<!-- Generated by graphviz version 2.36.0 (20140111.2315)
 -->
<!-- Title: calc::Checksum Pages: 1 -->
<svg width="112pt" height="370pt"
 viewBox="0.00 0.00 112.00 370.00" xmlns="http://www.w3.org/2000/svg" xmlns:xlink="http://www.w3.org/1999/xlink">
<g id="graph0" class="graph" transform="scale(1 1) rotate(0) translate(4 366)">
<title>calc::Checksum</title>
<!-- Node1 -->
<g id="node1" class="node"><title>Node1</title>
<polygon fill="#bfbfbf" stroke="black" points="-0.318848,-1 -0.318848,-85 104.319,-85 104.319,-1 -0.318848,-1"/>
<text text-anchor="middle" x="52" y="-73" font-family="Helvetica,sans-Serif" font-size="10.00">calc::Checksum</text>
<polyline fill="none" stroke="black" points="-0.318848,-67 104.319,-67 "/>
<text text-anchor="middle" x="52" y="-55" font-family="Helvetica,sans-Serif" font-size="10.00"> </text>
<polyline fill="none" stroke="black" points="-0.318848,-49 104.319,-49 "/>
<text text-anchor="start" x="7.68115" y="-37" font-family="Helvetica,sans-Serif" font-size="10.00">+ calc_zero_sum()</text>
<text text-anchor="start" x="7.68115" y="-27" font-family="Helvetica,sans-Serif" font-size="10.00">+ calc_zero_sum()</text>
<text text-anchor="start" x="7.68115" y="-17" font-family="Helvetica,sans-Serif" font-size="10.00">+ verify_zero_sum()</text>
<text text-anchor="start" x="7.68115" y="-7" font-family="Helvetica,sans-Serif" font-size="10.00">+ verify_zero_sum()</text>
</g>
<!-- Node2 -->
<g id="node2" class="node"><title>Node2</title>
<g id="a_node2"><a xlink:href="classapi_1_1_calc_info_object.html" target="_top" xlink:title="Calc Infomation Object. ">
<polygon fill="none" stroke="black" points="1.75635,-123 1.75635,-177 102.244,-177 102.244,-123 1.75635,-123"/>
<text text-anchor="middle" x="52" y="-165" font-family="Helvetica,sans-Serif" font-size="10.00">api::CalcInfoObject</text>
<polyline fill="none" stroke="black" points="1.75635,-159 102.244,-159 "/>
<text text-anchor="middle" x="52" y="-147" font-family="Helvetica,sans-Serif" font-size="10.00"> </text>
<polyline fill="none" stroke="black" points="1.75635,-141 102.244,-141 "/>
<text text-anchor="middle" x="52" y="-129" font-family="Helvetica,sans-Serif" font-size="10.00"> </text>
</a>
</g>
</g>
<!-- Node2&#45;&gt;Node1 -->
<g id="edge1" class="edge"><title>Node2&#45;&gt;Node1</title>
<path fill="none" stroke="midnightblue" d="M52,-112.503C52,-103.755 52,-94.3512 52,-85.3987"/>
<polygon fill="none" stroke="midnightblue" points="48.5001,-112.775 52,-122.775 55.5001,-112.775 48.5001,-112.775"/>
</g>
<!-- Node3 -->
<g id="node3" class="node"><title>Node3</title>
<g id="a_node3"><a xlink:href="classapi_1_1_info_object.html" target="_top" xlink:title="Information Object. ">
<polygon fill="none" stroke="black" points="11.7588,-215 11.7588,-269 92.2412,-269 92.2412,-215 11.7588,-215"/>
<text text-anchor="middle" x="52" y="-257" font-family="Helvetica,sans-Serif" font-size="10.00">api::InfoObject</text>
<polyline fill="none" stroke="black" points="11.7588,-251 92.2412,-251 "/>
<text text-anchor="middle" x="52" y="-239" font-family="Helvetica,sans-Serif" font-size="10.00"> </text>
<polyline fill="none" stroke="black" points="11.7588,-233 92.2412,-233 "/>
<text text-anchor="middle" x="52" y="-221" font-family="Helvetica,sans-Serif" font-size="10.00"> </text>
</a>
</g>
</g>
<!-- Node3&#45;&gt;Node2 -->
<g id="edge2" class="edge"><title>Node3&#45;&gt;Node2</title>
<path fill="none" stroke="midnightblue" d="M52,-204.865C52,-195.644 52,-185.907 52,-177.285"/>
<polygon fill="none" stroke="midnightblue" points="48.5001,-204.968 52,-214.968 55.5001,-204.968 48.5001,-204.968"/>
</g>
<!-- Node4 -->
<g id="node4" class="node"><title>Node4</title>
<g id="a_node4"><a xlink:href="classapi_1_1_api_object.html" target="_top" xlink:title="Application Programming Interface Object. ">
<polygon fill="none" stroke="black" points="10.7896,-307 10.7896,-361 93.2104,-361 93.2104,-307 10.7896,-307"/>
<text text-anchor="middle" x="52" y="-349" font-family="Helvetica,sans-Serif" font-size="10.00">api::ApiObject</text>
<polyline fill="none" stroke="black" points="10.7896,-343 93.2104,-343 "/>
<text text-anchor="middle" x="52" y="-331" font-family="Helvetica,sans-Serif" font-size="10.00"> </text>
<polyline fill="none" stroke="black" points="10.7896,-325 93.2104,-325 "/>
<text text-anchor="start" x="18.7896" y="-313" font-family="Helvetica,sans-Serif" font-size="10.00">+ api_version()</text>
</a>
</g>
</g>
<!-- Node4&#45;&gt;Node3 -->
<g id="edge3" class="edge"><title>Node4&#45;&gt;Node3</title>
<path fill="none" stroke="midnightblue" d="M52,-296.865C52,-287.644 52,-277.907 52,-269.285"/>
<polygon fill="none" stroke="midnightblue" points="48.5001,-296.968 52,-306.968 55.5001,-296.968 48.5001,-296.968"/>
</g>
</g>
</svg>
