<?xml version="1.0" encoding="UTF-8" standalone="no"?>
<!DOCTYPE svg PUBLIC "-//W3C//DTD SVG 1.1//EN"
 "http://www.w3.org/Graphics/SVG/1.1/DTD/svg11.dtd">
<!-- Generated by graphviz version 2.36.0 (20140111.2315)
 -->
<!-- Title: draw::Animation Pages: 1 -->
<svg width="134pt" height="256pt"
 viewBox="0.00 0.00 134.00 256.00" xmlns="http://www.w3.org/2000/svg" xmlns:xlink="http://www.w3.org/1999/xlink">
<g id="graph0" class="graph" transform="scale(1 1) rotate(0) translate(4 252)">
<title>draw::Animation</title>
<!-- Node1 -->
<g id="node1" class="node"><title>Node1</title>
<polygon fill="#bfbfbf" stroke="black" points="19.1504,-1 19.1504,-95 106.85,-95 106.85,-1 19.1504,-1"/>
<text text-anchor="middle" x="63" y="-83" font-family="Helvetica,sans-Serif" font-size="10.00">draw::Animation</text>
<polyline fill="none" stroke="black" points="19.1504,-77 106.85,-77 "/>
<text text-anchor="middle" x="63" y="-65" font-family="Helvetica,sans-Serif" font-size="10.00"> </text>
<polyline fill="none" stroke="black" points="19.1504,-59 106.85,-59 "/>
<text text-anchor="start" x="27.1504" y="-47" font-family="Helvetica,sans-Serif" font-size="10.00">+ Animation()</text>
<text text-anchor="start" x="27.1504" y="-37" font-family="Helvetica,sans-Serif" font-size="10.00">+ Animation()</text>
<text text-anchor="start" x="27.1504" y="-27" font-family="Helvetica,sans-Serif" font-size="10.00">+ exec()</text>
<text text-anchor="start" x="27.1504" y="-17" font-family="Helvetica,sans-Serif" font-size="10.00">+ init()</text>
<text text-anchor="start" x="27.1504" y="-7" font-family="Helvetica,sans-Serif" font-size="10.00">+ reinit()</text>
</g>
<!-- Node2 -->
<g id="node2" class="node"><title>Node2</title>
<g id="a_node2"><a xlink:href="classdraw_1_1_animation_attr.html" target="_top" xlink:title="Animation Attributes Class. ">
<polygon fill="none" stroke="black" points="-0.168457,-133 -0.168457,-247 126.168,-247 126.168,-133 -0.168457,-133"/>
<text text-anchor="middle" x="63" y="-235" font-family="Helvetica,sans-Serif" font-size="10.00">draw::AnimationAttr</text>
<polyline fill="none" stroke="black" points="-0.168457,-229 126.168,-229 "/>
<text text-anchor="middle" x="63" y="-217" font-family="Helvetica,sans-Serif" font-size="10.00"> </text>
<polyline fill="none" stroke="black" points="-0.168457,-211 126.168,-211 "/>
<text text-anchor="start" x="7.83154" y="-199" font-family="Helvetica,sans-Serif" font-size="10.00">+ AnimationAttr()</text>
<text text-anchor="start" x="7.83154" y="-189" font-family="Helvetica,sans-Serif" font-size="10.00">+ assign()</text>
<text text-anchor="start" x="7.83154" y="-179" font-family="Helvetica,sans-Serif" font-size="10.00">+ attr()</text>
<text text-anchor="start" x="7.83154" y="-169" font-family="Helvetica,sans-Serif" font-size="10.00">+ data()</text>
<text text-anchor="start" x="7.83154" y="-159" font-family="Helvetica,sans-Serif" font-size="10.00">+ dim()</text>
<text text-anchor="start" x="7.83154" y="-149" font-family="Helvetica,sans-Serif" font-size="10.00">+ drawing_motion_total()</text>
<text text-anchor="start" x="7.83154" y="-139" font-family="Helvetica,sans-Serif" font-size="10.00">and 12 more...</text>
</a>
</g>
</g>
<!-- Node2&#45;&gt;Node1 -->
<g id="edge1" class="edge"><title>Node2&#45;&gt;Node1</title>
<path fill="none" stroke="midnightblue" d="M63,-122.823C63,-113.509 63,-104.105 63,-95.2717"/>
<polygon fill="none" stroke="midnightblue" points="59.5001,-122.863 63,-132.863 66.5001,-122.863 59.5001,-122.863"/>
</g>
</g>
</svg>
