<?xml version="1.0" encoding="UTF-8" standalone="no"?>
<!DOCTYPE svg PUBLIC "-//W3C//DTD SVG 1.1//EN"
 "http://www.w3.org/Graphics/SVG/1.1/DTD/svg11.dtd">
<!-- Generated by graphviz version 2.36.0 (20140111.2315)
 -->
<!-- Title: calc::Base64 Pages: 1 -->
<svg width="124pt" height="370pt"
 viewBox="0.00 0.00 124.00 370.00" xmlns="http://www.w3.org/2000/svg" xmlns:xlink="http://www.w3.org/1999/xlink">
<g id="graph0" class="graph" transform="scale(1 1) rotate(0) translate(4 366)">
<title>calc::Base64</title>
<!-- Node1 -->
<g id="node1" class="node"><title>Node1</title>
<polygon fill="#bfbfbf" stroke="black" points="-0.168457,-1 -0.168457,-85 116.168,-85 116.168,-1 -0.168457,-1"/>
<text text-anchor="middle" x="58" y="-73" font-family="Helvetica,sans-Serif" font-size="10.00">calc::Base64</text>
<polyline fill="none" stroke="black" points="-0.168457,-67 116.168,-67 "/>
<text text-anchor="middle" x="58" y="-55" font-family="Helvetica,sans-Serif" font-size="10.00"> </text>
<polyline fill="none" stroke="black" points="-0.168457,-49 116.168,-49 "/>
<text text-anchor="start" x="7.83154" y="-37" font-family="Helvetica,sans-Serif" font-size="10.00">+ calc_decoded_size()</text>
<text text-anchor="start" x="7.83154" y="-27" font-family="Helvetica,sans-Serif" font-size="10.00">+ calc_encoded_size()</text>
<text text-anchor="start" x="7.83154" y="-17" font-family="Helvetica,sans-Serif" font-size="10.00">+ decode()</text>
<text text-anchor="start" x="7.83154" y="-7" font-family="Helvetica,sans-Serif" font-size="10.00">+ encode()</text>
</g>
<!-- Node2 -->
<g id="node2" class="node"><title>Node2</title>
<g id="a_node2"><a xlink:href="classapi_1_1_calc_info_object.html" target="_top" xlink:title="Format Infomation Object. ">
<polygon fill="none" stroke="black" points="7.75635,-123 7.75635,-177 108.244,-177 108.244,-123 7.75635,-123"/>
<text text-anchor="middle" x="58" y="-165" font-family="Helvetica,sans-Serif" font-size="10.00">api::CalcInfoObject</text>
<polyline fill="none" stroke="black" points="7.75635,-159 108.244,-159 "/>
<text text-anchor="middle" x="58" y="-147" font-family="Helvetica,sans-Serif" font-size="10.00"> </text>
<polyline fill="none" stroke="black" points="7.75635,-141 108.244,-141 "/>
<text text-anchor="middle" x="58" y="-129" font-family="Helvetica,sans-Serif" font-size="10.00"> </text>
</a>
</g>
</g>
<!-- Node2&#45;&gt;Node1 -->
<g id="edge1" class="edge"><title>Node2&#45;&gt;Node1</title>
<path fill="none" stroke="midnightblue" d="M58,-112.503C58,-103.755 58,-94.3512 58,-85.3987"/>
<polygon fill="none" stroke="midnightblue" points="54.5001,-112.775 58,-122.775 61.5001,-112.775 54.5001,-112.775"/>
</g>
<!-- Node3 -->
<g id="node3" class="node"><title>Node3</title>
<g id="a_node3"><a xlink:href="classapi_1_1_info_object.html" target="_top" xlink:title="API Information Object. ">
<polygon fill="none" stroke="black" points="17.7588,-215 17.7588,-269 98.2412,-269 98.2412,-215 17.7588,-215"/>
<text text-anchor="middle" x="58" y="-257" font-family="Helvetica,sans-Serif" font-size="10.00">api::InfoObject</text>
<polyline fill="none" stroke="black" points="17.7588,-251 98.2412,-251 "/>
<text text-anchor="middle" x="58" y="-239" font-family="Helvetica,sans-Serif" font-size="10.00"> </text>
<polyline fill="none" stroke="black" points="17.7588,-233 98.2412,-233 "/>
<text text-anchor="middle" x="58" y="-221" font-family="Helvetica,sans-Serif" font-size="10.00"> </text>
</a>
</g>
</g>
<!-- Node3&#45;&gt;Node2 -->
<g id="edge2" class="edge"><title>Node3&#45;&gt;Node2</title>
<path fill="none" stroke="midnightblue" d="M58,-204.865C58,-195.644 58,-185.907 58,-177.285"/>
<polygon fill="none" stroke="midnightblue" points="54.5001,-204.968 58,-214.968 61.5001,-204.968 54.5001,-204.968"/>
</g>
<!-- Node4 -->
<g id="node4" class="node"><title>Node4</title>
<g id="a_node4"><a xlink:href="classapi_1_1_api_object.html" target="_top" xlink:title="API Object Class. ">
<polygon fill="none" stroke="black" points="16.7896,-307 16.7896,-361 99.2104,-361 99.2104,-307 16.7896,-307"/>
<text text-anchor="middle" x="58" y="-349" font-family="Helvetica,sans-Serif" font-size="10.00">api::ApiObject</text>
<polyline fill="none" stroke="black" points="16.7896,-343 99.2104,-343 "/>
<text text-anchor="middle" x="58" y="-331" font-family="Helvetica,sans-Serif" font-size="10.00"> </text>
<polyline fill="none" stroke="black" points="16.7896,-325 99.2104,-325 "/>
<text text-anchor="start" x="24.7896" y="-313" font-family="Helvetica,sans-Serif" font-size="10.00">+ api_version()</text>
</a>
</g>
</g>
<!-- Node4&#45;&gt;Node3 -->
<g id="edge3" class="edge"><title>Node4&#45;&gt;Node3</title>
<path fill="none" stroke="midnightblue" d="M58,-296.865C58,-287.644 58,-277.907 58,-269.285"/>
<polygon fill="none" stroke="midnightblue" points="54.5001,-296.968 58,-306.968 61.5001,-296.968 54.5001,-296.968"/>
</g>
</g>
</svg>
