<?xml version="1.0" encoding="UTF-8" standalone="no"?>
<!DOCTYPE svg PUBLIC "-//W3C//DTD SVG 1.1//EN"
 "http://www.w3.org/Graphics/SVG/1.1/DTD/svg11.dtd">
<!-- Generated by graphviz version 2.36.0 (20140111.2315)
 -->
<!-- Title: hal::I2C Pages: 1 -->
<svg width="201pt" height="1256pt"
 viewBox="0.00 0.00 200.55 1256.00" xmlns="http://www.w3.org/2000/svg" xmlns:xlink="http://www.w3.org/1999/xlink">
<g id="graph0" class="graph" transform="scale(1 1) rotate(0) translate(4 1252)">
<title>hal::I2C</title>
<!-- Node1 -->
<g id="node1" class="node"><title>Node1</title>
<polygon fill="#bfbfbf" stroke="black" points="35.5396,-1 35.5396,-115 110.46,-115 110.46,-1 35.5396,-1"/>
<text text-anchor="middle" x="73" y="-103" font-family="Helvetica,sans-Serif" font-size="10.00">hal::I2C</text>
<polyline fill="none" stroke="black" points="35.5396,-97 110.46,-97 "/>
<text text-anchor="middle" x="73" y="-85" font-family="Helvetica,sans-Serif" font-size="10.00"> </text>
<polyline fill="none" stroke="black" points="35.5396,-79 110.46,-79 "/>
<text text-anchor="start" x="43.5396" y="-67" font-family="Helvetica,sans-Serif" font-size="10.00">+ I2C()</text>
<text text-anchor="start" x="43.5396" y="-57" font-family="Helvetica,sans-Serif" font-size="10.00">+ clear()</text>
<text text-anchor="start" x="43.5396" y="-47" font-family="Helvetica,sans-Serif" font-size="10.00">+ get_err()</text>
<text text-anchor="start" x="43.5396" y="-37" font-family="Helvetica,sans-Serif" font-size="10.00">+ get_error()</text>
<text text-anchor="start" x="43.5396" y="-27" font-family="Helvetica,sans-Serif" font-size="10.00">+ init()</text>
<text text-anchor="start" x="43.5396" y="-17" font-family="Helvetica,sans-Serif" font-size="10.00">+ prepare()</text>
<text text-anchor="start" x="43.5396" y="-7" font-family="Helvetica,sans-Serif" font-size="10.00">and 5 more...</text>
</g>
<!-- Node2 -->
<g id="node2" class="node"><title>Node2</title>
<g id="a_node2"><a xlink:href="classhal_1_1_periph.html" target="_top" xlink:title="{hal::Periph\&lt; i2c_info\l_t, i2c_attr_t, &#39;i&#39;\&gt;\n||+ Periph()\l+ get_info()\l+ get_version()\l+ init()\l+ port()\l+ set_action()\l+ set_action()\l+ set_attr()\l+ set_attr()\l# get_channel()\l# set_channel()\l# set_channel()\l}">
<polygon fill="none" stroke="black" points="19.5532,-155 19.5532,-329 126.447,-329 126.447,-155 19.5532,-155"/>
<text text-anchor="start" x="27.5532" y="-317" font-family="Helvetica,sans-Serif" font-size="10.00">hal::Periph&lt; i2c_info</text>
<text text-anchor="middle" x="73" y="-307" font-family="Helvetica,sans-Serif" font-size="10.00">_t, i2c_attr_t, &#39;i&#39;&gt;</text>
<polyline fill="none" stroke="black" points="19.5532,-301 126.447,-301 "/>
<text text-anchor="middle" x="73" y="-289" font-family="Helvetica,sans-Serif" font-size="10.00"> </text>
<polyline fill="none" stroke="black" points="19.5532,-283 126.447,-283 "/>
<text text-anchor="start" x="27.5532" y="-271" font-family="Helvetica,sans-Serif" font-size="10.00">+ Periph()</text>
<text text-anchor="start" x="27.5532" y="-261" font-family="Helvetica,sans-Serif" font-size="10.00">+ get_info()</text>
<text text-anchor="start" x="27.5532" y="-251" font-family="Helvetica,sans-Serif" font-size="10.00">+ get_version()</text>
<text text-anchor="start" x="27.5532" y="-241" font-family="Helvetica,sans-Serif" font-size="10.00">+ init()</text>
<text text-anchor="start" x="27.5532" y="-231" font-family="Helvetica,sans-Serif" font-size="10.00">+ port()</text>
<text text-anchor="start" x="27.5532" y="-221" font-family="Helvetica,sans-Serif" font-size="10.00">+ set_action()</text>
<text text-anchor="start" x="27.5532" y="-211" font-family="Helvetica,sans-Serif" font-size="10.00">+ set_action()</text>
<text text-anchor="start" x="27.5532" y="-201" font-family="Helvetica,sans-Serif" font-size="10.00">+ set_attr()</text>
<text text-anchor="start" x="27.5532" y="-191" font-family="Helvetica,sans-Serif" font-size="10.00">+ set_attr()</text>
<text text-anchor="start" x="27.5532" y="-181" font-family="Helvetica,sans-Serif" font-size="10.00"># get_channel()</text>
<text text-anchor="start" x="27.5532" y="-171" font-family="Helvetica,sans-Serif" font-size="10.00"># set_channel()</text>
<text text-anchor="start" x="27.5532" y="-161" font-family="Helvetica,sans-Serif" font-size="10.00"># set_channel()</text>
</a>
</g>
</g>
<!-- Node2&#45;&gt;Node1 -->
<g id="edge1" class="edge"><title>Node2&#45;&gt;Node1</title>
<path fill="none" stroke="midnightblue" d="M73,-144.66C73,-134.533 73,-124.495 73,-115.049"/>
<polygon fill="none" stroke="midnightblue" points="69.5001,-144.797 73,-154.797 76.5001,-144.797 69.5001,-144.797"/>
</g>
<!-- Node3 -->
<g id="node3" class="node"><title>Node3</title>
<g id="a_node3"><a xlink:href="classhal_1_1_periph_object.html" target="_top" xlink:title="Periph Object Class. ">
<polygon fill="none" stroke="black" points="10.6455,-601 10.6455,-765 103.354,-765 103.354,-601 10.6455,-601"/>
<text text-anchor="middle" x="57" y="-753" font-family="Helvetica,sans-Serif" font-size="10.00">hal::PeriphObject</text>
<polyline fill="none" stroke="black" points="10.6455,-747 103.354,-747 "/>
<text text-anchor="start" x="18.6455" y="-735" font-family="Helvetica,sans-Serif" font-size="10.00"># m_periph_port</text>
<polyline fill="none" stroke="black" points="10.6455,-729 103.354,-729 "/>
<text text-anchor="start" x="18.6455" y="-717" font-family="Helvetica,sans-Serif" font-size="10.00">+ close()</text>
<text text-anchor="start" x="18.6455" y="-707" font-family="Helvetica,sans-Serif" font-size="10.00">+ fileno()</text>
<text text-anchor="start" x="18.6455" y="-697" font-family="Helvetica,sans-Serif" font-size="10.00">+ ioctl()</text>
<text text-anchor="start" x="18.6455" y="-687" font-family="Helvetica,sans-Serif" font-size="10.00">+ open()</text>
<text text-anchor="start" x="18.6455" y="-677" font-family="Helvetica,sans-Serif" font-size="10.00">+ read()</text>
<text text-anchor="start" x="18.6455" y="-667" font-family="Helvetica,sans-Serif" font-size="10.00">+ read()</text>
<text text-anchor="start" x="18.6455" y="-657" font-family="Helvetica,sans-Serif" font-size="10.00">+ seek()</text>
<text text-anchor="start" x="18.6455" y="-647" font-family="Helvetica,sans-Serif" font-size="10.00">+ write()</text>
<text text-anchor="start" x="18.6455" y="-637" font-family="Helvetica,sans-Serif" font-size="10.00">+ write()</text>
<text text-anchor="start" x="18.6455" y="-627" font-family="Helvetica,sans-Serif" font-size="10.00"># lookup_fileno()</text>
<text text-anchor="start" x="18.6455" y="-617" font-family="Helvetica,sans-Serif" font-size="10.00"># open()</text>
<text text-anchor="start" x="18.6455" y="-607" font-family="Helvetica,sans-Serif" font-size="10.00"># update_fileno()</text>
</a>
</g>
</g>
<!-- Node3&#45;&gt;Node2 -->
<g id="edge2" class="edge"><title>Node3&#45;&gt;Node2</title>
<path fill="none" stroke="midnightblue" d="M58.2368,-590.609C59.2573,-532.092 61.0333,-454.552 64,-386 64.7959,-367.609 65.8837,-347.902 67.0281,-329.176"/>
<polygon fill="none" stroke="midnightblue" points="54.7318,-590.88 58.061,-600.938 61.7308,-590.999 54.7318,-590.88"/>
</g>
<!-- Node7 -->
<g id="node7" class="node"><title>Node7</title>
<g id="a_node7"><a xlink:href="classhal_1_1_periph.html" target="_top" xlink:title="Peripheral Class. ">
<polygon fill="none" stroke="black" points="72.7798,-387 72.7798,-561 175.22,-561 175.22,-387 72.7798,-387"/>
<text text-anchor="start" x="80.7798" y="-549" font-family="Helvetica,sans-Serif" font-size="10.00">hal::Periph&lt; info_t,</text>
<text text-anchor="middle" x="124" y="-539" font-family="Helvetica,sans-Serif" font-size="10.00"> attr_t, ident_char &gt;</text>
<polyline fill="none" stroke="black" points="72.7798,-533 175.22,-533 "/>
<text text-anchor="middle" x="124" y="-521" font-family="Helvetica,sans-Serif" font-size="10.00"> </text>
<polyline fill="none" stroke="black" points="72.7798,-515 175.22,-515 "/>
<text text-anchor="start" x="80.7798" y="-503" font-family="Helvetica,sans-Serif" font-size="10.00">+ Periph()</text>
<text text-anchor="start" x="80.7798" y="-493" font-family="Helvetica,sans-Serif" font-size="10.00">+ get_info()</text>
<text text-anchor="start" x="80.7798" y="-483" font-family="Helvetica,sans-Serif" font-size="10.00">+ get_version()</text>
<text text-anchor="start" x="80.7798" y="-473" font-family="Helvetica,sans-Serif" font-size="10.00">+ init()</text>
<text text-anchor="start" x="80.7798" y="-463" font-family="Helvetica,sans-Serif" font-size="10.00">+ port()</text>
<text text-anchor="start" x="80.7798" y="-453" font-family="Helvetica,sans-Serif" font-size="10.00">+ set_action()</text>
<text text-anchor="start" x="80.7798" y="-443" font-family="Helvetica,sans-Serif" font-size="10.00">+ set_action()</text>
<text text-anchor="start" x="80.7798" y="-433" font-family="Helvetica,sans-Serif" font-size="10.00">+ set_attr()</text>
<text text-anchor="start" x="80.7798" y="-423" font-family="Helvetica,sans-Serif" font-size="10.00">+ set_attr()</text>
<text text-anchor="start" x="80.7798" y="-413" font-family="Helvetica,sans-Serif" font-size="10.00"># get_channel()</text>
<text text-anchor="start" x="80.7798" y="-403" font-family="Helvetica,sans-Serif" font-size="10.00"># set_channel()</text>
<text text-anchor="start" x="80.7798" y="-393" font-family="Helvetica,sans-Serif" font-size="10.00"># set_channel()</text>
</a>
</g>
</g>
<!-- Node3&#45;&gt;Node7 -->
<g id="edge7" class="edge"><title>Node3&#45;&gt;Node7</title>
<path fill="none" stroke="midnightblue" d="M86.3752,-591.244C89.6162,-581.231 92.9095,-571.056 96.1313,-561.102"/>
<polygon fill="none" stroke="midnightblue" points="83.0375,-590.19 83.2879,-600.782 89.6973,-592.346 83.0375,-590.19"/>
</g>
<!-- Node4 -->
<g id="node4" class="node"><title>Node4</title>
<g id="a_node4"><a xlink:href="classhal_1_1_device.html" target="_top" xlink:title="Device Class. ">
<polygon fill="none" stroke="black" points="24.2661,-805 24.2661,-879 89.7339,-879 89.7339,-805 24.2661,-805"/>
<text text-anchor="middle" x="57" y="-867" font-family="Helvetica,sans-Serif" font-size="10.00">hal::Device</text>
<polyline fill="none" stroke="black" points="24.2661,-861 89.7339,-861 "/>
<text text-anchor="middle" x="57" y="-849" font-family="Helvetica,sans-Serif" font-size="10.00"> </text>
<polyline fill="none" stroke="black" points="24.2661,-843 89.7339,-843 "/>
<text text-anchor="start" x="32.2661" y="-831" font-family="Helvetica,sans-Serif" font-size="10.00">+ Device()</text>
<text text-anchor="start" x="32.2661" y="-821" font-family="Helvetica,sans-Serif" font-size="10.00">+ read()</text>
<text text-anchor="start" x="32.2661" y="-811" font-family="Helvetica,sans-Serif" font-size="10.00">+ write()</text>
</a>
</g>
</g>
<!-- Node4&#45;&gt;Node3 -->
<g id="edge3" class="edge"><title>Node4&#45;&gt;Node3</title>
<path fill="none" stroke="midnightblue" d="M57,-794.793C57,-785.459 57,-775.388 57,-765.256"/>
<polygon fill="none" stroke="midnightblue" points="53.5001,-794.981 57,-804.981 60.5001,-794.981 53.5001,-794.981"/>
</g>
<!-- Node5 -->
<g id="node5" class="node"><title>Node5</title>
<g id="a_node5"><a xlink:href="classsys_1_1_file.html" target="_top" xlink:title="File Class. ">
<polygon fill="none" stroke="black" points="16.7588,-919 16.7588,-1083 97.2412,-1083 97.2412,-919 16.7588,-919"/>
<text text-anchor="middle" x="57" y="-1071" font-family="Helvetica,sans-Serif" font-size="10.00">sys::File</text>
<polyline fill="none" stroke="black" points="16.7588,-1065 97.2412,-1065 "/>
<text text-anchor="start" x="24.7588" y="-1053" font-family="Helvetica,sans-Serif" font-size="10.00"># m_fd</text>
<polyline fill="none" stroke="black" points="16.7588,-1047 97.2412,-1047 "/>
<text text-anchor="start" x="24.7588" y="-1035" font-family="Helvetica,sans-Serif" font-size="10.00">+ File()</text>
<text text-anchor="start" x="24.7588" y="-1025" font-family="Helvetica,sans-Serif" font-size="10.00">+ close()</text>
<text text-anchor="start" x="24.7588" y="-1015" font-family="Helvetica,sans-Serif" font-size="10.00">+ create()</text>
<text text-anchor="start" x="24.7588" y="-1005" font-family="Helvetica,sans-Serif" font-size="10.00">+ fileno()</text>
<text text-anchor="start" x="24.7588" y="-995" font-family="Helvetica,sans-Serif" font-size="10.00">+ flags()</text>
<text text-anchor="start" x="24.7588" y="-985" font-family="Helvetica,sans-Serif" font-size="10.00">+ gets()</text>
<text text-anchor="start" x="24.7588" y="-975" font-family="Helvetica,sans-Serif" font-size="10.00">and 21 more...</text>
<text text-anchor="start" x="24.7588" y="-965" font-family="Helvetica,sans-Serif" font-size="10.00">+ name()</text>
<text text-anchor="start" x="24.7588" y="-955" font-family="Helvetica,sans-Serif" font-size="10.00">+ remove()</text>
<text text-anchor="start" x="24.7588" y="-945" font-family="Helvetica,sans-Serif" font-size="10.00">+ size()</text>
<text text-anchor="start" x="24.7588" y="-935" font-family="Helvetica,sans-Serif" font-size="10.00">+ stat()</text>
<text text-anchor="start" x="24.7588" y="-925" font-family="Helvetica,sans-Serif" font-size="10.00">+ suffix()</text>
</a>
</g>
</g>
<!-- Node5&#45;&gt;Node4 -->
<g id="edge4" class="edge"><title>Node5&#45;&gt;Node4</title>
<path fill="none" stroke="midnightblue" d="M57,-908.674C57,-898.248 57,-888.133 57,-879.09"/>
<polygon fill="none" stroke="midnightblue" points="53.5001,-908.741 57,-918.741 60.5001,-908.741 53.5001,-908.741"/>
</g>
<!-- Node6 -->
<g id="node6" class="node"><title>Node6</title>
<g id="a_node6"><a xlink:href="classapi_1_1_s_object.html" target="_top" xlink:title="SObject Class. ">
<polygon fill="none" stroke="black" points="-0.191895,-1123 -0.191895,-1247 114.192,-1247 114.192,-1123 -0.191895,-1123"/>
<text text-anchor="middle" x="57" y="-1235" font-family="Helvetica,sans-Serif" font-size="10.00">api::SObject</text>
<polyline fill="none" stroke="black" points="-0.191895,-1229 114.192,-1229 "/>
<text text-anchor="middle" x="57" y="-1217" font-family="Helvetica,sans-Serif" font-size="10.00"> </text>
<polyline fill="none" stroke="black" points="-0.191895,-1211 114.192,-1211 "/>
<text text-anchor="start" x="7.80811" y="-1199" font-family="Helvetica,sans-Serif" font-size="10.00">+ SObject()</text>
<text text-anchor="start" x="7.80811" y="-1189" font-family="Helvetica,sans-Serif" font-size="10.00">+ api_version()</text>
<text text-anchor="start" x="7.80811" y="-1179" font-family="Helvetica,sans-Serif" font-size="10.00">+ clear_error()</text>
<text text-anchor="start" x="7.80811" y="-1169" font-family="Helvetica,sans-Serif" font-size="10.00">+ error_number()</text>
<text text-anchor="start" x="7.80811" y="-1159" font-family="Helvetica,sans-Serif" font-size="10.00">+ exit_fatal()</text>
<text text-anchor="start" x="7.80811" y="-1149" font-family="Helvetica,sans-Serif" font-size="10.00"># set_error_number()</text>
<text text-anchor="start" x="7.80811" y="-1139" font-family="Helvetica,sans-Serif" font-size="10.00"># set_error_number_if</text>
<text text-anchor="start" x="7.80811" y="-1129" font-family="Helvetica,sans-Serif" font-size="10.00">_error()</text>
</a>
</g>
</g>
<!-- Node6&#45;&gt;Node5 -->
<g id="edge5" class="edge"><title>Node6&#45;&gt;Node5</title>
<path fill="none" stroke="midnightblue" d="M57,-1112.61C57,-1103 57,-1093.08 57,-1083.32"/>
<polygon fill="none" stroke="midnightblue" points="53.5001,-1112.89 57,-1122.89 60.5001,-1112.89 53.5001,-1112.89"/>
</g>
<!-- Node7&#45;&gt;Node2 -->
<g id="edge6" class="edge"><title>Node7&#45;&gt;Node2</title>
<path fill="none" stroke="orange" d="M102.688,-376.888C99.1666,-361.006 95.5354,-344.63 92.0732,-329.017"/>
<polygon fill="orange" stroke="orange" points="99.2825,-377.697 104.864,-386.702 106.116,-376.182 99.2825,-377.697"/>
<text text-anchor="start" x="100" y="-360" font-family="Helvetica,sans-Serif" font-size="10.00"> &lt; i2c_info_t, i2c_attr</text>
<text text-anchor="middle" x="146.277" y="-350" font-family="Helvetica,sans-Serif" font-size="10.00">_t, &#39;i&#39;&gt;</text>
</g>
</g>
</svg>
