<?xml version="1.0" encoding="UTF-8" standalone="no"?>
<!DOCTYPE svg PUBLIC "-//W3C//DTD SVG 1.1//EN"
 "http://www.w3.org/Graphics/SVG/1.1/DTD/svg11.dtd">
<!-- Generated by graphviz version 2.36.0 (20140111.2315)
 -->
<!-- Title: test::Function&lt; return_type, args &gt; Pages: 1 -->
<svg width="162pt" height="762pt"
 viewBox="0.00 0.00 162.00 762.00" xmlns="http://www.w3.org/2000/svg" xmlns:xlink="http://www.w3.org/1999/xlink">
<g id="graph0" class="graph" transform="scale(1 1) rotate(0) translate(4 758)">
<title>test::Function&lt; return_type, args &gt;</title>
<!-- Node1 -->
<g id="node1" class="node"><title>Node1</title>
<polygon fill="#bfbfbf" stroke="black" points="-0.909668,-1 -0.909668,-115 154.91,-115 154.91,-1 -0.909668,-1"/>
<text text-anchor="start" x="7.09033" y="-103" font-family="Helvetica,sans-Serif" font-size="10.00">test::Function&lt; return</text>
<text text-anchor="middle" x="77" y="-93" font-family="Helvetica,sans-Serif" font-size="10.00">_type, args &gt;</text>
<polyline fill="none" stroke="black" points="-0.909668,-87 154.91,-87 "/>
<text text-anchor="middle" x="77" y="-75" font-family="Helvetica,sans-Serif" font-size="10.00"> </text>
<polyline fill="none" stroke="black" points="-0.909668,-69 154.91,-69 "/>
<text text-anchor="start" x="7.09033" y="-57" font-family="Helvetica,sans-Serif" font-size="10.00">+ Function()</text>
<text text-anchor="start" x="7.09033" y="-47" font-family="Helvetica,sans-Serif" font-size="10.00">+ ~Function()</text>
<text text-anchor="start" x="7.09033" y="-37" font-family="Helvetica,sans-Serif" font-size="10.00">+ execute_case_with_expected</text>
<text text-anchor="start" x="7.09033" y="-27" font-family="Helvetica,sans-Serif" font-size="10.00">_return()</text>
<text text-anchor="start" x="7.09033" y="-17" font-family="Helvetica,sans-Serif" font-size="10.00">+ execute_case_with_less</text>
<text text-anchor="start" x="7.09033" y="-7" font-family="Helvetica,sans-Serif" font-size="10.00">_than_zero_on_error()</text>
</g>
<!-- Node2 -->
<g id="node2" class="node"><title>Node2</title>
<g id="a_node2"><a xlink:href="classtest_1_1_test.html" target="_top" xlink:title="Test Class. ">
<polygon fill="none" stroke="black" points="6.88086,-153 6.88086,-387 147.119,-387 147.119,-153 6.88086,-153"/>
<text text-anchor="middle" x="77" y="-375" font-family="Helvetica,sans-Serif" font-size="10.00">test::Test</text>
<polyline fill="none" stroke="black" points="6.88086,-369 147.119,-369 "/>
<text text-anchor="middle" x="77" y="-357" font-family="Helvetica,sans-Serif" font-size="10.00"> </text>
<polyline fill="none" stroke="black" points="6.88086,-351 147.119,-351 "/>
<text text-anchor="start" x="14.8809" y="-339" font-family="Helvetica,sans-Serif" font-size="10.00">+ Test()</text>
<text text-anchor="start" x="14.8809" y="-329" font-family="Helvetica,sans-Serif" font-size="10.00">+ ~Test()</text>
<text text-anchor="start" x="14.8809" y="-319" font-family="Helvetica,sans-Serif" font-size="10.00">+ execute()</text>
<text text-anchor="start" x="14.8809" y="-309" font-family="Helvetica,sans-Serif" font-size="10.00">+ execute_additional</text>
<text text-anchor="start" x="14.8809" y="-299" font-family="Helvetica,sans-Serif" font-size="10.00">_cases()</text>
<text text-anchor="start" x="14.8809" y="-289" font-family="Helvetica,sans-Serif" font-size="10.00">+ execute_api_case()</text>
<text text-anchor="start" x="14.8809" y="-279" font-family="Helvetica,sans-Serif" font-size="10.00">+ execute_class_api_case()</text>
<text text-anchor="start" x="14.8809" y="-269" font-family="Helvetica,sans-Serif" font-size="10.00">and 5 more...</text>
<text text-anchor="start" x="14.8809" y="-259" font-family="Helvetica,sans-Serif" font-size="10.00">+ finalize()</text>
<text text-anchor="start" x="14.8809" y="-249" font-family="Helvetica,sans-Serif" font-size="10.00">+ initialize()</text>
<text text-anchor="start" x="14.8809" y="-239" font-family="Helvetica,sans-Serif" font-size="10.00">+ parse_options()</text>
<text text-anchor="start" x="14.8809" y="-229" font-family="Helvetica,sans-Serif" font-size="10.00"># case_timer()</text>
<text text-anchor="start" x="14.8809" y="-219" font-family="Helvetica,sans-Serif" font-size="10.00"># case_timer()</text>
<text text-anchor="start" x="14.8809" y="-209" font-family="Helvetica,sans-Serif" font-size="10.00"># close_case()</text>
<text text-anchor="start" x="14.8809" y="-199" font-family="Helvetica,sans-Serif" font-size="10.00"># indent()</text>
<text text-anchor="start" x="14.8809" y="-189" font-family="Helvetica,sans-Serif" font-size="10.00"># open_case()</text>
<text text-anchor="start" x="14.8809" y="-179" font-family="Helvetica,sans-Serif" font-size="10.00"># print_case_message()</text>
<text text-anchor="start" x="14.8809" y="-169" font-family="Helvetica,sans-Serif" font-size="10.00"># print_case_message</text>
<text text-anchor="start" x="14.8809" y="-159" font-family="Helvetica,sans-Serif" font-size="10.00">_with_key()</text>
</a>
</g>
</g>
<!-- Node2&#45;&gt;Node1 -->
<g id="edge1" class="edge"><title>Node2&#45;&gt;Node1</title>
<path fill="none" stroke="midnightblue" d="M77,-142.88C77,-133.294 77,-123.953 77,-115.194"/>
<polygon fill="none" stroke="midnightblue" points="73.5001,-142.944 77,-152.944 80.5001,-142.944 73.5001,-142.944"/>
</g>
<!-- Node3 -->
<g id="node3" class="node"><title>Node3</title>
<g id="a_node3"><a xlink:href="classapi_1_1_test_work_object.html" target="_top" xlink:title="Test Work Object. ">
<polygon fill="none" stroke="black" points="24.3516,-425 24.3516,-479 129.648,-479 129.648,-425 24.3516,-425"/>
<text text-anchor="middle" x="77" y="-467" font-family="Helvetica,sans-Serif" font-size="10.00">api::TestWorkObject</text>
<polyline fill="none" stroke="black" points="24.3516,-461 129.648,-461 "/>
<text text-anchor="middle" x="77" y="-449" font-family="Helvetica,sans-Serif" font-size="10.00"> </text>
<polyline fill="none" stroke="black" points="24.3516,-443 129.648,-443 "/>
<text text-anchor="middle" x="77" y="-431" font-family="Helvetica,sans-Serif" font-size="10.00"> </text>
</a>
</g>
</g>
<!-- Node3&#45;&gt;Node2 -->
<g id="edge2" class="edge"><title>Node3&#45;&gt;Node2</title>
<path fill="none" stroke="midnightblue" d="M77,-414.754C77,-406.354 77,-396.968 77,-387.126"/>
<polygon fill="none" stroke="midnightblue" points="73.5001,-414.826 77,-424.826 80.5001,-414.826 73.5001,-414.826"/>
</g>
<!-- Node4 -->
<g id="node4" class="node"><title>Node4</title>
<g id="a_node4"><a xlink:href="classapi_1_1_work_object.html" target="_top" xlink:title="Work Object. ">
<polygon fill="none" stroke="black" points="5.91406,-517 5.91406,-661 148.086,-661 148.086,-517 5.91406,-517"/>
<text text-anchor="middle" x="77" y="-649" font-family="Helvetica,sans-Serif" font-size="10.00">api::WorkObject</text>
<polyline fill="none" stroke="black" points="5.91406,-643 148.086,-643 "/>
<text text-anchor="middle" x="77" y="-631" font-family="Helvetica,sans-Serif" font-size="10.00"> </text>
<polyline fill="none" stroke="black" points="5.91406,-625 148.086,-625 "/>
<text text-anchor="start" x="13.9141" y="-613" font-family="Helvetica,sans-Serif" font-size="10.00">+ WorkObject()</text>
<text text-anchor="start" x="13.9141" y="-603" font-family="Helvetica,sans-Serif" font-size="10.00">+ clear_error_number()</text>
<text text-anchor="start" x="13.9141" y="-593" font-family="Helvetica,sans-Serif" font-size="10.00">+ error_number()</text>
<text text-anchor="start" x="13.9141" y="-583" font-family="Helvetica,sans-Serif" font-size="10.00">+ exit_fatal()</text>
<text text-anchor="start" x="13.9141" y="-573" font-family="Helvetica,sans-Serif" font-size="10.00"># set_error_number()</text>
<text text-anchor="start" x="13.9141" y="-563" font-family="Helvetica,sans-Serif" font-size="10.00"># set_error_number_if</text>
<text text-anchor="start" x="13.9141" y="-553" font-family="Helvetica,sans-Serif" font-size="10.00">_error()</text>
<text text-anchor="start" x="13.9141" y="-543" font-family="Helvetica,sans-Serif" font-size="10.00"># set_error_number_if_null()</text>
<text text-anchor="start" x="13.9141" y="-533" font-family="Helvetica,sans-Serif" font-size="10.00"># set_error_number_to</text>
<text text-anchor="start" x="13.9141" y="-523" font-family="Helvetica,sans-Serif" font-size="10.00">_errno()</text>
</a>
</g>
</g>
<!-- Node4&#45;&gt;Node3 -->
<g id="edge3" class="edge"><title>Node4&#45;&gt;Node3</title>
<path fill="none" stroke="midnightblue" d="M77,-506.911C77,-496.983 77,-487.464 77,-479.262"/>
<polygon fill="none" stroke="midnightblue" points="73.5001,-506.942 77,-516.942 80.5001,-506.942 73.5001,-506.942"/>
</g>
<!-- Node5 -->
<g id="node5" class="node"><title>Node5</title>
<g id="a_node5"><a xlink:href="classapi_1_1_api_object.html" target="_top" xlink:title="Application Programming Interface Object. ">
<polygon fill="none" stroke="black" points="35.7896,-699 35.7896,-753 118.21,-753 118.21,-699 35.7896,-699"/>
<text text-anchor="middle" x="77" y="-741" font-family="Helvetica,sans-Serif" font-size="10.00">api::ApiObject</text>
<polyline fill="none" stroke="black" points="35.7896,-735 118.21,-735 "/>
<text text-anchor="middle" x="77" y="-723" font-family="Helvetica,sans-Serif" font-size="10.00"> </text>
<polyline fill="none" stroke="black" points="35.7896,-717 118.21,-717 "/>
<text text-anchor="start" x="43.7896" y="-705" font-family="Helvetica,sans-Serif" font-size="10.00">+ api_version()</text>
</a>
</g>
</g>
<!-- Node5&#45;&gt;Node4 -->
<g id="edge4" class="edge"><title>Node5&#45;&gt;Node4</title>
<path fill="none" stroke="midnightblue" d="M77,-688.925C77,-680.287 77,-670.765 77,-661.145"/>
<polygon fill="none" stroke="midnightblue" points="73.5001,-688.971 77,-698.971 80.5001,-688.971 73.5001,-688.971"/>
</g>
</g>
</svg>
