<?xml version="1.0" encoding="UTF-8" standalone="no"?>
<!DOCTYPE svg PUBLIC "-//W3C//DTD SVG 1.1//EN"
 "http://www.w3.org/Graphics/SVG/1.1/DTD/svg11.dtd">
<!-- Generated by graphviz version 2.36.0 (20140111.2315)
 -->
<!-- Title: dsp::SignalQ31 Pages: 1 -->
<svg width="270pt" height="1006pt"
 viewBox="0.00 0.00 270.00 1006.00" xmlns="http://www.w3.org/2000/svg" xmlns:xlink="http://www.w3.org/1999/xlink">
<g id="graph0" class="graph" transform="scale(1 1) rotate(0) translate(4 1002)">
<title>dsp::SignalQ31</title>
<!-- Node1 -->
<g id="node1" class="node"><title>Node1</title>
<polygon fill="#bfbfbf" stroke="black" points="72.8389,-1 72.8389,-125 179.161,-125 179.161,-1 72.8389,-1"/>
<text text-anchor="middle" x="126" y="-113" font-family="Helvetica,sans-Serif" font-size="10.00">dsp::SignalQ31</text>
<polyline fill="none" stroke="black" points="72.8389,-107 179.161,-107 "/>
<text text-anchor="middle" x="126" y="-95" font-family="Helvetica,sans-Serif" font-size="10.00"> </text>
<polyline fill="none" stroke="black" points="72.8389,-89 179.161,-89 "/>
<text text-anchor="start" x="80.8389" y="-77" font-family="Helvetica,sans-Serif" font-size="10.00">+ SignalQ31()</text>
<text text-anchor="start" x="80.8389" y="-67" font-family="Helvetica,sans-Serif" font-size="10.00">+ SignalQ31()</text>
<text text-anchor="start" x="80.8389" y="-57" font-family="Helvetica,sans-Serif" font-size="10.00">+ SignalQ31()</text>
<text text-anchor="start" x="80.8389" y="-47" font-family="Helvetica,sans-Serif" font-size="10.00">+ abs()</text>
<text text-anchor="start" x="80.8389" y="-37" font-family="Helvetica,sans-Serif" font-size="10.00">+ abs()</text>
<text text-anchor="start" x="80.8389" y="-27" font-family="Helvetica,sans-Serif" font-size="10.00">+ add()</text>
<text text-anchor="start" x="80.8389" y="-17" font-family="Helvetica,sans-Serif" font-size="10.00">and 35 more...</text>
<text text-anchor="start" x="80.8389" y="-7" font-family="Helvetica,sans-Serif" font-size="10.00">+ create_sin_wave()</text>
</g>
<!-- Node2 -->
<g id="node2" class="node"><title>Node2</title>
<g id="a_node2"><a xlink:href="classdsp_1_1_signal_data.html" target="_top" xlink:title="Signal Data Template. ">
<polygon fill="none" stroke="black" points="84.0889,-163 84.0889,-277 167.911,-277 167.911,-163 84.0889,-163"/>
<text text-anchor="middle" x="126" y="-265" font-family="Helvetica,sans-Serif" font-size="10.00">SignalDataQ31</text>
<polyline fill="none" stroke="black" points="84.0889,-259 167.911,-259 "/>
<text text-anchor="middle" x="126" y="-247" font-family="Helvetica,sans-Serif" font-size="10.00"> </text>
<polyline fill="none" stroke="black" points="84.0889,-241 167.911,-241 "/>
<text text-anchor="start" x="92.0889" y="-229" font-family="Helvetica,sans-Serif" font-size="10.00">+ SignalData()</text>
<text text-anchor="start" x="92.0889" y="-219" font-family="Helvetica,sans-Serif" font-size="10.00">+ SignalData()</text>
<text text-anchor="start" x="92.0889" y="-209" font-family="Helvetica,sans-Serif" font-size="10.00">+ abs()</text>
<text text-anchor="start" x="92.0889" y="-199" font-family="Helvetica,sans-Serif" font-size="10.00">+ abs()</text>
<text text-anchor="start" x="92.0889" y="-189" font-family="Helvetica,sans-Serif" font-size="10.00">+ add()</text>
<text text-anchor="start" x="92.0889" y="-179" font-family="Helvetica,sans-Serif" font-size="10.00">+ add()</text>
<text text-anchor="start" x="92.0889" y="-169" font-family="Helvetica,sans-Serif" font-size="10.00">and 49 more...</text>
</a>
</g>
</g>
<!-- Node2&#45;&gt;Node1 -->
<g id="edge1" class="edge"><title>Node2&#45;&gt;Node1</title>
<path fill="none" stroke="midnightblue" d="M126,-152.449C126,-143.354 126,-134.054 126,-125.063"/>
<polygon fill="none" stroke="midnightblue" points="122.5,-152.603 126,-162.603 129.5,-152.603 122.5,-152.603"/>
</g>
<!-- Node3 -->
<g id="node3" class="node"><title>Node3</title>
<g id="a_node3"><a xlink:href="classvar_1_1_vector.html" target="_top" xlink:title="Vector Class. ">
<polygon fill="none" stroke="black" points="38.6021,-315 38.6021,-439 125.398,-439 125.398,-315 38.6021,-315"/>
<text text-anchor="middle" x="82" y="-427" font-family="Helvetica,sans-Serif" font-size="10.00">var::Vector&lt; T &gt;</text>
<polyline fill="none" stroke="black" points="38.6021,-421 125.398,-421 "/>
<text text-anchor="middle" x="82" y="-409" font-family="Helvetica,sans-Serif" font-size="10.00"> </text>
<polyline fill="none" stroke="black" points="38.6021,-403 125.398,-403 "/>
<text text-anchor="start" x="46.6021" y="-391" font-family="Helvetica,sans-Serif" font-size="10.00">+ Vector()</text>
<text text-anchor="start" x="46.6021" y="-381" font-family="Helvetica,sans-Serif" font-size="10.00">+ Vector()</text>
<text text-anchor="start" x="46.6021" y="-371" font-family="Helvetica,sans-Serif" font-size="10.00">+ at()</text>
<text text-anchor="start" x="46.6021" y="-361" font-family="Helvetica,sans-Serif" font-size="10.00">+ at()</text>
<text text-anchor="start" x="46.6021" y="-351" font-family="Helvetica,sans-Serif" font-size="10.00">+ capacity()</text>
<text text-anchor="start" x="46.6021" y="-341" font-family="Helvetica,sans-Serif" font-size="10.00">+ clear()</text>
<text text-anchor="start" x="46.6021" y="-331" font-family="Helvetica,sans-Serif" font-size="10.00">and 13 more...</text>
<text text-anchor="start" x="46.6021" y="-321" font-family="Helvetica,sans-Serif" font-size="10.00"># compare()</text>
</a>
</g>
</g>
<!-- Node3&#45;&gt;Node2 -->
<g id="edge2" class="edge"><title>Node3&#45;&gt;Node2</title>
<path fill="none" stroke="midnightblue" d="M102.129,-305.092C104.775,-295.768 107.459,-286.316 110.024,-277.28"/>
<polygon fill="none" stroke="midnightblue" points="98.7539,-304.164 99.39,-314.74 105.488,-306.076 98.7539,-304.164"/>
</g>
<!-- Node4 -->
<g id="node4" class="node"><title>Node4</title>
<g id="a_node4"><a xlink:href="classvar_1_1_data.html" target="_top" xlink:title="Data storage class. ">
<polygon fill="none" stroke="black" points="-0.589844,-487 -0.589844,-621 94.5898,-621 94.5898,-487 -0.589844,-487"/>
<text text-anchor="middle" x="47" y="-609" font-family="Helvetica,sans-Serif" font-size="10.00">var::Data</text>
<polyline fill="none" stroke="black" points="-0.589844,-603 94.5898,-603 "/>
<text text-anchor="middle" x="47" y="-591" font-family="Helvetica,sans-Serif" font-size="10.00"> </text>
<polyline fill="none" stroke="black" points="-0.589844,-585 94.5898,-585 "/>
<text text-anchor="start" x="7.41016" y="-573" font-family="Helvetica,sans-Serif" font-size="10.00">+ Data()</text>
<text text-anchor="start" x="7.41016" y="-563" font-family="Helvetica,sans-Serif" font-size="10.00">+ Data()</text>
<text text-anchor="start" x="7.41016" y="-553" font-family="Helvetica,sans-Serif" font-size="10.00">+ Data()</text>
<text text-anchor="start" x="7.41016" y="-543" font-family="Helvetica,sans-Serif" font-size="10.00">+ Data()</text>
<text text-anchor="start" x="7.41016" y="-533" font-family="Helvetica,sans-Serif" font-size="10.00">+ ~Data()</text>
<text text-anchor="start" x="7.41016" y="-523" font-family="Helvetica,sans-Serif" font-size="10.00">+ alloc()</text>
<text text-anchor="start" x="7.41016" y="-513" font-family="Helvetica,sans-Serif" font-size="10.00">and 19 more...</text>
<text text-anchor="start" x="7.41016" y="-503" font-family="Helvetica,sans-Serif" font-size="10.00">+ minimum_size()</text>
<text text-anchor="start" x="7.41016" y="-493" font-family="Helvetica,sans-Serif" font-size="10.00"># copy()</text>
</a>
</g>
</g>
<!-- Node4&#45;&gt;Node3 -->
<g id="edge3" class="edge"><title>Node4&#45;&gt;Node3</title>
<path fill="none" stroke="midnightblue" d="M62.2384,-476.808C64.7624,-464.188 67.3502,-451.249 69.7871,-439.064"/>
<polygon fill="none" stroke="midnightblue" points="58.7612,-476.348 60.232,-486.84 65.6253,-477.721 58.7612,-476.348"/>
</g>
<!-- Node5 -->
<g id="node5" class="node"><title>Node5</title>
<g id="a_node5"><a xlink:href="classapi_1_1_var_work_object.html" target="_top" xlink:title="Var Work Object. ">
<polygon fill="none" stroke="black" points="11.1094,-669 11.1094,-723 112.891,-723 112.891,-669 11.1094,-669"/>
<text text-anchor="middle" x="62" y="-711" font-family="Helvetica,sans-Serif" font-size="10.00">api::VarWorkObject</text>
<polyline fill="none" stroke="black" points="11.1094,-705 112.891,-705 "/>
<text text-anchor="middle" x="62" y="-693" font-family="Helvetica,sans-Serif" font-size="10.00"> </text>
<polyline fill="none" stroke="black" points="11.1094,-687 112.891,-687 "/>
<text text-anchor="middle" x="62" y="-675" font-family="Helvetica,sans-Serif" font-size="10.00"> </text>
</a>
</g>
</g>
<!-- Node5&#45;&gt;Node4 -->
<g id="edge4" class="edge"><title>Node5&#45;&gt;Node4</title>
<path fill="none" stroke="midnightblue" d="M58.1289,-658.87C56.8881,-647.289 55.4727,-634.078 54.0769,-621.051"/>
<polygon fill="none" stroke="midnightblue" points="54.6683,-659.425 59.2138,-668.995 61.6284,-658.679 54.6683,-659.425"/>
</g>
<!-- Node6 -->
<g id="node6" class="node"><title>Node6</title>
<g id="a_node6"><a xlink:href="classapi_1_1_work_object.html" target="_top" xlink:title="Work Object. ">
<polygon fill="none" stroke="black" points="29.9141,-761 29.9141,-905 172.086,-905 172.086,-761 29.9141,-761"/>
<text text-anchor="middle" x="101" y="-893" font-family="Helvetica,sans-Serif" font-size="10.00">api::WorkObject</text>
<polyline fill="none" stroke="black" points="29.9141,-887 172.086,-887 "/>
<text text-anchor="middle" x="101" y="-875" font-family="Helvetica,sans-Serif" font-size="10.00"> </text>
<polyline fill="none" stroke="black" points="29.9141,-869 172.086,-869 "/>
<text text-anchor="start" x="37.9141" y="-857" font-family="Helvetica,sans-Serif" font-size="10.00">+ WorkObject()</text>
<text text-anchor="start" x="37.9141" y="-847" font-family="Helvetica,sans-Serif" font-size="10.00">+ clear_error_number()</text>
<text text-anchor="start" x="37.9141" y="-837" font-family="Helvetica,sans-Serif" font-size="10.00">+ error_number()</text>
<text text-anchor="start" x="37.9141" y="-827" font-family="Helvetica,sans-Serif" font-size="10.00">+ exit_fatal()</text>
<text text-anchor="start" x="37.9141" y="-817" font-family="Helvetica,sans-Serif" font-size="10.00"># set_error_number()</text>
<text text-anchor="start" x="37.9141" y="-807" font-family="Helvetica,sans-Serif" font-size="10.00"># set_error_number_if</text>
<text text-anchor="start" x="37.9141" y="-797" font-family="Helvetica,sans-Serif" font-size="10.00">_error()</text>
<text text-anchor="start" x="37.9141" y="-787" font-family="Helvetica,sans-Serif" font-size="10.00"># set_error_number_if_null()</text>
<text text-anchor="start" x="37.9141" y="-777" font-family="Helvetica,sans-Serif" font-size="10.00"># set_error_number_to</text>
<text text-anchor="start" x="37.9141" y="-767" font-family="Helvetica,sans-Serif" font-size="10.00">_errno()</text>
</a>
</g>
</g>
<!-- Node6&#45;&gt;Node5 -->
<g id="edge5" class="edge"><title>Node6&#45;&gt;Node5</title>
<path fill="none" stroke="midnightblue" d="M77.664,-751.221C74.7635,-741.181 71.9809,-731.549 69.5868,-723.262"/>
<polygon fill="none" stroke="midnightblue" points="74.3341,-752.306 80.4721,-760.942 81.0591,-750.363 74.3341,-752.306"/>
</g>
<!-- Node8 -->
<g id="node8" class="node"><title>Node8</title>
<g id="a_node8"><a xlink:href="classapi_1_1_dsp_work_object.html" target="_top" xlink:title="DSP Work Object. ">
<polygon fill="none" stroke="black" points="113.018,-477 113.018,-631 262.982,-631 262.982,-477 113.018,-477"/>
<text text-anchor="middle" x="188" y="-619" font-family="Helvetica,sans-Serif" font-size="10.00">api::DspWorkObject</text>
<polyline fill="none" stroke="black" points="113.018,-613 262.982,-613 "/>
<text text-anchor="start" x="121.018" y="-601" font-family="Helvetica,sans-Serif" font-size="10.00"># m_arm_dsp_api_f32</text>
<text text-anchor="start" x="121.018" y="-591" font-family="Helvetica,sans-Serif" font-size="10.00"># m_arm_dsp_api_q15</text>
<text text-anchor="start" x="121.018" y="-581" font-family="Helvetica,sans-Serif" font-size="10.00"># m_arm_dsp_api_q31</text>
<text text-anchor="start" x="121.018" y="-571" font-family="Helvetica,sans-Serif" font-size="10.00"># m_arm_dsp_api_q7</text>
<text text-anchor="start" x="121.018" y="-561" font-family="Helvetica,sans-Serif" font-size="10.00"># m_arm_dsp_conversion_api</text>
<polyline fill="none" stroke="black" points="113.018,-555 262.982,-555 "/>
<text text-anchor="start" x="121.018" y="-543" font-family="Helvetica,sans-Serif" font-size="10.00">+ arm_dsp_api_f32()</text>
<text text-anchor="start" x="121.018" y="-533" font-family="Helvetica,sans-Serif" font-size="10.00">+ arm_dsp_api_q15()</text>
<text text-anchor="start" x="121.018" y="-523" font-family="Helvetica,sans-Serif" font-size="10.00">+ arm_dsp_api_q31()</text>
<text text-anchor="start" x="121.018" y="-513" font-family="Helvetica,sans-Serif" font-size="10.00">+ arm_dsp_api_q7()</text>
<text text-anchor="start" x="121.018" y="-503" font-family="Helvetica,sans-Serif" font-size="10.00">+ arm_dsp_conversion_api()</text>
<text text-anchor="start" x="121.018" y="-493" font-family="Helvetica,sans-Serif" font-size="10.00">+ request_arm_dsp_api()</text>
<text text-anchor="start" x="121.018" y="-483" font-family="Helvetica,sans-Serif" font-size="10.00">and 5 more...</text>
</a>
</g>
</g>
<!-- Node6&#45;&gt;Node8 -->
<g id="edge8" class="edge"><title>Node6&#45;&gt;Node8</title>
<path fill="none" stroke="midnightblue" d="M126.523,-750.737C138.36,-713.05 152.351,-668.502 163.994,-631.433"/>
<polygon fill="none" stroke="midnightblue" points="123.062,-750.076 123.405,-760.666 129.74,-752.174 123.062,-750.076"/>
</g>
<!-- Node7 -->
<g id="node7" class="node"><title>Node7</title>
<g id="a_node7"><a xlink:href="classapi_1_1_api_object.html" target="_top" xlink:title="Application Programming Interface Object. ">
<polygon fill="none" stroke="black" points="59.7896,-943 59.7896,-997 142.21,-997 142.21,-943 59.7896,-943"/>
<text text-anchor="middle" x="101" y="-985" font-family="Helvetica,sans-Serif" font-size="10.00">api::ApiObject</text>
<polyline fill="none" stroke="black" points="59.7896,-979 142.21,-979 "/>
<text text-anchor="middle" x="101" y="-967" font-family="Helvetica,sans-Serif" font-size="10.00"> </text>
<polyline fill="none" stroke="black" points="59.7896,-961 142.21,-961 "/>
<text text-anchor="start" x="67.7896" y="-949" font-family="Helvetica,sans-Serif" font-size="10.00">+ api_version()</text>
</a>
</g>
</g>
<!-- Node7&#45;&gt;Node6 -->
<g id="edge6" class="edge"><title>Node7&#45;&gt;Node6</title>
<path fill="none" stroke="midnightblue" d="M101,-932.925C101,-924.287 101,-914.765 101,-905.145"/>
<polygon fill="none" stroke="midnightblue" points="97.5001,-932.971 101,-942.971 104.5,-932.971 97.5001,-932.971"/>
</g>
<!-- Node8&#45;&gt;Node2 -->
<g id="edge7" class="edge"><title>Node8&#45;&gt;Node2</title>
<path fill="none" stroke="midnightblue" d="M171.874,-466.646C160.709,-406.86 146.17,-329.008 136.483,-277.134"/>
<polygon fill="none" stroke="midnightblue" points="168.5,-467.645 173.776,-476.832 175.381,-466.36 168.5,-467.645"/>
</g>
</g>
</svg>
