<?xml version="1.0" encoding="UTF-8" standalone="no"?>
<!DOCTYPE svg PUBLIC "-//W3C//DTD SVG 1.1//EN"
 "http://www.w3.org/Graphics/SVG/1.1/DTD/svg11.dtd">
<!-- Generated by graphviz version 2.36.0 (20140111.2315)
 -->
<!-- Title: sys::Assets Pages: 1 -->
<svg width="120pt" height="410pt"
 viewBox="0.00 0.00 120.00 410.00" xmlns="http://www.w3.org/2000/svg" xmlns:xlink="http://www.w3.org/1999/xlink">
<g id="graph0" class="graph" transform="scale(1 1) rotate(0) translate(4 406)">
<title>sys::Assets</title>
<!-- Node1 -->
<g id="node1" class="node"><title>Node1</title>
<polygon fill="#bfbfbf" stroke="black" points="-0.220215,-1 -0.220215,-125 112.22,-125 112.22,-1 -0.220215,-1"/>
<text text-anchor="middle" x="56" y="-113" font-family="Helvetica,sans-Serif" font-size="10.00">sys::Assets</text>
<polyline fill="none" stroke="black" points="-0.220215,-107 112.22,-107 "/>
<text text-anchor="middle" x="56" y="-95" font-family="Helvetica,sans-Serif" font-size="10.00"> </text>
<polyline fill="none" stroke="black" points="-0.220215,-89 112.22,-89 "/>
<text text-anchor="start" x="7.77979" y="-77" font-family="Helvetica,sans-Serif" font-size="10.00">+ bmap_icon_count()</text>
<text text-anchor="start" x="7.77979" y="-67" font-family="Helvetica,sans-Serif" font-size="10.00">+ font()</text>
<text text-anchor="start" x="7.77979" y="-57" font-family="Helvetica,sans-Serif" font-size="10.00">+ font_count()</text>
<text text-anchor="start" x="7.77979" y="-47" font-family="Helvetica,sans-Serif" font-size="10.00">+ get_bmap_icon()</text>
<text text-anchor="start" x="7.77979" y="-37" font-family="Helvetica,sans-Serif" font-size="10.00">+ get_font()</text>
<text text-anchor="start" x="7.77979" y="-27" font-family="Helvetica,sans-Serif" font-size="10.00">+ get_vector_icon()</text>
<text text-anchor="start" x="7.77979" y="-17" font-family="Helvetica,sans-Serif" font-size="10.00">+ init()</text>
<text text-anchor="start" x="7.77979" y="-7" font-family="Helvetica,sans-Serif" font-size="10.00">+ vector_icon_count()</text>
</g>
<!-- Node2 -->
<g id="node2" class="node"><title>Node2</title>
<g id="a_node2"><a xlink:href="classapi_1_1_sys_info_object.html" target="_top" xlink:title="System Info Object. ">
<polygon fill="none" stroke="black" points="7.42383,-163 7.42383,-217 104.576,-217 104.576,-163 7.42383,-163"/>
<text text-anchor="middle" x="56" y="-205" font-family="Helvetica,sans-Serif" font-size="10.00">api::SysInfoObject</text>
<polyline fill="none" stroke="black" points="7.42383,-199 104.576,-199 "/>
<text text-anchor="middle" x="56" y="-187" font-family="Helvetica,sans-Serif" font-size="10.00"> </text>
<polyline fill="none" stroke="black" points="7.42383,-181 104.576,-181 "/>
<text text-anchor="middle" x="56" y="-169" font-family="Helvetica,sans-Serif" font-size="10.00"> </text>
</a>
</g>
</g>
<!-- Node2&#45;&gt;Node1 -->
<g id="edge1" class="edge"><title>Node2&#45;&gt;Node1</title>
<path fill="none" stroke="midnightblue" d="M56,-152.715C56,-144.071 56,-134.61 56,-125.188"/>
<polygon fill="none" stroke="midnightblue" points="52.5001,-152.796 56,-162.796 59.5001,-152.796 52.5001,-152.796"/>
</g>
<!-- Node3 -->
<g id="node3" class="node"><title>Node3</title>
<g id="a_node3"><a xlink:href="classapi_1_1_info_object.html" target="_top" xlink:title="Information Object. ">
<polygon fill="none" stroke="black" points="15.7588,-255 15.7588,-309 96.2412,-309 96.2412,-255 15.7588,-255"/>
<text text-anchor="middle" x="56" y="-297" font-family="Helvetica,sans-Serif" font-size="10.00">api::InfoObject</text>
<polyline fill="none" stroke="black" points="15.7588,-291 96.2412,-291 "/>
<text text-anchor="middle" x="56" y="-279" font-family="Helvetica,sans-Serif" font-size="10.00"> </text>
<polyline fill="none" stroke="black" points="15.7588,-273 96.2412,-273 "/>
<text text-anchor="middle" x="56" y="-261" font-family="Helvetica,sans-Serif" font-size="10.00"> </text>
</a>
</g>
</g>
<!-- Node3&#45;&gt;Node2 -->
<g id="edge2" class="edge"><title>Node3&#45;&gt;Node2</title>
<path fill="none" stroke="midnightblue" d="M56,-244.865C56,-235.644 56,-225.907 56,-217.285"/>
<polygon fill="none" stroke="midnightblue" points="52.5001,-244.968 56,-254.968 59.5001,-244.968 52.5001,-244.968"/>
</g>
<!-- Node4 -->
<g id="node4" class="node"><title>Node4</title>
<g id="a_node4"><a xlink:href="classapi_1_1_api_object.html" target="_top" xlink:title="Application Programming Interface Object. ">
<polygon fill="none" stroke="black" points="14.7896,-347 14.7896,-401 97.2104,-401 97.2104,-347 14.7896,-347"/>
<text text-anchor="middle" x="56" y="-389" font-family="Helvetica,sans-Serif" font-size="10.00">api::ApiObject</text>
<polyline fill="none" stroke="black" points="14.7896,-383 97.2104,-383 "/>
<text text-anchor="middle" x="56" y="-371" font-family="Helvetica,sans-Serif" font-size="10.00"> </text>
<polyline fill="none" stroke="black" points="14.7896,-365 97.2104,-365 "/>
<text text-anchor="start" x="22.7896" y="-353" font-family="Helvetica,sans-Serif" font-size="10.00">+ api_version()</text>
</a>
</g>
</g>
<!-- Node4&#45;&gt;Node3 -->
<g id="edge3" class="edge"><title>Node4&#45;&gt;Node3</title>
<path fill="none" stroke="midnightblue" d="M56,-336.865C56,-327.644 56,-317.907 56,-309.285"/>
<polygon fill="none" stroke="midnightblue" points="52.5001,-336.968 56,-346.968 59.5001,-336.968 52.5001,-336.968"/>
</g>
</g>
</svg>
