<?xml version="1.0" encoding="UTF-8" standalone="no"?>
<!DOCTYPE svg PUBLIC "-//W3C//DTD SVG 1.1//EN"
 "http://www.w3.org/Graphics/SVG/1.1/DTD/svg11.dtd">
<!-- Generated by graphviz version 2.36.0 (20140111.2315)
 -->
<!-- Title: var::Token Pages: 1 -->
<svg width="144pt" height="620pt"
 viewBox="0.00 0.00 144.00 620.00" xmlns="http://www.w3.org/2000/svg" xmlns:xlink="http://www.w3.org/1999/xlink">
<g id="graph0" class="graph" transform="scale(1 1) rotate(0) translate(4 616)">
<title>var::Token</title>
<!-- Node1 -->
<g id="node1" class="node"><title>Node1</title>
<polygon fill="#bfbfbf" stroke="black" points="-0.170898,-1 -0.170898,-135 136.171,-135 136.171,-1 -0.170898,-1"/>
<text text-anchor="middle" x="68" y="-123" font-family="Helvetica,sans-Serif" font-size="10.00">var::Token</text>
<polyline fill="none" stroke="black" points="-0.170898,-117 136.171,-117 "/>
<text text-anchor="middle" x="68" y="-105" font-family="Helvetica,sans-Serif" font-size="10.00"> </text>
<polyline fill="none" stroke="black" points="-0.170898,-99 136.171,-99 "/>
<text text-anchor="start" x="7.8291" y="-87" font-family="Helvetica,sans-Serif" font-size="10.00">+ Token()</text>
<text text-anchor="start" x="7.8291" y="-77" font-family="Helvetica,sans-Serif" font-size="10.00">+ Token()</text>
<text text-anchor="start" x="7.8291" y="-67" font-family="Helvetica,sans-Serif" font-size="10.00">+ Token()</text>
<text text-anchor="start" x="7.8291" y="-57" font-family="Helvetica,sans-Serif" font-size="10.00">+ at()</text>
<text text-anchor="start" x="7.8291" y="-47" font-family="Helvetica,sans-Serif" font-size="10.00">+ count()</text>
<text text-anchor="start" x="7.8291" y="-37" font-family="Helvetica,sans-Serif" font-size="10.00">+ is_count_empty_tokens()</text>
<text text-anchor="start" x="7.8291" y="-27" font-family="Helvetica,sans-Serif" font-size="10.00">and 5 more...</text>
<text text-anchor="start" x="7.8291" y="-17" font-family="Helvetica,sans-Serif" font-size="10.00">+ belongs_to()</text>
<text text-anchor="start" x="7.8291" y="-7" font-family="Helvetica,sans-Serif" font-size="10.00">+ belongs_to()</text>
</g>
<!-- Node2 -->
<g id="node2" class="node"><title>Node2</title>
<g id="a_node2"><a xlink:href="classvar_1_1_string.html" target="_top" xlink:title="String class. ">
<polygon fill="none" stroke="black" points="27.7588,-173 27.7588,-287 108.241,-287 108.241,-173 27.7588,-173"/>
<text text-anchor="middle" x="68" y="-275" font-family="Helvetica,sans-Serif" font-size="10.00">var::String</text>
<polyline fill="none" stroke="black" points="27.7588,-269 108.241,-269 "/>
<text text-anchor="middle" x="68" y="-257" font-family="Helvetica,sans-Serif" font-size="10.00"> </text>
<polyline fill="none" stroke="black" points="27.7588,-251 108.241,-251 "/>
<text text-anchor="start" x="35.7588" y="-239" font-family="Helvetica,sans-Serif" font-size="10.00">+ String()</text>
<text text-anchor="start" x="35.7588" y="-229" font-family="Helvetica,sans-Serif" font-size="10.00">+ String()</text>
<text text-anchor="start" x="35.7588" y="-219" font-family="Helvetica,sans-Serif" font-size="10.00">+ String()</text>
<text text-anchor="start" x="35.7588" y="-209" font-family="Helvetica,sans-Serif" font-size="10.00">+ String()</text>
<text text-anchor="start" x="35.7588" y="-199" font-family="Helvetica,sans-Serif" font-size="10.00">+ String()</text>
<text text-anchor="start" x="35.7588" y="-189" font-family="Helvetica,sans-Serif" font-size="10.00">+ String()</text>
<text text-anchor="start" x="35.7588" y="-179" font-family="Helvetica,sans-Serif" font-size="10.00">and 52 more...</text>
</a>
</g>
</g>
<!-- Node2&#45;&gt;Node1 -->
<g id="edge1" class="edge"><title>Node2&#45;&gt;Node1</title>
<path fill="none" stroke="midnightblue" d="M68,-162.474C68,-153.401 68,-144.09 68,-135.026"/>
<polygon fill="none" stroke="midnightblue" points="64.5001,-162.59 68,-172.59 71.5001,-162.59 64.5001,-162.59"/>
</g>
<!-- Node3 -->
<g id="node3" class="node"><title>Node3</title>
<g id="a_node3"><a xlink:href="classvar_1_1_data.html" target="_top" xlink:title="Data storage class. ">
<polygon fill="none" stroke="black" points="20.4102,-325 20.4102,-449 115.59,-449 115.59,-325 20.4102,-325"/>
<text text-anchor="middle" x="68" y="-437" font-family="Helvetica,sans-Serif" font-size="10.00">var::Data</text>
<polyline fill="none" stroke="black" points="20.4102,-431 115.59,-431 "/>
<text text-anchor="middle" x="68" y="-419" font-family="Helvetica,sans-Serif" font-size="10.00"> </text>
<polyline fill="none" stroke="black" points="20.4102,-413 115.59,-413 "/>
<text text-anchor="start" x="28.4102" y="-401" font-family="Helvetica,sans-Serif" font-size="10.00">+ Data()</text>
<text text-anchor="start" x="28.4102" y="-391" font-family="Helvetica,sans-Serif" font-size="10.00">+ Data()</text>
<text text-anchor="start" x="28.4102" y="-381" font-family="Helvetica,sans-Serif" font-size="10.00">+ Data()</text>
<text text-anchor="start" x="28.4102" y="-371" font-family="Helvetica,sans-Serif" font-size="10.00">+ Data()</text>
<text text-anchor="start" x="28.4102" y="-361" font-family="Helvetica,sans-Serif" font-size="10.00">+ ~Data()</text>
<text text-anchor="start" x="28.4102" y="-351" font-family="Helvetica,sans-Serif" font-size="10.00">+ alloc()</text>
<text text-anchor="start" x="28.4102" y="-341" font-family="Helvetica,sans-Serif" font-size="10.00">and 17 more...</text>
<text text-anchor="start" x="28.4102" y="-331" font-family="Helvetica,sans-Serif" font-size="10.00">+ minimum_size()</text>
</a>
</g>
</g>
<!-- Node3&#45;&gt;Node2 -->
<g id="edge2" class="edge"><title>Node3&#45;&gt;Node2</title>
<path fill="none" stroke="midnightblue" d="M68,-314.503C68,-305.37 68,-296.126 68,-287.28"/>
<polygon fill="none" stroke="midnightblue" points="64.5001,-314.74 68,-324.74 71.5001,-314.74 64.5001,-314.74"/>
</g>
<!-- Node4 -->
<g id="node4" class="node"><title>Node4</title>
<g id="a_node4"><a xlink:href="classapi_1_1_s_object.html" target="_top" xlink:title="SObject Class. ">
<polygon fill="none" stroke="black" points="10.8081,-487 10.8081,-611 125.192,-611 125.192,-487 10.8081,-487"/>
<text text-anchor="middle" x="68" y="-599" font-family="Helvetica,sans-Serif" font-size="10.00">api::SObject</text>
<polyline fill="none" stroke="black" points="10.8081,-593 125.192,-593 "/>
<text text-anchor="middle" x="68" y="-581" font-family="Helvetica,sans-Serif" font-size="10.00"> </text>
<polyline fill="none" stroke="black" points="10.8081,-575 125.192,-575 "/>
<text text-anchor="start" x="18.8081" y="-563" font-family="Helvetica,sans-Serif" font-size="10.00">+ SObject()</text>
<text text-anchor="start" x="18.8081" y="-553" font-family="Helvetica,sans-Serif" font-size="10.00">+ api_version()</text>
<text text-anchor="start" x="18.8081" y="-543" font-family="Helvetica,sans-Serif" font-size="10.00">+ clear_error()</text>
<text text-anchor="start" x="18.8081" y="-533" font-family="Helvetica,sans-Serif" font-size="10.00">+ error_number()</text>
<text text-anchor="start" x="18.8081" y="-523" font-family="Helvetica,sans-Serif" font-size="10.00">+ exit_fatal()</text>
<text text-anchor="start" x="18.8081" y="-513" font-family="Helvetica,sans-Serif" font-size="10.00"># set_error_number()</text>
<text text-anchor="start" x="18.8081" y="-503" font-family="Helvetica,sans-Serif" font-size="10.00"># set_error_number_if</text>
<text text-anchor="start" x="18.8081" y="-493" font-family="Helvetica,sans-Serif" font-size="10.00">_error()</text>
</a>
</g>
</g>
<!-- Node4&#45;&gt;Node3 -->
<g id="edge3" class="edge"><title>Node4&#45;&gt;Node3</title>
<path fill="none" stroke="midnightblue" d="M68,-476.436C68,-467.358 68,-458.134 68,-449.238"/>
<polygon fill="none" stroke="midnightblue" points="64.5001,-476.597 68,-486.597 71.5001,-476.597 64.5001,-476.597"/>
</g>
</g>
</svg>
