<?xml version="1.0" encoding="UTF-8" standalone="no"?>
<!DOCTYPE svg PUBLIC "-//W3C//DTD SVG 1.1//EN"
 "http://www.w3.org/Graphics/SVG/1.1/DTD/svg11.dtd">
<!-- Generated by graphviz version 2.36.0 (20140111.2315)
 -->
<!-- Title: var::Queue&lt; T &gt; Pages: 1 -->
<svg width="126pt" height="648pt"
 viewBox="0.00 0.00 126.00 648.00" xmlns="http://www.w3.org/2000/svg" xmlns:xlink="http://www.w3.org/1999/xlink">
<g id="graph0" class="graph" transform="scale(1 1) rotate(0) translate(4 644)">
<title>var::Queue&lt; T &gt;</title>
<!-- Node1 -->
<g id="node1" class="node"><title>Node1</title>
<polygon fill="#bfbfbf" stroke="black" points="14.7671,-163 14.7671,-277 103.233,-277 103.233,-163 14.7671,-163"/>
<text text-anchor="middle" x="59" y="-265" font-family="Helvetica,sans-Serif" font-size="10.00">var::Queue&lt; T &gt;</text>
<polyline fill="none" stroke="black" points="14.7671,-259 103.233,-259 "/>
<text text-anchor="middle" x="59" y="-247" font-family="Helvetica,sans-Serif" font-size="10.00"> </text>
<polyline fill="none" stroke="black" points="14.7671,-241 103.233,-241 "/>
<text text-anchor="start" x="22.7671" y="-229" font-family="Helvetica,sans-Serif" font-size="10.00">+ Queue()</text>
<text text-anchor="start" x="22.7671" y="-219" font-family="Helvetica,sans-Serif" font-size="10.00">+ back()</text>
<text text-anchor="start" x="22.7671" y="-209" font-family="Helvetica,sans-Serif" font-size="10.00">+ back()</text>
<text text-anchor="start" x="22.7671" y="-199" font-family="Helvetica,sans-Serif" font-size="10.00">+ clear()</text>
<text text-anchor="start" x="22.7671" y="-189" font-family="Helvetica,sans-Serif" font-size="10.00">+ count()</text>
<text text-anchor="start" x="22.7671" y="-179" font-family="Helvetica,sans-Serif" font-size="10.00">+ front()</text>
<text text-anchor="start" x="22.7671" y="-169" font-family="Helvetica,sans-Serif" font-size="10.00">and 4 more...</text>
</g>
<!-- Node5 -->
<g id="node5" class="node"><title>Node5</title>
<g id="a_node5"><a xlink:href="classvar_1_1_queue.html" target="_top" xlink:title="{var::Queue\&lt; Test * \&gt;\n||+ Queue()\l+ back()\l+ back()\l+ clear()\l+ count()\l+ front()\land 4 more...\l}">
<polygon fill="none" stroke="black" points="5.22852,-1 5.22852,-115 112.771,-115 112.771,-1 5.22852,-1"/>
<text text-anchor="middle" x="59" y="-103" font-family="Helvetica,sans-Serif" font-size="10.00">var::Queue&lt; Test * &gt;</text>
<polyline fill="none" stroke="black" points="5.22852,-97 112.771,-97 "/>
<text text-anchor="middle" x="59" y="-85" font-family="Helvetica,sans-Serif" font-size="10.00"> </text>
<polyline fill="none" stroke="black" points="5.22852,-79 112.771,-79 "/>
<text text-anchor="start" x="13.2285" y="-67" font-family="Helvetica,sans-Serif" font-size="10.00">+ Queue()</text>
<text text-anchor="start" x="13.2285" y="-57" font-family="Helvetica,sans-Serif" font-size="10.00">+ back()</text>
<text text-anchor="start" x="13.2285" y="-47" font-family="Helvetica,sans-Serif" font-size="10.00">+ back()</text>
<text text-anchor="start" x="13.2285" y="-37" font-family="Helvetica,sans-Serif" font-size="10.00">+ clear()</text>
<text text-anchor="start" x="13.2285" y="-27" font-family="Helvetica,sans-Serif" font-size="10.00">+ count()</text>
<text text-anchor="start" x="13.2285" y="-17" font-family="Helvetica,sans-Serif" font-size="10.00">+ front()</text>
<text text-anchor="start" x="13.2285" y="-7" font-family="Helvetica,sans-Serif" font-size="10.00">and 4 more...</text>
</a>
</g>
</g>
<!-- Node1&#45;&gt;Node5 -->
<g id="edge4" class="edge"><title>Node1&#45;&gt;Node5</title>
<path fill="none" stroke="orange" d="M59,-152.337C59,-139.977 59,-127.179 59,-115.17"/>
<polygon fill="orange" stroke="orange" points="55.5001,-152.59 59,-162.59 62.5001,-152.59 55.5001,-152.59"/>
<text text-anchor="middle" x="81.4243" y="-136" font-family="Helvetica,sans-Serif" font-size="10.00"> &lt; Test * &gt;</text>
</g>
<!-- Node2 -->
<g id="node2" class="node"><title>Node2</title>
<g id="a_node2"><a xlink:href="classapi_1_1_var_work_object.html" target="_top" xlink:title="Format Work Object Class. ">
<polygon fill="none" stroke="black" points="8.10938,-317 8.10938,-371 109.891,-371 109.891,-317 8.10938,-317"/>
<text text-anchor="middle" x="59" y="-359" font-family="Helvetica,sans-Serif" font-size="10.00">api::VarWorkObject</text>
<polyline fill="none" stroke="black" points="8.10938,-353 109.891,-353 "/>
<text text-anchor="middle" x="59" y="-341" font-family="Helvetica,sans-Serif" font-size="10.00"> </text>
<polyline fill="none" stroke="black" points="8.10938,-335 109.891,-335 "/>
<text text-anchor="middle" x="59" y="-323" font-family="Helvetica,sans-Serif" font-size="10.00"> </text>
</a>
</g>
</g>
<!-- Node2&#45;&gt;Node1 -->
<g id="edge1" class="edge"><title>Node2&#45;&gt;Node1</title>
<path fill="none" stroke="midnightblue" d="M59,-306.783C59,-297.487 59,-287.265 59,-277.217"/>
<polygon fill="none" stroke="midnightblue" points="55.5001,-306.828 59,-316.828 62.5001,-306.828 55.5001,-306.828"/>
</g>
<!-- Node3 -->
<g id="node3" class="node"><title>Node3</title>
<g id="a_node3"><a xlink:href="classapi_1_1_work_object.html" target="_top" xlink:title="WorkObject Class. ">
<polygon fill="none" stroke="black" points="-0.547852,-411 -0.547852,-545 118.548,-545 118.548,-411 -0.547852,-411"/>
<text text-anchor="middle" x="59" y="-533" font-family="Helvetica,sans-Serif" font-size="10.00">api::WorkObject</text>
<polyline fill="none" stroke="black" points="-0.547852,-527 118.548,-527 "/>
<text text-anchor="middle" x="59" y="-515" font-family="Helvetica,sans-Serif" font-size="10.00"> </text>
<polyline fill="none" stroke="black" points="-0.547852,-509 118.548,-509 "/>
<text text-anchor="start" x="7.45215" y="-497" font-family="Helvetica,sans-Serif" font-size="10.00">+ WorkObject()</text>
<text text-anchor="start" x="7.45215" y="-487" font-family="Helvetica,sans-Serif" font-size="10.00">+ clear_error_number()</text>
<text text-anchor="start" x="7.45215" y="-477" font-family="Helvetica,sans-Serif" font-size="10.00">+ error_number()</text>
<text text-anchor="start" x="7.45215" y="-467" font-family="Helvetica,sans-Serif" font-size="10.00">+ exit_fatal()</text>
<text text-anchor="start" x="7.45215" y="-457" font-family="Helvetica,sans-Serif" font-size="10.00"># set_error_number()</text>
<text text-anchor="start" x="7.45215" y="-447" font-family="Helvetica,sans-Serif" font-size="10.00"># set_error_number_if</text>
<text text-anchor="start" x="7.45215" y="-437" font-family="Helvetica,sans-Serif" font-size="10.00">_error()</text>
<text text-anchor="start" x="7.45215" y="-427" font-family="Helvetica,sans-Serif" font-size="10.00"># set_error_number_to</text>
<text text-anchor="start" x="7.45215" y="-417" font-family="Helvetica,sans-Serif" font-size="10.00">_errno()</text>
</a>
</g>
</g>
<!-- Node3&#45;&gt;Node2 -->
<g id="edge2" class="edge"><title>Node3&#45;&gt;Node2</title>
<path fill="none" stroke="midnightblue" d="M59,-400.484C59,-389.999 59,-379.876 59,-371.213"/>
<polygon fill="none" stroke="midnightblue" points="55.5001,-400.613 59,-410.613 62.5001,-400.613 55.5001,-400.613"/>
</g>
<!-- Node4 -->
<g id="node4" class="node"><title>Node4</title>
<g id="a_node4"><a xlink:href="classapi_1_1_api_object.html" target="_top" xlink:title="API Object Class. ">
<polygon fill="none" stroke="black" points="17.7896,-585 17.7896,-639 100.21,-639 100.21,-585 17.7896,-585"/>
<text text-anchor="middle" x="59" y="-627" font-family="Helvetica,sans-Serif" font-size="10.00">api::ApiObject</text>
<polyline fill="none" stroke="black" points="17.7896,-621 100.21,-621 "/>
<text text-anchor="middle" x="59" y="-609" font-family="Helvetica,sans-Serif" font-size="10.00"> </text>
<polyline fill="none" stroke="black" points="17.7896,-603 100.21,-603 "/>
<text text-anchor="start" x="25.7896" y="-591" font-family="Helvetica,sans-Serif" font-size="10.00">+ api_version()</text>
</a>
</g>
</g>
<!-- Node4&#45;&gt;Node3 -->
<g id="edge3" class="edge"><title>Node4&#45;&gt;Node3</title>
<path fill="none" stroke="midnightblue" d="M59,-574.665C59,-565.502 59,-555.377 59,-545.243"/>
<polygon fill="none" stroke="midnightblue" points="55.5001,-574.921 59,-584.921 62.5001,-574.921 55.5001,-574.921"/>
</g>
</g>
</svg>
