<?xml version="1.0" encoding="UTF-8" standalone="no"?>
<!DOCTYPE svg PUBLIC "-//W3C//DTD SVG 1.1//EN"
 "http://www.w3.org/Graphics/SVG/1.1/DTD/svg11.dtd">
<!-- Generated by graphviz version 2.36.0 (20140111.2315)
 -->
<!-- Title: draw::Progress Pages: 1 -->
<svg width="350pt" height="834pt"
 viewBox="0.00 0.00 350.00 834.00" xmlns="http://www.w3.org/2000/svg" xmlns:xlink="http://www.w3.org/1999/xlink">
<g id="graph0" class="graph" transform="scale(1 1) rotate(0) translate(4 830)">
<title>draw::Progress</title>
<!-- Node1 -->
<g id="node1" class="node"><title>Node1</title>
<polygon fill="#bfbfbf" stroke="black" points="91.5742,-123 91.5742,-207 240.426,-207 240.426,-123 91.5742,-123"/>
<text text-anchor="middle" x="166" y="-195" font-family="Helvetica,sans-Serif" font-size="10.00">draw::Progress</text>
<polyline fill="none" stroke="black" points="91.5742,-189 240.426,-189 "/>
<text text-anchor="start" x="99.5742" y="-177" font-family="Helvetica,sans-Serif" font-size="10.00"># m_scaled_border_thickness</text>
<polyline fill="none" stroke="black" points="91.5742,-171 240.426,-171 "/>
<text text-anchor="start" x="99.5742" y="-159" font-family="Helvetica,sans-Serif" font-size="10.00">+ Progress()</text>
<text text-anchor="start" x="99.5742" y="-149" font-family="Helvetica,sans-Serif" font-size="10.00">+ border_thickness()</text>
<text text-anchor="start" x="99.5742" y="-139" font-family="Helvetica,sans-Serif" font-size="10.00">+ set_border_thickness()</text>
<text text-anchor="start" x="99.5742" y="-129" font-family="Helvetica,sans-Serif" font-size="10.00"># scaled_border_thickness()</text>
</g>
<!-- Node9 -->
<g id="node9" class="node"><title>Node9</title>
<g id="a_node9"><a xlink:href="classdraw_1_1_arc_progress.html" target="_top" xlink:title="Progress Arc Class. ">
<polygon fill="none" stroke="black" points="-0.123047,-1 -0.123047,-85 98.123,-85 98.123,-1 -0.123047,-1"/>
<text text-anchor="middle" x="49" y="-73" font-family="Helvetica,sans-Serif" font-size="10.00">draw::ArcProgress</text>
<polyline fill="none" stroke="black" points="-0.123047,-67 98.123,-67 "/>
<text text-anchor="middle" x="49" y="-55" font-family="Helvetica,sans-Serif" font-size="10.00"> </text>
<polyline fill="none" stroke="black" points="-0.123047,-49 98.123,-49 "/>
<text text-anchor="start" x="7.87695" y="-37" font-family="Helvetica,sans-Serif" font-size="10.00">+ ArcProgress()</text>
<text text-anchor="start" x="7.87695" y="-27" font-family="Helvetica,sans-Serif" font-size="10.00">+ draw_to_scale()</text>
<text text-anchor="start" x="7.87695" y="-17" font-family="Helvetica,sans-Serif" font-size="10.00">+ set_direction()</text>
<text text-anchor="start" x="7.87695" y="-7" font-family="Helvetica,sans-Serif" font-size="10.00">+ set_offset()</text>
</a>
</g>
</g>
<!-- Node1&#45;&gt;Node9 -->
<g id="edge9" class="edge"><title>Node1&#45;&gt;Node9</title>
<path fill="none" stroke="midnightblue" d="M118.732,-115.52C108.987,-105.526 98.8107,-95.0879 89.339,-85.3733"/>
<polygon fill="none" stroke="midnightblue" points="116.248,-117.986 125.735,-122.703 121.26,-113.099 116.248,-117.986"/>
</g>
<!-- Node10 -->
<g id="node10" class="node"><title>Node10</title>
<g id="a_node10"><a xlink:href="classdraw_1_1_bar_progress.html" target="_top" xlink:title="Progress Bar Class. ">
<polygon fill="none" stroke="black" points="116.596,-6 116.596,-80 215.404,-80 215.404,-6 116.596,-6"/>
<text text-anchor="middle" x="166" y="-68" font-family="Helvetica,sans-Serif" font-size="10.00">draw::BarProgress</text>
<polyline fill="none" stroke="black" points="116.596,-62 215.404,-62 "/>
<text text-anchor="middle" x="166" y="-50" font-family="Helvetica,sans-Serif" font-size="10.00"> </text>
<polyline fill="none" stroke="black" points="116.596,-44 215.404,-44 "/>
<text text-anchor="start" x="124.596" y="-32" font-family="Helvetica,sans-Serif" font-size="10.00">+ BarProgress()</text>
<text text-anchor="start" x="124.596" y="-22" font-family="Helvetica,sans-Serif" font-size="10.00">+ draw()</text>
<text text-anchor="start" x="124.596" y="-12" font-family="Helvetica,sans-Serif" font-size="10.00">+ draw_to_scale()</text>
</a>
</g>
</g>
<!-- Node1&#45;&gt;Node10 -->
<g id="edge10" class="edge"><title>Node1&#45;&gt;Node10</title>
<path fill="none" stroke="midnightblue" d="M166,-112.443C166,-101.571 166,-90.3217 166,-80.1616"/>
<polygon fill="none" stroke="midnightblue" points="162.5,-112.703 166,-122.703 169.5,-112.703 162.5,-112.703"/>
</g>
<!-- Node11 -->
<g id="node11" class="node"><title>Node11</title>
<g id="a_node11"><a xlink:href="classdraw_1_1_circle_progress.html" target="_top" xlink:title="Progress Circle Class. ">
<polygon fill="none" stroke="black" points="233.599,-11 233.599,-75 342.401,-75 342.401,-11 233.599,-11"/>
<text text-anchor="middle" x="288" y="-63" font-family="Helvetica,sans-Serif" font-size="10.00">draw::CircleProgress</text>
<polyline fill="none" stroke="black" points="233.599,-57 342.401,-57 "/>
<text text-anchor="middle" x="288" y="-45" font-family="Helvetica,sans-Serif" font-size="10.00"> </text>
<polyline fill="none" stroke="black" points="233.599,-39 342.401,-39 "/>
<text text-anchor="start" x="241.599" y="-27" font-family="Helvetica,sans-Serif" font-size="10.00">+ CircleProgress()</text>
<text text-anchor="start" x="241.599" y="-17" font-family="Helvetica,sans-Serif" font-size="10.00">+ draw_to_scale()</text>
</a>
</g>
</g>
<!-- Node1&#45;&gt;Node11 -->
<g id="edge11" class="edge"><title>Node1&#45;&gt;Node11</title>
<path fill="none" stroke="midnightblue" d="M215.155,-115.651C229.044,-101.99 243.785,-87.4902 256.346,-75.1347"/>
<polygon fill="none" stroke="midnightblue" points="212.66,-113.195 207.985,-122.703 217.569,-118.186 212.66,-113.195"/>
</g>
<!-- Node2 -->
<g id="node2" class="node"><title>Node2</title>
<g id="a_node2"><a xlink:href="classdraw_1_1_drawing.html" target="_top" xlink:title="Drawing Class. ">
<polygon fill="none" stroke="black" points="38.4473,-245 38.4473,-469 157.553,-469 157.553,-245 38.4473,-245"/>
<text text-anchor="middle" x="98" y="-457" font-family="Helvetica,sans-Serif" font-size="10.00">draw::Drawing</text>
<polyline fill="none" stroke="black" points="38.4473,-451 157.553,-451 "/>
<text text-anchor="middle" x="98" y="-439" font-family="Helvetica,sans-Serif" font-size="10.00"> </text>
<polyline fill="none" stroke="black" points="38.4473,-433 157.553,-433 "/>
<text text-anchor="start" x="46.4473" y="-421" font-family="Helvetica,sans-Serif" font-size="10.00">+ Drawing()</text>
<text text-anchor="start" x="46.4473" y="-411" font-family="Helvetica,sans-Serif" font-size="10.00">+ dark()</text>
<text text-anchor="start" x="46.4473" y="-401" font-family="Helvetica,sans-Serif" font-size="10.00">+ draw()</text>
<text text-anchor="start" x="46.4473" y="-391" font-family="Helvetica,sans-Serif" font-size="10.00">+ draw()</text>
<text text-anchor="start" x="46.4473" y="-381" font-family="Helvetica,sans-Serif" font-size="10.00">+ draw_scratch()</text>
<text text-anchor="start" x="46.4473" y="-371" font-family="Helvetica,sans-Serif" font-size="10.00">+ draw_to_scale()</text>
<text text-anchor="start" x="46.4473" y="-361" font-family="Helvetica,sans-Serif" font-size="10.00">and 18 more...</text>
<text text-anchor="start" x="46.4473" y="-351" font-family="Helvetica,sans-Serif" font-size="10.00">+ clear()</text>
<text text-anchor="start" x="46.4473" y="-341" font-family="Helvetica,sans-Serif" font-size="10.00">+ draw_checkerboard()</text>
<text text-anchor="start" x="46.4473" y="-331" font-family="Helvetica,sans-Serif" font-size="10.00">+ draw_pattern()</text>
<text text-anchor="start" x="46.4473" y="-321" font-family="Helvetica,sans-Serif" font-size="10.00">+ h()</text>
<text text-anchor="start" x="46.4473" y="-311" font-family="Helvetica,sans-Serif" font-size="10.00">+ height()</text>
<text text-anchor="start" x="46.4473" y="-301" font-family="Helvetica,sans-Serif" font-size="10.00">+ invert()</text>
<text text-anchor="start" x="46.4473" y="-291" font-family="Helvetica,sans-Serif" font-size="10.00">and 4 more...</text>
<text text-anchor="start" x="46.4473" y="-281" font-family="Helvetica,sans-Serif" font-size="10.00"># dim_on_bitmap()</text>
<text text-anchor="start" x="46.4473" y="-271" font-family="Helvetica,sans-Serif" font-size="10.00"># flag()</text>
<text text-anchor="start" x="46.4473" y="-261" font-family="Helvetica,sans-Serif" font-size="10.00"># point_on_bitmap()</text>
<text text-anchor="start" x="46.4473" y="-251" font-family="Helvetica,sans-Serif" font-size="10.00"># set_flag()</text>
</a>
</g>
</g>
<!-- Node2&#45;&gt;Node1 -->
<g id="edge1" class="edge"><title>Node2&#45;&gt;Node1</title>
<path fill="none" stroke="midnightblue" d="M141.183,-235.342C144.721,-225.457 148.115,-215.973 151.197,-207.363"/>
<polygon fill="none" stroke="midnightblue" points="137.827,-234.332 137.753,-244.926 144.418,-236.691 137.827,-234.332"/>
</g>
<!-- Node3 -->
<g id="node3" class="node"><title>Node3</title>
<g id="a_node3"><a xlink:href="classapi_1_1_draw_work_object.html" target="_top" xlink:title="State Machine Work Object Class. ">
<polygon fill="none" stroke="black" points="48.854,-507 48.854,-561 159.146,-561 159.146,-507 48.854,-507"/>
<text text-anchor="middle" x="104" y="-549" font-family="Helvetica,sans-Serif" font-size="10.00">api::DrawWorkObject</text>
<polyline fill="none" stroke="black" points="48.854,-543 159.146,-543 "/>
<text text-anchor="middle" x="104" y="-531" font-family="Helvetica,sans-Serif" font-size="10.00"> </text>
<polyline fill="none" stroke="black" points="48.854,-525 159.146,-525 "/>
<text text-anchor="middle" x="104" y="-513" font-family="Helvetica,sans-Serif" font-size="10.00"> </text>
</a>
</g>
</g>
<!-- Node3&#45;&gt;Node2 -->
<g id="edge2" class="edge"><title>Node3&#45;&gt;Node2</title>
<path fill="none" stroke="midnightblue" d="M102.755,-496.684C102.466,-488.251 102.143,-478.84 101.806,-469.001"/>
<polygon fill="none" stroke="midnightblue" points="99.261,-496.927 103.102,-506.801 106.257,-496.687 99.261,-496.927"/>
</g>
<!-- Node4 -->
<g id="node4" class="node"><title>Node4</title>
<g id="a_node4"><a xlink:href="classapi_1_1_work_object.html" target="_top" xlink:title="WorkObject Class. ">
<polygon fill="none" stroke="black" points="49.4521,-599 49.4521,-733 168.548,-733 168.548,-599 49.4521,-599"/>
<text text-anchor="middle" x="109" y="-721" font-family="Helvetica,sans-Serif" font-size="10.00">api::WorkObject</text>
<polyline fill="none" stroke="black" points="49.4521,-715 168.548,-715 "/>
<text text-anchor="middle" x="109" y="-703" font-family="Helvetica,sans-Serif" font-size="10.00"> </text>
<polyline fill="none" stroke="black" points="49.4521,-697 168.548,-697 "/>
<text text-anchor="start" x="57.4521" y="-685" font-family="Helvetica,sans-Serif" font-size="10.00">+ WorkObject()</text>
<text text-anchor="start" x="57.4521" y="-675" font-family="Helvetica,sans-Serif" font-size="10.00">+ clear_error_number()</text>
<text text-anchor="start" x="57.4521" y="-665" font-family="Helvetica,sans-Serif" font-size="10.00">+ error_number()</text>
<text text-anchor="start" x="57.4521" y="-655" font-family="Helvetica,sans-Serif" font-size="10.00">+ exit_fatal()</text>
<text text-anchor="start" x="57.4521" y="-645" font-family="Helvetica,sans-Serif" font-size="10.00"># set_error_number()</text>
<text text-anchor="start" x="57.4521" y="-635" font-family="Helvetica,sans-Serif" font-size="10.00"># set_error_number_if</text>
<text text-anchor="start" x="57.4521" y="-625" font-family="Helvetica,sans-Serif" font-size="10.00">_error()</text>
<text text-anchor="start" x="57.4521" y="-615" font-family="Helvetica,sans-Serif" font-size="10.00"># set_error_number_to</text>
<text text-anchor="start" x="57.4521" y="-605" font-family="Helvetica,sans-Serif" font-size="10.00">_errno()</text>
</a>
</g>
</g>
<!-- Node4&#45;&gt;Node3 -->
<g id="edge3" class="edge"><title>Node4&#45;&gt;Node3</title>
<path fill="none" stroke="midnightblue" d="M106.071,-588.838C105.689,-578.903 105.32,-569.326 105.003,-561.074"/>
<polygon fill="none" stroke="midnightblue" points="102.574,-588.999 106.456,-598.857 109.569,-588.73 102.574,-588.999"/>
</g>
<!-- Node5 -->
<g id="node5" class="node"><title>Node5</title>
<g id="a_node5"><a xlink:href="classapi_1_1_api_object.html" target="_top" xlink:title="API Object Class. ">
<polygon fill="none" stroke="black" points="127.79,-771 127.79,-825 210.21,-825 210.21,-771 127.79,-771"/>
<text text-anchor="middle" x="169" y="-813" font-family="Helvetica,sans-Serif" font-size="10.00">api::ApiObject</text>
<polyline fill="none" stroke="black" points="127.79,-807 210.21,-807 "/>
<text text-anchor="middle" x="169" y="-795" font-family="Helvetica,sans-Serif" font-size="10.00"> </text>
<polyline fill="none" stroke="black" points="127.79,-789 210.21,-789 "/>
<text text-anchor="start" x="135.79" y="-777" font-family="Helvetica,sans-Serif" font-size="10.00">+ api_version()</text>
</a>
</g>
</g>
<!-- Node5&#45;&gt;Node4 -->
<g id="edge4" class="edge"><title>Node5&#45;&gt;Node4</title>
<path fill="none" stroke="midnightblue" d="M152.613,-761.495C148.528,-752.644 144.016,-742.868 139.489,-733.059"/>
<polygon fill="none" stroke="midnightblue" points="149.49,-763.08 156.858,-770.693 155.845,-760.146 149.49,-763.08"/>
</g>
<!-- Node8 -->
<g id="node8" class="node"><title>Node8</title>
<g id="a_node8"><a xlink:href="classapi_1_1_info_object.html" target="_top" xlink:title="API Information Object. ">
<polygon fill="none" stroke="black" points="188.759,-639 188.759,-693 269.241,-693 269.241,-639 188.759,-639"/>
<text text-anchor="middle" x="229" y="-681" font-family="Helvetica,sans-Serif" font-size="10.00">api::InfoObject</text>
<polyline fill="none" stroke="black" points="188.759,-675 269.241,-675 "/>
<text text-anchor="middle" x="229" y="-663" font-family="Helvetica,sans-Serif" font-size="10.00"> </text>
<polyline fill="none" stroke="black" points="188.759,-657 269.241,-657 "/>
<text text-anchor="middle" x="229" y="-645" font-family="Helvetica,sans-Serif" font-size="10.00"> </text>
</a>
</g>
</g>
<!-- Node5&#45;&gt;Node8 -->
<g id="edge8" class="edge"><title>Node5&#45;&gt;Node8</title>
<path fill="none" stroke="midnightblue" d="M185.373,-761.525C195.323,-739.966 207.813,-712.905 216.876,-693.268"/>
<polygon fill="none" stroke="midnightblue" points="182.155,-760.146 181.142,-770.693 188.51,-763.08 182.155,-760.146"/>
</g>
<!-- Node6 -->
<g id="node6" class="node"><title>Node6</title>
<g id="a_node6"><a xlink:href="classdraw_1_1_progress_attr.html" target="_top" xlink:title="Progress Attribute Class. ">
<polygon fill="none" stroke="black" points="175.726,-300 175.726,-414 294.274,-414 294.274,-300 175.726,-300"/>
<text text-anchor="middle" x="235" y="-402" font-family="Helvetica,sans-Serif" font-size="10.00">draw::ProgressAttr</text>
<polyline fill="none" stroke="black" points="175.726,-396 294.274,-396 "/>
<text text-anchor="middle" x="235" y="-384" font-family="Helvetica,sans-Serif" font-size="10.00"> </text>
<polyline fill="none" stroke="black" points="175.726,-378 294.274,-378 "/>
<text text-anchor="start" x="183.726" y="-366" font-family="Helvetica,sans-Serif" font-size="10.00">+ ProgressAttr()</text>
<text text-anchor="start" x="183.726" y="-356" font-family="Helvetica,sans-Serif" font-size="10.00">+ ProgressAttr()</text>
<text text-anchor="start" x="183.726" y="-346" font-family="Helvetica,sans-Serif" font-size="10.00">+ max()</text>
<text text-anchor="start" x="183.726" y="-336" font-family="Helvetica,sans-Serif" font-size="10.00">+ operator progress_t()</text>
<text text-anchor="start" x="183.726" y="-326" font-family="Helvetica,sans-Serif" font-size="10.00">+ pen()</text>
<text text-anchor="start" x="183.726" y="-316" font-family="Helvetica,sans-Serif" font-size="10.00">+ set_attr()</text>
<text text-anchor="start" x="183.726" y="-306" font-family="Helvetica,sans-Serif" font-size="10.00">and 5 more...</text>
</a>
</g>
</g>
<!-- Node6&#45;&gt;Node1 -->
<g id="edge5" class="edge"><title>Node6&#45;&gt;Node1</title>
<path fill="none" stroke="midnightblue" d="M211.09,-290.16C201.055,-262.528 189.696,-231.25 180.89,-207.001"/>
<polygon fill="none" stroke="midnightblue" points="207.874,-291.56 214.578,-299.765 214.454,-289.171 207.874,-291.56"/>
</g>
<!-- Node7 -->
<g id="node7" class="node"><title>Node7</title>
<g id="a_node7"><a xlink:href="classapi_1_1_draw_info_object.html" target="_top" xlink:title="Draw Information Object. ">
<polygon fill="none" stroke="black" points="180.091,-507 180.091,-561 283.909,-561 283.909,-507 180.091,-507"/>
<text text-anchor="middle" x="232" y="-549" font-family="Helvetica,sans-Serif" font-size="10.00">api::DrawInfoObject</text>
<polyline fill="none" stroke="black" points="180.091,-543 283.909,-543 "/>
<text text-anchor="middle" x="232" y="-531" font-family="Helvetica,sans-Serif" font-size="10.00"> </text>
<polyline fill="none" stroke="black" points="180.091,-525 283.909,-525 "/>
<text text-anchor="middle" x="232" y="-513" font-family="Helvetica,sans-Serif" font-size="10.00"> </text>
</a>
</g>
</g>
<!-- Node7&#45;&gt;Node6 -->
<g id="edge6" class="edge"><title>Node7&#45;&gt;Node6</title>
<path fill="none" stroke="midnightblue" d="M232.621,-496.764C233.03,-472.902 233.574,-441.182 234.038,-414.093"/>
<polygon fill="none" stroke="midnightblue" points="229.121,-496.742 232.449,-506.801 236.12,-496.862 229.121,-496.742"/>
</g>
<!-- Node8&#45;&gt;Node7 -->
<g id="edge7" class="edge"><title>Node8&#45;&gt;Node7</title>
<path fill="none" stroke="midnightblue" d="M229.839,-628.652C230.333,-607.24 230.947,-580.641 231.394,-561.268"/>
<polygon fill="none" stroke="midnightblue" points="226.339,-628.614 229.607,-638.693 233.337,-628.776 226.339,-628.614"/>
</g>
</g>
</svg>
