<?xml version="1.0" encoding="UTF-8" standalone="no"?>
<!DOCTYPE svg PUBLIC "-//W3C//DTD SVG 1.1//EN"
 "http://www.w3.org/Graphics/SVG/1.1/DTD/svg11.dtd">
<!-- Generated by graphviz version 2.36.0 (20140111.2315)
 -->
<!-- Title: draw::ArcProgress Pages: 1 -->
<svg width="263pt" height="834pt"
 viewBox="0.00 0.00 263.00 834.00" xmlns="http://www.w3.org/2000/svg" xmlns:xlink="http://www.w3.org/1999/xlink">
<g id="graph0" class="graph" transform="scale(1 1) rotate(0) translate(4 830)">
<title>draw::ArcProgress</title>
<!-- Node1 -->
<g id="node1" class="node"><title>Node1</title>
<polygon fill="#bfbfbf" stroke="black" points="77.877,-1 77.877,-85 176.123,-85 176.123,-1 77.877,-1"/>
<text text-anchor="middle" x="127" y="-73" font-family="Helvetica,sans-Serif" font-size="10.00">draw::ArcProgress</text>
<polyline fill="none" stroke="black" points="77.877,-67 176.123,-67 "/>
<text text-anchor="middle" x="127" y="-55" font-family="Helvetica,sans-Serif" font-size="10.00"> </text>
<polyline fill="none" stroke="black" points="77.877,-49 176.123,-49 "/>
<text text-anchor="start" x="85.877" y="-37" font-family="Helvetica,sans-Serif" font-size="10.00">+ ArcProgress()</text>
<text text-anchor="start" x="85.877" y="-27" font-family="Helvetica,sans-Serif" font-size="10.00">+ draw_to_scale()</text>
<text text-anchor="start" x="85.877" y="-17" font-family="Helvetica,sans-Serif" font-size="10.00">+ set_direction()</text>
<text text-anchor="start" x="85.877" y="-7" font-family="Helvetica,sans-Serif" font-size="10.00">+ set_offset()</text>
</g>
<!-- Node2 -->
<g id="node2" class="node"><title>Node2</title>
<g id="a_node2"><a xlink:href="classdraw_1_1_progress.html" target="_top" xlink:title="Progress Class. ">
<polygon fill="none" stroke="black" points="52.5742,-123 52.5742,-207 201.426,-207 201.426,-123 52.5742,-123"/>
<text text-anchor="middle" x="127" y="-195" font-family="Helvetica,sans-Serif" font-size="10.00">draw::Progress</text>
<polyline fill="none" stroke="black" points="52.5742,-189 201.426,-189 "/>
<text text-anchor="start" x="60.5742" y="-177" font-family="Helvetica,sans-Serif" font-size="10.00"># m_scaled_border_thickness</text>
<polyline fill="none" stroke="black" points="52.5742,-171 201.426,-171 "/>
<text text-anchor="start" x="60.5742" y="-159" font-family="Helvetica,sans-Serif" font-size="10.00">+ Progress()</text>
<text text-anchor="start" x="60.5742" y="-149" font-family="Helvetica,sans-Serif" font-size="10.00">+ border_thickness()</text>
<text text-anchor="start" x="60.5742" y="-139" font-family="Helvetica,sans-Serif" font-size="10.00">+ set_border_thickness()</text>
<text text-anchor="start" x="60.5742" y="-129" font-family="Helvetica,sans-Serif" font-size="10.00"># scaled_border_thickness()</text>
</a>
</g>
</g>
<!-- Node2&#45;&gt;Node1 -->
<g id="edge1" class="edge"><title>Node2&#45;&gt;Node1</title>
<path fill="none" stroke="midnightblue" d="M127,-112.598C127,-103.506 127,-94.1447 127,-85.3733"/>
<polygon fill="none" stroke="midnightblue" points="123.5,-112.703 127,-122.703 130.5,-112.703 123.5,-112.703"/>
</g>
<!-- Node3 -->
<g id="node3" class="node"><title>Node3</title>
<g id="a_node3"><a xlink:href="classdraw_1_1_drawing.html" target="_top" xlink:title="Drawing Class. ">
<polygon fill="none" stroke="black" points="-0.552734,-245 -0.552734,-469 118.553,-469 118.553,-245 -0.552734,-245"/>
<text text-anchor="middle" x="59" y="-457" font-family="Helvetica,sans-Serif" font-size="10.00">draw::Drawing</text>
<polyline fill="none" stroke="black" points="-0.552734,-451 118.553,-451 "/>
<text text-anchor="middle" x="59" y="-439" font-family="Helvetica,sans-Serif" font-size="10.00"> </text>
<polyline fill="none" stroke="black" points="-0.552734,-433 118.553,-433 "/>
<text text-anchor="start" x="7.44727" y="-421" font-family="Helvetica,sans-Serif" font-size="10.00">+ Drawing()</text>
<text text-anchor="start" x="7.44727" y="-411" font-family="Helvetica,sans-Serif" font-size="10.00">+ dark()</text>
<text text-anchor="start" x="7.44727" y="-401" font-family="Helvetica,sans-Serif" font-size="10.00">+ draw()</text>
<text text-anchor="start" x="7.44727" y="-391" font-family="Helvetica,sans-Serif" font-size="10.00">+ draw()</text>
<text text-anchor="start" x="7.44727" y="-381" font-family="Helvetica,sans-Serif" font-size="10.00">+ draw_scratch()</text>
<text text-anchor="start" x="7.44727" y="-371" font-family="Helvetica,sans-Serif" font-size="10.00">+ draw_to_scale()</text>
<text text-anchor="start" x="7.44727" y="-361" font-family="Helvetica,sans-Serif" font-size="10.00">and 18 more...</text>
<text text-anchor="start" x="7.44727" y="-351" font-family="Helvetica,sans-Serif" font-size="10.00">+ clear()</text>
<text text-anchor="start" x="7.44727" y="-341" font-family="Helvetica,sans-Serif" font-size="10.00">+ draw_checkerboard()</text>
<text text-anchor="start" x="7.44727" y="-331" font-family="Helvetica,sans-Serif" font-size="10.00">+ draw_pattern()</text>
<text text-anchor="start" x="7.44727" y="-321" font-family="Helvetica,sans-Serif" font-size="10.00">+ h()</text>
<text text-anchor="start" x="7.44727" y="-311" font-family="Helvetica,sans-Serif" font-size="10.00">+ height()</text>
<text text-anchor="start" x="7.44727" y="-301" font-family="Helvetica,sans-Serif" font-size="10.00">+ invert()</text>
<text text-anchor="start" x="7.44727" y="-291" font-family="Helvetica,sans-Serif" font-size="10.00">and 4 more...</text>
<text text-anchor="start" x="7.44727" y="-281" font-family="Helvetica,sans-Serif" font-size="10.00"># dim_on_bitmap()</text>
<text text-anchor="start" x="7.44727" y="-271" font-family="Helvetica,sans-Serif" font-size="10.00"># flag()</text>
<text text-anchor="start" x="7.44727" y="-261" font-family="Helvetica,sans-Serif" font-size="10.00"># point_on_bitmap()</text>
<text text-anchor="start" x="7.44727" y="-251" font-family="Helvetica,sans-Serif" font-size="10.00"># set_flag()</text>
</a>
</g>
</g>
<!-- Node3&#45;&gt;Node2 -->
<g id="edge2" class="edge"><title>Node3&#45;&gt;Node2</title>
<path fill="none" stroke="midnightblue" d="M102.183,-235.342C105.721,-225.457 109.115,-215.973 112.197,-207.363"/>
<polygon fill="none" stroke="midnightblue" points="98.827,-234.332 98.7526,-244.926 105.418,-236.691 98.827,-234.332"/>
</g>
<!-- Node4 -->
<g id="node4" class="node"><title>Node4</title>
<g id="a_node4"><a xlink:href="classapi_1_1_draw_work_object.html" target="_top" xlink:title="State Machine Work Object Class. ">
<polygon fill="none" stroke="black" points="9.854,-507 9.854,-561 120.146,-561 120.146,-507 9.854,-507"/>
<text text-anchor="middle" x="65" y="-549" font-family="Helvetica,sans-Serif" font-size="10.00">api::DrawWorkObject</text>
<polyline fill="none" stroke="black" points="9.854,-543 120.146,-543 "/>
<text text-anchor="middle" x="65" y="-531" font-family="Helvetica,sans-Serif" font-size="10.00"> </text>
<polyline fill="none" stroke="black" points="9.854,-525 120.146,-525 "/>
<text text-anchor="middle" x="65" y="-513" font-family="Helvetica,sans-Serif" font-size="10.00"> </text>
</a>
</g>
</g>
<!-- Node4&#45;&gt;Node3 -->
<g id="edge3" class="edge"><title>Node4&#45;&gt;Node3</title>
<path fill="none" stroke="midnightblue" d="M63.7549,-496.684C63.4657,-488.251 63.1431,-478.84 62.8057,-469.001"/>
<polygon fill="none" stroke="midnightblue" points="60.261,-496.927 64.1017,-506.801 67.2569,-496.687 60.261,-496.927"/>
</g>
<!-- Node5 -->
<g id="node5" class="node"><title>Node5</title>
<g id="a_node5"><a xlink:href="classapi_1_1_work_object.html" target="_top" xlink:title="WorkObject Class. ">
<polygon fill="none" stroke="black" points="10.4521,-599 10.4521,-733 129.548,-733 129.548,-599 10.4521,-599"/>
<text text-anchor="middle" x="70" y="-721" font-family="Helvetica,sans-Serif" font-size="10.00">api::WorkObject</text>
<polyline fill="none" stroke="black" points="10.4521,-715 129.548,-715 "/>
<text text-anchor="middle" x="70" y="-703" font-family="Helvetica,sans-Serif" font-size="10.00"> </text>
<polyline fill="none" stroke="black" points="10.4521,-697 129.548,-697 "/>
<text text-anchor="start" x="18.4521" y="-685" font-family="Helvetica,sans-Serif" font-size="10.00">+ WorkObject()</text>
<text text-anchor="start" x="18.4521" y="-675" font-family="Helvetica,sans-Serif" font-size="10.00">+ clear_error_number()</text>
<text text-anchor="start" x="18.4521" y="-665" font-family="Helvetica,sans-Serif" font-size="10.00">+ error_number()</text>
<text text-anchor="start" x="18.4521" y="-655" font-family="Helvetica,sans-Serif" font-size="10.00">+ exit_fatal()</text>
<text text-anchor="start" x="18.4521" y="-645" font-family="Helvetica,sans-Serif" font-size="10.00"># set_error_number()</text>
<text text-anchor="start" x="18.4521" y="-635" font-family="Helvetica,sans-Serif" font-size="10.00"># set_error_number_if</text>
<text text-anchor="start" x="18.4521" y="-625" font-family="Helvetica,sans-Serif" font-size="10.00">_error()</text>
<text text-anchor="start" x="18.4521" y="-615" font-family="Helvetica,sans-Serif" font-size="10.00"># set_error_number_to</text>
<text text-anchor="start" x="18.4521" y="-605" font-family="Helvetica,sans-Serif" font-size="10.00">_errno()</text>
</a>
</g>
</g>
<!-- Node5&#45;&gt;Node4 -->
<g id="edge4" class="edge"><title>Node5&#45;&gt;Node4</title>
<path fill="none" stroke="midnightblue" d="M67.0707,-588.838C66.6886,-578.903 66.3202,-569.326 66.0029,-561.074"/>
<polygon fill="none" stroke="midnightblue" points="63.5742,-588.999 67.4561,-598.857 70.569,-588.73 63.5742,-588.999"/>
</g>
<!-- Node6 -->
<g id="node6" class="node"><title>Node6</title>
<g id="a_node6"><a xlink:href="classapi_1_1_api_object.html" target="_top" xlink:title="API Object Class. ">
<polygon fill="none" stroke="black" points="88.7896,-771 88.7896,-825 171.21,-825 171.21,-771 88.7896,-771"/>
<text text-anchor="middle" x="130" y="-813" font-family="Helvetica,sans-Serif" font-size="10.00">api::ApiObject</text>
<polyline fill="none" stroke="black" points="88.7896,-807 171.21,-807 "/>
<text text-anchor="middle" x="130" y="-795" font-family="Helvetica,sans-Serif" font-size="10.00"> </text>
<polyline fill="none" stroke="black" points="88.7896,-789 171.21,-789 "/>
<text text-anchor="start" x="96.7896" y="-777" font-family="Helvetica,sans-Serif" font-size="10.00">+ api_version()</text>
</a>
</g>
</g>
<!-- Node6&#45;&gt;Node5 -->
<g id="edge5" class="edge"><title>Node6&#45;&gt;Node5</title>
<path fill="none" stroke="midnightblue" d="M113.613,-761.495C109.528,-752.644 105.016,-742.868 100.489,-733.059"/>
<polygon fill="none" stroke="midnightblue" points="110.49,-763.08 117.858,-770.693 116.845,-760.146 110.49,-763.08"/>
</g>
<!-- Node9 -->
<g id="node9" class="node"><title>Node9</title>
<g id="a_node9"><a xlink:href="classapi_1_1_info_object.html" target="_top" xlink:title="API Information Object. ">
<polygon fill="none" stroke="black" points="149.759,-639 149.759,-693 230.241,-693 230.241,-639 149.759,-639"/>
<text text-anchor="middle" x="190" y="-681" font-family="Helvetica,sans-Serif" font-size="10.00">api::InfoObject</text>
<polyline fill="none" stroke="black" points="149.759,-675 230.241,-675 "/>
<text text-anchor="middle" x="190" y="-663" font-family="Helvetica,sans-Serif" font-size="10.00"> </text>
<polyline fill="none" stroke="black" points="149.759,-657 230.241,-657 "/>
<text text-anchor="middle" x="190" y="-645" font-family="Helvetica,sans-Serif" font-size="10.00"> </text>
</a>
</g>
</g>
<!-- Node6&#45;&gt;Node9 -->
<g id="edge9" class="edge"><title>Node6&#45;&gt;Node9</title>
<path fill="none" stroke="midnightblue" d="M146.373,-761.525C156.323,-739.966 168.813,-712.905 177.876,-693.268"/>
<polygon fill="none" stroke="midnightblue" points="143.155,-760.146 142.142,-770.693 149.51,-763.08 143.155,-760.146"/>
</g>
<!-- Node7 -->
<g id="node7" class="node"><title>Node7</title>
<g id="a_node7"><a xlink:href="classdraw_1_1_progress_attr.html" target="_top" xlink:title="Progress Attribute Class. ">
<polygon fill="none" stroke="black" points="136.726,-300 136.726,-414 255.274,-414 255.274,-300 136.726,-300"/>
<text text-anchor="middle" x="196" y="-402" font-family="Helvetica,sans-Serif" font-size="10.00">draw::ProgressAttr</text>
<polyline fill="none" stroke="black" points="136.726,-396 255.274,-396 "/>
<text text-anchor="middle" x="196" y="-384" font-family="Helvetica,sans-Serif" font-size="10.00"> </text>
<polyline fill="none" stroke="black" points="136.726,-378 255.274,-378 "/>
<text text-anchor="start" x="144.726" y="-366" font-family="Helvetica,sans-Serif" font-size="10.00">+ ProgressAttr()</text>
<text text-anchor="start" x="144.726" y="-356" font-family="Helvetica,sans-Serif" font-size="10.00">+ ProgressAttr()</text>
<text text-anchor="start" x="144.726" y="-346" font-family="Helvetica,sans-Serif" font-size="10.00">+ max()</text>
<text text-anchor="start" x="144.726" y="-336" font-family="Helvetica,sans-Serif" font-size="10.00">+ operator progress_t()</text>
<text text-anchor="start" x="144.726" y="-326" font-family="Helvetica,sans-Serif" font-size="10.00">+ pen()</text>
<text text-anchor="start" x="144.726" y="-316" font-family="Helvetica,sans-Serif" font-size="10.00">+ set_attr()</text>
<text text-anchor="start" x="144.726" y="-306" font-family="Helvetica,sans-Serif" font-size="10.00">and 5 more...</text>
</a>
</g>
</g>
<!-- Node7&#45;&gt;Node2 -->
<g id="edge6" class="edge"><title>Node7&#45;&gt;Node2</title>
<path fill="none" stroke="midnightblue" d="M172.09,-290.16C162.055,-262.528 150.696,-231.25 141.89,-207.001"/>
<polygon fill="none" stroke="midnightblue" points="168.874,-291.56 175.578,-299.765 175.454,-289.171 168.874,-291.56"/>
</g>
<!-- Node8 -->
<g id="node8" class="node"><title>Node8</title>
<g id="a_node8"><a xlink:href="classapi_1_1_draw_info_object.html" target="_top" xlink:title="Draw Information Object. ">
<polygon fill="none" stroke="black" points="141.091,-507 141.091,-561 244.909,-561 244.909,-507 141.091,-507"/>
<text text-anchor="middle" x="193" y="-549" font-family="Helvetica,sans-Serif" font-size="10.00">api::DrawInfoObject</text>
<polyline fill="none" stroke="black" points="141.091,-543 244.909,-543 "/>
<text text-anchor="middle" x="193" y="-531" font-family="Helvetica,sans-Serif" font-size="10.00"> </text>
<polyline fill="none" stroke="black" points="141.091,-525 244.909,-525 "/>
<text text-anchor="middle" x="193" y="-513" font-family="Helvetica,sans-Serif" font-size="10.00"> </text>
</a>
</g>
</g>
<!-- Node8&#45;&gt;Node7 -->
<g id="edge7" class="edge"><title>Node8&#45;&gt;Node7</title>
<path fill="none" stroke="midnightblue" d="M193.621,-496.764C194.03,-472.902 194.574,-441.182 195.038,-414.093"/>
<polygon fill="none" stroke="midnightblue" points="190.121,-496.742 193.449,-506.801 197.12,-496.862 190.121,-496.742"/>
</g>
<!-- Node9&#45;&gt;Node8 -->
<g id="edge8" class="edge"><title>Node9&#45;&gt;Node8</title>
<path fill="none" stroke="midnightblue" d="M190.839,-628.652C191.333,-607.24 191.947,-580.641 192.394,-561.268"/>
<polygon fill="none" stroke="midnightblue" points="187.339,-628.614 190.607,-638.693 194.337,-628.776 187.339,-628.614"/>
</g>
</g>
</svg>
