<?xml version="1.0" encoding="UTF-8" standalone="no"?>
<!DOCTYPE svg PUBLIC "-//W3C//DTD SVG 1.1//EN"
 "http://www.w3.org/Graphics/SVG/1.1/DTD/svg11.dtd">
<!-- Generated by graphviz version 2.36.0 (20140111.2315)
 -->
<!-- Title: sys::Appfs Pages: 1 -->
<svg width="104pt" height="400pt"
 viewBox="0.00 0.00 104.00 400.00" xmlns="http://www.w3.org/2000/svg" xmlns:xlink="http://www.w3.org/1999/xlink">
<g id="graph0" class="graph" transform="scale(1 1) rotate(0) translate(4 396)">
<title>sys::Appfs</title>
<!-- Node1 -->
<g id="node1" class="node"><title>Node1</title>
<polygon fill="#bfbfbf" stroke="black" points="6.51123,-1 6.51123,-115 89.4888,-115 89.4888,-1 6.51123,-1"/>
<text text-anchor="middle" x="48" y="-103" font-family="Helvetica,sans-Serif" font-size="10.00">sys::Appfs</text>
<polyline fill="none" stroke="black" points="6.51123,-97 89.4888,-97 "/>
<text text-anchor="middle" x="48" y="-85" font-family="Helvetica,sans-Serif" font-size="10.00"> </text>
<polyline fill="none" stroke="black" points="6.51123,-79 89.4888,-79 "/>
<text text-anchor="start" x="14.5112" y="-67" font-family="Helvetica,sans-Serif" font-size="10.00">+ cleanup()</text>
<text text-anchor="start" x="14.5112" y="-57" font-family="Helvetica,sans-Serif" font-size="10.00">+ create()</text>
<text text-anchor="start" x="14.5112" y="-47" font-family="Helvetica,sans-Serif" font-size="10.00">+ get_id()</text>
<text text-anchor="start" x="14.5112" y="-37" font-family="Helvetica,sans-Serif" font-size="10.00">+ get_id()</text>
<text text-anchor="start" x="14.5112" y="-27" font-family="Helvetica,sans-Serif" font-size="10.00">+ get_info()</text>
<text text-anchor="start" x="14.5112" y="-17" font-family="Helvetica,sans-Serif" font-size="10.00">+ get_version()</text>
<text text-anchor="start" x="14.5112" y="-7" font-family="Helvetica,sans-Serif" font-size="10.00">+ page_size()</text>
</g>
<!-- Node2 -->
<g id="node2" class="node"><title>Node2</title>
<g id="a_node2"><a xlink:href="classapi_1_1_sys_info_object.html" target="_top" xlink:title="System Info Object. ">
<polygon fill="none" stroke="black" points="-0.576172,-153 -0.576172,-207 96.5762,-207 96.5762,-153 -0.576172,-153"/>
<text text-anchor="middle" x="48" y="-195" font-family="Helvetica,sans-Serif" font-size="10.00">api::SysInfoObject</text>
<polyline fill="none" stroke="black" points="-0.576172,-189 96.5762,-189 "/>
<text text-anchor="middle" x="48" y="-177" font-family="Helvetica,sans-Serif" font-size="10.00"> </text>
<polyline fill="none" stroke="black" points="-0.576172,-171 96.5762,-171 "/>
<text text-anchor="middle" x="48" y="-159" font-family="Helvetica,sans-Serif" font-size="10.00"> </text>
</a>
</g>
</g>
<!-- Node2&#45;&gt;Node1 -->
<g id="edge1" class="edge"><title>Node2&#45;&gt;Node1</title>
<path fill="none" stroke="midnightblue" d="M48,-142.754C48,-134.008 48,-124.458 48,-115.039"/>
<polygon fill="none" stroke="midnightblue" points="44.5001,-142.962 48,-152.962 51.5001,-142.962 44.5001,-142.962"/>
</g>
<!-- Node3 -->
<g id="node3" class="node"><title>Node3</title>
<g id="a_node3"><a xlink:href="classapi_1_1_info_object.html" target="_top" xlink:title="API Information Object. ">
<polygon fill="none" stroke="black" points="7.75879,-245 7.75879,-299 88.2412,-299 88.2412,-245 7.75879,-245"/>
<text text-anchor="middle" x="48" y="-287" font-family="Helvetica,sans-Serif" font-size="10.00">api::InfoObject</text>
<polyline fill="none" stroke="black" points="7.75879,-281 88.2412,-281 "/>
<text text-anchor="middle" x="48" y="-269" font-family="Helvetica,sans-Serif" font-size="10.00"> </text>
<polyline fill="none" stroke="black" points="7.75879,-263 88.2412,-263 "/>
<text text-anchor="middle" x="48" y="-251" font-family="Helvetica,sans-Serif" font-size="10.00"> </text>
</a>
</g>
</g>
<!-- Node3&#45;&gt;Node2 -->
<g id="edge2" class="edge"><title>Node3&#45;&gt;Node2</title>
<path fill="none" stroke="midnightblue" d="M48,-234.865C48,-225.644 48,-215.907 48,-207.285"/>
<polygon fill="none" stroke="midnightblue" points="44.5001,-234.968 48,-244.968 51.5001,-234.968 44.5001,-234.968"/>
</g>
<!-- Node4 -->
<g id="node4" class="node"><title>Node4</title>
<g id="a_node4"><a xlink:href="classapi_1_1_api_object.html" target="_top" xlink:title="API Object Class. ">
<polygon fill="none" stroke="black" points="6.78955,-337 6.78955,-391 89.2104,-391 89.2104,-337 6.78955,-337"/>
<text text-anchor="middle" x="48" y="-379" font-family="Helvetica,sans-Serif" font-size="10.00">api::ApiObject</text>
<polyline fill="none" stroke="black" points="6.78955,-373 89.2104,-373 "/>
<text text-anchor="middle" x="48" y="-361" font-family="Helvetica,sans-Serif" font-size="10.00"> </text>
<polyline fill="none" stroke="black" points="6.78955,-355 89.2104,-355 "/>
<text text-anchor="start" x="14.7896" y="-343" font-family="Helvetica,sans-Serif" font-size="10.00">+ api_version()</text>
</a>
</g>
</g>
<!-- Node4&#45;&gt;Node3 -->
<g id="edge3" class="edge"><title>Node4&#45;&gt;Node3</title>
<path fill="none" stroke="midnightblue" d="M48,-326.865C48,-317.644 48,-307.907 48,-299.285"/>
<polygon fill="none" stroke="midnightblue" points="44.5001,-326.968 48,-336.968 51.5001,-326.968 44.5001,-326.968"/>
</g>
</g>
</svg>
