<?xml version="1.0" encoding="UTF-8" standalone="no"?>
<!DOCTYPE svg PUBLIC "-//W3C//DTD SVG 1.1//EN"
 "http://www.w3.org/Graphics/SVG/1.1/DTD/svg11.dtd">
<!-- Generated by graphviz version 2.36.0 (20140111.2315)
 -->
<!-- Title: sys::Sys Pages: 1 -->
<svg width="150pt" height="762pt"
 viewBox="0.00 0.00 150.00 762.00" xmlns="http://www.w3.org/2000/svg" xmlns:xlink="http://www.w3.org/1999/xlink">
<g id="graph0" class="graph" transform="scale(1 1) rotate(0) translate(4 758)">
<title>sys::Sys</title>
<!-- Node1 -->
<g id="node1" class="node"><title>Node1</title>
<polygon fill="#bfbfbf" stroke="black" points="10.6123,-1 10.6123,-185 131.388,-185 131.388,-1 10.6123,-1"/>
<text text-anchor="middle" x="71" y="-173" font-family="Helvetica,sans-Serif" font-size="10.00">sys::Sys</text>
<polyline fill="none" stroke="black" points="10.6123,-167 131.388,-167 "/>
<text text-anchor="middle" x="71" y="-155" font-family="Helvetica,sans-Serif" font-size="10.00"> </text>
<polyline fill="none" stroke="black" points="10.6123,-149 131.388,-149 "/>
<text text-anchor="start" x="18.6123" y="-137" font-family="Helvetica,sans-Serif" font-size="10.00">+ Sys()</text>
<text text-anchor="start" x="18.6123" y="-127" font-family="Helvetica,sans-Serif" font-size="10.00">+ current_task()</text>
<text text-anchor="start" x="18.6123" y="-117" font-family="Helvetica,sans-Serif" font-size="10.00">+ get_23_info()</text>
<text text-anchor="start" x="18.6123" y="-107" font-family="Helvetica,sans-Serif" font-size="10.00">+ get_26_info()</text>
<text text-anchor="start" x="18.6123" y="-97" font-family="Helvetica,sans-Serif" font-size="10.00">+ get_board_config()</text>
<text text-anchor="start" x="18.6123" y="-87" font-family="Helvetica,sans-Serif" font-size="10.00">+ get_id()</text>
<text text-anchor="start" x="18.6123" y="-77" font-family="Helvetica,sans-Serif" font-size="10.00">and 5 more...</text>
<text text-anchor="start" x="18.6123" y="-67" font-family="Helvetica,sans-Serif" font-size="10.00">+ assign_zero_sum32()</text>
<text text-anchor="start" x="18.6123" y="-57" font-family="Helvetica,sans-Serif" font-size="10.00">+ free_ram()</text>
<text text-anchor="start" x="18.6123" y="-47" font-family="Helvetica,sans-Serif" font-size="10.00">+ get_kernel_version()</text>
<text text-anchor="start" x="18.6123" y="-37" font-family="Helvetica,sans-Serif" font-size="10.00">+ get_version()</text>
<text text-anchor="start" x="18.6123" y="-27" font-family="Helvetica,sans-Serif" font-size="10.00">+ get_version()</text>
<text text-anchor="start" x="18.6123" y="-17" font-family="Helvetica,sans-Serif" font-size="10.00">+ hibernate()</text>
<text text-anchor="start" x="18.6123" y="-7" font-family="Helvetica,sans-Serif" font-size="10.00">and 10 more...</text>
</g>
<!-- Node2 -->
<g id="node2" class="node"><title>Node2</title>
<g id="a_node2"><a xlink:href="classsys_1_1_file.html" target="_top" xlink:title="File Class. ">
<polygon fill="none" stroke="black" points="30.7588,-223 30.7588,-387 111.241,-387 111.241,-223 30.7588,-223"/>
<text text-anchor="middle" x="71" y="-375" font-family="Helvetica,sans-Serif" font-size="10.00">sys::File</text>
<polyline fill="none" stroke="black" points="30.7588,-369 111.241,-369 "/>
<text text-anchor="start" x="38.7588" y="-357" font-family="Helvetica,sans-Serif" font-size="10.00"># m_fd</text>
<polyline fill="none" stroke="black" points="30.7588,-351 111.241,-351 "/>
<text text-anchor="start" x="38.7588" y="-339" font-family="Helvetica,sans-Serif" font-size="10.00">+ File()</text>
<text text-anchor="start" x="38.7588" y="-329" font-family="Helvetica,sans-Serif" font-size="10.00">+ close()</text>
<text text-anchor="start" x="38.7588" y="-319" font-family="Helvetica,sans-Serif" font-size="10.00">+ create()</text>
<text text-anchor="start" x="38.7588" y="-309" font-family="Helvetica,sans-Serif" font-size="10.00">+ fileno()</text>
<text text-anchor="start" x="38.7588" y="-299" font-family="Helvetica,sans-Serif" font-size="10.00">+ flags()</text>
<text text-anchor="start" x="38.7588" y="-289" font-family="Helvetica,sans-Serif" font-size="10.00">+ gets()</text>
<text text-anchor="start" x="38.7588" y="-279" font-family="Helvetica,sans-Serif" font-size="10.00">and 22 more...</text>
<text text-anchor="start" x="38.7588" y="-269" font-family="Helvetica,sans-Serif" font-size="10.00">+ name()</text>
<text text-anchor="start" x="38.7588" y="-259" font-family="Helvetica,sans-Serif" font-size="10.00">+ remove()</text>
<text text-anchor="start" x="38.7588" y="-249" font-family="Helvetica,sans-Serif" font-size="10.00">+ size()</text>
<text text-anchor="start" x="38.7588" y="-239" font-family="Helvetica,sans-Serif" font-size="10.00">+ stat()</text>
<text text-anchor="start" x="38.7588" y="-229" font-family="Helvetica,sans-Serif" font-size="10.00">+ suffix()</text>
</a>
</g>
</g>
<!-- Node2&#45;&gt;Node1 -->
<g id="edge1" class="edge"><title>Node2&#45;&gt;Node1</title>
<path fill="none" stroke="midnightblue" d="M71,-212.589C71,-203.472 71,-194.215 71,-185.101"/>
<polygon fill="none" stroke="midnightblue" points="67.5001,-212.808 71,-222.809 74.5001,-212.809 67.5001,-212.808"/>
</g>
<!-- Node3 -->
<g id="node3" class="node"><title>Node3</title>
<g id="a_node3"><a xlink:href="classapi_1_1_sys_work_object.html" target="_top" xlink:title="System Work Object. ">
<polygon fill="none" stroke="black" points="19.1865,-425 19.1865,-479 122.813,-479 122.813,-425 19.1865,-425"/>
<text text-anchor="middle" x="71" y="-467" font-family="Helvetica,sans-Serif" font-size="10.00">api::SysWorkObject</text>
<polyline fill="none" stroke="black" points="19.1865,-461 122.813,-461 "/>
<text text-anchor="middle" x="71" y="-449" font-family="Helvetica,sans-Serif" font-size="10.00"> </text>
<polyline fill="none" stroke="black" points="19.1865,-443 122.813,-443 "/>
<text text-anchor="middle" x="71" y="-431" font-family="Helvetica,sans-Serif" font-size="10.00"> </text>
</a>
</g>
</g>
<!-- Node3&#45;&gt;Node2 -->
<g id="edge2" class="edge"><title>Node3&#45;&gt;Node2</title>
<path fill="none" stroke="midnightblue" d="M71,-414.498C71,-405.997 71,-396.612 71,-387.024"/>
<polygon fill="none" stroke="midnightblue" points="67.5001,-414.742 71,-424.742 74.5001,-414.742 67.5001,-414.742"/>
</g>
<!-- Node4 -->
<g id="node4" class="node"><title>Node4</title>
<g id="a_node4"><a xlink:href="classapi_1_1_work_object.html" target="_top" xlink:title="Work Object. ">
<polygon fill="none" stroke="black" points="-0.0859375,-517 -0.0859375,-661 142.086,-661 142.086,-517 -0.0859375,-517"/>
<text text-anchor="middle" x="71" y="-649" font-family="Helvetica,sans-Serif" font-size="10.00">api::WorkObject</text>
<polyline fill="none" stroke="black" points="-0.0859375,-643 142.086,-643 "/>
<text text-anchor="middle" x="71" y="-631" font-family="Helvetica,sans-Serif" font-size="10.00"> </text>
<polyline fill="none" stroke="black" points="-0.0859375,-625 142.086,-625 "/>
<text text-anchor="start" x="7.91406" y="-613" font-family="Helvetica,sans-Serif" font-size="10.00">+ WorkObject()</text>
<text text-anchor="start" x="7.91406" y="-603" font-family="Helvetica,sans-Serif" font-size="10.00">+ clear_error_number()</text>
<text text-anchor="start" x="7.91406" y="-593" font-family="Helvetica,sans-Serif" font-size="10.00">+ error_number()</text>
<text text-anchor="start" x="7.91406" y="-583" font-family="Helvetica,sans-Serif" font-size="10.00">+ exit_fatal()</text>
<text text-anchor="start" x="7.91406" y="-573" font-family="Helvetica,sans-Serif" font-size="10.00"># set_error_number()</text>
<text text-anchor="start" x="7.91406" y="-563" font-family="Helvetica,sans-Serif" font-size="10.00"># set_error_number_if</text>
<text text-anchor="start" x="7.91406" y="-553" font-family="Helvetica,sans-Serif" font-size="10.00">_error()</text>
<text text-anchor="start" x="7.91406" y="-543" font-family="Helvetica,sans-Serif" font-size="10.00"># set_error_number_if_null()</text>
<text text-anchor="start" x="7.91406" y="-533" font-family="Helvetica,sans-Serif" font-size="10.00"># set_error_number_to</text>
<text text-anchor="start" x="7.91406" y="-523" font-family="Helvetica,sans-Serif" font-size="10.00">_errno()</text>
</a>
</g>
</g>
<!-- Node4&#45;&gt;Node3 -->
<g id="edge3" class="edge"><title>Node4&#45;&gt;Node3</title>
<path fill="none" stroke="midnightblue" d="M71,-506.911C71,-496.983 71,-487.464 71,-479.262"/>
<polygon fill="none" stroke="midnightblue" points="67.5001,-506.942 71,-516.942 74.5001,-506.942 67.5001,-506.942"/>
</g>
<!-- Node5 -->
<g id="node5" class="node"><title>Node5</title>
<g id="a_node5"><a xlink:href="classapi_1_1_api_object.html" target="_top" xlink:title="Application Programming Interface Object. ">
<polygon fill="none" stroke="black" points="29.7896,-699 29.7896,-753 112.21,-753 112.21,-699 29.7896,-699"/>
<text text-anchor="middle" x="71" y="-741" font-family="Helvetica,sans-Serif" font-size="10.00">api::ApiObject</text>
<polyline fill="none" stroke="black" points="29.7896,-735 112.21,-735 "/>
<text text-anchor="middle" x="71" y="-723" font-family="Helvetica,sans-Serif" font-size="10.00"> </text>
<polyline fill="none" stroke="black" points="29.7896,-717 112.21,-717 "/>
<text text-anchor="start" x="37.7896" y="-705" font-family="Helvetica,sans-Serif" font-size="10.00">+ api_version()</text>
</a>
</g>
</g>
<!-- Node5&#45;&gt;Node4 -->
<g id="edge4" class="edge"><title>Node5&#45;&gt;Node4</title>
<path fill="none" stroke="midnightblue" d="M71,-688.925C71,-680.287 71,-670.765 71,-661.145"/>
<polygon fill="none" stroke="midnightblue" points="67.5001,-688.971 71,-698.971 74.5001,-688.971 67.5001,-688.971"/>
</g>
</g>
</svg>
