<svg xmlns="http://www.w3.org/2000/svg" xmlns:xlink="http://www.w3.org/1999/xlink" xmlns:lucid="lucid" width="1473.58" height="800"><g transform="translate(0 0)" lucid:page-tab-id="YGcM5DNywbTK"><path d="M0 8c0-4.42 3.58-8 8-8h1457.58c4.42 0 8 3.58 8 8v724c0 4.42-3.58 8-8 8H8c-4.42 0-8-3.58-8-8z" stroke="#3d4752" stroke-width="4" fill="#fff" filter="url(#a)"/><g filter="url(#b)"><path d="M26.8 304.8c0-4.43 3.57-8 8-8h204c4.4 0 8 3.57 8 8v144c0 4.4-3.6 8-8 8h-204c-4.43 0-8-3.6-8-8z" stroke="#3d4752" stroke-width="4" fill="#fff"/><use xlink:href="#c" transform="matrix(1,0,0,1,41.79245283018895,311.79245283018867) translate(12.185185185185176 35.133333333333326)"/><use xlink:href="#d" transform="matrix(1,0,0,1,41.79245283018895,311.79245283018867) translate(12.888888888888886 70.33333333333333)"/><use xlink:href="#e" transform="matrix(1,0,0,1,41.79245283018895,311.79245283018867) translate(40.25925925925925 105.53333333333333)"/><use xlink:href="#f" transform="matrix(1,0,0,1,41.79245283018895,311.79245283018867) translate(96.48148148148148 105.53333333333333)"/></g><g filter="url(#g)"><path d="M403.4 305c0-4.42 3.58-8 8-8h204c4.4 0 8 3.58 8 8v144c0 4.42-3.6 8-8 8h-204c-4.42 0-8-3.58-8-8z" stroke="#3d4752" stroke-width="4" fill="#fff"/><use xlink:href="#h" transform="matrix(1,0,0,1,418.3962264150945,312) translate(53.592592592592595 70.33333333333334)"/></g><g filter="url(#g)"><path d="M780 305c0-4.42 3.58-8 8-8h204c4.42 0 8 3.58 8 8v144c0 4.42-3.58 8-8 8H788c-4.42 0-8-3.58-8-8z" stroke="#3d4752" stroke-width="4" fill="#fff"/><use xlink:href="#i" transform="matrix(1,0,0,1,795,312) translate(27.66666666666667 70.33333333333334)"/></g><g filter="url(#j)"><path d="M1160 304.58c0-4.4 3.58-8 8-8h204c4.42 0 8 3.6 8 8V449c0 4.42-3.58 8-8 8h-204c-4.42 0-8-3.58-8-8z" stroke="#3d4752" stroke-width="4" fill="#fff"/><use xlink:href="#k" transform="matrix(1,0,0,1,1175,311.58490566037733) translate(10.666666666666657 70.83333333333334)"/></g><path d="M528.25 578.6l.6 1.4-.6 1.4-1.4.6-1.43-.6-.58-1.4.58-1.4 1.42-.6zm16.14 0l.58 1.4-.6 1.4-1.4.6-1.42-.6-.58-1.4.58-1.4 1.42-.6zm16.13 0l.6 1.4-.6 1.4-1.4.6-1.43-.6-.58-1.4.58-1.4 1.42-.6zm16.14 0l.6 1.4-.6 1.4-1.4.6-1.43-.6-.58-1.4.58-1.4 1.42-.6zm16.14 0l.6 1.4-.6 1.4-1.4.6-1.42-.6-.6-1.4.6-1.4 1.4-.6zm16.15 0l.58 1.4-.58 1.4-1.42.6-1.4-.6-.6-1.4.6-1.4 1.4-.6zm16.14 0l.57 1.4-.58 1.4-1.43.6-1.4-.6-.6-1.4.6-1.4 1.4-.6zm16.12 0l.6 1.4-.6 1.4-1.4.6-1.42-.6-.6-1.4.6-1.4 1.4-.6zm112.98 0l.58 1.4-.58 1.4-1.42.6-1.4-.6-.6-1.4.6-1.4 1.4-.6zm16.13 0l.6 1.4-.6 1.4-1.4.6-1.42-.6-.58-1.4.6-1.4 1.4-.6zm16.14 0l.6 1.4-.6 1.4-1.4.6-1.43-.6-.58-1.4.58-1.4 1.42-.6zm16.14 0l.6 1.4-.6 1.4-1.4.6-1.42-.6-.58-1.4.58-1.4 1.42-.6zm16.15 0l.6 1.4-.6 1.4-1.4.6-1.43-.6-.58-1.4.58-1.4 1.42-.6zm16.14 0l.57 1.4-.58 1.4-1.43.6-1.4-.6-.6-1.4.6-1.4 1.4-.6zm16.13 0l.58 1.4-.57 1.4-1.42.6-1.4-.6-.6-1.4.6-1.4 1.4-.6zm16.14 0l.58 1.4-.58 1.4-1.42.6-1.4-.6-.6-1.4.6-1.4 1.4-.6zm16.13 0l.6 1.4-.6 1.4-1.4.6-1.42-.6-.6-1.4.6-1.4 1.4-.6zm-368.5-2.7l.6 1.4-.6 1.42-1.4.58-1.42-.58-.58-1.42.58-1.4 1.42-.6zm376.6-5.34l.6 1.4-.6 1.43-1.4.57-1.4-.58-.6-1.43.6-1.4 1.4-.6zm-376.6-10.8l.6 1.4-.6 1.42-1.4.6-1.42-.6-.58-1.4.58-1.43 1.42-.58zm376.6-5.34l.6 1.4-.6 1.43-1.4.58-1.4-.58-.6-1.42.6-1.4 1.4-.6zm-376.6-10.8l.6 1.4-.6 1.42-1.4.6-1.42-.6-.58-1.4.58-1.43 1.42-.57zm376.6-5.34l.6 1.4-.6 1.43-1.4.6-1.4-.6-.6-1.4.6-1.42 1.4-.6zm-376.6-10.8l.6 1.4-.6 1.42-1.4.6-1.42-.6-.58-1.4.58-1.43 1.42-.58zm376.6-5.34l.6 1.4-.6 1.43-1.4.58-1.4-.58-.6-1.42.6-1.4 1.4-.6zm-376.6-10.8l.6 1.4-.6 1.42-1.4.6-1.42-.6-.58-1.4.58-1.42 1.42-.6zM891.4 506l.6 1.42-.6 1.4-1.4.6-1.4-.6-.6-1.4.6-1.42 1.4-.58zm-376.6-10.8l.6 1.4-.6 1.42-1.4.6-1.42-.6-.58-1.4.58-1.42 1.42-.6zm376.6-5.34l.6 1.42-.6 1.4-1.4.6-1.4-.6-.6-1.4.6-1.42 1.4-.58zm-376.6-10.8l.6 1.4-.6 1.43-1.4.57-1.42-.58-.58-1.43.58-1.4 1.42-.6zm376.6-5.34l.6 1.42-.6 1.4-1.4.6-1.4-.6-.6-1.4.6-1.42 1.4-.58zm0-16.13l.6 1.4-.6 1.4-1.4.6-1.4-.6-.6-1.4.6-1.4 1.4-.6z" fill="#494949"/><path d="M892 459h-4v-2h4zM518.03 479.74h-9.27l4.64-14.27z" fill="#494949"/><path d="M520.78 481.74H506l7.4-22.74zm-9.27-4h3.78l-1.88-5.8z" fill="#494949"/><use xlink:href="#l" transform="matrix(1,0,0,1,653.6240391334732,564) translate(0.005000000000002558 21.333333333333336)"/><path d="M891.4 293.6l.6 1.4-.6 1.4-1.4.6-1.4-.6-.6-1.4.6-1.4 1.4-.6zm0-15.9l.6 1.4-.6 1.42-1.4.58-1.4-.58-.6-1.42.6-1.4 1.4-.6zm-753.2-5.8l.6 1.42-.6 1.4-1.4.6-1.42-.6-.6-1.4.6-1.4 1.4-.6zm753.2-10.1l.6 1.4-.6 1.42-1.4.6-1.4-.6-.6-1.4.6-1.43 1.4-.6zM138.2 256l.6 1.42-.6 1.42-1.4.58-1.42-.58-.6-1.42.6-1.4 1.4-.6zm753.2-10.1l.6 1.4-.6 1.42-1.4.6-1.4-.6-.6-1.4.6-1.43 1.4-.6zm-753.2-5.8l.6 1.43-.6 1.4-1.4.6-1.42-.6-.6-1.4.6-1.42 1.4-.57zM891.4 230l.6 1.4-.6 1.43-1.4.58-1.4-.57-.6-1.42.6-1.4 1.4-.6zm-753.2-5.8l.6 1.43-.6 1.4-1.4.6-1.42-.6-.6-1.4.6-1.42 1.4-.57zm753.2-10.1l.6 1.4-.6 1.43-1.4.58-1.4-.57-.6-1.42.6-1.4 1.4-.6zm-753.2-5.78l.6 1.4-.6 1.43-1.4.58-1.42-.58-.6-1.42.6-1.4 1.4-.6zm753.2-10.12l.6 1.42-.6 1.4-1.4.6-1.4-.6-.6-1.4.6-1.42 1.4-.58zm-753.2-5.78l.6 1.4-.6 1.43-1.4.58-1.42-.58-.6-1.42.6-1.4 1.4-.6zm753.2-10.12l.6 1.42-.6 1.4-1.4.6-1.4-.6-.6-1.4.6-1.42 1.4-.58zm-753.2-5.78l.6 1.42-.6 1.4-1.4.6-1.42-.6-.6-1.4.6-1.42 1.4-.58zm753.2-10.1l.6 1.4-.6 1.42-1.4.58-1.4-.58-.6-1.42.6-1.4 1.4-.6zm-753.2-5.8l.6 1.42-.6 1.4-1.4.6-1.42-.6-.6-1.4.6-1.4 1.4-.6zm13.86-2.03l.6 1.4-.6 1.4-1.4.6-1.42-.6-.6-1.4.6-1.4 1.4-.6zm15.9 0l.6 1.4-.6 1.4-1.4.6-1.43-.6-.58-1.4.58-1.4 1.42-.6zm15.9 0l.58 1.4-.58 1.4-1.42.6-1.4-.6-.6-1.4.6-1.4 1.4-.6zm15.9 0l.58 1.4-.58 1.4-1.42.6-1.4-.6-.6-1.4.6-1.4 1.4-.6zm15.9 0l.58 1.4-.6 1.4-1.4.6-1.4-.6-.6-1.4.6-1.4 1.4-.6zm15.9 0l.58 1.4-.6 1.4-1.4.6-1.42-.6-.58-1.4.58-1.4 1.42-.6zm14.65-.53v3.86l-.17.07-1.4-.6-.6-1.4.6-1.4 1.4-.6zm112.53.52l.58 1.4-.57 1.4-1.42.6-1.4-.6-.6-1.4.6-1.4 1.4-.6zm15.9 0l.58 1.4-.57 1.4-1.42.6-1.4-.6-.6-1.4.6-1.4 1.4-.6zm15.9 0l.58 1.4-.58 1.4-1.4.6-1.42-.6-.6-1.4.6-1.4 1.4-.6zm15.9 0l.58 1.4-.58 1.4-1.4.6-1.43-.6-.6-1.4.6-1.4 1.4-.6zm15.9 0l.57 1.4-.58 1.4-1.42.6-1.4-.6-.6-1.4.6-1.4 1.4-.6zm15.9 0l.57 1.4-.58 1.4-1.42.6-1.4-.6-.6-1.4.6-1.4 1.4-.6zm15.88 0l.6 1.4-.6 1.4-1.4.6-1.42-.6-.58-1.4.58-1.4 1.42-.6zm15.9 0l.6 1.4-.6 1.4-1.4.6-1.42-.6-.58-1.4.58-1.4 1.42-.6zm15.9 0l.6 1.4-.6 1.4-1.4.6-1.42-.6-.6-1.4.6-1.4 1.4-.6zm15.9 0l.6 1.4-.6 1.4-1.4.6-1.42-.6-.6-1.4.6-1.4 1.4-.6zm15.9 0l.6 1.4-.6 1.4-1.4.6-1.43-.6-.58-1.4.57-1.4 1.42-.6zm15.9 0l.58 1.4-.58 1.4-1.42.6-1.4-.6-.6-1.4.6-1.4 1.4-.6zm15.9 0l.58 1.4-.58 1.4-1.42.6-1.4-.6-.6-1.4.6-1.4 1.4-.6zm15.9 0l.58 1.4-.6 1.4-1.4.6-1.4-.6-.6-1.4.6-1.4 1.4-.6zm15.9 0l.58 1.4-.6 1.4-1.4.6-1.42-.6-.58-1.4.58-1.4 1.42-.6zm15.9 0l.57 1.4-.58 1.4-1.43.6-1.4-.6-.6-1.4.6-1.4 1.4-.6zm15.9 0l.57 1.4-.58 1.4-1.43.6-1.4-.6-.6-1.4.6-1.4 1.4-.6zm15.88 0l.6 1.4-.6 1.4-1.4.6-1.43-.6-.58-1.4.58-1.4 1.42-.6zm15.9 0l.6 1.4-.6 1.4-1.4.6-1.43-.6-.58-1.4.58-1.4 1.42-.6zm15.9 0l.58 1.4-.58 1.4-1.42.6-1.4-.6-.6-1.4.6-1.4 1.4-.6zm15.9 0l.58 1.4-.6 1.4-1.4.6-1.4-.6-.6-1.4.6-1.4 1.4-.6zm15.9 0l.58 1.4-.6 1.4-1.4.6-1.42-.6-.58-1.4.58-1.4 1.42-.6zm15.9 0l.57 1.4-.58 1.4-1.42.6-1.4-.6-.6-1.4.6-1.4 1.4-.6zm15.9 0l.57 1.4-.58 1.4-1.42.6-1.4-.6-.6-1.4.6-1.4 1.4-.6zm15.88 0l.6 1.4-.6 1.4-1.4.6-1.43-.6-.58-1.4.58-1.4 1.42-.6zm15.9 0l.6 1.4-.6 1.4-1.4.6-1.43-.6-.58-1.4.58-1.4 1.42-.6zm15.9 0l.58 1.4-.58 1.4-1.42.6-1.4-.6-.6-1.4.6-1.4 1.4-.6zm15.9 0l.58 1.4-.58 1.4-1.42.6-1.4-.6-.6-1.4.6-1.4 1.4-.6zm15.9 0l.58 1.4-.6 1.4-1.4.6-1.42-.6-.58-1.4.58-1.4 1.42-.6zm15.9 0l.58 1.4-.6 1.4-1.4.6-1.42-.6-.58-1.4.58-1.4 1.42-.6zm15.9 0l.57 1.4-.58 1.4-1.42.6-1.4-.6-.6-1.4.6-1.4 1.4-.6zm15.88 0l.6 1.4-.6 1.4-1.4.6-1.42-.6-.6-1.4.6-1.4 1.4-.6zm15.9 0l.6 1.4-.6 1.4-1.4.6-1.43-.6-.57-1.4.58-1.4 1.43-.6zm15.9 0l.58 1.4-.58 1.4-1.42.6-1.4-.6-.6-1.4.6-1.4 1.4-.6zm-540.5 0l.58 1.4-.6 1.4-.46.2v-3.2z" fill="#494949"/><path d="M892 297h-4v-2h4zM136.8 288.32l-4.64-14.27h9.27z" fill="#494949"/><path d="M136.8 294.8l-7.4-22.75h14.78zm-1.9-18.75l1.9 5.8 1.87-5.8z" fill="#494949"/><use xlink:href="#l" transform="matrix(1,0,0,1,246.21164021164037,144) translate(0.005000000000002558 21.333333333333336)"/><path d="M1271.4 293.17l.6 1.4-.6 1.43-1.4.58-1.4-.58-.6-1.42.6-1.4 1.4-.6zm0-15.87l.6 1.4-.6 1.43-1.4.58-1.4-.57-.6-1.42.6-1.4 1.4-.6zm-756.6-5.2l.6 1.43-.6 1.4-1.4.6-1.42-.6-.58-1.4.58-1.42 1.42-.57zm756.6-10.67l.6 1.4-.6 1.42-1.4.6-1.4-.6-.6-1.4.6-1.42 1.4-.6zm-756.6-5.2l.6 1.43-.6 1.4-1.4.6-1.42-.6-.58-1.4.58-1.42 1.42-.58zm756.6-10.68l.6 1.42-.6 1.4-1.4.6-1.4-.6-.6-1.4.6-1.42 1.4-.58zm-756.6-5.18l.6 1.4-.6 1.43-1.4.58-1.42-.58-.58-1.42.58-1.4 1.42-.6zm756.6-10.7l.6 1.43-.6 1.4-1.4.6-1.4-.6-.6-1.4.6-1.42 1.4-.58zm-756.6-5.17l.6 1.4-.6 1.43-1.4.58-1.42-.57-.58-1.42.58-1.4 1.42-.6zm756.6-10.7l.6 1.42-.6 1.42-1.4.58-1.4-.58-.6-1.42.6-1.4 1.4-.6zm-756.6-5.18l.6 1.42-.6 1.4-1.4.6-1.42-.6-.58-1.4.58-1.42 1.42-.58zm15.84-.03l.6 1.4-.6 1.4-1.4.6-1.42-.6-.6-1.4.6-1.4 1.4-.6zm15.88 0l.58 1.4-.58 1.4-1.42.6-1.4-.6-.6-1.4.6-1.4 1.4-.6zm15.87 0l.57 1.4-.58 1.4-1.43.6-1.4-.6-.6-1.4.6-1.4 1.4-.6zm15.86 0l.6 1.4-.6 1.4-1.4.6-1.43-.6-.58-1.4.58-1.4 1.42-.6zm15.87 0l.6 1.4-.6 1.4-1.4.6-1.43-.6-.58-1.4.58-1.4 1.42-.6zm15.87 0l.6 1.4-.6 1.4-1.4.6-1.42-.6-.6-1.4.6-1.4 1.4-.6zm15.88 0l.58 1.4-.58 1.4-1.42.6-1.4-.6-.6-1.4.6-1.4 1.4-.6zm15.87 0l.58 1.4-.58 1.4-1.42.6-1.4-.6-.6-1.4.6-1.4 1.4-.6zm15.87 0l.6 1.4-.6 1.4-1.4.6-1.43-.6-.6-1.4.6-1.4 1.4-.6zm15.87 0l.58 1.4-.6 1.4-1.4.6-1.4-.6-.6-1.4.6-1.4 1.4-.6zm15.87 0l.58 1.4-.58 1.4-1.42.6-1.4-.6-.6-1.4.6-1.4 1.4-.6zm15.87 0l.58 1.4-.58 1.4-1.42.6-1.4-.6-.6-1.4.6-1.4 1.4-.6zm15.87 0l.6 1.4-.6 1.4-1.4.6-1.42-.6-.58-1.4.58-1.4 1.42-.6zm15.88 0l.6 1.4-.6 1.4-1.4.6-1.43-.6-.58-1.4.58-1.4 1.42-.6zm15.87 0l.6 1.4-.6 1.4-1.4.6-1.42-.6-.6-1.4.6-1.4 1.4-.6zm15.88 0l.58 1.4-.57 1.4-1.42.6-1.4-.6-.6-1.4.6-1.4 1.4-.6zm111.1 0l.6 1.4-.6 1.4-1.4.6-1.43-.6-.44-1.06v-.68l.44-1.07 1.42-.6zm15.87 0l.6 1.4-.6 1.4-1.4.6-1.42-.6-.6-1.4.6-1.4 1.4-.6zm15.88 0l.58 1.4-.58 1.4-1.42.6-1.4-.6-.6-1.4.6-1.4 1.4-.6zm15.87 0l.58 1.4-.58 1.4-1.42.6-1.4-.6-.6-1.4.6-1.4 1.4-.6zm15.87 0l.6 1.4-.6 1.4-1.4.6-1.43-.6-.6-1.4.6-1.4 1.4-.6zm15.87 0l.58 1.4-.6 1.4-1.4.6-1.4-.6-.6-1.4.6-1.4 1.4-.6zm15.87 0l.58 1.4-.58 1.4-1.42.6-1.4-.6-.6-1.4.6-1.4 1.4-.6zm15.87 0l.58 1.4-.58 1.4-1.42.6-1.4-.6-.6-1.4.6-1.4 1.4-.6zm15.87 0l.6 1.4-.6 1.4-1.4.6-1.42-.6-.58-1.4.58-1.4 1.42-.6zm15.88 0l.6 1.4-.6 1.4-1.4.6-1.43-.6-.58-1.4.58-1.4 1.42-.6zm15.87 0l.6 1.4-.6 1.4-1.4.6-1.42-.6-.6-1.4.6-1.4 1.4-.6zm15.88 0l.58 1.4-.57 1.4-1.42.6-1.4-.6-.6-1.4.6-1.4 1.4-.6zm15.87 0l.58 1.4-.58 1.4-1.42.6-1.4-.6-.6-1.4.6-1.4 1.4-.6zm15.87 0l.6 1.4-.6 1.4-1.4.6-1.43-.6-.58-1.4.58-1.4 1.42-.6zm15.87 0l.6 1.4-.6 1.4-1.4.6-1.42-.6-.6-1.4.6-1.4 1.4-.6zm15.88 0l.58 1.4-.58 1.4-1.42.6-1.4-.6-.6-1.4.6-1.4 1.4-.6zm15.87 0l.57 1.4-.58 1.4-1.43.6-1.4-.6-.6-1.4.6-1.4 1.4-.6zm15.86 0l.6 1.4-.6 1.4-1.4.6-1.43-.6-.58-1.4.58-1.4 1.42-.6zm15.87 0l.6 1.4-.6 1.4-1.4.6-1.43-.6-.58-1.4.58-1.4 1.42-.6zm15.87 0l.6 1.4-.6 1.4-1.4.6-1.42-.6-.6-1.4.6-1.4 1.4-.6zm15.88 0l.58 1.4-.58 1.4-1.42.6-1.4-.6-.6-1.4.6-1.4 1.4-.6zm15.87 0l.58 1.4-.58 1.4-1.42.6-1.4-.6-.6-1.4.6-1.4 1.4-.6zm15.87 0l.6 1.4-.6 1.4-1.4.6-1.43-.6-.6-1.4.6-1.4 1.4-.6zm15.87 0l.58 1.4-.6 1.4-1.4.6-1.4-.6-.6-1.4.6-1.4 1.4-.6zm15.87 0l.58 1.4-.58 1.4-1.42.6-1.4-.6-.6-1.4.6-1.4 1.4-.6z" fill="#494949"/><path d="M1272 296.58h-4v-2h4zM513.4 288.53l-4.64-14.27h9.27z" fill="#494949"/><path d="M513.4 295l-7.4-22.74h14.78zm-1.9-18.74l1.9 5.8 1.88-5.8z" fill="#494949"/><use xlink:href="#l" transform="matrix(1,0,0,1,780.410459361942,194) translate(0.005000000000002558 21.333333333333336)"/><g filter="url(#m)"><path d="M26.8 26.8H1447V104H26.8z" stroke="#000" stroke-opacity="0" stroke-width="4" fill="#fff" fill-opacity="0"/><use xlink:href="#n" transform="matrix(1,0,0,1,31.792452830188722,31.792452830188683) translate(448.4288958770091 45.16352201257862)"/><use xlink:href="#o" transform="matrix(1,0,0,1,31.792452830188722,31.792452830188683) translate(761.1625611460518 45.16352201257862)"/></g><path d="M625.4 377h131.13" stroke="#494949" stroke-width="4" fill="none"/><path d="M625.4 379h-2v-4h2zM771.53 377l-14.27 4.64v-9.28z" fill="#494949"/><path d="M778 377l-22.74 7.4v-14.8zm-18.74 1.88l5.8-1.88-5.8-1.88z" fill="#494949"/><path d="M1002 377h78v-.2h56.53" stroke="#494949" stroke-width="4" fill="none"/><path d="M1002 379h-2v-4h2zM1151.53 376.8l-14.27 4.63v-9.27z" fill="#494949"/><path d="M1158 376.8l-22.74 7.38V369.4zm-18.74 1.87l5.8-1.88-5.8-1.9z" fill="#494949"/><path d="M248.8 376.8h76.3v.2h54.82" stroke="#494949" stroke-width="4" fill="none"/><path d="M248.8 378.8h-2v-4h2zM394.92 377l-14.26 4.64v-9.28z" fill="#494949"/><path d="M401.4 377l-22.74 7.4v-14.8zm-18.74 1.88l5.8-1.88-5.8-1.88zM140.2 668.6l.6 1.4-.6 1.4-1.4.6-1.4-.6-.6-1.4.6-1.4 1.4-.6zm16 0l.58 1.4-.6 1.4-1.4.6-1.42-.6-.58-1.4.58-1.4 1.42-.6zm15.97 0l.6 1.4-.6 1.4-1.4.6-1.43-.6-.58-1.4.58-1.4 1.42-.6zm15.98 0l.6 1.4-.6 1.4-1.4.6-1.43-.6-.58-1.4.58-1.4 1.42-.6zm15.98 0l.58 1.4-.57 1.4-1.42.6-1.4-.6-.6-1.4.6-1.4 1.4-.6zm15.98 0l.6 1.4-.6 1.4-1.4.6-1.42-.6-.6-1.4.6-1.4 1.4-.6zm16 0l.57 1.4-.58 1.4-1.43.6-1.4-.6-.6-1.4.6-1.4 1.4-.6zm15.96 0l.6 1.4-.6 1.4-1.4.6-1.42-.6-.6-1.4.6-1.4 1.4-.6zm15.98 0l.6 1.4-.6 1.4-1.4.6-1.43-.6-.57-1.4.58-1.4 1.43-.6zm15.98 0l.6 1.4-.6 1.4-1.4.6-1.43-.6-.6-1.4.6-1.4 1.4-.6zm15.98 0l.6 1.4-.6 1.4-1.4.6-1.43-.6-.58-1.4.57-1.4 1.42-.6zm15.98 0l.58 1.4-.58 1.4-1.42.6-1.4-.6-.6-1.4.6-1.4 1.4-.6zm15.98 0l.58 1.4-.58 1.4-1.42.6-1.4-.6-.6-1.4.6-1.4 1.4-.6zm15.98 0l.58 1.4-.58 1.4-1.42.6-1.4-.6-.6-1.4.6-1.4 1.4-.6zm15.97 0l.6 1.4-.6 1.4-1.4.6-1.4-.6-.6-1.4.6-1.4 1.4-.6zm16 0l.58 1.4-.6 1.4-1.4.6-1.42-.6-.58-1.4.58-1.4 1.42-.6zm15.97 0l.6 1.4-.6 1.4-1.4.6-1.43-.6-.58-1.4.58-1.4 1.42-.6zm15.98 0l.6 1.4-.6 1.4-1.4.6-1.43-.6-.58-1.4.58-1.4 1.42-.6zm15.98 0l.58 1.4-.57 1.4-1.42.6-1.4-.6-.6-1.4.6-1.4 1.4-.6zm15.98 0l.6 1.4-.6 1.4-1.4.6-1.42-.6-.6-1.4.6-1.4 1.4-.6zm16 0l.57 1.4-.58 1.4-1.43.6-1.4-.6-.6-1.4.6-1.4 1.4-.6zm15.96 0l.6 1.4-.6 1.4-1.4.6-1.42-.6-.6-1.4.6-1.4 1.4-.6zm15.98 0l.6 1.4-.6 1.4-1.4.6-1.43-.6-.57-1.4.58-1.4 1.43-.6zm15.98 0l.6 1.4-.6 1.4-1.4.6-1.43-.6-.6-1.4.6-1.4 1.4-.6zm15.98 0l.6 1.4-.6 1.4-1.4.6-1.43-.6-.58-1.4.57-1.4 1.42-.6zm15.98 0l.58 1.4-.58 1.4-1.42.6-1.4-.6-.6-1.4.6-1.4 1.4-.6zm15.98 0l.58 1.4-.58 1.4-1.42.6-1.4-.6-.6-1.4.6-1.4 1.4-.6zm15.98 0l.58 1.4-.58 1.4-1.42.6-1.4-.6-.6-1.4.6-1.4 1.4-.6zm15.97 0l.6 1.4-.6 1.4-1.4.6-1.4-.6-.6-1.4.6-1.4 1.4-.6zm16 0l.58 1.4-.6 1.4-1.4.6-1.42-.6-.58-1.4.58-1.4 1.42-.6zm15.97 0l.6 1.4-.6 1.4-1.4.6-1.43-.6-.58-1.4.58-1.4 1.42-.6zm15.98 0l.6 1.4-.6 1.4-1.4.6-1.43-.6-.58-1.4.58-1.4 1.42-.6zm15.98 0l.58 1.4-.57 1.4-1.42.6-1.4-.6-.6-1.4.6-1.4 1.4-.6zm111.85 0l.58 1.4-.58 1.4-1.42.6-1.4-.6-.6-1.4.6-1.4 1.4-.6zm15.98 0l.58 1.4-.58 1.4-1.42.6-1.4-.6-.6-1.4.6-1.4 1.4-.6zm15.98 0l.58 1.4-.58 1.4-1.42.6-1.4-.6-.6-1.4.6-1.4 1.4-.6zm15.97 0l.6 1.4-.6 1.4-1.4.6-1.4-.6-.6-1.4.6-1.4 1.4-.6zm16 0l.58 1.4-.6 1.4-1.4.6-1.42-.6-.58-1.4.58-1.4 1.42-.6zm15.97 0l.6 1.4-.6 1.4-1.4.6-1.43-.6-.58-1.4.58-1.4 1.42-.6zm15.98 0l.6 1.4-.6 1.4-1.4.6-1.43-.6-.58-1.4.58-1.4 1.42-.6zm15.98 0l.58 1.4-.57 1.4-1.42.6-1.4-.6-.6-1.4.6-1.4 1.4-.6zm15.98 0l.6 1.4-.6 1.4-1.4.6-1.42-.6-.6-1.4.6-1.4 1.4-.6zm16 0l.57 1.4-.58 1.4-1.43.6-1.4-.6-.6-1.4.6-1.4 1.4-.6zm15.96 0l.6 1.4-.6 1.4-1.4.6-1.42-.6-.6-1.4.6-1.4 1.4-.6zm15.98 0l.6 1.4-.6 1.4-1.4.6-1.43-.6-.57-1.4.58-1.4 1.43-.6zm15.98 0l.6 1.4-.6 1.4-1.4.6-1.43-.6-.6-1.4.6-1.4 1.4-.6zm15.98 0l.6 1.4-.6 1.4-1.4.6-1.43-.6-.58-1.4.57-1.4 1.42-.6zm15.98 0l.58 1.4-.58 1.4-1.42.6-1.4-.6-.6-1.4.6-1.4 1.4-.6zm15.98 0l.58 1.4-.58 1.4-1.42.6-1.4-.6-.6-1.4.6-1.4 1.4-.6zm15.98 0l.58 1.4-.58 1.4-1.42.6-1.4-.6-.6-1.4.6-1.4 1.4-.6zm15.97 0l.6 1.4-.6 1.4-1.4.6-1.4-.6-.6-1.4.6-1.4 1.4-.6zm16 0l.58 1.4-.6 1.4-1.4.6-1.42-.6-.58-1.4.58-1.4 1.42-.6zm15.97 0l.6 1.4-.6 1.4-1.4.6-1.43-.6-.58-1.4.58-1.4 1.42-.6zm15.98 0l.6 1.4-.6 1.4-1.4.6-1.43-.6-.58-1.4.58-1.4 1.42-.6zm15.98 0l.58 1.4-.57 1.4-1.42.6-1.4-.6-.6-1.4.6-1.4 1.4-.6zm15.98 0l.6 1.4-.6 1.4-1.4.6-1.42-.6-.6-1.4.6-1.4 1.4-.6zm16 0l.57 1.4-.58 1.4-1.43.6-1.4-.6-.6-1.4.6-1.4 1.4-.6zm15.96 0l.6 1.4-.6 1.4-1.4.6-1.42-.6-.6-1.4.6-1.4 1.4-.6zm15.98 0l.6 1.4-.6 1.4-1.4.6-1.43-.6-.57-1.4.58-1.4 1.43-.6zm15.98 0l.6 1.4-.6 1.4-1.4.6-1.43-.6-.6-1.4.6-1.4 1.4-.6zm15.98 0l.6 1.4-.6 1.4-1.4.6-1.43-.6-.58-1.4.57-1.4 1.42-.6zm15.98 0l.58 1.4-.58 1.4-1.42.6-1.4-.6-.6-1.4.6-1.4 1.4-.6zm15.98 0l.58 1.4-.58 1.4-1.42.6-1.4-.6-.6-1.4.6-1.4 1.4-.6zm15.98 0l.58 1.4-.58 1.4-1.42.6-1.4-.6-.6-1.4.6-1.4 1.4-.6zm15.97 0l.6 1.4-.6 1.4-1.4.6-1.4-.6-.6-1.4.6-1.4 1.4-.6zm12.7-3.3l.6 1.42-.6 1.42-1.4.58-1.4-.58-.6-1.42.6-1.4 1.4-.6zM138.2 654.6l.6 1.43-.6 1.4-1.4.6-1.42-.6-.6-1.4.6-1.42 1.4-.57zm1133.2-5.27l.6 1.4-.6 1.43-1.4.58-1.4-.58-.6-1.42.6-1.4 1.4-.6zm-1133.2-10.7l.6 1.42-.6 1.4-1.4.6-1.42-.6-.6-1.4.6-1.4 1.4-.6zm1133.2-5.28l.6 1.4-.6 1.43-1.4.58-1.4-.58-.6-1.42.6-1.4 1.4-.6zm-1133.2-10.7l.6 1.42-.6 1.42-1.4.57-1.42-.58-.6-1.43.6-1.4 1.4-.6zm1133.2-5.28l.6 1.42-.6 1.4-1.4.6-1.4-.6-.6-1.4.6-1.43 1.4-.58zm-1133.2-10.7l.6 1.42-.6 1.4-1.4.6-1.42-.6-.6-1.4.6-1.42 1.4-.6zm1133.2-5.28l.6 1.4-.6 1.42-1.4.6-1.4-.6-.6-1.4.6-1.43 1.4-.6zM138.2 590.7l.6 1.4-.6 1.43-1.4.58-1.42-.57-.6-1.42.6-1.4 1.4-.6zm1133.2-5.3l.6 1.43-.6 1.4-1.4.6-1.4-.6-.6-1.4.6-1.42 1.4-.57zM138.2 574.73l.6 1.42-.6 1.4-1.4.6-1.42-.6-.6-1.4.6-1.42 1.4-.58zm1133.2-5.28l.6 1.4-.6 1.42-1.4.6-1.4-.6-.6-1.4.6-1.42 1.4-.6zm-1133.2-10.7l.6 1.42-.6 1.4-1.4.6-1.42-.6-.6-1.4.6-1.42 1.4-.58zm1133.2-5.28l.6 1.4-.6 1.43-1.4.57-1.4-.58-.6-1.43.6-1.4 1.4-.6zm-1133.2-10.7l.6 1.42-.6 1.4-1.4.6-1.42-.6-.6-1.4.6-1.42 1.4-.58zm1133.2-5.28l.6 1.4-.6 1.43-1.4.6-1.4-.6-.6-1.4.6-1.42 1.4-.6zm-1133.2-10.7l.6 1.42-.6 1.4-1.4.6-1.42-.6-.6-1.4.6-1.4 1.4-.6zm1133.2-5.28l.6 1.4-.6 1.43-1.4.58-1.4-.57-.6-1.42.6-1.4 1.4-.6zM138.2 510.8l.6 1.42-.6 1.42-1.4.58-1.42-.58-.6-1.42.6-1.4 1.4-.6zm1133.2-5.28l.6 1.42-.6 1.4-1.4.6-1.4-.6-.6-1.4.6-1.42 1.4-.58zm-1133.2-10.7l.6 1.42-.6 1.42-1.4.58-1.42-.58-.6-1.42.6-1.4 1.4-.6zm1133.2-5.28l.6 1.42-.6 1.4-1.4.6-1.4-.6-.6-1.4.6-1.42 1.4-.58zm0-15.98l.6 1.42-.6 1.4-1.4.6-1.4-.6-.6-1.4.6-1.42 1.4-.58zm0-15.97l.6 1.4-.6 1.4-1.4.6-1.4-.6-.6-1.4.6-1.4 1.4-.6z" fill="#494949"/><path d="M1272 459h-4v-2h4zM141.43 479.53h-9.27l4.63-14.27z" fill="#494949"/><path d="M144.18 481.53H129.4l7.4-22.74zm-9.27-4h3.77l-1.88-5.8z" fill="#494949"/><use xlink:href="#l" transform="matrix(1,0,0,1,655.2183789259261,654) translate(0.005000000000002558 21.333333333333336)"/><defs><filter id="a" filterUnits="objectBoundingBox" x="-.01" y="-.01" width="1.01" height="1.03"><feOffset result="offOut" in="SourceAlpha" dy="6"/><feGaussianBlur result="blurOut" in="offOut" stdDeviation="5"/><feColorMatrix result="colorOut" in="blurOut" values="0 0 0 0 0 0 0 0 0 0 0 0 0 0 0 0 0 0 0.16862745098039217 0"/><feBlend in="SourceGraphic" in2="colorOut"/></filter><path fill="#3d4752" d="M233-177c-1 41-23 64-60 70L243 0h-38l-65-103H63V0H30v-248c88 3 205-21 203 71zM63-129c60-2 137 13 137-47 0-61-80-42-137-45v92" id="p"/><path fill="#3d4752" d="M100-194c63 0 86 42 84 106H49c0 40 14 67 53 68 26 1 43-12 49-29l28 8c-11 28-37 45-77 45C44 4 14-33 15-96c1-61 26-98 85-98zm52 81c6-60-76-77-97-28-3 7-6 17-6 28h103" id="q"/><path fill="#3d4752" d="M145-31C134-9 116 4 85 4 32 4 16-35 15-94c0-59 17-99 70-100 32-1 48 14 60 33 0-11-1-24 2-32h30l-1 268h-32zM93-21c41 0 51-33 51-76s-8-73-50-73c-40 0-46 35-46 75s5 74 45 74" id="r"/><path fill="#3d4752" d="M84 4C-5 8 30-112 23-190h32v120c0 31 7 50 39 49 72-2 45-101 50-169h31l1 190h-30c-1-10 1-25-2-33-11 22-28 36-60 37" id="s"/><path fill="#3d4752" d="M24-231v-30h32v30H24zM24 0v-190h32V0H24" id="t"/><path fill="#3d4752" d="M114-163C36-179 61-72 57 0H25l-1-190h30c1 12-1 29 2 39 6-27 23-49 58-41v29" id="u"/><path fill="#3d4752" d="M210-169c-67 3-38 105-44 169h-31v-121c0-29-5-50-35-48C34-165 62-65 56 0H25l-1-190h30c1 10-1 24 2 32 10-44 99-50 107 0 11-21 27-35 58-36 85-2 47 119 55 194h-31v-121c0-29-5-49-35-48" id="v"/><path fill="#3d4752" d="M117-194c89-4 53 116 60 194h-32v-121c0-31-8-49-39-48C34-167 62-67 57 0H25l-1-190h30c1 10-1 24 2 32 11-22 29-35 61-36" id="w"/><path fill="#3d4752" d="M59-47c-2 24 18 29 38 22v24C64 9 27 4 27-40v-127H5v-23h24l9-43h21v43h35v23H59v120" id="x"/><path fill="#3d4752" d="M135-143c-3-34-86-38-87 0 15 53 115 12 119 90S17 21 10-45l28-5c4 36 97 45 98 0-10-56-113-15-118-90-4-57 82-63 122-42 12 7 21 19 24 35" id="y"/><g id="c"><use transform="matrix(0.07407407407407408,0,0,0.07407407407407408,0,0)" xlink:href="#p"/><use transform="matrix(0.07407407407407408,0,0,0.07407407407407408,19.185185185185187,0)" xlink:href="#q"/><use transform="matrix(0.07407407407407408,0,0,0.07407407407407408,34,0)" xlink:href="#r"/><use transform="matrix(0.07407407407407408,0,0,0.07407407407407408,48.81481481481481,0)" xlink:href="#s"/><use transform="matrix(0.07407407407407408,0,0,0.07407407407407408,63.629629629629626,0)" xlink:href="#t"/><use transform="matrix(0.07407407407407408,0,0,0.07407407407407408,69.48148148148148,0)" xlink:href="#u"/><use transform="matrix(0.07407407407407408,0,0,0.07407407407407408,78.2962962962963,0)" xlink:href="#q"/><use transform="matrix(0.07407407407407408,0,0,0.07407407407407408,93.1111111111111,0)" xlink:href="#v"/><use transform="matrix(0.07407407407407408,0,0,0.07407407407407408,115.25925925925928,0)" xlink:href="#q"/><use transform="matrix(0.07407407407407408,0,0,0.07407407407407408,130.07407407407408,0)" xlink:href="#w"/><use transform="matrix(0.07407407407407408,0,0,0.07407407407407408,144.88888888888889,0)" xlink:href="#x"/><use transform="matrix(0.07407407407407408,0,0,0.07407407407407408,152.2962962962963,0)" xlink:href="#y"/></g><path fill="#3d4752" d="M185-189c-5-48-123-54-124 2 14 75 158 14 163 119 3 78-121 87-175 55-17-10-28-26-33-46l33-7c5 56 141 63 141-1 0-78-155-14-162-118-5-82 145-84 179-34 5 7 8 16 11 25" id="z"/><path fill="#3d4752" d="M115-194c55 1 70 41 70 98S169 2 115 4C84 4 66-9 55-30l1 105H24l-1-265h31l2 30c10-21 28-34 59-34zm-8 174c40 0 45-34 45-75s-6-73-45-74c-42 0-51 32-51 76 0 43 10 73 51 73" id="A"/><path fill="#3d4752" d="M96-169c-40 0-48 33-48 73s9 75 48 75c24 0 41-14 43-38l32 2c-6 37-31 61-74 61-59 0-76-41-82-99-10-93 101-131 147-64 4 7 5 14 7 22l-32 3c-4-21-16-35-41-35" id="B"/><path fill="#3d4752" d="M101-234c-31-9-42 10-38 44h38v23H63V0H32v-167H5v-23h27c-7-52 17-82 69-68v24" id="C"/><path fill="#3d4752" d="M141-36C126-15 110 5 73 4 37 3 15-17 15-53c-1-64 63-63 125-63 3-35-9-54-41-54-24 1-41 7-42 31l-33-3c5-37 33-52 76-52 45 0 72 20 72 64v82c-1 20 7 32 28 27v20c-31 9-61-2-59-35zM48-53c0 20 12 33 32 33 41-3 63-29 60-74-43 2-92-5-92 41" id="D"/><path fill="#3d4752" d="M100-194c62-1 85 37 85 99 1 63-27 99-86 99S16-35 15-95c0-66 28-99 85-99zM99-20c44 1 53-31 53-75 0-43-8-75-51-75s-53 32-53 75 10 74 51 75" id="E"/><g id="d"><use transform="matrix(0.07407407407407408,0,0,0.07407407407407408,0,0)" xlink:href="#z"/><use transform="matrix(0.07407407407407408,0,0,0.07407407407407408,17.77777777777778,0)" xlink:href="#A"/><use transform="matrix(0.07407407407407408,0,0,0.07407407407407408,32.592592592592595,0)" xlink:href="#q"/><use transform="matrix(0.07407407407407408,0,0,0.07407407407407408,47.40740740740741,0)" xlink:href="#B"/><use transform="matrix(0.07407407407407408,0,0,0.07407407407407408,60.74074074074075,0)" xlink:href="#t"/><use transform="matrix(0.07407407407407408,0,0,0.07407407407407408,66.5925925925926,0)" xlink:href="#C"/><use transform="matrix(0.07407407407407408,0,0,0.07407407407407408,74,0)" xlink:href="#t"/><use transform="matrix(0.07407407407407408,0,0,0.07407407407407408,79.85185185185185,0)" xlink:href="#B"/><use transform="matrix(0.07407407407407408,0,0,0.07407407407407408,93.18518518518519,0)" xlink:href="#D"/><use transform="matrix(0.07407407407407408,0,0,0.07407407407407408,108,0)" xlink:href="#x"/><use transform="matrix(0.07407407407407408,0,0,0.07407407407407408,115.4074074074074,0)" xlink:href="#t"/><use transform="matrix(0.07407407407407408,0,0,0.07407407407407408,121.25925925925925,0)" xlink:href="#E"/><use transform="matrix(0.07407407407407408,0,0,0.07407407407407408,136.07407407407408,0)" xlink:href="#w"/><use transform="matrix(0.07407407407407408,0,0,0.07407407407407408,150.88888888888889,0)" xlink:href="#y"/></g><path fill="#3d4752" d="M127-220V0H93v-220H8v-28h204v28h-85" id="F"/><g id="e"><use transform="matrix(0.07407407407407408,0,0,0.07407407407407408,0,0)" xlink:href="#F"/><use transform="matrix(0.07407407407407408,0,0,0.07407407407407408,13.259259259259261,0)" xlink:href="#q"/><use transform="matrix(0.07407407407407408,0,0,0.07407407407407408,28.074074074074076,0)" xlink:href="#y"/><use transform="matrix(0.07407407407407408,0,0,0.07407407407407408,41.40740740740741,0)" xlink:href="#x"/></g><path fill="#3d4752" d="M30-248c87 1 191-15 191 75 0 78-77 80-158 76V0H30v-248zm33 125c57 0 124 11 124-50 0-59-68-47-124-48v98" id="G"/><path fill="#3d4752" d="M24 0v-261h32V0H24" id="H"/><g id="f"><use transform="matrix(0.07407407407407408,0,0,0.07407407407407408,0,0)" xlink:href="#G"/><use transform="matrix(0.07407407407407408,0,0,0.07407407407407408,17.77777777777778,0)" xlink:href="#H"/><use transform="matrix(0.07407407407407408,0,0,0.07407407407407408,23.629629629629633,0)" xlink:href="#D"/><use transform="matrix(0.07407407407407408,0,0,0.07407407407407408,38.44444444444445,0)" xlink:href="#w"/></g><filter id="b" filterUnits="objectBoundingBox" x="-.05" y="-.03" width="1.09" height="1.12"><feOffset result="offOut" in="SourceAlpha" dy="6"/><feGaussianBlur result="blurOut" in="offOut" stdDeviation="5"/><feColorMatrix result="colorOut" in="blurOut" values="0 0 0 0 0 0 0 0 0 0 0 0 0 0 0 0 0 0 0.16862745098039217 0"/><feBlend in="SourceGraphic" in2="colorOut"/></filter><path fill="#3d4752" d="M30-248c118-7 216 8 213 122C240-48 200 0 122 0H30v-248zM63-27c89 8 146-16 146-99s-60-101-146-95v194" id="I"/><path fill="#3d4752" d="M177-190C167-65 218 103 67 71c-23-6-38-20-44-43l32-5c15 47 100 32 89-28v-30C133-14 115 1 83 1 29 1 15-40 15-95c0-56 16-97 71-98 29-1 48 16 59 35 1-10 0-23 2-32h30zM94-22c36 0 50-32 50-73 0-42-14-75-50-75-39 0-46 34-46 75s6 73 46 73" id="J"/><g id="h"><use transform="matrix(0.07407407407407408,0,0,0.07407407407407408,0,0)" xlink:href="#I"/><use transform="matrix(0.07407407407407408,0,0,0.07407407407407408,19.185185185185187,0)" xlink:href="#q"/><use transform="matrix(0.07407407407407408,0,0,0.07407407407407408,34,0)" xlink:href="#y"/><use transform="matrix(0.07407407407407408,0,0,0.07407407407407408,47.33333333333334,0)" xlink:href="#t"/><use transform="matrix(0.07407407407407408,0,0,0.07407407407407408,53.18518518518519,0)" xlink:href="#J"/><use transform="matrix(0.07407407407407408,0,0,0.07407407407407408,68,0)" xlink:href="#w"/></g><filter id="g" filterUnits="objectBoundingBox" x="-.05" y="-.03" width="1.09" height="1.13"><feOffset result="offOut" in="SourceAlpha" dy="6"/><feGaussianBlur result="blurOut" in="offOut" stdDeviation="5"/><feColorMatrix result="colorOut" in="blurOut" values="0 0 0 0 0 0 0 0 0 0 0 0 0 0 0 0 0 0 0.16862745098039217 0"/><feBlend in="SourceGraphic" in2="colorOut"/></filter><path fill="#3d4752" d="M179-190L93 31C79 59 56 82 12 73V49c39 6 53-20 64-50L1-190h34L92-34l54-156h33" id="K"/><g id="i"><use transform="matrix(0.07407407407407408,0,0,0.07407407407407408,0,0)" xlink:href="#G"/><use transform="matrix(0.07407407407407408,0,0,0.07407407407407408,17.77777777777778,0)" xlink:href="#u"/><use transform="matrix(0.07407407407407408,0,0,0.07407407407407408,26.592592592592595,0)" xlink:href="#E"/><use transform="matrix(0.07407407407407408,0,0,0.07407407407407408,41.40740740740741,0)" xlink:href="#x"/><use transform="matrix(0.07407407407407408,0,0,0.07407407407407408,48.814814814814824,0)" xlink:href="#E"/><use transform="matrix(0.07407407407407408,0,0,0.07407407407407408,63.62962962962964,0)" xlink:href="#x"/><use transform="matrix(0.07407407407407408,0,0,0.07407407407407408,71.03703703703705,0)" xlink:href="#K"/><use transform="matrix(0.07407407407407408,0,0,0.07407407407407408,84.37037037037038,0)" xlink:href="#A"/><use transform="matrix(0.07407407407407408,0,0,0.07407407407407408,99.1851851851852,0)" xlink:href="#t"/><use transform="matrix(0.07407407407407408,0,0,0.07407407407407408,105.03703703703704,0)" xlink:href="#w"/><use transform="matrix(0.07407407407407408,0,0,0.07407407407407408,119.85185185185185,0)" xlink:href="#J"/></g><path fill="#3d4752" d="M240 0l2-218c-23 76-54 145-80 218h-23L58-218 59 0H30v-248h44l77 211c21-75 51-140 76-211h43V0h-30" id="L"/><g id="k"><use transform="matrix(0.07407407407407408,0,0,0.07407407407407408,0,0)" xlink:href="#L"/><use transform="matrix(0.07407407407407408,0,0,0.07407407407407408,22.148148148148152,0)" xlink:href="#D"/><use transform="matrix(0.07407407407407408,0,0,0.07407407407407408,36.96296296296297,0)" xlink:href="#w"/><use transform="matrix(0.07407407407407408,0,0,0.07407407407407408,51.777777777777786,0)" xlink:href="#s"/><use transform="matrix(0.07407407407407408,0,0,0.07407407407407408,66.59259259259261,0)" xlink:href="#C"/><use transform="matrix(0.07407407407407408,0,0,0.07407407407407408,74.00000000000001,0)" xlink:href="#D"/><use transform="matrix(0.07407407407407408,0,0,0.07407407407407408,88.81481481481484,0)" xlink:href="#B"/><use transform="matrix(0.07407407407407408,0,0,0.07407407407407408,102.14814814814818,0)" xlink:href="#x"/><use transform="matrix(0.07407407407407408,0,0,0.07407407407407408,109.55555555555559,0)" xlink:href="#s"/><use transform="matrix(0.07407407407407408,0,0,0.07407407407407408,124.37037037037041,0)" xlink:href="#u"/><use transform="matrix(0.07407407407407408,0,0,0.07407407407407408,133.18518518518522,0)" xlink:href="#t"/><use transform="matrix(0.07407407407407408,0,0,0.07407407407407408,139.03703703703707,0)" xlink:href="#w"/><use transform="matrix(0.07407407407407408,0,0,0.07407407407407408,153.85185185185188,0)" xlink:href="#J"/></g><filter id="j" filterUnits="objectBoundingBox" x="-.05" y="-.02" width="1.09" height="1.12"><feOffset result="offOut" in="SourceAlpha" dy="6"/><feGaussianBlur result="blurOut" in="offOut" stdDeviation="5"/><feColorMatrix result="colorOut" in="blurOut" values="0 0 0 0 0 0 0 0 0 0 0 0 0 0 0 0 0 0 0.16862745098039217 0"/><feBlend in="SourceGraphic" in2="colorOut"/></filter><path fill="#3d4752" d="M33 0v-248h34V0H33" id="M"/><g id="l"><use transform="matrix(0.07407407407407408,0,0,0.07407407407407408,0,0)" xlink:href="#M"/><use transform="matrix(0.07407407407407408,0,0,0.07407407407407408,7.407407407407408,0)" xlink:href="#x"/><use transform="matrix(0.07407407407407408,0,0,0.07407407407407408,14.814814814814817,0)" xlink:href="#q"/><use transform="matrix(0.07407407407407408,0,0,0.07407407407407408,29.629629629629633,0)" xlink:href="#u"/><use transform="matrix(0.07407407407407408,0,0,0.07407407407407408,38.44444444444445,0)" xlink:href="#D"/><use transform="matrix(0.07407407407407408,0,0,0.07407407407407408,53.25925925925927,0)" xlink:href="#x"/><use transform="matrix(0.07407407407407408,0,0,0.07407407407407408,60.66666666666667,0)" xlink:href="#t"/><use transform="matrix(0.07407407407407408,0,0,0.07407407407407408,66.51851851851852,0)" xlink:href="#E"/><use transform="matrix(0.07407407407407408,0,0,0.07407407407407408,81.33333333333334,0)" xlink:href="#w"/></g><path fill="#3d4752" d="M30 0v-248h187v28H63v79h144v27H63v87h162V0H30" id="N"/><g id="n"><use transform="matrix(0.15504891684136968,0,0,0.15504891684136968,0,0)" xlink:href="#N"/><use transform="matrix(0.15504891684136968,0,0,0.15504891684136968,37.21174004192872,0)" xlink:href="#w"/><use transform="matrix(0.15504891684136968,0,0,0.15504891684136968,68.22152341020265,0)" xlink:href="#J"/><use transform="matrix(0.15504891684136968,0,0,0.15504891684136968,99.23130677847658,0)" xlink:href="#t"/><use transform="matrix(0.15504891684136968,0,0,0.15504891684136968,111.48017120894478,0)" xlink:href="#w"/><use transform="matrix(0.15504891684136968,0,0,0.15504891684136968,142.48995457721873,0)" xlink:href="#q"/><use transform="matrix(0.15504891684136968,0,0,0.15504891684136968,173.49973794549268,0)" xlink:href="#q"/><use transform="matrix(0.15504891684136968,0,0,0.15504891684136968,204.50952131376656,0)" xlink:href="#u"/><use transform="matrix(0.15504891684136968,0,0,0.15504891684136968,222.96034241788956,0)" xlink:href="#t"/><use transform="matrix(0.15504891684136968,0,0,0.15504891684136968,235.20920684835775,0)" xlink:href="#w"/><use transform="matrix(0.15504891684136968,0,0,0.15504891684136968,266.2189902166317,0)" xlink:href="#J"/></g><g id="o"><use transform="matrix(0.15504891684136968,0,0,0.15504891684136968,0,0)" xlink:href="#G"/><use transform="matrix(0.15504891684136968,0,0,0.15504891684136968,37.21174004192872,0)" xlink:href="#u"/><use transform="matrix(0.15504891684136968,0,0,0.15504891684136968,55.662561146051715,0)" xlink:href="#E"/><use transform="matrix(0.15504891684136968,0,0,0.15504891684136968,86.67234451432564,0)" xlink:href="#B"/><use transform="matrix(0.15504891684136968,0,0,0.15504891684136968,114.5811495457722,0)" xlink:href="#q"/><use transform="matrix(0.15504891684136968,0,0,0.15504891684136968,145.59093291404614,0)" xlink:href="#y"/><use transform="matrix(0.15504891684136968,0,0,0.15504891684136968,173.49973794549268,0)" xlink:href="#y"/></g><filter id="m" filterUnits="objectBoundingBox" x="-.01" y="-.05" width="1.01" height="1.26"><feOffset result="offOut" in="SourceAlpha" dy="6"/><feGaussianBlur result="blurOut" in="offOut" stdDeviation="5"/><feColorMatrix result="colorOut" in="blurOut" values="0 0 0 0 0 0 0 0 0 0 0 0 0 0 0 0 0 0 0.16862745098039217 0"/><feBlend in="SourceGraphic" in2="colorOut"/></filter></defs></g></svg>
