<svg xmlns="http://www.w3.org/2000/svg" xmlns:xlink="http://www.w3.org/1999/xlink" xmlns:lucid="lucid" width="1224.53" height="946.23"><g transform="translate(0 0)" lucid:page-tab-id="0_0"><path d="M0 0h1224.53v946.23H0z" fill="#fff"/><path d="M442.26 329.26c0-5.52 4.48-10 10-10h260c5.53 0 10 4.48 10 10v208c0 5.53-4.47 10-10 10h-260c-5.52 0-10-4.47-10-10z" stroke="#000" stroke-width="2" fill="#fff"/><use xlink:href="#a" transform="matrix(1,0,0,1,447.2641509433962,324.2641509433962) translate(18.18518518518519 87.66666666666667)"/><use xlink:href="#b" transform="matrix(1,0,0,1,447.2641509433962,324.2641509433962) translate(74.48148148148147 151.66666666666669)"/><path d="M922.26 328.26c0-5.52 4.48-10 10-10h260c5.53 0 10 4.48 10 10v209c0 5.53-4.47 10-10 10h-260c-5.52 0-10-4.47-10-10z" stroke="#000" stroke-width="2" fill="#fff"/><use xlink:href="#c" transform="matrix(1,0,0,1,927.2641509433961,323.2641509433962) translate(37.29629629629629 88.16666666666667)"/><use xlink:href="#d" transform="matrix(1,0,0,1,927.2641509433961,323.2641509433962) translate(158.77777777777777 88.16666666666667)"/><use xlink:href="#e" transform="matrix(1,0,0,1,927.2641509433961,323.2641509433962) translate(77.37037037037037 152.16666666666669)"/><path d="M442.26 652.26c0-5.52 4.48-10 10-10h260c5.53 0 10 4.48 10 10v182c0 5.53-4.47 10-10 10h-260c-5.52 0-10-4.47-10-10z" stroke="#000" stroke-width="2" fill="#fff"/><use xlink:href="#f" transform="matrix(1,0,0,1,447.2641509433962,647.2641509433962) translate(9.296296296296276 43.16666666666666)"/><use xlink:href="#g" transform="matrix(1,0,0,1,447.2641509433962,647.2641509433962) translate(83.37037037037035 43.16666666666666)"/><use xlink:href="#h" transform="matrix(1,0,0,1,447.2641509433962,647.2641509433962) translate(175.07407407407408 43.16666666666666)"/><use xlink:href="#i" transform="matrix(1,0,0,1,447.2641509433962,647.2641509433962) translate(0.48148148148149517 107.16666666666666)"/><use xlink:href="#j" transform="matrix(1,0,0,1,447.2641509433962,647.2641509433962) translate(47.74074074074073 171.16666666666669)"/><path d="M442.26 32.26c0-5.52 4.48-10 10-10h260c5.53 0 10 4.48 10 10v182c0 5.53-4.47 10-10 10h-260c-5.52 0-10-4.47-10-10z" stroke="#000" stroke-width="2" fill="#fff"/><use xlink:href="#k" transform="matrix(1,0,0,1,447.2641509433962,27.26415094339623) translate(9.444444444444429 75.16666666666667)"/><use xlink:href="#l" transform="matrix(1,0,0,1,447.2641509433962,27.26415094339623) translate(133.59259259259258 75.16666666666667)"/><use xlink:href="#m" transform="matrix(1,0,0,1,447.2641509433962,27.26415094339623) translate(0.2592592592592382 139.16666666666669)"/><use xlink:href="#n" transform="matrix(1,0,0,1,447.2641509433962,27.26415094339623) translate(166.18518518518516 139.16666666666669)"/><path d="M744.74 433.26H899.8" stroke="#000" stroke-width="4" fill="none"/><path d="M744 437.9l-14.26-4.64 14.26-4.63z"/><path d="M746 440.65l-22.74-7.4L746 425.9zm-9.8-7.4l5.8 1.9v-3.77zM914.8 433.26l-14.27 4.64v-9.27z"/><path d="M921.26 433.26l-22.73 7.4v-14.78zm-18.73 1.9l5.8-1.9-5.8-1.88z"/><path d="M582.26 569.74v50.05" stroke="#000" stroke-width="4" fill="none"/><path d="M586.9 569h-9.27l4.63-14.26z"/><path d="M589.65 571h-14.77l7.38-22.74zm-9.27-4h3.77l-1.9-5.8zM582.26 634.8l-4.63-14.27h9.27z"/><path d="M582.26 641.26l-7.38-22.73h14.77zm-1.88-18.73l1.88 5.8 1.9-5.8z"/><path d="M582.26 318.26v-71.52" stroke="#000" stroke-width="4" fill="none"/><path d="M584.26 319.26h-4v-1h4zM586.9 246h-9.27l4.63-14.26z"/><path d="M589.65 248h-14.77l7.38-22.74zm-9.27-4h3.77l-1.9-5.8z"/><path d="M22.26 342.26c0-5.52 4.48-10 10-10h260c5.53 0 10 4.48 10 10v182c0 5.53-4.47 10-10 10h-260c-5.52 0-10-4.47-10-10z" stroke="#000" stroke-width="2" fill="#fff"/><g><use xlink:href="#o" transform="matrix(1,0,0,1,27.264150943396203,337.2641509433962) translate(80.33333333333333 43.16666666666666)"/><use xlink:href="#p" transform="matrix(1,0,0,1,27.264150943396203,337.2641509433962) translate(57.96296296296296 107.16666666666666)"/><use xlink:href="#q" transform="matrix(1,0,0,1,27.264150943396203,337.2641509433962) translate(80.25925925925927 171.16666666666669)"/></g><path d="M324.74 433.26h95.05" stroke="#000" stroke-width="4" fill="none"/><path d="M324 437.9l-14.26-4.64 14.26-4.63z"/><path d="M326 440.65l-22.74-7.4L326 425.9zm-9.8-7.4l5.8 1.9v-3.77zM434.8 433.26l-14.27 4.64v-9.27z"/><path d="M441.26 433.26l-22.73 7.4v-14.78zm-18.73 1.9l5.8-1.9-5.8-1.88z"/><defs><path d="M185-189c-5-48-123-54-124 2 14 75 158 14 163 119 3 78-121 87-175 55-17-10-28-26-33-46l33-7c5 56 141 63 141-1 0-78-155-14-162-118-5-82 145-84 179-34 5 7 8 16 11 25" id="r"/><path d="M127-220V0H93v-220H8v-28h204v28h-85" id="s"/><path d="M240 0l2-218c-23 76-54 145-80 218h-23L58-218 59 0H30v-248h44l77 211c21-75 51-140 76-211h43V0h-30" id="t"/><path d="M126-127c33 6 58 20 58 59 0 88-139 92-164 29-3-8-5-16-6-25l32-3c6 27 21 44 54 44 32 0 52-15 52-46 0-38-36-46-79-43v-28c39 1 72-4 72-42 0-27-17-43-46-43-28 0-47 15-49 41l-32-3c6-42 35-63 81-64 48-1 79 21 79 65 0 36-21 52-52 59" id="u"/><path d="M101-251c82-7 93 87 43 132L82-64C71-53 59-42 53-27h129V0H18c2-99 128-94 128-182 0-28-16-43-45-43s-46 15-49 41l-32-3c6-41 34-60 81-64" id="v"/><path d="M63-220v92h138v28H63V0H30v-248h175v28H63" id="w"/><path d="M64 0c3-98 48-159 88-221H18v-27h164v26C143-157 98-101 97 0H64" id="x"/><g id="a"><use transform="matrix(0.14814814814814817,0,0,0.14814814814814817,0,0)" xlink:href="#r"/><use transform="matrix(0.14814814814814817,0,0,0.14814814814814817,35.55555555555556,0)" xlink:href="#s"/><use transform="matrix(0.14814814814814817,0,0,0.14814814814814817,68,0)" xlink:href="#t"/><use transform="matrix(0.14814814814814817,0,0,0.14814814814814817,112.2962962962963,0)" xlink:href="#u"/><use transform="matrix(0.14814814814814817,0,0,0.14814814814814817,141.92592592592592,0)" xlink:href="#v"/><use transform="matrix(0.14814814814814817,0,0,0.14814814814814817,171.55555555555554,0)" xlink:href="#w"/><use transform="matrix(0.14814814814814817,0,0,0.14814814814814817,204,0)" xlink:href="#x"/></g><path d="M212-179c-10-28-35-45-73-45-59 0-87 40-87 99 0 60 29 101 89 101 43 0 62-24 78-52l27 14C228-24 195 4 139 4 59 4 22-46 18-125c-6-104 99-153 187-111 19 9 31 26 39 46" id="y"/><path d="M232-93c-1 65-40 97-104 97C67 4 28-28 28-90v-158h33c8 89-33 224 67 224 102 0 64-133 71-224h33v155" id="z"/><g id="b"><use transform="matrix(0.14814814814814817,0,0,0.14814814814814817,0,0)" xlink:href="#t"/><use transform="matrix(0.14814814814814817,0,0,0.14814814814814817,44.296296296296305,0)" xlink:href="#y"/><use transform="matrix(0.14814814814814817,0,0,0.14814814814814817,82.66666666666667,0)" xlink:href="#z"/></g><path d="M155-56V0h-30v-56H8v-25l114-167h33v167h35v25h-35zm-30-156c-27 46-58 90-88 131h88v-131" id="A"/><path d="M143 4C61 4 22-44 18-125c-5-107 100-154 193-111 17 8 29 25 37 43l-32 9c-13-25-37-40-76-40-61 0-88 39-88 99 0 61 29 100 91 101 35 0 62-11 79-27v-45h-74v-28h105v86C228-13 192 4 143 4" id="B"/><path d="M160-131c35 5 61 23 61 61C221 17 115-2 30 0v-248c76 3 177-17 177 60 0 33-19 50-47 57zm-97-11c50-1 110 9 110-42 0-47-63-36-110-37v79zm0 115c55-2 124 14 124-45 0-56-70-42-124-44v89" id="C"/><g id="c"><use transform="matrix(0.14814814814814817,0,0,0.14814814814814817,0,0)" xlink:href="#A"/><use transform="matrix(0.14814814814814817,0,0,0.14814814814814817,29.629629629629633,0)" xlink:href="#B"/><use transform="matrix(0.14814814814814817,0,0,0.14814814814814817,71.11111111111111,0)" xlink:href="#C"/></g><path d="M30-248c118-7 216 8 213 122C240-48 200 0 122 0H30v-248zM63-27c89 8 146-16 146-99s-60-101-146-95v194" id="D"/><g id="d"><use transform="matrix(0.14814814814814817,0,0,0.14814814814814817,0,0)" xlink:href="#r"/><use transform="matrix(0.14814814814814817,0,0,0.14814814814814817,35.55555555555556,0)" xlink:href="#D"/></g><path d="M141-36C126-15 110 5 73 4 37 3 15-17 15-53c-1-64 63-63 125-63 3-35-9-54-41-54-24 1-41 7-42 31l-33-3c5-37 33-52 76-52 45 0 72 20 72 64v82c-1 20 7 32 28 27v20c-31 9-61-2-59-35zM48-53c0 20 12 33 32 33 41-3 63-29 60-74-43 2-92-5-92 41" id="E"/><path d="M114-163C36-179 61-72 57 0H25l-1-190h30c1 12-1 29 2 39 6-27 23-49 58-41v29" id="F"/><path d="M85-194c31 0 48 13 60 33l-1-100h32l1 261h-30c-2-10 0-23-3-31C134-8 116 4 85 4 32 4 16-35 15-94c0-66 23-100 70-100zm9 24c-40 0-46 34-46 75 0 40 6 74 45 74 42 0 51-32 51-76 0-42-9-74-50-73" id="G"/><g id="e"><use transform="matrix(0.14814814814814817,0,0,0.14814814814814817,0,0)" xlink:href="#y"/><use transform="matrix(0.14814814814814817,0,0,0.14814814814814817,38.370370370370374,0)" xlink:href="#E"/><use transform="matrix(0.14814814814814817,0,0,0.14814814814814817,68,0)" xlink:href="#F"/><use transform="matrix(0.14814814814814817,0,0,0.14814814814814817,85.62962962962965,0)" xlink:href="#G"/></g><path d="M101-251c68 0 85 55 85 127S166 4 100 4C33 4 14-52 14-124c0-73 17-127 87-127zm-1 229c47 0 54-49 54-102s-4-102-53-102c-51 0-55 48-55 102 0 53 5 102 54 102" id="H"/><g id="f"><use transform="matrix(0.14814814814814817,0,0,0.14814814814814817,0,0)" xlink:href="#A"/><use transform="matrix(0.14814814814814817,0,0,0.14814814814814817,29.629629629629633,0)" xlink:href="#H"/></g><path d="M30-248c87 1 191-15 191 75 0 78-77 80-158 76V0H30v-248zm33 125c57 0 124 11 124-50 0-59-68-47-124-48v98" id="I"/><path d="M24-231v-30h32v30H24zM24 0v-190h32V0H24" id="J"/><path d="M117-194c89-4 53 116 60 194h-32v-121c0-31-8-49-39-48C34-167 62-67 57 0H25l-1-190h30c1 10-1 24 2 32 11-22 29-35 61-36" id="K"/><g id="g"><use transform="matrix(0.14814814814814817,0,0,0.14814814814814817,0,0)" xlink:href="#I"/><use transform="matrix(0.14814814814814817,0,0,0.14814814814814817,35.55555555555556,0)" xlink:href="#J"/><use transform="matrix(0.14814814814814817,0,0,0.14814814814814817,47.25925925925927,0)" xlink:href="#K"/></g><path d="M233-177c-1 41-23 64-60 70L243 0h-38l-65-103H63V0H30v-248c88 3 205-21 203 71zM63-129c60-2 137 13 137-47 0-61-80-42-137-45v92" id="L"/><g id="h"><use transform="matrix(0.14814814814814817,0,0,0.14814814814814817,0,0)" xlink:href="#L"/><use transform="matrix(0.14814814814814817,0,0,0.14814814814814817,38.370370370370374,0)" xlink:href="#I"/><use transform="matrix(0.14814814814814817,0,0,0.14814814814814817,73.92592592592592,0)" xlink:href="#J"/></g><path d="M100-194c62-1 85 37 85 99 1 63-27 99-86 99S16-35 15-95c0-66 28-99 85-99zM99-20c44 1 53-31 53-75 0-43-8-75-51-75s-53 32-53 75 10 74 51 75" id="M"/><path d="M210-169c-67 3-38 105-44 169h-31v-121c0-29-5-50-35-48C34-165 62-65 56 0H25l-1-190h30c1 10-1 24 2 32 10-44 99-50 107 0 11-21 27-35 58-36 85-2 47 119 55 194h-31v-121c0-29-5-49-35-48" id="N"/><path d="M115-194c55 1 70 41 70 98S169 2 115 4C84 4 66-9 55-30l1 105H24l-1-265h31l2 30c10-21 28-34 59-34zm-8 174c40 0 45-34 45-75s-6-73-45-74c-42 0-51 32-51 76 0 43 10 73 51 73" id="O"/><path d="M59-47c-2 24 18 29 38 22v24C64 9 27 4 27-40v-127H5v-23h24l9-43h21v43h35v23H59v120" id="P"/><path d="M115-194c53 0 69 39 70 98 0 66-23 100-70 100C84 3 66-7 56-30L54 0H23l1-261h32v101c10-23 28-34 59-34zm-8 174c40 0 45-34 45-75 0-40-5-75-45-74-42 0-51 32-51 76 0 43 10 73 51 73" id="Q"/><path d="M24 0v-261h32V0H24" id="R"/><path d="M100-194c63 0 86 42 84 106H49c0 40 14 67 53 68 26 1 43-12 49-29l28 8c-11 28-37 45-77 45C44 4 14-33 15-96c1-61 26-98 85-98zm52 81c6-60-76-77-97-28-3 7-6 17-6 28h103" id="S"/><g id="i"><use transform="matrix(0.14814814814814817,0,0,0.14814814814814817,0,0)" xlink:href="#y"/><use transform="matrix(0.14814814814814817,0,0,0.14814814814814817,38.370370370370374,0)" xlink:href="#M"/><use transform="matrix(0.14814814814814817,0,0,0.14814814814814817,68,0)" xlink:href="#N"/><use transform="matrix(0.14814814814814817,0,0,0.14814814814814817,112.2962962962963,0)" xlink:href="#O"/><use transform="matrix(0.14814814814814817,0,0,0.14814814814814817,141.92592592592592,0)" xlink:href="#E"/><use transform="matrix(0.14814814814814817,0,0,0.14814814814814817,171.55555555555554,0)" xlink:href="#P"/><use transform="matrix(0.14814814814814817,0,0,0.14814814814814817,186.37037037037035,0)" xlink:href="#J"/><use transform="matrix(0.14814814814814817,0,0,0.14814814814814817,198.07407407407402,0)" xlink:href="#Q"/><use transform="matrix(0.14814814814814817,0,0,0.14814814814814817,227.7037037037037,0)" xlink:href="#R"/><use transform="matrix(0.14814814814814817,0,0,0.14814814814814817,239.40740740740742,0)" xlink:href="#S"/></g><path d="M197 0v-115H63V0H30v-248h33v105h134v-105h34V0h-34" id="T"/><g id="j"><use transform="matrix(0.14814814814814817,0,0,0.14814814814814817,0,0)" xlink:href="#T"/><use transform="matrix(0.14814814814814817,0,0,0.14814814814814817,38.370370370370374,0)" xlink:href="#S"/><use transform="matrix(0.14814814814814817,0,0,0.14814814814814817,68,0)" xlink:href="#E"/><use transform="matrix(0.14814814814814817,0,0,0.14814814814814817,97.62962962962962,0)" xlink:href="#G"/><use transform="matrix(0.14814814814814817,0,0,0.14814814814814817,127.25925925925925,0)" xlink:href="#S"/><use transform="matrix(0.14814814814814817,0,0,0.14814814814814817,156.8888888888889,0)" xlink:href="#F"/></g><path d="M84 4C-5 8 30-112 23-190h32v120c0 31 7 50 39 49 72-2 45-101 50-169h31l1 190h-30c-1-10 1-25-2-33-11 22-28 36-60 37" id="U"/><g id="k"><use transform="matrix(0.14814814814814817,0,0,0.14814814814814817,0,0)" xlink:href="#D"/><use transform="matrix(0.14814814814814817,0,0,0.14814814814814817,38.370370370370374,0)" xlink:href="#U"/><use transform="matrix(0.14814814814814817,0,0,0.14814814814814817,68,0)" xlink:href="#E"/><use transform="matrix(0.14814814814814817,0,0,0.14814814814814817,97.62962962962962,0)" xlink:href="#R"/></g><g id="l"><use transform="matrix(0.14814814814814817,0,0,0.14814814814814817,0,0)" xlink:href="#y"/><use transform="matrix(0.14814814814814817,0,0,0.14814814814814817,38.370370370370374,0)" xlink:href="#M"/><use transform="matrix(0.14814814814814817,0,0,0.14814814814814817,68,0)" xlink:href="#R"/><use transform="matrix(0.14814814814814817,0,0,0.14814814814814817,79.70370370370371,0)" xlink:href="#M"/><use transform="matrix(0.14814814814814817,0,0,0.14814814814814817,109.33333333333334,0)" xlink:href="#F"/></g><path d="M135-143c-3-34-86-38-87 0 15 53 115 12 119 90S17 21 10-45l28-5c4 36 97 45 98 0-10-56-113-15-118-90-4-57 82-63 122-42 12 7 21 19 24 35" id="V"/><g id="m"><use transform="matrix(0.14814814814814817,0,0,0.14814814814814817,0,0)" xlink:href="#r"/><use transform="matrix(0.14814814814814817,0,0,0.14814814814814817,35.55555555555556,0)" xlink:href="#P"/><use transform="matrix(0.14814814814814817,0,0,0.14814814814814817,50.370370370370374,0)" xlink:href="#E"/><use transform="matrix(0.14814814814814817,0,0,0.14814814814814817,80,0)" xlink:href="#P"/><use transform="matrix(0.14814814814814817,0,0,0.14814814814814817,94.81481481481481,0)" xlink:href="#U"/><use transform="matrix(0.14814814814814817,0,0,0.14814814814814817,124.44444444444444,0)" xlink:href="#V"/></g><path d="M30 0v-248h33v221h125V0H30" id="W"/><path d="M30 0v-248h187v28H63v79h144v27H63v87h162V0H30" id="X"/><g id="n"><use transform="matrix(0.14814814814814817,0,0,0.14814814814814817,0,0)" xlink:href="#W"/><use transform="matrix(0.14814814814814817,0,0,0.14814814814814817,29.629629629629633,0)" xlink:href="#X"/><use transform="matrix(0.14814814814814817,0,0,0.14814814814814817,65.18518518518519,0)" xlink:href="#D"/></g><path d="M177-190C167-65 218 103 67 71c-23-6-38-20-44-43l32-5c15 47 100 32 89-28v-30C133-14 115 1 83 1 29 1 15-40 15-95c0-56 16-97 71-98 29-1 48 16 59 35 1-10 0-23 2-32h30zM94-22c36 0 50-32 50-73 0-42-14-75-50-75-39 0-46 34-46 75s6 73 46 73" id="Y"/><path d="M106-169C34-169 62-67 57 0H25v-261h32l-1 103c12-21 28-36 61-36 89 0 53 116 60 194h-32v-121c2-32-8-49-39-48" id="Z"/><g id="o"><use transform="matrix(0.14814814814814817,0,0,0.14814814814814817,0,0)" xlink:href="#T"/><use transform="matrix(0.14814814814814817,0,0,0.14814814814814817,38.370370370370374,0)" xlink:href="#J"/><use transform="matrix(0.14814814814814817,0,0,0.14814814814814817,50.07407407407407,0)" xlink:href="#Y"/><use transform="matrix(0.14814814814814817,0,0,0.14814814814814817,79.70370370370371,0)" xlink:href="#Z"/></g><g id="p"><use transform="matrix(0.14814814814814817,0,0,0.14814814814814817,0,0)" xlink:href="#r"/><use transform="matrix(0.14814814814814817,0,0,0.14814814814814817,35.55555555555556,0)" xlink:href="#O"/><use transform="matrix(0.14814814814814817,0,0,0.14814814814814817,65.18518518518519,0)" xlink:href="#S"/><use transform="matrix(0.14814814814814817,0,0,0.14814814814814817,94.81481481481482,0)" xlink:href="#S"/><use transform="matrix(0.14814814814814817,0,0,0.14814814814814817,124.44444444444446,0)" xlink:href="#G"/></g><g id="q"><use transform="matrix(0.14814814814814817,0,0,0.14814814814814817,0,0)" xlink:href="#z"/><use transform="matrix(0.14814814814814817,0,0,0.14814814814814817,38.370370370370374,0)" xlink:href="#r"/><use transform="matrix(0.14814814814814817,0,0,0.14814814814814817,73.92592592592592,0)" xlink:href="#C"/></g></defs></g></svg>